<svg xmlns="http://www.w3.org/2000/svg" width="265" height="616" viewBox="0 0 265 616">
    <defs>
        <linearGradient id="a" x1="96.093%" x2="1.381%" y1="98.087%" y2=".702%">
            <stop offset="0%" stop-color="#A19062"/>
            <stop offset="100%" stop-color="#ECE4C8"/>
        </linearGradient>
    </defs>
    <g fill="none" fill-rule="evenodd">
        <g fill="#F3EEE0">
            <path d="M95.34 204.496l19.541 5.858.748-19.53-20.29 13.672zm20.004 6.775a.41.41 0 0 1-.2-.007l-20.84-6.248a.395.395 0 0 1-.107-.707l21.638-14.582a.407.407 0 0 1 .42-.019.39.39 0 0 1 .206.36l-.798 20.829a.396.396 0 0 1-.319.374z"/>
            <path d="M115.945 168.98l-20.377 33.79 19.94-13.4.437-20.39zm-21.557 35.5a.407.407 0 0 1-.358-.097.39.39 0 0 1-.068-.488l22.071-36.6a.404.404 0 0 1 .454-.18.392.392 0 0 1 .29.385l-.474 22.087a.393.393 0 0 1-.176.32L94.53 204.42a.401.401 0 0 1-.142.06z"/>
            <path d="M116.448 167.366l-.326 19.767 17.856-46.085-17.53 26.318zm-.673 22.345a.395.395 0 0 1-.474-.394l.366-22.082c0-.076.024-.149.065-.213l19.583-29.4a.389.389 0 0 1 .507-.13.395.395 0 0 1 .185.493l-19.949 51.484a.39.39 0 0 1-.283.242z"/>
            <path d="M136.15 138.17l-19.632 50.139 81.297-53.718-61.666 3.58zm-20.372 51.54a.395.395 0 0 1-.45-.53l20.179-51.532a.401.401 0 0 1 .345-.25l63.38-3.68c.177-.01.34.1.396.27a.394.394 0 0 1-.157.454l-83.557 55.211a.414.414 0 0 1-.136.057z"/>
            <path d="M135.997 138.07l61.126-3.599-59.393-17.946-1.733 21.545zm63.448-2.948a.377.377 0 0 1-.06.007l-63.798 3.756a.393.393 0 0 1-.419-.424l1.81-22.487a.4.4 0 0 1 .172-.296.4.4 0 0 1 .34-.052l61.922 18.712a.395.395 0 0 1 .36.31.403.403 0 0 1-.317.472l-.01.002zM94.972 205.299l-18.149 48.935 37.888-42.978-19.739-5.957zm-19.18 51.184a.4.4 0 0 1-.286-.045.391.391 0 0 1-.17-.475l19.02-51.287a.398.398 0 0 1 .49-.242l20.687 6.243a.394.394 0 0 1 .182.637l-39.707 45.044a.405.405 0 0 1-.217.125z"/>
            <path d="M76.176 255.703l37.926 37.218.82-81.201-38.746 43.983zm38.397 38.542a.399.399 0 0 1-.362-.104L75.35 256.005a.39.39 0 0 1-.019-.541l39.7-45.068a.399.399 0 0 1 .698.263l-.84 83.203a.4.4 0 0 1-.316.383z"/>
            <path d="M115.536 211.027l-.725 81.963 115.454-102.362-114.73 20.399zm-1.047 83.236a.392.392 0 0 1-.478-.389l.736-83.181c.002-.191.113-.334.327-.387l116.433-20.702a.395.395 0 0 1 .331.685l-117.17 103.884a.399.399 0 0 1-.179.09z"/>
            <path d="M115.59 210.452l111.551-19.818-110.857-.147-.694 19.965zm116.122-19.826l-.02.004-.013.003-116.432 20.686a.396.396 0 0 1-.465-.404l.725-20.84a.396.396 0 0 1 .395-.383l115.67.154a.397.397 0 0 1 .14.78z"/>
            <path d="M117.165 189.648l113.758.193-31.481-54.798-82.277 54.605zm114.527.981a.434.434 0 0 1-.083.009l-115.759-.197a.398.398 0 1 1-.219-.73l83.724-55.565a.4.4 0 0 1 .563.133l31.978 55.664a.394.394 0 0 1 .12.21c.046.219-.066.44-.315.474l-.01.002z"/>
            <path d="M242.853 122.52l-11.908 67.43 38.816-10.329-26.908-57.102zm-12.323 68.357a.394.394 0 0 1-.472-.455l12.232-69.267a.395.395 0 1 1 .749-.1l27.64 58.657a.396.396 0 0 1-.257.55l-39.873 10.61-.019.005z"/>
            <path d="M199.823 135.25l31.193 53.938 11.982-67.565-43.175 13.626zm31.476 55.464l-.014.003a.4.4 0 0 1-.413-.193l-31.982-55.306a.394.394 0 0 1 .225-.573l44.268-13.971a.387.387 0 0 1 .381.078.392.392 0 0 1 .129.365l-12.286 69.277a.397.397 0 0 1-.308.32z"/>
            <path d="M230.95 190.658l-114.842 102.23 188.36-63.199-73.517-39.031zM114.488 294.263a.393.393 0 0 1-.422-.188.394.394 0 0 1 .077-.493l116.49-103.696a.394.394 0 0 1 .445-.054l74.57 39.59a.395.395 0 0 1-.057.723l-191.06 64.107-.043.011z"/>
            <path d="M231.503 190.49l72.674 38.158-33.982-48.447-38.692 10.29zm74.017 39.653a.4.4 0 0 1-.268-.038l-75.015-39.387a.389.389 0 0 1-.208-.392.395.395 0 0 1 .292-.337l39.938-10.621c.15-.052.333.018.428.155l35.013 49.918a.388.388 0 0 1 .145.23c.046.216-.063.434-.315.47l-.01.002zM104.318 154.646l-9.002 48.299 20.716-34.722-11.714-13.577zm-9.723 50.812a.397.397 0 0 1-.476-.46l9.564-51.315a.404.404 0 0 1 .29-.312c.15-.042.308.01.409.126l12.445 14.424a.393.393 0 0 1 .04.461l-22.01 36.89a.405.405 0 0 1-.262.186z"/>
            <path d="M104.533 153.224l11.613 13.854 18.387-28.25-30 14.396zm11.739 14.912a.39.39 0 0 1-.38-.133l-12.289-14.66a.416.416 0 0 1-.086-.347.39.39 0 0 1 .214-.278l31.743-15.234a.39.39 0 0 1 .465.105.41.41 0 0 1 .031.486l-19.455 29.893a.386.386 0 0 1-.243.168z"/>
            <path d="M137.63 116.997l-31.922 35.751 30.286-14.362 1.637-21.39zm-33.454 37.353a.4.4 0 0 1-.403-.154.403.403 0 0 1 .023-.506l34.026-38.106a.396.396 0 0 1 .452-.1.402.402 0 0 1 .24.4l-1.744 22.797a.395.395 0 0 1-.226.33l-32.281 15.31a.435.435 0 0 1-.087.029z"/>
            <path d="M137.758 115.889l60.1 18.466-13.61-55.275-46.49 36.809zm60.732 19.436a.4.4 0 0 1-.198-.009l-61.482-18.892a.398.398 0 0 1-.13-.689l47.56-37.658a.394.394 0 0 1 .627.217l13.923 56.549a.393.393 0 0 1-.3.482z"/>
            <path d="M136.81 81.831l.547 33.651 45.735-36.67-46.283 3.02zm.25 34.859a.386.386 0 0 1-.251-.031.408.408 0 0 1-.226-.357l-.566-34.842a.388.388 0 0 1 .364-.402l47.922-3.127a.396.396 0 0 1 .395.255.405.405 0 0 1-.122.459l-47.355 37.969a.396.396 0 0 1-.161.076z"/>
            <path d="M185.77 79.215l13.58 55.079 43.23-13.641-56.81-41.438zm13.377 55.97a.396.396 0 0 1-.469-.293l-13.941-56.545a.398.398 0 0 1 .621-.414l58.325 42.541a.394.394 0 0 1-.117.696l-44.382 14.005a.463.463 0 0 1-.037.01z"/>
            <path d="M137.12 81.293l43.924-2.984-45.31-5.353 1.387 8.337zm48.31-2.488a.335.335 0 0 1-.056.008l-48.56 3.299a.398.398 0 0 1-.42-.331l-1.533-9.218a.4.4 0 0 1 .44-.462l50.04 5.913a.397.397 0 0 1 .107.787.058.058 0 0 0-.018.004zM136.678 71.413l47.731 5.55-17.02-29.147-30.71 23.597zm48.549 6.413a.383.383 0 0 1-.13.005l-49.47-5.752a.39.39 0 0 1-.193-.697l31.83-24.458a.391.391 0 0 1 .315-.074c.112.02.208.089.265.186l17.584 30.11a.394.394 0 0 1-.192.678l-.01.002z"/>
            <path d="M185.737 78.39l57.365 42.113 4.004-118.742-61.369 76.629zm57.82 43.266a.395.395 0 0 1-.319-.068l-58.305-42.802a.394.394 0 0 1-.159-.269.402.402 0 0 1 .084-.3L247.233.33a.397.397 0 1 1 .706.261l-4.068 120.69a.398.398 0 0 1-.315.375z"/>
            <path d="M167.936 47.898l17.348 29.842 60.602-75.723-77.95 45.88zm17.378 30.932a.397.397 0 0 1-.426-.19l-17.836-30.685a.397.397 0 0 1 .141-.542L247.343.237a.397.397 0 0 1 .511.59L185.542 78.69a.403.403 0 0 1-.228.14zM116.056 294.54l211.75 45.367L305.33 231.04l-189.273 63.498zm212.341 46.266a.396.396 0 0 1-.165 0l-213.751-45.797a.395.395 0 0 1-.042-.76l191.06-64.098a.394.394 0 0 1 .511.295L328.7 340.34a.394.394 0 0 1-.303.466z"/>
            <path d="M102.179 293.145l11.429.273-35.203-34.303 23.774 34.03zm12.51 1.075a.465.465 0 0 1-.093.01l-12.643-.301a.4.4 0 0 1-.318-.17l-26.298-37.643a.392.392 0 0 1 .074-.527.402.402 0 0 1 .537.02l38.941 37.945a.39.39 0 0 1 .085.435.401.401 0 0 1-.285.231zM249.066 1.62L351.72 92.403l15.415-50.915-118.069-39.87zM352 93.493a.391.391 0 0 1-.342-.09L247.078.914a.396.396 0 0 1 .388-.67L367.75 40.863a.396.396 0 0 1 .251.489l-15.703 51.87a.395.395 0 0 1-.271.265l-.027.007z"/>
            <path d="M247.67 1.487l-3.914 119.295L351.383 93.57 247.67 1.487zm-4.245 120.197a.394.394 0 0 1-.477-.401L246.907.616a.395.395 0 0 1 .657-.284l104.906 93.14a.398.398 0 0 1-.166.683L243.44 121.68l-.015.003zM270.781 179.93l58.488 44.884-1.597-85.201-56.89 40.318zm58.981 46.083a.4.4 0 0 1-.325-.072l-59.562-45.709a.394.394 0 0 1 .012-.635l57.938-41.06a.395.395 0 1 1 .624.313l1.627 86.77a.4.4 0 0 1-.314.393z"/>
            <path d="M243.996 121.639l27.136 57.596 56.934-40.35-84.07-17.246zm27.062 58.579a.4.4 0 0 1-.442-.218l-27.674-58.74a.393.393 0 0 1 .048-.413.392.392 0 0 1 .39-.14l85.738 17.585a.395.395 0 0 1 .15.71l-58.064 41.152a.404.404 0 0 1-.146.064z"/>
            <path d="M244.915 120.327l83.586 17.138 22.761-43.996-106.347 26.858zm83.882 17.97a.38.38 0 0 1-.162 0l-85.57-17.542a.395.395 0 0 1-.015-.77L351.92 92.49a.376.376 0 0 1 .407.137.397.397 0 0 1 .042.425l-23.302 45.04a.4.4 0 0 1-.27.205z"/>
        </g>
        <path fill="url(#a)" d="M361.355 522.664l32.192-42.23 1.237 12.166-33.43 30.064zm-62.256-239.406l113.597-39.138-19.131 233.653-94.466-194.515zm-154.41 156.685l7.871-6.043.098 8.997.468 43.12-29.757-29.703 21.32-16.371zm7.541-6.847l-29.42 22.592-59.661-76.782 89.081 54.19zm-5.518-180.758l20.513-34.244 29.47 52.322-49.983-18.078zm102.845 74.385l-51.096-55.23 91.23-13.572-40.134 68.802zm-126.12-77.52l21.94 3.661-20.746 30.579-62.393 91.966 26.408-132.013 34.791 5.807zm175.248 32.949l-7.611-24.323 26.507 1.418-18.896 22.905zm114.053-38.993l-88.072 14.278 87.739-26.367.333 12.09zM305.856 490.356l87.067-10.486-34.706 45.528-35.387-23.682-16.974-11.36zm86.726-12.686L266.976 368.41l13.848-36.969 17.74-47.36 19.806 40.779 74.212 152.811zM290.377 258.41l7.658 24.476-22.252 20.216-24.413 22.178 23.888-40.95 15.119-25.92zm38.55 13.685l-29.14 10.04 18.87-22.875 89.75-14.55-79.48 27.385zm-139.132 93.503l-36.98 66.873-90.1-54.81 127.08-12.063zm203.076 113.434l-87.892 10.585-37.652-119.79 85.629 74.485 39.915 34.72zm-181.283-66.305l12.171 64.587-23.339 1.169 11.168-65.756zm-48.837 16.988l48.278-18.71-11.389 67.064-45.91-44.857 9.021-3.497zm27.2-64.974l-74.859 7.107-52.826 5.014 83.726-123.41 35.35 89.494 8.61 21.795zm.314-1.49l-43.444-109.982 50.35 18.212-6.906 91.77zm.762 1.05l6.934-92.115 51.025 55.154-57.959 36.962zm67.637 130.064l-30.789-15.326 21.542 5.36L279.98 492l-20.248 2.247-1.067.118zm38.85-209.872l-31.05 82.892-16.33-39.848 4.895-4.448 42.486-38.596zm-107 81.538l18.884 40.644 1.6 3.444-57.101 22.129 22.691-41.037 13.925-25.18zm58.923-37.984l16.407 40.04-14.563-.658-59.391-2.683 20.481-13.062 37.066-23.637zm33.28 163.656L267.5 373.175l16.37 52.082 20.258 64.449-10.786 1.006-10.625.991zm-58.093-14.336l-12.358-65.57 68.904 79.636L251.293 484l-26.669-6.634zm57.136 13.466l-29.167-33.709-40.417-46.713 53.98-41.104 11.357 88.452 4.247 33.074zm-16.453-121.931l-45.673 34.775-7.907 6.02-20.51-44.142 21.047.95 53.043 2.397zm38.87 121.64l-3.644 21.461-12.285-13.835-5.032-5.668 11.033-1.03 9.929-.927zm-46.27 4.382l-12.925 14.334-19.549-30.498 32.474 16.164zm24.275-2.325l17.056 19.208-39.027-16.77 21.971-2.438zM145.978 251.931l-55.141-44.149 75.71 9.81-20.569 34.34zm-46.51-36.163l45.104 36.112-55.827-9.317 1.055-34.536 9.668 7.74zm54.34 255.888l-.369-34.093 9.21 46.294-8.68 2.62-.16-14.82zm5.714-7.824l-5.876-29.53 45.372 44.331-35.547 5.044-3.95-19.845zm56.534 14.707l7.983-.4 19.41 30.28-42.274-29.133 14.881-.747zm39.072 20.72l3.57-3.96 39.775 17.092-52.648-2.815 9.303-10.317zM356.2 525.058l-54.92-12.444.394-2.32 3.314-19.51 19.445 13.013 31.767 21.26zm57.036-294.243l10.94-3.52-10.624 14.952-.202-7.328-.114-4.104zm12.355-4.062a.415.415 0 0 0-.005-.49.413.413 0 0 0-.466-.152l-12.44 4.001v.001l-94.295 28.337-27.869-1.49c-.017-.002-.033.007-.05.009-.012 0-.022-.007-.034-.005l-92.593 13.774-30.238-53.685c-.013-.023-.037-.036-.054-.056-.026-.03-.05-.063-.084-.086-.028-.018-.058-.023-.088-.034-.03-.011-.054-.03-.086-.035L89.461 206.76h-.002a.411.411 0 0 0-.23.036c-.006.003-.01.011-.016.015-.02.01-.03.027-.048.04a.398.398 0 0 0-.121.136c-.006.01-.019.014-.024.025-.007.02.001.04-.004.06-.008.031-.028.058-.03.092l-1.088 35.702-26.887 134.403v.004l-.003.01v.03c-.002.013-.007.026-.008.04 0 .013.005.027.006.04a.529.529 0 0 0 .025.122l.01.022.016.034c0 .002 0 .005.002.007.003.005.009.008.012.013.007.01.01.02.017.031l61.315 78.91c.006.007.015.01.022.017.005.007.006.015.013.022l30.822 30.765c.009.009.02.012.029.02.007.006.01.017.02.022.008.006.02.004.028.01.067.042.14.07.22.07h.026c.063 0 .121-.016.176-.041l9.473-2.859 36.584-5.19 44.866 30.92.002.002.004.003c.003.002.007 0 .01.003a.423.423 0 0 0 .192.07h.01l.003.001 55.836 2.985 57.478 13.023c.031.008.067.009.09.01l.003.001h.001l.01.001h.005c.13 0 .243-.065.32-.158l36.858-33.147a.425.425 0 0 0 .136-.354l-1.356-13.346c.001-.016.008-.03.008-.046 0-.019-.007-.036-.01-.055l19.294-235.618 12.015-16.909z" transform="rotate(127 215.532 364.606)"/>
    </g>
</svg>
