<svg xmlns="http://www.w3.org/2000/svg" width="113" height="112" viewBox="0 0 113 112">
    <defs>
        <linearGradient id="a" x1="96.093%" x2="1.381%" y1="98.087%" y2=".702%">
            <stop offset="0%" stop-color="#A19062"/>
            <stop offset="22.309%" stop-color="#ECE4C8"/>
            <stop offset="44.681%" stop-color="#A19062"/>
            <stop offset="65.472%" stop-color="#ECE4C8"/>
            <stop offset="82.119%" stop-color="#A19062"/>
            <stop offset="100%" stop-color="#ECE4C8"/>
        </linearGradient>
    </defs>
    <path fill="url(#a)" fill-rule="evenodd" d="M107.424 1462.174l-9.565-32.53 36.204 24.586-26.639 7.944zm-46.258 40.858l46.206-40.249 25.615-7.64-71.82 47.889zm5.89-50.123l39.576 9.764-48.567 42.306 8.99-52.07zm-9.4 51.09l-9.07-55.648 17.915 4.42L57.656 1504zm-34.462-84.95l24.774 29.047 8.985 55.125-33.76-84.171zm49.886-5.828l-24.862 34.292-25.363-29.735 50.225-4.557zm13.312-18.361l-12.869 17.75-49.048 4.45 61.917-22.2zm10.473 33.423L74.08 1412.81l12.973-17.894 9.812 33.366zm-30.267 23.927l-17.884-4.413 24.475-33.757-6.59 38.17zm7.286-38.846l23.233 15.777 9.702 32.993-39.667-9.787 6.732-38.983zm59.46 39.69l-35.738-24.268-9.757-33.18 45.495 57.448zm1.653 1.24l-.005-.026a.133.133 0 0 0-.006-.025l-.038-.08-47.563-60.059-.046-.043c-.015-.01-.028-.02-.045-.03l-.03-.012-.12-.019a.187.187 0 0 0-.045.008l-.011-.002-64.903 23.272c-.015.006-.023.012-.017.01a.119.119 0 0 0-.033.014l-.026.02a.222.222 0 0 0-.026.024l.062.07-.08-.053-.018.025-.014.024-.007.008-.022.078-.004.027c0 .018 0 .035.002.051l.005.036a.052.052 0 0 0 .005.013l.002.015 35.364 88.165.006.035.016.014c.004.007.008.014.007.01l.016.028a.294.294 0 0 0 .13.095l.026.006a.108.108 0 0 0 .022.006h.071l.052-.006c.021-.006.037-.015.05-.023l.015-.003 77.087-51.4.057-.047.007-.015a.257.257 0 0 0 .023-.037.26.26 0 0 0 .015-.028l.007-.01.015-.086v-.017a.15.15 0 0 0-.003-.033z" transform="matrix(-1 0 0 1 135 -1394)"/>
</svg>
