<svg xmlns="http://www.w3.org/2000/svg" width="153" height="588" viewBox="0 0 153 588">
    <defs>
        <linearGradient id="a" x1="77.318%" x2="22.505%" y1="-10.751%" y2="113.545%">
            <stop offset="0%" stop-color="#A19062"/>
            <stop offset="100%" stop-color="#ECE4C8"/>
        </linearGradient>
    </defs>
    <path fill="url(#a)" fill-rule="evenodd" d="M1800.448 32.492l87.516-21.266-18.79-9.763-68.726 31.03zm346.58 249.45l132.29-146.336-387.068-122.68 254.778 269.016zm-346.072 131.766l14.518-7.977-14.395-5.986-68.988-28.685 29.536 64.257 39.329-21.609zm15.608-6.957l-54.272 29.817 86.9 140.012-32.628-169.83zm287.026 125.624l67.55-8.791-66.054-78.5-1.496 87.29zm-56.662-203.74l57.51 113.08 77.547-129.112-135.057 16.033zm47.477 240.96l7.523-35.542-61.801 11.52-185.875 34.653 228.223 45.731 11.93-56.362zm54.147-286.309l34.426 27.287 13.919-40.992-48.345 13.705zm132.334-147.12l-76.752 123.879 95.97-115.531-19.218-8.349zm-462.444 1.19l70.047-124.821-94.35 22.928 16.424 68.86 7.88 33.032zm73.373-122.878l98.785 260.777 67.854 3.052 86.928 3.91-53.413-56.4-200.154-211.339zm289.803 296.772l-34.643-27.458-46.074 20.523-50.548 22.515 80.385-9.541 50.88-6.04zm1.57-67.157l-33.936 37.538 48.28-13.685 78.215-126.239-92.56 102.386zm-235.232 149.664l-130.03 12.516 33 171.77 97.03-184.286zm-58.153-380.599l-70.71 126.003 169.444 134.645-67.343-177.779-31.39-82.869zm-4.246 317.075l-96.326-60.306-16.139 34.524 112.465 25.782zm-57.133 62.806l59.557-60.844-114.7-26.296 44.013 98.51 11.13-11.37zm121.005 1.038l-57.159 108.557-40.334 76.608 249.425-46.5-122.178-111.51-29.754-27.155zm2.585.493l150.147 137.036 1.507-87.934-151.654-49.102zm-1.222-1.835l152.225 49.287-57.43-112.923-94.795 63.636zm-167.627-186.639l5.81 56.489 4.553-36.043 6.461-51.135-15.982 29.153-.842 1.536zm360.911 77.44l-152.143-6.843 54.04 50.544 10.137-4.516 87.966-39.185zM1947.7 392.391l-53.758-54.92-4.556-4.653-70.441 71.964 79.793-7.678 48.962-4.713zm97.027-64.433l-54.3-50.782-7.843 22.441-31.979 91.527 33.5-22.488 60.622-40.698zm-242.589-156.496l181.125 99.909-73.67-58.54-91.162-72.44-8.208 15.652-8.085 15.419zm-12.463 97.124l97.79 61.225-85.837-155.836-6.316 49.989-5.637 44.622zm13.277-95.113l36.334 65.964 50.35 91.41 99.02-54.936-135.164-74.558-50.54-27.88zM1988.79 277.46l-83.777 46.482-14.504 8.047 58.386 59.646 11.334-32.432 28.56-81.743zM1817.116 139.77l-36.704-8.414 14.72 27.548 6.032 11.286 8.396-16.012 7.556-14.408zm-35.312 67.107l-30.924 10.239 37.052 49.341-6.128-59.58zm18.569-35.19l-20.437-38.246 3.095 69.879 17.342-31.633zm303.422 362.06l37.235 112.006 30.5-120.82-67.735 8.814zm29.68 93.776l-30.457-91.617-19.143 90.442 56.129 20.813-6.53-19.638zm-377.896-248.179l54.547 22.68-68.746-43.961-9.512 11.422 23.711 9.86zm16.06-3.56l43.852 28.043-43.497-97.355-29.824 50.466 29.47 18.847zm10.917-95.008l5.52-11.808-36.787-48.99 20.975 82.81 10.292-22.012zm-9.413-72.51l8.542-2.829-3.155-71.218-27.647 81.416 22.26-7.37zm20.31-169.535l-13.566 91.1 3.967.91 33.371 7.648-9.025-37.84-14.746-61.818zm507.57 104.69l12.338-14.256-30.513 6.361 11.65 5.06 6.525 2.835zm14.073-16.041a.755.755 0 0 1 .785.324.651.651 0 0 1-.04.803l-14.03 16.21h-.001l-103.142 124.165-14.635 43.097c-.008.028-.032.045-.045.07-.007.018-.003.038-.013.055l-78.706 131.04 67.773 80.545c.028.035.033.08.055.118.034.06.072.116.088.183.011.053 0 .102.001.155 0 .052.016.101.003.152l-31.356 124.2c0 .001-.002 0-.002.002a.635.635 0 0 1-.197.323c-.009.008-.025.008-.034.016-.028.023-.063.028-.095.046a.678.678 0 0 1-.291.096c-.02.002-.034.018-.055.019-.036-.001-.064-.027-.1-.033-.054-.007-.11.005-.164-.015l-58.023-21.519-232.356-46.558h-.003c-.001 0-.002-.003-.004-.002l-.016-.003c-.017-.004-.031-.015-.049-.019-.022-.006-.045-.006-.068-.014-.022-.009-.04-.025-.06-.035a.97.97 0 0 1-.098-.054c-.029-.02-.057-.04-.084-.063l-.029-.03c-.015-.015-.032-.029-.045-.046-.004-.003-.008-.004-.01-.007-.007-.009-.008-.02-.014-.027-.012-.017-.028-.028-.04-.046l-89.307-143.892c-.009-.014-.008-.03-.015-.044-.008-.012-.02-.02-.027-.035l-30.593-66.557c-.008-.018-.007-.038-.013-.055-.005-.016-.02-.028-.025-.044-.004-.017.007-.033.003-.05a.65.65 0 0 1 .02-.379l.003-.004-.001-.001.014-.034a.644.644 0 0 1 .174-.238l10.381-12.467 30.694-51.937-22.262-87.89c-.001-.001 0-.002-.002-.003l-.002-.008c-.002-.007.003-.01.001-.017a.664.664 0 0 1 .006-.336c0-.007.004-.011.005-.017v-.004l29.323-86.345 14.197-95.343c.008-.053.028-.108.039-.142l.001-.007.005-.015.005-.009a.661.661 0 0 1 .448-.38L1868.841.061a.762.762 0 0 1 .653.024l20.612 10.71c.027.008.053.006.078.017.031.012.054.033.083.05l390.323 123.71 34.506-7.192z" transform="translate(-1730)"/>
</svg>
