<svg xmlns="http://www.w3.org/2000/svg" xmlns:xlink="http://www.w3.org/1999/xlink" width="55" height="286" viewBox="0 0 55 286">
    <defs>
        <path id="a" d="M0 0h69v368H0z"/>
        <linearGradient id="c" x1="96.093%" x2="1.381%" y1="98.087%" y2=".702%">
            <stop offset="0%" stop-color="#A19062"/>
            <stop offset="100%" stop-color="#ECE4C8"/>
        </linearGradient>
        <linearGradient id="d" x1="96.093%" x2="1.381%" y1="98.087%" y2=".702%">
            <stop offset="0%" stop-color="#A19062"/>
            <stop offset="22.309%" stop-color="#ECE4C8"/>
            <stop offset="44.681%" stop-color="#A19062"/>
            <stop offset="65.472%" stop-color="#ECE4C8"/>
            <stop offset="82.119%" stop-color="#A19062"/>
            <stop offset="100%" stop-color="#ECE4C8"/>
        </linearGradient>
        <linearGradient id="e" x1="77.318%" x2="22.505%" y1="-10.751%" y2="113.545%">
            <stop offset="0%" stop-color="#A19062"/>
            <stop offset="100%" stop-color="#ECE4C8"/>
        </linearGradient>
    </defs>
    <g fill="none" fill-rule="evenodd" transform="translate(-14 -9)">
        <mask id="b" fill="#fff">
            <use xlink:href="#a"/>
        </mask>
        <g mask="url(#b)">
            <g fill="#EEE9DC">
                <path d="M42.768 218.433l3.625 1.087.138-3.623-3.763 2.536zm3.71 1.257a.076.076 0 0 1-.037-.002l-3.865-1.159a.073.073 0 0 1-.02-.13l4.013-2.705a.076.076 0 0 1 .078-.004c.025.013.04.04.038.067l-.148 3.863a.074.074 0 0 1-.059.07z"/>
                <path d="M46.59 211.846l-3.78 6.267 3.699-2.486.08-3.781zm-3.999 6.584a.075.075 0 0 1-.066-.018.072.072 0 0 1-.013-.09l4.094-6.79a.075.075 0 0 1 .084-.033.073.073 0 0 1 .054.072l-.088 4.097a.073.073 0 0 1-.032.059l-4.006 2.692a.074.074 0 0 1-.027.011z"/>
                <path d="M46.683 211.546l-.06 3.666 3.312-8.547-3.252 4.881zm-.125 4.145a.073.073 0 0 1-.088-.073l.068-4.096c0-.014.005-.028.012-.04l3.633-5.453a.072.072 0 0 1 .094-.024.073.073 0 0 1 .034.091l-3.7 9.55a.073.073 0 0 1-.053.045z"/>
                <path d="M50.337 206.13l-3.64 9.3 15.078-9.963-11.438.664zm-3.778 9.56a.073.073 0 0 1-.084-.098l3.743-9.558a.074.074 0 0 1 .064-.047l11.756-.682a.073.073 0 1 1 .044.134l-15.498 10.24a.077.077 0 0 1-.025.011z"/>
                <path d="M50.31 206.112l11.337-.667-11.017-3.329-.32 3.996zm11.767-.547a.07.07 0 0 1-.01.002l-11.834.696a.073.073 0 0 1-.078-.079l.336-4.17a.074.074 0 0 1 .032-.055.074.074 0 0 1 .063-.01l11.485 3.471c.032.002.06.025.067.058.008.04-.02.08-.059.087h-.002zM42.7 218.582l-3.367 9.076 7.028-7.971-3.661-1.105zm-3.558 9.494a.074.074 0 0 1-.053-.009.073.073 0 0 1-.031-.088l3.527-9.513a.074.074 0 0 1 .091-.045l3.837 1.159a.073.073 0 0 1 .034.118l-7.365 8.354a.075.075 0 0 1-.04.024z"/>
                <path d="M39.213 227.93l7.035 6.904.152-15.061-7.187 8.158zm7.122 7.15a.074.074 0 0 1-.067-.02l-7.208-7.073a.072.072 0 0 1-.003-.1l7.363-8.36a.074.074 0 0 1 .13.05l-.156 15.432a.074.074 0 0 1-.059.07z"/>
                <path d="M46.514 219.644l-.135 15.203 21.415-18.986-21.28 3.783zm-.194 15.439a.073.073 0 0 1-.089-.072l.137-15.429c0-.035.02-.062.06-.071l21.596-3.84a.073.073 0 0 1 .061.127l-21.732 19.268a.074.074 0 0 1-.033.017z"/>
                <path d="M46.524 219.538l20.69-3.676-20.561-.027-.129 3.703zm21.538-3.678l-.003.001h-.003l-21.596 3.837a.073.073 0 0 1-.086-.075l.135-3.865a.073.073 0 0 1 .073-.07l21.454.028a.074.074 0 0 1 .026.144z"/>
                <path d="M46.816 215.679l21.1.036-5.84-10.164-15.26 10.128zm21.243.182a.08.08 0 0 1-.016.002l-21.47-.037a.074.074 0 1 1-.04-.135l15.528-10.307a.074.074 0 0 1 .104.025l5.931 10.325c.011.01.02.023.023.039.008.04-.012.081-.059.088h-.001z"/>
                <path d="M70.129 203.228l-2.209 12.507 7.2-1.916-4.991-10.591zm-2.286 12.679a.073.073 0 0 1-.088-.084l2.27-12.848a.073.073 0 1 1 .139-.019l5.126 10.88a.074.074 0 0 1-.048.102l-7.395 1.968h-.004z"/>
                <path d="M62.148 205.589l5.785 10.005 2.223-12.532-8.008 2.527zm5.838 10.288h-.003a.074.074 0 0 1-.076-.036l-5.933-10.258a.073.073 0 0 1 .042-.106l8.211-2.591a.072.072 0 0 1 .07.014c.02.017.03.043.025.068l-2.28 12.85a.074.074 0 0 1-.056.059z"/>
                <path d="M67.921 215.866L46.62 234.828l34.937-11.722-13.636-7.24zM46.32 235.083a.073.073 0 0 1-.078-.035.073.073 0 0 1 .014-.091l21.607-19.234a.073.073 0 0 1 .083-.01l13.831 7.343a.073.073 0 0 1-.01.134l-35.439 11.891-.008.002z"/>
                <path d="M68.023 215.835l13.48 7.078-6.303-8.986-7.177 1.908zm13.73 7.355a.074.074 0 0 1-.05-.007l-13.914-7.306a.072.072 0 0 1-.039-.072.073.073 0 0 1 .054-.063l7.408-1.97c.028-.01.062.004.08.029l6.494 9.259c.013.01.023.025.027.042.008.04-.012.08-.059.088h-.002zM44.433 209.187l-1.67 8.958 3.843-6.44-2.173-2.518zm-1.803 9.424a.074.074 0 0 1-.088-.085l1.773-9.518a.075.075 0 0 1 .054-.058.074.074 0 0 1 .076.024l2.308 2.675c.021.024.024.058.008.086l-4.083 6.842a.075.075 0 0 1-.048.034z"/>
                <path d="M44.473 208.923l2.154 2.57 3.41-5.24-5.564 2.67zm2.177 2.766a.072.072 0 0 1-.07-.025l-2.28-2.719a.077.077 0 0 1-.015-.064.072.072 0 0 1 .04-.052l5.887-2.825a.072.072 0 0 1 .086.019.076.076 0 0 1 .006.09l-3.609 5.545a.072.072 0 0 1-.045.03z"/>
                <path d="M50.612 202.204l-5.92 6.63 5.617-2.663.303-3.967zm-6.205 6.928a.074.074 0 0 1-.075-.029.075.075 0 0 1 .004-.094l6.312-7.068a.073.073 0 0 1 .083-.018.075.075 0 0 1 .045.074l-.324 4.229a.073.073 0 0 1-.042.06l-5.987 2.84a.08.08 0 0 1-.016.006z"/>
                <path d="M50.636 201.998l11.147 3.425-2.524-10.252-8.623 6.827zm11.264 3.605a.074.074 0 0 1-.036-.002l-11.404-3.504a.074.074 0 0 1-.024-.127l8.821-6.985a.073.073 0 0 1 .116.04l2.583 10.489a.073.073 0 0 1-.056.09z"/>
                <path d="M50.46 195.681l.101 6.242 8.483-6.802-8.584.56zm.046 6.466a.072.072 0 0 1-.046-.006.076.076 0 0 1-.042-.066l-.105-6.463c-.001-.04.029-.073.067-.074l8.889-.58a.073.073 0 0 1 .073.047.075.075 0 0 1-.022.085l-8.784 7.043a.073.073 0 0 1-.03.014z"/>
                <path d="M59.541 195.196l2.519 10.216 8.018-2.53-10.537-7.686zm2.481 10.381a.073.073 0 0 1-.087-.054l-2.586-10.488a.074.074 0 0 1 .115-.077l10.819 7.89a.073.073 0 0 1-.022.13l-8.232 2.597-.007.002z"/>
                <path d="M50.517 195.581l8.147-.553-8.404-.993.257 1.546zm8.96-.461a.062.062 0 0 1-.01.001l-9.006.612a.074.074 0 0 1-.078-.061l-.285-1.71a.074.074 0 0 1 .082-.086l9.281 1.097a.074.074 0 0 1 .02.146.01.01 0 0 0-.003 0zM50.435 193.749l8.854 1.029-3.157-5.406-5.697 4.377zm9.005 1.19a.071.071 0 0 1-.024 0l-9.175-1.067a.072.072 0 0 1-.036-.13l5.903-4.536a.073.073 0 0 1 .059-.013c.02.004.038.016.049.034l3.261 5.585a.073.073 0 0 1-.035.126h-.002z"/>
                <path d="M59.535 195.043l10.64 7.81.743-22.023-11.383 14.213zm10.724 8.025a.073.073 0 0 1-.059-.013l-10.814-7.939a.073.073 0 0 1-.03-.05.075.075 0 0 1 .016-.055l11.57-14.447a.074.074 0 1 1 .131.048l-.755 22.386a.074.074 0 0 1-.059.07z"/>
                <path d="M56.233 189.387l3.218 5.535 11.24-14.045-14.458 8.51zm3.223 5.737a.074.074 0 0 1-.079-.035l-3.308-5.691a.074.074 0 0 1 .026-.1l14.866-8.751a.074.074 0 0 1 .095.11L59.5 195.097a.075.075 0 0 1-.043.026zM46.61 235.134l39.276 8.415-4.17-20.192-35.106 11.777zm39.386 8.582a.073.073 0 0 1-.031 0l-39.647-8.495a.073.073 0 0 1-.008-.14l35.439-11.89a.073.073 0 0 1 .094.055l4.209 20.383a.073.073 0 0 1-.056.087z"/>
                <path d="M44.036 234.876l2.12.05-6.53-6.362 4.41 6.312zm2.32.2a.086.086 0 0 1-.016 0l-2.345-.055a.074.074 0 0 1-.06-.031l-4.877-6.983a.073.073 0 0 1 .014-.097.075.075 0 0 1 .1.003l7.222 7.039c.021.02.028.053.016.08a.074.074 0 0 1-.053.043zM71.022 180.779l-.726 22.127 19.963-5.048-19.237-17.08zm-.787 22.294a.073.073 0 0 1-.089-.074l.735-22.382a.073.073 0 0 1 .122-.053L90.46 197.84a.074.074 0 0 1-.031.127l-20.192 5.105-.003.001z"/>
            </g>
            <path fill="url(#c)" d="M67.397 96.944l5.971-7.833.23 2.257-6.2 5.576zM55.85 52.54l21.07-7.26-3.548 43.339-17.522-36.08zM27.21 81.6l1.46-1.121.018 1.669.087 7.998-5.52-5.51 3.955-3.036zm1.399-1.27l-5.457 4.19L12.086 70.28l16.523 10.05zm-1.024-33.527l3.805-6.352 5.466 9.705-9.27-3.353zM46.661 60.6l-9.477-10.244 16.921-2.518-7.444 12.762zM23.268 46.222l4.07.68-3.848 5.671-11.573 17.058 4.898-24.486 6.453 1.077zm32.505 6.112l-1.411-4.512 4.916.263-3.505 4.249zM76.928 45.1L60.592 47.75l16.274-4.89.062 2.241zm-19.825 45.85l16.15-1.944-6.438 8.444-6.563-4.392-3.149-2.107zM73.19 88.6L49.892 68.333l2.568-6.857 3.291-8.785 3.673 7.564L73.19 88.6zM54.232 47.93l1.42 4.54-4.127 3.75-4.528 4.113 4.431-7.595 2.804-4.808zm7.15 2.538l-5.404 1.863 3.5-4.243 16.647-2.699-14.742 5.08zM35.577 67.811l-6.859 12.404-16.712-10.166 23.571-2.238zm37.667 21.04L56.94 90.814l-6.984-22.218L65.839 82.41l7.404 6.44zM39.618 76.553l2.258 11.98-4.329.216 2.071-12.196zm-9.058 3.15l8.955-3.47-2.113 12.44-8.515-8.32 1.673-.65zm5.045-12.05L21.72 68.97l-9.798.93 15.53-22.89 6.557 16.599 1.596 4.042zm.058-.277l-8.058-20.4 9.34 3.378-1.282 17.022zm.142.195l1.286-17.086 9.464 10.23-10.75 6.856zM48.35 91.695l-5.71-2.842 3.995.993 5.669 1.41-3.756.417-.198.022zm7.206-38.927l-5.759 15.375-3.03-7.391.909-.825 7.88-7.16zM35.71 67.892l3.502 7.538.297.64-10.591 4.104 4.209-7.612 2.583-4.67zm10.929-7.046l3.043 7.427-2.701-.122-11.016-.498 3.799-2.422 6.875-4.385zm6.172 30.356L49.99 69.217l3.036 9.66 3.758 11.954-2 .187-1.972.184zm-10.775-2.66L39.744 76.38l12.78 14.771-5.541-1.378-4.947-1.23zm10.598 2.498l-5.41-6.252-7.497-8.665L49.74 68.5l2.106 16.407.788 6.134zm-3.052-22.616l-8.471 6.45-1.467 1.117-3.804-8.188 3.904.177 9.838.444zm7.21 22.562l-.676 3.98-2.278-2.565-.934-1.052 2.046-.19 1.842-.173zm-8.582.813l-2.398 2.658-3.626-5.656 6.024 2.998zm4.502-.431l3.164 3.562-7.239-3.11 4.075-.452zM27.45 46.728L17.221 38.54l14.043 1.82-3.815 6.368zm-8.627-6.707l8.366 6.698-10.355-1.728.196-6.406 1.793 1.436zm10.08 47.462l-.07-6.324 1.71 8.587-1.61.486-.03-2.749zm1.06-1.451l-1.09-5.477 8.415 8.222-6.593.936-.733-3.681zm10.485 2.728l1.48-.074 3.601 5.616-7.84-5.404 2.76-.138zm7.247 3.843l.663-.734 7.377 3.17-9.765-.522 1.725-1.914zm18.747 4.785L56.255 95.08l.073-.43.614-3.62 3.607 2.415 5.892 3.943zm10.58-54.576l2.029-.653-1.971 2.773-.038-1.359-.02-.761zm2.29-.754a.077.077 0 0 0 0-.09.077.077 0 0 0-.086-.029l-2.308.742-17.49 5.256-5.169-.276-.01.002-.005-.001-17.175 2.555-5.608-9.958-.01-.01c-.005-.006-.01-.012-.016-.016l-.016-.007c-.006-.002-.01-.005-.016-.006l-14.436-1.87a.076.076 0 0 0-.043.006c0 .001-.001.003-.003.003l-.009.008a.074.074 0 0 0-.022.025c-.001.002-.004.003-.004.005-.002.003 0 .007-.001.01-.002.006-.005.011-.006.018l-.202 6.622-4.987 24.929v.008l-.002.007.001.008a.098.098 0 0 0 .005.023l.002.004.003.006v.001l.003.003c0 .002.001.004.003.005l11.372 14.637.004.003.003.004L28.8 90.39l.005.004.004.004c.001.001.003 0 .005.002a.077.077 0 0 0 .04.013h.006a.077.077 0 0 0 .032-.008l1.757-.53 6.786-.963 8.322 5.736h.003c.01.008.023.013.035.014h.002l10.357.554 10.661 2.415c.006.002.013.002.017.002h.003a.077.077 0 0 0 .06-.029l6.836-6.148a.079.079 0 0 0 .026-.066l-.252-2.475.002-.009-.002-.01 3.578-43.702 2.229-3.137z" transform="rotate(127 7.708 164.04)"/>
            <path fill="url(#d)" d="M52.122 198.502l.001.013v.007l-.006.032-.002.004a.085.085 0 0 1-.006.01.11.11 0 0 1-.009.015l-.003.005-.02.018-29.028 19.421-.006.002a.075.075 0 0 1-.018.008l-.02.002H22.978a.065.065 0 0 1-.008-.002l-.01-.002a.108.108 0 0 1-.049-.036l-.006-.01-.002-.004-.006-.005-.003-.014-13.316-33.314v-.005l-.003-.005-.001-.014a.087.087 0 0 1 0-.019v-.01l.008-.03.003-.002.006-.01.007-.01.03.021-.024-.027a.074.074 0 0 1 .01-.009l.01-.007c.005-.004.01-.005.012-.006l.007-.004 24.439-8.793h.004a.073.073 0 0 1 .017-.002l.045.007.011.005a.114.114 0 0 1 .017.011l.018.016 17.91 22.694.013.03.003.01.002.01zm-10.383 2.978l10.03-3.002-13.632-9.29 3.602 12.292zm-17.418 15.438l27.044-18.094-9.645 2.886-17.399 15.208zm2.218-18.94l-3.386 19.676 18.288-15.985-14.902-3.69zm-3.54 19.306l3.33-19.357-6.745-1.67 3.415 21.027zm-12.977-32.099l12.712 31.805-3.383-20.83-9.329-10.975zm18.785-2.202l-18.912 1.722 9.55 11.235 9.362-12.957zm5.013-6.938l-23.315 8.389 18.469-1.682 4.846-6.707zm3.943 12.629l-3.695-12.608-4.884 6.762 8.579 5.846zm-11.397 9.041l2.482-14.423-9.216 12.756 6.734 1.667zm2.743-14.678l-2.534 14.73 14.936 3.698-3.653-12.467-8.749-5.961zm22.39 14.997l-17.13-21.707 3.673 12.537 13.457 9.17z" transform="rotate(9 -26.177 219.567)"/>
            <path fill="url(#e)" d="M38.656 7.473l20.129-4.891L54.463.336 38.656 7.473zm79.713 57.374l30.427-33.658L59.77 2.973l58.6 61.874zM38.773 95.153l3.339-1.835-3.31-1.377-15.868-6.597 6.793 14.779 9.046-4.97zm3.59-1.6L29.88 100.41l19.987 32.202-7.504-39.06zm66.016 28.893l15.536-2.022-15.192-18.055-.344 20.077zm-13.033-46.86l13.228 26.008L126.41 71.9l-31.064 3.687zm10.92 55.42l1.73-8.174-14.214 2.65-42.751 7.97 52.491 10.518 2.744-12.963zm12.454-65.85l7.918 6.276 3.201-9.428-11.12 3.152zm30.437-33.838L131.504 59.81l22.073-26.572-4.42-1.92zm-106.362.274l16.11-28.709-21.7 5.273 3.778 15.838 1.812 7.598zM59.67 3.33l22.721 59.979 15.606.702 19.994.899-12.285-12.972L59.67 3.33zm66.655 68.257l-7.968-6.315-10.597 4.72-11.626 5.179 18.489-2.195 11.702-1.389zm.361-15.446l-7.805 8.634 11.104-3.148 17.99-29.034-21.289 23.548zM72.583 90.564l-29.907 2.879 7.59 39.507 22.317-42.386zM59.208 3.026L42.944 32.007l38.973 30.968-15.49-40.889-7.22-19.06zm-.977 72.928l-22.155-13.87-3.712 7.94 25.867 5.93zm-13.14 14.445l13.698-13.994-26.381-6.048L42.53 93.014l2.56-2.615zm27.83.239l-13.146 24.968-9.277 17.62 57.368-10.696-28.1-25.647-6.844-6.245zm.595.113l34.534 31.518.347-20.224-34.88-11.294zm-.28-.422l35.01 11.336-13.208-25.972-21.803 14.636zM34.68 47.402l1.336 12.993 1.047-8.29 1.486-11.761-3.675 6.705-.194.353zm83.01 17.811L82.697 63.64l12.43 11.625 2.331-1.038 20.233-9.013zM72.524 90.25L60.16 77.618l-1.048-1.07L42.91 93.1l18.353-1.766 11.261-1.084zM94.84 75.43L82.351 63.75l-1.804 5.162-7.355 21.051 7.705-5.172 13.943-9.36zM39.045 39.436l41.659 22.98L63.759 48.95 42.792 32.29l-1.888 3.6-1.86 3.546zm-2.867 22.339L58.67 75.856 38.927 40.014l-1.452 11.498-1.297 10.263zm3.054-21.876l8.357 15.172 11.58 21.024L81.944 63.46 50.856 46.31 39.232 39.9zm42.742 23.916L62.706 74.507l-3.336 1.85 13.429 13.719 2.606-7.46 6.57-18.8zM42.49 32.147l-8.442-1.935 3.385 6.336 1.388 2.596 1.93-3.683 1.739-3.314zm-8.122 15.435l-7.113 2.355 8.522 11.348-1.409-13.703zm4.27-8.094l-4.7-8.796.712 16.072 3.989-7.276zm69.788 83.274l8.564 25.761 7.015-27.788-15.58 2.027zm6.826 21.568l-7.005-21.071-4.403 20.801 12.91 4.787-1.502-4.517zM28.336 87.25l12.546 5.216L25.07 82.355l-2.187 2.627 5.453 2.267zm3.694-.82l10.086 6.45L32.112 70.49l-6.86 11.607 6.778 4.335zm2.51-21.851l1.27-2.716-8.46-11.268 4.824 19.046 2.367-5.062zM32.377 47.9l1.965-.65-.726-16.38-6.359 18.725 5.12-1.695zm4.671-38.993l-3.12 20.953.912.21 7.676 1.759-2.076-8.703-3.392-14.219zm116.741 24.08l2.838-3.28-7.018 1.463 2.68 1.164 1.5.652zm3.237-3.69a.174.174 0 0 1 .18.074.15.15 0 0 1-.009.185l-3.226 3.728-23.723 28.558-3.366 9.913c-.002.006-.008.01-.01.015-.002.005-.001.01-.004.013l-18.102 30.14 15.588 18.525c.006.008.007.018.012.027.008.014.017.027.02.042.003.012 0 .023 0 .036 0 .011.004.023.001.035l-7.211 28.566a.146.146 0 0 1-.046.074l-.008.004c-.006.005-.014.006-.022.01a.156.156 0 0 1-.067.023c-.004 0-.008.004-.012.004-.009 0-.015-.006-.023-.008-.013-.001-.026.001-.038-.003l-13.346-4.95-53.441-10.708h-.001l-.005-.001c-.004 0-.007-.003-.01-.004l-.016-.003-.014-.008a.223.223 0 0 1-.042-.027l-.007-.007-.01-.01-.002-.002-.004-.007c-.002-.004-.006-.006-.009-.01l-20.54-33.095c-.003-.004-.002-.007-.004-.01s-.005-.005-.006-.009L22.465 85.1l-.003-.012c0-.004-.004-.007-.005-.01v-.012a.15.15 0 0 1 .005-.087v-.001l.004-.008a.148.148 0 0 1 .04-.055l2.387-2.867 7.06-11.946-5.12-20.214v-.001l-.001-.002v-.004a.153.153 0 0 1 .001-.077l.001-.004v-.001l6.745-19.86 3.265-21.928c.002-.012.007-.025.009-.033v-.002l.001-.003.002-.002a.152.152 0 0 1 .103-.088L54.386.014a.175.175 0 0 1 .15.006l4.741 2.463.018.004.02.011 89.774 28.454 7.936-1.654z" transform="translate(2.847 9.2)"/>
        </g>
    </g>
</svg>
