<svg xmlns="http://www.w3.org/2000/svg" xmlns:xlink="http://www.w3.org/1999/xlink" width="237" height="1242" viewBox="0 0 237 1242">
    <defs>
        <path id="a" d="M0 0h300v1600H0z"/>
        <linearGradient id="c" x1="96.093%" x2="1.381%" y1="98.087%" y2=".702%">
            <stop offset="0%" stop-color="#A19062"/>
            <stop offset="100%" stop-color="#ECE4C8"/>
        </linearGradient>
        <linearGradient id="d" x1="96.093%" x2="1.381%" y1="98.087%" y2=".702%">
            <stop offset="0%" stop-color="#A19062"/>
            <stop offset="22.309%" stop-color="#ECE4C8"/>
            <stop offset="44.681%" stop-color="#A19062"/>
            <stop offset="65.472%" stop-color="#ECE4C8"/>
            <stop offset="82.119%" stop-color="#A19062"/>
            <stop offset="100%" stop-color="#ECE4C8"/>
        </linearGradient>
        <linearGradient id="e" x1="77.318%" x2="22.505%" y1="-10.751%" y2="113.545%">
            <stop offset="0%" stop-color="#A19062"/>
            <stop offset="100%" stop-color="#ECE4C8"/>
        </linearGradient>
    </defs>
    <g fill="none" fill-rule="evenodd" transform="translate(-63 -40)">
        <mask id="b" fill="#fff">
            <use xlink:href="#a"/>
        </mask>
        <g mask="url(#b)">
            <g fill="#EEE9DC">
                <path d="M185.948 949.707l15.76 4.725.602-15.75-16.362 11.025zm16.133 5.464a.33.33 0 0 1-.162-.005l-16.806-5.04a.319.319 0 0 1-.086-.57l17.449-11.759a.328.328 0 0 1 .339-.015c.106.057.171.17.166.29l-.644 16.797a.32.32 0 0 1-.256.302z"/>
                <path d="M202.565 921.066l-16.433 27.25 16.08-10.807.353-16.443zm-17.385 28.628a.328.328 0 0 1-.288-.078.314.314 0 0 1-.055-.393l17.799-29.516a.325.325 0 0 1 .366-.145c.141.039.237.166.234.31l-.383 17.812a.317.317 0 0 1-.141.258l-17.417 11.704a.324.324 0 0 1-.115.048z"/>
                <path d="M202.97 919.764l-.263 15.94 14.4-37.164-14.136 21.224zm-.542 18.02a.318.318 0 0 1-.382-.318l.295-17.807c0-.062.019-.12.052-.172l15.793-23.71a.314.314 0 0 1 .409-.104.319.319 0 0 1 .149.397l-16.088 41.519a.315.315 0 0 1-.228.195z"/>
                <path d="M218.859 896.22l-15.832 40.434 65.56-43.32-49.728 2.886zm-16.429 41.563a.319.319 0 0 1-.362-.427l16.272-41.558a.323.323 0 0 1 .278-.202l51.112-2.966a.317.317 0 1 1 .193.583l-67.383 44.524a.334.334 0 0 1-.11.046z"/>
                <path d="M218.736 896.139l49.294-2.902-47.897-14.472-1.397 17.374zm51.166-2.378a.304.304 0 0 1-.048.006l-51.45 3.029a.317.317 0 0 1-.338-.342l1.46-18.134a.323.323 0 0 1 .14-.239.323.323 0 0 1 .274-.042l49.936 15.09c.139.01.26.109.29.251a.325.325 0 0 1-.256.38l-.008.001zM185.651 950.355l-14.635 39.463 30.554-34.66-15.919-4.803zm-15.468 41.277a.323.323 0 0 1-.23-.037.316.316 0 0 1-.137-.383l15.338-41.36a.321.321 0 0 1 .396-.195l16.682 5.035a.318.318 0 0 1 .147.513l-32.02 36.326a.327.327 0 0 1-.176.1z"/>
                <path d="M170.493 991.003l30.585 30.013.662-65.483-31.247 35.47zm30.966 31.081a.321.321 0 0 1-.292-.084l-31.34-30.754a.315.315 0 0 1-.014-.436l32.015-36.345a.322.322 0 0 1 .562.213l-.677 67.098a.322.322 0 0 1-.254.308z"/>
                <path d="M202.235 954.974l-.585 66.098 93.107-82.549-92.522 16.451zm-.844 67.125a.316.316 0 0 1-.385-.313l.593-67.081c.001-.154.09-.27.264-.312l93.896-16.695a.318.318 0 1 1 .267.552l-94.49 83.776a.321.321 0 0 1-.145.073z"/>
                <path d="M202.279 954.51l89.959-15.982-89.4-.118-.56 16.1zm93.644-15.988l-.015.003-.011.003-93.895 16.681a.32.32 0 0 1-.375-.326l.585-16.805a.32.32 0 0 1 .318-.309l93.28.124a.32.32 0 0 1 .113.63z"/>
                <path d="M203.548 937.733l91.74.156-25.388-44.19-66.352 44.034zm92.36.792a.35.35 0 0 1-.067.007l-93.353-.159a.321.321 0 1 1-.176-.588l67.518-44.81a.323.323 0 0 1 .454.107l25.788 44.89a.318.318 0 0 1 .097.17c.037.175-.053.353-.254.381l-.008.002z"/>
                <path d="M304.909 883.598l-9.604 54.379 31.303-8.33-21.7-46.049zm-9.938 55.127a.318.318 0 0 1-.381-.367l9.864-55.86a.319.319 0 1 1 .604-.08l22.29 47.303a.32.32 0 0 1-.207.443l-32.155 8.557-.015.004z"/>
                <path d="M270.207 893.864l25.155 43.498 9.663-54.487-34.818 10.989zm25.384 44.729l-.011.002a.322.322 0 0 1-.334-.155l-25.792-44.6a.317.317 0 0 1 .182-.462l35.7-11.268a.312.312 0 0 1 .307.063.316.316 0 0 1 .104.295l-9.908 55.867a.32.32 0 0 1-.248.258z"/>
                <path d="M295.31 938.548l-92.614 82.442 151.902-50.966-59.288-31.476zm-93.92 83.551a.317.317 0 0 1-.341-.152.318.318 0 0 1 .062-.398l93.941-83.624a.318.318 0 0 1 .36-.043l60.136 31.927a.319.319 0 0 1-.046.583l-154.079 51.698c-.01.003-.022.007-.034.009z"/>
                <path d="M295.755 938.413l58.607 30.771-27.404-39.069-31.203 8.298zm59.69 31.977a.322.322 0 0 1-.216-.03l-60.495-31.763a.313.313 0 0 1-.167-.317.319.319 0 0 1 .235-.272l32.208-8.565c.12-.042.268.015.345.125l28.236 40.256c.058.044.1.108.117.185.037.174-.052.35-.255.38l-.008.001zM193.189 909.507l-7.26 38.95 16.706-28.001-9.446-10.95zm-7.841 40.976a.32.32 0 0 1-.384-.371l7.713-41.382a.326.326 0 0 1 .234-.252.32.32 0 0 1 .329.102l10.036 11.632c.09.103.104.253.032.372l-17.75 29.749a.326.326 0 0 1-.21.15z"/>
                <path d="M193.362 908.36l9.365 11.172 14.828-22.782-24.193 11.61zm9.466 12.025a.315.315 0 0 1-.306-.107l-9.91-11.822a.336.336 0 0 1-.07-.28.314.314 0 0 1 .173-.224l25.599-12.285a.314.314 0 0 1 .375.084.33.33 0 0 1 .025.392l-15.69 24.107a.312.312 0 0 1-.196.135z"/>
                <path d="M220.053 879.145l-25.743 28.831 24.424-11.582 1.32-17.25zm-26.98 30.122a.322.322 0 0 1-.324-.124.325.325 0 0 1 .018-.408l27.44-30.73a.32.32 0 0 1 .365-.08.324.324 0 0 1 .194.322l-1.407 18.385a.319.319 0 0 1-.183.266l-26.032 12.346a.35.35 0 0 1-.07.023z"/>
                <path d="M220.156 878.251l48.467 14.892-10.976-44.576-37.491 29.684zm48.976 15.674a.323.323 0 0 1-.16-.007l-49.58-15.235a.321.321 0 0 1-.106-.556l38.354-30.369a.318.318 0 0 1 .506.175l11.228 45.603a.317.317 0 0 1-.242.39z"/>
                <path d="M219.39 850.786l.442 27.137 36.883-29.572-37.324 2.435zm.202 28.111a.312.312 0 0 1-.202-.025.329.329 0 0 1-.182-.288l-.456-28.097a.313.313 0 0 1 .294-.325l38.645-2.522a.32.32 0 0 1 .319.206c.05.132.01.282-.098.37l-38.19 30.62a.32.32 0 0 1-.13.061z"/>
                <path d="M258.875 848.676l10.951 44.417 34.862-11-45.813-33.417zm10.787 45.136a.319.319 0 0 1-.378-.236l-11.243-45.6a.321.321 0 0 1 .501-.334l47.036 34.307a.318.318 0 0 1-.095.56l-35.791 11.295-.03.008z"/>
                <path d="M219.642 850.352l35.421-2.407-36.54-4.317 1.119 6.724zm38.958-2.007a.27.27 0 0 1-.045.007l-39.16 2.66a.32.32 0 0 1-.339-.267l-1.236-7.433a.323.323 0 0 1 .354-.372l40.354 4.767a.32.32 0 0 1 .087.635.047.047 0 0 0-.015.003zM219.285 842.384l38.492 4.476-13.726-23.505-24.766 19.03zm39.151 5.172a.309.309 0 0 1-.104.004l-39.894-4.639a.315.315 0 0 1-.156-.562l25.668-19.723a.315.315 0 0 1 .255-.06c.09.016.167.071.213.15l14.18 24.282a.318.318 0 0 1-.154.546l-.008.002z"/>
                <path d="M258.848 848.01l46.261 33.962 3.23-95.758-49.491 61.796zm46.627 34.892a.319.319 0 0 1-.256-.054L258.2 848.33a.318.318 0 0 1-.128-.217.324.324 0 0 1 .068-.242l50.302-62.81a.32.32 0 1 1 .57.21l-3.282 97.33a.32.32 0 0 1-.254.301z"/>
                <path d="M244.493 823.42l13.99 24.067 48.87-61.067-62.86 37zm14.014 24.945a.32.32 0 0 1-.343-.153l-14.385-24.746a.32.32 0 0 1 .114-.436l64.636-38.045a.32.32 0 0 1 .413.476l-50.252 62.791a.325.325 0 0 1-.183.113zM202.654 1022.322l170.764 36.586-18.127-87.794-152.637 51.208zm171.24 37.31a.319.319 0 0 1-.133 0L201.384 1022.7a.318.318 0 0 1-.034-.613l154.079-51.69a.318.318 0 0 1 .412.237l18.298 88.623a.318.318 0 0 1-.244.376z"/>
                <path d="M191.463 1021.198l9.217.219-28.389-27.663 19.172 27.444zm10.089.866a.375.375 0 0 1-.075.008l-10.196-.243a.322.322 0 0 1-.257-.137l-21.207-30.357a.316.316 0 0 1 .06-.424.324.324 0 0 1 .433.016l31.403 30.6c.093.091.121.23.069.35a.324.324 0 0 1-.23.187zM308.793 785.993l-3.157 96.204 86.795-21.946-83.638-74.258zm-3.423 96.932a.318.318 0 0 1-.385-.324l3.193-97.31a.318.318 0 0 1 .53-.23l84.6 75.112a.32.32 0 0 1-.134.551l-87.793 22.198-.011.003z"/>
            </g>
            <path fill="url(#c)" d="M291.41 421.496l25.962-34.056.996 9.811-26.958 24.245zM241.205 228.43l91.609-31.563-15.428 188.427-76.181-156.864zM116.683 354.787l6.347-4.874.08 7.256.377 34.773-23.998-23.953 17.194-13.202zm6.081-5.522L99.04 367.484l-48.114-61.92 71.84 43.7zm-4.45-145.77l16.542-27.616 23.766 42.195-40.308-14.58zm82.938 59.987l-41.205-44.54 73.571-10.945-32.366 55.485zM99.544 200.966l17.693 2.953-16.73 24.66-50.316 74.165 21.297-106.46 28.056 4.682zm141.327 26.572l-6.138-19.615 21.377 1.143-15.24 18.472zm91.977-31.445l-71.025 11.514 70.756-21.263.269 9.749zm-86.194 199.349l70.214-8.457-27.989 36.716-28.536-19.098-13.69-9.161zm69.94-10.23L215.3 297.098l11.167-29.813 14.307-38.194 15.971 32.887 59.848 123.232zm-82.423-176.82l6.175 19.738-17.944 16.303-19.687 17.885 19.263-33.023 12.193-20.903zm31.088 11.036l-23.5 8.096 15.218-18.447 72.378-11.733-64.096 22.084zm-112.2 75.404l-29.823 53.929-72.66-44.2 102.482-9.729zm163.767 91.478l-70.88 8.535-30.364-96.603 69.055 60.068 32.189 28zm-146.193-53.472l9.815 52.086-18.821.943 9.006-53.029zm-39.384 13.7l38.933-15.088-9.184 54.083-37.024-36.175 7.275-2.82zm21.935-52.397l-60.37 5.731-42.6 4.044 67.52-99.523 28.508 72.172 6.942 17.576zm.253-1.202l-35.035-88.693 40.605 14.686-5.57 74.007zm.615.848l5.591-74.286 41.149 44.478-46.74 29.808zm54.545 104.888l-24.83-12.36 17.372 4.322 24.647 6.13-16.33 1.813-.86.095zm31.33-169.25l-25.04 66.848-13.17-32.135 3.948-3.587 34.262-31.125zm-86.29 65.756l15.23 32.777 1.29 2.777-46.049 17.846 18.3-33.094 11.23-20.306zm47.519-30.632l13.23 32.29-11.743-.53-47.896-2.164 16.517-10.534 29.892-19.062zm26.837 131.98l-12.27-95.587 13.2 42.002 16.337 51.973-8.698.812-8.569.8zm-46.848-11.562l-9.965-52.878 55.566 64.221-24.094-5.993-21.507-5.35zm46.077 10.86L203.7 368.641l-32.594-37.67 43.532-33.149 9.158 71.331 3.425 26.672zm-13.268-98.33L177.12 325.54l-6.376 4.855-16.54-35.598 16.973.765 42.776 1.933zm31.347 98.095l-2.94 17.307-9.907-11.157-4.058-4.572 8.898-.83 8.007-.748zm-37.315 3.534l-10.423 11.559-15.765-24.595 26.188 13.036zm19.577-1.875l13.754 15.49-31.473-13.524 17.719-1.966zm-109.84-194.084l-44.469-35.604 61.056 7.912-16.588 27.692zm-37.508-29.164l36.373 29.123-45.02-7.514.85-27.851 7.797 6.242zm43.822 206.358l-.298-27.494 7.428 37.333-7 2.113-.13-11.952zm4.607-6.31l-4.738-23.814 36.59 35.75-28.667 4.069-3.185-16.004zm45.592 11.861l6.437-.322 15.653 24.419-34.09-23.495 12-.602zm31.51 16.71l2.878-3.194 32.076 13.784-42.457-2.27 7.502-8.32zm81.508 20.804l-44.29-10.035.317-1.87 2.673-15.735 15.681 10.495 25.619 17.145zm45.996-237.288l8.822-2.838-8.568 12.058-.163-5.91-.091-3.31zm9.962-3.276a.334.334 0 0 0-.003-.395.333.333 0 0 0-.376-.122l-10.032 3.226-76.044 22.853-22.474-1.202c-.014-.001-.026.006-.04.007-.01 0-.018-.005-.027-.004l-74.671 11.109-24.385-43.295c-.01-.018-.03-.028-.044-.044-.02-.025-.04-.051-.068-.07-.022-.014-.046-.018-.07-.027-.024-.01-.044-.025-.07-.028l-62.764-8.132h-.001a.331.331 0 0 0-.185.03c-.005.002-.008.009-.013.011-.016.008-.024.023-.039.033a.321.321 0 0 0-.098.11c-.004.007-.015.01-.019.02-.006.015.001.032-.003.048-.007.025-.022.047-.024.074l-.878 28.792-21.682 108.387-.001.002v.002l-.002.007v.024c-.002.011-.006.021-.006.032 0 .012.004.023.004.033a.426.426 0 0 0 .02.098l.009.018c.004.01.007.019.013.028l.001.005c.003.005.007.007.01.01.006.009.008.018.014.026l49.446 63.636c.005.006.013.008.018.014.004.005.005.012.01.017l24.857 24.81c.007.008.016.01.023.016.006.005.009.014.016.019.006.004.016.002.023.007a.335.335 0 0 0 .177.057H123.855c.051 0 .098-.013.142-.033l7.64-2.306 29.502-4.186 36.182 24.936.001.002.004.002c.002.002.005 0 .008.002.047.03.1.052.155.056l.008.001h.002l45.028 2.407 46.352 10.503c.026.006.055.007.073.008h.003l.008.002.005-.001a.333.333 0 0 0 .258-.127l29.723-26.73a.343.343 0 0 0 .11-.286l-1.094-10.763c.002-.013.007-.024.007-.037 0-.015-.005-.029-.007-.044l15.558-190.012 9.69-13.636z" transform="rotate(127 32.703 713.617)"/>
            <path fill="url(#d)" d="M224.996 863.054a.272.272 0 0 1 .004.054v.03l-.024.141-.013.016a.371.371 0 0 1-.023.044.475.475 0 0 1-.039.063l-.012.024-.093.076-126.204 84.443-.025.006a.328.328 0 0 1-.08.037l-.085.01a.57.57 0 0 1-.075.001h-.044a.28.28 0 0 1-.034-.01l-.044-.01a.467.467 0 0 1-.213-.156l-.025-.046c0 .006-.005-.005-.01-.018l-.027-.022-.01-.059-57.897-144.843-.005-.023s-.005-.01-.007-.022l-.007-.058a.376.376 0 0 1-.003-.084l.006-.045.034-.128.013-.012.023-.04.03-.042.13.09-.102-.118a.32.32 0 0 1 .043-.039l.043-.033c.024-.014.043-.02.052-.022-.008.002.004-.007.03-.018l106.256-38.23.019.001a.32.32 0 0 1 .074-.012l.195.03.05.021c.028.015.05.032.072.05l.078.07 77.867 98.67.062.13c.002.001.007.02.012.04l.008.043zM179.853 876l43.612-13.052-59.272-40.39 15.66 53.442zm-75.731 67.123l117.581-78.673L179.768 877l-75.646 66.124zm9.641-82.347l-14.72 85.546 79.514-69.503-64.794-16.043zm-15.388 83.936l14.48-84.16-29.33-7.262 14.85 91.422zm-56.422-139.56l55.27 138.281-14.71-90.563-40.56-47.717zm81.674-9.577L41.4 803.064l41.523 48.85 40.704-56.338zm21.794-30.164L44.05 801.885l80.3-7.312 21.07-29.161zm17.144 54.91l-16.063-54.816-21.239 29.397 37.302 25.418zm-49.55 39.309l10.789-62.708-40.07 55.458 29.28 7.25zm11.925-63.819l-11.018 64.043 64.94 16.08-15.883-54.203-38.039-25.92zm97.348 65.206l-74.483-94.38 15.974 54.51 58.51 39.87z" transform="rotate(9 -114.624 964.943)"/>
            <path fill="url(#e)" d="M166.448 32.492l87.516-21.266-18.79-9.763-68.726 31.03zm346.58 249.45l132.29-146.336L258.25 12.926l254.778 269.016zM166.956 413.708l14.518-7.977-14.395-5.986-68.988-28.685 29.536 64.257 39.329-21.609zm15.608-6.957l-54.272 29.817 86.9 140.012-32.628-169.83zM469.59 532.375l67.55-8.791-66.054-78.5-1.496 87.29zm-56.662-203.74l57.51 113.08 77.547-129.112-135.057 16.033zm47.477 240.96l7.523-35.542-61.801 11.52-185.875 34.653 228.223 45.731 11.93-56.362zm54.147-286.309l34.426 27.287 13.919-40.992-48.345 13.705zm132.334-147.12l-76.752 123.879 95.97-115.531-19.218-8.349zm-462.444 1.19l70.047-124.821-94.35 22.928 16.424 68.86 7.879 33.032zm73.373-122.878L356.6 275.255l67.854 3.052 86.928 3.91-53.413-56.4L257.815 14.479zM547.618 311.25l-34.643-27.458-46.074 20.523-50.548 22.515 80.385-9.541 50.88-6.04zm1.57-67.157l-33.936 37.538 48.28-13.685 78.215-126.239-92.56 102.386zM313.955 393.757l-130.03 12.516 33 171.77 97.03-184.286zM255.803 13.158l-70.71 126.003 169.444 134.645-67.343-177.779-31.39-82.869zm-4.246 317.075l-96.326-60.306-16.139 34.524 112.465 25.782zm-57.133 62.806l59.557-60.844-114.7-26.296 44.013 98.51 11.13-11.37zm121.005 1.038L258.27 502.634l-40.334 76.608 249.425-46.5-122.178-111.51-29.754-27.155zm2.585.493l150.147 137.036 1.507-87.934-151.654-49.102zm-1.222-1.835l152.225 49.287-57.43-112.923-94.795 63.636zM149.165 206.096l5.81 56.489 4.553-36.043 6.461-51.135-15.982 29.153-.842 1.536zm360.911 77.44l-152.143-6.843 54.04 50.544 10.137-4.516 87.966-39.185zM313.7 392.391l-53.758-54.92-4.556-4.653-70.441 71.964 79.793-7.678 48.962-4.713zm97.027-64.433l-54.3-50.782-7.843 22.441-31.979 91.527 33.5-22.488 60.622-40.698zM168.138 171.462l181.125 99.909-73.67-58.54-91.162-72.44-8.208 15.652-8.085 15.419zm-12.463 97.124l97.79 61.225-85.837-155.836-6.316 49.989-5.637 44.622zm13.277-95.113l36.334 65.964 50.35 91.41 99.02-54.936-135.164-74.558-50.54-27.88zM354.79 277.46l-83.777 46.482-14.504 8.047 58.386 59.646 11.334-32.432 28.56-81.743zM183.116 139.77l-36.704-8.414 14.72 27.548 6.032 11.286 8.396-16.012 7.556-14.408zm-35.312 67.107l-30.924 10.239 37.052 49.341-6.128-59.58zm18.569-35.19l-20.437-38.246 3.095 69.879 17.342-31.633zm303.422 362.06l37.235 112.006 30.5-120.82-67.735 8.814zm29.68 93.776l-30.457-91.617-19.143 90.442 56.129 20.813-6.53-19.638zM121.578 379.345l54.547 22.68-68.746-43.961-9.512 11.422 23.711 9.86zm16.06-3.56l43.852 28.043-43.497-97.355-29.824 50.466 29.47 18.847zm10.917-95.008l5.52-11.808-36.787-48.99 20.975 82.81 10.292-22.012zm-9.413-72.51l8.542-2.829-3.155-71.218-27.647 81.416 22.26-7.37zm20.31-169.535l-13.566 91.1 3.967.91 33.371 7.648-9.025-37.84-14.746-61.818zm507.57 104.69l12.338-14.256-30.513 6.361 11.65 5.06 6.525 2.835zm14.073-16.041a.755.755 0 0 1 .785.324.651.651 0 0 1-.04.803l-14.03 16.21h-.001L564.668 268.883l-14.635 43.097c-.008.028-.032.045-.045.07-.007.018-.003.038-.013.055l-78.706 131.04 67.773 80.545c.028.035.033.08.055.118.034.06.072.116.088.183.011.053 0 .102.001.155 0 .052.016.101.003.152l-31.356 124.2c0 .001-.002 0-.002.002a.635.635 0 0 1-.197.323c-.009.008-.025.008-.034.016-.028.023-.063.028-.095.046a.678.678 0 0 1-.291.096c-.02.002-.034.018-.055.019-.036-.001-.064-.027-.1-.033-.054-.007-.11.005-.164-.015l-58.023-21.519-232.356-46.558h-.003c-.001 0-.002-.003-.004-.002l-.016-.003c-.017-.004-.031-.015-.049-.019-.022-.006-.045-.006-.068-.014-.022-.009-.04-.025-.06-.035a.97.97 0 0 1-.098-.054c-.029-.02-.057-.04-.084-.063l-.029-.03c-.015-.015-.032-.029-.045-.046-.004-.003-.008-.004-.01-.007-.007-.009-.008-.02-.014-.027-.012-.017-.028-.028-.04-.046L126.69 436.637c-.009-.014-.008-.03-.015-.044-.008-.012-.02-.02-.027-.035l-30.593-66.557c-.008-.018-.006-.038-.013-.055-.005-.016-.02-.028-.025-.044-.004-.017.007-.033.003-.05a.65.65 0 0 1 .02-.379l.003-.004-.001-.001.014-.034a.644.644 0 0 1 .174-.238l10.381-12.467 30.694-51.937-22.262-87.89c-.001-.001 0-.002-.002-.003l-.002-.008c-.002-.007.003-.01.001-.017a.664.664 0 0 1 .006-.336c.001-.007.004-.011.005-.017v-.004l29.323-86.345 14.197-95.343c.008-.053.028-.108.039-.142l.001-.007.005-.015.005-.009a.661.661 0 0 1 .448-.38L234.841.061a.762.762 0 0 1 .653.024l20.612 10.71c.027.008.053.006.078.017.031.012.054.033.083.05l390.323 123.71 34.506-7.192z" transform="translate(14 40)"/>
        </g>
    </g>
</svg>
