<svg xmlns="http://www.w3.org/2000/svg" xmlns:xlink="http://www.w3.org/1999/xlink" width="130" height="896" viewBox="0 0 130 896">
    <defs>
        <path id="a" d="M0 0h185v997H0z"/>
        <linearGradient id="c" x1="96.093%" x2="1.381%" y1="98.087%" y2=".702%">
            <stop offset="0%" stop-color="#A19062"/>
            <stop offset="100%" stop-color="#ECE4C8"/>
        </linearGradient>
        <linearGradient id="d" x1="96.093%" x2="1.381%" y1="98.087%" y2=".702%">
            <stop offset="0%" stop-color="#A19062"/>
            <stop offset="22.309%" stop-color="#ECE4C8"/>
            <stop offset="44.681%" stop-color="#A19062"/>
            <stop offset="65.472%" stop-color="#ECE4C8"/>
            <stop offset="82.119%" stop-color="#A19062"/>
            <stop offset="100%" stop-color="#ECE4C8"/>
        </linearGradient>
    </defs>
    <g fill="none" fill-rule="evenodd" transform="translate(0 -38)">
        <mask id="b" fill="#fff">
            <use xlink:href="#a"/>
        </mask>
        <g mask="url(#b)">
            <g fill="#EEE9DC">
                <path d="M55.511 726.443l-8.214 9.166 10.552 5.397-2.338-14.563zm-8.837 9.184a.245.245 0 0 1 .055-.108l8.76-9.774a.24.24 0 0 1 .417.123l2.494 15.53a.244.244 0 0 1-.097.235.238.238 0 0 1-.25.02l-11.254-5.757a.24.24 0 0 1-.125-.27z"/>
                <path d="M69.784 746.76l-13.382-19.751 2.278 14.303 11.104 5.448zm-14.021-20.832a.238.238 0 0 1 .43-.083L70.69 747.24a.242.242 0 0 1-.303.353l-12.028-5.902a.238.238 0 0 1-.131-.177L55.76 726.02a.24.24 0 0 1 .003-.093z"/>
                <path d="M70.544 747.447l-10.79-5.229 20.79 21.518-10-16.29zm-12.12-6.076a.24.24 0 0 1 .338-.158l12.054 5.841c.041.02.075.051.1.09l11.17 18.197a.233.233 0 0 1-.057.309.241.241 0 0 1-.319-.025l-23.225-24.038a.235.235 0 0 1-.06-.216z"/>
                <path d="M81.572 765.655l-22.566-23.52 8.784 58.08 13.782-34.56zm-23.148-24.283a.237.237 0 0 1 .128-.16.242.242 0 0 1 .278.05l23.194 24.176a.24.24 0 0 1 .05.252l-14.166 35.52c-.04.1-.142.16-.25.147a.239.239 0 0 1-.209-.2l-9.028-59.696a.248.248 0 0 1 .003-.089z"/>
                <path d="M81.666 765.598l-13.633 34.27 25.042-27.82-11.409-6.45zm-14.584 35.37a.225.225 0 0 1 .011-.034l14.23-35.768a.24.24 0 0 1 .34-.12l11.907 6.732a.24.24 0 0 1 .06.369L67.522 801.15a.24.24 0 0 1-.262.116.244.244 0 0 1-.179-.293l.002-.006zM55.163 726.038L32.88 703.633l13.965 31.652 8.318-9.247zm-23.256-23.543a.239.239 0 0 1 .402-.116l23.354 23.481c.09.09.094.235.008.33l-8.718 9.691a.239.239 0 0 1-.397-.063L31.92 702.645a.243.243 0 0 1-.013-.15z"/>
                <path d="M32.237 702.904l-30.16 11.183 44.459 21.195-14.299-32.378zM1.23 714.006a.24.24 0 0 1 .15-.17l30.903-11.46a.238.238 0 0 1 .303.129l14.65 33.175c.042.092.02.199-.052.268a.24.24 0 0 1-.27.045L1.359 714.276a.241.241 0 0 1-.13-.27z"/>
                <path d="M46.76 735.794L1.858 714.457 28.677 803.6l18.083-67.807zM1.24 713.956a.239.239 0 0 1 .336-.161l45.57 21.654c.104.05.154.147.128.277L28.922 804.54a.24.24 0 0 1-.461.006l-27.217-90.47a.239.239 0 0 1-.004-.121z"/>
                <path d="M47.062 735.97l-17.59 65.926 28.395-60.446-10.805-5.48zm-18.754 68.421l.003-.012.002-.008 18.36-68.81a.242.242 0 0 1 .341-.15l11.278 5.72a.238.238 0 0 1 .11.313l-29.629 63.07a.24.24 0 0 1-.284.164.24.24 0 0 1-.181-.287z"/>
                <path d="M58.104 742.145L28.942 804.16l38.184-3.175-9.022-58.841zm-29.793 62.234a.26.26 0 0 1 .017-.047l29.675-63.107a.242.242 0 1 1 .457.067l9.182 59.876a.24.24 0 0 1-.217.273l-38.788 3.225a.24.24 0 0 1-.147.012c-.131-.03-.225-.148-.18-.293l.001-.006z"/>
                <path d="M62.927 827.871l-34.051-23.725-4.233 23.816 38.284-.09zm-34.455-24.189a.24.24 0 0 1 .37-.141l34.979 24.372a.238.238 0 0 1-.136.434l-39.327.093a.239.239 0 0 1-.237-.281l4.349-24.465s0-.008.002-.012z"/>
                <path d="M66.915 801.142l-37.638 3.237 34.106 23.8 3.532-27.037zm-38.55 3.001l.002-.008a.241.241 0 0 1 .212-.176l38.592-3.319a.238.238 0 0 1 .193.074c.05.051.073.124.064.196l-3.621 27.722a.24.24 0 0 1-.374.165l-34.97-24.404a.24.24 0 0 1-.098-.25z"/>
                <path d="M28.485 803.968L1.583 715.19l-13.347 118.916 40.249-30.138zM1.24 713.954a.24.24 0 0 1 .463-.014l27.287 90.05a.236.236 0 0 1-.084.258l-40.825 30.57a.241.241 0 0 1-.264.016.236.236 0 0 1-.12-.232L1.237 713.98l.005-.027z"/>
                <path d="M28.436 804.312l-39.552 29.901 35.329-6.162 4.223-23.74zm-40.718 30.252a.24.24 0 0 1 .09-.137l40.826-30.864a.238.238 0 1 1 .38.232L24.655 828.3c-.01.095-.095.177-.195.194l-36.402 6.349a.236.236 0 0 1-.163.02c-.13-.03-.223-.145-.178-.292l.001-.006z"/>
                <path d="M-11.853 834.45l-3.672 13.675 38.492-19.54-34.82 5.866zm-4.275 14.075v-.005l3.851-14.339a.237.237 0 0 1 .19-.17l36.503-6.15a.242.242 0 0 1 .269.158.233.233 0 0 1-.116.284l-40.353 20.486a.243.243 0 0 1-.26-.027.234.234 0 0 1-.084-.237zM80.64 744.079l-24.27-17.252L70.18 747l10.46-2.922zM55.171 725.79a.242.242 0 0 1 .375-.142l25.784 18.33a.243.243 0 0 1 .098.238.24.24 0 0 1-.174.19l-11.113 3.105a.24.24 0 0 1-.264-.097l-14.67-21.433a.243.243 0 0 1-.036-.19z"/>
                <path d="M81.367 744.56l-10.587 2.796 10.843 17.25-.256-20.047zm-11.201 2.594a.235.235 0 0 1 .17-.173l11.203-2.96a.254.254 0 0 1 .213.042.235.235 0 0 1 .098.188l.272 21.211a.234.234 0 0 1-.176.227.25.25 0 0 1-.276-.107l-11.474-18.253a.232.232 0 0 1-.03-.175z"/>
                <path d="M92.84 771.874l-11.512-26.552.165 20.194 11.348 6.358zM80.84 744.077a.24.24 0 0 1 .187-.18.245.245 0 0 1 .273.141l12.27 28.3a.237.237 0 0 1-.06.273.245.245 0 0 1-.282.029l-12.094-6.777a.239.239 0 0 1-.124-.207l-.176-21.524a.26.26 0 0 1 .006-.055z"/>
                <path d="M93.418 772.226l-25.51 28.072 33.883 6.697-8.373-34.769zm-26.204 28.169a.24.24 0 0 1 .055-.106l26.096-28.717a.242.242 0 0 1 .413.105l8.567 35.57a.236.236 0 0 1-.06.219.245.245 0 0 1-.22.068l-34.662-6.852a.24.24 0 0 1-.189-.287z"/>
                <path d="M112.395 780.41l-18.651-8.3 8.49 34.323 10.16-26.023zm-19.24-8.77a.232.232 0 0 1 .082-.129.249.249 0 0 1 .254-.032l19.31 8.594a.234.234 0 0 1 .129.301l-10.52 26.945a.24.24 0 0 1-.242.15.246.246 0 0 1-.221-.183l-8.79-35.538a.237.237 0 0 1-.001-.108z"/>
                <path d="M101.328 807.792l-33.766-6.664-3.539 27.071 37.305-20.407zm-34.205-7.003a.24.24 0 0 1 .28-.181l34.667 6.841a.24.24 0 0 1 .069.445l-38.3 20.953a.24.24 0 0 1-.352-.242l3.632-27.793.004-.023z"/>
                <path d="M112.611 780.718l-9.577 24.726 14.518-23.353-4.94-1.373zm-10.97 26.992a.2.2 0 0 1 .01-.032l10.588-27.337a.24.24 0 0 1 .29-.144l5.461 1.518a.24.24 0 0 1 .142.358L102.1 807.864a.24.24 0 0 1-.28.146.24.24 0 0 1-.178-.3z"/>
                <path d="M118.16 783l-15.245 24.624 20.38-1.84-5.136-22.783zm-15.929 24.85a.229.229 0 0 1 .03-.072l15.8-25.52a.237.237 0 1 1 .433.073l5.324 23.613a.237.237 0 0 1-.21.288l-21.054 1.901a.24.24 0 0 1-.148.012.236.236 0 0 1-.176-.29l.001-.005z"/>
                <path d="M101.79 807.984l-37.818 20.538 64.296 32.524-26.477-53.062zm-38.568 20.491a.237.237 0 0 1 .118-.156l38.438-20.875a.245.245 0 0 1 .332.104l26.912 53.933a.239.239 0 0 1-.324.318l-65.35-33.056a.24.24 0 0 1-.126-.268z"/>
                <path d="M123.11 806.063l-20.846 1.84 26.175 52.411-5.328-54.251zm-21.453 1.578a.24.24 0 0 1 .213-.184l21.435-1.891a.241.241 0 0 1 .262.215l5.479 55.783a.238.238 0 0 1-.173.252.244.244 0 0 1-.283-.124l-26.914-53.891a.242.242 0 0 1-.02-.16zM.688 714.74l-79.042 103.939 65.627 15.552L.688 714.74zM-78.999 818.77a.237.237 0 0 1 .042-.09l79.79-104.92a.238.238 0 0 1 .278-.077c.1.04.161.141.15.248L-12.281 834.55a.236.236 0 0 1-.293.203l-66.247-15.698a.24.24 0 0 1-.178-.285z"/>
                <path d="M5 707.525l-3.07 6.166 27.861-10.442L5 707.525zm-3.787 6.55a.278.278 0 0 1 .019-.053l3.394-6.82a.241.241 0 0 1 .175-.131l27.424-4.73a.241.241 0 0 1 .123.463l-30.82 11.551a.238.238 0 0 1-.26-.065.241.241 0 0 1-.055-.215zM127.845 862.151l-76.16 32.812 24.071 21.42 52.09-54.232zm-76.83 32.686a.235.235 0 0 1 .137-.163l77.588-33.428a.24.24 0 0 1 .292.082.237.237 0 0 1-.022.301l-53.067 55.249a.242.242 0 0 1-.333.012l-24.522-21.82a.238.238 0 0 1-.077-.216l.003-.017z"/>
                <path d="M128.275 861.424l-64.623-32.617-12.52 65.675 77.143-33.058zM63.24 828.397a.24.24 0 0 1 .342-.158l65.367 32.99a.237.237 0 1 1-.012.431l-78.03 33.44a.243.243 0 0 1-.334-.266l12.665-66.429.002-.008z"/>
                <path d="M50.798 895.116L30.65 905.144 63.812 932.5l-13.014-37.384zm-20.82 9.923a.236.236 0 0 1 .126-.159l20.723-10.313a.242.242 0 0 1 .336.136l13.385 38.449a.236.236 0 0 1-.09.273.243.243 0 0 1-.292-.014L30.06 905.277a.237.237 0 0 1-.081-.238z"/>
                <path d="M75.3 916.725L51.778 895.64l12.7 37.078 10.824-15.994zM51.024 894.8a.238.238 0 0 1 .391-.124l24.36 21.832c.089.08.105.212.037.312l-11.206 16.563a.24.24 0 0 1-.423-.057L51.03 894.93a.237.237 0 0 1-.007-.13z"/>
                <path d="M51.02 894.774l-18.277-23.371-1.68 33.299 19.958-9.928zm-18.717-24.076a.238.238 0 0 1 .16-.172c.097-.03.2.003.262.082l18.85 24.104c.045.055.061.129.045.198a.236.236 0 0 1-.125.159l-20.582 10.24a.244.244 0 0 1-.239-.014.238.238 0 0 1-.108-.212l1.731-34.343a.23.23 0 0 1 .006-.042zM24.212 828.44l-39.629 20.443L31.86 869.78l-7.647-41.34zm-40.414 20.406a.24.24 0 0 1 .123-.16l40.357-20.818a.238.238 0 0 1 .216-.001.239.239 0 0 1 .13.17l7.788 42.102a.241.241 0 0 1-.087.23.24.24 0 0 1-.245.03l-48.146-21.282a.242.242 0 0 1-.136-.271z"/>
                <path d="M63.12 828.72l-38.615.09 7.654 41.372 30.96-41.462zm-39.137-.202a.243.243 0 0 1 .233-.185l39.38-.092a.24.24 0 0 1 .193.381l-31.573 42.285a.24.24 0 0 1-.428-.1l-7.807-42.193a.242.242 0 0 1 .002-.096z"/>
                <path d="M63.606 829.556L32.83 870.782l18.388 23.66 12.39-64.886zm-31.31 41.175a.227.227 0 0 1 .04-.089l31.507-42.204a.24.24 0 0 1 .427.188L51.587 895.05a.226.226 0 0 1-.179.187.242.242 0 0 1-.245-.086l-18.824-24.22a.24.24 0 0 1-.044-.2z"/>
            </g>
            <path fill="url(#c)" d="M218.097 251.199l19.371-25.674.744 7.396-20.115 18.278zm-37.46-145.55l68.354-23.795-11.512 142.053-56.843-118.258zm-92.913 95.258l4.736-3.674.06 5.47.28 26.215-17.905-18.057 12.83-9.954zm4.538-4.162L74.559 210.48l-35.9-46.681 53.603 32.946zM88.942 86.85l12.342-20.82 17.733 31.811L88.941 86.85zm61.884 45.224L120.08 98.495l54.896-8.25-24.15 41.829zm-75.89-47.13l13.202 2.226-12.483 18.59-37.544 55.913 15.89-80.259 20.935 3.53zm105.451 20.032l-4.58-14.788 15.95.862-11.37 13.926zm68.63-23.706l-52.996 8.68 52.794-16.03.201 7.35zm-64.315 150.287l52.391-6.375-20.884 27.68-21.293-14.399-10.214-6.906zm52.186-7.713l-75.58-66.427 8.332-22.475 10.675-28.794 11.917 24.792 44.656 92.904zm-61.5-133.302l4.608 14.88-13.39 12.29-14.69 13.485 14.375-24.897 9.097-15.758zm23.196 8.32l-17.534 6.104 11.355-13.907 54.005-8.846-47.826 16.649zm-83.718 56.846l-22.252 40.657-54.216-33.323 76.468-7.334zm122.195 68.964l-52.887 6.435-22.656-72.828 51.525 45.284 24.018 21.11zM127.98 184.361l7.324 39.267-14.044.71 6.72-39.977zm-29.386 10.328l29.05-11.375-6.853 40.773-27.626-27.272 5.429-2.126zm16.367-39.502l-45.045 4.32-31.787 3.05 50.38-75.03 21.272 54.41 5.18 13.25zm.188-.906l-26.14-66.865 30.296 11.072-4.156 55.793zm.46.64l4.171-56.004 30.703 33.532-34.875 22.471zm40.698 79.073l-18.527-9.317 12.963 3.258 18.39 4.621-12.184 1.366-.642.072zM179.683 106.4L161 156.795l-9.826-24.227 2.946-2.704 25.564-23.465zm-64.385 49.572l11.363 24.71.963 2.094-34.36 13.454 13.655-24.949 8.379-15.309zm35.456-23.092l9.872 24.342-8.763-.4-35.737-1.63 12.324-7.942 22.304-14.37zm20.025 99.497l-9.156-72.061 9.85 31.664 12.19 39.182-6.49.612-6.394.603zm-34.956-8.716l-7.436-39.864 41.461 48.415-17.977-4.518-16.048-4.033zm34.38 8.187l-17.55-20.494-24.32-28.4 32.481-24.99 6.834 53.776 2.555 20.108zm-9.9-74.13l-27.483 21.142-4.757 3.66-12.341-26.837 12.664.578 31.917 1.457zm23.39 73.953l-2.194 13.047-7.392-8.41-3.028-3.447 6.64-.626 5.974-.564zm-27.843 2.664l-7.777 8.714-11.763-18.541 19.54 9.827zm14.607-1.413l10.263 11.677-23.483-10.195 13.22-1.482zM88.5 86.603L55.32 59.762l45.557 5.964L88.5 86.603zM60.514 64.617l27.14 21.955-33.593-5.665.635-20.997 5.818 4.707zm32.698 155.57l-.223-20.727 5.543 28.145-5.223 1.593-.097-9.01zm3.437-4.756l-3.535-17.953 27.301 26.952-21.39 3.066-2.376-12.065zm34.019 8.942l4.803-.243 11.68 18.409-25.438-17.712 8.955-.454zm23.51 12.596l2.148-2.407 23.934 10.391-31.68-1.711 5.598-6.273zm60.818 15.685l-33.047-7.565.237-1.41 1.994-11.862 11.7 7.911 19.116 12.926zm34.32-178.89l6.583-2.139-6.393 9.09-.122-4.455-.068-2.495zm7.434-2.468a.254.254 0 0 0-.003-.299.247.247 0 0 0-.28-.092l-7.486 2.433-56.74 17.228-16.769-.906c-.01-.001-.02.005-.03.006-.007 0-.013-.004-.02-.003l-55.716 8.374-18.195-32.64c-.008-.013-.023-.02-.033-.033-.015-.019-.03-.038-.05-.052-.017-.01-.035-.014-.053-.021-.018-.007-.033-.018-.052-.021l-46.831-6.13h-.001a.245.245 0 0 0-.138.021c-.004.003-.006.008-.01.01-.012.006-.018.016-.029.025a.241.241 0 0 0-.073.082c-.004.006-.011.008-.014.015-.005.012 0 .024-.003.037-.005.018-.016.035-.017.055l-.655 21.706-16.18 81.712v.008c-.002.007 0 .013-.001.019l-.005.024c0 .008.003.017.004.024a.325.325 0 0 0 .015.075l.006.013.01.02v.005l.008.008.01.019 36.895 47.974c.004.005.01.007.013.01.003.005.004.01.008.014l18.547 18.704c.005.006.012.008.017.012.004.004.006.01.011.014.005.003.013.002.018.006.04.025.084.043.132.043h.016c.038 0 .073-.01.105-.026l5.7-1.738 22.014-3.156 26.997 18.8h.001l.003.002c.002.002.004 0 .006.002a.253.253 0 0 0 .116.042h.006l.002.001 33.597 1.815 34.586 7.918c.02.004.04.005.054.006h.012a.248.248 0 0 0 .192-.096l22.179-20.151a.26.26 0 0 0 .082-.216l-.816-8.114c0-.01.005-.018.005-.027 0-.012-.004-.022-.006-.034l11.61-143.247 7.229-10.28z" transform="rotate(-118 234.402 453.544)"/>
            <path fill="url(#c)" d="M225.696 265.416l19.382-30.939.744 8.914-20.126 22.025zM188.214 90.022l68.393-28.673-11.518 171.18-56.875-142.507zM95.25 204.812l4.738-4.427.06 6.592.281 31.59-17.916-21.76 12.837-11.994zm4.54-5.015l-17.713 16.55-35.92-56.251 53.633 39.7zM96.467 67.369l12.35-25.088 17.743 38.333L96.467 67.37zm61.92 54.496l-30.763-40.462 54.926-9.943-24.163 50.405zM82.454 65.072l13.21 2.683-12.49 22.402-37.565 67.377 15.9-96.715 20.945 4.253zm105.51 24.14l-4.582-17.82 15.96 1.04-11.377 16.78zm68.668-28.567l-53.025 10.46 52.824-19.317.201 8.857zm-64.35 181.101l52.42-7.682-20.895 33.355-21.305-17.35-10.22-8.323zm52.215-9.293l-75.623-80.047 8.337-27.084 10.681-34.698 11.924 29.876 44.68 111.953zM182.963 71.818l4.61 17.932-13.397 14.81-14.698 16.249 14.382-30.001 9.103-18.99zm23.21 10.026L188.627 89.2l11.361-16.76 54.035-10.658-47.852 20.062zm-83.767 68.502l-22.264 48.993-54.246-40.155 76.51-8.838zm122.265 83.104l-52.917 7.755-22.669-87.761 51.554 54.57 24.032 25.436zm-109.144-48.576l7.328 47.318-14.052.856 6.724-48.174zm-29.403 12.446l29.067-13.707-6.857 49.132-27.641-32.864 5.431-2.561zm16.376-47.602l-45.07 5.207-31.805 3.673 50.409-90.413 21.283 65.566 5.183 15.967zm.19-1.091L96.532 68.052l30.314 13.342-4.158 67.233zm.458.77l4.174-67.486 30.72 40.406-34.894 27.08zm40.722 95.287l-18.537-11.228 12.97 3.926 18.4 5.569-12.191 1.646-.642.087zm23.39-153.757l-18.694 60.728-9.832-29.193 2.947-3.259 25.58-28.276zm-64.421 59.736l11.37 29.777.962 2.523-34.378 16.212 13.662-30.064 8.384-18.448zm35.476-27.827l9.877 29.333-8.767-.481-35.758-1.966 12.331-9.57 22.317-17.316zm20.036 119.898l-9.161-86.837 9.855 38.157 12.197 47.216-6.494.737-6.397.727zm-34.976-10.504l-7.44-48.037 41.485 58.342-17.988-5.444-16.057-4.86zm34.4 9.866l-17.56-24.696-24.334-34.223 32.5-30.113 6.837 64.801 2.557 24.23zm-9.906-89.33l-27.498 25.478-4.76 4.41-12.348-32.339 12.67.696 31.936 1.756zm23.403 89.117l-2.194 15.723-7.397-10.136-3.03-4.153 6.643-.755 5.978-.679zm-27.858 3.21l-7.782 10.501-11.77-22.343 19.552 11.842zm14.615-1.703l10.269 14.072-23.497-12.286 13.228-1.786zM96.026 67.072L62.827 34.727l45.582 7.187-12.383 25.158zM68.024 40.578l27.155 26.456-33.611-6.826.635-25.302 5.82 5.672zm32.716 187.469l-.223-24.978 5.546 33.916-5.226 1.92-.097-10.858zm3.44-5.733l-3.538-21.634 27.317 32.478-21.402 3.696-2.377-14.54zm34.037 10.775l4.806-.293 11.686 22.184-25.451-21.344 8.96-.547zm23.524 15.18l2.15-2.9 23.946 12.52-31.697-2.061 5.601-7.56zm60.852 18.9l-33.066-9.116.237-1.7 1.996-14.293 11.707 9.533 19.126 15.577zm34.34-215.568l6.586-2.578-6.397 10.954-.122-5.369-.068-3.007zm7.437-2.975a.358.358 0 0 0-.002-.36c-.064-.107-.177-.153-.281-.11l-7.49 2.93v.001l-56.772 20.76-16.778-1.091c-.01-.002-.02.005-.03.006-.008 0-.014-.005-.02-.003L127.248 80.85l-18.205-39.331c-.008-.017-.023-.026-.033-.04-.015-.023-.03-.047-.05-.064-.017-.013-.035-.017-.053-.025-.018-.008-.033-.022-.052-.025l-46.858-7.388a.209.209 0 0 0-.138.027c-.005.002-.007.008-.01.01-.012.008-.019.021-.03.03a.28.28 0 0 0-.073.1c-.003.007-.01.01-.014.018-.004.014 0 .03-.002.044-.005.023-.017.043-.018.067l-.655 26.157-16.188 98.466v.003l-.002.007v.022l-.005.029c0 .01.003.02.004.03a.467.467 0 0 0 .015.089l.006.016.01.025v.005l.008.01.01.023 36.916 57.81c.003.006.009.008.013.013.003.005.004.011.008.016l18.557 22.54c.005.006.012.008.017.014.005.004.007.012.012.016.005.005.012.003.017.007.04.03.084.052.133.052h.015a.214.214 0 0 0 .106-.03l5.703-2.095 22.026-3.803 27.013 22.654v.001l.003.002c.002.002.004 0 .006.002a.228.228 0 0 0 .116.051h.006l.002.002 33.616 2.186 34.606 9.541c.019.006.04.006.054.008h.012c.078 0 .146-.046.192-.115l22.191-24.284a.35.35 0 0 0 .082-.26l-.817-9.777c.001-.012.005-.022.005-.033 0-.015-.004-.027-.005-.041l11.616-172.619 7.233-12.387z" transform="scale(-1 1) rotate(43 -54.538 -3.176)"/>
            <path fill="url(#d)" d="M291.095 42.481l-5.899-20.27 22.326 15.32-16.427 4.95zm-28.526 25.46l28.494-25.08 15.795-4.76-44.289 29.84zm3.632-31.234l24.406 6.085-29.95 26.362 5.544-32.447zm-5.796 31.836l-5.594-34.676 11.048 2.755-5.454 31.921zM239.153 15.61l15.277 18.1 5.54 34.35-20.817-52.45zm30.763-3.632l-15.332 21.368-15.64-18.528 30.972-2.84zm8.21-11.441l-7.937 11.06-30.246 2.773L278.125.536zm6.457 20.827l-14.05-9.641 8-11.15 6.05 20.79zm-18.664 14.91l-11.029-2.75 15.093-21.035-4.064 23.784zm4.493-24.207l14.327 9.831 5.983 20.559-24.461-6.099 4.15-24.29zm36.667 24.732L285.04 21.676l-6.016-20.675 28.055 35.797zm1.02.772l-.004-.016a.083.083 0 0 0-.004-.015l-.023-.05L278.738.066l-.03-.027c-.008-.007-.016-.013-.027-.018l-.018-.008-.074-.012c-.011 0-.02.003-.028.005l-.007-.001-40.023 14.5c-.01.005-.014.008-.011.007a.073.073 0 0 0-.02.009l-.016.012a.137.137 0 0 0-.016.015l.038.044-.049-.033-.011.016-.01.015-.003.005-.014.048-.002.017.001.032.003.022a.033.033 0 0 0 .003.008l.001.01 21.808 54.937.004.023.01.008c.002.005.005.009.004.006l.01.017a.18.18 0 0 0 .08.06l.016.004a.066.066 0 0 0 .013.003h.045l.032-.004c.013-.003.022-.009.03-.014l.01-.002 47.536-32.029.035-.028.005-.01a.16.16 0 0 0 .014-.023.163.163 0 0 0 .01-.017l.004-.006.009-.054v-.01c0-.009 0-.016-.002-.022z" transform="matrix(-1 0 0 1 361.75 38.634)"/>
        </g>
    </g>
</svg>
