<svg xmlns="http://www.w3.org/2000/svg" xmlns:xlink="http://www.w3.org/1999/xlink" width="146" height="774" viewBox="0 0 146 774">
    <defs>
        <path id="a" d="M0 0h185v997H0z"/>
        <linearGradient id="c" x1="96.093%" x2="1.381%" y1="98.087%" y2=".702%">
            <stop offset="0%" stop-color="#A19062"/>
            <stop offset="100%" stop-color="#ECE4C8"/>
        </linearGradient>
        <linearGradient id="d" x1="96.093%" x2="1.381%" y1="98.087%" y2=".702%">
            <stop offset="0%" stop-color="#A19062"/>
            <stop offset="22.309%" stop-color="#ECE4C8"/>
            <stop offset="44.681%" stop-color="#A19062"/>
            <stop offset="65.472%" stop-color="#ECE4C8"/>
            <stop offset="82.119%" stop-color="#A19062"/>
            <stop offset="100%" stop-color="#ECE4C8"/>
        </linearGradient>
        <linearGradient id="e" x1="77.318%" x2="22.505%" y1="-10.751%" y2="113.545%">
            <stop offset="0%" stop-color="#A19062"/>
            <stop offset="100%" stop-color="#ECE4C8"/>
        </linearGradient>
    </defs>
    <g fill="none" fill-rule="evenodd" transform="translate(-39 -24)">
        <mask id="b" fill="#fff">
            <use xlink:href="#a"/>
        </mask>
        <g mask="url(#b)">
            <g fill="#EEE9DC">
                <path d="M114.521 591.705l9.729 2.963.351-9.809-10.08 6.846zm9.96 3.424a.202.202 0 0 1-.1-.004l-10.375-3.16a.2.2 0 0 1-.054-.356l10.75-7.3a.2.2 0 0 1 .312.171l-.375 10.461a.199.199 0 0 1-.158.188z"/>
                <path d="M124.735 573.888l-10.102 16.95 9.906-6.71.196-10.24zm-10.687 17.808a.197.197 0 0 1-.212-.294l10.941-18.36a.2.2 0 0 1 .37.103l-.212 11.093a.197.197 0 0 1-.087.16l-10.73 7.268a.198.198 0 0 1-.07.03z"/>
                <path d="M124.984 573.077l-.142 9.928 8.836-23.129-8.694 13.201zm-.311 11.223a.188.188 0 0 1-.079 0 .199.199 0 0 1-.157-.198l.158-11.091a.2.2 0 0 1 .032-.107l9.712-14.747a.192.192 0 0 1 .252-.064.2.2 0 0 1 .093.247l-9.87 25.839a.194.194 0 0 1-.141.12z"/>
                <path d="M134.755 558.433l-9.714 25.164 40.39-26.896-30.676 1.732zm-10.08 25.867a.196.196 0 0 1-.165-.04.2.2 0 0 1-.06-.227l9.984-25.863a.199.199 0 0 1 .172-.125l31.53-1.78c.088-.006.169.05.197.135a.198.198 0 0 1-.078.228l-41.513 27.643a.204.204 0 0 1-.068.029z"/>
                <path d="M134.679 558.383l30.408-1.743-29.569-9.077-.84 10.82zm31.564-1.414a.186.186 0 0 1-.03.004l-31.737 1.819a.198.198 0 0 1-.209-.214l.876-11.292a.198.198 0 0 1 .255-.174l30.828 9.463c.085.007.16.069.179.157a.202.202 0 0 1-.157.236l-.005.001zM114.339 592.108l-8.978 24.56 18.805-21.547-9.827-3.013zm-9.489 25.688a.198.198 0 0 1-.227-.261l9.409-25.74a.197.197 0 0 1 .243-.122l10.3 3.158a.198.198 0 0 1 .09.32l-19.707 22.583a.2.2 0 0 1-.108.062z"/>
                <path d="M105.04 617.405l18.91 18.734.321-40.785-19.23 22.051zm19.145 19.4a.198.198 0 0 1-.18-.053l-19.375-19.196a.198.198 0 0 1-.01-.272l19.704-22.595a.197.197 0 0 1 .22-.054.2.2 0 0 1 .128.187l-.33 41.79a.2.2 0 0 1-.157.193z"/>
                <path d="M124.576 595.007l-.274 41.168 57.334-51.293-57.06 10.125zm-.432 41.807a.198.198 0 0 1-.238-.196l.277-41.78c.001-.096.056-.168.163-.194l57.907-10.275a.199.199 0 0 1 .165.344l-58.185 52.056a.197.197 0 0 1-.09.045z"/>
                <path d="M124.603 594.718l55.478-9.836-55.154-.191-.324 10.027zm57.752-9.835s-.006 0-.01.002l-.006.001-57.906 10.267a.195.195 0 0 1-.164-.046.2.2 0 0 1-.068-.158l.339-10.466a.197.197 0 0 1 .196-.192l57.549.2c.101-.016.2.052.221.156a.198.198 0 0 1-.15.236z"/>
                <path d="M125.364 584.27l56.598.217-15.72-27.557-40.878 27.34zm56.981.614a.214.214 0 0 1-.04.004l-57.594-.221a.198.198 0 0 1-.189-.143.2.2 0 0 1 .08-.224l41.595-27.821a.197.197 0 0 1 .28.067l15.97 27.994a.2.2 0 0 1 .06.106c.022.11-.033.22-.157.237l-.005.001z"/>
                <path d="M187.827 550.685l-5.854 33.857 19.301-5.147-13.447-28.71zm-6.06 34.322a.198.198 0 0 1-.235-.228l6.013-34.78a.2.2 0 0 1 .168-.162.197.197 0 0 1 .204.113l13.814 29.492a.197.197 0 0 1-.128.276l-19.826 5.287-.01.002z"/>
                <path d="M166.431 557.034l15.577 27.126 5.89-33.925-21.467 6.799zm15.719 27.892l-.007.002a.2.2 0 0 1-.205-.098l-15.971-27.813a.198.198 0 0 1 .111-.287l22.01-6.971a.191.191 0 0 1 .19.04.199.199 0 0 1 .064.183l-6.039 34.784a.198.198 0 0 1-.153.16z"/>
                <path d="M181.977 584.898l-57.03 51.227 93.648-31.544-36.618-19.683zm-57.835 51.916a.199.199 0 0 1-.172-.343l57.847-51.961a.194.194 0 0 1 .222-.027l37.143 19.965a.2.2 0 0 1 .104.192.195.195 0 0 1-.132.17l-94.99 31.998-.022.006z"/>
                <path d="M182.251 584.814l36.198 19.243-16.958-24.37-19.24 5.127zm36.868 19.996a.198.198 0 0 1-.133-.02l-37.364-19.863a.197.197 0 0 1-.104-.197.197.197 0 0 1 .145-.169l19.859-5.292c.074-.026.166.01.213.078l17.473 25.11a.196.196 0 0 1 .072.116c.023.108-.03.217-.156.235l-.005.002zM118.935 566.676l-4.427 24.25 10.27-17.419-5.843-6.831zm-4.783 25.511a.202.202 0 0 1-.112-.008.2.2 0 0 1-.125-.223l4.703-25.765a.2.2 0 0 1 .145-.157.197.197 0 0 1 .203.064l6.207 7.258a.199.199 0 0 1 .02.232l-10.911 18.506a.2.2 0 0 1-.13.093z"/>
                <path d="M119.04 565.961l5.793 6.971 9.118-14.17-14.91 7.2zm5.857 7.503a.194.194 0 0 1-.189-.067l-6.13-7.377a.211.211 0 0 1-.043-.174.194.194 0 0 1 .106-.14l15.777-7.618a.193.193 0 0 1 .232.053c.057.07.064.17.016.244l-9.648 14.995a.191.191 0 0 1-.121.084z"/>
                <path d="M135.47 547.8l-15.845 17.924 15.053-7.182.792-10.742zm-16.606 18.726a.199.199 0 0 1-.2-.077.204.204 0 0 1 .01-.254l16.889-19.105a.195.195 0 0 1 .225-.05.203.203 0 0 1 .12.202l-.844 11.449a.198.198 0 0 1-.112.165l-16.045 7.656a.214.214 0 0 1-.043.014z"/>
                <path d="M135.532 547.243l29.92 9.34-6.83-27.779-23.09 18.44zm30.236 9.827a.198.198 0 0 1-.098-.004l-30.61-9.555a.2.2 0 0 1-.065-.346l23.623-18.865a.194.194 0 0 1 .184-.03.203.203 0 0 1 .128.14l6.987 28.418a.198.198 0 0 1-.15.242z"/>
                <path d="M135.024 530.136l.308 16.903 22.715-18.37-23.023 1.467zm.16 17.509a.19.19 0 0 1-.124-.016.206.206 0 0 1-.113-.18l-.318-17.5c-.003-.107.078-.199.18-.202l23.84-1.52a.198.198 0 0 1 .196.129.204.204 0 0 1-.06.23l-23.52 19.021a.195.195 0 0 1-.08.038z"/>
                <path d="M159.38 528.874l6.815 27.68 21.493-6.807-28.308-20.873zM166.095 557a.2.2 0 0 1-.234-.148l-6.996-28.417a.198.198 0 0 1 .309-.207l29.063 21.43a.2.2 0 0 1 .078.192.197.197 0 0 1-.135.157l-22.067 6.988-.018.005z"/>
                <path d="M135.178 529.866l21.85-1.452-22.549-2.737.699 4.189zm24.032-1.199a.165.165 0 0 1-.028.004l-24.155 1.606a.2.2 0 0 1-.21-.167l-.773-4.631a.2.2 0 0 1 .219-.232l24.902 3.023a.2.2 0 0 1 .207.158.2.2 0 0 1-.162.24zM134.947 524.903l23.754 2.838-8.5-14.658-15.254 11.82zm24.161 3.272a.189.189 0 0 1-.064.003l-24.619-2.942a.197.197 0 0 1-.097-.35l15.81-12.251a.196.196 0 0 1 .289.056l8.78 15.143a.2.2 0 0 1 .061.106.195.195 0 0 1-.155.234l-.005.001z"/>
                <path d="M159.363 528.459l28.585 21.214 1.867-59.639-30.452 38.425zm28.812 21.794a.196.196 0 0 1-.158-.035l-29.054-21.56a.203.203 0 0 1-.038-.286l30.951-39.056a.197.197 0 0 1 .223-.062.2.2 0 0 1 .129.194l-1.897 60.617a.199.199 0 0 1-.156.188z"/>
                <path d="M150.474 513.124l8.662 15.008 30.072-37.97-38.734 22.962zm8.679 15.556a.198.198 0 0 1-.212-.096l-8.907-15.432a.2.2 0 0 1 .07-.272l39.826-23.61a.197.197 0 0 1 .25.04c.062.073.065.181.006.256l-30.92 39.043a.2.2 0 0 1-.113.07zM124.923 636.954l105.4 23.012-11.298-54.706-94.102 31.694zm105.695 23.464a.195.195 0 0 1-.082 0l-106.396-23.23a.197.197 0 0 1-.155-.182.197.197 0 0 1 .133-.2l94.99-31.992a.195.195 0 0 1 .255.148l11.406 55.222a.198.198 0 0 1-.15.234z"/>
                <path d="M118.018 636.24l5.686.148-17.55-17.267 11.864 17.118zm6.225.553a.229.229 0 0 1-.046.004l-6.291-.164a.2.2 0 0 1-.159-.086l-13.123-18.936a.199.199 0 0 1 .304-.254l19.414 19.101a.197.197 0 0 1-.1.335zM190.095 489.897l-1.821 59.917 53.519-13.555-51.698-46.362zm-1.985 60.37a.198.198 0 0 1-.238-.202l1.842-60.606a.197.197 0 0 1 .119-.176c.07-.03.15-.017.208.034l52.292 46.894c.055.05.078.125.061.197a.197.197 0 0 1-.143.146l-54.134 13.71-.007.002z"/>
            </g>
            <path fill="url(#c)" d="M180.703 262.645l16.01-21.221.614 6.113-16.624 15.108zm-30.96-120.304l56.492-19.668-9.514 117.414-46.978-97.746zm-76.789 78.735l3.915-3.036.048 4.52.233 21.669-14.798-14.926 10.602-8.227zm3.75-3.44l-14.63 11.352-29.67-38.583 44.3 27.23zm-2.744-90.833l10.201-17.208 14.656 26.292-24.857-9.084zm51.146 37.379l-25.41-27.754 45.369-6.82-19.96 34.574zm-62.72-38.955l10.91 1.84-10.316 15.366-31.029 46.215 13.133-66.338 17.302 2.917zm87.15 16.558l-3.784-12.223 13.182.713-9.397 11.51zm56.72-19.595l-43.798 7.175 43.632-13.25.166 6.075zm-53.153 124.22l43.3-5.27-17.26 22.879-17.598-11.901-8.442-5.708zm43.13-6.375l-62.465-54.905 6.887-18.577 8.822-23.8 9.85 20.492 36.905 76.79zm-50.828-110.18l3.809 12.299-11.066 10.158-12.14 11.145 11.879-20.578 7.518-13.025zm19.171 6.876l-14.491 5.045 9.384-11.495 44.633-7.311-39.526 13.761zm-69.19 46.986l-18.39 33.605-44.808-27.543 63.198-6.062zm100.99 57.002l-43.709 5.32-18.725-60.197 42.584 37.43 19.85 17.447zM106.223 207.4l6.053 32.456-11.606.587 5.553-33.043zm-24.286 8.537l24.009-9.402-5.664 33.7-22.832-22.541 4.487-1.757zm13.527-32.65l-37.228 3.57-26.271 2.52 41.637-62.015 17.58 44.972 4.282 10.952zm.155-.75l-21.604-55.266 25.039 9.151-3.435 46.116zm.38.529l3.447-46.29 25.376 27.716-28.823 18.574zm33.636 65.358l-15.312-7.701 10.713 2.693 15.199 3.82-10.07 1.129-.53.06zm19.32-105.463l-15.441 41.654-8.122-20.024 2.435-2.235 21.128-19.395zm-53.212 40.974l9.391 20.424.796 1.73-28.397 11.12 11.285-20.62 6.925-12.654zm29.303-19.088l8.159 20.12-7.242-.33-29.536-1.348 10.186-6.564 18.433-11.878zm16.55 82.24l-7.567-59.562 8.14 26.172 10.075 32.386-5.364.506-5.284.498zm-28.89-7.205l-6.145-32.95 34.266 40.019-14.858-3.735-13.263-3.334zm28.414 6.767l-14.505-16.939-20.1-23.474 26.846-20.655 5.647 44.448 2.112 16.62zm-8.182-61.272l-22.713 17.476-3.932 3.025-10.2-22.182 10.467.477 26.378 1.204zm19.33 61.126l-1.812 10.785-6.11-6.953-2.502-2.848 5.487-.518 4.938-.466zm-23.01 2.202l-6.427 7.203-9.722-15.326 16.149 8.123zm12.072-1.168l8.482 9.652-19.408-8.427 10.926-1.225zM73.596 126.598l-27.423-22.185 37.651 4.93-10.228 17.255zm-23.13-18.172l22.43 18.147-27.763-4.683.525-17.354 4.808 3.89zM77.49 237.013l-.184-17.133 4.58 23.264-4.316 1.316-.08-7.447zm2.84-3.932l-2.921-14.84 22.563 22.278-17.677 2.534-1.964-9.972zm28.116 7.39l3.97-.2 9.652 15.216-21.023-14.64 7.4-.376zm19.43 10.412l1.776-1.99 19.78 8.59-26.182-1.415 4.626-5.185zm50.264 12.965l-27.313-6.253.196-1.166 1.649-9.805 9.67 6.54 15.798 10.684zm28.364-147.861l5.44-1.768-5.283 7.513-.1-3.682-.057-2.063zm6.144-2.04a.21.21 0 0 0-.002-.247.204.204 0 0 0-.232-.076l-6.187 2.01-46.893 14.24-13.86-.749c-.008 0-.016.004-.024.005-.006 0-.011-.004-.017-.003l-46.047 6.922-15.037-26.978c-.007-.01-.02-.017-.027-.027-.013-.016-.025-.032-.042-.044-.014-.009-.029-.011-.044-.017-.014-.005-.027-.015-.042-.017l-38.705-5.067a.203.203 0 0 0-.115.018c-.003.001-.005.006-.008.007-.01.005-.015.014-.024.021a.2.2 0 0 0-.06.068c-.003.005-.01.007-.012.012-.004.01 0 .02-.002.03-.004.016-.014.03-.015.047l-.541 17.94-13.371 67.54v.002l-.001.004v.016c-.002.006-.004.013-.004.02l.002.02a.268.268 0 0 0 .013.061l.005.011.008.017v.004l.007.006.008.016 30.492 39.653c.003.004.008.005.011.009l.007.01 15.328 15.46c.004.005.01.007.014.01s.005.009.01.012c.004.003.01.001.014.004.033.021.07.036.11.036h.012c.032 0 .06-.008.088-.02l4.71-1.437 18.194-2.609 22.312 15.538.001.001.002.002.005.001c.03.02.061.032.096.035h.005l.001.001 27.767 1.5 28.584 6.544c.016.004.034.004.045.005h.002l.005.001h.003c.065 0 .12-.032.159-.08l18.33-16.656a.215.215 0 0 0 .067-.178l-.674-6.707c0-.008.004-.014.004-.022 0-.01-.004-.019-.005-.028l9.595-118.401 5.975-8.497z" transform="rotate(127 19.416 444.318)"/>
            <path fill="url(#d)" d="M139.747 537.79c.002.01.003.021.003.034v.018l-.015.089-.008.01a.232.232 0 0 1-.014.027.296.296 0 0 1-.024.04l-.008.014-.057.048L61.8 590.688l-.016.004a.201.201 0 0 1-.05.023l-.052.006a.348.348 0 0 1-.046.001h-.027a.172.172 0 0 1-.021-.006l-.028-.007a.287.287 0 0 1-.13-.097l-.016-.029c0 .004-.003-.002-.007-.01l-.016-.014-.006-.037-35.703-90.255-.003-.015a.06.06 0 0 1-.005-.013l-.004-.037a.237.237 0 0 1-.002-.052l.004-.028.021-.08.008-.007.014-.025.019-.027.08.056-.063-.073a.199.199 0 0 1 .026-.024l.027-.02c.015-.01.026-.013.032-.015-.005.002.002-.004.018-.01l65.525-23.823.012.001a.195.195 0 0 1 .045-.007l.12.018.031.013c.017.01.031.02.045.03l.048.045 48.018 61.483.038.082a.103.103 0 0 1 .007.025l.005.026zm-27.838 8.068l26.894-8.133-36.55-25.168 9.656 33.3zm-46.7 41.826l72.508-49.023-25.86 7.82-46.649 41.203zm5.945-51.312l-9.077 53.305 49.033-43.309-39.956-9.996zm-9.49 52.302l8.93-52.442-18.087-4.525 9.157 56.967zm-34.793-86.963l34.083 86.166-9.07-56.432-25.013-29.734zm50.365-5.968L26.53 500.41l25.606 30.44 25.1-35.106zm13.44-18.796l-62.511 22.728 49.518-4.556 12.993-18.172zm10.573 34.216l-9.906-34.157-13.097 18.318 23.003 15.839zm-30.557 24.494l6.654-39.075-24.71 34.558 18.056 4.517zm7.355-39.767l-6.795 39.907 40.047 10.02-9.795-33.775-23.457-16.152zm60.03 40.632l-45.93-58.81 9.85 33.966 36.08 24.844z" transform="rotate(9 -71.826 594.353)"/>
            <path fill="url(#e)" d="M103.643 20.247l53.968-13.252L146.024.912l-42.38 19.335zm213.724 155.438L398.946 84.5 160.254 8.054l157.113 167.631zm-213.41 82.107l8.952-4.97-8.877-3.731-42.542-17.874 18.213 40.04 24.253-13.465zm9.624-4.335l-33.467 18.58 53.588 87.245-20.121-105.825zm177 78.28l41.655-5.479-40.733-48.915-.922 54.393zM255.639 204.78l35.464 70.463 47.821-80.453-83.285 9.99zm29.278 150.148l4.639-22.147-38.111 7.179-114.623 21.592L277.56 390.05l7.357-35.12zm33.39-178.406l21.23 17.003 8.583-25.543-29.813 8.54zm81.606-91.675l-47.33 77.192 59.181-71.99-11.851-5.202zm-285.174.742l43.196-77.78-58.183 14.288 10.129 42.909 4.858 20.583zm45.247-76.568l60.917 162.496 41.844 1.902 53.605 2.436-32.938-35.143L159.986 9.022zm178.712 184.925l-21.363-17.109-28.413 12.788-31.171 14.03 49.57-5.946 31.377-3.763zm.967-41.846l-20.926 23.39 29.773-8.527L396.744 88.3l-57.079 63.8zM194.606 245.36l-80.185 7.799 20.35 107.034 59.835-114.833zM158.746 8.2L115.14 86.714l104.49 83.9-41.528-110.778L158.745 8.2zm-2.62 197.577l-59.4-37.579-9.952 21.513 69.353 16.066zm-35.231 39.136l36.727-37.914-70.732-16.386 27.141 61.384 6.864-7.084zm74.62.646l-35.248 67.645-24.873 47.736 153.812-28.976-75.343-69.483-18.349-16.922zm1.594.307l92.59 85.391.93-54.794-93.52-30.597zm-.754-1.143l93.872 30.712-35.414-70.365-58.458 39.653zm-103.37-116.3l3.582 35.2 2.808-22.459 3.985-31.863-9.856 18.166-.519.957zm222.562 48.255l-93.822-4.264 33.325 31.495 6.25-2.814 54.247-24.417zm-121.099 67.83l-33.15-34.222-2.81-2.899-43.439 44.843 49.206-4.785 30.193-2.936zm59.834-40.15l-33.486-31.643-4.836 13.984-19.72 57.033 20.658-14.013 37.384-25.36zm-149.597-97.516l111.694 62.256-45.43-36.478-56.217-45.14-5.061 9.754-4.986 9.608zM97 167.362l60.304 38.151-52.932-97.105-3.895 31.15-3.477 27.804zm8.188-59.266l22.406 41.103 31.05 56.96 61.062-34.232-83.352-46.46-31.166-17.371zm114.6 64.795l-51.663 28.965-8.944 5.014 36.005 37.167 6.99-20.21 17.611-50.936zM113.921 87.095l-22.635-5.243 9.078 17.165 3.72 7.033 5.177-9.977 4.66-8.978zM92.146 128.91l-19.07 6.38 22.848 30.746-3.778-37.126zm11.45-21.928L90.994 83.151l1.908 43.543 10.694-19.71zm187.11 225.609l22.963 69.793 18.808-75.286-41.77 5.493zm18.303 58.434l-18.781-57.089-11.805 56.357 34.613 12.969-4.027-12.237zM75.974 236.38l33.637 14.132-42.393-27.393-5.866 7.117 14.622 6.144zm9.904-2.219l27.042 17.474-26.823-60.664-18.392 31.447 18.173 11.743zm6.732-59.202l3.403-7.358-22.685-30.526 12.935 51.6 6.347-13.716zm-5.805-45.183l5.267-1.762-1.945-44.378-17.05 50.732 13.728-4.592zM99.33 24.135l-8.367 56.767 2.447.566 20.579 4.766-5.566-23.578-9.093-38.521zm313 65.235l7.61-8.883-18.817 3.963 7.184 3.154 4.024 1.766zm8.68-9.996a.464.464 0 0 1 .483.202.41.41 0 0 1-.025.5l-8.651 10.102-63.605 77.37-9.025 26.855c-.005.017-.02.028-.027.043-.005.012-.002.024-.008.034l-48.536 81.655 41.793 50.19c.017.021.02.049.034.073.021.037.045.072.054.114.007.033 0 .063.001.097 0 .032.01.062.002.094l-19.336 77.392-.002.002a.397.397 0 0 1-.12.201c-.007.005-.016.005-.022.01-.017.014-.039.017-.059.028a.415.415 0 0 1-.18.06c-.011.002-.02.012-.033.012-.022 0-.04-.017-.061-.02-.034-.005-.068.002-.102-.01l-35.78-13.409-143.287-29.011h-.002s0-.002-.002-.001l-.01-.003c-.01-.002-.02-.008-.03-.011-.014-.004-.028-.004-.042-.009-.014-.006-.025-.016-.037-.022a.597.597 0 0 1-.112-.073l-.018-.018c-.01-.01-.02-.018-.028-.029l-.006-.004c-.005-.006-.005-.012-.009-.017-.007-.01-.017-.018-.024-.029L79.125 272.08c-.005-.009-.005-.02-.01-.028-.004-.008-.012-.013-.016-.022l-18.866-41.473c-.005-.011-.004-.024-.008-.035-.003-.01-.013-.017-.015-.027-.003-.01.004-.02.001-.03a.41.41 0 0 1 .013-.237l.002-.003.008-.022a.401.401 0 0 1 .107-.148l6.402-7.768 18.928-32.364-13.729-54.766v-.002l-.002-.005c0-.004.002-.006 0-.01a.418.418 0 0 1 .004-.21l.004-.01v-.003L90.03 81.113l8.755-59.41c.005-.033.017-.067.024-.089v-.004l.004-.01c0-.001 0-.003.003-.005a.409.409 0 0 1 .276-.237L145.82.038a.466.466 0 0 1 .402.016l12.711 6.673c.017.005.033.004.048.01.02.008.033.022.052.032L399.73 83.856l21.28-4.482z" transform="translate(7.633 24.925)"/>
        </g>
    </g>
</svg>
