<svg xmlns="http://www.w3.org/2000/svg" width="229" height="452" viewBox="0 0 229 452">
    <defs>
        <linearGradient id="a" x1="96.093%" x2="1.381%" y1="98.087%" y2=".702%">
            <stop offset="0%" stop-color="#A19062"/>
            <stop offset="100%" stop-color="#ECE4C8"/>
        </linearGradient>
    </defs>
    <g fill="none" fill-rule="evenodd">
        <g fill="#F3EEE0">
            <path d="M93.577 162.868l15.33 4.715.534-15.54-15.864 10.825zm15.696 5.446a.316.316 0 0 1-.157-.006l-16.35-5.029a.316.316 0 0 1-.085-.563l16.918-11.546a.315.315 0 0 1 .492.273l-.57 16.574a.314.314 0 0 1-.248.297z"/>
            <path d="M109.742 134.943l-15.897 26.979 15.62-10.66.277-16.32zm-16.819 28.343a.317.317 0 0 1-.281-.079.317.317 0 0 1-.055-.39l17.218-29.223a.312.312 0 0 1 .356-.143c.138.04.232.166.23.31l-.3 17.677a.313.313 0 0 1-.137.255l-16.92 11.545a.31.31 0 0 1-.11.048z"/>
            <path d="M110.388 133.853l-.267 15.824 14.331-36.896-14.064 21.072zm-.546 17.887a.316.316 0 0 1-.38-.315l.3-17.676c.001-.061.02-.12.052-.17l15.711-23.541a.312.312 0 0 1 .406-.104.316.316 0 0 1 .149.395l-16.01 41.218a.314.314 0 0 1-.228.193z"/>
            <path d="M126.006 110.517L110.43 150.62l64.652-42.908-49.076 2.805zm-16.164 41.224a.314.314 0 0 1-.263-.064.318.318 0 0 1-.095-.36l16.01-41.218a.318.318 0 0 1 .274-.2l50.44-2.883a.313.313 0 0 1 .316.216.315.315 0 0 1-.124.363l-66.45 44.1a.328.328 0 0 1-.108.046z"/>
            <path d="M126.128 109.878l48.327-2.762-46.997-14.45-1.33 17.212zm50.164-2.238a.295.295 0 0 1-.047.006l-50.44 2.882a.315.315 0 0 1-.332-.34l1.39-17.964a.314.314 0 0 1 .405-.277l48.997 15.067c.136.01.255.108.285.249a.32.32 0 0 1-.25.375l-.008.002zM93.05 163.367l-14.233 39.052 29.835-34.254-15.601-4.798zm-15.044 40.846a.314.314 0 0 1-.36-.417l14.917-40.928a.312.312 0 0 1 .386-.192l16.35 5.028a.315.315 0 0 1 .145.51l-31.267 35.9a.317.317 0 0 1-.17.099z"/>
            <path d="M78.371 203.89l30.022 29.78.494-64.817L78.37 203.89zm30.397 30.837a.314.314 0 0 1-.286-.083L77.72 204.129a.314.314 0 0 1-.016-.432l31.267-35.9a.312.312 0 0 1 .348-.086.317.317 0 0 1 .203.298l-.505 66.414a.317.317 0 0 1-.25.304z"/>
            <path d="M109.52 168.27l-.498 65.441 91.589-81.618-91.091 16.178zm-.752 66.457a.314.314 0 0 1-.38-.31l.505-66.414c.001-.153.089-.267.26-.308l92.443-16.418a.317.317 0 0 1 .264.547l-92.95 82.832a.315.315 0 0 1-.142.071z"/>
            <path d="M109.535 167.627l88.57-15.73-88.024-.149-.546 15.88zm92.198-15.734l-.015.003-.011.003-92.444 16.418a.315.315 0 0 1-.37-.322l.57-16.574a.314.314 0 0 1 .314-.305l91.845.156a.315.315 0 0 1 .111.62z"/>
            <path d="M110.82 151.118l90.287.153-24.985-43.491-65.302 43.338zm90.897.778a.345.345 0 0 1-.065.007l-91.875-.156a.316.316 0 1 1-.174-.58l66.45-44.1a.318.318 0 0 1 .446.106l25.38 44.179c.047.042.081.1.096.167.036.173-.052.348-.25.376l-.008.001z"/>
            <path d="M211.415 97.27l-9.369 53.886 30.798-8.208-21.43-45.678zm-9.697 54.627a.316.316 0 0 1-.376-.364l9.624-55.354a.314.314 0 0 1 .594-.079l22.014 46.922a.314.314 0 0 1-.204.44l-31.638 8.43-.014.005z"/>
            <path d="M176.694 107.514l24.797 43.163 9.386-53.986-34.183 10.823zm25.023 44.383l-.01.002a.317.317 0 0 1-.328-.155l-25.425-44.256a.314.314 0 0 1 .178-.457l35.049-11.098a.316.316 0 0 1 .405.355l-9.625 55.354a.315.315 0 0 1-.244.255z"/>
            <path d="M201.698 151.969l-91.637 81.66 150.32-50.459-58.683-31.201zm-92.93 82.759a.313.313 0 0 1-.337-.15.315.315 0 0 1 .062-.395l92.95-82.831a.314.314 0 0 1 .355-.043l59.524 31.648a.316.316 0 0 1-.046.578l-152.474 51.184a.492.492 0 0 1-.034.009z"/>
            <path d="M202.508 151.686l57.666 30.66-27.016-38.828-30.65 8.168zm58.733 31.86a.315.315 0 0 1-.212-.031l-59.524-31.649a.313.313 0 0 1-.165-.314.314.314 0 0 1 .23-.27l31.637-8.431c.118-.041.264.015.34.125l27.836 40.007c.057.044.099.108.115.185.037.173-.05.347-.249.375l-.008.002zM100.468 122.998l-6.983 38.295 16.206-27.505-9.223-10.79zm-7.545 40.288a.318.318 0 0 1-.176-.013.317.317 0 0 1-.198-.353l7.419-40.687a.317.317 0 0 1 .228-.247.311.311 0 0 1 .32.1l9.799 11.464c.087.102.1.25.031.366l-17.218 29.222a.316.316 0 0 1-.205.148z"/>
            <path d="M100.785 122.4l9.26 10.833 14.848-22.247-24.108 11.414zm9.357 11.664a.313.313 0 0 1-.304-.103l-9.799-11.464a.32.32 0 0 1-.068-.272.31.31 0 0 1 .173-.22l25.508-12.077a.315.315 0 0 1 .396.461l-15.71 23.542a.314.314 0 0 1-.196.133z"/>
            <path d="M126.79 93.15l-25.236 28.187 23.934-11.33 1.302-16.856zm-26.447 29.45a.316.316 0 0 1-.3-.52l26.898-30.043a.314.314 0 0 1 .548.237l-1.39 17.964a.312.312 0 0 1-.178.26l-25.51 12.078a.344.344 0 0 1-.068.024z"/>
            <path d="M127.841 92.123l47.948 14.743-10.862-44.117-37.086 29.374zm48.452 15.517a.32.32 0 0 1-.158-.007l-49.05-15.082a.318.318 0 0 1-.105-.55l37.94-30.052a.314.314 0 0 1 .5.173l11.112 45.134a.314.314 0 0 1-.24.384z"/>
            <path d="M127.125 65.073l.356 26.531 36.642-29.023-36.998 2.492zm.116 27.484a.312.312 0 0 1-.2-.024.319.319 0 0 1-.18-.28l-.369-27.47a.31.31 0 0 1 .292-.319l38.309-2.58a.314.314 0 0 1 .315.2c.05.129.01.275-.098.362l-37.94 30.05a.32.32 0 0 1-.13.061z"/>
            <path d="M165.628 62.967l10.824 43.963 34.139-10.81-44.963-33.153zm10.664 44.674a.317.317 0 0 1-.371-.234L164.81 62.272a.315.315 0 0 1 .49-.33l46.162 34.036a.317.317 0 0 1 .124.306.313.313 0 0 1-.215.249l-35.05 11.099-.029.008z"/>
            <path d="M127.069 64.445l34.651-2.334-35.75-4.27 1.099 6.604zm38.112-1.938a.263.263 0 0 1-.044.006l-38.309 2.58a.315.315 0 0 1-.332-.262l-1.216-7.301a.314.314 0 0 1 .347-.366l39.483 4.716a.315.315 0 1 1 .07.627z"/>
            <path d="M126.392 57.255l38.134 4.555-13.644-23.529-24.49 18.974zm38.789 5.252a.303.303 0 0 1-.103.004l-39.524-4.72a.317.317 0 0 1-.156-.563l25.383-19.666a.314.314 0 0 1 .464.09L165.34 61.96a.32.32 0 0 1 .098.17.313.313 0 0 1-.25.376l-.007.002z"/>
            <path d="M165.565 62.138l45.416 33.487 3.089-94.308-48.505 60.821zm45.777 34.404a.312.312 0 0 1-.252-.054l-46.16-34.036a.314.314 0 0 1-.127-.213.32.32 0 0 1 .066-.239L214.17.181a.314.314 0 0 1 .56.208l-3.139 95.856a.315.315 0 0 1-.248.297z"/>
            <path d="M151.402 37.924l13.754 23.718L213.102 1.52l-61.7 36.404zm13.778 24.583a.314.314 0 0 1-.337-.151l-14.141-24.387a.316.316 0 0 1 .111-.43L214.255.107a.314.314 0 0 1 .397.065.319.319 0 0 1 .009.404l-49.3 61.82a.318.318 0 0 1-.18.111zM109.893 234.352l169.015 36.314-17.968-87.018-151.047 50.704zm169.486 37.033a.315.315 0 0 1-.132 0l-170.611-36.658a.315.315 0 0 1-.034-.607l152.474-51.183a.314.314 0 0 1 .408.236l18.138 87.84a.315.315 0 0 1-.243.372z"/>
            <path d="M98.92 233.828l8.995.253-27.81-27.585 18.815 27.332zm9.848.9a.359.359 0 0 1-.074.007l-9.95-.28a.316.316 0 0 1-.25-.138l-20.812-30.233a.317.317 0 0 1 .057-.421.313.313 0 0 1 .422.017l30.762 30.515a.317.317 0 0 1-.155.533zM215.79 1.179l81.781 72.63 12.235-40.682L215.79 1.18zm82.005 73.502a.31.31 0 0 1-.273-.073L214.206.615a.316.316 0 0 1 .309-.536l95.78 32.549c.16.055.249.228.2.39l-12.463 41.446a.315.315 0 0 1-.216.212l-.021.005z"/>
            <path d="M214.707 1.06l-3.103 94.765 85.472-21.612-82.37-73.153zm-3.366 95.482a.313.313 0 0 1-.379-.319L214.1.368a.314.314 0 0 1 .522-.226l83.316 73.994a.316.316 0 0 1-.131.542L211.353 96.54l-.012.003zM233.818 143.167l46.528 35.982-1.373-68.17-45.155 32.188zm46.921 36.942a.316.316 0 0 1-.258-.059l-47.384-36.643a.314.314 0 0 1-.122-.257c.001-.1.05-.193.131-.25l45.987-32.782a.318.318 0 0 1 .324-.024c.104.053.17.16.172.275l1.399 69.425a.32.32 0 0 1-.249.315z"/>
            <path d="M211.828 96.67l21.585 46.01 45.092-32.142-66.677-13.867zm21.527 46.795a.32.32 0 0 1-.35-.175L210.99 96.367a.315.315 0 0 1 .348-.442l68 14.142a.315.315 0 0 1 .12.566l-45.988 32.78a.318.318 0 0 1-.116.052z"/>
            <path d="M212.681 96.203l66.424 13.815L297.13 74.85l-84.45 21.354zm66.66 14.482a.3.3 0 0 1-.129 0l-68-14.142a.317.317 0 0 1-.013-.615l86.454-21.862a.298.298 0 0 1 .323.11.32.32 0 0 1 .034.34l-18.455 36.005a.317.317 0 0 1-.214.164z"/>
        </g>
        <path fill="url(#a)" d="M361.355 396.664l32.192-42.23 1.237 12.166-33.43 30.064zm-62.256-239.406l113.597-39.138-19.131 233.653-94.466-194.515zm-154.41 156.685l7.871-6.043.098 8.997.468 43.12-29.757-29.703 21.32-16.371zm7.541-6.847l-29.42 22.592-59.661-76.782 89.081 54.19zm-5.518-180.758l20.513-34.244 29.47 52.322-49.983-18.078zm102.845 74.385l-51.096-55.23 91.23-13.572-40.134 68.802zm-126.12-77.52l21.94 3.661-20.746 30.579-62.393 91.966 26.408-132.013 34.791 5.807zm175.248 32.949l-7.611-24.323 26.507 1.418-18.896 22.905zm114.053-38.993l-88.072 14.278 87.739-26.367.333 12.09zM305.856 364.356l87.067-10.486-34.706 45.528-35.387-23.682-16.974-11.36zm86.726-12.686L266.976 242.41l13.848-36.969 17.74-47.36 19.806 40.779 74.212 152.811zM290.377 132.41l7.658 24.476-22.252 20.216-24.413 22.178 23.888-40.95 15.119-25.92zm38.55 13.685l-29.14 10.04 18.87-22.875 89.75-14.55-79.48 27.385zm-139.132 93.503l-36.98 66.873-90.1-54.81 127.08-12.063zm203.076 113.434l-87.892 10.585-37.652-119.79 85.629 74.485 39.915 34.72zm-181.283-66.305l12.171 64.587-23.339 1.169 11.168-65.756zm-48.837 16.988l48.278-18.71-11.389 67.064-45.91-44.857 9.021-3.497zm27.2-64.974l-74.859 7.107-52.826 5.014 83.726-123.41 35.35 89.494 8.61 21.795zm.314-1.49l-43.444-109.982 50.35 18.212-6.906 91.77zm.762 1.05l6.934-92.115 51.025 55.154-57.959 36.962zm67.637 130.064l-30.789-15.326 21.542 5.36L279.98 366l-20.248 2.247-1.067.118zm38.85-209.872l-31.05 82.892-16.33-39.848 4.895-4.448 42.486-38.596zm-107 81.538l18.884 40.644 1.6 3.444-57.101 22.129 22.691-41.037 13.925-25.18zm58.923-37.984l16.407 40.04-14.563-.658-59.391-2.683 20.481-13.062 37.066-23.637zm33.28 163.656L267.5 247.175l16.37 52.082 20.258 64.449-10.786 1.006-10.625.991zm-58.093-14.336l-12.358-65.57 68.904 79.636L251.293 358l-26.669-6.634zm57.136 13.466l-29.167-33.709-40.417-46.713 53.98-41.104 11.357 88.452 4.247 33.074zm-16.453-121.931l-45.673 34.775-7.907 6.02-20.51-44.142 21.047.95 53.043 2.397zm38.87 121.64l-3.644 21.461-12.285-13.835-5.032-5.668 11.033-1.03 9.929-.927zm-46.27 4.382l-12.925 14.334-19.549-30.498 32.474 16.164zm24.275-2.325l17.056 19.208-39.027-16.77 21.971-2.438zM145.978 125.931L90.837 81.782l75.71 9.81-20.569 34.34zm-46.51-36.163l45.104 36.112-55.827-9.317L89.8 82.027l9.668 7.74zm54.34 255.888l-.369-34.093 9.21 46.294-8.68 2.62-.16-14.82zm5.714-7.824l-5.876-29.53 45.372 44.331-35.547 5.044-3.95-19.845zm56.534 14.707l7.983-.4 19.41 30.28-42.274-29.133 14.881-.747zm39.072 20.72l3.57-3.96 39.775 17.092-52.648-2.815 9.303-10.317zM356.2 399.058l-54.92-12.444.394-2.32 3.314-19.51 19.445 13.013 31.767 21.26zm57.036-294.243l10.94-3.52-10.624 14.952-.202-7.328-.114-4.104zm12.355-4.062a.415.415 0 0 0-.005-.49.413.413 0 0 0-.466-.152l-12.44 4.001v.001l-94.295 28.337-27.869-1.49c-.017-.002-.033.007-.05.009-.012 0-.022-.007-.034-.005l-92.593 13.774-30.238-53.685c-.013-.023-.037-.036-.054-.056-.026-.03-.05-.063-.084-.086-.028-.018-.058-.023-.088-.034-.03-.011-.054-.03-.086-.035L89.461 80.76h-.002a.411.411 0 0 0-.23.036c-.006.003-.01.011-.016.015-.02.01-.03.027-.048.04a.398.398 0 0 0-.121.136c-.006.01-.019.014-.024.025-.007.02.001.04-.004.06-.008.031-.028.058-.03.092l-1.088 35.702-26.887 134.403v.004l-.003.01v.03c-.002.013-.007.026-.008.04 0 .013.005.027.006.04a.529.529 0 0 0 .025.122l.01.022.016.034c0 .002 0 .005.002.007.003.005.009.008.012.013.007.01.01.02.017.031l61.315 78.91c.006.007.015.01.022.017.005.007.006.015.013.022l30.822 30.765c.009.009.02.012.029.02.007.006.01.017.02.022.008.006.02.004.028.01.067.042.14.07.22.07h.026c.063 0 .121-.016.176-.041l9.473-2.859 36.584-5.19 44.866 30.92.002.002.004.003c.003.002.007 0 .01.003a.423.423 0 0 0 .192.07h.01l.003.001 55.836 2.985 57.478 13.023c.031.008.067.009.09.01l.003.001h.001l.01.001h.005c.13 0 .243-.065.32-.158l36.858-33.147a.425.425 0 0 0 .136-.354l-1.356-13.346c.001-.016.008-.03.008-.046 0-.019-.007-.036-.01-.055l19.294-235.618 12.015-16.909z" transform="rotate(127 225.092 219.57)"/>
    </g>
</svg>
