<svg xmlns="http://www.w3.org/2000/svg" xmlns:xlink="http://www.w3.org/1999/xlink" width="30" height="30" viewBox="0 0 30 30">
    <defs>
        <rect id="a" width="30" height="30" rx="4"/>
    </defs>
    <g fill="none" fill-rule="evenodd">
        <g>
            <use fill="#FFF" xlink:href="#a"/>
            <rect width="29" height="29" x=".5" y=".5" stroke="#A19062" rx="4"/>
        </g>
        <path fill="#A19062" d="M12.364 20.46c0-1.535-.006-3.07.005-4.606.002-.259-.07-.34-.322-.33-.468.02-.937-.001-1.405.01-.19.005-.26-.05-.257-.255.01-.958.008-1.916 0-2.875-.001-.184.053-.245.235-.24.479.01.959-.014 1.437.01.277.014.334-.087.328-.35-.017-.729-.017-1.46-.001-2.188.019-.891.253-1.723.771-2.447.656-.917 1.589-1.336 2.665-1.385 1.105-.05 2.213-.023 3.32-.035.153-.002.2.055.199.208-.005.97-.006 1.939 0 2.908.002.172-.053.225-.218.222-.533-.008-1.065-.004-1.597-.003-.708.003-1.132.376-1.176 1.093-.036.575-.01 1.154-.023 1.73-.005.206.115.192.248.192.808-.001 1.617.008 2.426-.006.237-.004.315.052.288.307-.102.963-.189 1.928-.27 2.893-.018.218-.115.26-.306.256a85.946 85.946 0 0 0-1.915-.003c-.459.003-.414-.068-.414.41-.002 3.006-.006 6.012.006 9.017.001.318-.078.396-.385.39a84.125 84.125 0 0 0-3.288.001c-.309.007-.36-.1-.357-.382.012-1.514.006-3.028.006-4.542"/>
    </g>
</svg>
