<svg xmlns="http://www.w3.org/2000/svg" width="1440" height="48" viewBox="0 0 1440 48">
    <defs>
        <linearGradient id="a" x1="139.211%" x2="-1.542%" y1="0%" y2="50%">
            <stop offset="0%" stop-color="#C1B38A"/>
            <stop offset="100%" stop-color="#86754D"/>
        </linearGradient>
        <filter id="b" width="102.8%" height="216.7%" x="-1.4%" y="-58.3%" filterUnits="objectBoundingBox">
            <feOffset dy="2" in="SourceAlpha" result="shadowOffsetOuter1"/>
            <feGaussianBlur in="shadowOffsetOuter1" result="shadowBlurOuter1" stdDeviation="1.5"/>
            <feColorMatrix in="shadowBlurOuter1" result="shadowMatrixOuter1" values="0 0 0 0 0 0 0 0 0 0 0 0 0 0 0 0 0 0 0.7 0"/>
            <feMerge>
                <feMergeNode in="shadowMatrixOuter1"/>
                <feMergeNode in="SourceGraphic"/>
            </feMerge>
        </filter>
    </defs>
    <g fill="none" fill-rule="evenodd">
        <path fill="url(#a)" d="M0 0h1440v48H0z"/>
        <g fill="#FFF" filter="url(#b)" transform="translate(345 14)">
            <path d="M308.875 8.145c0-1.856 0-2.198-.024-2.59-.024-.413-.146-.623-.415-.684a1.774 1.774 0 0 0-.438-.047c-.12 0-.194-.025-.194-.124 0-.072.097-.096.292-.096.462 0 1.23.035 1.583.035.303 0 1.021-.035 1.485-.035.158 0 .255.024.255.096 0 .1-.072.124-.195.124-.122 0-.22.011-.364.035-.33.061-.427.269-.451.696-.025.392-.025.734-.025 2.59v2.148c0 1.185 0 2.149.049 2.674.036.33.121.55.487.598.17.025.438.05.621.05.134 0 .195.035.195.096 0 .086-.097.124-.232.124-.804 0-1.57-.038-1.898-.038-.28 0-1.048.038-1.535.038-.158 0-.243-.038-.243-.124 0-.06.05-.096.195-.096.183 0 .328-.025.439-.05.243-.047.316-.257.352-.61.061-.513.061-1.477.061-2.662V8.145zM315.167 12.418c.024.805.159 1.05.365 1.125.183.06.39.072.56.072.123 0 .182.05.182.11 0 .085-.097.11-.243.11-.694 0-1.192-.038-1.388-.038-.097 0-.608.038-1.155.038-.147 0-.245-.013-.245-.11 0-.06.074-.11.171-.11.146 0 .341-.012.487-.05.28-.071.316-.354.329-1.258l.097-6.153c0-.207.073-.353.182-.353.134 0 .28.157.464.342.133.132 1.74 1.782 3.299 3.307.73.722 2.154 2.187 2.313 2.333h.048l-.11-4.615c-.012-.634-.11-.82-.364-.916-.159-.062-.415-.062-.56-.062-.135 0-.172-.047-.172-.108 0-.086.11-.1.269-.1.56 0 1.132.026 1.363.026.122 0 .524-.025 1.048-.025.145 0 .242.013.242.099 0 .06-.06.108-.181.108-.11 0-.196 0-.329.038-.293.085-.379.267-.39.855l-.122 6.543c0 .234-.085.33-.17.33-.183 0-.329-.11-.439-.22-.67-.621-2.009-1.904-3.129-2.99-1.168-1.125-2.301-2.383-2.507-2.565h-.037l.122 4.237zM326.011 12.418c.024.805.159 1.05.365 1.125.183.06.39.072.56.072.123 0 .182.05.182.11 0 .085-.097.11-.243.11-.694 0-1.194-.038-1.388-.038-.097 0-.608.038-1.156.038-.146 0-.244-.013-.244-.11 0-.06.074-.11.171-.11.146 0 .34-.012.486-.05.282-.071.317-.354.33-1.258l.097-6.153c0-.207.074-.353.182-.353.134 0 .28.157.463.342.134.132 1.741 1.782 3.3 3.307.73.722 2.154 2.187 2.313 2.333h.048l-.11-4.615c-.012-.634-.11-.82-.365-.916-.158-.062-.414-.062-.56-.062-.133 0-.17-.047-.17-.108 0-.086.11-.1.268-.1.56 0 1.131.026 1.363.026.122 0 .524-.025 1.047-.025.147 0 .243.013.243.099 0 .06-.06.108-.181.108-.11 0-.196 0-.329.038-.293.085-.379.267-.39.855l-.122 6.543c0 .234-.085.33-.171.33-.182 0-.329-.11-.438-.22-.67-.621-2.009-1.904-3.129-2.99-1.169-1.125-2.301-2.383-2.507-2.565h-.037l.122 4.237zM342.175 10.098c0-2.295-1.376-3.713-3.105-3.713-1.193 0-2.592.635-2.592 3.2 0 2.137 1.218 3.823 3.238 3.823.755 0 2.459-.356 2.459-3.31m-7.28-.196c0-1.77 1.242-4.065 4.491-4.065 2.704 0 4.384 1.502 4.384 3.883 0 2.38-1.73 4.248-4.492 4.248-3.117 0-4.383-2.22-4.383-4.066M345.726 6.997c-.243-.573-.402-.672-.791-.77-.159-.037-.33-.037-.415-.037-.096 0-.12-.047-.12-.108 0-.086.109-.1.267-.1.572 0 1.18.026 1.559.026.266 0 .827-.025 1.363-.025.133 0 .255.025.255.099 0 .072-.073.108-.17.108-.17 0-.328.014-.415.074a.226.226 0 0 0-.109.207c0 .135.098.416.244.783l1.802 4.651h.037c.461-1.074 1.837-4.42 2.092-5.103.05-.135.098-.293.098-.378 0-.11-.048-.149-.146-.185a1.668 1.668 0 0 0-.426-.05c-.098 0-.183-.035-.183-.107 0-.074.098-.1.305-.1.536 0 1.01.026 1.144.026.183 0 .682-.025 1.01-.025.135 0 .22.025.22.099 0 .072-.061.108-.171.108-.108 0-.34-.012-.523.123-.133.097-.28.257-.56.916-.427.977-.707 1.54-1.29 2.809-.681 1.513-1.18 2.65-1.424 3.175-.27.597-.366.755-.512.755-.147 0-.232-.132-.438-.62l-2.703-6.35zM357.18 10.636c.049 0 .06-.024.049-.061l-1.011-2.602c-.013-.035-.025-.097-.048-.097-.038 0-.05.062-.062.097l-1.034 2.589c-.025.05 0 .074.037.074h2.068zm-2.289.573c-.062 0-.073.012-.098.074l-.571 1.404c-.11.255-.159.514-.159.635 0 .182.097.293.426.293h.158c.134 0 .16.05.16.11 0 .086-.063.11-.172.11-.352 0-.852-.038-1.193-.038-.11 0-.682.038-1.242.038-.134 0-.194-.024-.194-.11 0-.06.036-.11.12-.11.1 0 .22-.012.318-.012.487-.073.67-.391.889-.916l2.799-6.484c.123-.293.208-.416.317-.416.158 0 .207.099.317.33.255.574 2.044 4.776 2.726 6.35.415.94.72 1.075.914 1.112.158.024.28.036.402.036.097 0 .145.036.145.11 0 .086-.06.11-.462.11-.378 0-1.157 0-2.058-.024-.195-.014-.317-.014-.317-.086 0-.06.025-.099.135-.11.073-.012.146-.11.097-.232l-.828-2.1c-.025-.062-.06-.074-.109-.074h-2.52zM363.362 6.62l-1.594.035c-.622.012-.878.085-1.035.318-.11.146-.159.281-.183.353-.025.085-.05.134-.122.134-.073 0-.097-.06-.097-.17 0-.17.206-1.173.23-1.258.025-.135.061-.196.122-.196.085 0 .196.086.463.122.317.038.718.05 1.072.05h4.346c.34 0 .572-.026.73-.05.17-.025.255-.047.292-.047.074 0 .085.061.085.218 0 .22-.024.99-.024 1.258-.011.11-.037.17-.098.17-.085 0-.109-.047-.121-.206l-.012-.11c-.025-.268-.304-.586-1.267-.599l-1.35-.023v4.2c0 .951.011 1.77.06 2.222.036.292.097.488.414.538.147.024.39.035.549.035.12 0 .17.061.17.11 0 .072-.086.112-.208.112-.705 0-1.424-.04-1.729-.04-.243 0-.974.04-1.4.04-.133 0-.206-.04-.206-.111 0-.05.036-.11.17-.11.158 0 .292-.012.377-.036.22-.05.28-.246.317-.552.049-.438.049-1.257.049-2.209V6.62zM370.25 8.986c0-1.574 0-1.867-.012-2.198-.025-.353-.134-.474-.366-.55a1.394 1.394 0 0 0-.39-.049c-.109 0-.17-.022-.17-.12 0-.062.086-.086.256-.086.402 0 1.132.024 1.436.024.27 0 .963-.024 1.376-.024.134 0 .219.024.219.085 0 .1-.06.121-.17.121-.11 0-.195.014-.316.038-.293.048-.378.196-.402.561-.024.331-.024.624-.024 2.198v1.832c0 1.001 0 1.832.048 2.273.037.281.109.438.427.487.146.026.388.037.547.037.122 0 .171.06.171.11 0 .072-.086.11-.208.11-.705 0-1.437-.038-1.728-.038-.244 0-.974.038-1.4.038-.134 0-.207-.038-.207-.11 0-.05.036-.11.17-.11.158 0 .28-.011.378-.037.219-.05.28-.196.317-.5.048-.428.048-1.259.048-2.26V8.986zM374.801 6.997c-.243-.573-.402-.672-.79-.77-.16-.037-.33-.037-.416-.037-.096 0-.121-.047-.121-.108 0-.086.109-.1.268-.1.572 0 1.18.026 1.559.026.267 0 .827-.025 1.363-.025.134 0 .255.025.255.099 0 .072-.073.108-.17.108-.17 0-.33.014-.414.074a.226.226 0 0 0-.11.207c0 .135.097.416.244.783l1.801 4.651h.037c.463-1.074 1.839-4.42 2.094-5.103.049-.135.097-.293.097-.378 0-.11-.048-.149-.146-.185a1.668 1.668 0 0 0-.426-.05c-.097 0-.182-.035-.182-.107 0-.074.097-.1.304-.1.536 0 1.01.026 1.144.026.183 0 .682-.025 1.01-.025.134 0 .22.025.22.099 0 .072-.06.108-.171.108-.11 0-.341-.012-.523.123-.134.097-.28.257-.56.916-.426.977-.706 1.54-1.291 2.809-.681 1.513-1.18 2.65-1.423 3.175-.269.597-.367.755-.512.755-.146 0-.231-.132-.438-.62l-2.703-6.35zM384.173 8.986c0-1.574 0-1.867-.013-2.198-.024-.353-.122-.464-.463-.56a1.963 1.963 0 0 0-.425-.039c-.11 0-.182-.035-.182-.107 0-.075.085-.099.243-.099.56 0 1.242.024 1.545.024.342 0 2.716.012 2.922 0 .195-.011.365-.05.451-.06.061-.013.122-.05.17-.05.061 0 .074.05.074.099 0 .072-.062.193-.086.67-.012.11-.036.564-.061.685-.012.05-.036.171-.12.171-.074 0-.086-.05-.086-.136a.982.982 0 0 0-.073-.378c-.086-.182-.171-.328-.707-.377-.182-.025-1.46-.05-1.68-.05-.048 0-.072.038-.072.1v2.562c0 .06.011.11.072.11.243 0 1.63 0 1.876-.024.255-.026.4-.062.51-.158.086-.074.122-.135.17-.135.05 0 .086.05.086.11s-.024.232-.085.756c-.024.21-.049.623-.049.695 0 .086-.012.235-.11.235-.072 0-.097-.04-.097-.086-.012-.11-.012-.246-.036-.38-.062-.207-.195-.365-.597-.4-.194-.026-1.412-.05-1.68-.05-.049 0-.06.05-.06.11v.83c0 .354-.013 1.233 0 1.537.024.708.352.868 1.448.868.28 0 .73-.013 1.01-.134.268-.122.39-.342.464-.77.023-.11.047-.158.12-.158.086 0 .098.133.098.243 0 .232-.085.94-.146 1.148-.072.27-.171.27-.572.27-.804 0-1.448-.013-1.972-.039-.524-.011-.926-.024-1.242-.024-.121 0-.354.013-.61.013-.255.011-.522.025-.742.025-.133 0-.206-.038-.206-.11 0-.05.036-.11.17-.11.158 0 .28-.011.378-.037.219-.05.28-.245.317-.55.048-.44.048-1.258.048-2.21V8.986zM397.815 9.488c0 1.294.013 2.234.024 2.467.013.305.038.793.135.926.158.234.633.49 1.594.49 1.243 0 2.07-.245 2.8-.88.78-.672 1.024-1.783 1.024-3.04 0-1.551-.646-2.552-1.17-3.052-1.12-1.075-2.507-1.222-3.457-1.222-.243 0-.694.036-.791.086-.11.05-.146.11-.146.245-.013.414-.013 1.476-.013 2.441v1.54zm-1.52-1.343c0-1.856 0-2.198-.026-2.59-.024-.413-.121-.61-.523-.696a2.51 2.51 0 0 0-.475-.035c-.134 0-.207-.024-.207-.11s.085-.11.268-.11c.644 0 1.413.035 1.753.035.378 0 1.144-.035 1.875-.035 1.521 0 3.554 0 4.882 1.393.609.634 1.18 1.646 1.18 3.1 0 1.539-.645 2.711-1.326 3.406-.56.574-1.826 1.44-4.079 1.44-.438 0-.938-.036-1.4-.071-.463-.037-.889-.075-1.192-.075-.134 0-.402 0-.695.014-.28 0-.596.024-.84.024-.158 0-.243-.038-.243-.124 0-.06.048-.096.195-.096.183 0 .329-.025.438-.05.243-.047.304-.317.354-.67.06-.513.06-1.478.06-2.602V8.145zM408.927 9.792c0 .11.025.148.098.184.23.073.548.097.815.097.427 0 .572-.036.755-.17.329-.232.694-.685.694-1.54 0-1.465-.998-1.843-1.631-1.843-.268 0-.524.014-.633.036-.073.025-.098.063-.098.146v3.09zm-1.363-.805c0-1.575 0-1.868-.013-2.198-.024-.354-.121-.465-.462-.561a1.963 1.963 0 0 0-.425-.038c-.11 0-.183-.036-.183-.109 0-.073.084-.099.243-.099.56 0 1.24.026 1.46.026.366 0 1.34-.026 1.668-.026.682 0 1.462.061 2.033.441.304.208.755.732.755 1.429 0 .767-.437 1.451-1.486 2.296.95 1.171 1.705 2.113 2.35 2.758.598.599.974.648 1.146.684.109.024.17.024.255.024.084 0 .134.061.134.11 0 .086-.074.111-.207.111h-1.023c-.596 0-.888-.06-1.17-.21-.461-.23-.863-.72-1.46-1.525-.425-.562-.877-1.257-1.01-1.418-.06-.06-.122-.071-.194-.071l-.963-.025c-.048 0-.085.025-.085.086v.146c0 .966.012 1.77.061 2.21.037.305.085.501.414.55.158.026.39.036.523.036.085 0 .135.061.135.11 0 .073-.085.111-.22.111-.62 0-1.509-.038-1.667-.038-.208 0-.89.038-1.315.038-.134 0-.207-.038-.207-.11 0-.05.037-.11.17-.11.158 0 .28-.011.378-.036.22-.05.28-.246.316-.551.049-.44.049-1.258.049-2.21V8.987zM416.52 8.986c0-1.574 0-1.867-.011-2.198-.024-.353-.123-.464-.463-.56a1.967 1.967 0 0 0-.426-.039c-.11 0-.183-.035-.183-.107 0-.075.085-.099.244-.099.56 0 1.241.024 1.546.024.34 0 2.715.012 2.922 0 .194-.011.365-.05.45-.06.06-.013.122-.05.171-.05.06 0 .072.05.072.099 0 .072-.06.193-.086.67-.011.11-.035.564-.06.685-.012.05-.036.171-.121.171-.074 0-.085-.05-.085-.136a.982.982 0 0 0-.074-.378c-.085-.182-.17-.328-.706-.377-.183-.025-1.461-.05-1.68-.05-.049 0-.073.038-.073.1v2.562c0 .06.013.11.073.11.243 0 1.632 0 1.875-.024.255-.026.401-.062.511-.158.085-.074.122-.135.171-.135.049 0 .084.05.084.11s-.024.232-.084.756c-.025.21-.049.623-.049.695 0 .086-.013.235-.11.235-.073 0-.097-.04-.097-.086-.012-.11-.012-.246-.037-.38-.06-.207-.194-.365-.596-.4-.195-.026-1.412-.05-1.68-.05-.048 0-.06.05-.06.11v.83c0 .354-.013 1.233 0 1.537.023.708.352.868 1.447.868.28 0 .731-.013 1.011-.134.268-.122.39-.342.463-.77.024-.11.048-.158.122-.158.085 0 .096.133.096.243 0 .232-.085.94-.146 1.148-.072.27-.17.27-.572.27a41.75 41.75 0 0 1-1.972-.039c-.523-.011-.924-.024-1.241-.024-.122 0-.354.013-.609.013-.256.011-.524.025-.742.025-.134 0-.208-.038-.208-.11 0-.05.037-.11.171-.11.158 0 .28-.011.377-.037.22-.05.28-.245.317-.55.048-.44.048-1.258.048-2.21V8.986zM426.891 10.636c.048 0 .06-.024.048-.061l-1.01-2.602c-.012-.035-.025-.097-.048-.097-.037 0-.049.062-.062.097l-1.034 2.589c-.025.05 0 .074.036.074h2.07zm-2.29.573c-.06 0-.071.012-.097.074l-.572 1.404c-.109.255-.157.514-.157.635 0 .182.096.293.425.293h.158c.135 0 .159.05.159.11 0 .086-.06.11-.171.11-.352 0-.852-.038-1.192-.038-.11 0-.683.038-1.242.038-.134 0-.195-.024-.195-.11 0-.06.036-.11.121-.11.098 0 .22-.012.317-.012.487-.073.67-.391.89-.916l2.799-6.484c.121-.293.207-.416.317-.416.157 0 .206.099.317.33.255.574 2.044 4.776 2.726 6.35.414.94.718 1.075.913 1.112.159.024.28.036.401.036.099 0 .147.036.147.11 0 .086-.062.11-.463.11-.378 0-1.156 0-2.057-.024-.195-.014-.317-.014-.317-.086 0-.06.024-.099.135-.11.072-.012.145-.11.097-.232l-.829-2.1c-.024-.062-.06-.074-.11-.074h-2.52zM433.084 6.068c.024-.17.122-.267.208-.267.11 0 .182.05.329.328l2.872 5.74 2.874-5.812c.085-.17.182-.256.279-.256.086 0 .208.11.243.328l.974 6.388c.098.645.196.926.524 1.025.305.084.476.097.609.097.098 0 .171.037.171.097 0 .085-.123.124-.28.124-.268 0-1.79-.039-2.216-.063-.256-.012-.317-.061-.317-.121 0-.05.05-.086.122-.11.06-.024.085-.147.048-.44l-.596-4.482h-.037l-2.3 4.593c-.244.487-.303.584-.426.584-.135 0-.257-.206-.426-.524-.255-.477-1.108-2.063-1.23-2.356-.084-.195-.718-1.453-1.071-2.173h-.037l-.51 4.005a3.465 3.465 0 0 0-.038.488c0 .196.146.269.329.304.182.038.28.05.378.05.097 0 .17.05.17.097 0 .099-.097.123-.256.123-.45 0-.938-.038-1.132-.038-.208 0-.718.038-1.059.038-.11 0-.195-.024-.195-.123 0-.048.06-.097.171-.097.085 0 .157 0 .329-.025.291-.036.389-.452.437-.794l1.06-6.728zM443.94 13.7c-.17-.074-.207-.12-.207-.354 0-.562.049-1.21.061-1.38 0-.159.05-.268.135-.268.096 0 .108.097.108.17 0 .135.037.356.098.538.231.77 1.035 1.027 1.704 1.027.925 0 1.486-.588 1.486-1.32 0-.452-.11-.903-1.06-1.466l-.62-.367c-1.266-.744-1.68-1.44-1.68-2.356 0-1.268 1.218-2.087 2.703-2.087.694 0 1.241.096 1.522.17.096.025.146.061.146.135 0 .134-.037.428-.037 1.245 0 .22-.05.33-.135.33-.073 0-.109-.06-.109-.182 0-.098-.049-.416-.28-.683-.158-.196-.5-.489-1.193-.489-.768 0-1.461.402-1.461 1.11 0 .465.17.829 1.132 1.367l.439.245c1.412.781 1.85 1.575 1.85 2.516 0 .77-.293 1.39-1.071 1.941-.511.366-1.218.425-1.79.425-.621 0-1.278-.06-1.741-.267M459.275 9.328c-.255-.182-.535-.267-1.01-.292-.219-.012-.342-.012-.523-.012-.05 0-.074.023-.074.087v2.892c0 .806.037 1.013.426 1.173.329.133.608.146.89.146.547 0 1.472-.294 1.472-1.564 0-.756-.255-1.782-1.18-2.43zm-1.607-.976c0 .096.037.122.085.135.11.025.293.036.572.036.402 0 .67-.05.878-.231.316-.257.498-.696.498-1.294 0-.82-.474-1.895-1.522-1.895-.17 0-.279 0-.402.025-.085.024-.109.074-.109.209v3.015zm-1.46-.207c0-1.857 0-2.199-.025-2.59-.024-.414-.122-.61-.524-.695a2.518 2.518 0 0 0-.474-.036c-.134 0-.207-.025-.207-.11 0-.086.085-.111.268-.111.644 0 1.412.037 1.656.037.596 0 1.07-.037 1.485-.037 2.203 0 2.593 1.184 2.593 1.832 0 1-.572 1.6-1.242 2.138.998.342 2.216 1.208 2.216 2.637 0 1.307-1.011 2.66-3.252 2.66-.145 0-.497-.023-.851-.035-.365-.024-.73-.038-.913-.038-.133 0-.401 0-.694.014-.28 0-.596.024-.84.024-.158 0-.244-.038-.244-.123 0-.061.05-.097.195-.097.183 0 .33-.025.439-.05.243-.047.304-.317.352-.67.061-.514.061-1.48.061-2.601V8.145zM466.297 9.792c0 .11.024.148.098.184.232.073.548.097.815.097.426 0 .572-.036.755-.17.33-.232.695-.685.695-1.54 0-1.465-1-1.843-1.632-1.843-.268 0-.524.014-.633.036-.074.025-.098.063-.098.146v3.09zm-1.363-.805c0-1.575 0-1.868-.012-2.198-.025-.354-.123-.465-.463-.561a1.967 1.967 0 0 0-.426-.038c-.109 0-.182-.036-.182-.109 0-.073.085-.099.243-.099.56 0 1.242.026 1.461.026.364 0 1.34-.026 1.668-.026.681 0 1.46.061 2.033.441.304.208.754.732.754 1.429 0 .767-.437 1.451-1.485 2.296.95 1.171 1.705 2.113 2.35 2.758.596.599.973.648 1.144.684.11.024.17.024.256.024.085 0 .134.061.134.11 0 .086-.074.111-.207.111h-1.023c-.597 0-.888-.06-1.169-.21-.461-.23-.864-.72-1.46-1.525-.427-.562-.877-1.257-1.01-1.418a.252.252 0 0 0-.195-.071l-.963-.025c-.048 0-.085.025-.085.086v.146c0 .966.013 1.77.061 2.21.037.305.085.501.415.55.158.026.389.036.523.036.085 0 .134.061.134.11 0 .073-.085.111-.22.111-.62 0-1.509-.038-1.667-.038-.207 0-.89.038-1.314.038-.135 0-.208-.038-.208-.11 0-.05.036-.11.17-.11.158 0 .28-.011.378-.036.219-.05.28-.246.317-.551.048-.44.048-1.258.048-2.21V8.987zM473.89 8.986c0-1.574 0-1.867-.01-2.198-.026-.353-.135-.474-.367-.55a1.394 1.394 0 0 0-.39-.049c-.109 0-.17-.022-.17-.12 0-.062.085-.086.255-.086.402 0 1.133.024 1.437.024.269 0 .963-.024 1.376-.024.133 0 .218.024.218.085 0 .1-.06.121-.17.121-.109 0-.194.014-.315.038-.293.048-.378.196-.402.561-.025.331-.025.624-.025 2.198v1.832c0 1.001 0 1.832.049 2.273.036.281.109.438.427.487.146.026.388.037.547.037.121 0 .17.06.17.11 0 .072-.085.11-.207.11-.705 0-1.437-.038-1.729-.038-.243 0-.974.038-1.4.038-.133 0-.206-.038-.206-.11 0-.05.036-.11.17-.11.158 0 .28-.011.377-.037.22-.05.28-.196.317-.5.049-.428.049-1.259.049-2.26V8.986zM480.123 12.418c.024.805.158 1.05.365 1.125.182.06.39.072.56.072.122 0 .182.05.182.11 0 .085-.098.11-.244.11-.693 0-1.192-.038-1.387-.038-.098 0-.609.038-1.156.038-.147 0-.244-.013-.244-.11 0-.06.073-.11.17-.11.147 0 .34-.012.488-.05.28-.071.316-.354.328-1.258l.098-6.153c0-.207.073-.353.181-.353.135 0 .28.157.464.342.134.132 1.74 1.782 3.3 3.307.73.722 2.154 2.187 2.312 2.333h.049l-.11-4.615c-.012-.634-.11-.82-.366-.916-.157-.062-.413-.062-.56-.062-.133 0-.17-.047-.17-.108 0-.086.11-.1.268-.1.56 0 1.132.026 1.364.026.121 0 .523-.025 1.047-.025.146 0 .242.013.242.099 0 .06-.06.108-.181.108-.11 0-.195 0-.328.038-.293.085-.38.267-.391.855l-.122 6.543c0 .234-.085.33-.17.33-.182 0-.33-.11-.438-.22a251.67 251.67 0 0 1-3.13-2.99c-1.167-1.125-2.3-2.383-2.506-2.565H480l.122 4.237zM496.712 13.138c0 .28 0 .295-.134.366-.718.356-1.778.464-2.618.464-2.629 0-4.953-1.194-4.953-4.066 0-1.66.887-2.82 1.873-3.393 1.023-.598 1.986-.673 2.886-.673.743 0 1.68.122 1.899.172.22.036.597.097.852.11.122.01.147.049.147.121 0 .124-.074.403-.074 1.71 0 .158-.06.232-.145.232-.074 0-.098-.05-.11-.135-.025-.232-.086-.56-.366-.855-.316-.328-1.12-.793-2.325-.793-.584 0-1.327.012-2.07.611-.595.488-.986 1.257-.986 2.526 0 2.235 1.437 3.86 3.726 3.86.28 0 .5 0 .755-.109.158-.075.206-.184.206-.366v-.955c0-.51 0-.902-.011-1.219-.013-.356-.122-.465-.464-.562a1.845 1.845 0 0 0-.414-.037c-.096 0-.17-.05-.17-.11 0-.086.085-.096.232-.096.56 0 1.327.024 1.643.024.341 0 .901-.024 1.254-.024.146 0 .22.01.22.097 0 .06-.063.109-.135.109-.085 0-.17.012-.292.037-.291.05-.402.195-.414.562-.012.317-.012.732-.012 1.244v1.148zM507.786 10.111c.061 0 .073-.038.061-.073l-1.096-3.005c-.012-.05-.024-.11-.06-.11-.037 0-.061.06-.074.11l-1.12 2.993c-.011.047 0 .085.05.085h2.24zm-2.484.61c-.06 0-.085.025-.11.097l-.656 1.673c-.123.305-.183.6-.183.746 0 .22.11.378.487.378h.183c.146 0 .182.025.182.096 0 .1-.073.124-.207.124-.39 0-.914-.038-1.29-.038-.134 0-.803.038-1.437.038-.158 0-.231-.024-.231-.124 0-.071.05-.096.146-.096.11 0 .28-.012.378-.025.56-.072.791-.488 1.035-1.099l3.055-7.57c.146-.353.22-.489.34-.489.11 0 .183.11.305.392.292.67 2.24 5.555 3.019 7.412.463 1.098.816 1.268 1.071 1.33.183.037.366.049.511.049.098 0 .159.011.159.096 0 .1-.11.124-.56.124-.438 0-1.327 0-2.301-.024-.218-.014-.365-.014-.365-.1 0-.071.049-.096.17-.108.086-.024.17-.135.11-.28l-.974-2.516c-.024-.06-.061-.086-.122-.086h-2.715zM517.12 5.8c-.146-.452-.28-.744-.45-.868-.135-.085-.379-.108-.488-.108-.122 0-.195-.013-.195-.11 0-.086.098-.11.269-.11.631 0 1.302.035 1.411.035.11 0 .646-.035 1.351-.035.171 0 .256.035.256.11 0 .097-.096.11-.22.11-.096 0-.219 0-.304.047-.109.05-.133.136-.133.27 0 .16.122.574.268 1.123.207.806 1.339 4.506 1.558 5.19h.037l2.36-6.374c.123-.342.208-.44.306-.44.133 0 .194.184.353.573l2.532 6.156h.037c.218-.819 1.192-4.043 1.62-5.472.083-.279.12-.535.12-.706 0-.196-.11-.367-.585-.367-.12 0-.206-.038-.206-.11 0-.086.097-.11.28-.11.645 0 1.156.035 1.266.035.086 0 .608-.035 1.01-.035.134 0 .22.024.22.096 0 .086-.061.124-.17.124a1.31 1.31 0 0 0-.426.06c-.293.111-.427.6-.683 1.294-.56 1.54-1.839 5.423-2.435 7.254-.133.428-.194.574-.352.574-.122 0-.195-.146-.377-.598l-2.533-6.132h-.025c-.23.623-1.85 4.96-2.374 6.083-.23.5-.292.647-.437.647-.122 0-.17-.135-.28-.453L517.118 5.8zM537.885 10.098c0-2.295-1.376-3.713-3.105-3.713-1.193 0-2.593.635-2.593 3.2 0 2.137 1.217 3.823 3.238 3.823.755 0 2.46-.356 2.46-3.31m-7.28-.196c0-1.77 1.24-4.065 4.491-4.065 2.704 0 4.383 1.502 4.383 3.883 0 2.38-1.729 4.248-4.492 4.248-3.117 0-4.383-2.22-4.383-4.066M543.445 9.792c0 .11.024.148.098.184.23.073.547.097.814.097.427 0 .573-.036.756-.17.328-.232.693-.685.693-1.54 0-1.465-.998-1.843-1.63-1.843-.27 0-.524.014-.633.036-.074.025-.098.063-.098.146v3.09zm-1.363-.805c0-1.575 0-1.868-.012-2.198-.025-.354-.123-.465-.464-.561a1.967 1.967 0 0 0-.426-.038c-.108 0-.183-.036-.183-.109 0-.073.085-.099.244-.099.56 0 1.241.026 1.462.026.364 0 1.338-.026 1.668-.026.68 0 1.46.061 2.031.441.305.208.754.732.754 1.429 0 .767-.435 1.451-1.484 2.296.951 1.171 1.704 2.113 2.349 2.758.598.599.975.648 1.145.684.11.024.171.024.256.024.085 0 .134.061.134.11 0 .086-.073.111-.207.111h-1.023c-.597 0-.888-.06-1.17-.21-.46-.23-.864-.72-1.459-1.525-.426-.562-.877-1.257-1.01-1.418a.25.25 0 0 0-.196-.071l-.962-.025c-.048 0-.084.025-.084.086v.146c0 .966.011 1.77.06 2.21.038.305.086.501.414.55.159.026.39.036.524.036.085 0 .133.061.133.11 0 .073-.085.111-.22.111-.62 0-1.508-.038-1.666-.038-.208 0-.889.038-1.315.038-.134 0-.207-.038-.207-.11 0-.05.037-.11.17-.11.159 0 .28-.011.377-.036.22-.05.28-.246.318-.551.049-.44.049-1.258.049-2.21V8.987zM552.475 10.818c0 1.332 0 1.992.231 2.186.183.158.597.22 1.424.22.572 0 .987-.012 1.255-.293.133-.135.243-.428.268-.623.01-.097.036-.158.121-.158.073 0 .098.11.098.231 0 .122-.073.892-.159 1.197-.072.233-.12.282-.681.282-.767 0-1.387-.013-1.924-.039-.535-.01-.986-.024-1.424-.024-.122 0-.353.014-.609.014-.255.01-.524.024-.742.024-.134 0-.208-.038-.208-.11 0-.05.037-.11.171-.11.158 0 .28-.011.378-.037.219-.048.28-.244.316-.55.048-.44.048-1.258.048-2.21V8.986c0-1.574 0-1.867-.011-2.198-.024-.353-.123-.463-.463-.56a1.365 1.365 0 0 0-.354-.039c-.12 0-.182-.035-.182-.107 0-.075.073-.099.232-.099.5 0 1.18.024 1.472.024.256 0 1.133-.024 1.547-.024.158 0 .231.024.231.1 0 .07-.06.106-.195.106-.122 0-.292.014-.414.04-.292.047-.377.195-.402.56-.024.33-.024.623-.024 2.197v1.832zM559.802 10.134c0 1.1.012 1.895.024 2.101.011.257.037.621.122.732.134.196.56.416 1.4.416.973 0 1.692-.17 2.337-.709.694-.574.913-1.501.913-2.576 0-1.319-.523-2.174-.998-2.587-.986-.88-2.155-.99-2.994-.99-.22 0-.573.024-.658.074-.098.036-.134.085-.134.206-.012.354-.012 1.209-.012 2.028v1.305zm-1.437-1.147c0-1.575 0-1.868-.011-2.198-.025-.354-.123-.465-.463-.562a1.974 1.974 0 0 0-.426-.038c-.11 0-.183-.035-.183-.108 0-.074.085-.099.243-.099.56 0 1.242.025 1.545.025.33 0 1.097-.025 1.743-.025 1.339 0 3.14 0 4.309 1.187.535.538 1.01 1.404 1.01 2.637 0 1.307-.56 2.294-1.169 2.893-.486.488-1.619 1.222-3.591 1.222-.39 0-.852-.038-1.278-.062a13.402 13.402 0 0 0-1.084-.062c-.121 0-.353.013-.61.013-.253.011-.522.025-.74.025-.135 0-.208-.038-.208-.11 0-.05.037-.11.171-.11.157 0 .28-.011.378-.037.218-.05.279-.245.316-.55.048-.44.048-1.258.048-2.21V8.987zM579.458 10.098c0-2.295-1.376-3.713-3.105-3.713-1.192 0-2.592.635-2.592 3.2 0 2.137 1.217 3.823 3.237 3.823.755 0 2.46-.356 2.46-3.31m-7.28-.196c0-1.77 1.242-4.065 4.49-4.065 2.705 0 4.385 1.502 4.385 3.883 0 2.38-1.729 4.248-4.492 4.248-3.116 0-4.383-2.22-4.383-4.066M585.091 10.856c0 .999.013 1.733.061 2.172.036.305.11.5.426.55.146.026.378.037.524.037.133 0 .182.06.182.11 0 .072-.073.11-.231.11-.681 0-1.436-.038-1.717-.038-.28 0-.962.038-1.364.038-.145 0-.218-.025-.218-.11 0-.05.036-.11.159-.11.157 0 .279-.011.376-.037.22-.05.28-.245.316-.55.05-.44.05-1.209.05-2.21V8.987c0-1.575 0-1.868-.013-2.198-.023-.354-.122-.475-.462-.562a1.967 1.967 0 0 0-.426-.038c-.097 0-.182-.035-.182-.108 0-.074.085-.098.255-.098.547 0 1.23.024 1.533.024.414 0 2.789.012 3.045 0 .195-.011.328-.024.437-.05.061-.01.11-.06.171-.06.036 0 .073.05.073.099 0 .073-.048.193-.085.464-.013.11-.037.72-.05.841-.012.085-.035.21-.109.21-.072 0-.134-.05-.134-.172 0-.085.013-.245-.06-.392-.073-.146-.281-.305-.682-.316l-1.778-.036c-.06 0-.097.024-.097.146v2.515c0 .061.013.097.073.097l1.498-.01c.182 0 .328 0 .487-.014.195-.012.353-.05.45-.182.06-.061.086-.11.147-.11.035 0 .06.035.06.096 0 .063-.05.342-.085.673-.025.207-.036.684-.036.755 0 .086-.014.232-.123.232-.06 0-.098-.072-.098-.146a.967.967 0 0 0-.072-.317.545.545 0 0 0-.511-.378c-.269-.025-1.535-.036-1.717-.036-.048 0-.073.01-.073.085v.855zM595.666 8.145c0-1.856 0-2.198-.024-2.59-.024-.413-.123-.61-.523-.696a2.531 2.531 0 0 0-.476-.035c-.133 0-.206-.025-.206-.11 0-.086.085-.11.267-.11.328 0 .683.011.987.011.317.013.597.024.766.024.389 0 2.814 0 3.044-.011.231-.024.427-.05.523-.074.062-.011.133-.047.195-.047s.073.047.073.108c0 .085-.06.232-.098.794-.01.123-.037.659-.06.805-.011.061-.036.135-.121.135-.085 0-.11-.06-.11-.17 0-.086-.011-.293-.073-.44-.085-.22-.207-.366-.816-.438-.207-.025-1.485-.05-1.728-.05-.062 0-.085.037-.085.122v3.089c0 .086.011.136.085.136.269 0 1.668 0 1.947-.026.291-.024.475-.06.584-.184.085-.097.135-.158.196-.158.048 0 .085.025.085.097 0 .075-.05.27-.098.892-.012.245-.048.732-.048.819 0 .096 0 .231-.11.231-.084 0-.11-.05-.11-.11-.012-.121-.012-.28-.048-.44-.06-.245-.23-.427-.682-.476-.232-.024-1.437-.036-1.729-.036-.06 0-.072.05-.072.121v.965c0 .415-.013 1.54 0 1.893.023.841.218 1.025 1.459 1.025.318 0 .829 0 1.146-.146.317-.145.463-.402.548-.904.024-.133.048-.182.133-.182.096 0 .096.096.096.22 0 .28-.096 1.11-.156 1.355-.086.317-.195.317-.658.317-.914 0-1.583-.025-2.106-.036-.523-.025-.9-.038-1.266-.038-.134 0-.402 0-.695.013-.28 0-.595.025-.838.025-.16 0-.244-.038-.244-.124 0-.06.048-.096.194-.096.183 0 .329-.025.439-.05.243-.047.303-.317.353-.67.06-.513.06-1.478.06-2.602V8.145zM604.15 12.418c.023.805.158 1.05.363 1.125.185.06.39.072.562.072.122 0 .183.05.183.11 0 .085-.1.11-.245.11-.694 0-1.192-.038-1.387-.038-.097 0-.61.038-1.157.038-.146 0-.244-.013-.244-.11 0-.06.074-.11.172-.11.146 0 .34-.012.485-.05.282-.071.317-.354.33-1.258l.098-6.153c0-.207.072-.353.182-.353.134 0 .28.157.462.342.134.132 1.741 1.782 3.3 3.307.73.722 2.155 2.187 2.313 2.333h.05l-.11-4.615c-.013-.634-.111-.82-.366-.916-.159-.062-.415-.062-.562-.062-.133 0-.168-.047-.168-.108 0-.086.109-.1.267-.1.56 0 1.133.026 1.363.026.122 0 .524-.025 1.047-.025.147 0 .244.013.244.099 0 .06-.062.108-.182.108-.11 0-.195 0-.329.038-.293.085-.379.267-.389.855l-.124 6.543c0 .234-.084.33-.169.33-.183 0-.328-.11-.439-.22a251.67 251.67 0 0 1-3.128-2.99c-1.168-1.125-2.302-2.383-2.508-2.565h-.035l.12 4.237zM615.76 10.134c0 1.1.012 1.895.025 2.101.011.257.036.621.121.732.134.196.56.416 1.4.416.973 0 1.692-.17 2.338-.709.692-.574.913-1.501.913-2.576 0-1.319-.524-2.174-.998-2.587-.987-.88-2.155-.99-2.996-.99-.218 0-.572.024-.657.074-.097.036-.134.085-.134.206-.011.354-.011 1.209-.011 2.028v1.305zm-1.436-1.147c0-1.575 0-1.868-.013-2.198-.024-.354-.122-.465-.462-.562a1.967 1.967 0 0 0-.426-.038c-.11 0-.182-.035-.182-.108 0-.074.085-.099.243-.099.56 0 1.242.025 1.545.025.328 0 1.096-.025 1.741-.025 1.34 0 3.142 0 4.31 1.187.536.538 1.01 1.404 1.01 2.637 0 1.307-.56 2.294-1.169 2.893-.487.488-1.618 1.222-3.59 1.222-.39 0-.853-.038-1.279-.062a13.43 13.43 0 0 0-1.083-.062c-.121 0-.353.013-.61.013-.255.011-.523.025-.74.025-.135 0-.21-.038-.21-.11 0-.05.037-.11.173-.11.157 0 .279-.011.377-.037.219-.05.279-.245.315-.55.05-.44.05-1.258.05-2.21V8.987zM626.36 10.818c0 1.332 0 1.992.231 2.186.183.158.597.22 1.424.22.573 0 .988-.012 1.254-.293.134-.135.244-.428.27-.623.01-.097.035-.158.12-.158.074 0 .099.11.099.231 0 .122-.074.892-.16 1.197-.072.233-.12.282-.68.282-.768 0-1.389-.013-1.925-.039-.535-.01-.987-.024-1.423-.024-.123 0-.354.014-.61.014-.255.01-.524.024-.742.024-.133 0-.208-.038-.208-.11 0-.05.037-.11.171-.11.158 0 .28-.011.378-.037.218-.048.28-.244.316-.55.048-.44.048-1.258.048-2.21V8.986c0-1.574 0-1.867-.011-2.198-.024-.353-.122-.463-.463-.56a1.365 1.365 0 0 0-.354-.039c-.12 0-.181-.035-.181-.107 0-.075.072-.099.23-.099.5 0 1.181.024 1.474.024.255 0 1.133-.024 1.545-.024.158 0 .232.024.232.1 0 .07-.06.106-.195.106-.122 0-.292.014-.414.04-.293.047-.378.195-.402.56-.024.33-.024.623-.024 2.197v1.832zM632.25 8.986c0-1.574 0-1.867-.012-2.198-.024-.353-.121-.464-.463-.56a1.967 1.967 0 0 0-.426-.039c-.109 0-.182-.035-.182-.107 0-.075.085-.099.244-.099.56 0 1.24.024 1.545.024.341 0 2.715.012 2.922 0 .194-.011.367-.05.45-.06.061-.013.122-.05.17-.05.062 0 .074.05.074.099 0 .072-.061.193-.086.67-.01.11-.036.564-.06.685-.011.05-.037.171-.122.171-.073 0-.085-.05-.085-.136a1 1 0 0 0-.072-.378c-.087-.182-.171-.328-.708-.377-.182-.025-1.46-.05-1.68-.05-.05 0-.072.038-.072.1v2.562c0 .06.012.11.072.11.244 0 1.632 0 1.875-.024.257-.026.403-.062.513-.158.084-.074.12-.135.169-.135.05 0 .085.05.085.11s-.023.232-.085.756c-.023.21-.048.623-.048.695 0 .086-.013.235-.11.235-.073 0-.098-.04-.098-.086-.012-.11-.012-.246-.036-.38-.062-.207-.194-.365-.596-.4-.195-.026-1.413-.05-1.68-.05-.049 0-.061.05-.061.11v.83c0 .354-.013 1.233 0 1.537.023.708.353.868 1.45.868.28 0 .729-.013 1.01-.134.268-.122.388-.342.462-.77.024-.11.048-.158.12-.158.086 0 .098.133.098.243 0 .232-.085.94-.146 1.148-.072.27-.17.27-.572.27-.803 0-1.447-.013-1.97-.039-.526-.011-.927-.024-1.244-.024-.121 0-.352.013-.608.013-.257.011-.524.025-.742.025-.134 0-.208-.038-.208-.11 0-.05.036-.11.17-.11.158 0 .28-.011.379-.037.218-.05.279-.245.316-.55.048-.44.048-1.258.048-2.21V8.986zM639.285 13.7c-.171-.074-.208-.12-.208-.354 0-.562.048-1.21.06-1.38 0-.159.05-.268.134-.268.098 0 .11.097.11.17 0 .135.037.356.098.538.23.77 1.035 1.027 1.704 1.027.925 0 1.485-.588 1.485-1.32 0-.452-.109-.903-1.059-1.466l-.62-.367c-1.267-.744-1.68-1.44-1.68-2.356 0-1.268 1.217-2.087 2.702-2.087.694 0 1.242.096 1.522.17.097.025.146.061.146.135 0 .134-.037.428-.037 1.245 0 .22-.048.33-.133.33-.074 0-.11-.06-.11-.182 0-.098-.048-.416-.28-.683-.159-.196-.499-.489-1.193-.489-.767 0-1.462.402-1.462 1.11 0 .465.171.829 1.134 1.367l.439.245c1.411.781 1.849 1.575 1.849 2.516 0 .77-.292 1.39-1.072 1.941-.51.366-1.216.425-1.788.425-.621 0-1.28-.06-1.741-.267M646.464 13.7c-.168-.074-.206-.12-.206-.354 0-.562.048-1.21.06-1.38 0-.159.049-.268.135-.268.096 0 .11.097.11.17 0 .135.036.356.097.538.23.77 1.033 1.027 1.703 1.027.927 0 1.486-.588 1.486-1.32 0-.452-.109-.903-1.06-1.466l-.62-.367c-1.266-.744-1.68-1.44-1.68-2.356 0-1.268 1.218-2.087 2.703-2.087.694 0 1.242.096 1.521.17.098.025.147.061.147.135 0 .134-.037.428-.037 1.245 0 .22-.048.33-.133.33-.075 0-.11-.06-.11-.182 0-.098-.05-.416-.28-.683-.159-.196-.5-.489-1.194-.489-.766 0-1.46.402-1.46 1.11 0 .465.17.829 1.133 1.367l.437.245c1.413.781 1.85 1.575 1.85 2.516 0 .77-.291 1.39-1.07 1.941-.512.366-1.217.425-1.79.425-.622 0-1.279-.06-1.742-.267M658.733 8.145c0-1.856 0-2.198-.024-2.59-.025-.413-.123-.61-.525-.696a2.51 2.51 0 0 0-.474-.035c-.134 0-.206-.025-.206-.11 0-.086.085-.11.267-.11.645 0 1.412.035 1.752.035.5 0 1.206-.035 1.767-.035 1.522 0 2.068.512 2.264.697.268.254.61.804.61 1.451 0 1.735-1.267 2.954-2.997 2.954-.061 0-.194 0-.255-.01-.06-.012-.145-.026-.145-.111 0-.097.085-.135.339-.135.682 0 1.632-.767 1.632-2.014 0-.403-.037-1.222-.719-1.831a1.802 1.802 0 0 0-1.216-.477c-.183 0-.367.014-.475.05-.062.024-.097.098-.097.23v4.885c0 1.124 0 2.089.06 2.613.037.342.11.612.476.659.169.025.437.05.62.05.134 0 .194.035.194.096 0 .086-.096.124-.23.124-.804 0-1.572-.038-1.887-.038-.28 0-1.048.038-1.534.038-.16 0-.244-.038-.244-.124 0-.06.049-.096.195-.096.182 0 .328-.025.437-.05.245-.047.305-.317.354-.67.061-.513.061-1.478.061-2.602V8.145zM673.18 10.098c0-2.295-1.375-3.713-3.104-3.713-1.193 0-2.593.635-2.593 3.2 0 2.137 1.219 3.823 3.238 3.823.755 0 2.46-.356 2.46-3.31m-7.28-.196c0-1.77 1.24-4.065 4.491-4.065 2.704 0 4.383 1.502 4.383 3.883 0 2.38-1.728 4.248-4.492 4.248-3.116 0-4.383-2.22-4.383-4.066M677.158 13.7c-.17-.074-.207-.12-.207-.354 0-.562.049-1.21.06-1.38 0-.159.05-.268.135-.268.097 0 .109.097.109.17 0 .135.036.356.098.538.231.77 1.034 1.027 1.704 1.027.925 0 1.486-.588 1.486-1.32 0-.452-.11-.903-1.06-1.466l-.622-.367c-1.264-.744-1.679-1.44-1.679-2.356 0-1.268 1.218-2.087 2.703-2.087.695 0 1.241.096 1.522.17.097.025.146.061.146.135 0 .134-.036.428-.036 1.245 0 .22-.05.33-.134.33-.074 0-.11-.06-.11-.182 0-.098-.049-.416-.28-.683-.158-.196-.5-.489-1.193-.489-.767 0-1.461.402-1.461 1.11 0 .465.171.829 1.132 1.367l.44.245c1.41.781 1.85 1.575 1.85 2.516 0 .77-.293 1.39-1.072 1.941-.511.366-1.218.425-1.79.425-.621 0-1.278-.06-1.74-.267M684.338 13.7c-.169-.074-.206-.12-.206-.354 0-.562.047-1.21.061-1.38 0-.159.048-.268.133-.268.098 0 .11.097.11.17 0 .135.036.356.097.538.231.77 1.035 1.027 1.705 1.027.925 0 1.485-.588 1.485-1.32 0-.452-.108-.903-1.06-1.466l-.62-.367c-1.265-.744-1.68-1.44-1.68-2.356 0-1.268 1.218-2.087 2.703-2.087.693 0 1.241.096 1.522.17.097.025.145.061.145.135 0 .134-.035.428-.035 1.245 0 .22-.05.33-.135.33-.073 0-.11-.06-.11-.182a1.17 1.17 0 0 0-.279-.683c-.158-.196-.5-.489-1.193-.489-.768 0-1.462.402-1.462 1.11 0 .465.172.829 1.133 1.367l.438.245c1.413.781 1.85 1.575 1.85 2.516 0 .77-.292 1.39-1.071 1.941-.512.366-1.217.425-1.789.425-.621 0-1.28-.06-1.742-.267M691.86 8.986c0-1.574 0-1.867-.012-2.198-.024-.353-.134-.474-.365-.55a1.407 1.407 0 0 0-.39-.049c-.11 0-.17-.022-.17-.12 0-.062.084-.086.254-.086.404 0 1.134.024 1.437.024.269 0 .963-.024 1.376-.024.135 0 .22.024.22.085 0 .1-.061.121-.172.121-.109 0-.194.014-.315.038-.293.048-.378.196-.402.561-.024.331-.024.624-.024 2.198v1.832c0 1.001 0 1.832.048 2.273.036.281.11.438.427.487.146.026.39.037.548.037.12 0 .17.06.17.11 0 .072-.085.11-.208.11-.705 0-1.437-.038-1.729-.038-.242 0-.972.038-1.399.038-.133 0-.207-.038-.207-.11 0-.05.036-.11.17-.11.158 0 .28-.011.379-.037.218-.05.279-.196.315-.5.049-.428.049-1.259.049-2.26V8.986zM698.81 12.21c0 .685.036.891.376 1.027.281.11.524.121.767.121.573 0 1.315-.317 1.315-1.464 0-.477-.206-1.296-1.01-1.846-.22-.158-.512-.267-.925-.267h-.463c-.037 0-.06.01-.06.074v2.356zm0-3.052c0 .085.036.099.072.11.097.025.256.036.5.036.353 0 .656-.037.839-.183.281-.22.487-.598.487-1.098 0-.697-.414-1.563-1.34-1.563-.145 0-.352 0-.461.024-.074.012-.098.061-.098.172v2.502zm-1.388-.172c0-1.575 0-1.867-.013-2.198-.023-.354-.122-.463-.462-.56a1.886 1.886 0 0 0-.426-.039c-.11 0-.182-.036-.182-.107 0-.075.085-.1.243-.1.56 0 1.242.025 1.447.025.537 0 1.242-.024 1.608-.024 1.936 0 2.277 1.001 2.277 1.552 0 .806-.596 1.427-1.206 1.819.877.28 1.973 1.025 1.973 2.247 0 1.11-.877 2.26-2.848 2.26a16.4 16.4 0 0 1-.854-.04c-.364-.01-.742-.024-.912-.024-.121 0-.353.014-.61.014-.255.01-.523.024-.74.024-.135 0-.21-.038-.21-.11 0-.05.037-.11.173-.11.157 0 .279-.012.377-.037.219-.048.279-.244.315-.55.05-.44.05-1.259.05-2.21V8.986zM705.333 8.986c0-1.574 0-1.867-.013-2.198-.024-.353-.133-.474-.365-.55a1.4 1.4 0 0 0-.39-.049c-.109 0-.17-.022-.17-.12 0-.062.086-.086.256-.086.402 0 1.132.024 1.436.024.27 0 .962-.024 1.375-.024.135 0 .22.024.22.085 0 .1-.061.121-.172.121-.108 0-.193.014-.315.038-.293.048-.377.196-.401.561-.026.331-.026.624-.026 2.198v1.832c0 1.001 0 1.832.05 2.273.037.281.109.438.426.487.146.026.39.037.548.037.122 0 .171.06.171.11 0 .072-.086.11-.21.11-.704 0-1.435-.038-1.727-.038-.243 0-.973.038-1.398.038-.135 0-.21-.038-.21-.11 0-.05.038-.11.173-.11.157 0 .279-.011.377-.037.219-.05.279-.196.315-.5.05-.428.05-1.259.05-2.26V8.986zM712.332 10.818c0 1.332 0 1.992.23 2.186.183.158.597.22 1.425.22.572 0 .987-.012 1.254-.293.133-.135.244-.428.269-.623.01-.097.036-.158.12-.158.074 0 .097.11.097.231 0 .122-.071.892-.158 1.197-.073.233-.121.282-.68.282-.768 0-1.388-.013-1.924-.039-.537-.01-.987-.024-1.424-.024-.122 0-.353.014-.61.014-.255.01-.523.024-.741.024-.135 0-.208-.038-.208-.11 0-.05.036-.11.171-.11.156 0 .28-.011.377-.037.22-.048.28-.244.316-.55.048-.44.048-1.258.048-2.21V8.986c0-1.574 0-1.867-.012-2.198-.024-.353-.121-.463-.462-.56a1.356 1.356 0 0 0-.353-.039c-.122 0-.183-.035-.183-.107 0-.075.074-.099.231-.099.5 0 1.18.024 1.475.024.254 0 1.131-.024 1.545-.024.158 0 .23.024.23.1 0 .07-.06.106-.194.106-.121 0-.291.014-.414.04-.292.047-.377.195-.401.56-.024.33-.024.623-.024 2.197v1.832zM718.22 8.986c0-1.574 0-1.867-.011-2.198-.024-.353-.134-.474-.366-.55a1.394 1.394 0 0 0-.39-.049c-.11 0-.17-.022-.17-.12 0-.062.085-.086.256-.086.402 0 1.133.024 1.436.024.269 0 .963-.024 1.375-.024.134 0 .22.024.22.085 0 .1-.06.121-.17.121-.11 0-.195.014-.318.038-.291.048-.376.196-.402.561-.023.331-.023.624-.023 2.198v1.832c0 1.001 0 1.832.049 2.273.036.281.109.438.426.487.146.026.39.037.547.037.122 0 .17.06.17.11 0 .072-.085.11-.206.11-.705 0-1.437-.038-1.729-.038-.242 0-.973.038-1.399.038-.134 0-.208-.038-.208-.11 0-.05.036-.11.171-.11.158 0 .28-.011.378-.037.219-.05.28-.196.316-.5.048-.428.048-1.259.048-2.26V8.986zM725.207 6.62l-1.595.035c-.62.012-.875.085-1.034.318-.11.146-.158.281-.183.353-.025.085-.049.134-.122.134s-.098-.06-.098-.17c0-.17.208-1.173.232-1.258.024-.135.06-.196.122-.196.085 0 .195.086.463.122.317.038.717.05 1.071.05h4.345c.341 0 .573-.026.732-.05.17-.025.255-.047.292-.047.073 0 .085.061.085.218 0 .22-.026.99-.026 1.258-.01.11-.035.17-.096.17-.085 0-.11-.047-.122-.206l-.013-.11c-.023-.268-.303-.586-1.265-.599l-1.352-.023v4.2c0 .951.014 1.77.062 2.222.035.292.096.488.413.538.146.024.39.035.55.035.12 0 .17.061.17.11 0 .072-.086.112-.21.112-.704 0-1.423-.04-1.727-.04-.244 0-.974.04-1.4.04-.133 0-.207-.04-.207-.111 0-.05.037-.11.171-.11.158 0 .29-.012.377-.036.22-.05.28-.246.316-.552.05-.438.05-1.257.05-2.209V6.62zM732.095 8.986c0-1.574 0-1.867-.012-2.198-.023-.353-.134-.474-.366-.55a1.4 1.4 0 0 0-.39-.049c-.11 0-.17-.022-.17-.12 0-.062.086-.086.256-.086.402 0 1.134.024 1.437.024.269 0 .962-.024 1.376-.024.134 0 .218.024.218.085 0 .1-.06.121-.17.121-.11 0-.194.014-.316.038-.293.048-.378.196-.402.561-.024.331-.024.624-.024 2.198v1.832c0 1.001 0 1.832.048 2.273.036.281.11.438.426.487.146.026.39.037.548.037.122 0 .171.06.171.11 0 .072-.086.11-.208.11-.705 0-1.438-.038-1.728-.038-.242 0-.974.038-1.399.038-.134 0-.208-.038-.208-.11 0-.05.036-.11.171-.11.158 0 .28-.011.377-.037.22-.05.28-.196.316-.5.05-.428.05-1.259.05-2.26V8.986zM737.656 8.986c0-1.574 0-1.867-.011-2.198-.024-.353-.122-.464-.463-.56a1.967 1.967 0 0 0-.426-.039c-.11 0-.183-.035-.183-.107 0-.075.085-.099.245-.099.56 0 1.24.024 1.545.024.34 0 2.715.012 2.922 0 .194-.011.366-.05.451-.06.06-.013.12-.05.169-.05.062 0 .073.05.073.099 0 .072-.06.193-.086.67-.01.11-.035.564-.06.685-.011.05-.036.171-.121.171-.074 0-.085-.05-.085-.136a1 1 0 0 0-.073-.378c-.086-.182-.17-.328-.707-.377-.183-.025-1.46-.05-1.68-.05-.049 0-.073.038-.073.1v2.562c0 .06.013.11.072.11.244 0 1.633 0 1.876-.024.256-.026.402-.062.512-.158.084-.074.121-.135.17-.135.049 0 .084.05.084.11s-.023.232-.085.756c-.023.21-.048.623-.048.695 0 .086-.013.235-.11.235-.073 0-.097-.04-.097-.086-.012-.11-.012-.246-.037-.38-.062-.207-.194-.365-.596-.4-.194-.026-1.412-.05-1.679-.05-.05 0-.062.05-.062.11v.83c0 .354-.012 1.233 0 1.537.024.708.353.868 1.45.868.28 0 .729-.013 1.01-.134.268-.122.389-.342.462-.77.024-.11.048-.158.122-.158.086 0 .096.133.096.243 0 .232-.085.94-.146 1.148-.072.27-.17.27-.572.27-.802 0-1.448-.013-1.97-.039-.525-.011-.926-.024-1.243-.024-.122 0-.353.013-.609.013-.255.011-.524.025-.742.025-.133 0-.208-.038-.208-.11 0-.05.036-.11.171-.11.159 0 .28-.011.378-.037.218-.05.28-.245.315-.55.05-.44.05-1.258.05-2.21V8.986zM744.69 13.7c-.169-.074-.207-.12-.207-.354 0-.562.049-1.21.062-1.38 0-.159.049-.268.134-.268.097 0 .109.097.109.17 0 .135.036.356.097.538.231.77 1.035 1.027 1.705 1.027.924 0 1.485-.588 1.485-1.32 0-.452-.11-.903-1.06-1.466l-.62-.367c-1.266-.744-1.68-1.44-1.68-2.356 0-1.268 1.218-2.087 2.703-2.087.694 0 1.242.096 1.522.17.096.025.146.061.146.135 0 .134-.037.428-.037 1.245 0 .22-.048.33-.133.33-.074 0-.11-.06-.11-.182a1.17 1.17 0 0 0-.28-.683c-.16-.196-.5-.489-1.194-.489-.766 0-1.461.402-1.461 1.11 0 .465.172.829 1.133 1.367l.438.245c1.412.781 1.85 1.575 1.85 2.516 0 .77-.291 1.39-1.071 1.941-.511.366-1.217.425-1.789.425-.62 0-1.279-.06-1.742-.267"/>
            <g>
                <path d="M9.826.072c.629.084 1.308.18 2.037.29.517.097.777.23.777.398 0 .121-.118.205-.352.253-.358.12-.537.217-.537.29v2.318h2.351c.53-.736.895-1.171 1.093-1.303a.206.206 0 0 1 .112-.037c.16.048.431.242.814.58.53.46.82.784.87.978 0 .169-.044.265-.129.29h-5.11v3.133h1.98c.494-.666.834-1.057 1.02-1.178a.377.377 0 0 1 .13-.018c.146.035.393.205.739.508.482.433.752.74.815.923 0 .17-.05.266-.148.29h-4.537v3.531h2.556c.567-.798.956-1.268 1.165-1.413a.236.236 0 0 1 .13-.035c.186.048.481.246.89.595.567.508.882.864.944 1.07 0 .17-.044.267-.13.29h-5.555v.271c.037 2.1.067 3.572.092 4.418 0 .325-.425.49-1.277.49-.432 0-.647-.126-.647-.38.037-.725.06-2.258.073-4.6V1.847A27.279 27.279 0 0 0 9.826.072M.772 3.496c.418.07 1.759.12 4.018.143h1.296l-.02-.579C6.042 1.841 5.98.87 5.882.144 7.82.398 8.79.64 8.79.87c0 .143-.167.253-.5.325-.198.12-.328.249-.389.38L7.882 8.62c-.37 4.346-2.538 7.165-6.5 8.457-.025-.049-.091-.104-.203-.164 1.407-.786 2.604-1.967 3.591-3.55.445-.602.779-1.381 1-2.335-.914.495-2.166.995-3.758 1.503-.1.567-.222.85-.37.85-.124 0-.285-.265-.481-.795-.174-.521-.378-1.16-.611-1.92.407.071 1.036.11 1.888.11 1.492-.086 2.647-.238 3.462-.454.123-.713.198-1.491.223-2.337v-.27H4.845c-1.296.01-2.303.06-3.018.145a10.882 10.882 0 0 1-.296-.798c.358.06 1.506.104 3.444.127h1.148l-.037-3.06h-1.5c-1.494.013-2.666.065-3.519.162a11.428 11.428 0 0 1-.295-.795M33.916 5.071c2.173 1.531 3.259 3 3.259 4.399 0 .449-.137.756-.407.925a.931.931 0 0 1-.648.235c-.482 0-.821-.646-1.02-1.937-.27-1.413-.753-2.543-1.444-3.387a4.49 4.49 0 0 1 .26-.235M31.101.652l1.963.85h4.74c.58-.7.981-1.049 1.204-1.049.222 0 .586.217 1.092.653.382.325.574.549.574.669 0 .253-.277.525-.833.813v11.156c0 .532.265.802.796.815h1.259c.482 0 .766-.279.852-.833.173-.483.334-1.534.482-3.15h.407v2.753c0 .494.074.76.222.795.308.194.482.32.519.38a.75.75 0 0 1 .147.418c-.024.615-.66 1.019-1.907 1.212-.407.06-.87.09-1.388.09h-1.075c-1.381-.01-2.098-.645-2.147-1.9V1.938h-5l.019 5.704c0 1.955-.178 3.416-.537 4.382-.21.797-.716 1.63-1.519 2.5-1.036 1.158-2.085 1.929-3.147 2.316-.099 0-.203-.067-.314-.198a9.879 9.879 0 0 0 2.722-3.424c.604-1.098.926-2.932.962-5.503 0-2.789-.012-4.51-.036-5.162 0-.555-.02-1.189-.057-1.9M68.097 11.588c2.012 1.029 3.019 2.01 3.019 2.953 0 .399-.125.681-.37.85a.985.985 0 0 1-.612.201c-.456 0-.771-.46-.944-1.378-.247-1.012-.691-1.821-1.333-2.425l.24-.2zM64.58 9.055h3.666v-2.3H64.58v2.3zm0-2.808h3.666v-2.01H64.58v2.01zm0-2.48h3.666V1.665H64.58v2.1zM62.783.596l1.63.599h3.536c.506-.605.845-.913 1.019-.924.173.011.512.198 1.018.56.457.339.684.585.684.744 0 .107-.086.217-.258.325-.285.217-.457.362-.518.434v4.347c.074 1.679.11 2.764.11 3.258 0 .41-.326.622-.98.636-.495 0-.754-.115-.778-.346v-.705H64.58v.415c-.075.362-.42.546-1.037.546-.383 0-.612-.062-.685-.184 0-1.544.024-3.053.073-4.525V2.844c-.025-1.268-.073-2.017-.148-2.247zm-.5 10.286c1.692.205 2.567.832 2.63 1.883 0 .266-.03.477-.093.635-.148.36-.396.543-.74.543-.186 0-.445-.357-.778-1.068-.321-.739-.704-1.33-1.148-1.776a.387.387 0 0 0 .13-.217zm-3.925.09c1.852.327 2.778.567 2.778.726 0 .203-.334.421-1 .652v1.845c0 .543.301.834.907.87h3.37c.69-.013 1.166-.223 1.425-.635.185-.289.414-.953.686-1.99.196.011.308.017.332.017v1.956c.013.156.137.277.372.363.258.145.388.301.388.47-.025.58-.58.96-1.666 1.14-.852.097-1.71.146-2.574.146-1.766 0-2.882-.036-3.352-.108-1.012-.062-1.518-.906-1.518-2.536v-.996c0-.929-.05-1.57-.148-1.92zm-1.425.798c.222 0 .332.006.332.018.038.348.056.9.056 1.648-.012 1.581-.623 2.384-1.833 2.407-.642 0-.988-.203-1.037-.615 0-.351.21-.711.63-1.087.345-.143.728-.465 1.148-.958.296-.34.53-.812.704-1.413zm4.146-9.96c.062 0 .173.058.334.18.679.58 1.062.966 1.148 1.16 0 .145-.05.217-.147.217h-2.815v.906c1.667.846 2.505 1.61 2.518 2.3 0 .47-.13.784-.389.94a.95.95 0 0 1-.482.11c-.235 0-.438-.29-.61-.87-.297-.809-.643-1.468-1.037-1.973v5.124c0 .314-.352.484-1.056.508-.407 0-.61-.097-.61-.29.01-1.268.023-2.62.036-4.056-.778 1.34-1.907 2.45-3.388 3.33-.063 0-.124-.065-.186-.197 1.469-1.572 2.433-3.255 2.89-5.054.098-.315.172-.573.222-.778h-.63c-.79 0-1.402.048-1.833.145a11.455 11.455 0 0 0-.26-.742c.42.083 1.117.131 2.093.145h1.11V1.178c-.05-.4-.08-.763-.092-1.088 1.543.182 2.394.405 2.555.67 0 .159-.117.272-.352.346-.332.166-.5.276-.5.325v1.485h.463c.272-.376.543-.701.815-.978.086-.085.154-.127.203-.127zM92.54 6.79h3.038V4.6H92.54v2.19zm-4.406 0h2.832V4.6h-2.87v1.25c0 .29.013.603.038.94zm-.075-2.679h3.315c.481-.7.795-1.243.944-1.63H89.54a8.627 8.627 0 0 1-1.056 1.033 5.895 5.895 0 0 1-.574.525l.148.072zm.851-4.11c1.742.493 2.612.85 2.612 1.067 0 .169-.396.302-1.185.397a5.01 5.01 0 0 1-.407.525h2.332c.556-.567.895-.867 1.018-.904.16 0 .525.224 1.093.67.457.4.691.635.704.707 0 .121-.093.205-.278.253a2.883 2.883 0 0 1-.815.162c-.48.424-1.11.834-1.888 1.233h3.277c.47-.58.783-.876.944-.888.173.012.494.187.963.526.42.3.63.53.63.687 0 .11-.093.212-.278.308-.284.183-.457.314-.519.397v1.233c.075.483.112.798.112.941 0 .376-.31.57-.926.58-.444 0-.685-.103-.723-.308v-.325h-2.98c-.31.385-.655.722-1.038 1.013.655.64 1.148 1.285 1.482 1.938 1.038-.774 1.722-1.563 2.056-2.374 1.27.702 1.907 1.13 1.907 1.288 0 .12-.1.18-.297.18-.21.014-.414.025-.61.037-.408.216-.87.434-1.39.652a5.23 5.23 0 0 0 1.611 2.372c.716.628 1.427 1.05 2.13 1.268a1.362 1.362 0 0 1-.093.343c-.284.024-.507.134-.667.328-.099.118-.228.33-.389.632-.11.182-.222.277-.333.29-.21-.024-.61-.41-1.203-1.157-.84-1.258-1.34-2.56-1.5-3.914-.346.12-.703.237-1.074.345.358.773.536 1.534.536 2.28 0 2.356-.548 3.725-1.647 4.111a1.98 1.98 0 0 1-.74.129c-.272 0-.408-.122-.408-.364-.062-.507-.297-.863-.704-1.067a5.756 5.756 0 0 0-1.462-.49v-.218c1.16.085 2.086.134 2.777.145.383 0 .592-.79.63-2.37-1.901 1.05-4.025 1.828-6.37 2.335-.05-.037-.11-.134-.185-.29 2.642-.991 4.797-2.27 6.462-3.839-.025-.158-.05-.303-.073-.435-1.89 1.064-3.988 1.835-6.296 2.319-.05-.037-.112-.132-.185-.29 2.432-.906 4.412-2.1 5.943-3.587a2.43 2.43 0 0 0-.222-.362c-1.444 1.028-3.401 1.655-5.87 1.885a.641.641 0 0 0-.148-.29c2.505-.593 4.258-1.54 5.26-2.843h-2.334c0 .132.006.259.019.38-.075.29-.445.435-1.111.435-.334 0-.5-.093-.5-.273.023-.567.037-1.188.037-1.865v-.978a9.769 9.769 0 0 1-.852.47 1.985 1.985 0 0 0-.185-.197c1.852-1.8 2.969-3.544 3.35-5.234zm-4.814.09c1.827.361 2.742.675 2.742.942 0 .18-.328.318-.982.415-.432 1.268-.901 2.39-1.408 3.368.618.17.926.314.926.436 0 .085-.135.162-.407.235-.234.097-.352.18-.352.252v6.139c.049 1.68.074 3.248.074 4.71-.05.3-.438.47-1.167.507-.469 0-.702-.11-.702-.326.048-1.606.073-3.223.073-4.853V7.244a10.266 10.266 0 0 1-1.759 1.791c-.062-.132-.098-.211-.111-.235 1.481-2.16 2.506-5.065 3.073-8.71zM118.223 8.637c0 .422-.161.785-.48 1.088-.323.325-.699.487-1.13.487-.433 0-.81-.162-1.13-.487a1.443 1.443 0 0 1-.482-1.088c0-.421.16-.784.482-1.085.32-.328.697-.49 1.13-.49.431 0 .807.162 1.13.49.319.301.48.664.48 1.085M148.201.2a50.41 50.41 0 0 1 2.018.307c.519.084.777.212.777.38 0 .122-.11.198-.332.235-.359.132-.537.236-.537.309v10.683c.024 2.1.048 3.575.073 4.419 0 .327-.42.489-1.258.489-.432 0-.649-.127-.649-.38.037-.725.062-2.26.075-4.601V1.973A28.034 28.034 0 0 0 148.201.2zm-9.257 5.577a99.105 99.105 0 0 1-.76 3.856h4.74c.555-.592.913-.885 1.074-.885.173.01.506.221 1 .632.506.435.759.719.759.85 0 .134-.117.256-.352.363a3.43 3.43 0 0 0-.462.272c-.235 2.281-.569 3.766-1 4.454-.272.93-1.118 1.503-2.538 1.721-.222 0-.364-.134-.425-.398a1.935 1.935 0 0 0-.815-1.068 3.841 3.841 0 0 0-1.426-.617c.013-.012.038-.132.075-.36.827.19 1.629.325 2.407.397.592 0 .95-.17 1.074-.508.284-.507.574-1.962.87-4.364h-5.074c-.135.653-.216.978-.24.978-.075.218-.359.326-.852.326-.703 0-1.055-.103-1.055-.308.889-3.38 1.363-5.565 1.425-6.554.79.325 1.326.574 1.612.742h3.72V1.848h-3.832c-1.284 0-2.234.048-2.852.143a7.137 7.137 0 0 0-.24-.723c.482.083 1.543.127 3.185.127h3.5c.566-.676.95-1.015 1.147-1.015.149 0 .457.18.925.543.495.41.742.694.742.852 0 .108-.093.223-.278.343-.125.073-.315.194-.574.362v2.446c.075.554.11 1.044.11 1.466 0 .349-.413.549-1.24.597-.394-.011-.592-.145-.592-.397v-.815h-3.758zM171.403 11.208c.37 1.015 1.042 1.865 2.019 2.554.703-.772 1.183-1.625 1.443-2.554h-3.462zm4.35-1.23c.124 0 .415.17.871.507.334.325.506.513.519.56 0 .097-.031.159-.093.183-.21.084-.327.156-.351.218a7.543 7.543 0 0 1-2.094 3.022c.149.06.285.122.409.182.765.327 1.986.489 3.666.489a2.569 2.569 0 0 1-.057.29c-.16 0-.345.191-.554.578-.05.28-.093.531-.13.762-.05.181-.154.271-.315.271-1.383-.073-2.752-.66-4.11-1.756-1.346.833-3.031 1.413-5.056 1.738a1.26 1.26 0 0 1-.129-.235 17.656 17.656 0 0 0 3.37-1.685c.333-.205.642-.415.926-.634-.741-.832-1.253-1.913-1.536-3.24-.507.01-.878.049-1.112.107-.136-.29-.253-.53-.351-.724.518.097 1.308.145 2.37.145h2.795c.518-.519.84-.779.962-.779zM164.183 2.3c.53.072.962.18 1.295.326.677.313 1.018.677 1.018 1.085 0 .436-.117.738-.35.906-.15.109-.36.164-.631.164-.284 0-.47-.217-.557-.652-.11-.387-.228-.678-.35-.87a6.497 6.497 0 0 0-.593-.76 1.85 1.85 0 0 0 .168-.199zm6.33-2.12c.187.048.527.308 1.019.78.48.47.722.808.722 1.013 0 .11-.16.187-.48.235.332.41.671.774 1.017 1.088.877-.894 1.414-1.763 1.61-2.609 1.286.47 1.926.774 1.926.906-.011.134-.308.211-.888.235-.507.593-1.314 1.147-2.426 1.668a8.356 8.356 0 0 0 1.575 1.085c.938-.784 1.598-1.654 1.981-2.608.283.194.764.477 1.444.853.333.203.5.349.5.433-.013.109-.099.164-.259.164a5.472 5.472 0 0 0-.685.073 9.49 9.49 0 0 1-1.352.813 6.469 6.469 0 0 1-1.185.49c1.246.628 2.667.97 4.259 1.033-.013.131-.026.245-.037.342-.1.013-.249.11-.445.29-.1.11-.222.339-.37.689-.063.23-.18.344-.352.344-.518 0-1.272-.277-2.259-.833-.124.06-.247.139-.37.235v1.178c0 .325.167.494.5.505h.555c.408 0 .715-.066.926-.198.074-.048.172-.151.296-.307h.149c.159.072.363.24.61.505.234.266.353.453.353.563 0 .422-.754.639-2.26.652-.457 0-.846-.023-1.166-.072-1.036-.013-1.568-.411-1.593-1.195V6.52h-1.333c-.024.483-.092.88-.204 1.195-.284 1.278-1.302 2.13-3.055 2.553a5.48 5.48 0 0 1-.22-.235c.53-.242.96-.64 1.294-1.195.284-.495.427-1.258.427-2.284 0-.602-.026-1.026-.076-1.268l1.686.743h1.315c.172-.204.32-.363.444-.47-1.197-.845-2.16-1.938-2.888-3.279a.497.497 0 0 1-.129.02c-1.47 1.57-3.353 2.885-5.649 3.947h2.149c.42-.447.71-.675.87-.687.16.012.456.175.889.489.383.277.573.488.573.633 0 .096-.086.187-.258.273-.286.18-.451.3-.5.36V8.51c.06.46.092.755.092.888 0 .349-.285.531-.85.542-.41 0-.624-.101-.65-.307V9.38h-2.462c-.16.857-.29 1.533-.39 2.028h2.464c.48-.532.79-.797.926-.797.16.012.444.193.85.544.446.374.667.622.667.743s-.092.223-.277.308c-.149.072-.29.15-.426.235-.198 1.63-.495 2.684-.89 3.168-.221.664-.96 1.081-2.22 1.25-.161 0-.267-.116-.315-.344a1.536 1.536 0 0 0-.611-.906 3.01 3.01 0 0 0-1.038-.525c.013-.013.038-.114.075-.307.592.168 1.172.283 1.74.345.52 0 .834-.117.945-.345.259-.339.517-1.303.777-2.898h-2.758c-.088.362-.137.544-.148.544-.063.18-.31.27-.741.27-.594 0-.888-.083-.888-.252.58-2.149.888-3.531.925-4.147.641.265 1.08.464 1.314.596h2.482V6.736h-3.426c-.778.315-1.586.599-2.426.85-.086-.058-.16-.186-.222-.38 1.469-.555 3.037-1.406 4.704-2.552 1.036-.75 2.072-1.727 3.11-2.934h-4.63c-.505.036-.875.078-1.11.128a4.358 4.358 0 0 0-.48-.87c.751.145 1.764.228 3.035.253h3.018c.642-.7 1.038-1.051 1.185-1.051zM202.53 12.876c1.987.905 2.988 1.742 3 2.515 0 .509-.087.858-.26 1.051-.173.242-.438.362-.797.362-.383 0-.628-.325-.74-.977-.345-1.209-.84-2.131-1.48-2.771l.276-.18zm-2.852-1.395h1.445V7.352h-1.445v4.129zm0-4.654h1.445v-3.73h-1.445v3.73zm-1.037 6.139c1.506.774 2.265 1.485 2.278 2.136 0 .556-.099.942-.297 1.16-.173.242-.45.362-.833.362-.247 0-.414-.302-.499-.905-.211-1.123-.531-1.98-.964-2.573l.315-.18zm-2.036-1.485h1.37V7.352h-1.37v4.129zm0-4.654h1.37v-3.73h-1.37v3.73zm-2.13 6.102c1.247.797 1.896 1.678 1.944 2.645 0 .723-.296 1.092-.888 1.103-.63 0-.951-.265-.963-.795v-1.669c0-.47-.08-.86-.24-1.174.06 0 .11-.038.147-.11zm-1.018-1.448h1.445V7.352h-1.445v4.129zm0-4.654h1.445v-3.73h-1.445v3.73zm-1.703 5.811c.209 0 .315.007.315.02.035.326.055.833.055 1.52-.013 1.86-.716 2.806-2.11 2.845-.593 0-.915-.2-.964-.599 0-.314.204-.646.61-.994.396-.17.835-.546 1.316-1.124.334-.386.592-.942.778-1.668zm1-12.583c1.63.505 2.443.82 2.443.94 0 .231-.32.375-.962.435-.248.41-.52.784-.815 1.123h9.183c.495-.664.84-1.057 1.038-1.178a.3.3 0 0 1 .11-.017c.137.037.384.21.742.525.48.435.745.73.795.888 0 .192-.037.3-.11.325h-2.352v3.73h.407c.617-.894 1.006-1.346 1.167-1.357.136 0 .406.235.815.705.406.436.641.731.703.888 0 .182-.073.277-.222.29h-2.87v4.129h.5c.544-.892.896-1.348 1.055-1.358.123 0 .37.235.741.705.358.435.567.732.63.888 0 .182-.081.277-.241.29h-13.183c-1.84.049-2.765.107-2.777.18a22.243 22.243 0 0 1-.352-.977c.246.096 1.098.182 2.555.254v-4.11c-1.63.034-2.45.096-2.463.18-.11-.254-.24-.58-.389-.979.284.097 1.235.187 2.852.273v-2.57a9.908 9.908 0 0 1-1.981 1.267 1.693 1.693 0 0 0-.314-.182c1.579-1.39 2.678-3.151 3.295-5.287zM224.936 7.532h4.61V4.888h-4.61v2.644zm0-3.114h4.61v-2.57h-4.61v2.57zM223.102.58c.679.301 1.283.573 1.814.815h4.297c.492-.52.84-.786 1.037-.797.16.01.493.193.998.542.47.338.704.587.704.743 0 .12-.092.236-.277.345-.259.193-.414.332-.462.415v3.134a62.78 62.78 0 0 1 .092 2.373c0 .397-.327.602-.983.615-.492 0-.752-.11-.776-.327v-.433h-2.555c.308 1.447.802 2.697 1.48 3.748 1.075-.832 1.821-1.745 2.24-2.736.322.182.834.47 1.538.87.37.23.556.386.556.471-.013.132-.112.2-.297.2a8.812 8.812 0 0 0-.74.072c-.42.29-.903.574-1.446.85-.48.231-1.016.43-1.61.598a8.963 8.963 0 0 0 2.556 2.373c.666.422 1.234.693 1.703.813a.618.618 0 0 1-.073.31c-.212.047-.39.114-.537.198-.174.145-.328.38-.463.707-.16.302-.31.454-.445.454-.124 0-.377-.159-.76-.473-2.221-1.57-3.604-4.389-4.147-8.455h-1.61v6.192c1.036-.132 1.918-.295 2.648-.489.036.012.066.067.092.163-1.198.893-2.92 1.665-5.166 2.318 0 .363-.056.543-.167.543-.075 0-.21-.175-.407-.525a50.81 50.81 0 0 1-.76-1.648c.729-.049 1.42-.104 2.074-.162V2.209c-.012-.385-.062-.93-.148-1.63zm-1.889-.236c.1 0 .409.216.926.652.506.434.76.718.76.851 0 .143-.087.24-.26.288-.395.146-.648.25-.759.311-.507 1.072-1.309 2.31-2.407 3.71 1.766 1.136 2.679 2.457 2.741 3.967 0 1.87-.637 2.95-1.908 3.241-.186-.011-.314-.115-.388-.308-.075-.397-.273-.701-.592-.905a3.027 3.027 0 0 0-.742-.363c.025-.048.038-.138.038-.272.345.05.759.078 1.24.092.555-.072.832-.639.832-1.703 0-1.617-.548-2.861-1.647-3.73.618-1.183 1.05-2.723 1.297-4.617h-2.018V16.48c-.076.374-.42.56-1.038.56-.383 0-.61-.06-.684-.18 0-2.597.017-5.136.055-7.624v-5c-.012-2.12-.055-3.384-.13-3.783l1.814.688h1.834c.493-.508.84-.773 1.036-.796zM247.173 10.99h3.185V5.994h-3.185v4.996zm-1.944-6.174l1.834.688h3.185c.506-.567.845-.856 1.018-.868.173.012.513.198 1.018.56.456.34.685.587.685.743 0 .12-.111.235-.332.345-.348.194-.557.338-.63.435v3.24c.073 1.245.111 2.053.111 2.427 0 .411-.327.621-.981.635-.495 0-.754-.117-.779-.345v-1.178h-3.184v1.122c-.086.412-.462.616-1.13.616-.394 0-.636-.065-.722-.197 0-1.306.025-2.577.075-3.822v-2.48c-.027-1.075-.08-1.716-.168-1.92zM258.062.56c.172.086.345.194.518.328.937.77 1.407 1.261 1.407 1.466 0 .168-.062.254-.185.254h-2.778v12.386c-.011 1.123-.79 1.762-2.333 1.918-.247 0-.376-.125-.389-.38a2.395 2.395 0 0 0-.333-.723c-.074-.28-.79-.545-2.148-.798v-.325c.938.06 1.895.091 2.87.091.36 0 .544-.066.555-.2V2.608h-7.627c-2.222 0-3.612.076-4.166.235a6.568 6.568 0 0 0-.427-.978c.89.132 2.413.198 4.574.198h8.85c.655-.833 1.124-1.338 1.408-1.52.074 0 .141.006.204.017zM279.06.09c1.715.304 2.573.532 2.573.687 0 .183-.314.38-.945.599v2.428c1.594-.75 2.766-1.614 3.52-2.591 1.258.88 1.887 1.364 1.887 1.448 0 .145-.073.224-.222.237-.246 0-.518-.014-.815-.037-1.135.567-2.592 1.063-4.37 1.485v1.52c0 .495.285.767.852.815h1.982c.641-.012 1.073-.224 1.296-.632.198-.265.413-.901.648-1.903.197.013.308.018.333.018v1.865c.012.159.154.272.426.345.335.145.5.295.5.453-.037.543-.561.898-1.573 1.067a14.83 14.83 0 0 1-1.982.128c-1.346 0-2.203-.031-2.574-.09-.95-.048-1.425-.839-1.425-2.373V1.865c0-.857-.038-1.45-.111-1.775zm-.057 8.367c1.864.301 2.797.543 2.797.723 0 .194-.345.404-1.038.636v2.37c1.655-.795 2.864-1.72 3.63-2.77 1.271.882 1.908 1.364 1.908 1.45 0 .13-.075.21-.222.234-.236 0-.508-.018-.815-.055-1.16.63-2.66 1.185-4.5 1.666v1.612c0 .544.302.84.908.888h1.776c.705-.012 1.173-.235 1.408-.67.21-.29.438-.973.685-2.046.222.012.345.018.37.018v2.01c.012.157.148.277.408.36.345.146.519.311.519.491-.038.58-.6.96-1.685 1.141-.63.097-1.284.145-1.963.145-1.321 0-2.167-.036-2.537-.108-1.013-.062-1.519-.905-1.519-2.536V10.34c0-.93-.043-1.557-.13-1.883zm-6.46 3.639h3.461v-1.955h-3.462v1.955zm0-2.444h3.461V7.896h-3.462v1.758zm-1.778-2.842l1.61.597h3.37c.556-.545.894-.816 1.019-.816.172.049.45.194.832.436.52.373.784.633.798.777 0 .133-.094.253-.279.364-.148.096-.302.21-.463.341v6.285c-.024 1.147-.618 1.86-1.777 2.138-.247-.048-.37-.176-.37-.38-.112-.4-.292-.696-.538-.887-.235-.194-.64-.387-1.222-.581.024-.108.037-.206.037-.29.642.096 1.168.145 1.574.145.432 0 .648-.114.648-.342v-2.03h-3.462v3.985c-.074.374-.414.56-1.019.56-.382 0-.617-.061-.703-.18 0-1.606.024-3.175.074-4.709V9.145c-.024-1.316-.068-2.095-.13-2.335zm2.48-6.775c1.63.594 2.444.973 2.444 1.143-.011.193-.39.3-1.128.325-.63 1.074-1.574 2.094-2.833 3.061.604.048 1.29.083 2.054.107 1.111 0 2.081-.035 2.907-.107-.235-.785-.598-1.42-1.092-1.903.049-.035.11-.09.184-.162 1.89 1.05 2.833 2.058 2.833 3.025 0 .36-.104.608-.314.74a.844.844 0 0 1-.517.165c-.433 0-.742-.453-.927-1.357a1.22 1.22 0 0 0-.073-.219c-1.729.675-3.803 1.1-6.223 1.268-.073.288-.185.433-.332.433-.05 0-.137-.193-.26-.578-.184-.711-.31-1.274-.37-1.685.358.096.84.17 1.444.218 1.186-1.521 1.919-3.013 2.203-4.474z"/>
            </g>
        </g>
    </g>
</svg>
