<svg xmlns="http://www.w3.org/2000/svg" width="1280" height="720" viewBox="0 0 1280 720">
    <g fill="none" fill-rule="evenodd">
        <path fill="#8E7D55" fill-rule="nonzero" d="M0 0h1280v720H0z"/>
        <g fill="#A39361">
            <path d="M698.232 352.778c3.06-2.195 5.443-5.09 7.79-7.813 1.958-2.247 3.963-4.577 6.328-6.67-2.646-.495-5.366-1.077-7.997-1.534-1.978-.355-3.9-.835-5.822-1.282l.138 1.986c.314 1.23.729 4.288-.838 6.848-1.162 1.836-3.153 3.128-5.905 3.766-3.71.937-10.232 4.606-10.5 4.727l-.331.163.253.238c.078.08 6.624 6.955 16.884-.429zm98.655 115.25l-.263.08c-3.526 1.366-32.49 11.31-50.83-23.961-1.945-3.543-4.291-13.966-8.453-23.238 1.166-1.99 2.23-4.06 3.258-6.163 12.708-2.639 22.24-8.596 24.065-11.272-7.103 2.359-14.44 3.04-20.377 3.04a116.072 116.072 0 0 0 7.208-27.104c16.524-.219 33.45-2.12 42.654-8.493 20.197-13.934 24.797-29.565 23.7-46.608 0 0-12.772 32.357-52.89 19.785-2.89-.84-8.656-4.27-15.293-7.45a118.378 118.378 0 0 0-4.13-13.831c7.471-2.904 17.833-5.342 22.838-6.47-7.817-3.618-17.754-1.88-25.226.47-.216.028-2.185-4.68-2.332-5.053-.747-1.529-1.327-3.058-2.079-4.568-.046.06-.074.135-.147.144.041.075.041.098.073.126-4.844 2.988-12.5 4.219-24.428.802-.235-.047 11.237-2.4 21.04-7.412-1.377-2.01-2.963-3.888-4.267-5.962-.328-.537-2.517-4.518-3.305-4.145 13.219-12.61 27.637-28.576 30.02-41.25 4.175-22.354-2.918-35.62-14.616-45.95 0 0 12.518 29.466-21.691 47.67-3.973 2.237-17.437 5.025-26.724 10.814-3.393-1.995-6.919-3.734-10.56-5.37-.106-5.818-1.429-18.744-10.573-22.31 0 0 4.82 8.27 3.604 19.476.106-1.035-13.74-4.06-15.104-4.415-.982-.228-1.95-.47-2.89-.643.161.564.332 1.128.493 1.692.115-.074.143-.074.143-.074s0 .093-.056.219c.931 3.067 1.909 6.027 2.72 8.857-2.41-.755-4.356-1.902-5.978-3.296a69.63 69.63 0 0 1-2.25 3.361c-9.513 8.95-13.279 20.842-10.891 28.245 2.383 7.464.848 13.729-3.06 21.593 2.507-14.931-3.882-20.166-8.463-30.664-4.572-10.49 2.563-26.894 2.563-26.894-.074 2.984-.503 14.96 1.567 22.069.133-4.005 1.217-6.62 6.73-13.43 2.797-3.478 7.199-6.01 10.812-7.655-1.06-1.585-1.802-3.398-2.373-5.272-1.337-.154-2.715-.257-4.103-.383.885-20.716.25-46.705-8.07-59.03-9.37-13.91-19.548-20.507-30.38-22.917l-1.023-.21c-3.71-.792-7.55-1.063-11.417-.956l-1.12.07c-.714 0-1.429.01-2.13.066 0 0 .913.391 2.305 1.137l1.203.737c7.951 4.76 25.867 19.485 16.036 51.581-1.632 5.734-13.118 22.67-13.118 35.788-1.295.508-2.595.965-3.9 1.547l-.474-12.787s-4.61 4.82-4.397 14.806c-.77.391-1.484.722-2.185 1.077-3.144-5.608-7.776-12.489-12.56-14.335 1.387 4.601 5.854 11.528 5.365 16.619.355.336.82.601 1.166.909 2.305 2.102 4 4.69 5.803 7.333 2.673 3.888 5.176 7.939 7.154 12.237-.503-.849-1.724-1.422-2.508-2.051a223.522 223.522 0 0 0-6.554-5.16c-2.623-2.033-5.457-3.763-8.098-5.749-.78-.63-1.554-1.31-2.37-1.92-4.77 2.522-11.831 6.162-10.919 7.183-13.993-15.514-33.227-34.324-48.12-37.163-21.575-4.111-35.196 1.725-45.792 12.251 0 0-2.89 2.788-3.577 3.855 14.215-4.437 20.032-1.925 21.474-1.724 1.475.247 17.626 2.107 29.753 25.476 1.77 3.38 4.06 12.913 7.868 21.732-6.573-.144-15.676.247-19.88 3.236.272-.182 2.586.573 2.945.67 2.448.514 4.928 1.068 7.389 1.577 7.13 1.585 12.55 2.834 18.022 7.976.11.093-2.581 5.962-3.42 8.013 5.619 1.636 9.546 5.17 12.168 8.675-3.461-5.897-5.688-13.257-5.038-22.632 12.75 17.216 12.722 29.634 39.423 31.275 25.396 1.501 30.96-.601 46.677 12.181-9.121-.098-29.499-6.19-45.437 6.955 11.463-.9 39.26-6.545 50.973-1.165 1.498-6.61 7.914-20.101-.397-37.121-1.378-2.895-2.862-5.697-4.401-8.54-2.277-4.224-4.693-8.4-7.366-12.419-1.88-2.83-3.95-5.473-5.987-8.176.106-.117 6.61 4.07 9.167 6.19 2.53 2.08 4.914 4.298 7.117 6.76 2.157 2.41 4.171 5.114 5.766 7.99 1.706 3.18 2.936 6.62 3.761 10.153.452 1.911.78 3.906 1.083 5.92.134.975.295 2.037.397 3.058.055.518.133 1.03.184 1.576.028.2.323 1.384.19 1.557 5.54-6.447 14.891-19.239 8.987-37.713 6.038 8.177 7.227 10.382 7.227 10.382 3.42-6.522.72-19.761-6.807-28.772 4.664-.056 11.463-.247 19.344 11.654 8.32-8.307 16.828-14.195 26.393-14.517-8.057 6.159-23.346 17.575-21.332 27.77-7.964 2.261-11.182 2.788-16.897 14.833-5.72 12.065-18.667 29.593-26.139 49.274-.742 15.034.05 34.357-.346 45.983-.447 11.514-5.604 19.71-17.077 20.139-11.458.438-23.543 18.93-25.028 29.811 0-12.204 1.088-19.057 4.928-25.597-5.458 4.107-13.275 9.197-14.782 22.007-.572-13.537 4.923-25.783 18.994-32.776 14.05-7.039 19.267-5.118 21.166-22.464 1.89-17.272.899-25.658.899-25.658s-4.098 2.167-7.845 18.549c-3.812 16.423-13.745 28.263-27.812 23.947-3.42-1.087-6.863-2.13-10.31-3.18-1.89-.564-3.84-1.137-5.748-1.673-.581-.163-2.937-.42-3.619-1.105H563.8a1.241 1.241 0 0 0-.29.191l-.037.182c-6.09 4.219-17.06 12.74-17.907 19.62.083-.535-.526-1.654-.66-2.18a55.374 55.374 0 0 1-1.202-5.683c-.895-5.37-1.051-11.188.447-16.507l-.042.037c-3.263-.531-6.333-.83-8.97-.83 0 0 3.803-1.73 10.32-2.787 0-.033 0-.033.056-.052 2.729-5.664 7.5-9.598 13.394-11.575 9.79-3.286 20.802-1.986 30.725 0-2.028 3.79-3.083 7.175-5.005 9.697-.083 0-.89.34-2.097.801.825-.153 1.539-.373 2.12-.582-.023.065-.079.12-.106.154.253-.182.53-.453.862-.607a27.603 27.603 0 0 0 4.637-3.654c3.088-2.951 5.392-6.727 6.346-10.988 3.029-13.136 19.954-23.718 29.07-24.236-3.041-3.58-10.785-7.468-22.124 1.79-11.37 9.226-26.553 18.549-37.26 4-3.047-4.391-.41-7.305-7.74-9.533-7.36-2.187-15.445-2.033-18.335-21.225 10.334 7.45 12.602 9.426 26.79 10.82-5.085-3.934-14.437-9.17-20.982-18.092 1.982 3.496 2.789 6.391 2.789 6.391-6.573-7.156-19.382-9.962-20.166-10.144a9.888 9.888 0 0 0-.41 1.12c-.101.363-.926 3.77-1.083 3.77-3.71.262-10.228-.14-21.253-3.435 0 0 10.043 8.158 19.769 9.435a129.676 129.676 0 0 0-1.775 10.27c-20.41-3.124-37.154 3.389-42.506 9.295C457.747 380.804 433 375.812 433 375.812s15.395 7.575 23.424 9.053c8.084 1.445 26.627 1.538 42.4-1.986 6.785-1.539 17.593 3.412 27.664 9.551.636 2.41 1.208 4.97 1.945 7.412 3.01-1.375 6.14-2.521 9.49-3.277a74.958 74.958 0 0 1 8.173-1.305c.281-.042 3.116 0 3.203-.2-1.77 3.533-5.452 5.91-8.766 7.84-2.89 1.683-5.96 2.97-9.067 4.261.724 1.73 1.406 3.497 2.203 5.235.77 1.674 1.59 3.315 2.439 4.946.267.471 2.148 4.615 2.572 4.615l-15.69.774s10.656 5.762 19.792 5.8c0 .027 0 .027.027.083-1.825 2.103-3.816 4.634-5.802 7.408-9.781 1.93-20.613 2.9-20.613 2.9 3.867 2.782 10.8 4.139 15.409 4.74-6.177 10.032-11.597 22.218-12.007 34.305-.014 16.428-2.503 38.562-11.938 42.93 20.603-10.368 31.296-16.997 35.191-28.604 3.18-9.552 11.048-26.525 32.564-31.448.784.462 1.54.937 2.31 1.366-.978 4.769-1.854 11.626-1.273 19.44 1.457-4.364 3.577-11.403 5.25-17.086-.138.494 7.868 4.088 8.652 4.447 2.106.947 4.226 1.828 6.397 2.564.862-1.948 1.802-5.095 2.627-8.167-2.876.13-6.245-.042-10.361-.517 3.558 0 7.393-1.222 11.26-3.23a149.187 149.187 0 0 0 1.222-5.185c.58 1.203 1.055 2.48 1.484 3.678 18.146-10.721 37.127-36.142 37.127-36.142-3.66 26.502-19.313 38.1-24.424 50.137-1.088-.425-3.088-7.044-.226-14.256-3.204 2.22-6.278 4.126-11.237 4.998 1.064 5.31.981 10.032.93 11.244.41.21.817.438 1.245.573 1.222.513 2.517.83 3.812 1.184.825.173 9.758 1.92 9.758 1.949-.079 17.92 1.599 37.004 8.375 47.11 13.776 20.377 29.254 25.048 46.055 23.882 0 0-31.96-12.857-19.516-53.39.991-3.515 5.55-11.02 9.02-19.313a115.21 115.21 0 0 0 16.667-5.426c9.952 4.69 12.017 13.21 14.575 21.047 3.973-8.866-2.65-18.27-7.988-23.942 2.143-1.021 4.199-2.36 6.397-3.324.056-.028.083-.056.148-.084a18.3 18.3 0 0 1-4.402-6.843c-1.028-2.844-1.576-5.977-1.724-9.044.281.382.623.82.922 1.147 3.07 4.06 6.273 8.14 9.666 11.901.507-.21.981-.438 1.46-.774.66-.447 7.698-5.426 7.698-5.426 12.758 13.165 27.886 26.287 40.123 28.641 10.887 2.07 19.764 1.604 27.24-.736l1.863-.63c8.029-2.894 14.417-8.008 19.985-14.437l.157-.172zm-80.666-19.513c7.09-6.582 13.316-14.05 18.594-22.26 5.47 42.78 40.395 46.407 48.903 47.125-30.434 16.153-55.043-8.092-67.497-24.865zm-14.376-.48c-3.641-.34-7.273-.429-10.9-.457-2.305-.103-4.587 0-6.864-.191-.917-.084-1.779-.2-2.705-.42-.526-.074-1.06-.2-1.577-.289-.064 9.193-2.53 17.607-3.562 23.206.502-8.615-1.641-17.56-4.877-25.905-1.604-.834-3.047-1.962-4.411-3.067-4-3.403-5.895-8.219-6.476-13.412-.244-1.683-.295-3.459-.309-5.16-6.291-9.827-11.988-16.307-11.988-16.307 4.29 1.692 8.001 3.576 11.232 5.543-.313-1.263-.995-2.592-1.576-3.706-2.199-4.368-5.868-7.655-9.541-10.787-4.107-3.515-8.121-7.184-11.14-11.766-8.56-13.002-.29-26.604-.29-26.604 5.055-.453 12.03 6.158 19.127 12.884 7.103 6.792 11.03 9.235 26.314 8.923 15.344-.448 27.513 5.59 29.42 8.148-15.8-3.542-31.641-1.156-34.296-.046-10.408 5.072-20.825.046-26.858 1.524 29.365 13.92 39.261 32.53 43.635 43.228-7.26-11.118-13.73-14.442-22.857-20.185.143.084-.143 2.615-.115 2.895 0 1.128.06 2.186.17 3.268.06.83.028 1.668.028 2.48 4.047 4.904 6.305 10.167 7.43 15.374 1.991.382 4.305.354 6.07.63 2.701.372 5.347.838 8.016 1.449 3.724.881 7.38 2 10.772 3.776 1.83.918 3.576 2.023 5.047 3.468.253.238 1.617 2.396 1.894 2.443-2.94-.401-5.895-.727-8.813-.937zm-45.299 92.884c-29.439-10.596-27.41-42.93-23.48-61.628.296 0 .558.098.821.098a116.32 116.32 0 0 0 23.696-1.664c-19.663 32.347-2.23 58.872-1.037 63.194zm13.966-194.34c4.291-.43 13.698 1.594 17.833-10.807.24-.857.571-1.631.848-2.46-2.332-.62-4.692-1.129-6.983-1.81-1.217-.4-2.438-.75-3.646-1.249-.355-.172-1.267-.438-1.401-.848.05.13 5.222 0 5.59 0 2.573.018 5.168.13 7.767.13.37-1.049.738-2.13 1.19-3.142.875-1.986 1.908-3.86 3.235-5.547 1.406-1.809 3.14-3.338 5.01-4.634 1.134-.844 2.36-1.594 3.573-2.284.825-.438 3.609-1.32 3.991-2.047-1.72 3.24-3.853 6.298-5.512 9.613a41.106 41.106 0 0 0-2.503 6.321 3.336 3.336 0 0 0-.134 1.245c.608-.089 1.222-.182 1.88-.257 1.222-.107 2.388-.023 3.577-.233 1.328-.275 2.729-.33 4.061-.54 4.499-.625 8.937-1.446 13.298-2.802 5.01-1.539 10.384-3.86 13.804-8.149-2.438 3.86-5.379 7.328-8.587 10.48a78.669 78.669 0 0 1-4.448 4.023c-.719.638-2.756 1.757-3.484 2.769.65-.2 1.313-.41 2.028-.658 3.655-1.002 7.416-1.263 11.182-1.11 3.945.117 6.383 1.138 9.223 2.807-.429-.275-2.535.29-3.052.336-1.696.144-3.364.238-5.033.354-2.042.2-4.093.42-6.07.783-.526.089-1 .266-1.535.457 2.84.69 5.762 1.138 8.624 1.78a263.8 263.8 0 0 1 12.947 3.334c8.085 2.387 16.294 5.007 23.742 9.072.53.251 1.088.554 1.632.834 7.881-.527 33.158-1.576 40.316-11.38-2.143 6.756-7.407 28.488-54.619 25.514-4.554-.158-15.652-1.85-21.276-4.135-.723-.33 16.805-5.58 26.49-4.517-2.296-.284-4.628-1.119-6.905-1.622-8.135-1.855-16.298-3.515-24.295-5.762-3.743-1.09-7.476-2.238-11.016-3.743-1.655-.7-4.31-1.567-5.946-2.984a6.848 6.848 0 0 1-.853-.993c-.659.453-1.272 1.073-1.825 2.01-5.066 9.57-13.676 11.71-4.743 18.25 8.956 6.489 8.73 12.573 33.49 13.435-7.84 1.72-29.6 6.857-43.745-8.974-10.233-1.165-12.85-.485-23.466-6.75-4.517-1.893-18.778-1.636-22.548-3.93-.442-.284 1.387-8.297 18.294-10.18zm78.241-126.593c4.056 11.309 17.902 41.442-29.485 59.926a118.804 118.804 0 0 0-16.137-13.51c17.414-5.338 47.29-18.786 45.622-46.416zM613.75 248.627c27.457-27.117 7.715-60.378 7.715-60.378 26.738 8.47 24.162 42.365 21.46 57.903-.253 0-.557-.038-.783-.038-9.762-.358-19.266.518-28.392 2.513zm.161 50.78c1.138 5.198 2.461 10.26 3.922 15.388 1.374 4.941 2.89 9.831 4.439 14.712 1.258 4.014 2.581 8.023 3.881 12.102.092.317.207.708.346 1.063.078.219.143.848.304.965-15.837-13.84-38.837-12.111-47.13-11.738-25.548 2.041-33.36-20.847-32.582-20.102 14.349 13.832 25.664 11.864 38.626 11.673-9.011-3.104-12.99-10.973-18.022-19.322 14.79 14.717 20.156 12.139 26.714 13.411-15.906-24.38-26.452-20.022-33.472-20.502-6.941-.485-10.001-4.643-10.001-4.643s2.235-2.95 13.366-5.538c11.113-2.61 19.11-6.19 26.664 8.042 7.546 14.204 13.99 24.548 23.314 30.244-7.075-8.857-12.454-31.13-12.03-43.12.428-12.008-1.484-18.32-5.089-24.227 5.01 1.646 14.298 8.848 14.247 22.824 0 1.333.05 2.699.208 4.028.414 4.94 1.258 9.85 2.295 14.74zm-113.299-50.733s34.302-13.817 59.32 28.17a116.214 116.214 0 0 0-17.095 19.92c-2.664-16.396-11.767-42.398-42.225-48.09zm48.812 182.542s12.878-22.288 35.283-7.739c-9.463 4.797-23.926 11.165-35.283 7.739zm-22.3 72.582s-13.463-42.007 26.314-61.702c4.665 5.09 9.781 9.77 15.317 13.92-12.353 5.039-32.38 17.556-41.63 47.782zm.148-124.663s17.446 10.699 48.452 4.746c-15.529 7.375-36.966 12.829-48.452-4.746zm-28.24-8.293c-7.869-1.767-15.709-1.137-23.71 4.308-7.052 4.69-14.602 3.678-16.354 3.375-.143.158-.253.21-.253.21l-.116-.346s.116.084.37.136c1.695-1.557 13.315-12.172 23.557-18.964 7.656-5.063 25.373-9.086 40.464-5.599-.106 1.501-.226 3.021-.29 4.578-.268 7.45.212 14.74 1.258 21.835-6.992-3.962-16.003-8.06-24.927-9.533z"/>
            <path d="M917.998 399.387c-6.175 2.142-9.936 3.258-13.786 1.256.83-5.79 1.426-11.602 1.857-17.47 4.46.885 8.947 1.795 13.373 2.671-.356 4.524-.881 9.057-1.444 13.543zm-2.466 15.562c-4.286-1.336-8.628-2.718-13.055-4.082.169-.77.277-1.52.408-2.25 3.86 1.078 7.578-1.027 9.857-2.208 1.04-.586 2.733-1.674 4.647-2.644-.54 3.76-1.159 7.467-1.857 11.184zm-1.323 6.713c-4.178-1.458-8.492-2.977-12.876-4.514.286-1.594.61-3.169.938-4.814 4.389 1.373 8.76 2.737 12.975 4.083-.338 1.757-.699 3.506-1.037 5.245zm-4.45 17.944a1751.735 1751.735 0 0 1-12.585-5.156 908.467 908.467 0 0 0 1.561-5.7c.835-3.37 1.552-6.82 2.293-10.22 4.403 1.529 8.703 3.029 12.872 4.487-1.229 5.583-2.546 11.133-4.14 16.589zm-7.061 21.853c-3.911-1.814-8.01-3.745-12.295-5.686 2.429-6.553 4.515-13.172 6.382-19.884 4.243 1.776 8.487 3.506 12.6 5.175a290.079 290.079 0 0 1-6.687 20.395zm-13.454-6.234a4554.826 4554.826 0 0 0-25.396-11.738c.014-.089.056-.201.099-.31 2.142-6.032 4-12.15 5.66-18.337 3.84 1.575 7.779 3.174 11.793 4.795-.122.432-.202.905-.38 1.365l2.508.632c.094-.295.188-.632.244-.97a970.43 970.43 0 0 1 11.812 4.753c-1.89 6.67-3.98 13.29-6.34 19.81zm-1.116 2.85c-6.19-2.967-10.64-5.081-10.64-5.081l.732-1.477s4.366 2.044 10.556 4.88c-.202.548-.418 1.092-.648 1.678zm-14.953 32.883c-7.676-5.119-15.685-10.481-23.343-15.6a250.124 250.124 0 0 0 12.562-28.154c8.314 3.929 16.99 8.105 25.312 12.076-4.192 10.804-9.03 21.445-14.531 31.678zm-24.445-16.303c-3.78-2.517-7.418-5.002-10.897-7.27 4.398-8.56 8.295-17.377 11.591-26.387 3.78 1.795 7.737 3.708 11.812 5.64-3.559 9.613-7.756 18.923-12.506 28.017zm-13.012 21.952c-2.316-1.913-5.997-4.89-10.175-8.283a213.008 213.008 0 0 0 11.694-19.852c3.456 2.301 7.123 4.753 10.87 7.251-3.79 7.144-7.902 14.129-12.389 20.884zm-18.64 24.426c-6.822-6.839-13.523-13.542-18.845-18.886a225.313 225.313 0 0 0 15.854-21.22c3.067 2.489 6.293 5.053 9.322 7.523a211.781 211.781 0 0 1-11.592 15.849l1.356 1.078a239.247 239.247 0 0 0 11.6-15.802c4.193 3.436 7.86 6.356 10.148 8.288-5.444 8.11-11.456 15.773-17.842 23.17zm-22.592 22.843c-6.124-7.828-11.807-15.08-16.42-21.02a219.02 219.02 0 0 0 17.391-17.587c5.552 5.794 12.318 12.825 18.494 19.28a234.387 234.387 0 0 1-19.465 19.327zM466.06 247.782c-3.062-1.495-11.93-5.76-23.498-11.395a351.818 351.818 0 0 1 3.344-4.96c3.615 2.827 8.44 4.716 12.857 6.37 7.958 2.977 10.462 3.76 10.462 3.76s2.752-1.898.46-3.384c-2.294-1.425-11.564-4.688-14.678-6.507-1.725-.951-4.14-2.264-6.241-4.233a228.21 228.21 0 0 1 10.025-12.731c13.416 8.977 22.86 15.352 23.254 15.59.417-.459.703-.805 1.2-1.4-1.04-.7-13.368-9.029-23.183-15.648 3.465-4.026 7.128-7.945 10.916-11.789 3.372 2.752 6.486 5.269 9.247 7.533-.445.45-.905.886-1.373 1.35l2.452 2.423c.54-.58 1.083-1.064 1.618-1.584 5.636 4.59 9.298 7.58 9.528 7.8.431-.403.61-.581 1.083-1.055-.342-.243-3.953-3.248-9.56-7.762 5.621-5.55 11.51-10.768 17.672-15.6 4.76 4.954 7.948 8.254 8.127 8.447.243-.193.81-.675 1.134-.849-.178-.244-3.315-3.614-7.952-8.61 1.21-.971 2.372-1.82 3.582-2.706 4.249 4.927 7.442 8.7 7.822 9.132.403-.333.647-.563 1.181-.914-.431-.516-3.596-4.182-7.788-9.07 1.842-1.388 3.732-2.691 5.664-4 4.474 5.537 7.287 9.067 7.465 9.296.455-.258.675-.408 1.163-.726-.23-.258-3.052-3.774-7.498-9.338.863-.595 1.698-1.172 2.546-1.73 4.014 5.443 6.753 9.207 7.039 9.596.483-.361.769-.511 1.252-.844-.282-.394-3.076-4.125-7.076-9.567a238.89 238.89 0 0 1 9.584-5.761c3.747 5.892 6.054 9.595 6.228 9.872.539-.314.81-.46 1.402-.797-.188-.286-2.509-3.966-6.232-9.853 2.307-1.257 4.6-2.565 6.973-3.765 3.395 6.07 5.566 9.9 5.673 10.191.512-.29.784-.394 1.346-.698-.16-.244-2.316-4.083-5.66-10.12 1.984-.976 3.967-2.007 5.998-2.977 1.472-.69 3.034-1.294 4.53-1.969 1.214 2.61 4.675 9.675 5.186 10.674.895-.394 2.752-1.093 3.7-1.552-.099-.267-2.022-4.406-4.962-10.795 1.951-.807 3.911-1.58 5.89-2.33 2.495 6.375 4.042 10.364 4.126 10.725.582-.24.844-.361 1.388-.563-.112-.28-1.646-4.312-4.121-10.645a197.342 197.342 0 0 1 10.888-3.736c.431 3.708.806 7.805 1.29 9.281.796 2.485 3.479.305 3.479.305s-.052-2.508-.727-10.584v-.211c.755-.174 1.5-.46 2.241-.652 1.613 6.192 2.776 10.538 2.912 10.997.75-.239 1.374-.375 2.115-.605-.099-.43-1.2-4.706-2.856-11.048a174.436 174.436 0 0 1 11.198-2.602c1.21 6.614 1.97 10.796 2.02 11.157.61-.132.868-.216 1.46-.333-.057-.342-.793-4.57-2.04-11.12 1.364-.28 2.71-.487 4.018-.716.417 3.318.82 6.051 1.064 7.987l.165 1.275c.187 1.153.239 1.838.267 1.992a10.22 10.22 0 0 1 1.163-.23c0-.098-.085-.487-.14-1.05l-.282-2.02c-.258-1.94-.633-4.734-1.079-8.156 4.033-.698 8.089-1.237 12.16-1.725.529 5.822.796 10.069.904 11.17 0 0 2.612-.257 3.292-.318-.028-.366-.314-4.664-.783-11.241 5.847-.553 11.727-.928 17.654-1.012-.337 6.037-.553 10.58-.614 11.16h1.505c.029-.567.282-5.123.591-11.132 3.194-.028 6.42-.061 9.618.056l.145-3.436c-3.212-.127-6.4-.099-9.57-.07.173-3.783.43-7.946.632-12.033 3.138 0 6.242 0 9.355.093.62.029 1.2.122 1.815.146-1.829 15.183-3.114 25.81-3.203 26.442h.685s.567.028.853.056c.029-.487 1.318-11.198 3.151-26.47 2.547.15 5.098.337 7.658.539-2.696 14.934-4.666 25.73-4.746 26.269.605.028.887.066 1.402.089.108-.427 2.036-11.25 4.797-26.288 2.186.23 4.427.511 6.622.755-3.222 14.916-5.515 25.533-5.623 26.077.596.08.863.08 1.416.145.066-.431 2.373-11.086 5.59-26.058 5.585.69 11.136 1.575 16.58 2.705a10443.715 10443.715 0 0 0-7.75 25.87c.665.15 1.781.338 2.32.46.015-.066.16-.511.418-1.238.323.056.755.174 1.078.244.085-.46 4.075-12.127 6.593-19.664-.098-.052-.764-.253-1.36-.47.483-1.48.971-3.032 1.454-4.612 4.258.882 8.436 1.88 12.548 3.061-5.458 14.161-9.472 24.408-9.673 24.929.506.122.764.201 1.181.323.178-.403 4.192-10.725 9.693-24.97 1.134.38 2.316.637 3.437.937-4.947 11.49-10.232 23.63-10.691 24.643.651.182.919.21 1.458.403.352-.797 5.683-13.055 10.677-24.563 5.228 1.575 10.377 3.445 15.526 5.4a46380.348 46380.348 0 0 1-11.512 24.366c1.078.375 2.443.82 3.315 1.087.188-.417 4.933-10.144 11.676-24.094 4.338 1.73 8.6 3.577 12.876 5.663l.741-1.599a291.214 291.214 0 0 0-12.848-5.625c1.791-3.68 3.71-7.598 5.711-11.723 4.872 2.01 9.67 4.125 14.415 6.497-5.313 8.376-10.41 16.345-14.415 22.608-.225-.075-.454-.211-.712-.295l-1.43 3.056a.51.51 0 0 0 .3.173 2043.092 2043.092 0 0 0-6.242 9.774c.497.244.755.389 1.173.558.244-.432 3.184-4.993 6.199-9.746 4.89 2.344 9.655 4.875 14.395 7.547-4.23 5.128-7.01 8.54-7.277 8.906.595.324.834.441 1.35.718.188-.277 2.936-3.647 7.212-8.883 1.576.923 3.114 1.847 4.661 2.789a63.26 63.26 0 0 1-.797 1.598c-3.836 7.814-4.877 10.341-4.877 10.341s1.66 3.005 3.395.792c1.215-1.523 3.695-6.59 5.796-10.467 4.23 2.733 8.44 5.616 12.51 8.653-3.976 4.322-7.385 8.03-7.629 8.32.146.146.741.652 1 .891.13-.122 3.328-3.487 7.858-8.287 1.641 1.218 3.245 2.522 4.835 3.825-4.38 3.736-8.234 7.06-8.896 7.617.544.412.779.633 1.173.975.487-.436 4.436-3.802 8.886-7.655 1.978 1.636 3.92 3.314 5.903 5.006-5.364 4.42-8.736 7.28-9.06 7.524.503.412.676.633 1.098.994.183-.15 3.578-3.061 9.036-7.575.933.88 1.932 1.706 2.884 2.601a1307.033 1307.033 0 0 0-9.57 7.064c.487.436.707.67 1.139 1.036.347-.31 4.286-3.22 9.542-7.073 3.287 3.075 6.443 6.305 9.528 9.558-6.077 3.834-10.123 6.454-10.39 6.581.267.3.43.45.66.713.202-.146 4.244-2.72 10.378-6.572 1.847 1.982 3.68 3.947 5.43 5.986l2.602-2.222c-1.632-1.94-3.353-3.764-5.078-5.62 3.071-1.95 6.522-4.121 10.18-6.441 2.541 2.784 5.078 5.578 7.446 8.517-13.894 7.462-24.14 12.919-24.702 13.163.431.44.59.632.872.993.366-.187 10.612-5.695 24.641-13.134 2.884 3.53 5.66 7.153 8.356 10.86-14.315 7.032-24.317 11.996-24.936 12.278.46.642.619.871.942 1.373.408-.22 10.49-5.175 24.913-12.29 1.102 1.532 2.087 3.154 3.128 4.729-14.386 5.428-26.203 9.886-26.69 10.036.239.314.323.473.515.717.361-.131 12.178-4.594 26.658-10.078 1.402 2.142 2.889 4.205 4.206 6.384.193.282.296.502.432.741-15.23 5.081-26.527 8.85-27.122 9.052.351.412.487.586.717.933.39-.113 11.714-3.92 27.01-9.015a260.998 260.998 0 0 1 6.672 11.808c-3.3 2.527-7.385 3.113-10.011 3.624-3.522.684-13.345.722-16.004 1.326-2.574.661-.614 3.305-.614 3.305s2.607.113 11.047-.117c6.152-.183 13.036-.488 17.927-3.535.623 1.229 1.27 2.536 1.88 3.826-4.44 1.162-25.551 6.74-27.464 7.251.436.853.731 1.519 1.083 2.18.858-.24 15.446-3.999 27.44-7.111 2.266 4.88 4.343 9.76 6.228 14.728-14.677 2.69-27.253 4.946-28.168 5.119.235.605.333.886.563 1.42.567-.168 13.294-2.447 28.144-5.081.596 1.683 1.191 3.314 1.782 5.006-15.732 2.363-27.633 4.158-28.388 4.257.216.651.333.918.511 1.43.511-.076 12.497-1.894 28.388-4.295a244.462 244.462 0 0 1 4.97 16.937l1.647-.422a220.468 220.468 0 0 0-4.891-16.735c4.15-.633 8.543-1.298 13.073-1.969 2.345 7.252 4.37 14.583 6.012 22.037-9.041.623-18.926 1.265-26.986 1.795-1.538-6.244-3.316-12.45-5.421-18.614l-3.287 1.092c2.026 5.887 3.718 11.789 5.2 17.752-7.46.53-12.801.895-13.425.923.314 1.19.732 2.85.97 3.736.489 0 6.04-.337 13.323-.769 1.214 5.283 2.222 10.482 3.02 15.83-6.715-.21-10.945-.314-11.297-.314.108.586.136.853.202 1.369.23 0 4.516.06 11.259.281.778 5.63 1.345 11.25 1.697 16.955-7.943-.933-13.237-1.538-13.71-1.617 0 .675.023.942.041 1.462.375.075 5.716.713 13.72 1.66.352 6.332.437 12.642.207 18.951 0 .08 0 .146-.028.155-8.145-1.64-13.35-2.7-13.782-2.756-.051.694-.08 1.354-.08 1.528.31.056 5.487 1.073 13.75 2.728-.174 4.467-.512 8.972-.957 13.449-1.402 0-2.772.009-4.127.056-9.153.267-11.966.52-11.966.52s-1.928 3.033.928 3.516c.094.028.23.028.338.056 0 .23-.057.469-.108.722.323.103 5.538 1.73 13.683 4.313-.122 1.017-.258 1.968-.39 2.957-8.065-2.826-13.293-4.678-13.696-4.795-.113.595-.113.895-.244 1.397.3.112 5.585 1.978 13.654 4.81-.769 4.392-1.617 8.77-2.668 13.101-7.966-3.225-13.115-5.31-13.518-5.503-.165.623-.22.933-.366 1.472.281.122 5.458 2.236 13.519 5.484-.821 3.272-1.613 6.577-2.584 9.825l3.315.924c.915-3.113 1.665-6.263 2.453-9.413 3.394 1.36 7.17 2.93 11.244 4.542a203.332 203.332 0 0 1-5.369 17.972c-15.47-7.157-27.108-12.515-27.633-12.76-.347.962-.835 2.462-1.05 3.306.36.154 11.957 5.69 27.417 13.064a238.15 238.15 0 0 1-11.498 26.147 10541.263 10541.263 0 0 1-25.621-17.128c-.249.483-.352.722-.596 1.172.404.215 11.24 7.486 25.612 17.1-3.521 6.736-7.333 13.312-11.554 19.664-3.085-2.498-6.27-5.072-9.34-7.57a219.355 219.355 0 0 0 6.766-10.997l-3.048-1.636c-2.021 3.543-4.15 6.994-6.387 10.453-6.306-5.119-11.446-9.338-12.05-9.806-.352.534-.512.778-.812 1.265.408.319 3.99 3.23 8.788 7.14l.15.093a128.2 128.2 0 0 0 3.118 2.545c-4.802 7.27-9.979 14.302-15.638 20.958-4.122-4.148-7.817-7.795-9.088-9.13 0 0-2.48 2.4-2.776 2.727.23.211 3.962 4.093 9.14 9.525-5.365 6.07-11.025 11.865-17.135 17.349-5.824-7.5-9.65-12.445-9.908-12.708-.488.384-.67.54-1.102.895.211.338 4.042 5.222 9.908 12.783-2.011 1.749-3.98 3.544-6.053 5.208l2.208 2.672a363.605 363.605 0 0 0 5.96-5.189c23.455 30.103 73.17 93.798 74.084 95.017.08-.057.595-.535 1.13-.938-.699-.914-32.187-41.26-56.828-72.92a262.213 262.213 0 0 0 19.516-19.495c3.184 3.333 6.227 6.474 8.764 9.14-6.255 6.9-12.806 13.515-19.793 19.665l1.73 1.94c7.011-6.196 13.576-12.862 19.855-19.73 3.53 3.662 5.95 6.179 6.133 6.38.455-.407 1.496-1.289 1.496-1.289s.999.999 2.466 2.536c-5.796 6.427-11.83 12.708-18.222 18.568l.858.914c6.392-5.86 12.455-12.14 18.27-18.596 2.785 2.85 6.644 6.797 9.504 9.765-5.824 6.45-11.892 12.632-18.292 18.464l.605.642c6.363-5.869 12.454-12.075 18.278-18.478 1.67 1.697 2.884 2.92 3.128 3.197.056-.104.403-.366.698-.704-.21-.23-1.51-1.523-3.141-3.253.314-.356.637-.693.933-1.017 1.697 1.697 2.991 2.958 3.259 3.3.351-.394.731-.726.731-.726-.108-.099-1.308-1.308-3.343-3.333 2.963-3.314 5.89-6.638 8.68-10.107 9.035-11.18 17.283-23.16 24.556-35.503l-.75-.45a293.518 293.518 0 0 1-24.482 35.377c-2.771 3.46-5.66 6.792-8.572 10.106-2.396-2.395-5.692-5.737-9.608-9.623.82-.994 1.763-1.875 2.542-2.79l-.97-.871c-.803.942-1.665 1.814-2.449 2.728-2.78-2.756-5.767-5.785-8.895-8.916 7.33-8.348 14.124-17.25 20.351-26.485L847 504.875a250.395 250.395 0 0 1-20.027 26.072 602.998 602.998 0 0 1-8.98-9 239.424 239.424 0 0 0 17.955-23.278c.755.628 1.29 1.088 1.458 1.172.347-.45.54-.652.914-1.144-.159-.112-.769-.581-1.59-1.284 4.53-6.746 8.624-13.796 12.455-20.977a8456.144 8456.144 0 0 0 23.347 15.605c-1.027 1.912-2.082 3.862-3.184 5.737l1.102.624c1.098-1.795 2.134-3.736 3.16-5.64a56105.608 56105.608 0 0 0 36.782 24.554c.31-.455.638-1.06.638-1.106-.502-.347-17.186-11.48-36.8-24.572a272.834 272.834 0 0 0 14.64-31.843c21.405 10.214 39.74 18.961 40.406 19.252.22-.46.286-.694.487-1.163-.924-.412-25.345-12.056-40.434-19.26.187-.55.417-1.135.633-1.679 3.68 1.706 7.939 3.699 12.309 5.677-.14.365-.3.778-.422 1.12l.82.281c.113-.318.244-.651.37-1.036a8149.806 8149.806 0 0 0 27.573 12.783c.164-.468.258-.75.417-1.18-.426-.221-12.074-5.551-27.534-12.765 2.48-6.764 4.726-13.547 6.696-20.461 24.993 10.228 46.075 18.769 46.854 19.134.201-.703.38-1.308.431-1.453-.67-.276-21.781-8.883-46.905-19.073 1.561-5.522 2.907-11.105 4.107-16.646 19.465 6.816 34.71 12.188 35.333 12.399.187-.605.338-1.374.347-1.402-.54-.173-15.826-5.54-35.356-12.394.366-1.748.731-3.515 1.069-5.24 25.856 8.17 47.768 15.06 48.547 15.318.075-.107.168-.768.328-1.439-.647-.22-22.62-7.158-48.608-15.333.76-4.003 1.374-7.983 1.965-11.958 3.86-1.842 8.389-3.014 10.926.68 4.042 5.892 13.556 12.047 18.517 12.202 3.071.047 6.176-1.172 8.778-2.785 4.577-2.845 7.151-5.418 12.895-4.364 6.392 1.21 11.793 4.65 16.581 8.944 0 0-6.63-19.402-20.257-13.458-13.552 5.967-19.038 11.836-24.173 4.364-5.13-7.533-8.084-14.794-19.328-10.964-1.186.384-2.317.811-3.343 1.172.567-4.331 1.026-8.7 1.387-13.04 32.07 6.365 60.81 12.07 61.808 12.252.056-.595.103-.871.188-1.439-.84-.192-29.655-5.943-61.817-12.36.31-4.018.51-8.091.67-12.174l-.849-.047a270.551 270.551 0 0 1-.684 12.103c-4.445-.881-8.933-1.767-13.402-2.681.188-3.29.46-6.567.591-9.91a269 269 0 0 0 .113-13.758c15.31 1.847 27.065 3.24 27.698 3.333.07-.604.085-.881.179-1.458-.638-.056-12.455-1.509-27.877-3.351-.16-7.678-.704-15.244-1.473-22.749 23.498.605 43.755 1.163 44.5 1.19 0-.074-.056-.796-.112-1.335-.591 0-20.947-.553-44.49-1.163-1.834-16.969-5.196-33.675-10.223-50.016 4.764-.698 9.312-1.392 13.495-2.034.511 1.748 1.102 3.515 1.59 5.32l.84-.258a294.071 294.071 0 0 0-1.61-5.151c13.05-1.946 22.363-3.333 22.935-3.427-.098-.614-.192-.867-.244-1.472-.515.08-9.95 1.5-23.051 3.45a295.393 295.393 0 0 0-11.16-30.473c7.493.51 9.828-5.485 13.612-11.71 4.342-7.158 9.707-2.025 22.536 2.761 12.82 4.753 17.997-13.49 17.997-13.49-4.206 4.246-9.045 7.692-14.865 9.121-5.21 1.303-7.727-.942-12.107-3.356-2.509-1.374-5.392-2.344-8.234-2.1-4.544.417-13.008 6.553-16.459 12.197-1.05 1.725-2.579 2.302-4.305 2.381a290.313 290.313 0 0 0-9.66-19.388c15.015-5.039 26.12-8.737 26.715-8.948-.085-.094-.366-.511-.62-.961-.435.169-11.567 3.9-26.638 8.902-2.898-5.255-5.885-10.463-9.14-15.502l-.693.431c3.15 4.997 6.143 10.177 9.003 15.39-8.089 2.657-17.228 5.714-26.48 8.812a182.157 182.157 0 0 0-4.97-8.245c12.876-4.866 22.953-8.677 23.39-8.85-.029-.043-.277-.366-.479-.652-.347.122-10.415 3.923-23.328 8.798-1.562-2.517-3.184-4.917-4.868-7.396 36.937-18.174 79.678-39.291 80.836-39.845-.351-.604-.51-.848-.792-1.373-.905.45-43.876 21.595-80.963 39.886a239.042 239.042 0 0 0-8.693-11.91c26.85-14.382 54.028-28.88 54.862-29.321-.318-.479-.483-.633-.755-1.041-.66.389-27.928 14.949-54.858 29.32a292.48 292.48 0 0 0-8.614-10.43c14.162-8.943 25.86-16.34 26.349-16.588-.029-.052-.347-.432-.62-.779-.38.216-12.13 7.665-26.366 16.641-.08-.094-.16-.244-.24-.333l-1.96 1.72c-3.545 2.227-7.207 4.557-10.874 6.85a271.67 271.67 0 0 0-10.916-11.452c2.762-2.068 4.638-3.47 4.985-3.699a12.537 12.537 0 0 1-.887-1.21c-.323.24-2.316 1.684-5.167 3.812-1.346-1.332-2.785-2.653-4.173-3.961 6.883-5.728 14.245-11.883 21.574-17.977 3.287 3.155 6.542 6.36 9.711 9.731l.929-.876c-3.142-3.343-6.387-6.525-9.669-9.67 24.21-20.232 47.262-39.489 47.989-40.121 0 0-.54-.605-.943-1.036-.59.497-23.779 19.833-48.092 40.195-8.98-8.489-18.442-16.289-28.388-23.484 1.792-2.672 1.693-6.118 1.665-8.288 0-1.5-.235-4.26-.047-7.022 4.956 3.37 9.847 6.858 14.57 10.52l.524-.667c-4.881-3.792-9.922-7.322-15-10.823.412-3.422 1.66-6.619 5.214-7.05 6.809-.74 16.22-6.08 18.522-10.144 1.426-2.592 1.763-5.705 1.58-8.64-.365-5.146-1.42-8.498 2.059-12.838 3.854-4.838 9.14-7.875 14.963-9.97 0 0-19.413-3.076-20.393 11.024-1.041 14.143 1.52 21.352-7.109 22.365-8.6 1.007-16.088.286-17.842 11.428-.084.576-.164 1.101-.23 1.626-1.013-.646-1.997-1.289-3.02-1.926 5.946-7.275 9.96-12.178 10.246-12.549-.464-.375-.666-.576-1.149-.97-.295.394-4.38 5.395-10.349 12.727-7.146-4.491-14.48-8.696-22-12.544 4.233-6.67 7.173-11.311 7.413-11.644a6.653 6.653 0 0 0-.9-.483c-.174.211-3.058 4.795-7.428 11.611-6.227-3.14-12.567-6.094-18.982-8.784 12.656-26.129 23.699-48.891 24.102-49.66-.577-.202-.834-.333-1.374-.535l-6.391 13.111-1.754-.81s5.37-11.424 6.162-13.097c-.418-.104-.793-.254-1.388-.479-.296.614-11.109 23.466-23.455 49.717a384.76 384.76 0 0 0-14.218-5.326c-3.25-1.153-6.588-2.203-9.936-3.243 7.09-18.244 12.642-32.504 12.862-33.085-.408-.117-.68-.225-1.163-.333-.201.403-5.772 14.742-12.895 33.122-13.42-4.003-27.084-6.98-40.969-9.014 5.093-23.461 9.275-42.835 9.435-43.538a18.322 18.322 0 0 0-1.43-.201c-.08.628-4.3 20.034-9.379 43.585-2.902-.408-5.767-.802-8.642-1.088 3.625-20.161 6.537-36.099 6.621-36.746-.567-.056-.834-.075-1.402-.15-.093.582-2.996 16.533-6.658 36.75-3.695-.365-7.442-.679-11.165-.941 3.456-28.702 6.5-53.743 6.584-54.578-.62 0-.896-.037-1.501-.084-.08.783-3.085 25.838-6.565 54.605-2.288-.122-4.525-.318-6.846-.375l-.023.858c2.288.094 4.497.216 6.738.352-1.022 8.99-2.157 18.3-3.264 27.314-1.467-.108-2.94-.202-4.464-.258l-.08 2.578c1.445.052 2.819.183 4.235.23a1253.54 1253.54 0 0 1-1.524 12.567c-1.022-.037-2.106-.065-3.151-.192-2.997-.047-6.068-.117-9.06-.117.132-2.803.24-4.702.268-5.025-.591-.066-.877-.066-1.487-.094-.037.347-.117 2.264-.29 5.119-7.17.07-14.345.431-21.486 1.116-.69-10.032-1.393-20.03-1.913-27.793 11.563-1.11 23.206-1.43 34.948-1.026l.065-1.294c-11.779-.408-23.501-.024-35.07 1.036-.548-7.772-.914-13.055-.97-13.449-.835.028-2.86.15-2.86.15s-1.107-13.5-1.224-15.038c-.605 0-.905.057-1.473.057.028.576 1.055 12.91 2.321 28.683-5.097.51-10.166 1.247-15.22 2.086-3.424-25.894-6.49-49.046-6.56-49.773-.517.08-.704.15-1.187.216.103.703 3.151 23.878 6.602 49.777-2.25.375-4.501.727-6.766 1.144-4.206-23.27-7.869-43.533-7.976-44.349-.596.112-.863.178-1.459.277.132.778 3.775 21.075 8.005 44.438a240.124 240.124 0 0 0-15.69 3.665c-1.496-5.808-2.48-9.605-2.584-9.998-.59.136-.867.215-1.458.347.258.96 1.561 5.986 2.616 10.026-3.545.933-7.08 1.988-10.597 3.075-.333-3.047.867-6.876 2.293-12.651 2.588-10.393-4.722-11.93-12.375-15.366-7.667-3.403-2.56-9.014 1.805-21.816 4.343-12.736-14.902-15.764-14.902-15.764 4.633 3.59 8.417 7.847 10.2 13.275 1.631 4.86-.61 7.49-2.927 11.925-1.28 2.475-2.157 5.334-1.791 8.034.661 4.308 7.465 11.761 13.519 14.485 6.053 2.71.619 11.64-.727 14.803-1.35 3.113-4.445 9.338 3.33 13.13 7.774 3.717 5.622 5.695 3.68 11.883-1.941 6.183 1.75 15.6 7.76 18.164a8.594 8.594 0 0 1 2.617 1.575c-3.624 1.116-7.263 2.386-10.836 3.717-2.964-7.547-6.307-16.172-9.843-25.158.422-.15.854-.351 1.266-.51l-.858-2.424c-.431.16-.895.352-1.322.539-3.292-8.395-6.687-17.152-9.974-25.547 1.8-.652 3.536-1.35 5.285-1.978l-.272-.825c-1.82.67-3.531 1.373-5.327 2.006-10.494-26.855-19.624-50.33-19.934-51.057-.66.16-1.266.488-1.378.511.276.731 9.439 24.202 19.924 51.085-3.315 1.308-6.659 2.602-9.96 3.999-6.185-13.552-10.822-23.523-10.996-23.93-.056 0-.14.028-.14.028s-.507.201-1.018.422c.225.436 4.89 10.547 11.066 23.995-.998.403-1.955.858-2.968 1.266-6.457-13.327-11.296-23.391-11.54-23.799-.46.23-.619.286-1.116.488.202.482 5.111 10.565 11.55 23.812-4.905 2.18-9.8 4.486-14.556 6.975a50010.892 50010.892 0 0 1-26.69-47.728l-1.158.68-.113.065c.38.675 12.595 22.557 26.639 47.668-3.53 1.865-7.038 3.764-10.457 5.742-17.903-28.374-34.31-54.3-34.779-55.055-.544.323-1.135.647-1.135.647s-.131.136-.239.164c.511.834 16.886 26.761 34.775 55.083a279.037 279.037 0 0 0-20.38 13.149c-13.64-16.908-24.51-30.53-24.913-31.018-.089.113-.201.202-.201.202s-.427.286-.877.576c.422.535 11.282 14.1 24.885 30.985a300.566 300.566 0 0 0-21.19 16.64l.581.643a292.909 292.909 0 0 1 21.148-16.585c5.487 6.844 11.376 14.166 17.2 21.437-4.38 3.06-8.656 6.337-12.886 9.708-6.686-7.28-11.62-12.591-11.835-12.802-.431.36-1.266 1.036-1.266 1.036s-.54.445-.92.778c.202.22 5.22 5.513 12.094 12.586-5.045 4.125-9.988 8.344-14.72 12.881l1.764 1.852c4.745-4.533 9.664-8.761 14.724-12.858 2.724 2.86 5.697 5.944 8.76 9.094-7.119 5.77-13.885 11.93-20.328 18.394-7.09-5.775-14.588-11.869-21.66-17.597 4.704-4.852 9.445-9.568 14.485-13.988l-.858-.998c-5.055 4.56-9.898 9.281-14.611 14.137-16.96-13.772-31.3-25.495-31.881-25.978-.39.483-.563.689-.929 1.172.596.51 14.855 12.098 31.783 25.899a255.356 255.356 0 0 0-13.748 15.426 42678.265 42678.265 0 0 0-56.847-38.199c-.08.08-.22.296-.22.296s-.343.431-.685.886c.797.543 28.487 19.097 56.78 38.11-1.997 2.493-3.924 5.039-5.823 7.546-2.992-3.787-7.859-3.112-10.57-2.793-3.418.309-13.598 2.765-14.99-3.727-1.398-6.483-7.419-15.122-11.583-16.936-2.626-1.19-5.716-1.2-8.501-.731-4.942.848-8.108 2.193-12.633-.755-5.036-3.314-8.496-8.128-11.052-13.5 0 0-1.144 19.013 12.581 18.647 13.749-.366 20.553-3.516 22.292 4.73 1.754 8.245 1.768 15.52 12.755 16.2 9.383.506 14.015.154 17.143 4.875-3.156 4.486-6.227 8.948-9.125 13.608-19.929-9.703-38.784-18.849-47.018-22.852-.122.24-.197.44-.197.44s-.966 2.016-1.069 2.227c5.524 2.597 25.462 12.033 47.074 22.154a292.818 292.818 0 0 0-7.756 13.34c-25.438-9.422-48.255-17.798-48.893-18.075-.225.431-.357.652-.61 1.055.765.31 23.526 8.714 48.922 18.108-1.848 3.469-3.648 6.914-5.374 10.43-32.228-10.87-63.519-21.37-64.316-21.624-.277.553-.352.797-.605 1.397 1.013.342 33.509 11.217 64.293 21.59-.427.877-.816 1.796-1.243 2.738-31.098-9.853-63.824-20.133-64.738-20.428 0 0-.286.684-.567 1.383.966.3 32.355 10.19 64.668 20.405-.85 1.856-1.796 3.726-2.612 5.639l1.195.487c.802-1.917 1.773-3.83 2.66-5.77 9.054 2.883 18.17 5.77 26.718 8.47-2.701 5.64-5.074 11.396-7.334 17.222-4.122-.998-8.304-2.043-12.389-3.014 1.735-4.66 3.55-9.21 5.585-13.744l-2.354-1.05c-2.115 4.679-3.957 9.413-5.758 14.161a5185.144 5185.144 0 0 1-26.831-6.454c2.386-6.62 4.928-13.12 7.793-19.547l-.778-.333c-2.87 6.46-5.468 13.05-7.855 19.669-8.74-2.114-14.62-3.535-14.911-3.568-.117.638-.263 1.383-.263 1.383v.052c.338.066 6.106 1.458 14.673 3.516a276.606 276.606 0 0 0-3.93 12.023c-27.788-4.65-51.51-8.653-52.232-8.742-.15.52-.249.769-.385 1.425.84.122 24.487 4.083 52.134 8.733a366.424 366.424 0 0 0-2.912 10.523c-25.11-2.995-45.883-5.484-46.643-5.606-.032.577-.08.9-.183 1.538.755.046 21.467 2.554 46.428 5.521a291.718 291.718 0 0 0-7.916 47.893c-4.91-3.417-11.577-5.962-15.155-5.503-2.884.328-5.59 1.88-7.77 3.792-3.915 3.296-5.932 6.113-11.437 5.878-6.133-.23-11.624-2.657-16.707-6 0 0 8.914 17.166 20.745 9.699 11.844-7.463 16.098-13.725 21.964-7.49 2.776 3.023 5.12 6.06 7.915 7.827-.094 1.393-.225 2.846-.253 4.285-.179 3.919-.207 7.847-.197 11.756-19.465 2.902-34.517 5.147-35.169 5.236.094.605.15.881.235 1.519.633-.117 15.629-2.381 34.952-5.283.207 20.892 2.673 41.574 7.372 61.773-12.014 4.687-20.534 7.992-20.862 8.109.042.197.197.745.3 1.167.436-.15 8.881-3.464 20.81-8.105a361.9 361.9 0 0 0 2.439 9.558c-28.989 12.15-54.45 22.862-55.168 23.19.14.515.244.815.455 1.439.895-.347 26.264-11.049 55.111-23.161.624 2.23 1.248 4.565 1.918 6.83 2.087 6.82 4.469 13.621 7.03 20.25l.796-.277a289 289 0 0 1-6.996-20.24c-.685-2.237-1.299-4.58-1.96-6.878 4.16-1.739 8.328-3.487 12.539-5.31.961 3.525 1.97 7.078 3.057 10.556-5.693 3.15-9.453 5.212-9.64 5.339.102.412.187.684.271 1.008.263-.164 3.99-2.255 9.688-5.349a292.03 292.03 0 0 0 5.463 15.399c-17.584 10.43-31.863 18.89-32.336 19.172.178.45.262.689.473 1.172.549-.328 14.762-8.77 32.285-19.135.01 0 .01 0 .01.028l1.214-.482c-.066-.075-.08-.15-.108-.24 3.596-2.16 7.324-4.33 11.127-6.576.45 1.21.807 2.428 1.29 3.656 1.331 3.342 2.837 6.628 4.295 9.896-11.573 8.048-20.604 14.339-20.886 14.554.043.085.254.572.39.891.37-.258 9.355-6.511 20.866-14.54a269.063 269.063 0 0 0 3.569 7.462c-1.435.248-3.315.122-6.171-.52-9.266-2.246-11.709 5.137-13.097 8.686-1.411 3.534-4.131 14.714-11.212 12.82-7.057-1.89-18.555-.342-22.475 2.864-2.466 1.96-3.995 4.974-4.951 7.927-1.717 5.292-1.951 9.028-7.11 11.948-5.795 3.361-12.27 4.275-18.863 4.083 0 0 18.118 10.707 24.688-2.962 6.597-13.627 6.907-21.863 15.873-19.468 8.946 2.447 16.12 6.155 22.296-4.303 6.153-10.444 7.752-15.225 16.975-14.344 1.557.155 4.183.09 6.977-.825a181.277 181.277 0 0 0 2.94 5.292c-22.437 16.416-43.941 32.124-44.509 32.527.249.394.418.624.694 1.055.699-.51 22.077-16.158 44.406-32.475 3.372 5.943 6.903 11.91 10.715 17.653-9.758 8.456-32.017 27.792-32.955 28.59a532.12 532.12 0 0 0 1.768 1.86s-2.804 2.443-4.891 4.285c.15.164 1.622 1.65 1.74 1.814 3.15-2.813 13.71-12.333 26.306-23.724 9.72 13.824 20.67 26.79 32.716 38.593l.914-.928c-12.037-11.757-22.99-24.727-32.66-38.523 3.09-2.775 6.279-5.625 9.505-8.564 10.485 15.155 22.484 29.19 35.895 41.785l1.754-1.894a215.994 215.994 0 0 1-10.879-10.856c1.482-1.908 4.394-5.513 8.098-9.97 4.816 5.1 9.707 10.18 14.954 14.887l.858-.97c-5.228-4.735-10.175-9.788-14.99-14.916 5.18-6.408 11.483-14.138 16.997-20.93 4.535 5.034 9.266 9.886 14.236 14.428-20.744 29.208-61.779 87.114-62.464 88.075 0 0 .54.412 1.093.853.811-1.2 41.761-58.88 62.412-87.967 2.462 2.227 4.947 4.496 7.517 6.657l2.213-2.672c-2.668-2.18-5.2-4.486-7.737-6.858 5.702-8.04 9.463-13.341 9.665-13.603a23.672 23.672 0 0 1-1.023-.938c-.258.394-4.004 5.658-9.692 13.645-4.938-4.542-9.57-9.332-13.992-14.301a3826.656 3826.656 0 0 0 10.428-12.82c-.347-.404-.563-.605-.994-1.116-.46.548-4.797 5.915-10.433 12.801-4.703-5.31-9.22-10.814-13.374-16.584-1.941-2.672-3.746-5.447-5.575-8.194 6.804-6.14 11.348-10.224 11.591-10.453-.43-.624-1.162-1.674-1.702-2.48-.455.403-5.345 4.66-11.685 10.116-2.978-4.744-5.73-9.633-8.342-14.602 7.657-5.606 12.75-9.342 12.98-9.488-.23-.43-.31-.585-.582-1.096-.375.248-5.388 3.88-12.993 9.492-.024-.08-.08-.155-.08-.202 2.457-1.865 4.816-3.928 7.01-5.958 6.982-6.253 9.003-8.343 9.003-8.343s-.483-3.633-3.085-2.157c-1.74 1.041-5.946 4.824-9.454 7.833a310.81 310.81 0 0 0-5.739 4.214c-1.43-3.004-2.86-5.981-4.15-9l-3.128 1.364c1.332 3.178 2.833 6.31 4.343 9.394-3.128 1.664-7.076 2.93-11.512 1.664-.314-.089-.675-.089-.97-.145a228.983 228.983 0 0 1-3.48-7.706c14.067-9.76 25.907-18.02 26.23-18.249-.121-.31-.191-.548-.323-.923-.51.318-12.295 8.54-26.301 18.262-1.585-3.797-3.03-7.636-4.445-11.555 15.164-9.033 26.812-15.919 27.187-16.158a20.919 20.919 0 0 1-.394-1.19c-.52.328-12.145 7.214-27.183 16.106-1.017-2.887-2.02-5.85-2.912-8.808a110.616 110.616 0 0 1-1.552-5.56c14.926-8.202 27.432-15.13 27.741-15.313-.028-.403-.08-.605-.15-1.027-.534.24-13.017 7.167-27.872 15.399-.511-1.997-.994-3.938-1.482-5.85 16.403-6.915 28.088-11.827 28.576-12.038-.136-.534-.216-.816-.347-1.505-.652.258-12.295 5.175-28.58 12.014a176.696 176.696 0 0 1-1.754-8.076c16.144-6.253 28.524-11.077 28.927-11.25-.108-.432-.122-.633-.202-1.153-.581.21-12.9 4.968-28.97 11.25-1.476-8.049-2.602-16.13-3.258-24.315 2.935-.787 7.301-1.94 11.807-3.098.418 6.01 1.05 12.033 1.979 17.972l3.4-.54a204.27 204.27 0 0 1-2.007-18.346c7.179-1.875 13.8-3.642 14.475-3.816-.028-.698-.108-1.439-.16-2.428-.768.248-6.878 1.795-14.493 3.773-.282-4.771-.333-9.539-.282-14.292 8.356-1.51 14.068-2.545 14.452-2.601.024-.558.024-.886.024-1.529-.54.075-6.228 1.125-14.424 2.62 0-1.284-.052-2.563.028-3.829 0-.22.042-.483.042-.703 8.558-1.29 14.138-2.142 14.475-2.208.015-.422.043-1.027.043-1.481-.46.08-5.988.942-14.438 2.16.051-1.016.108-2.08.164-3.112 4.562.464 9.608-.333 14.246-1.2 8.487-1.486 11.108-2.114 11.108-2.114s1.374-3.112-1.346-3.169c-2.78-.145-12.595 1.885-16.257 1.978-1.941 0-4.637.174-7.376-.459.178-2.353.366-4.795.661-7.12 8.328-.572 14.02-.97 14.382-.97.122-.882.281-2.391.455-3.6-.605.074-6.33.327-14.312.843a219.8 219.8 0 0 1 3.681-20.17c6.725.403 13.29.74 14.044.768.08-.51.179-.768.324-1.457-.999-.033-7.39-.375-14.002-.732.868-3.754 1.923-7.486 3.039-11.222 8.187.97 13.42 1.608 13.725 1.646.15-.483.23-.797.445-1.454-.417 0-5.617-.651-13.72-1.621.75-2.41 1.51-4.754 2.316-7.116 8.089 1.34 13.2 2.217 13.538 2.273.173-.534.267-.787.483-1.457-.403-.029-5.5-.877-13.481-2.241.576-1.697 1.158-3.37 1.805-5.03l-3.18-1.251a245.391 245.391 0 0 0-2.077 5.704c-7.4-1.21-16.646-2.793-26.826-4.486.99-2.967 2.143-5.943 3.24-8.854 22.184 5.31 42.38 10.172 42.92 10.307.08-.51.173-.759.318-1.453-.684-.15-20.679-4.973-42.755-10.247 2.27-5.775 4.652-11.536 7.334-17.165 4.408 1.392 8.6 2.765 12.618 3.998a.722.722 0 0 0-.15.23l1.534.74c.07-.173.164-.328.257-.482 15.826 4.996 27.094 8.587 27.53 8.704.47-.886 1.52-2.972 2.125-4.12-.605-.244-11.695-3.97-27.282-9.188 1.594-3.089 3.208-6.117 4.933-9.122 15.343 5.696 26.583 9.825 27.014 9.952.244-.375.38-.586.647-1.05-.52-.202-11.713-4.322-27.056-9.994.746-1.181 1.393-2.4 2.115-3.581 11.709 5.062 25.363 10.945 26.184 11.34.281-.484.44-.723.806-1.28-1.116-.488-14.587-6.3-26.226-11.354 1.004-1.645 2.096-3.22 3.123-4.866 11.254 5.311 20.027 9.432 23.37 10.983-.862.914-1.734 1.838-2.531 2.78l3.68-3.9zm378.375 141.334a77.09 77.09 0 0 1-.398 3.277c-4.638-1.495-8.249-2.602-10.607-3.352 3.273.038 7.746-.047 11.005.075zM440.996 235.613c-3.69-1.805-7.69-3.717-11.802-5.695 2.799-4.275 5.702-8.48 8.764-12.563 1.05 1.135 1.908 2.794 2.288 5.255.473 3.197 2.063 5.705 4.323 7.762-1.2 1.74-2.41 3.488-3.573 5.241zm-4.173 6.469c-4.83-2.086-9.167-3.942-12.056-5.213 1.07-1.767 2.19-3.548 3.31-5.325 4.16 2.007 8.15 3.872 11.925 5.649-1.078 1.612-2.166 3.22-3.18 4.889zm-2.884 4.973c-3.939-1.43-8.117-2.976-12.43-4.528a361.551 361.551 0 0 1 2.508-4.364c2.846 1.228 7.198 3.122 12.065 5.232-.732 1.204-1.444 2.46-2.143 3.66zm-5.58 10.276c-3.967-1.383-8.14-2.747-12.51-4.22 1.186-2.371 2.372-4.748 3.615-7.091.454-.811.984-1.627 1.425-2.452 4.31 1.575 8.52 3.15 12.417 4.594-1.688 3.019-3.357 6.047-4.947 9.169zm12.637 5.826l-.59 1.819s-4.666-1.472-12.103-3.825c.323-.633.647-1.275 1.027-1.94 7.179 2.404 11.666 3.946 11.666 3.946zm-14.363-2.545c-3.638-1.14-7.929-2.494-12.618-3.947.38-.74.778-1.458 1.158-2.217 4.614 1.575 8.853 2.967 12.483 4.204-.31.666-.7 1.336-1.023 1.96zm-13.804-4.369c-8.145-2.517-17.369-5.428-26.827-8.405.464-.928.858-1.818 1.27-2.751 9.398 3.154 18.603 6.248 26.635 8.958-.347.74-.783 1.467-1.078 2.198zm-19.578-22.866a3289.62 3289.62 0 0 1 26.4 9.76c-.431.722-.89 1.462-1.322 2.245-1.322 2.428-2.48 4.875-3.723 7.345-8.502-2.854-17.627-5.915-26.667-8.972 1.683-3.53 3.521-6.98 5.312-10.378zm8.29-14.283c8.483 3.966 17.177 8.077 25.364 11.93-1.125 1.805-2.227 3.544-3.32 5.363-1.242-.591-2.105-.924-2.293-1.041-.243.553-.351.825-.562 1.402.16.028.952.393 2.086.904-.848 1.458-1.683 2.935-2.546 4.392a6764.217 6764.217 0 0 0-26.428-9.754c2.443-4.463 5.055-8.855 7.7-13.196zm9.885-14.916c.268.525.54.97.784 1.604 1.237 3.398 6.616 11.372 17.302 9.431 1.703-.267 4.994-.67 7.527 1.219a203.66 203.66 0 0 0-9.004 12.919c-8.102-3.975-16.782-8.17-25.274-12.282 2.79-4.36 5.66-8.686 8.665-12.89zm10.743-14.072a6012.027 6012.027 0 0 1 23.305 15.647c-1.955 2.344-3.91 4.679-5.795 7.107-3.344-2.855-7.573-4.796-11.292-4.824-6.677 0-9.102 1.453-11.179-7.008-.281-1.176-.74-2.146-1.214-2.99 2.035-2.672 4.046-5.34 6.175-7.932zm14.654-16.448c7.062 5.728 14.555 11.803 21.621 17.588-4.206 4.293-8.168 8.77-12.023 13.364a4514.9 4514.9 0 0 0-23.267-15.647c4.352-5.307 8.952-10.374 13.669-15.305zm20.529 40.046c-3.414 4.03-6.645 8.222-9.772 12.468-1.243-1.457-2.242-3.239-2.673-5.503-.483-2.447-2.073-4.926-4.258-6.965 1.913-2.452 3.897-4.847 5.88-7.247 3.813 2.53 7.428 4.973 10.823 7.247zm2.091-21.629c3.555 2.888 6.978 5.677 10.19 8.288-3.831 3.844-7.498 7.847-11.03 11.91-5.523-3.698-9.959-6.735-10.498-7.087-.117.23-.258.352-.258.352s-.108-.052-.338-.225c3.822-4.57 7.78-8.986 11.934-13.238zm21.265-19.336c6.528 6.797 13.214 13.772 18.565 19.336a203.019 203.019 0 0 0-17.94 15.905c-2.805-2.306-5.937-4.852-9.328-7.617a253.226 253.226 0 0 1 9.674-9.117l-1.158-1.257c-3.395 3.005-6.63 6.136-9.843 9.338-3.202-2.64-6.654-5.419-10.184-8.302 6.414-6.455 13.153-12.581 20.214-18.286zm23.568 15.525c-1.186.919-2.485 1.767-3.643 2.733a18315.29 18315.29 0 0 1-18.143-19.603 163.92 163.92 0 0 1 4.37-3.357 5722.375 5722.375 0 0 1 17.416 20.227zm-31.286-27.136a278.008 278.008 0 0 1 12.712-9.61c9.66 12.005 18.973 23.555 25.551 31.773-1.964 1.308-3.863 2.7-5.795 4.097a10131.367 10131.367 0 0 1-17.411-20.279c.872-.647 1.693-1.307 2.584-1.982l-.783-1.018c-.887.657-1.75 1.383-2.655 2.058-1.899-2.226-3.17-3.745-3.409-3.947-.426.356-.656.549-1.12.928.258.282 1.472 1.74 3.371 3.92a195.342 195.342 0 0 0-4.422 3.37c-3.005-3.244-5.94-6.404-8.623-9.31zm-5.003-33.797a278.493 278.493 0 0 1 20.341-13.111c4.863 7.734 9.866 15.59 14.677 23.231-4.23 2.452-8.37 5.077-12.44 7.735-4.53-6.061-7.723-10.374-8.047-10.796-.46.366-.675.54-1.158.877.29.431 3.489 4.706 7.948 10.767-1.388.905-2.762 1.72-4.121 2.681a3068.974 3068.974 0 0 0-17.2-21.384zm32.134-19.655c4.394 7.88 8.966 16.027 13.37 24.01a208.876 208.876 0 0 0-9.098 4.982c-4.834-7.64-9.828-15.52-14.677-23.283a233.608 233.608 0 0 1 10.405-5.71zm15.798-7.674c3.723 7.674 7.897 16.276 12 24.7a252.293 252.293 0 0 0-13.078 6.309c-4.45-7.965-9.027-16.168-13.425-24.015 4.787-2.48 9.626-4.781 14.503-6.994zm4.084-1.734c3.494 7.599 7.47 16.252 11.418 24.858-.778.324-1.59.745-2.372 1.083a8481.896 8481.896 0 0 1-11.986-24.718c.957-.389 1.928-.843 2.94-1.223zm10.973-4.472c3.315 8.395 6.673 17.082 9.988 25.533a359.894 359.894 0 0 0-8.408 3.328c-4.009-8.681-7.957-17.353-11.45-24.877 3.254-1.439 6.569-2.78 9.87-3.984zm-.82 32.71c.792-.333 1.533-.722 2.316-1.036a59479.149 59479.149 0 0 0 17.064 37.017c-.535.258-1.079.497-1.618.661-3.775-7.748-10.621-21.937-17.763-36.642zm-14.077 6.703a273.566 273.566 0 0 1 12.97-6.164c7.821 16.078 15.085 31.074 17.767 36.605-1.538.694-3.114 1.303-4.638 2.044-2.133.97-4.192 1.983-6.25 3.033-5.06-9.015-12.192-21.765-19.85-35.518zm-10.35 5.644a214.247 214.247 0 0 1 9.032-4.922c7.643 13.678 14.77 26.442 19.84 35.48a175.12 175.12 0 0 0-7.156 3.816c-5.458-8.663-13.251-21.01-21.715-34.374zm9.3 41.888c-.92.595-1.764 1.2-2.669 1.823-6.602-8.278-15.905-19.795-25.528-31.87 1.266-.896 2.654-1.749 3.986-2.625 7.226 9.73 17.092 23.044 24.21 32.672zm-22.968-33.493c4.014-2.667 8.14-5.189 12.332-7.612 8.427 13.392 16.192 25.692 21.664 34.416a165.778 165.778 0 0 0-9.814 5.897c-7.114-9.605-16.942-22.974-24.182-32.7zm59.725 20.227c-.173.052-.83.36-1.467.633a74.39 74.39 0 0 1-.891-1.824c.501-.262 1.022-.454 1.528-.642.333.727.629 1.331.83 1.833zm-.08-20.588c-.145 0-.285.075-.389.09l.591 1.63c.164-.056.31-.117.436-.187 1.6 4.135 3.072 7.899 4.352 11.199a196.837 196.837 0 0 0-6.026 2.423c-4.506-9.727-10.757-23.349-17.068-37.027a210.19 210.19 0 0 1 8.332-3.276c3.466 8.948 6.823 17.531 9.773 25.148zm13.712-2.939c2.508 2.84 3.315 6.483 3.962 8.813.122.61.267 1.41.403 2.386-3.91 1.195-7.803 2.489-11.713 3.96-1.266-3.29-2.739-7.04-4.328-11.132a187.828 187.828 0 0 1 11.676-4.027zM560.4 125.47c5.032-9.511-1.331-16.224-4.365-18.15-2.453-1.641-3.761-3.235-4.3-5.096 3.507-1.158 7.104-2.142 10.658-3.122a168.95 168.95 0 0 1 1.083 4.243l-.998.253c.267.989 5.2 19.64 9.678 36.586-.84.173-1.594.45-2.373.661-1.294-1.584-2.968-2.963-5.172-3.783-8.168-3.131-5.425-9.192-4.21-11.592zm18.991-30.413c1.637 9.047 3.334 18.502 4.952 27.45-4.422.877-8.844 1.847-13.158 3.028l.32 1.22c4.304-1.135 8.683-2.087 13.077-2.982.778 4.444 1.576 8.775 2.321 12.83-4.197.9-8.36 1.87-12.482 2.934a26112.635 26112.635 0 0 1-10.579-40.8 245.475 245.475 0 0 1 15.55-3.68zm8.16-1.481c1.21 9.192 2.48 18.675 3.676 27.61-1.815.323-3.625.674-5.407.984-1.613-8.878-3.343-18.37-4.97-27.46 2.222-.375 4.464-.74 6.7-1.134zm16.322-2.302a5287.48 5287.48 0 0 0 2.251 27.77c-4.61.515-9.195 1.185-13.749 1.977-1.172-8.943-2.424-18.426-3.643-27.656 5.003-.811 10.058-1.538 15.141-2.09zm3.451 42.08a263.115 263.115 0 0 0-13.05 1.885c-.548-4.07-1.144-8.475-1.72-12.961 4.539-.77 9.092-1.458 13.692-1.95.338 4.514.684 8.878 1.078 13.026zm-18.667 4.688c1.561-.29 3.1-.619 4.66-.9.596 4.336 1.103 8.41 1.581 11.944-1.392.201-2.738.436-4.14.665a2028.02 2028.02 0 0 1-2.101-11.71zm-2.63-14.592c1.762-.324 3.558-.69 5.364-.98.581 4.5 1.19 8.906 1.697 12.989-1.575.267-3.137.563-4.731.89-.755-4.082-1.538-8.414-2.33-12.9zm-10.396 29.953c-.563.15-1.13.352-1.656.487-.445-4.12-1.224-8.287-3.165-11.536.563-.173 1.154-.389 1.777-.539 1.079 4.102 2.087 8.058 3.044 11.588zm-.812-12.192c4.103-1.107 8.225-2.035 12.38-2.86.74 4.261 1.481 8.222 2.1 11.714-3.84.793-7.68 1.67-11.455 2.668-.929-3.446-1.941-7.37-3.025-11.522zm33.598 5.915a203.832 203.832 0 0 0-12.375 1.725c-.431-3.515-.998-7.533-1.566-11.91 4.286-.732 8.6-1.374 12.933-1.89.384 4.411.694 8.466 1.008 12.075zm22.142-13.462c-.211 4.087-.417 8.222-.647 12.033-6.072.093-12.089.43-18.044 1.026-.248-3.6-.525-7.669-.811-11.967 6.47-.633 12.956-1.036 19.502-1.092zm.77-14.785c-.16 3.506-.404 8.133-.671 13.06-6.617.08-13.243.487-19.751 1.125-.281-4.238-.59-8.644-.9-13.102 7.09-.675 14.208-1.008 21.321-1.083zm1.523-.037c3.006 0 6.049.037 9.073.15 1.037.051 2.05.145 3.072.215-.54 4.496-1.074 8.935-1.562 12.975-.675-.042-1.294-.089-1.997-.136-3.1-.107-6.2-.107-9.285-.107.286-4.927.493-9.554.699-13.097zm13.631.417c2.842.178 5.698.3 8.516.553-.84 4.514-1.604 8.855-2.345 12.966-2.574-.249-5.177-.352-7.75-.511.5-4.083 1.012-8.424 1.58-13.008zm1.613-13.852c3.17.202 6.312.38 9.397.666-.769 4.237-1.524 8.405-2.25 12.46-2.86-.273-5.745-.394-8.614-.54.483-4.083.984-8.26 1.467-12.586zm3.63-29.916c3.732.286 7.465.544 11.146.97-1.538 8.57-3.236 17.926-4.905 27.104-3.156-.342-6.34-.53-9.519-.708 1.093-9.037 2.237-18.338 3.278-27.366zm12.571 1.083c2.875.31 5.745.67 8.6 1.102-1.885 8.676-3.854 17.869-5.796 26.883-2.56-.338-5.134-.582-7.732-.835 1.698-9.234 3.357-18.525 4.928-27.15zm9.993 1.261a282.99 282.99 0 0 1 40.828 9c-3.142 8.09-6.565 16.89-9.974 25.636-4.768-1.401-9.57-2.573-14.414-3.694 3.362-10.551 5.852-18.487 5.974-18.867a7.031 7.031 0 0 1-.74-.192c-.151.342-2.725 8.55-5.998 18.9-.62-.084-1.187-.248-1.81-.366 3.132-10.392 5.613-18.68 5.716-19.068 0 0-.404-.132-.722-.188-.113.295-2.51 8.405-5.735 19.106-6.279-1.345-12.562-2.517-18.92-3.393 1.922-9 3.91-18.193 5.795-26.874zm42.01 9.286a414.02 414.02 0 0 1 9.978 3.22c4.802 1.646 9.477 3.455 14.1 5.283-3.826 8.203-7.844 16.67-11.699 24.915-7.371-2.907-14.785-5.522-22.362-7.749 3.423-8.742 6.86-17.56 9.983-25.669zm-10.105 41.546c1.36-3.132 2.316-5.297 2.452-5.677a29.99 29.99 0 0 0-1.35-.548c-.132.318-1.13 2.573-2.504 5.775-1.35-.375-2.668-.722-4.014-1.125 1.51-3.9 3.043-7.861 4.605-11.888a251.7 251.7 0 0 1 22.193 7.669c-1.866 3.881-3.643 7.734-5.397 11.423-5.257-2.03-10.597-3.97-15.985-5.63zm-.511 1.21c5.387 1.63 10.7 3.562 15.929 5.605-1.951 4.154-3.855 8.129-5.59 11.916-5.153-2.034-10.302-3.881-15.572-5.46 1.955-4.487 3.802-8.729 5.233-12.062zm-5.365-1.576c1.304.366 2.63.727 3.934 1.144-1.444 3.342-3.287 7.589-5.2 12.033-1.172-.333-2.358-.633-3.503-.928 1.492-3.882 3.123-8.02 4.77-12.249zm-14.64-3.708c4.53.97 9.004 2.09 13.45 3.342-1.665 4.29-3.316 8.415-4.798 12.25-4.178-1.13-8.38-2.18-12.632-3.113a1765.76 1765.76 0 0 0 3.98-12.479zm-6.039 12.075c1.158-3.88 2.48-8.222 3.775-12.623.497.136 1.008.253 1.482.375l-3.94 12.52c-.43-.07-.885-.215-1.317-.272zm-.487 1.632c.43.093.834.22 1.256.295-.51 1.645-.999 3.127-1.444 4.556-.352-.117-.614-.243-.727-.295-.656 2.142-1.796 5.752-2.898 9.267l-.286-.094s1.702-5.751 4.099-13.73zm-14.204-17.316c5.983.769 11.887 1.673 17.74 2.91-1.295 4.248-2.538 8.462-3.804 12.587-5.5-1.092-11.07-1.969-16.702-2.724.881-4.003 1.795-8.287 2.766-12.773zm-1.378-.174c-.966 4.486-1.914 8.757-2.748 12.816-2.251-.272-4.502-.562-6.739-.755.755-4.045 1.506-8.395 2.345-12.909 2.396.216 4.769.51 7.142.848zm.286-1.28c-2.401-.3-4.774-.576-7.212-.852.755-4.027 1.496-8.218 2.265-12.45 2.574.276 5.068.53 7.629.853-.929 4.228-1.81 8.418-2.682 12.45zm19.206 3.127a246.359 246.359 0 0 0-17.847-2.981c.891-4.055 1.81-8.203 2.725-12.422 6.297.848 12.506 1.992 18.71 3.277-1.102 3.853-2.35 7.936-3.588 12.126zm6.846-11.404a255.276 255.276 0 0 1 14.274 3.618c-1.547 4.027-3.113 8.002-4.605 11.841a237.733 237.733 0 0 0-13.48-3.342c1.317-4.163 2.625-8.288 3.811-12.117zm-4.58 11.91c-.517-.117-1-.238-1.52-.29 1.196-4.111 2.452-8.231 3.606-12.155.595.103 1.172.244 1.74.352-1.234 3.876-2.56 8.01-3.827 12.094zm59.2-25.762a265.54 265.54 0 0 1 18.873 8.789c-6.068 9.502-14.77 23.227-23.038 36.164-4.782-2.33-9.64-4.542-14.555-6.539 1.815-3.717 3.681-7.514 5.623-11.46a267.725 267.725 0 0 1 10.888 4.823l1.106-2.293c-3.6-1.734-7.24-3.356-10.92-4.809 3.962-8.166 8.06-16.613 12.022-24.675zm19.802 9.248c7.47 3.811 14.761 8.002 21.903 12.488-2.612 3.16-5.496 6.736-8.586 10.528-5.379-3.305-10.823-6.539-16.408-9.487l-.618 1.148a253.496 253.496 0 0 1 16.182 9.361 3211.527 3211.527 0 0 1-17.796 21.76c-4.66-2.775-9.481-5.508-14.372-8.054-1.078-.557-2.232-1.05-3.315-1.607 7.024-11.035 16.417-25.772 23.01-36.137zm23.145 13.313c1.172.698 2.288 1.44 3.423 2.18-.97 6.642-1.482 10.701-4.422 13.247-2.522-1.67-5.04-3.343-7.558-4.918 3.085-3.83 5.997-7.382 8.557-10.509zm4.23 20.672c9.927 7.12 19.328 14.911 28.256 23.307-7.277 6.117-14.667 12.262-21.555 18-4.676-4.294-9.454-8.42-14.452-12.347 8.117-8.55 14.817-15.586 15.075-15.84-.45-.468-1.632-1.687-1.796-1.889-.347.38-8.464 9.305-15 16.416-2.682-2.03-5.355-4.026-8.089-5.967 1.862-2.602 3.142-5.513 3.437-8.142.675-6.83-.577-9.474 8.276-10.777 2.79-.36 4.638-1.43 5.848-2.76zm-40.988 38.415c2.18-3.057 5.632-8.612 12.276-9.22 3.71-.362 7.526-3.085 10.354-6.517 2.71 1.913 5.369 3.92 8.032 5.911-4.093 4.463-7.3 7.979-7.3 7.979s-5.515 5.995-10.828 11.845c-4.272-3.225-8.651-6.169-13.144-9.098.216-.324.437-.67.61-.9zm19.38-24.446c.07 1.11.122 2.91-.403 4.65-3.057-2.034-6.185-4.097-9.378-5.967 5.955-7.318 12.154-14.893 17.776-21.802 2.415 1.505 4.802 3.127 7.156 4.692-.985.656-2.167 1.181-3.756 1.636-3.56.97-12.243 5.677-11.395 16.791zm-10.607-.319a223.944 223.944 0 0 1 9.759 6.235c-1.046 2.184-3.26 4.073-7.733 4.33-7.17.404-11.568 6.371-15.029 12.798-1.336-.834-2.7-1.627-4.084-2.414 4.718-5.794 10.752-13.163 17.087-20.949zm-27.755 3.572s3.705-5.864 8.858-13.978c1.158.553 2.321 1.078 3.447 1.673 4.853 2.48 9.537 5.143 14.16 7.936-6.367 7.8-12.378 15.197-17.096 21.005a228.672 228.672 0 0 0-14.677-7.814c2.762-4.303 5.27-8.18 5.538-8.677-.075-.07-.23-.145-.23-.145zm49.133 26.532c-.647.59-5.927 5.118-11.258 9.722-1.684-1.383-3.363-2.785-5.065-4.079 5.515-5.77 12.333-12.993 18.536-19.495 4.92 3.834 9.665 7.96 14.34 12.244-7.953 6.642-15.15 12.637-20.73 17.297-1.956-1.692-3.912-3.39-5.904-5.049 5.233-4.514 10.405-8.958 11.08-9.553a30.062 30.062 0 0 0-.999-1.087zm21.734 3.215c-2.996 2.24-6.743 5.002-10.71 7.936-.722-.66-1.374-1.43-2.114-2.09l-1.159 1.247c.661.604 1.243 1.275 1.876 1.912-3.292 2.4-6.593 4.875-9.678 7.153-1-.947-2.05-1.804-3.062-2.733 5.594-4.668 12.792-10.645 20.707-17.278 1.388 1.27 2.8 2.56 4.14 3.853zm-.76 20.522a2454.31 2454.31 0 0 0-10.24 6.455c-3.128-3.328-6.354-6.642-9.683-9.81 3.052-2.246 6.367-4.712 9.664-7.14a249.133 249.133 0 0 1 10.26 10.495zm1.792-19.444c3.765 3.694 7.376 7.52 10.883 11.415-3.83 2.456-7.62 4.856-11.244 7.115-3.32-3.614-6.738-7.153-10.326-10.594 4.014-2.948 7.747-5.714 10.687-7.936zm14.227 15.104l.942-.792c-.84-.999-1.702-1.89-2.546-2.86 3.648-2.301 7.315-4.617 10.86-6.83a267.803 267.803 0 0 1 8.544 10.294c-8.488 4.528-16.83 8.986-24.224 12.924-2.42-2.94-4.97-5.794-7.545-8.583 3.625-2.302 7.441-4.692 11.268-7.116.89 1.022 1.838 1.969 2.7 2.963zm27.21 12.647c-8.758 4.336-17.1 8.433-24.49 12.084-2.66-3.745-5.496-7.415-8.357-10.96 7.4-3.974 15.747-8.404 24.168-12.946a266.905 266.905 0 0 1 8.68 11.822zm5.675 8.47c-8.328 3.136-17.547 6.628-26.016 9.811-1.073-1.631-2.114-3.276-3.235-4.851 7.348-3.61 15.718-7.735 24.52-12.057 1.575 2.353 3.197 4.716 4.73 7.097zm5.364 8.906c-9.111 3.061-18.128 6.094-26.217 8.79-.202-.366-.417-.741-.633-1.064-1.29-2.091-2.72-4.055-4.098-6.118 8.496-3.183 17.71-6.698 25.963-9.773a257.59 257.59 0 0 1 4.985 8.165zm7.498 14.002c-1.43-.305-3.114-1.092-5.378-1.912-6.27-2.114-16.431.942-19.667 6.543-.516.891-1.134 1.641-1.782 2.283a211.29 211.29 0 0 0-6.32-11.156 9024.98 9024.98 0 0 1 26.245-8.79 258.638 258.638 0 0 1 6.902 13.032zm21.973-22.706c3.419 6.304 6.617 12.628 9.552 19.186-3.76-.333-8.089-2.92-10.091-3.877-3.128-1.43-9.308-4.701-14.025 2.574-1.8 2.784-3.203 4.204-4.577 4.701-2.293-4.636-4.694-9.244-7.282-13.73 9.247-3.07 18.358-6.154 26.423-8.854zm11.32 23.194a274.334 274.334 0 0 1 11.282 30.769c-4.192.576-8.722 1.275-13.519 1.969-.675-2.077-1.364-4.177-2.035-6.32 1.322-.229 2.143-.365 2.359-.402-.122-.61-.188-.896-.272-1.472-.188.018-1.13.192-2.589.483-1.913-5.574-3.962-11.115-6.27-16.571l-1.18.46c2.25 5.39 4.271 10.846 6.133 16.28-2.912.576-7.362 1.382-12.59 2.352a261.668 261.668 0 0 0-9.304-22.917c2.48-1.144 4.328-2.794 5.27-3.905 5.487-6.337 9.529-4.176 20.075-1.242.97.272 1.833.38 2.64.516zm-33.317 31.65c4.375-.787 8.675-1.552 12.572-2.236.549 1.603 1.229 3.23 1.768 4.89l2.4-.816c-.487-1.5-1.082-3.029-1.622-4.543 5.285-.951 9.707-1.781 12.623-2.287.694 2.104 1.37 4.186 2.059 6.3-9.05 1.345-18.724 2.784-27.97 4.148a276.027 276.027 0 0 0-1.83-5.456zm-1.284.234c.66 1.796 1.228 3.647 1.847 5.433-4.53.694-8.91 1.364-13.101 1.992a247.245 247.245 0 0 0-1.806-5.09c4.296-.75 8.732-1.538 13.06-2.335zm-6.082-19.031c-1.538.412-12.773 3.323-14.34 3.698-.876-1.786-1.781-3.58-2.654-5.428 1.21-.97 2.289-2.123 3.086-3.637 4.075-7.641 10.161-4.758 12.52-3.46 4.44 2.461 8.37 2.461 11.662 1.528a257.58 257.58 0 0 1 9.195 22.43c-8.187 1.477-17.875 3.207-26.986 4.843a233.631 233.631 0 0 0-6.208-14.883c7.366-1.913 13.434-3.488 14.128-3.69-.16-.562-.21-.824-.403-1.401zm47.773 71.283c-9.247-.248-18.949-.478-28.116-.759-.76-6.173-1.717-12.314-2.969-18.431 4.305-.22 7.283-.403 7.71-.403-.052-.877-.16-2.902-.16-2.902s15.418-1.036 17.12-1.163a27.077 27.077 0 0 0-.108-1.448c-.731.019-12.079.778-25.504 1.697-1.67-7.425-3.667-14.86-6.063-22.168 9.242-1.364 18.892-2.817 27.942-4.148 4.971 16.252 8.342 32.888 10.148 49.725zm1.618 23.94c-8.779-1.088-18.537-2.222-28.037-3.394-.244-6.713-.727-13.369-1.533-19.969 9.176.263 18.864.511 28.125.778.77 7.472 1.294 14.986 1.445 22.585zm-5.121 41.363c-1.5-1.608-4.905-4.153-9.392-4.97.478-4.063.895-8.193 1.153-12.341 4.14.834 8.314 1.701 12.562 2.46-.417 5.715-.98 11.42-1.79 17.04a16 16 0 0 1-2.533-2.19zm-11.38 8.855c.351-2.344.768-4.697 1.162-7.097 2.209-.272 4.113.815 7.17 5.001 1.374 1.885 2.79 3.028 4.178 3.699-.108.787-.202 1.537-.347 2.268-4.06-1.298-8.173-2.573-12.164-3.871zm-1.117 5.878c.31-1.44.554-2.911.807-4.37 4.06 1.248 8.13 2.546 12.23 3.83-.324 1.627-.596 3.202-.93 4.787-3.98-1.393-8.079-2.846-12.107-4.247zm-.23 1.401c3.991 1.42 8.033 2.846 12.052 4.228-.741 3.427-1.468 6.933-2.345 10.308-.46 1.861-.999 3.764-1.482 5.579a2562.797 2562.797 0 0 1-11.826-4.81 318.742 318.742 0 0 0 3.602-15.305zm-14.489-5.062c3.92 1.354 7.967 2.756 12.004 4.2a251.088 251.088 0 0 1-3.516 15.136c-4.028-1.575-7.967-3.216-11.789-4.763 1.238-4.851 2.373-9.684 3.301-14.573zm-16.754 9.089a248.937 248.937 0 0 0 3.071-13.917c3.967 1.401 8.14 2.887 12.469 4.368a254.79 254.79 0 0 1-3.301 14.57c-4.277-1.787-8.356-3.418-12.239-5.021zm-.408 1.486c3.91 1.575 8.037 3.248 12.295 4.969a244.275 244.275 0 0 1-5.674 18.412c-.014.075-.042.075-.056.155-4.14-1.922-8.15-3.773-11.957-5.54 2.049-5.921 3.882-11.935 5.392-17.996zm-9.706-19.997c3.455 1.2 7.333 2.545 11.511 4.036a201.91 201.91 0 0 1-3.015 13.81c-4.07-1.641-7.85-3.17-11.244-4.571 1.055-4.388 1.997-8.799 2.748-13.275zm29.672-23.696c-4.53-.914-8.886-1.776-12.928-2.606 0-.91.108-1.88.122-2.85l-1.697-.061c-.042.886-.099 1.767-.127 2.644-4.375-.877-8.314-1.702-11.915-2.4 0-.22.028-.464.028-.666.216-6.253.15-12.455-.136-18.68 7.62.91 17.092 2.025 26.907 3.253.173 5.447.243 10.875.028 16.397-.08 1.627-.202 3.314-.282 4.97zm3.278 19.702c-.933.534-2.4 1.364-4.126 1.823.994-6.562 1.617-13.158 2.02-19.767 4.029.797 8.22 1.669 12.469 2.456-.31 4.238-.717 8.433-1.2 12.68-2.804-.028-5.876.722-9.163 2.808zm-1.407 7.673c1.984-.046 3.855-.356 5.491-1.017 1.632-.684 2.936-1.289 4.15-1.786-.314 1.87-.661 3.718-.985 5.56-2.912-.942-5.795-1.833-8.656-2.757zm-3.718.432a1267 1267 0 0 1 12.117 3.806c-.282 1.42-.535 2.888-.821 4.313-4.047-1.425-8.06-2.808-11.971-4.21.239-1.308.431-2.601.675-3.91zm-8.572-11.161c-1.013-1.632-2.293-2.883-3.751-3.91.539-4.575.881-9.173 1.163-13.795 4.037.787 8.407 1.71 12.923 2.573-.431 6.783-1.102 13.5-2.087 20.204-2.644.21-5.66-.704-8.248-5.072zm-5.013 5.283c.132-.741.24-1.594.361-2.354.282.32.526.558.741.952.647.942 1.524 1.748 2.453 2.517-1.238-.337-2.373-.769-3.555-1.115zm-.243 1.476c3.962 1.242 8.21 2.606 12.585 3.97-.215 1.299-.427 2.611-.642 3.92-4.385-1.52-8.577-3.005-12.525-4.37.202-1.18.366-2.353.582-3.52zm-11.901-14.34c.431-4.274.74-8.55.923-12.815 3.578.685 7.564 1.49 11.92 2.325-.23 4.42-.567 8.79-1.055 13.125-3.39-1.79-7.521-2.451-11.788-2.634zm10.255 13.862c-.193 1.116-.38 2.231-.582 3.398-4.187-1.457-8.018-2.821-11.47-4.05.137-1.007.273-2.01.432-3.028 3.48 1.088 7.414 2.316 11.62 3.68zm-11.418-5.175c.201-1.336.337-2.681.553-4.045 3.184.421 7.953 1.026 11.582 4.223a449.243 449.243 0 0 1-.478 3.506c-4.23-1.34-8.164-2.601-11.657-3.684zm.15-62.494c-.783-5.447-1.806-10.758-2.997-16.13 9.008-.46 19.709-1.135 27.122-1.482 1.238 6.052 2.18 12.165 2.94 18.272-10.19-.22-19.722-.487-27.065-.66zm27.276 2.015a254.696 254.696 0 0 1 1.515 19.866c-9.838-1.19-19.291-2.363-26.934-3.248a230.93 230.93 0 0 0-1.67-17.33c7.33.23 16.834.445 27.09.712zm30.71 38.757c-.08 3.239-.347 6.478-.605 9.703-4.178-.881-8.399-1.673-12.525-2.46.136-2.574.417-5.167.516-7.656l-2.56-.103c-.085 2.428-.329 4.79-.488 7.196-4.258-.83-8.412-1.627-12.426-2.433.056-1.767.187-3.46.258-5.194.21-5.508.117-10.866 0-16.303 9.5 1.172 19.258 2.334 27.994 3.398.051 4.613 0 9.244-.164 13.852zm-67.238 171.902s5.37 5.428 9.303 9.375c-.337.328-.647.703-.98 1.012-3.882-3.96-9.322-9.501-9.322-9.501l.999-.886zM401.049 285.184c-4.084-.69-8.313-1.383-12.571-2.1a224.459 224.459 0 0 1 3.418-9.82c4.155.951 8.281 1.978 12.398 2.948-1.102 2.949-2.218 5.94-3.245 8.972zm27.577 6.16c-.834 2.371-1.59 4.823-2.344 7.26-7.484-.951-16.806-2.043-26.986-3.286.787-2.812 1.669-5.667 2.588-8.48 10.138 1.688 19.357 3.216 26.742 4.505zm-5.861 20.104c-5.89-.337-11.174-.576-12-.632-.014.58-.042.89-.065 1.485.755.057 5.917.3 11.7.615a224.039 224.039 0 0 0-3.682 20.508c-8.154.454-17.992.97-27.169 1.48 1.44-12.937 3.831-25.706 7.292-38.156 10.175 1.242 19.54 2.386 26.995 3.305-1.116 3.727-2.17 7.57-3.071 11.395zm-17.402 66.554a211.037 211.037 0 0 1-.567-15.492c4.258-.76 8.328-1.486 12.08-2.161-.085 4.851 0 9.769.28 14.583-3.844.98-7.91 2.015-11.793 3.07zm1.843 27.464c-12.496 4.833-26.986 10.491-39.904 15.516-3.71-16.589-5.81-33.497-6.35-50.583 11.17-1.974 27.596-4.931 42.095-7.561a204.61 204.61 0 0 0 .642 15.553c-9.322 2.438-17.223 4.463-17.973 4.688.164.581.248.825.38 1.401 1.674-.393 15.493-3.998 15.493-3.998s.267.998.267 1.031c.23-.06.942-.253 1.983-.548.657 8.25 1.806 16.373 3.367 24.501zm1.984 9.31a3174.903 3174.903 0 0 0-25.242 10.603c-.014-.028-.014-.084-.023-.084l-2.504.633c.042.154.084.304.136.43-3.902 1.656-7.826 3.334-11.756 4.98-.469-1.74-.952-3.47-1.364-5.19-.324-1.308-.596-2.644-.887-3.975 12.933-5.072 27.413-10.674 39.872-15.525.553 2.7 1.12 5.39 1.768 8.128zm1.913 7.463c-7.981 4.448-16.496 9.145-24.187 13.392-.914-2.911-1.781-5.822-2.555-8.761 8.933-3.778 17.523-7.369 25.176-10.636.487 2.03 1.027 4.055 1.566 6.005zm1.726 6.168a202.57 202.57 0 0 0 3.057 9.286c-3.676 2.133-7.559 4.458-11.48 6.82a245.773 245.773 0 0 1-2.874-8.366l-1.21.337c.887 2.94 1.914 5.822 2.936 8.663-3.634 2.16-7.301 4.34-10.93 6.515-1.867-4.969-3.592-9.951-5.135-15.033 7.671-4.275 16.215-8.972 24.177-13.392.488 1.72.943 3.488 1.459 5.17zm7.844 21.849c.029.108.08.202.136.319-7.441 5.137-15.446 10.71-22.61 15.684-1.38-3.122-2.753-6.234-4.029-9.375-.501-1.34-.947-2.695-1.434-4.06 3.634-2.15 7.347-4.335 10.953-6.487.966 2.569 1.965 5.208 3.034 7.782l1.173-.525a180.784 180.784 0 0 1-3.072-7.965c3.934-2.306 7.794-4.565 11.456-6.773 1.374 3.825 2.827 7.706 4.393 11.4zm3.41 7.688c-6.589-.146-14.865 4.542-17.749 10.19-1.679 3.207-2.457 5.593-3.939 6.938-1.317-2.634-2.616-5.255-3.789-7.908 7.189-4.997 15.113-10.547 22.611-15.713.896 2.143 1.914 4.322 2.865 6.493zm2.494 5.915c.108.028.258.028.38.08.952 1.945 1.965 3.83 2.992 5.77-6.875 4.988-14.466 10.557-21.988 16.06-.905-1.584-1.791-3.113-2.598-4.688 3.447-1.72 6.875-4.851 8.6-10.458.9-2.78 3.531-9.797 12.614-6.764zm14.344-2.63c.028.085.103.212.131.305-2.963 2.17-6.227 4.566-9.701 7.111a106.885 106.885 0 0 1-2.214-4.303c4.085.572 8.061-.81 11.784-3.112zm.727 1.393a230.13 230.13 0 0 0 8.515 14.85c-2.912 2.545-6.025 5.212-9.068 7.828a216.24 216.24 0 0 1-9.163-15.534c3.489-2.574 6.72-4.936 9.716-7.144zm15.718 25.617c4.337 5.996 9.055 11.72 13.964 17.25-5.528 6.765-11.835 14.518-17.04 20.912a240.877 240.877 0 0 1-22.269-28.074c3.358-3 6.63-6.005 9.815-8.799 1.026 1.543 1.997 3.118 3.07 4.655l1.394-.97a343.712 343.712 0 0 1-3.17-4.88c3.17-2.86 6.147-5.55 8.914-8.02a262.598 262.598 0 0 0 5.322 7.926zM445.38 537.36a260.194 260.194 0 0 1-23.816-29.611c3.18-2.874 6.345-5.686 9.487-8.54 6.785 9.913 14.26 19.373 22.428 28.223-3.653 4.444-6.56 7.987-8.099 9.928zm-26.216-32.963c-3.799-5.728-7.283-11.587-10.621-17.56 7.55-5.484 15.094-11.048 21.968-16.064a211.296 211.296 0 0 0 9.303 15.699 1219.989 1219.989 0 0 0-10.433 9.047l-.619.412.085.07a795.553 795.553 0 0 0-7.11 6.146s-.984.844-2.573 2.25zm-40.257-44.822a267.449 267.449 0 0 1-5.378-15.399c3.282-1.776 7.179-3.965 11.371-6.262 1.566 5.119 3.292 10.087 5.149 15.08-3.78 2.23-7.494 4.467-11.142 6.58zm-8.73-26.733c3.961-1.688 7.914-3.342 11.792-4.974.835 3.033 1.735 5.996 2.612 9.029-4.21 2.325-8.098 4.532-11.39 6.351-1.083-3.478-2.068-6.956-3.015-10.406zm-14.139 4.247a291.422 291.422 0 0 1-2.42-9.53c3.926-1.505 8.22-3.15 12.722-4.899.272 1.238.544 2.546.854 3.779.436 1.767.919 3.618 1.388 5.367-4.197 1.776-8.403 3.515-12.544 5.283zm-9.978-72.226c4.319-.652 8.834-1.364 13.5-2.053 0 2.133.023 4.214.094 6.3-7.09 1.289-11.897 2.18-12.281 2.226.108.605.15.896.272 1.482.403-.108 5.064-.961 12.009-2.19a269.726 269.726 0 0 0 6.447 50.842c-4.543 1.767-8.806 3.398-12.745 4.969-4.647-20.157-7.132-40.759-7.296-61.576zm57.01-3.544c-14.484 2.644-30.906 5.564-42.145 7.59-.029-2.105-.113-4.191-.113-6.282 14.367-2.161 29.485-4.43 42.352-6.37-.042 1.692-.094 3.342-.094 5.062zm13.805-2.489c-3.751.656-7.821 1.397-12.079 2.194 0-1.674.028-3.338.08-5.016 4.37-.633 8.407-1.26 12.05-1.776v.056c-.05 1.519-.05 3.028-.05 4.542zm-6.42-21.103c2.725-.192 5.351-.352 7.766-.544-.244 1.936-.403 3.886-.567 5.827-1.374-.68-2.645-1.575-3.775-2.85-.872-1.008-2.087-1.786-3.423-2.433zm-64.254 14.062c.023-1.354.145-2.648.225-3.928 2.832 1.481 6.138 1.692 10.813-.76 8.196-4.213 12.093-6.913 17.003-4.85-.263 3.52-.46 6.965-.605 10.49l2.583.089c.09-3.084.315-6.084.521-9.127.267.155.516.305.816.46 1.838 1.584 6.429 3.844 11.676 3.112-.15 1.988-.328 3.98-.37 6.014l1.27.029c.07-2.077.286-4.177.403-6.282 2.317-.483 4.661-1.575 7.048-3.6 2.082-1.767 7.559-5.976 13.167.853 1.791 2.114 4.042 3.324 6.5 4.083-.094 1.43-.188 2.883-.244 4.285-3.64.586-7.71 1.143-12.094 1.86v-.689l-1.707-.046c-.014.332 0 .651-.014.989-12.88 1.926-28.013 4.214-42.38 6.31 0-2.93.084-5.823.183-8.762l-1.285-.066c-.127 3.033-.15 6.061-.15 9.066-4.666.703-9.195 1.392-13.542 2.035 0-3.868.051-7.711.183-11.565zm14.597-10.72c-3.437 2.452-7.85 4.702-10.93 1.373-.179-.192-.427-.38-.648-.595 2.664-.201 6.664-.469 11.578-.778zm-5.96-49.604c8.919 1.07 18.274 2.213 27.483 3.305a262.503 262.503 0 0 0-7.343 39.816c-3.095-.933-5.791.319-7.854 1.683-2.654.145-4.324.258-4.6.258.056.876.14 2.939.14 2.939s-10.283.694-14.991.98c-.206-.202-.535-.357-.746-.577a284.696 284.696 0 0 1 7.911-48.404zm3.348-11.91c8.895 1.452 18.217 3 27.267 4.537-.952 3.033-1.908 6.136-2.729 9.192-9.242-1.06-18.61-2.203-27.487-3.277.91-3.525 1.875-7.03 2.95-10.453zm27.075 14.076c.863-3.038 1.82-6.075 2.771-9.09 4.296.685 8.46 1.346 12.586 2.068-.933 2.85-1.81 5.677-2.602 8.536-4.174-.497-8.45-.98-12.755-1.514zm4.488 45.488c0 .183-.029.403-.043.558-2.808 1.786-4.623 2.423-7.784-.038 2.57-.145 5.187-.347 7.827-.52zm-12.319-3.399c1.421-13.753 3.897-27.347 7.47-40.631 4.319.51 8.558 1.054 12.642 1.51-3.46 12.506-5.861 25.368-7.273 38.38-4.581.291-8.942.512-12.839.741zm-14.906-69.6c7.479 1.814 16.937 4.12 26.868 6.483-1.238 3.342-2.41 6.684-3.47 10.064-9.097-1.542-18.4-3.09-27.3-4.599a306.18 306.18 0 0 1 3.902-11.948zm397.683 270.872c-8.858-7.908-19.558-17.503-20.196-18.099-.549.422-1.116.807-1.871 1.393 1.388 1.26 16.876 15.258 20.112 18.215a814.42 814.42 0 0 0-3.273 2.41c-2.776-4.735-8.52-8.049-13.655-10.903-7.062-3.858-9.346-4.899-9.346-4.899s-2.841 1.383-.9 3.066c1.984 1.687 10.297 6.023 12.994 8.166 1.993 1.546 5.219 3.88 6.902 7.443a221.427 221.427 0 0 1-10.85 7.07c-10.715-10.998-18.645-19.201-18.954-19.482-.333.192-.553.281-1.013.52.38.413 8.36 8.55 19.038 19.556-.23.118-.431.258-.647.422-2.106 1.27-4.286 2.382-6.429 3.554-9.87-10.941-17.94-19.97-18.19-20.227-.266.145-.402.22-.75.365.348.366 8.399 9.338 18.25 20.255a283.182 283.182 0 0 1-4.721 2.607c-9.135-12.366-15.512-20.991-15.77-21.315-.455.249-.755.403-1.346.746.324.492 6.66 9.08 15.718 21.328-3.906 2.025-7.9 3.839-11.868 5.578-8.623-12.488-14.916-21.652-15.117-21.975-.404.15-.624.267-1.159.44.347.488 6.617 9.624 15.188 22.046-3.329 1.458-6.714 2.69-10.067 3.938-2.106-3.624-4.103-6.938-5.838-9.943 2.25-.787 4.558-1.622 6.785-2.508l-1.22-3.032c-2.4.97-4.824 1.842-7.225 2.695-3.554-5.972-5.833-9.938-5.946-10.163-.333.155-.483.202-.872.366.16.244 2.452 4.19 5.904 10.106a255.078 255.078 0 0 1-12.24 3.966c-2.803-5.597-4.852-9.844-5.04-10.2-.488.098-.783.23-1.407.347.277.604 2.307 4.753 5.046 10.237-1.215.31-2.424.586-3.61.905-2.631-6.234-4.263-10.144-4.371-10.42-.483.14-.713.22-1.322.422.15.314 1.781 4.223 4.37 10.307-2.401.572-4.811 1.158-7.203 1.67-2.086-5.209-3.93-9.826-4.201-10.356-.488.09-.77.146-1.402.291.295.797 2.143 5.283 4.178 10.345-1.904.394-3.817.816-5.772 1.163-1.721-6.075-2.964-10.308-3.03-10.472-.337.056-1.036.202-1.228.305.056.384 1.346 5.053 2.823 10.397a209.174 209.174 0 0 1-14.4 1.842c-.066-4.214.027-9.577-.352-11.41-.497-2.625-3.217-.83-3.217-.83s-.22 2.607-.394 10.913c0 .577-.01 1.182-.01 1.693-1.739.145-3.441.248-5.195.337-1.336-6.305-2.185-10.397-2.223-10.702-.553 0-.806.028-1.458.028.085.422.933 4.515 2.242 10.768-5.154.164-10.33.248-15.503.08-.487-5.391-.928-10.51-.999-10.974-.389 0-.698 0-1.214-.084 0 .337.408 4.58.999 11.025-.132 0-.216 0-.324.032l-.131 3.235c.253.019.483 0 .74 0 .62 7.11 1.412 16.13 2.29 25.608a242.105 242.105 0 0 1-15.081-.853c.08-4.42.23-8.569.295-12.488 4.431.403 8.867.722 13.369.844l.056-1.603c-4.501-.146-8.937-.46-13.387-.844.389-14.794.637-25.177.66-25.617-.834-.164-2.212-.366-3.258-.558-.056.642-.417 10.987-.957 25.753a220.974 220.974 0 0 1-15.544-2.194c.835-11.995 1.688-24.703 1.72-25.528-.52-.117-.778-.173-1.373-.328-.075 1.087-.924 13.688-1.75 25.59-1.106-.221-2.208-.484-3.314-.732 1.561-14.485 2.668-24.985 2.72-25.397-.427-.085-.671-.103-1.159-.249-.075.54-1.186 10.997-2.752 25.435a221.884 221.884 0 0 1-11.962-2.911c.267-1.603.534-3.112.783-4.57.619.084 1.205.173 1.346.173 1.158-7.486 2.94-19.134 3.029-19.556-.31-.061-.685-.174-1.008-.263.107-.708.182-1.172.21-1.256-.539-.136-1.59-.45-2.203-.595-.085.421-2.214 11.728-4.774 25.35a217.907 217.907 0 0 1-15.23-4.988c3.803-14.11 6.536-24.187 6.687-24.619-.516-.173-.741-.239-1.285-.487-.136.534-2.87 10.594-6.673 24.595-1.979-.726-3.962-1.457-5.974-2.264 4.305-13.898 7.376-23.958 7.512-24.38-.46-.201-.717-.295-1.257-.548-.145.501-3.216 10.566-7.493 24.408-2.222-.952-4.51-1.94-6.724-2.967 5.149-13.754 8.731-23.354 8.91-23.813-.235-.084-.742-.319-.742-.319s-.295-.131-.567-.314c-.16.549-3.76 10.19-8.9 23.86-.511-.23-1.046-.46-1.585-.694-2.7-1.247-5.355-2.602-7.985-4.003 1.65-3.544 3.24-7.186 4.764-10.481 2.677 1.354 5.35 2.807 8.14 4.148l1.383-2.977a243.318 243.318 0 0 1-8.178-4.195c2.387-5.264 4.141-9.272 4.352-9.684-.469-.249-.694-.394-1.238-.68-.216.534-2.021 4.486-4.394 9.74-4.989-2.662-9.8-5.573-14.503-8.596 3.235-5.344 5.378-8.925 5.58-9.183-.54-.385-2.668-1.711-2.668-1.711-.54.844-2.682 4.36-5.646 9.094a225.007 225.007 0 0 1-9.561-6.849c1.885-2.7 3.4-4.889 4.487-6.375l1.135-1.692c.286-.431.516-.713.549-.797-.263-.173-.464-.366-.886-.661-.057.056-.432.623-1.079 1.523l-.699 1.032c-1.078 1.537-2.593 3.656-4.421 6.272l-1.862 2.718a854.645 854.645 0 0 1-6.593 9.413l-.9 1.327c-2.265 3.234-4.69 6.703-7.189 10.256l-16.604 23.822c-14.302 20.499-27.052 38.77-27.455 39.347.347.268.511.432.9.718.39-.605 13.158-18.905 27.432-39.362 3.91 2.911 7.896 5.77 11.995 8.48-8.01 12.806-14.283 22.833-14.583 23.292.51.225.755.418 1.27.685.727-1.19 7.601-12.24 7.601-12.24s1.67 1.008 2.368 1.402c.244-.333 2.86-4.645 6.743-10.94 9.299 5.92 19.113 11.423 29.303 16.232l.497-1.148a267.304 267.304 0 0 1-29.209-16.158c3.869-6.398 8.872-14.574 13.828-22.767 5.745 3.707 11.705 7.167 17.768 10.373-1.13 2.508-1.9 4.19-2.03 4.486.52.244.768.328 1.317.558.094-.286.825-1.931 1.955-4.388 2.546 1.336 5.154 2.602 7.76 3.83.915.445 1.853.82 2.795 1.27-1.416 3.652-2.804 7.454-4.276 11.335-1.238-.567-2.467-1.097-3.662-1.664l-1.083 2.222c1.294.614 2.593 1.134 3.896 1.71a5463.22 5463.22 0 0 1-9.205 24.62c-1.997-.82-3.938-1.72-5.875-2.635l-.366.74c1.979.924 3.963 1.806 5.974 2.692-9.683 25.912-18.133 48.497-18.386 49.177.507.262.783.328 1.304.586.272-.764 8.721-23.293 18.344-49.159 3.32 1.42 6.592 2.757 9.908 4.083a20138.18 20138.18 0 0 0-10.471 34.079c.488.192.699.328 1.257.51.187-.576 4.712-15.426 10.47-34.083 2.589 1.032 5.2 1.97 7.817 2.864-5.997 22.191-10.972 40.506-11.16 41.12.272.089.703.262 1.29.426.201-.675 5.125-18.933 11.113-41.067 12.67 4.373 25.584 7.833 38.709 10.317-2.021 18.713-3.569 33.296-3.625 33.82.473.08.797.08 1.172.165.07-.605 1.623-15.146 3.601-33.737 3.287.638 6.565 1.196 9.88 1.599 4.774.726 9.57 1.294 14.368 1.767-1.022 27.68-1.885 51.811-1.913 52.482.619.098.999.098 1.402.173.056-1.748.51-13.8.51-13.8l1.863.084s-.324 12.39-.338 13.937c.511.051.797.06 1.393.164.023-.844.614-25.013 1.317-52.707 6.673.51 13.345.787 20 .848.707 7.693 1.139 12.854 1.167 13.13.131-.028.614-.028.98-.028-.01-.394-.497-5.649-1.149-13.102 8.051.028 16.126-.337 24.159-1.031 1.856 8.831 3.1 14.883 3.179 15.314.59-.089.863-.154 1.43-.31-.08-.43-1.365-6.374-3.184-15.145 1.135-.08 2.27-.164 3.4-.309-.179.483-.31.97-.511 1.519-3.4 10.237 3.287 12.9 10.11 17.48 6.888 4.678 1.547 9.675-3.808 22.097C654.57 692.13 672.384 698 672.384 698c-4.037-4.34-7.15-9.24-8.314-15.033-1.064-5.222 1.309-7.566 3.897-11.794 1.43-2.362 2.546-5.175 2.467-8.03-.174-4.457-5.838-13.101-11.283-16.706-2.827-1.969-2.48-5.222-1.336-8.306 5.852-.685 11.685-1.482 17.51-2.583l-.174-.788c-5.65 1.027-11.282 1.852-16.97 2.564 1.055-2.47 2.466-4.678 3.1-5.958.97-1.814 2.588-4.725 2.24-7.78a259.466 259.466 0 0 0 34.372-7.473c11.7 27.961 22.888 54.54 23.17 55.205.567-.201 1.265-.464 1.265-.464-.31-.871-11.441-27.305-23.103-55.106 4.14-1.182 8.323-2.518 12.44-3.9l-.403-1.163a318.265 318.265 0 0 1-12.52 3.97c-3.531-8.423-7.076-16.86-10.382-24.745 1.768-.474 3.522-.961 5.275-1.453a478.681 478.681 0 0 1 2.706 5.465c.483-.267.727-.412 1.252-.632-.16-.394-1.172-2.372-2.584-5.32 4.783-1.473 9.57-3.17 14.312-4.974 2.09 3.553 4.178 7.153 6.203 10.603l.886 2.287c.146-.023.244-.08.376-.117 8.117 13.824 14.855 25.304 15.075 25.655.375-.173.779-.365.807-.365-.244-.46-6.945-11.86-15.015-25.684a243.461 243.461 0 0 0 11.887-5.09c16.525 24.033 33.27 48.413 33.673 48.98.394-.192.619-.281 1.064-.53-.497-.722-17.2-25.003-33.658-48.933a259.433 259.433 0 0 0 12.618-6.31c23.427 31.768 50.572 68.584 51.168 69.372.511-.343.74-.488 1.29-.854-.75-.97-27.742-37.645-51.098-69.258 2.48-1.336 4.952-2.71 7.348-4.12a3371.233 3371.233 0 0 0 15.962 17.686c.323-.146.642-.347.67-.347-.267-.347-7.184-8.002-15.943-17.743a308.722 308.722 0 0 0 7.859-4.823 5176.866 5176.866 0 0 1 18.583 19.135c-4.727 3.121-9.528 6.206-14.382 9.023l.376.727c4.965-2.911 9.819-6.024 14.588-9.146 10.569 10.828 18.4 18.886 18.658 19.243.417-.3.834-.568.942-.568-.352-.43-8.168-8.47-18.71-19.28a281.754 281.754 0 0 0 16.684-12.253c1.417.778 2.486 2.016 2.603 3.882.445 6.328 4.919 15.31 8.6 17.554 2.335 1.482 5.219 1.932 7.915 1.847 4.783-.065 7.896-.914 11.765 2.48 4.3 3.83 6.888 8.855 8.6 14.283 0 0 3.63-17.733-9.34-19.378-13.004-1.533-19.812.473-20.328-7.52-.483-6.937.173-13.063-6.387-15.927l-.942-.296a32.125 32.125 0 0 0-2.43-.75c-10.269-2.114-14.653-2.086-16.496-9.853-.342-1.364-1.172-3.544-2.762-5.602l-1.66-1.865c-2.363-2.236-5.758-3.985-10.597-3.84-2.537.057-8.99-.145-9.073-8.367-.024-1.654-.441-3.122-1.023-4.532a172.722 172.722 0 0 0 4.647-3.404c1.15 1.05 9.411 8.475 10.541 9.446.38-.394.572-.619.966-1.05-.506-.432-4.951-4.407-10.381-9.286l-1.243-1.116zm-275.641 13.946c-4.933 7.054-10.148 14.554-15.245 21.825l15.245-21.825zm-14.316 22.49c5.069-7.275 10.297-14.775 15.23-21.862 3.536 2.704 7.095 5.273 10.8 7.701-4.76 7.608-9.693 15.483-14.115 22.622-4.066-2.7-8.033-5.54-11.915-8.46zm26.68-15.16c-3.67-2.45-7.267-5.1-10.77-7.673 2.518-3.567 4.905-7.012 7.17-10.233 3.329 2.499 6.738 4.97 10.217 7.233-2.12 3.432-4.356 7.004-6.616 10.674zm7.475-12.009c-3.46-2.32-6.818-4.753-10.19-7.26a888.488 888.488 0 0 0 6.608-9.404c3.151 2.4 6.372 4.725 9.716 6.91-1.82 2.887-3.892 6.182-6.134 9.754zm2.94 1.857c2.13-3.525 4.155-6.83 5.96-9.77a188.56 188.56 0 0 0 14.856 8.79c-1.473 3.314-3.142 6.914-4.774 10.51a225.288 225.288 0 0 1-16.041-9.53zm-7.357 12.094c2.209-3.643 4.394-7.215 6.495-10.683 5.275 3.403 10.705 6.656 16.252 9.604-1.894 4.294-3.742 8.302-5.13 11.368-6.049-3.164-11.9-6.629-17.617-10.29zm24.018-.483c2.64 1.373 5.285 2.751 7.939 4.026.61.258 1.158.492 1.74.77-1.36 3.632-2.833 7.635-4.366 11.69-.891-.375-1.81-.74-2.706-1.181a208.176 208.176 0 0 1-7.756-3.816c1.388-3.085 3.222-7.125 5.149-11.49zm11 5.353a255.01 255.01 0 0 0 6.753 3.014c-1.158 3.755-2.387 7.828-3.68 12-2.505-1.06-4.99-2.194-7.457-3.286 1.496-4.12 2.997-8.02 4.385-11.728zm-4.824 12.872c2.504 1.144 5.003 2.306 7.535 3.36-1.158 3.727-2.345 7.58-3.545 11.546-2.767-1.115-5.5-2.343-8.225-3.572 1.43-3.88 2.856-7.645 4.235-11.334zm-5.098 13.64a153.885 153.885 0 0 0 8.375 3.544c-2.63 8.579-5.298 17.25-7.727 25.196a254.838 254.838 0 0 1-9.88-4.073c3.057-8.12 6.19-16.487 9.232-24.666zm9.641 4.07c2.303.904 4.605 1.818 6.926 2.662-2.32 8.531-4.665 17.185-6.874 25.378-2.63-.932-5.22-1.856-7.803-2.854 2.467-8.002 5.125-16.618 7.751-25.187zm8.15 3.14c5.8 2.105 11.68 3.825 17.556 5.428-1.983 10.529-3.48 18.427-3.53 18.713.318.108.721.183.721.183.057-.356 1.595-8.47 3.494-18.652.61.122 1.144.24 1.725.46-1.767 10.2-3.17 18.309-3.221 18.651.08 0 .469.09.755.174.028-.366 1.402-8.222 3.156-18.643 4.604 1.172 9.219 2.283 13.856 3.225-.942 8.888-1.904 17.87-2.804 26.157a283.573 283.573 0 0 1-38.568-10.308c2.227-8.194 4.572-16.903 6.86-25.388zm35.642 9.774c7.4 1.42 14.855 2.447 22.386 3.243-.333 8.663-.642 17.579-.98 26.232-4.769-.488-9.533-.97-14.288-1.688a280.812 280.812 0 0 1-9.894-1.664c.915-8.25 1.834-17.25 2.776-26.123zm22.916-11.349c-.164 3.97-.3 7.964-.446 12.122a259.54 259.54 0 0 1-22.198-3.206c.455-4.149.886-8.194 1.337-12.15 1.303.239 2.597.557 3.892.787a735.463 735.463 0 0 1-.404 6.024c.568.056.835.103 1.374.122.08-.357.192-2.64.432-5.87 5.308.915 10.62 1.655 16.013 2.171zm-15.07-15.942c5.148.9 10.367 1.631 15.595 2.208-.201 3.946-.31 8.118-.488 12.562-5.345-.586-10.658-1.284-15.97-2.255.243-3.515.567-7.898.862-12.515zm-4.803-.999c1.14.24 2.27.525 3.4.727-.319 4.631-.633 9.014-.863 12.497a86.604 86.604 0 0 1-3.882-.736c.501-4.317.919-8.56 1.345-12.488zm-13.232-3.154a178.293 178.293 0 0 0 12.102 2.882c-.431 3.961-.872 8.157-1.345 12.526a258.69 258.69 0 0 1-12.863-3.015c.675-4.148 1.407-8.348 2.106-12.393zm-.727-.179c-.647 3.82-1.379 8.058-2.129 12.361-.46-.117-.943-.248-1.402-.337.806-4.322 1.604-8.588 2.33-12.361.39.084.793.192 1.2.337zm1.655-15.426l.286.037a820.592 820.592 0 0 1-1.646 9.136c.122 0 .404.056.75.085a384.396 384.396 0 0 1-.778 4.504c-.394-.103-.797-.173-1.163-.309 1.459-7.795 2.551-13.453 2.551-13.453zm-18.953 9.862c5.097 1.857 10.222 3.591 15.37 5.016-.745 4.04-1.566 8.25-2.335 12.37-5.486-1.518-10.92-3.314-16.308-5.282 1.158-4.257 2.264-8.307 3.273-12.104zm-10.93 9.22c1.298-4.204 2.531-8.202 3.694-12.032 1.965.89 3.99 1.575 6.002 2.344-1.069 3.782-2.143 7.884-3.282 12.075-2.157-.811-4.31-1.538-6.415-2.386zm2.897 15.362a247.5 247.5 0 0 1-6.823-2.672c1.2-3.89 2.392-7.772 3.545-11.527 2.143.84 4.305 1.664 6.476 2.396-1.04 3.848-2.105 7.757-3.198 11.803zm18.588 5.86c-5.82-1.632-11.615-3.38-17.303-5.391 1.074-4.004 2.124-7.95 3.165-11.785 5.407 1.96 10.893 3.802 16.436 5.302-.812 4.11-1.567 8.156-2.298 11.873zm5.153-11.143c4.286 1.144 8.6 2.17 12.923 3.084-.43 3.91-.848 7.974-1.28 12.075-4.58-.904-9.167-1.992-13.706-3.192.67-3.764 1.35-7.819 2.063-11.967zm-2.78 11.794c-.563-.164-1.102-.314-1.618-.46.717-3.796 1.458-7.856 2.237-11.845.487.108.97.202 1.43.338-.699 4.035-1.402 8.109-2.05 11.967zm41.611 9.722c3.76.276 7.55.539 11.338.703l.122-2.461c-3.83-.127-7.615-.394-11.404-.713.108-4.167.202-8.193.31-12.15 5.012.413 10.11.732 15.193.825 1.322 14.62 2.705 30.076 3.676 40.815a289.77 289.77 0 0 1-19.892-.806c.188-8.597.427-17.57.657-26.213zm16.567-13.753c1.158 0 2.358.065 3.53.065 5.271 0 10.528-.164 15.747-.52 1.857 8.808 3.784 18 5.472 26.274-5.876.52-11.807.806-17.805.89l.028 1.233c6.026-.09 12.06-.384 18.1-.848.943 4.584 1.834 8.897 2.655 12.67-8.042.684-16.037 1.05-24.089 1.008-1.05-11.667-2.532-28.336-3.638-40.772zm26.475 26.92a156.85 156.85 0 0 0 8.543-.862c1.407 3.487.056 7.158-2.03 13.256-1.257.084-2.551.248-3.845.328-.826-3.787-1.698-8.081-2.668-12.722zm11.582-7.922c-6.945-4.969-4.736-6.647-2.312-12.736.947-2.395 1.149-5.39.661-8.447 3.17-.38 6.354-.928 9.505-1.486 2.429 8.935 5.392 20.068 5.543 20.48.173-.07 1.734-.605 2.288-.778-.066-.31-2.654-9.29-5.81-20.077 5.96-1.106 11.812-2.508 17.687-4.139 3.316 7.94 6.889 16.36 10.387 24.732-11.25 3.248-22.658 5.676-34.193 7.397-.46-1.697-1.567-3.343-3.756-4.946zm-14.279-46.693c5.083-.482 10.082-1.087 15.123-1.912 1.983 7.29 3.99 14.766 3.99 14.766s1.187 4.406 2.682 9.989c-3.113.516-6.269 1.055-9.397 1.51-.886-4.191-2.94-8.129-5.903-10.07-5.379-3.45-5.9-9.651-6.373-13.218-.056-.268-.084-.699-.122-1.065zm8.14 49.548c1.117 1.055 1.914 2.081 2.481 3.08-2.724.29-5.449.557-8.196.83-1.726-8.34-3.64-17.495-5.473-26.293 3.517-.258 7.067-.605 10.584-1.027-.338 1.73-1.163 3.282-1.726 4.158-5.59 9.066-.286 16.885 2.33 19.252zm-16.74-48.868c1.482-.075 3.02-.192 4.507-.286.103 6.975 1.205 13.964 7.113 17.433 3.69 2.217 4.745 4.767 4.69 7.04-3.668.484-7.306.835-11.039 1.06-1.941-9.394-3.845-18.31-5.27-25.247zm-16.416 10.022c-.028-.53-.446-4.931-.896-9.82 5.275.154 10.57.089 15.882-.122 1.43 6.98 3.315 15.858 5.285 25.261-5.149.319-10.312.54-15.502.54-1.21 0-2.453-.09-3.667-.118-.797-9.155-1.388-15.703-1.388-15.703s.15-.038.286-.038zm54.36-1.444c-.309-.778-2.761-6.839-5.19-12.975 2.429-.501 4.825-1.06 7.226-1.673 2.696 6.426 6.147 14.648 9.974 23.803-5.81 1.519-11.643 2.958-17.552 4.055a6554.78 6554.78 0 0 0-7.155-24.647c2.035-.366 4.06-.825 6.105-1.214 2.495 6.215 5.017 12.394 5.285 13.162.534-.21.81-.309 1.308-.51zm13.318 8.79c-3.784-9.104-7.263-17.34-9.978-23.823a74.273 74.273 0 0 0 3.821-.909c1.618 3.263 3.297 6.83 5.064 10.303-.82.263-1.617.605-2.438.811l.46 1.514c.9-.239 1.805-.567 2.705-.806 2.068 4.2 4.019 8.203 5.585 11.405a141.044 141.044 0 0 1-5.219 1.505zm.281-14.822c-1.72-3.483-3.474-7.079-5.064-10.313 4.202-1.19 8.38-2.588 12.51-4.045 1.792 2.986 3.733 6.356 5.862 9.904a228.336 228.336 0 0 1-13.308 4.454zm.741 1.453a198.19 198.19 0 0 0 13.392-4.449c2.03 3.516 4.23 7.196 6.41 10.96-4.689 1.814-9.434 3.431-14.231 4.917-1.524-3.178-3.503-7.163-5.57-11.428zm20.651 6.183c-2.166-3.727-4.323-7.463-6.4-10.979 3.371-1.247 6.794-2.545 10.16-3.975 4.53 6.582 9.656 14.025 14.856 21.591-3.878 1.73-7.789 3.431-11.756 5.035-2.016-3.465-4.121-7.032-6.227-10.604 1.163-.501 2.28-.825 3.414-1.308l-.432-1.12c-1.186.469-2.4.872-3.615 1.36zm19.685 6.121a17730.323 17730.323 0 0 0-14.841-21.614 242.253 242.253 0 0 0 11.93-5.601c4.623 6.257 9.93 13.481 15.483 20.972a252.704 252.704 0 0 1-12.572 6.243zm13.946-7.012c-5.576-7.505-10.86-14.677-15.526-20.967 1.697-.858 3.273-1.772 4.91-2.71 5.781 6.427 12.088 13.449 17.762 19.72a208.595 208.595 0 0 1-7.146 3.957zm7.821-4.35c-5.688-6.314-11.967-13.313-17.725-19.711 2.035-1.144 4.108-2.19 6.12-3.422.337-.192.67-.394.984-.567a3761.898 3761.898 0 0 1 18.41 18.914 296.417 296.417 0 0 1-7.789 4.786zm8.694-5.344c-6.377-6.586-12.74-13.102-18.386-18.952a237.362 237.362 0 0 0 10.255-6.75c.272.881.436 1.805.516 2.738.295 6.201 7.577 13.233 13.842 14.175 2.25.319 4.019.431 5.374.778-3.799 2.766-7.63 5.456-11.601 8.011zm1.782 1.786c4.13-2.686 8.182-5.55 12.168-8.49.919 1.079 1.51 2.856 1.805 6.034.84 8.184 7.47 8.184 10.785 8.269 2.115.117 6.926-.164 10.241 1.228-5.322 4.237-10.86 8.236-16.496 12.065-5.66-5.859-12.046-12.459-18.503-19.106z"/>
        </g>
    </g>
</svg>
