<svg xmlns="http://www.w3.org/2000/svg" width="768" height="26" viewBox="0 0 768 26">
    <defs>
        <linearGradient id="a" x1="139.211%" x2="-1.542%" y1="0%" y2="50%">
            <stop offset="0%" stop-color="#C1B38A"/>
            <stop offset="100%" stop-color="#86754D"/>
        </linearGradient>
        <filter id="b" width="104%" height="260%" x="-2%" y="-80%" filterUnits="objectBoundingBox">
            <feOffset dy="1" in="SourceAlpha" result="shadowOffsetOuter1"/>
            <feGaussianBlur in="shadowOffsetOuter1" result="shadowBlurOuter1" stdDeviation="1.5"/>
            <feColorMatrix in="shadowBlurOuter1" result="shadowMatrixOuter1" values="0 0 0 0 0 0 0 0 0 0 0 0 0 0 0 0 0 0 0.7 0"/>
            <feMerge>
                <feMergeNode in="shadowMatrixOuter1"/>
                <feMergeNode in="SourceGraphic"/>
            </feMerge>
        </filter>
    </defs>
    <g fill="none" fill-rule="evenodd">
        <path fill="url(#a)" d="M0 0h768v26H0z"/>
        <g fill="#FFF" filter="url(#b)" transform="translate(184 8)">
            <path d="M164.323 4.525c0-1.031 0-1.221-.013-1.439-.012-.23-.077-.346-.22-.38a.905.905 0 0 0-.234-.026c-.064 0-.103-.014-.103-.069 0-.04.052-.053.156-.053.246 0 .654.02.842.02.161 0 .543-.02.79-.02.084 0 .136.013.136.053 0 .055-.039.069-.104.069s-.117.006-.194.02c-.175.034-.227.149-.24.386-.013.218-.013.408-.013 1.439v1.194c0 .657 0 1.193.026 1.485.02.184.065.306.259.332.09.014.233.028.33.028.072 0 .104.02.104.053 0 .048-.052.069-.123.069-.428 0-.835-.021-1.01-.021-.15 0-.557.02-.817.02-.084 0-.13-.02-.13-.068 0-.034.027-.053.105-.053a.986.986 0 0 0 .233-.028c.13-.026.168-.143.188-.338.032-.286.032-.822.032-1.48V4.526zM167.67 6.899c.013.447.085.583.195.625.097.033.207.04.297.04.066 0 .098.027.098.061 0 .047-.052.06-.13.06-.37 0-.634-.02-.738-.02-.052 0-.324.02-.615.02-.078 0-.13-.006-.13-.06 0-.034.04-.061.091-.061.078 0 .182-.007.26-.028.148-.04.167-.196.174-.699l.052-3.418c0-.115.038-.196.096-.196.072 0 .15.087.247.19.071.073.926.99 1.755 1.837.389.401 1.146 1.215 1.23 1.296h.026l-.058-2.564c-.006-.352-.058-.455-.194-.509-.084-.034-.22-.034-.298-.034-.072 0-.091-.026-.091-.06 0-.048.059-.055.143-.055.298 0 .602.014.725.014.065 0 .279-.014.557-.014.078 0 .13.007.13.055 0 .034-.032.06-.097.06-.058 0-.104 0-.175.021-.156.047-.202.148-.208.475l-.064 3.635c0 .13-.046.184-.09.184-.098 0-.176-.062-.234-.123a136.608 136.608 0 0 1-1.665-1.661c-.621-.625-1.224-1.324-1.334-1.425h-.02l.065 2.354zM173.44 6.899c.012.447.084.583.194.625.097.033.207.04.297.04.066 0 .098.027.098.061 0 .047-.052.06-.13.06-.369 0-.635-.02-.738-.02-.052 0-.324.02-.615.02-.078 0-.13-.006-.13-.06 0-.034.04-.061.091-.061.078 0 .181-.007.259-.028.15-.04.168-.196.175-.699l.052-3.418c0-.115.039-.196.096-.196.072 0 .15.087.247.19.071.073.926.99 1.755 1.837.389.401 1.147 1.215 1.23 1.296h.027l-.059-2.564c-.006-.352-.058-.455-.194-.509-.084-.034-.22-.034-.298-.034-.07 0-.091-.026-.091-.06 0-.048.059-.055.143-.055.297 0 .602.014.725.014.065 0 .279-.014.557-.014.078 0 .13.007.13.055 0 .034-.033.06-.097.06-.059 0-.104 0-.175.021-.156.047-.202.148-.208.475l-.064 3.635c0 .13-.046.184-.091.184-.097 0-.175-.062-.233-.123a136.608 136.608 0 0 1-1.665-1.661c-.622-.625-1.224-1.324-1.334-1.425h-.02l.066 2.354zM182.039 5.61c0-1.275-.732-2.063-1.652-2.063-.635 0-1.379.353-1.379 1.778 0 1.187.648 2.124 1.723 2.124.401 0 1.308-.198 1.308-1.839m-3.873-.109c0-.983.66-2.258 2.39-2.258 1.438 0 2.332.834 2.332 2.157 0 1.322-.92 2.36-2.39 2.36-1.659 0-2.332-1.234-2.332-2.259M183.928 3.887c-.13-.318-.214-.373-.42-.427-.085-.021-.176-.021-.221-.021-.052 0-.065-.026-.065-.06 0-.048.058-.055.143-.055.304 0 .628.014.829.014.142 0 .44-.014.725-.014.071 0 .136.014.136.055 0 .04-.04.06-.09.06-.091 0-.175.008-.221.04a.127.127 0 0 0-.058.116c0 .075.052.231.13.435l.958 2.584h.02c.245-.597.977-2.455 1.113-2.835a.818.818 0 0 0 .052-.21c0-.062-.026-.083-.078-.103a.851.851 0 0 0-.226-.027c-.052 0-.098-.02-.098-.06 0-.041.052-.055.162-.055.286 0 .538.014.609.014.098 0 .363-.014.538-.014.071 0 .116.014.116.055 0 .04-.032.06-.09.06-.058 0-.182-.007-.279.068-.07.054-.149.143-.298.51-.227.542-.376.854-.686 1.56-.362.84-.628 1.471-.758 1.763-.143.332-.194.42-.272.42-.078 0-.123-.073-.233-.345l-1.438-3.528zM190.021 5.909c.026 0 .033-.014.026-.034l-.537-1.445c-.007-.02-.014-.055-.026-.055-.02 0-.026.035-.033.055l-.55 1.438c-.013.027 0 .04.02.04h1.1zm-1.217.318c-.033 0-.04.007-.053.041l-.303.78a1.075 1.075 0 0 0-.085.353c0 .101.052.163.227.163h.084c.071 0 .085.027.085.061 0 .048-.033.061-.091.061-.188 0-.454-.021-.635-.021-.058 0-.363.021-.66.021-.072 0-.104-.013-.104-.06 0-.035.019-.062.064-.062.053 0 .117-.007.169-.007.259-.04.356-.217.473-.508l1.489-3.603c.065-.163.11-.231.169-.231.084 0 .11.055.168.184.136.318 1.088 2.652 1.45 3.527.221.523.383.597.487.618.084.013.149.02.213.02.052 0 .078.02.078.061 0 .048-.032.061-.246.061-.201 0-.615 0-1.095-.013-.103-.008-.168-.008-.168-.048 0-.034.013-.055.071-.061.04-.007.078-.062.052-.129l-.44-1.167c-.014-.034-.033-.04-.058-.04h-1.341zM193.31 3.677l-.848.02c-.33.007-.467.048-.55.177a.683.683 0 0 0-.098.196c-.013.047-.026.075-.064.075-.04 0-.052-.034-.052-.095 0-.095.11-.652.123-.699.012-.075.032-.109.064-.109.046 0 .104.048.247.068.168.021.382.028.57.028h2.312c.18 0 .304-.014.388-.028.091-.014.136-.026.156-.026.039 0 .045.034.045.12 0 .124-.013.551-.013.7-.006.061-.02.094-.052.094-.045 0-.058-.026-.065-.114l-.006-.062c-.013-.148-.162-.325-.674-.332l-.718-.013V6.01c0 .529.006.984.032 1.235.02.162.051.271.22.299.078.013.207.02.292.02.064 0 .09.033.09.061 0 .04-.045.061-.11.061-.375 0-.758-.021-.92-.021-.13 0-.518.021-.744.021-.071 0-.11-.021-.11-.061 0-.028.02-.061.09-.061a.778.778 0 0 0 .201-.02c.117-.028.15-.137.169-.307.025-.243.025-.698.025-1.227V3.677zM196.975 4.992c0-.874 0-1.037-.006-1.22-.014-.197-.072-.264-.195-.306a.712.712 0 0 0-.207-.027c-.058 0-.09-.013-.09-.068 0-.034.044-.047.135-.047.214 0 .602.013.764.013.143 0 .512-.013.732-.013.071 0 .116.013.116.047 0 .055-.031.068-.09.068a.766.766 0 0 0-.168.02c-.156.027-.201.11-.214.312-.013.184-.013.347-.013 1.221V6.01c0 .556 0 1.018.026 1.263.02.156.058.243.227.27.078.015.207.021.291.021.065 0 .091.033.091.06 0 .041-.046.062-.11.062-.376 0-.765-.02-.92-.02-.13 0-.518.02-.745.02-.07 0-.11-.02-.11-.061 0-.028.02-.061.09-.061a.78.78 0 0 0 .201-.02c.117-.028.15-.11.17-.279.025-.237.025-.699.025-1.255V4.992zM199.396 3.887c-.13-.318-.214-.373-.42-.427-.085-.021-.176-.021-.221-.021-.052 0-.065-.026-.065-.06 0-.048.058-.055.143-.055.304 0 .627.014.83.014.14 0 .439-.014.724-.014.071 0 .136.014.136.055 0 .04-.04.06-.09.06-.091 0-.176.008-.221.04a.127.127 0 0 0-.058.116c0 .075.051.231.13.435l.958 2.584h.02c.245-.597.977-2.455 1.113-2.835a.818.818 0 0 0 .052-.21c0-.062-.026-.083-.078-.103a.851.851 0 0 0-.226-.027c-.052 0-.097-.02-.097-.06 0-.041.052-.055.162-.055.285 0 .537.014.608.014.097 0 .363-.014.538-.014.07 0 .117.014.117.055 0 .04-.033.06-.091.06-.059 0-.182-.007-.279.068-.071.054-.149.143-.298.51-.226.542-.375.854-.687 1.56-.362.84-.627 1.471-.757 1.763-.143.332-.195.42-.272.42-.078 0-.123-.073-.233-.345l-1.438-3.528zM204.382 4.992c0-.874 0-1.037-.007-1.22-.013-.197-.065-.259-.246-.312a1.001 1.001 0 0 0-.226-.021c-.059 0-.097-.02-.097-.06 0-.042.045-.055.13-.055.297 0 .66.013.821.013.182 0 1.445.007 1.555 0 .103-.006.194-.027.24-.034.032-.007.064-.027.09-.027.033 0 .04.027.04.055 0 .04-.034.108-.047.372-.006.062-.019.313-.032.38-.006.028-.019.096-.064.096-.04 0-.045-.028-.045-.076a.567.567 0 0 0-.04-.21c-.045-.1-.09-.182-.375-.21a18.995 18.995 0 0 0-.894-.027c-.026 0-.039.021-.039.055v1.424c0 .033.006.061.039.061.13 0 .867 0 .998-.013.135-.015.213-.034.272-.088.045-.041.064-.075.09-.075.026 0 .045.027.045.061s-.013.129-.045.42a6.325 6.325 0 0 0-.026.386c0 .048-.006.13-.058.13-.039 0-.052-.021-.052-.047-.006-.061-.006-.137-.02-.211-.032-.115-.103-.203-.317-.223a17.414 17.414 0 0 0-.893-.027c-.027 0-.033.027-.033.06v.462c0 .197-.006.685 0 .854.013.394.188.482.77.482.15 0 .39-.007.539-.074.142-.068.207-.19.246-.428.012-.061.025-.088.064-.088.046 0 .052.074.052.135 0 .13-.045.523-.078.638-.038.15-.09.15-.304.15-.428 0-.77-.007-1.05-.021-.278-.007-.492-.014-.66-.014-.064 0-.188.007-.324.007-.136.007-.278.014-.395.014-.07 0-.11-.02-.11-.061 0-.028.02-.061.09-.061a.78.78 0 0 0 .202-.02c.116-.028.149-.137.168-.306.026-.244.026-.7.026-1.228V4.992zM211.64 5.271c0 .719.007 1.241.013 1.37.006.17.02.441.071.515.084.13.337.273.848.273.661 0 1.102-.137 1.49-.49.415-.373.544-.99.544-1.689 0-.861-.343-1.417-.622-1.695-.595-.597-1.334-.679-1.839-.679-.13 0-.369.02-.42.048-.06.027-.078.061-.078.136-.007.23-.007.82-.007 1.356v.855zm-.81-.746c0-1.031 0-1.221-.013-1.439-.013-.23-.064-.338-.278-.386a1.28 1.28 0 0 0-.253-.02c-.071 0-.11-.014-.11-.062 0-.047.046-.06.143-.06.343 0 .751.02.932.02.201 0 .609-.02.998-.02.809 0 1.89 0 2.597.773.324.353.628.915.628 1.723 0 .855-.343 1.506-.706 1.892-.298.319-.971.8-2.17.8-.233 0-.499-.02-.744-.04-.247-.02-.473-.041-.635-.041-.071 0-.213 0-.37.008-.148 0-.316.013-.446.013-.084 0-.13-.021-.13-.069 0-.033.026-.053.104-.053a.976.976 0 0 0 .233-.028c.13-.026.162-.176.188-.372.033-.285.033-.821.033-1.445V4.525zM217.551 5.44c0 .061.013.082.052.102.123.04.292.054.434.054.227 0 .305-.02.402-.095.174-.128.369-.38.369-.855 0-.814-.531-1.024-.868-1.024-.142 0-.279.008-.337.02-.039.014-.052.035-.052.081V5.44zm-.725-.447c0-.875 0-1.038-.007-1.222-.012-.196-.064-.257-.246-.311a1.001 1.001 0 0 0-.226-.021c-.059 0-.097-.02-.097-.06 0-.041.045-.056.13-.056.297 0 .66.015.776.015.194 0 .713-.015.887-.015.363 0 .778.034 1.082.246.162.115.401.406.401.793 0 .426-.232.807-.79 1.276.506.65.907 1.173 1.25 1.532.318.333.519.36.61.38.058.013.09.013.135.013.046 0 .072.034.072.062 0 .047-.04.061-.11.061h-.545c-.317 0-.472-.034-.622-.116-.245-.129-.46-.4-.776-.848-.227-.312-.467-.698-.538-.787-.032-.034-.065-.04-.103-.04l-.512-.014c-.026 0-.046.014-.046.048v.081c0 .536.007.984.033 1.228.02.17.045.278.22.306.084.014.207.02.278.02.046 0 .072.033.072.06 0 .041-.045.062-.117.062-.33 0-.803-.02-.887-.02-.11 0-.473.02-.7.02-.07 0-.11-.02-.11-.061 0-.028.02-.062.09-.062.085 0 .15-.005.202-.02.117-.027.149-.136.168-.305.026-.244.026-.7.026-1.228V4.993zM221.591 4.992c0-.874 0-1.037-.006-1.22-.013-.197-.066-.259-.246-.312a1.003 1.003 0 0 0-.227-.021c-.058 0-.097-.02-.097-.06 0-.042.045-.055.13-.055.297 0 .66.013.822.013.181 0 1.444.007 1.554 0 .104-.006.195-.027.24-.034.032-.007.065-.027.09-.027.033 0 .04.027.04.055 0 .04-.033.108-.047.372-.006.062-.018.313-.031.38-.007.028-.02.096-.065.096-.04 0-.045-.028-.045-.076a.567.567 0 0 0-.04-.21c-.045-.1-.09-.182-.375-.21a18.995 18.995 0 0 0-.894-.027c-.026 0-.039.021-.039.055v1.424c0 .033.007.061.039.061.13 0 .868 0 .998-.013.135-.015.213-.034.272-.088.045-.041.064-.075.09-.075.026 0 .045.027.045.061s-.013.129-.044.42a5.95 5.95 0 0 0-.027.386c0 .048-.006.13-.058.13-.039 0-.052-.021-.052-.047-.006-.061-.006-.137-.02-.211-.032-.115-.102-.203-.316-.223a17.46 17.46 0 0 0-.894-.027c-.026 0-.033.027-.033.06v.462c0 .197-.006.685 0 .854.013.394.188.482.77.482.15 0 .39-.007.539-.074.142-.068.207-.19.246-.428.013-.061.026-.088.065-.088.045 0 .051.074.051.135 0 .13-.045.523-.078.638-.038.15-.09.15-.304.15-.427 0-.77-.007-1.05-.021-.278-.007-.491-.014-.66-.014-.064 0-.188.007-.323.007-.137.007-.28.014-.395.014-.072 0-.11-.02-.11-.061 0-.028.019-.061.09-.061a.778.778 0 0 0 .2-.02c.117-.028.15-.137.17-.306.025-.244.025-.7.025-1.228V4.992zM227.108 5.909c.026 0 .033-.014.026-.034l-.538-1.445c-.006-.02-.013-.055-.025-.055-.02 0-.026.035-.033.055l-.55 1.438c-.013.027 0 .04.02.04h1.1zm-1.218.318c-.032 0-.038.007-.052.041l-.304.78a1.086 1.086 0 0 0-.084.353c0 .101.052.163.227.163h.084c.071 0 .084.027.084.061 0 .048-.032.061-.09.061-.188 0-.454-.021-.635-.021-.058 0-.363.021-.66.021-.072 0-.105-.013-.105-.06 0-.035.02-.062.065-.062.052 0 .117-.007.169-.007.259-.04.356-.217.473-.508l1.489-3.603c.065-.163.11-.231.169-.231.083 0 .11.055.168.184.136.318 1.088 2.652 1.45 3.527.22.523.383.597.487.618.084.013.149.02.213.02.052 0 .078.02.078.061 0 .048-.033.061-.246.061-.201 0-.615 0-1.095-.013-.103-.008-.168-.008-.168-.048 0-.034.013-.055.071-.061.039-.007.078-.062.052-.129l-.44-1.167c-.014-.034-.033-.04-.059-.04h-1.34zM230.403 3.371c.013-.095.065-.148.11-.148.059 0 .097.027.175.182l1.529 3.189 1.528-3.23c.046-.094.098-.141.149-.141.046 0 .11.06.13.182l.518 3.549c.052.358.103.514.278.57.162.046.253.053.324.053.052 0 .091.02.091.054 0 .047-.065.07-.149.07-.142 0-.953-.023-1.179-.036-.136-.006-.168-.034-.168-.067 0-.028.026-.048.064-.062.033-.012.046-.081.026-.244l-.317-2.49h-.02l-1.223 2.552c-.13.27-.162.324-.227.324-.072 0-.136-.114-.227-.29-.136-.266-.589-1.147-.654-1.31-.045-.108-.382-.807-.57-1.207h-.02l-.271 2.225c-.013.102-.02.177-.02.271 0 .11.078.15.175.17.097.02.15.027.201.027.052 0 .09.027.09.054 0 .055-.05.068-.136.068-.24 0-.498-.021-.602-.021-.11 0-.382.021-.563.021-.059 0-.104-.013-.104-.068 0-.027.032-.054.091-.054.045 0 .084 0 .175-.014.155-.02.207-.251.233-.441l.563-3.738zM236.178 7.611c-.09-.04-.11-.067-.11-.196 0-.313.026-.672.033-.768 0-.087.026-.148.071-.148.052 0 .058.054.058.095 0 .074.02.197.052.298.123.428.55.57.906.57.493 0 .791-.326.791-.732 0-.252-.058-.502-.563-.815l-.33-.204c-.674-.413-.895-.8-.895-1.309 0-.704.649-1.16 1.439-1.16.369 0 .66.054.81.095.05.014.077.034.077.075 0 .074-.02.238-.02.692 0 .122-.026.184-.071.184-.04 0-.058-.034-.058-.102a.67.67 0 0 0-.15-.38c-.084-.108-.265-.271-.634-.271-.408 0-.777.223-.777.616 0 .259.09.461.602.76l.233.136c.751.434.984.875.984 1.398 0 .428-.155.773-.57 1.079-.271.202-.647.236-.951.236-.33 0-.68-.034-.927-.149M244.337 5.182c-.136-.1-.285-.148-.537-.162-.117-.006-.182-.006-.279-.006-.026 0-.04.012-.04.048v1.607c0 .447.02.562.228.651.174.074.323.081.473.081.291 0 .783-.163.783-.869 0-.42-.136-.99-.628-1.35zm-.855-.542c0 .054.02.068.045.075.059.014.156.02.304.02.214 0 .357-.027.467-.129.168-.142.265-.386.265-.718 0-.455-.252-1.053-.81-1.053-.09 0-.148 0-.213.014-.045.013-.058.041-.058.116V4.64zm-.777-.115c0-1.031 0-1.222-.013-1.439-.013-.23-.065-.339-.279-.386a1.284 1.284 0 0 0-.252-.02c-.072 0-.11-.014-.11-.061 0-.048.045-.062.142-.062.343 0 .751.02.881.02.317 0 .57-.02.79-.02 1.172 0 1.38.658 1.38 1.018 0 .556-.305.889-.661 1.188.531.19 1.179.671 1.179 1.465 0 .726-.538 1.478-1.73 1.478-.077 0-.265-.013-.453-.02a8.345 8.345 0 0 0-.486-.021c-.07 0-.213 0-.369.008-.149 0-.317.013-.447.013-.084 0-.13-.021-.13-.068 0-.034.027-.054.104-.054.097 0 .176-.014.234-.028.13-.026.162-.176.187-.372.033-.286.033-.822.033-1.445V4.525zM248.073 5.44c0 .061.012.082.051.102.124.04.292.054.434.054.227 0 .305-.02.402-.095.175-.128.37-.38.37-.855 0-.814-.532-1.024-.869-1.024-.142 0-.279.008-.337.02-.039.014-.051.035-.051.081V5.44zm-.726-.447c0-.875 0-1.038-.006-1.222-.013-.196-.065-.257-.246-.311a1.003 1.003 0 0 0-.227-.021c-.058 0-.097-.02-.097-.06 0-.041.045-.056.13-.056.297 0 .66.015.777.015.193 0 .712-.015.887-.015.362 0 .777.034 1.082.246.161.115.401.406.401.793 0 .426-.233.807-.79 1.276.505.65.907 1.173 1.25 1.532.317.333.518.36.609.38.058.013.09.013.136.013.045 0 .07.034.07.062 0 .047-.038.061-.11.061h-.544c-.317 0-.472-.034-.621-.116-.246-.129-.46-.4-.777-.848-.227-.312-.466-.698-.537-.787a.13.13 0 0 0-.104-.04l-.512-.014c-.026 0-.045.014-.045.048v.081c0 .536.006.984.032 1.228.02.17.045.278.22.306.085.014.208.02.28.02.044 0 .07.033.07.06 0 .041-.045.062-.117.062-.33 0-.803-.02-.887-.02-.11 0-.473.02-.699.02-.071 0-.11-.02-.11-.061 0-.028.019-.062.09-.062a.782.782 0 0 0 .2-.02c.118-.027.15-.136.17-.305.025-.244.025-.7.025-1.228V4.993zM252.112 4.992c0-.874 0-1.037-.006-1.22-.013-.197-.071-.264-.195-.306a.712.712 0 0 0-.207-.027c-.058 0-.09-.013-.09-.068 0-.034.045-.047.135-.047.214 0 .603.013.765.013.143 0 .512-.013.732-.013.07 0 .116.013.116.047 0 .055-.032.068-.09.068a.766.766 0 0 0-.169.02c-.155.027-.2.11-.213.312-.013.184-.013.347-.013 1.221V6.01c0 .556 0 1.018.025 1.263.02.156.058.243.228.27.077.015.206.021.29.021.065 0 .092.033.092.06 0 .041-.046.062-.111.062-.375 0-.764-.02-.92-.02-.13 0-.518.02-.745.02-.07 0-.11-.02-.11-.061 0-.028.02-.061.09-.061a.78.78 0 0 0 .202-.02c.117-.028.15-.11.169-.279.025-.237.025-.699.025-1.255V4.992zM255.428 6.899c.013.447.084.583.194.625.097.033.207.04.298.04.065 0 .097.027.097.061 0 .047-.052.06-.13.06-.369 0-.634-.02-.738-.02-.052 0-.324.02-.615.02-.078 0-.13-.006-.13-.06 0-.034.04-.061.091-.061.078 0 .181-.007.26-.028.148-.04.167-.196.174-.699l.052-3.418c0-.115.04-.196.097-.196.071 0 .149.087.246.19.071.073.926.99 1.755 1.837.389.401 1.147 1.215 1.231 1.296h.026l-.058-2.564c-.007-.352-.06-.455-.195-.509-.084-.034-.22-.034-.298-.034-.07 0-.091-.026-.091-.06 0-.048.059-.055.143-.055.298 0 .602.014.725.014.065 0 .279-.014.558-.014.077 0 .129.007.129.055 0 .034-.032.06-.097.06-.058 0-.104 0-.175.021-.156.047-.201.148-.208.475l-.064 3.635c0 .13-.046.184-.09.184-.098 0-.176-.062-.234-.123a136.608 136.608 0 0 1-1.665-1.661c-.621-.625-1.224-1.324-1.334-1.425h-.02l.066 2.354zM264.253 7.299c0 .156 0 .164-.071.203-.382.198-.946.258-1.393.258-1.398 0-2.635-.664-2.635-2.26 0-.921.472-1.565.997-1.884.544-.332 1.056-.374 1.535-.374.396 0 .894.068 1.01.096.117.02.318.053.454.06.064.007.078.028.078.068 0 .069-.04.224-.04.95 0 .088-.032.129-.077.129-.039 0-.052-.028-.059-.075a.788.788 0 0 0-.194-.475c-.168-.182-.596-.44-1.237-.44-.31 0-.706.006-1.1.339-.318.271-.526.698-.526 1.403 0 1.242.765 2.144 1.983 2.144.149 0 .265 0 .401-.06.084-.041.11-.102.11-.203v-.53c0-.284 0-.502-.006-.678-.007-.198-.065-.259-.247-.312a.941.941 0 0 0-.22-.02c-.051 0-.09-.028-.09-.062 0-.048.045-.053.123-.053.298 0 .706.013.874.013.181 0 .48-.013.667-.013.078 0 .117.005.117.053 0 .034-.033.061-.072.061a.711.711 0 0 0-.155.02c-.155.028-.214.109-.22.313-.007.176-.007.406-.007.691V7.3zM270.145 5.617c.032 0 .038-.02.032-.04l-.583-1.67c-.006-.027-.012-.061-.032-.061s-.032.034-.04.061l-.595 1.663c-.006.026 0 .047.026.047h1.192zm-1.322.339c-.032 0-.045.014-.058.054l-.35.93a1.348 1.348 0 0 0-.096.414c0 .122.058.21.259.21h.097c.077 0 .097.014.097.053 0 .056-.04.069-.11.069-.208 0-.486-.021-.687-.021-.07 0-.427.021-.764.021-.084 0-.123-.013-.123-.069 0-.04.026-.053.077-.053.06 0 .15-.007.202-.014.297-.04.42-.271.55-.61l1.625-4.206c.078-.196.117-.272.182-.272.058 0 .097.062.162.218.155.372 1.191 3.086 1.606 4.118.246.61.434.704.57.738.097.021.194.028.272.028.052 0 .084.006.084.053 0 .056-.058.069-.298.069-.233 0-.706 0-1.224-.013-.116-.008-.194-.008-.194-.056 0-.04.026-.053.09-.06.046-.013.091-.075.059-.156l-.519-1.397c-.012-.034-.032-.048-.064-.048h-1.445zM275.11 3.222c-.077-.251-.149-.413-.24-.482a.553.553 0 0 0-.258-.06c-.065 0-.104-.007-.104-.061 0-.048.052-.061.143-.061.336 0 .693.02.75.02.059 0 .344-.02.72-.02.09 0 .136.02.136.06 0 .055-.052.062-.117.062-.051 0-.117 0-.162.026-.058.028-.071.076-.071.15 0 .089.065.32.142.624.11.448.713 2.503.83 2.884h.02l1.255-3.542c.065-.19.11-.245.162-.245.071 0 .104.103.188.32l1.347 3.42h.02c.116-.456.634-2.247.861-3.04.045-.156.065-.298.065-.393 0-.109-.058-.204-.311-.204-.065 0-.11-.021-.11-.061 0-.048.052-.061.149-.061.343 0 .615.02.673.02.046 0 .324-.02.538-.02.07 0 .116.013.116.053 0 .048-.032.069-.09.069a.67.67 0 0 0-.227.034c-.155.061-.226.332-.363.718-.298.855-.978 3.013-1.295 4.03-.07.238-.103.32-.188.32-.064 0-.104-.082-.2-.333l-1.347-3.407h-.014c-.123.347-.984 2.756-1.263 3.38-.123.278-.155.36-.233.36-.064 0-.09-.076-.149-.252l-1.373-4.308zM286.158 5.61c0-1.275-.732-2.063-1.652-2.063-.635 0-1.38.353-1.38 1.778 0 1.187.648 2.124 1.723 2.124.402 0 1.309-.198 1.309-1.839m-3.874-.109c0-.983.66-2.258 2.39-2.258 1.438 0 2.332.834 2.332 2.157 0 1.322-.92 2.36-2.39 2.36-1.658 0-2.332-1.234-2.332-2.259M289.116 5.44c0 .061.012.082.051.102.123.04.292.054.434.054.227 0 .305-.02.402-.095.175-.128.369-.38.369-.855 0-.814-.531-1.024-.868-1.024-.143 0-.278.008-.337.02-.039.014-.051.035-.051.081V5.44zm-.726-.447c0-.875 0-1.038-.006-1.222-.013-.196-.065-.257-.247-.311a1.003 1.003 0 0 0-.226-.021c-.058 0-.098-.02-.098-.06 0-.041.046-.056.13-.056.298 0 .66.015.778.015.193 0 .712-.015.887-.015.362 0 .777.034 1.081.246.162.115.4.406.4.793 0 .426-.23.807-.789 1.276.506.65.907 1.173 1.25 1.532.318.333.519.36.61.38a.517.517 0 0 0 .135.013c.046 0 .072.034.072.062 0 .047-.04.061-.11.061h-.545c-.317 0-.472-.034-.622-.116-.245-.129-.46-.4-.776-.848-.227-.312-.467-.698-.538-.787a.13.13 0 0 0-.104-.04l-.512-.014c-.026 0-.044.014-.044.048v.081c0 .536.006.984.032 1.228.02.17.045.278.22.306.084.014.207.02.279.02.045 0 .07.033.07.06 0 .041-.045.062-.116.062-.33 0-.803-.02-.887-.02-.11 0-.473.02-.7.02-.071 0-.11-.02-.11-.061 0-.028.02-.062.09-.062.085 0 .15-.005.201-.02.118-.027.15-.136.17-.305.025-.244.025-.7.025-1.228V4.993zM293.92 6.01c0 .74 0 1.107.123 1.215.097.087.317.121.757.121.305 0 .525-.006.667-.162a.72.72 0 0 0 .143-.346c.006-.054.02-.088.065-.088.039 0 .052.061.052.128 0 .068-.039.496-.085.665-.038.13-.064.157-.362.157-.408 0-.738-.007-1.024-.022-.284-.005-.524-.013-.757-.013-.065 0-.188.008-.324.008-.136.005-.279.013-.395.013-.071 0-.11-.021-.11-.061 0-.028.02-.061.09-.061.084 0 .15-.006.202-.02.116-.027.148-.136.168-.306.025-.244.025-.7.025-1.228V4.992c0-.874 0-1.037-.006-1.22-.013-.197-.065-.258-.246-.312a.697.697 0 0 0-.188-.022c-.064 0-.097-.02-.097-.06 0-.04.039-.054.123-.054.266 0 .628.013.783.013.137 0 .603-.013.823-.013.084 0 .123.013.123.055 0 .04-.032.06-.104.06-.064 0-.155.007-.22.021-.155.026-.2.109-.213.311-.013.184-.013.347-.013 1.221V6.01zM297.817 5.63c0 .611.007 1.053.013 1.167.006.143.02.345.065.407.072.109.298.23.745.23.518 0 .9-.094 1.243-.393.37-.319.486-.834.486-1.43 0-.734-.278-1.209-.53-1.438-.526-.49-1.147-.55-1.594-.55-.116 0-.305.013-.35.04-.052.02-.07.048-.07.115-.008.197-.008.672-.008 1.127v.725zm-.764-.637c0-.875 0-1.038-.006-1.222-.013-.196-.065-.258-.246-.311a1.007 1.007 0 0 0-.227-.021c-.059 0-.097-.02-.097-.06 0-.042.045-.056.13-.056.298 0 .66.014.821.014.176 0 .584-.014.927-.014.713 0 1.67 0 2.293.66.285.298.537.78.537 1.465 0 .726-.298 1.274-.621 1.607-.26.271-.862.679-1.911.679-.207 0-.454-.021-.68-.034a6.83 6.83 0 0 0-.577-.035c-.064 0-.188.007-.324.007-.135.007-.278.014-.394.014-.072 0-.11-.02-.11-.061 0-.028.019-.062.09-.062a.79.79 0 0 0 .201-.02c.116-.027.149-.136.168-.305.026-.244.026-.7.026-1.228V4.993zM308.274 5.61c0-1.275-.732-2.063-1.651-2.063-.634 0-1.38.353-1.38 1.778 0 1.187.648 2.124 1.723 2.124.402 0 1.308-.198 1.308-1.839m-3.872-.109c0-.983.66-2.258 2.389-2.258 1.438 0 2.332.834 2.332 2.157 0 1.322-.92 2.36-2.39 2.36-1.657 0-2.331-1.234-2.331-2.259M311.272 6.031c0 .555.006.963.032 1.207.019.17.058.278.227.306.077.014.2.02.278.02.071 0 .097.033.097.06 0 .041-.039.062-.123.062-.362 0-.764-.02-.913-.02-.149 0-.512.02-.726.02-.077 0-.116-.014-.116-.061 0-.028.02-.061.085-.061a.778.778 0 0 0 .2-.02c.117-.028.15-.137.168-.306.026-.244.026-.672.026-1.228V4.993c0-.875 0-1.038-.006-1.222-.013-.196-.065-.263-.246-.311a1.003 1.003 0 0 0-.227-.021c-.052 0-.097-.02-.097-.06 0-.042.045-.055.136-.055.291 0 .654.013.815.013.221 0 1.484.007 1.62 0 .104-.006.175-.013.233-.027.033-.006.058-.034.091-.034.02 0 .039.028.039.055 0 .04-.026.108-.046.258-.006.06-.02.4-.026.467-.007.048-.019.117-.058.117-.038 0-.071-.028-.071-.096 0-.047.006-.136-.032-.217-.04-.082-.15-.17-.363-.176l-.946-.02c-.032 0-.051.013-.051.081v1.397c0 .034.006.054.038.054l.797-.006c.097 0 .175 0 .26-.007.103-.007.187-.028.24-.102.031-.033.044-.061.077-.061.019 0 .032.02.032.054 0 .035-.027.19-.046.374a6.14 6.14 0 0 0-.019.42c0 .047-.007.128-.065.128-.032 0-.052-.04-.052-.081a.557.557 0 0 0-.038-.176.293.293 0 0 0-.272-.21c-.143-.014-.817-.02-.914-.02-.025 0-.038.006-.038.047v.475zM316.898 4.525c0-1.031 0-1.221-.013-1.439-.013-.23-.066-.338-.279-.386a1.291 1.291 0 0 0-.253-.02c-.07 0-.11-.014-.11-.062 0-.047.046-.06.143-.06.174 0 .363.006.524.006.17.007.318.013.408.013.207 0 1.497 0 1.62-.006.123-.013.227-.028.278-.041.033-.006.07-.026.104-.026.033 0 .038.026.038.06 0 .047-.031.129-.052.44-.005.07-.02.367-.031.448-.007.034-.02.075-.065.075s-.059-.033-.059-.095a.739.739 0 0 0-.038-.243c-.046-.123-.11-.204-.434-.244a20.15 20.15 0 0 0-.92-.028c-.033 0-.045.02-.045.068v1.716c0 .048.006.075.045.075.143 0 .887 0 1.036-.014.155-.013.253-.034.31-.102.046-.054.072-.088.105-.088.025 0 .045.014.045.054 0 .042-.026.15-.052.495-.006.137-.026.407-.026.455 0 .054 0 .13-.058.13-.045 0-.058-.028-.058-.062-.007-.068-.007-.155-.026-.244-.032-.137-.123-.238-.363-.265a19.96 19.96 0 0 0-.92-.02c-.032 0-.038.028-.038.067v.537c0 .23-.007.855 0 1.051.012.467.116.57.776.57.17 0 .441 0 .61-.082.168-.08.246-.223.291-.502.013-.074.026-.101.071-.101.051 0 .051.054.051.123 0 .155-.05.615-.083.752-.045.176-.103.176-.35.176-.486 0-.842-.014-1.12-.02-.278-.014-.48-.021-.674-.021-.071 0-.214 0-.37.007-.148 0-.316.014-.445.014-.085 0-.13-.021-.13-.069 0-.034.026-.053.103-.053a.986.986 0 0 0 .234-.028c.13-.026.161-.176.187-.372.033-.285.033-.821.033-1.445V4.525zM321.41 6.899c.013.447.085.583.194.625a.95.95 0 0 0 .3.04c.064 0 .096.027.096.061 0 .047-.052.06-.13.06-.369 0-.634-.02-.738-.02-.051 0-.324.02-.615.02-.078 0-.13-.006-.13-.06 0-.034.04-.061.091-.061.078 0 .182-.007.259-.028.15-.04.168-.196.175-.699l.052-3.418c0-.115.038-.196.097-.196.071 0 .15.087.246.19.071.073.926.99 1.755 1.837.389.401 1.147 1.215 1.23 1.296h.027l-.059-2.564c-.006-.352-.058-.455-.194-.509-.084-.034-.22-.034-.299-.034-.07 0-.09-.026-.09-.06 0-.048.059-.055.143-.055.298 0 .602.014.725.014.065 0 .279-.014.557-.014.078 0 .13.007.13.055 0 .034-.033.06-.097.06-.059 0-.104 0-.175.021-.156.047-.202.148-.207.475l-.066 3.635c0 .13-.045.184-.09.184-.097 0-.175-.062-.233-.123a136.608 136.608 0 0 1-1.665-1.661c-.621-.625-1.224-1.324-1.334-1.425h-.019l.065 2.354zM327.588 5.63c0 .611.006 1.053.013 1.167.006.143.02.345.064.407.071.109.298.23.745.23.518 0 .9-.094 1.244-.393.368-.319.486-.834.486-1.43 0-.734-.28-1.209-.531-1.438-.525-.49-1.147-.55-1.594-.55-.116 0-.304.013-.35.04-.051.02-.071.048-.071.115-.006.197-.006.672-.006 1.127v.725zm-.765-.637c0-.875 0-1.038-.006-1.222-.013-.196-.065-.258-.246-.311a1.003 1.003 0 0 0-.227-.021c-.058 0-.097-.02-.097-.06 0-.042.045-.056.13-.056.297 0 .66.014.822.014.174 0 .583-.014.926-.014.712 0 1.671 0 2.293.66.285.298.537.78.537 1.465 0 .726-.298 1.274-.622 1.607-.259.271-.86.679-1.91.679-.208 0-.453-.021-.68-.034a6.845 6.845 0 0 0-.576-.035c-.065 0-.188.007-.325.007-.135.007-.278.014-.394.014-.071 0-.111-.02-.111-.061 0-.028.02-.062.092-.062a.782.782 0 0 0 .2-.02c.117-.027.149-.136.168-.305.026-.244.026-.7.026-1.228V4.993zM333.227 6.01c0 .74 0 1.107.123 1.215.097.087.317.121.757.121.305 0 .526-.006.668-.162a.72.72 0 0 0 .143-.346c.006-.054.019-.088.064-.088.04 0 .052.061.052.128 0 .068-.039.496-.085.665-.038.13-.064.157-.361.157-.41 0-.74-.007-1.024-.022-.285-.005-.525-.013-.758-.013-.065 0-.188.008-.324.008-.136.005-.279.013-.395.013-.07 0-.11-.021-.11-.061 0-.028.02-.061.09-.061.084 0 .15-.006.202-.02.116-.027.149-.136.168-.306.025-.244.025-.7.025-1.228V4.992c0-.874 0-1.037-.006-1.22-.013-.197-.064-.258-.246-.312a.697.697 0 0 0-.188-.022c-.064 0-.097-.02-.097-.06 0-.04.039-.054.123-.054.266 0 .628.013.784.013.136 0 .603-.013.822-.013.084 0 .123.013.123.055 0 .04-.031.06-.103.06-.065 0-.156.007-.22.021-.156.026-.201.109-.214.311-.013.184-.013.347-.013 1.221V6.01zM336.36 4.992c0-.874 0-1.037-.006-1.22-.013-.197-.065-.259-.246-.312a1.003 1.003 0 0 0-.227-.021c-.058 0-.097-.02-.097-.06 0-.042.045-.055.13-.055.298 0 .66.013.822.013.181 0 1.444.007 1.554 0 .104-.006.195-.027.24-.034.032-.007.065-.027.09-.027.033 0 .04.027.04.055 0 .04-.033.108-.046.372-.006.062-.02.313-.032.38-.006.028-.02.096-.065.096-.039 0-.045-.028-.045-.076a.577.577 0 0 0-.039-.21c-.046-.1-.09-.182-.376-.21a18.995 18.995 0 0 0-.894-.027c-.026 0-.038.021-.038.055v1.424c0 .033.006.061.038.061.13 0 .868 0 .997-.013.137-.015.215-.034.273-.088.045-.041.065-.075.09-.075.027 0 .045.027.045.061s-.012.129-.045.42a6.868 6.868 0 0 0-.025.386c0 .048-.007.13-.059.13-.039 0-.052-.021-.052-.047-.006-.061-.006-.137-.019-.211-.033-.115-.103-.203-.317-.223a17.46 17.46 0 0 0-.894-.027c-.026 0-.032.027-.032.06v.462c0 .197-.007.685 0 .854.012.394.188.482.77.482.15 0 .389-.007.538-.074.143-.068.207-.19.246-.428.013-.061.026-.088.064-.088.046 0 .052.074.052.135 0 .13-.045.523-.077.638-.039.15-.09.15-.305.15-.427 0-.77-.007-1.048-.021-.28-.007-.493-.014-.661-.014-.065 0-.188.007-.324.007-.137.007-.279.014-.395.014-.07 0-.11-.02-.11-.061 0-.028.019-.061.09-.061a.787.787 0 0 0 .201-.02c.117-.028.149-.137.169-.306.025-.244.025-.7.025-1.228V4.992zM340.103 7.611c-.091-.04-.11-.067-.11-.196 0-.313.025-.672.032-.768 0-.087.026-.148.07-.148.052 0 .06.054.06.095 0 .074.019.197.051.298.123.428.55.57.907.57.492 0 .79-.326.79-.732 0-.252-.058-.502-.563-.815l-.331-.204c-.673-.413-.893-.8-.893-1.309 0-.704.647-1.16 1.437-1.16.37 0 .661.054.81.095.051.014.078.034.078.075 0 .074-.02.238-.02.692 0 .122-.026.184-.07.184-.04 0-.06-.034-.06-.102a.665.665 0 0 0-.149-.38c-.084-.108-.265-.271-.634-.271-.408 0-.778.223-.778.616 0 .259.091.461.603.76l.234.136c.75.434.984.875.984 1.398 0 .428-.156.773-.57 1.079-.272.202-.648.236-.952.236-.33 0-.68-.034-.926-.149M343.922 7.611c-.09-.04-.11-.067-.11-.196 0-.313.026-.672.033-.768 0-.087.026-.148.071-.148.052 0 .059.054.059.095 0 .074.019.197.051.298.123.428.55.57.906.57.494 0 .791-.326.791-.732 0-.252-.058-.502-.564-.815l-.33-.204c-.673-.413-.894-.8-.894-1.309 0-.704.649-1.16 1.439-1.16.369 0 .66.054.809.095.052.014.078.034.078.075 0 .074-.02.238-.02.692 0 .122-.025.184-.07.184-.04 0-.06-.034-.06-.102a.67.67 0 0 0-.148-.38c-.085-.108-.266-.271-.635-.271-.408 0-.777.223-.777.616 0 .259.09.461.603.76l.232.136c.752.434.985.875.985 1.398 0 .428-.155.773-.57 1.079-.272.202-.647.236-.952.236-.33 0-.68-.034-.927-.149M350.45 4.525c0-1.031 0-1.221-.013-1.439-.014-.23-.066-.338-.28-.386a1.28 1.28 0 0 0-.252-.02c-.07 0-.11-.014-.11-.062 0-.047.046-.06.142-.06.344 0 .752.02.933.02.266 0 .641-.02.94-.02.81 0 1.1.284 1.204.387.143.141.324.446.324.806 0 .964-.674 1.641-1.594 1.641-.032 0-.103 0-.135-.006-.032-.006-.077-.014-.077-.061 0-.054.045-.075.18-.075.363 0 .868-.426.868-1.119 0-.224-.02-.679-.382-1.017a.935.935 0 0 0-.648-.265.888.888 0 0 0-.252.027c-.033.014-.052.055-.052.129v2.714c0 .624 0 1.16.032 1.451.02.19.059.34.254.366.09.014.232.028.33.028.07 0 .103.02.103.053 0 .048-.052.069-.123.069-.428 0-.836-.021-1.004-.021-.15 0-.557.02-.816.02-.085 0-.13-.02-.13-.068 0-.034.026-.053.104-.053a.976.976 0 0 0 .233-.028c.13-.026.162-.176.188-.372.032-.285.032-.821.032-1.445V4.525zM358.136 5.61c0-1.275-.732-2.063-1.652-2.063-.635 0-1.38.353-1.38 1.778 0 1.187.649 2.124 1.723 2.124.402 0 1.309-.198 1.309-1.839m-3.874-.109c0-.983.66-2.258 2.39-2.258 1.439 0 2.332.834 2.332 2.157 0 1.322-.92 2.36-2.39 2.36-1.658 0-2.332-1.234-2.332-2.259M360.252 7.611c-.09-.04-.11-.067-.11-.196 0-.313.025-.672.031-.768 0-.087.027-.148.072-.148.052 0 .058.054.058.095 0 .074.02.197.053.298.122.428.55.57.906.57.492 0 .79-.326.79-.732 0-.252-.058-.502-.564-.815l-.33-.204c-.673-.413-.894-.8-.894-1.309 0-.704.648-1.16 1.438-1.16.37 0 .66.054.81.095.052.014.078.034.078.075 0 .074-.02.238-.02.692 0 .122-.026.184-.07.184-.04 0-.059-.034-.059-.102a.67.67 0 0 0-.15-.38c-.083-.108-.265-.271-.634-.271-.408 0-.777.223-.777.616 0 .259.09.461.602.76l.234.136c.75.434.984.875.984 1.398 0 .428-.156.773-.57 1.079-.272.202-.648.236-.952.236-.33 0-.68-.034-.926-.149M364.071 7.611c-.09-.04-.11-.067-.11-.196 0-.313.026-.672.033-.768 0-.087.026-.148.071-.148.052 0 .059.054.059.095 0 .074.019.197.051.298.123.428.55.57.907.57.492 0 .79-.326.79-.732 0-.252-.057-.502-.563-.815l-.33-.204c-.674-.413-.894-.8-.894-1.309 0-.704.647-1.16 1.438-1.16.369 0 .66.054.81.095.051.014.077.034.077.075 0 .074-.02.238-.02.692 0 .122-.025.184-.07.184-.04 0-.06-.034-.06-.102a.667.667 0 0 0-.148-.38c-.084-.108-.266-.271-.635-.271-.408 0-.778.223-.778.616 0 .259.092.461.604.76l.232.136c.752.434.985.875.985 1.398 0 .428-.155.773-.57 1.079-.272.202-.647.236-.952.236-.33 0-.68-.034-.927-.149M368.073 4.992c0-.874 0-1.037-.006-1.22-.013-.197-.072-.264-.194-.306a.719.719 0 0 0-.208-.027c-.058 0-.09-.013-.09-.068 0-.034.045-.047.135-.047.214 0 .603.013.764.013.143 0 .512-.013.732-.013.072 0 .117.013.117.047 0 .055-.032.068-.09.068a.766.766 0 0 0-.169.02c-.156.027-.201.11-.214.312-.013.184-.013.347-.013 1.221V6.01c0 .556 0 1.018.026 1.263.02.156.059.243.227.27.078.015.207.021.292.021.064 0 .09.033.09.06 0 .041-.045.062-.11.062-.376 0-.765-.02-.92-.02-.129 0-.518.02-.744.02-.071 0-.11-.02-.11-.061 0-.028.019-.061.09-.061a.787.787 0 0 0 .201-.02c.116-.028.149-.11.168-.279.026-.237.026-.699.026-1.255V4.992zM371.77 6.784c0 .38.02.494.2.57.15.06.28.067.409.067.305 0 .7-.176.7-.813 0-.265-.11-.72-.538-1.026a.79.79 0 0 0-.492-.148h-.246c-.02 0-.033.006-.033.04v1.31zm0-1.696c0 .047.02.055.039.06.052.015.136.021.265.021.189 0 .35-.02.447-.102.15-.122.26-.332.26-.61 0-.387-.22-.868-.713-.868-.078 0-.188 0-.246.013-.039.007-.052.034-.052.096v1.39zm-.738-.096c0-.875 0-1.037-.007-1.22-.012-.197-.064-.258-.245-.312a.962.962 0 0 0-.227-.022c-.059 0-.097-.02-.097-.06 0-.04.045-.054.13-.054.297 0 .66.013.77.013.285 0 .66-.013.855-.013 1.03 0 1.21.556 1.21.862 0 .448-.316.793-.64 1.01.466.157 1.049.57 1.049 1.25 0 .615-.467 1.254-1.515 1.254-.066 0-.26-.008-.454-.022-.194-.005-.395-.013-.486-.013-.064 0-.188.008-.324.008-.136.005-.279.013-.394.013-.072 0-.111-.021-.111-.061 0-.028.02-.061.091-.061a.778.778 0 0 0 .2-.02c.117-.028.15-.136.169-.307.026-.243.026-.698.026-1.227V4.992zM375.24 4.992c0-.874 0-1.037-.006-1.22-.013-.197-.07-.264-.194-.306a.715.715 0 0 0-.207-.027c-.059 0-.09-.013-.09-.068 0-.034.044-.047.135-.047.214 0 .602.013.764.013.143 0 .512-.013.732-.013.071 0 .116.013.116.047 0 .055-.032.068-.09.068a.775.775 0 0 0-.169.02c-.156.027-.2.11-.213.312-.014.184-.014.347-.014 1.221V6.01c0 .556 0 1.018.027 1.263.02.156.058.243.226.27.078.015.208.021.292.021.065 0 .091.033.091.06 0 .041-.046.062-.111.062-.375 0-.764-.02-.92-.02-.129 0-.517.02-.743.02-.072 0-.112-.02-.112-.061 0-.028.02-.061.092-.061a.778.778 0 0 0 .2-.02c.117-.028.149-.11.168-.279.027-.237.027-.699.027-1.255V4.992zM378.964 6.01c0 .74 0 1.107.123 1.215.097.087.317.121.758.121.304 0 .525-.006.667-.162a.72.72 0 0 0 .143-.346c.005-.054.019-.088.064-.088.04 0 .051.061.051.128 0 .068-.037.496-.084.665-.038.13-.064.157-.362.157-.408 0-.738-.007-1.023-.022-.285-.005-.525-.013-.758-.013-.065 0-.187.008-.324.008-.136.005-.278.013-.394.013-.072 0-.11-.021-.11-.061 0-.028.018-.061.09-.061a.781.781 0 0 0 .2-.02c.117-.027.15-.136.169-.306.025-.244.025-.7.025-1.228V4.992c0-.874 0-1.037-.006-1.22-.013-.197-.065-.258-.246-.312a.692.692 0 0 0-.188-.022c-.064 0-.097-.02-.097-.06 0-.04.04-.054.123-.054.266 0 .628.013.785.013.135 0 .601-.013.821-.013.085 0 .123.013.123.055 0 .04-.032.06-.103.06-.065 0-.155.007-.22.021-.156.026-.201.109-.214.311-.013.184-.013.347-.013 1.221V6.01zM382.097 4.992c0-.874 0-1.037-.006-1.22-.013-.197-.072-.264-.195-.306a.712.712 0 0 0-.207-.027c-.059 0-.09-.013-.09-.068 0-.034.045-.047.136-.047.214 0 .602.013.763.013.143 0 .513-.013.732-.013.071 0 .117.013.117.047 0 .055-.032.068-.09.068a.776.776 0 0 0-.17.02c-.155.027-.2.11-.213.312-.013.184-.013.347-.013 1.221V6.01c0 .556 0 1.018.026 1.263.02.156.058.243.227.27.077.015.208.021.291.021.065 0 .09.033.09.06 0 .041-.045.062-.11.062-.374 0-.764-.02-.919-.02-.129 0-.517.02-.744.02-.072 0-.11-.02-.11-.061 0-.028.018-.061.09-.061.084 0 .15-.006.201-.02.116-.028.149-.11.168-.279.026-.237.026-.699.026-1.255V4.992zM385.814 3.677l-.849.02c-.33.007-.465.048-.55.177a.683.683 0 0 0-.097.196c-.013.047-.026.075-.065.075-.039 0-.052-.034-.052-.095 0-.095.11-.652.123-.699.013-.075.033-.109.065-.109.045 0 .104.048.246.068.169.021.382.028.57.028h2.312c.181 0 .305-.014.39-.028.09-.014.135-.026.154-.026.04 0 .046.034.046.12 0 .124-.014.551-.014.7-.005.061-.019.094-.051.094-.045 0-.058-.026-.065-.114l-.007-.062c-.012-.148-.161-.325-.673-.332l-.72-.013V6.01c0 .529.008.984.034 1.235.019.162.051.271.22.299.077.013.207.02.292.02.064 0 .09.033.09.061 0 .04-.045.061-.111.061-.375 0-.757-.021-.919-.021-.13 0-.518.021-.744.021-.072 0-.11-.021-.11-.061 0-.028.019-.061.09-.061a.78.78 0 0 0 .2-.02c.117-.028.15-.137.169-.307.026-.243.026-.698.026-1.227V3.677zM389.478 4.992c0-.874 0-1.037-.006-1.22-.013-.197-.071-.264-.195-.306a.715.715 0 0 0-.207-.027c-.058 0-.09-.013-.09-.068 0-.034.045-.047.135-.047.214 0 .604.013.765.013.143 0 .512-.013.732-.013.071 0 .116.013.116.047 0 .055-.032.068-.09.068a.766.766 0 0 0-.168.02c-.156.027-.201.11-.214.312-.013.184-.013.347-.013 1.221V6.01c0 .556 0 1.018.026 1.263.018.156.058.243.226.27.078.015.207.021.292.021.064 0 .09.033.09.06 0 .041-.045.062-.11.062-.375 0-.765-.02-.92-.02-.128 0-.518.02-.744.02-.071 0-.11-.02-.11-.061 0-.028.019-.061.09-.061a.778.778 0 0 0 .201-.02c.117-.028.15-.11.168-.279.026-.237.026-.699.026-1.255V4.992zM392.437 4.992c0-.874 0-1.037-.006-1.22-.013-.197-.065-.259-.246-.312a1.003 1.003 0 0 0-.227-.021c-.059 0-.097-.02-.097-.06 0-.042.045-.055.13-.055.297 0 .66.013.822.013.181 0 1.444.007 1.554 0 .104-.006.195-.027.24-.034.032-.007.065-.027.09-.027.033 0 .04.027.04.055 0 .04-.033.108-.047.372-.005.062-.018.313-.031.38-.006.028-.02.096-.065.096-.04 0-.045-.028-.045-.076a.577.577 0 0 0-.039-.21c-.046-.1-.09-.182-.376-.21a18.97 18.97 0 0 0-.894-.027c-.026 0-.039.021-.039.055v1.424c0 .033.007.061.039.061.13 0 .868 0 .998-.013.136-.015.214-.034.272-.088.045-.041.064-.075.09-.075.026 0 .045.027.045.061s-.012.129-.045.42a6.869 6.869 0 0 0-.026.386c0 .048-.006.13-.058.13-.039 0-.052-.021-.052-.047-.006-.061-.006-.137-.02-.211-.032-.115-.102-.203-.316-.223a17.436 17.436 0 0 0-.894-.027c-.026 0-.033.027-.033.06v.462c0 .197-.006.685 0 .854.013.394.188.482.772.482.149 0 .388-.007.537-.074.143-.068.207-.19.246-.428.013-.061.026-.088.065-.088.045 0 .051.074.051.135 0 .13-.045.523-.078.638-.038.15-.09.15-.304.15-.427 0-.77-.007-1.048-.021-.28-.007-.493-.014-.662-.014-.064 0-.187.007-.323.007-.136.007-.28.014-.395.014-.071 0-.11-.02-.11-.061 0-.028.018-.061.09-.061a.78.78 0 0 0 .201-.02c.116-.028.15-.137.168-.306.026-.244.026-.7.026-1.228V4.992zM396.179 7.611c-.09-.04-.11-.067-.11-.196 0-.313.026-.672.033-.768 0-.087.026-.148.07-.148.053 0 .059.054.059.095 0 .074.02.197.052.298.123.428.55.57.907.57.492 0 .79-.326.79-.732 0-.252-.058-.502-.564-.815l-.33-.204c-.674-.413-.894-.8-.894-1.309 0-.704.648-1.16 1.438-1.16.37 0 .66.054.81.095.051.014.077.034.077.075 0 .074-.02.238-.02.692 0 .122-.025.184-.07.184-.04 0-.059-.034-.059-.102a.667.667 0 0 0-.148-.38c-.085-.108-.267-.271-.636-.271-.407 0-.777.223-.777.616 0 .259.092.461.603.76l.233.136c.751.434.984.875.984 1.398 0 .428-.155.773-.57 1.079-.272.202-.647.236-.951.236-.33 0-.68-.034-.927-.149"/>
            <g>
                <path d="M5.227.04c.335.046.696.1 1.084.162.275.053.414.126.414.22 0 .068-.063.114-.187.14-.191.068-.286.121-.286.162v1.287h1.25c.283-.408.477-.65.582-.723.02-.013.04-.02.06-.02.084.026.229.133.433.322.282.255.436.435.462.543 0 .094-.023.147-.068.16H6.25v1.742h1.055c.262-.37.443-.588.542-.655a.193.193 0 0 1 .069-.01c.078.02.21.114.393.282.257.24.4.411.434.513 0 .094-.027.148-.079.16H6.252v1.963h1.36c.301-.443.508-.705.62-.785a.122.122 0 0 1 .069-.02c.098.027.255.137.473.331.301.282.469.48.502.594 0 .095-.023.148-.07.162H6.253v.15c.02 1.167.035 1.985.049 2.455 0 .18-.227.272-.68.272-.23 0-.344-.07-.344-.211.02-.403.032-1.255.039-2.556V1.027C5.296.69 5.266.363 5.227.04M.411 1.942c.222.039.935.067 2.137.08h.69l-.01-.322a15.513 15.513 0 0 0-.1-1.62C4.16.22 4.677.355 4.677.483c0 .08-.089.141-.266.181a.52.52 0 0 0-.207.211l-.01 3.914c-.197 2.414-1.35 3.98-3.457 4.698-.014-.027-.05-.057-.109-.091.749-.436 1.386-1.093 1.91-1.972.238-.334.415-.768.533-1.298-.486.276-1.153.554-2 .835-.052.316-.118.473-.197.473-.065 0-.15-.147-.256-.442-.092-.29-.2-.644-.325-1.067.217.04.552.062 1.005.062.794-.048 1.408-.132 1.842-.252.065-.397.105-.83.118-1.3v-.15h-.68c-.69.007-1.225.034-1.605.082a6.219 6.219 0 0 1-.158-.444c.19.034.802.058 1.833.071h.61l-.02-1.7H2.44c-.795.007-1.419.036-1.872.09a6.53 6.53 0 0 1-.157-.442M18.044 2.817c1.156.85 1.733 1.667 1.733 2.444 0 .25-.073.42-.216.514a.483.483 0 0 1-.345.13c-.256 0-.437-.358-.542-1.076-.145-.785-.401-1.412-.769-1.881.033-.034.08-.078.139-.13M16.546.361l1.044.473h2.522c.308-.39.522-.583.64-.583.119 0 .312.12.581.362.204.18.306.305.306.372 0 .14-.148.292-.443.452v6.197c0 .296.14.446.423.454h.67c.256 0 .407-.155.453-.464.092-.268.178-.851.257-1.75h.216v1.53c0 .274.04.422.118.442.164.107.257.178.276.21a.43.43 0 0 1 .079.233c-.013.342-.352.566-1.015.674a4.92 4.92 0 0 1-.739.05h-.571c-.735-.007-1.116-.36-1.143-1.056V1.077h-2.66l.01 3.168c0 1.087-.094 1.899-.285 2.435-.112.443-.381.905-.808 1.389-.551.643-1.11 1.071-1.674 1.286-.053 0-.109-.036-.167-.11a5.455 5.455 0 0 0 1.447-1.901c.322-.61.493-1.63.513-3.058 0-1.55-.007-2.505-.02-2.867 0-.31-.01-.661-.03-1.057M36.228 6.438c1.07.571 1.606 1.117 1.606 1.64 0 .222-.066.379-.197.473a.51.51 0 0 1-.325.111c-.243 0-.41-.255-.503-.765-.131-.563-.367-1.012-.709-1.348.04-.033.082-.071.128-.111zM34.357 5.03h1.95V3.752h-1.95V5.03zm0-1.56h1.95V2.354h-1.95V3.47zm0-1.378h1.95V.925h-1.95v1.167zM33.4.332l.867.332h1.881c.27-.335.45-.507.542-.513.092.006.273.11.542.311.243.188.364.325.364.413 0 .06-.046.121-.138.181-.15.12-.243.201-.275.241v2.415c.04.933.059 1.536.059 1.81 0 .228-.174.346-.522.353-.263 0-.401-.063-.414-.191v-.392h-1.95v.23c-.04.202-.224.303-.552.303-.203 0-.325-.034-.364-.101 0-.859.012-1.697.039-2.515V1.58C33.466.876 33.44.46 33.4.333zm-.266 5.714c.9.114 1.366.463 1.399 1.046 0 .148-.016.265-.05.353-.078.2-.21.302-.393.302-.099 0-.237-.198-.414-.593-.17-.411-.375-.74-.61-.987a.217.217 0 0 0 .068-.12zm-2.088.05c.985.182 1.477.315 1.477.403 0 .113-.177.235-.531.363v1.025c0 .302.16.463.482.483h1.793c.367-.007.62-.124.758-.353.099-.16.22-.53.365-1.105l.177.01v1.086c.007.086.073.154.197.201.138.08.207.168.207.261-.013.323-.309.534-.886.634-.453.054-.91.08-1.37.08-.94 0-1.533-.02-1.783-.06-.538-.034-.807-.502-.807-1.408v-.553c0-.516-.027-.873-.08-1.067zm-.759.443c.119 0 .177.004.177.01.02.194.03.5.03.916-.006.879-.331 1.324-.975 1.337-.342 0-.526-.113-.552-.342 0-.195.112-.395.335-.603.184-.08.388-.258.61-.533.159-.188.283-.45.375-.785zm2.207-5.533c.033 0 .091.033.177.1.361.322.565.537.61.644 0 .081-.026.121-.078.121h-1.497v.503c.887.47 1.333.895 1.34 1.278 0 .262-.07.436-.207.523a.488.488 0 0 1-.257.061c-.125 0-.233-.161-.325-.484-.158-.45-.341-.815-.551-1.096v2.847c0 .174-.187.269-.562.282-.216 0-.325-.054-.325-.161l.02-2.254c-.414.745-1.015 1.362-1.802 1.851-.034 0-.067-.037-.1-.11.782-.873 1.295-1.808 1.538-2.807.052-.175.091-.32.118-.433h-.335c-.42 0-.746.027-.975.08a6.556 6.556 0 0 0-.138-.412c.223.046.593.073 1.113.08h.59V.655a7.279 7.279 0 0 1-.048-.604c.82.101 1.273.225 1.359.372 0 .088-.063.152-.187.192-.177.093-.266.154-.266.18v.826h.246c.144-.209.289-.39.433-.543.046-.048.082-.07.109-.07zM49.232 3.772h1.616V2.555h-1.616v1.217zm-2.344 0h1.506V2.555h-1.526v.694c0 .162.006.336.02.523zm-.04-1.488h1.764c.255-.39.422-.69.501-.906h-1.477a4.69 4.69 0 0 1-.562.574 3.19 3.19 0 0 1-.305.292l.079.04zM47.301 0c.926.275 1.389.473 1.389.593 0 .094-.21.168-.63.22-.066.103-.138.2-.217.293h1.241c.296-.315.476-.482.542-.503.085 0 .279.125.581.372.243.223.368.353.375.393 0 .068-.05.114-.149.14a1.477 1.477 0 0 1-.433.09 4.906 4.906 0 0 1-1.005.686h1.744c.25-.323.417-.487.502-.493.092.006.263.104.512.292.224.166.336.295.336.381 0 .062-.05.118-.148.172-.151.101-.243.174-.276.22v.685c.04.268.06.444.06.523 0 .209-.166.316-.494.322-.236 0-.364-.057-.384-.17v-.181h-1.585a3.21 3.21 0 0 1-.552.562 4.2 4.2 0 0 1 .788 1.077c.552-.43.916-.868 1.093-1.319.677.39 1.015.628 1.015.716 0 .067-.053.1-.158.1l-.325.02c-.217.12-.463.241-.739.362.164.516.45.956.857 1.318.38.35.76.583 1.133.705a.784.784 0 0 1-.049.19.486.486 0 0 0-.355.182 2.302 2.302 0 0 0-.207.351c-.059.102-.118.154-.177.162-.112-.014-.325-.228-.64-.643-.447-.7-.713-1.423-.798-2.175-.184.067-.374.132-.571.192.19.43.285.852.285 1.267 0 1.309-.292 2.07-.876 2.284a1.014 1.014 0 0 1-.395.071c-.144 0-.216-.068-.216-.202-.033-.282-.158-.48-.375-.593a2.974 2.974 0 0 0-.778-.272V8.27c.617.047 1.11.074 1.478.08.204 0 .315-.439.334-1.316-1.01.583-2.14 1.015-3.388 1.297a.488.488 0 0 1-.098-.161c1.405-.55 2.551-1.261 3.438-2.133a11.135 11.135 0 0 0-.04-.241 11.334 11.334 0 0 1-3.349 1.288.464.464 0 0 1-.098-.162c1.293-.503 2.347-1.167 3.162-1.992a1.361 1.361 0 0 0-.119-.201c-.768.57-1.81.919-3.122 1.047a.363.363 0 0 0-.08-.161c1.334-.33 2.266-.856 2.799-1.58h-1.241c0 .074.003.144.01.212-.04.161-.238.241-.592.241-.177 0-.266-.051-.266-.151.013-.315.02-.66.02-1.037v-.543c-.145.094-.295.181-.453.262a1.086 1.086 0 0 0-.099-.11c.985-1 1.58-1.97 1.783-2.908zM44.74.05c.972.201 1.458.376 1.458.524 0 .1-.174.177-.522.23-.23.705-.48 1.329-.749 1.872.329.093.493.174.493.242 0 .047-.073.09-.217.13-.125.054-.187.1-.187.14v3.41c.025.934.039 1.805.039 2.617-.026.167-.233.261-.62.282-.25 0-.375-.061-.375-.18.026-.893.04-1.791.04-2.697V4.024a5.594 5.594 0 0 1-.936.995l-.06-.13c.789-1.2 1.334-2.814 1.636-4.839zM62.895 4.799a.822.822 0 0 1-.256.604.803.803 0 0 1-1.201 0 .818.818 0 0 1-.257-.604c0-.235.085-.436.257-.604a.797.797 0 0 1 1.201 0c.17.168.256.37.256.604M78.844.111c.341.046.7.104 1.073.17.276.048.414.118.414.212 0 .067-.059.11-.177.13-.19.074-.286.131-.286.172V6.73c.013 1.167.026 1.986.04 2.455 0 .182-.224.272-.67.272-.23 0-.345-.07-.345-.212.02-.402.033-1.255.04-2.556V1.096c-.02-.334-.05-.664-.09-.985zM73.919 3.21c-.165.946-.3 1.66-.404 2.143h2.521c.296-.33.486-.492.572-.492.092.005.269.123.532.351.269.242.403.4.403.473 0 .074-.062.141-.187.2a1.81 1.81 0 0 0-.246.152c-.125 1.268-.302 2.093-.532 2.474-.144.517-.594.835-1.35.957-.118 0-.194-.075-.226-.222a1.07 1.07 0 0 0-.433-.593 2 2 0 0 0-.76-.343c.008-.006.021-.073.04-.2.44.106.867.18 1.281.22.315 0 .505-.093.571-.281.152-.282.306-1.09.464-2.424h-2.7c-.072.362-.115.543-.128.543-.04.12-.19.18-.453.18-.374 0-.561-.057-.561-.17.473-1.878.725-3.092.758-3.642.42.181.706.32.857.413h1.98V1.027H73.88c-.683 0-1.188.027-1.517.08a4.09 4.09 0 0 0-.128-.403c.256.046.82.07 1.695.07h1.861c.302-.375.506-.563.61-.563.08 0 .244.1.493.302.263.228.395.386.395.473 0 .06-.05.124-.148.19-.067.041-.168.108-.306.202v1.359c.04.307.059.58.059.814 0 .194-.22.305-.66.332-.21-.006-.315-.08-.315-.22v-.454h-2zM91.187 6.227c.197.563.555 1.036 1.074 1.418.374-.428.63-.902.768-1.418h-1.842zm2.315-.684c.065 0 .22.094.463.282.177.18.27.285.276.311 0 .054-.017.088-.05.102-.11.046-.173.086-.186.12a4.198 4.198 0 0 1-1.114 1.68c.079.033.151.067.217.1.407.182 1.057.273 1.95.273-.013.086-.023.14-.03.16-.084 0-.183.107-.294.322-.027.155-.05.295-.07.423-.026.1-.082.15-.167.15-.736-.04-1.464-.365-2.187-.975-.716.463-1.612.785-2.69.966a.71.71 0 0 1-.068-.13 9.24 9.24 0 0 0 1.793-.937c.177-.114.341-.23.492-.352-.394-.463-.666-1.063-.817-1.8-.27.006-.467.027-.592.06a15.147 15.147 0 0 0-.186-.403c.275.054.696.08 1.26.08h1.488c.276-.288.446-.432.512-.432zm-6.156-4.265c.282.04.512.1.69.18.36.175.54.377.54.604 0 .242-.062.41-.186.503a.54.54 0 0 1-.335.091c-.151 0-.25-.12-.296-.362a1.948 1.948 0 0 0-.187-.484 3.594 3.594 0 0 0-.315-.422c.026-.027.055-.064.09-.11zM90.714.1c.1.027.28.171.542.434.256.26.384.448.384.562 0 .061-.085.104-.256.13.177.229.358.43.542.605.466-.497.752-.98.857-1.45.683.262 1.024.43 1.024.504-.006.074-.164.117-.472.13-.27.33-.7.638-1.29.927.275.248.554.45.837.603.499-.436.85-.919 1.054-1.449.15.108.406.265.768.474.177.113.266.194.266.24-.007.061-.053.092-.138.092a2.792 2.792 0 0 0-.365.04c-.21.16-.45.312-.719.452-.19.107-.4.199-.63.272.663.349 1.419.54 2.266.574a8.777 8.777 0 0 1-.02.19c-.053.007-.132.061-.237.161-.053.061-.118.188-.197.383-.033.128-.095.19-.187.19-.276 0-.676-.153-1.201-.462a1.065 1.065 0 0 0-.198.131v.654c0 .181.09.275.267.281h.295c.217 0 .38-.037.492-.11a.828.828 0 0 0 .158-.17h.08c.084.04.192.132.323.28.125.147.188.251.188.313 0 .234-.4.354-1.202.362-.243 0-.45-.013-.62-.04-.551-.007-.834-.229-.848-.664V3.622h-.709c-.013.268-.049.49-.108.664-.151.71-.693 1.184-1.626 1.418a2.995 2.995 0 0 1-.117-.13c.282-.135.511-.355.689-.664.151-.275.227-.699.227-1.269 0-.334-.014-.57-.04-.704l.897.412h.7c.09-.113.17-.201.235-.26a5.211 5.211 0 0 1-1.536-1.822.254.254 0 0 1-.069.011c-.782.872-1.784 1.603-3.005 2.192h1.143c.223-.248.378-.375.463-.381.085.006.243.097.473.272.204.153.305.27.305.351 0 .053-.046.104-.138.152-.151.1-.24.167-.265.2v.664c.032.255.049.42.049.493 0 .194-.152.295-.453.301-.217 0-.332-.056-.345-.17v-.14h-1.31c-.085.475-.155.851-.207 1.126h1.31c.256-.296.42-.443.493-.443.085.007.236.107.452.302.237.208.355.346.355.413s-.05.124-.148.171c-.079.04-.154.083-.226.13-.105.906-.263 1.492-.474 1.76-.117.37-.51.601-1.18.695-.087 0-.143-.064-.169-.191a.856.856 0 0 0-.325-.503 1.577 1.577 0 0 0-.552-.292.808.808 0 0 0 .04-.17c.315.093.624.157.926.191.276 0 .444-.065.503-.192.137-.188.275-.723.413-1.61h-1.467a2.108 2.108 0 0 1-.08.303c-.032.1-.164.15-.393.15-.316 0-.473-.046-.473-.14.309-1.194.473-1.962.492-2.304.342.147.575.258.7.33h1.32V3.743h-1.823c-.413.175-.844.333-1.29.473-.046-.033-.085-.104-.118-.211.781-.31 1.615-.782 2.502-1.418.551-.417 1.103-.96 1.655-1.63H87.71c-.27.02-.466.043-.591.07a2.455 2.455 0 0 0-.256-.483c.4.08.939.127 1.615.14h1.606c.341-.388.552-.583.63-.583zM107.747 7.153c1.057.503 1.59.968 1.596 1.398 0 .282-.046.476-.138.583-.092.135-.233.202-.424.202-.204 0-.334-.18-.394-.543-.184-.672-.447-1.184-.788-1.54l.148-.1zm-1.517-.775h.768V4.085h-.768v2.293zm0-2.585h.768V1.72h-.768v2.073zm-.552 3.41c.801.43 1.205.825 1.212 1.187 0 .309-.053.523-.158.644-.092.135-.24.202-.443.202-.132 0-.22-.168-.266-.503-.112-.624-.282-1.1-.512-1.43l.167-.1zm-1.083-.825h.729V4.085h-.729v2.293zm0-2.585h.729V1.72h-.729v2.073zm-1.133 3.39c.663.443 1.008.932 1.034 1.469 0 .402-.157.607-.472.613-.335 0-.507-.147-.513-.442v-.927c0-.26-.043-.478-.128-.652.033 0 .06-.021.079-.061zm-.542-.805h.769V4.085h-.769v2.293zm0-2.585h.769V1.72h-.769v2.073zm-.906 3.228c.111 0 .168.004.168.012.019.18.029.462.029.844-.007 1.033-.38 1.559-1.123 1.58-.315 0-.487-.111-.512-.333 0-.174.108-.358.324-.552.21-.094.444-.303.7-.624.178-.215.315-.524.414-.927zm.532-6.99c.867.28 1.3.455 1.3.522 0 .128-.17.208-.512.241a4.383 4.383 0 0 1-.433.624h4.885c.263-.368.447-.587.552-.654a.154.154 0 0 1 .059-.01c.072.021.204.117.394.292.256.242.397.405.423.494 0 .106-.02.166-.058.18h-1.251v2.073h.216c.328-.497.535-.748.62-.755.073 0 .217.13.435.392.216.242.34.406.374.493 0 .101-.04.154-.119.162h-1.526v2.293h.265c.29-.495.477-.748.562-.754.065 0 .197.13.394.392.19.241.302.406.335.493 0 .101-.043.154-.128.161h-7.014c-.978.027-1.47.06-1.477.1a12.72 12.72 0 0 1-.187-.543c.13.054.584.101 1.359.141V4.084c-.867.02-1.304.054-1.31.1-.06-.14-.128-.32-.207-.543.151.054.657.104 1.517.152V2.364c-.328.281-.68.517-1.054.705a.892.892 0 0 0-.167-.101c.84-.772 1.425-1.751 1.753-2.937zM119.667 4.184h2.453V2.716h-2.453v1.468zm0-1.73h2.453V1.026h-2.453v1.428zM118.69.322c.361.167.683.319.965.453h2.287c.261-.29.446-.437.551-.443.085.006.263.107.531.301.25.188.375.327.375.413 0 .067-.05.131-.148.192-.137.107-.22.184-.246.23V3.21c.033.677.05 1.117.05 1.319 0 .22-.174.334-.523.342-.262 0-.4-.062-.413-.182v-.241h-1.36c.164.804.427 1.499.788 2.082.572-.462.969-.969 1.192-1.52.17.102.443.262.818.484.197.127.295.214.295.261-.006.074-.06.112-.158.112a4.496 4.496 0 0 0-.394.04c-.223.161-.48.319-.768.472a5.242 5.242 0 0 1-.857.332c.368.53.821.97 1.36 1.318.354.235.656.385.906.452a.355.355 0 0 1-.04.172 1.011 1.011 0 0 0-.285.11c-.092.08-.174.211-.246.393-.086.168-.165.252-.237.252-.066 0-.2-.088-.404-.262-1.182-.872-1.918-2.439-2.206-4.698h-.857v3.44c.551-.073 1.02-.164 1.409-.271.02.006.035.037.049.09-.637.496-1.554.925-2.749 1.288 0 .202-.03.302-.088.302-.04 0-.112-.098-.217-.292-.092-.196-.227-.5-.404-.916.387-.027.755-.057 1.103-.09V1.227a11.286 11.286 0 0 0-.079-.905zm-1.004-.13c.052 0 .217.12.492.361.27.241.404.399.404.473 0 .08-.046.133-.138.16-.21.081-.345.139-.403.173-.27.595-.697 1.284-1.281 2.061.94.631 1.425 1.365 1.458 2.204 0 1.039-.339 1.64-1.015 1.8-.099-.006-.167-.063-.206-.17a.73.73 0 0 0-.316-.503 1.582 1.582 0 0 0-.394-.202.38.38 0 0 0 .02-.151c.183.028.404.043.66.05.295-.04.443-.354.443-.945 0-.899-.292-1.59-.877-2.073.329-.657.558-1.512.69-2.564h-1.073v8.29c-.04.207-.224.31-.552.31-.204 0-.325-.033-.365-.1 0-1.443.01-2.853.03-4.235V2.353c-.007-1.179-.03-1.88-.07-2.102l.966.382h.975c.263-.282.447-.43.552-.442zM131.497 6.106h1.695V3.33h-1.695v2.776zm-1.034-3.43l.976.382h1.694c.27-.315.45-.476.542-.482.092.006.273.11.541.311.243.188.365.326.365.413 0 .066-.06.13-.177.191-.185.108-.296.188-.335.242v1.8c.039.691.06 1.14.06 1.348 0 .228-.175.345-.523.353-.263 0-.4-.065-.414-.192v-.654h-1.694v.623c-.046.23-.246.342-.602.342-.209 0-.337-.036-.383-.11 0-.725.013-1.431.04-2.122V3.743c-.015-.597-.043-.954-.09-1.067zM137.29.31c.092.048.184.108.276.182.498.428.749.7.749.815 0 .093-.034.14-.099.14h-1.478V8.33c-.006.624-.42.979-1.24 1.066-.133 0-.201-.07-.208-.212a1.36 1.36 0 0 0-.177-.401c-.04-.155-.42-.303-1.143-.444v-.18c.499.033 1.008.05 1.527.05.191 0 .29-.036.295-.11v-6.65h-4.057c-1.183 0-1.922.042-2.217.13a3.735 3.735 0 0 0-.227-.543c.473.073 1.284.11 2.433.11h4.709c.348-.463.598-.743.749-.845.039 0 .075.004.108.01zM148.461.05c.913.169 1.37.296 1.37.382 0 .101-.168.211-.503.332v1.35c.847-.417 1.47-.897 1.872-1.44.67.49 1.004.758 1.004.804 0 .08-.039.125-.118.132-.131 0-.276-.008-.433-.02-.604.314-1.38.59-2.325.824v.845c0 .275.15.426.453.453h1.054c.341-.007.57-.125.69-.351.105-.148.22-.501.344-1.058.105.008.164.01.178.01V3.35c.006.088.082.152.226.192.178.08.266.164.266.252-.02.301-.298.499-.837.593a7.56 7.56 0 0 1-1.054.07c-.716 0-1.172-.017-1.37-.05-.505-.026-.757-.465-.757-1.318V1.036c0-.476-.02-.805-.06-.986zm-.03 4.648c.992.168 1.488.302 1.488.402 0 .107-.184.224-.552.353V6.77c.88-.442 1.524-.956 1.931-1.54.676.491 1.015.759 1.015.806 0 .073-.04.118-.118.13a3.5 3.5 0 0 1-.434-.03c-.617.35-1.415.658-2.394.926v.895c0 .302.16.467.483.494h.945c.375-.007.624-.131.75-.372.111-.162.232-.542.364-1.137l.197.01v1.117c.006.087.078.153.217.2.183.08.276.172.276.272-.02.323-.32.533-.897.634-.335.054-.683.08-1.044.08-.703 0-1.153-.02-1.35-.06-.538-.034-.808-.502-.808-1.408V5.744c0-.516-.023-.865-.069-1.046zm-3.437 2.022h1.842V5.634h-1.842V6.72zm0-1.357h1.842v-.977h-1.842v.976zm-.946-1.58l.857.332h1.793c.296-.303.476-.453.542-.453.092.027.24.107.443.242.276.207.417.352.424.432 0 .073-.05.14-.148.201-.08.054-.161.117-.247.19V8.22c-.013.637-.328 1.033-.945 1.188-.131-.027-.197-.098-.197-.211-.06-.223-.155-.387-.286-.493-.125-.108-.341-.215-.65-.323a.786.786 0 0 0 .02-.161c.341.054.62.08.837.08.23 0 .345-.063.345-.19V6.981h-1.842v2.215c-.04.207-.22.31-.542.31-.204 0-.328-.034-.374-.1 0-.892.013-1.764.039-2.615V5.08c-.013-.732-.036-1.164-.069-1.298zm1.32-3.764c.867.33 1.3.541 1.3.635-.006.108-.207.167-.6.181-.336.597-.837 1.163-1.507 1.7.32.027.686.047 1.093.06.59 0 1.107-.02 1.546-.06-.125-.436-.318-.788-.58-1.057a.954.954 0 0 0 .097-.09c1.006.583 1.507 1.144 1.507 1.68 0 .2-.055.339-.167.412a.436.436 0 0 1-.275.092c-.23 0-.395-.252-.493-.755a.699.699 0 0 0-.039-.12c-.92.374-2.023.61-3.31.704-.04.16-.1.24-.177.24-.027 0-.073-.107-.138-.321a9.878 9.878 0 0 1-.198-.936c.191.054.447.094.769.121.63-.845 1.02-1.674 1.172-2.486z"/>
            </g>
        </g>
    </g>
</svg>
