<svg xmlns="http://www.w3.org/2000/svg" xmlns:xlink="http://www.w3.org/1999/xlink" width="24" height="24" viewBox="0 0 24 24">
    <defs>
        <path id="a" d="M0 0h24v24H0z"/>
    </defs>
    <g fill="none" fill-rule="evenodd">
        <mask id="b" fill="#fff">
            <use xlink:href="#a"/>
        </mask>
        <path fill="#A19062" d="M12.756 9.413v-1.61c0-.353.288-.642.64-.642.353 0 .642.289.642.642v1.61h-1.282zm-3.416 0v-1.61c0-.353.288-.642.64-.642.354 0 .642.289.642.642v1.61H9.34zm6.835 9.666c-2.07 1.023-4.551.656-5.206-2.333-.01-.046-.01-.093-.017-.14-.143-.962-.077-1.308-1.402-1.977-.728-.367-1.277-1.179-1.332-1.954-.062-.88-.014-1.766-.014-2.7h6.947c0 .95.075 1.878-.018 2.793-.084.82-.584 1.43-1.435 1.83a1.811 1.811 0 0 0-.89 2.329c.073.176.162.349.27.519.332.524.834.724 1.479.536 1.337-.39 2.382-1.14 3.13-2.207 2.864-4.087.36-9.298-4.895-10.076-2.903-.43-5.298.554-6.989 2.707-1.627 2.073-1.78 4.336-.559 6.65.814 1.543 2.14 2.576 3.87 3.212.789.292 1.06.673.837 1.155-.215.46-.692.56-1.441.3-4.075-1.413-6.386-5.162-5.612-9.104.73-3.72 4.445-6.522 8.725-6.58 4.199-.057 7.94 2.69 8.82 6.475.796 3.421-1.04 6.968-4.268 8.565zM12 0C5.373 0 0 5.372 0 12c0 6.627 5.373 12 12 12s12-5.373 12-12c0-6.628-5.373-12-12-12z" mask="url(#b)"/>
    </g>
</svg>
