<svg xmlns="http://www.w3.org/2000/svg" width="100" height="100" viewBox="0 0 100 100">
    <g fill="none" fill-rule="evenodd">
        <circle cx="50" cy="50" r="50" fill="#A19062"/>
        <g fill="#FFF">
            <path d="M25.946 59.31a3.335 3.335 0 0 1-3.272-3.32c0-1.826 1.528-3.345 3.348-3.329a3.319 3.319 0 0 1 3.291 3.355 3.323 3.323 0 0 1-3.367 3.293m.15-9.309C22.755 50.009 20 52.493 20 55.951c-.03 3.36 2.639 6.044 6.015 6.049 3.283.005 5.932-2.619 5.984-5.928.054-3.329-2.582-6.082-5.902-6.072M18 58.972V56h-6c.645 1.941 4.244 3.207 6 2.972"/>
            <path d="M72.945 41.515c-2.517.327-5.037.652-7.63.99v-2.743l7.666 1.605a3.53 3.53 0 0 0-.036.148m-10.54 5.201c-.145 1.513-.422 3.002-.943 4.46.433-1.249.764-2.732.943-4.46.117-1.2.147-2.412.149-3.638-.004 0-14.141 1.053-20.092 1.47a6.568 6.568 0 0 0-.05-.272c.17-.1.33-.22.507-.296 1.818-.782 3.667-1.493 5.453-2.345 2.84-1.357 5.771-2.355 8.926-2.46 1.725-.06 3.453.049 5.23.085 0 1.284.028 2.556.026 3.818.023 1.32-.03 2.527-.149 3.638m-48.667 4.117c1.846-1.798 3.982-2.72 6.267-3.47-.254 1.506-3.789 3.704-6.267 3.47m54.489-13.31c-6.901-1.352-13.803-1.69-20.432 1.562-3.483 1.71-7.066 3.204-10.615 4.77-.613.27-1.29.618-1.923.587-3.747-.175-7.49-.175-11.182.53-2.28.439-4.54 1.068-6.74 1.823-2.034.7-3.857 1.865-5.216 3.629-.71.923-1.176 1.949-1.114 3.214.269.017.496.042.729.042 1.925.004 3.848-.016 5.77.015.505.01.727-.15.908-.628.986-2.645 2.856-4.443 5.51-5.16 3.871-1.042 8.142.831 9.814 5.01.231.583.512.774 1.141.774 7.354-.031 25.433-.038 25.433-.038a14.403 14.403 0 0 0 1.028-2.135c-.294.79-.632 1.482-.997 2.08a.592.592 0 0 0-.03.058c.893 0 1.606-.027 2.313.008.448.023.627-.155.788-.571 1.314-3.348 4.256-5.455 7.68-5.433 3.456.024 6.343 1.858 7.727 5.424.163.42.358.572.8.565 1.503-.025 3.007-.053 4.508.011.68.03 1.06-.22 1.239-.825.578-1.966 1.223-3.917 1.681-5.911.365-1.599.496-3.253.734-4.882-.216-.07-.338-.115-.465-.144-6.357-1.476-12.69-3.118-19.09-4.374"/>
            <path d="M70.885 59.317c-1.79-.047-3.217-1.575-3.174-3.398a3.304 3.304 0 0 1 3.34-3.241c1.82.022 3.334 1.6 3.264 3.405-.07 1.86-1.583 3.288-3.43 3.234M71.003 50c-3.293.004-5.994 2.686-6.003 5.964-.01 3.34 2.68 6.045 6.002 6.036A5.988 5.988 0 0 0 77 55.964c-.021-3.306-2.7-5.97-5.997-5.964M34 59h28v-3H34zM79 59c1.595-.407 2.868-1.386 4-3h-4v3z"/>
        </g>
    </g>
</svg>
