<svg xmlns="http://www.w3.org/2000/svg" width="100" height="100" viewBox="0 0 100 100">
    <g fill="none" fill-rule="evenodd">
        <circle cx="50" cy="50" r="50" fill="#A19062"/>
        <g fill="#FFF">
            <path d="M44.053 42.837l8.161-9.62-3.735-9.096zM49.534 23.247l3.62 8.8L57.699 22zM53.976 33.411l10.855 10.853 10.961-4.96-16.854-16.86zM66.194 45.09l8.798 3.615 1.245-8.165zM43.834 45.11l9.298 9.295 10.804-9.182-10.918-10.918zM55.407 54.193l18.706-4.434-9.092-3.739z"/>
            <path d="M48.493 68.913c-5.29 5.295-13.877 5.295-19.167 0-5.294-5.294-5.292-13.875 0-19.17 5.294-5.29 13.877-5.291 19.167 0 5.294 5.293 5.296 13.876 0 19.17M26.955 47.37c-6.608 6.606-6.606 17.31-.003 23.914 6.604 6.603 17.31 6.603 23.914 0 6.606-6.604 6.604-17.308 0-23.912-6.605-6.604-17.308-6.604-23.91-.002"/>
        </g>
    </g>
</svg>
