<svg xmlns="http://www.w3.org/2000/svg" width="100" height="100" viewBox="0 0 100 100">
    <g fill="none" fill-rule="evenodd">
        <circle cx="50" cy="50" r="50" fill="#A19062"/>
        <g fill="#FFF">
            <path d="M65.647 50.648c7.144-4.789 9.938 2.48 9.938 2.48-6.105-3.916-9.938-2.48-9.938-2.48m-10.687 3.52s3.355 8.31 12.337 4.82c0 0-9.182 7.15-12.337-4.82m-1.648-9.743s6.983-3.448 8.987 4.915c0 0-1.844-3.653-8.987-4.915m15.25-6.177c-7.901-3.088-13.645-2.074-13.645-2.074l-7.148 18.294s3.389 12.5 8.754 14.596 16.329-4.795 16.329-4.795L80 45.975s-3.535-4.64-11.437-7.727"/>
            <path d="M44.576 58.517l-4.415-1.226a.456.456 0 0 0-.416.09l-3.514 2.943a.456.456 0 0 1-.749-.33l-.198-4.58a.453.453 0 0 0-.214-.366l-3.884-2.433a.457.457 0 0 1 .082-.815l4.294-1.602a.459.459 0 0 0 .284-.318l1.113-4.445a.456.456 0 0 1 .8-.173l2.851 3.588a.457.457 0 0 0 .39.17l4.571-.314a.457.457 0 0 1 .412.708l-2.53 3.82a.458.458 0 0 0-.044.423l1.713 4.25a.456.456 0 0 1-.546.61zM28.592 41.79a.918.918 0 0 1-.388-1.793l2.688-.581a.92.92 0 0 1 1.091.703.92.92 0 0 1-.702 1.09l-2.689.581zm5.907-3.154l2.69-.583a.92.92 0 0 1 1.09.703.92.92 0 0 1-.703 1.09l-2.689.583a.92.92 0 0 1-1.09-.704.92.92 0 0 1 .702-1.09zm6.295-1.363l2.69-.582a.92.92 0 0 1 1.09.703.92.92 0 0 1-.703 1.09l-2.689.582a.92.92 0 0 1-1.09-.702.92.92 0 0 1 .702-1.09zm4.292 17.638l-.108-.395 4.691-12.005-1.092-5.046-1.1.24a.92.92 0 0 1-1.09-.704.92.92 0 0 1 .703-1.09l1.1-.238-1.44-6.657a2.566 2.566 0 0 0-3.043-1.959l-3.41.738a1.626 1.626 0 0 0-1.286 1.541 5.152 5.152 0 0 1-9.775 2.116 1.627 1.627 0 0 0-1.809-.872l-3.41.738a2.566 2.566 0 0 0-1.96 3.041l1.441 6.657 1.1-.238a.918.918 0 0 1 .387 1.793l-1.099.237 6.471 29.91a2.565 2.565 0 0 0 3.041 1.958l3.411-.737a1.628 1.628 0 0 0 1.287-1.542 5.151 5.151 0 0 1 9.774-2.115 1.629 1.629 0 0 0 1.81.872l3.41-.738c.153-.034.3-.085.44-.143-5.12-3.635-8.096-14.074-8.444-15.362z"/>
        </g>
    </g>
</svg>
