<svg xmlns="http://www.w3.org/2000/svg" width="100" height="100" viewBox="0 0 100 100">
    <g fill="none" fill-rule="evenodd">
        <circle cx="50" cy="50" r="50" fill="#A19062"/>
        <g fill="#FFF">
            <path d="M51.796 69.225c-.088.63-.492.953-1.252.956-2.091.008-4.182.004-6.273.004-7.937 0-15.88-.004-23.817.01-.628 0-1.131-.142-1.454-.745v-1.607c.323-1.385 1.078-2.473 2.499-2.86.246-.068.512-.07.754-.145.137-.042.316-.149.36-.27.23-.661.706-.824 1.316-.822 2.731.009 5.463.001 8.194.001 4.843 0 9.686.007 14.53-.002.703-.002 1.33.047 1.577.908.03.102.265.176.414.198 2.172.333 3.468 2.125 3.152 4.374M80.57 58.278c-1.202.807-2.77.655-3.847-.352-.212-.2-.46-.398-.728-.491l-2.983-1.04a1.837 1.837 0 0 1-1.457.113l-21.298-7.36a1.88 1.88 0 0 1-1.123-1.076l-1.799-.626c-.06-.02-.122-.037-.215-.065-.826 1.022-1.51.916-2.054-.267a.496.496 0 0 0-.317-.245 8.74 8.74 0 0 0-.6-.08l-1.132 3.57a1.232 1.232 0 0 1-1.552.808l-.46-.15c-.613.158-1.001.755-.784 1.469.052.173.25.334.42.43 1.058.603 1.44 1.515 1.094 2.686-.061.207-.137.411-.204.617-.466 1.445-1.474 1.987-2.883 1.525-3.15-1.033-6.296-2.078-9.442-3.119-.69-.228-1.386-.444-2.068-.696-1.113-.41-1.63-1.46-1.305-2.612.094-.334.192-.668.308-.995.36-1.01 1.205-1.534 2.258-1.415.812.093 1.51-.851 1.172-1.63-.004-.009-.01-.016-.013-.024l-.613-.202a1.263 1.263 0 0 1-.794-1.58l3.797-11.966a1.232 1.232 0 0 1 1.552-.808l.695.228c.155-.088.263-.262.376-.57.224-.608.246-1.125-.398-1.417-.96-.435-1.333-1.436-1.05-2.461.088-.314.19-.623.297-.93.429-1.243 1.472-1.807 2.692-1.407 3.84 1.258 7.677 2.529 11.51 3.81 1.268.424 1.79 1.488 1.41 2.779-.105.354-.206.711-.347 1.05-.378.91-1.28 1.4-2.239 1.244-.656-.108-.895.092-1.124.904-.072.254-.091.467-.036.645l.734.241c.645.212 1.002.923.794 1.58l-1.163 3.664c.22.132.42.25.57.342.558-.15.997-.405 1.363-.323.302.067.665.5.737.83.084.39.223.537.56.642.419.13.837.262 1.256.393a1.857 1.857 0 0 1 2.063-.62l21.298 7.36c.457.159.814.483 1.031.884l3.005.938c.293.091.63.09.94.057 1.474-.157 2.8.654 3.292 2.042.482 1.364-.01 2.879-1.197 3.676"/>
        </g>
    </g>
</svg>
