<svg xmlns="http://www.w3.org/2000/svg" width="100" height="100" viewBox="0 0 100 100">
    <g fill="none" fill-rule="evenodd">
        <circle cx="50" cy="50" r="50" fill="#A19062"/>
        <g fill="#FFF">
            <path d="M58.968 56.038l-23.803-.035c-.618-.002-1.118-.775-1.118-1.73.001-.955.501-1.729 1.12-1.729l23.803.037c.617.003 1.118.775 1.118 1.732-.002.953-.505 1.726-1.12 1.725m.093-5.885l-24.408-.28c-2.798-.034-5.083 2.786-5.106 6.296l-.067 10.015c-.022 3.509 2.23 6.38 5.023 6.41l24.41.284c2.797.031 5.085-2.79 5.107-6.297l.065-10.017c.023-3.508-2.227-6.38-5.023-6.411M66.659 66.123l8.088 5.741.083-23.46-8.103 6.299zM43.596 31.741a2.533 2.533 0 0 1-.929 3.463 2.537 2.537 0 1 1 .928-3.463m-.066 9.185a2.539 2.539 0 0 1-4.395-2.538 2.538 2.538 0 0 1 4.395 2.538m-7.855-8.765a2.535 2.535 0 0 1 0-5.072 2.537 2.537 0 1 1 0 5.072m-1.31 4.115a1.244 1.244 0 1 1 2.487-.003 1.244 1.244 0 0 1-2.487.003m1.176 9.182a2.535 2.535 0 1 1-.003-5.073 2.535 2.535 0 0 1 .003 5.073m-3.46-11.299a2.537 2.537 0 1 1-4.393-2.538 2.537 2.537 0 0 1 4.393 2.538m-.996 7.577a2.535 2.535 0 0 1-3.465-.928 2.536 2.536 0 1 1 4.393-2.537 2.537 2.537 0 0 1-.928 3.465m4.523-16.07c-5.858 0-10.606 4.75-10.606 10.61 0 5.857 4.748 10.605 10.606 10.605s10.607-4.748 10.607-10.605c0-5.86-4.748-10.61-10.607-10.61M68.275 31.741a2.532 2.532 0 0 1-.929 3.463 2.532 2.532 0 0 1-3.463-.928 2.534 2.534 0 0 1 .928-3.465 2.534 2.534 0 0 1 3.464.93m-.067 9.185a2.538 2.538 0 0 1-4.393-2.538 2.536 2.536 0 0 1 3.463-.927 2.534 2.534 0 0 1 .93 3.465m-7.853-8.765a2.535 2.535 0 1 1 0-5.07 2.535 2.535 0 0 1 0 5.07m-1.312 4.115a1.244 1.244 0 1 1 2.488-.003 1.244 1.244 0 0 1-2.488.003m1.177 9.182a2.536 2.536 0 1 1 0-5.07 2.536 2.536 0 0 1 0 5.07M56.76 34.159a2.539 2.539 0 0 1-3.466.929 2.535 2.535 0 0 1-.929-3.464 2.538 2.538 0 0 1 4.395 2.535m-.998 7.577a2.536 2.536 0 1 1-2.536-4.393 2.537 2.537 0 0 1 2.537 4.393m4.523-16.07c-5.859 0-10.605 4.75-10.605 10.61 0 5.857 4.746 10.605 10.604 10.605 5.86 0 10.609-4.748 10.609-10.605 0-5.86-4.748-10.61-10.608-10.61"/>
        </g>
    </g>
</svg>
