<svg xmlns="http://www.w3.org/2000/svg" width="46" height="46" viewBox="0 0 46 46">
    <g fill="none" fill-rule="evenodd">
        <circle cx="23" cy="23" r="23" fill="#614A0B"/>
        <g fill="#E3DFD2">
            <path d="M25.068 18.238c.028-.056.06-.112.08-.17.289-.903.917-1.46 1.778-1.714 1.562-.46 3.139-.494 4.696.027 1.21.403 2.032 1.27 2.536 2.458.494 1.156.728 2.384.746 3.633.062 3.691.065 7.383.096 11.074.003.363-.161.454-.478.454-1.33-.01-2.659-.003-3.987-.005-.499 0-.53-.032-.532-.556v-9.59c-.008-2.213-1.814-3.376-3.787-2.442-.894.427-1.195 1.228-1.213 2.167-.026 1.095-.01 2.192-.01 3.289 0 2.196.002 4.39 0 6.584 0 .516-.037.548-.536.548a974.28 974.28 0 0 1-3.95 0c-.473-.003-.507-.038-.507-.537V16.56c0-.494.036-.534.507-.537 1.328-.003 2.658.008 3.986-.005.37-.006.52.125.504.51-.02.56-.005 1.123-.005 1.684.024.008.05.016.076.026M16.806 24.9c0 2.828.003 5.657 0 8.488 0 .586-.02.608-.545.608-1.265.002-2.527-.008-3.792.005-.335.003-.47-.122-.47-.497.007-5.767.007-11.533 0-17.3 0-.38.145-.494.475-.492 1.252.014 2.505.003 3.757.006.56 0 .575.016.575.616.003 2.855 0 5.71 0 8.566M17 11.486A2.518 2.518 0 0 1 14.525 14 2.515 2.515 0 0 1 12 11.493 2.513 2.513 0 0 1 14.496 9 2.514 2.514 0 0 1 17 11.486"/>
        </g>
    </g>
</svg>
