<svg xmlns="http://www.w3.org/2000/svg" width="18" height="18" viewBox="0 0 18 18">
    <g fill="none" fill-rule="evenodd">
        <path fill="#614A0B" d="M9.018 8.489c1.006-.007 1.813-.89 1.796-1.963-.017-1.052-.745-1.808-1.763-1.83-1.062-.023-1.857.769-1.869 1.86-.01 1.05.835 1.94 1.836 1.933m.003 8.344C6.52 13.64 4.331 10.521 4.018 6.485c-.157-2.021.747-3.68 2.473-4.723 1.768-1.067 3.562-1.014 5.266.16 1.613 1.11 2.406 2.73 2.215 4.728-.376 3.95-2.558 6.979-4.95 10.183"/>
        <path stroke="#979797" stroke-opacity=".01" d="M.5.5h17v17H.5z"/>
    </g>
</svg>
