<svg xmlns="http://www.w3.org/2000/svg" xmlns:xlink="http://www.w3.org/1999/xlink" width="55" height="55" viewBox="0 0 55 55">
    <defs>
        <path id="a" d="M0 0h54.464v54.464H0z"/>
        <path id="c" d="M42.086 35.035c-1.53.008-3.07.07-4.54-.457-1.11-.397-1.332-1.071-.431-1.874 2.251-2.008 4.865-3.41 7.833-4.087 1.589-.363 2.481.177 2.5 2.005.042 4.083-.281 4.406-5.362 4.413m-15.02-11.354c-5.77.158-11.476-.522-17.183-1.235-1.536-.191-2.05-.707-1.538-2.295.904-2.8 1.643-5.656 2.332-8.516.368-1.528 1.227-2.336 2.755-2.724 2.15-.545 4.337-.84 6.533-.965 6.95-.393 13.894-.567 20.768.925 1.615.35 2.56 1.06 2.955 2.707.7 2.923 1.52 5.826 2.446 8.689.49 1.517-.076 1.988-1.484 2.168-5.838.745-11.678 1.424-17.585 1.246M16.974 34.556c-1.4.52-2.871.498-4.339.472-.332.006-.665.009-.997.006-4.372-.04-5.04-.784-4.593-4.944.11-1.029.557-1.65 1.615-1.53 3.51.396 6.407 2.062 8.907 4.4.776.726.206 1.3-.593 1.596M54.448 21.33c-.157-1.804-.785-3.711-2.75-3.848-2.778-.195-3.327-1.855-3.804-3.91-.221-.953-.704-1.851-.886-2.807-.691-3.622-3.162-5.313-6.629-5.864-8.513-1.352-17.04-1.31-25.566-.09-4.21.604-7.04 2.663-7.716 7.007-.099.639-.459 1.236-.576 1.875-.379 2.065-1.088 3.537-3.69 3.765-2 .176-2.63 2.009-2.809 3.81-.16 1.618.556 2.64 2.244 2.924.782.132.994.585.743 1.277-1.549 4.267-.562 8.695-.865 12.311 0 3.736-.028 6.743.009 9.75.031 2.509.56 3.007 3.053 3.027 1.94.015 3.88.022 5.821-.003 2.262-.03 2.785-.564 2.843-2.818.012-.457.053-.921-.005-1.372-.22-1.736.579-2.265 2.305-2.247 6.825.07 13.65.03 20.475.027 4.551-.003 3.919-.145 3.96 3.745.023 2.097.614 2.635 2.79 2.664 2.073.027 4.15-.041 6.222.02 1.748.051 2.783-.74 2.716-2.395-.307-7.548 1.01-15.158-.86-22.645-.167-.669-.163-1.184.663-1.323 1.667-.28 2.454-1.243 2.312-2.88"/>
        <filter id="d" width="107.3%" height="108.6%" x="-3.7%" y="-4.3%" filterUnits="objectBoundingBox">
            <feGaussianBlur in="SourceAlpha" result="shadowBlurInner1" stdDeviation="1.5"/>
            <feOffset dy="1" in="shadowBlurInner1" result="shadowOffsetInner1"/>
            <feComposite in="shadowOffsetInner1" in2="SourceAlpha" k2="-1" k3="1" operator="arithmetic" result="shadowInnerInner1"/>
            <feColorMatrix in="shadowInnerInner1" values="0 0 0 0 0 0 0 0 0 0 0 0 0 0 0 0 0 0 0.5 0"/>
        </filter>
    </defs>
    <g fill="none" fill-rule="evenodd">
        <mask id="b" fill="#fff">
            <use xlink:href="#a"/>
        </mask>
        <use fill="#D8D8D8" fill-opacity=".01" xlink:href="#a"/>
        <g mask="url(#b)">
            <use fill="#FFF" xlink:href="#c"/>
            <use fill="#000" filter="url(#d)" xlink:href="#c"/>
        </g>
    </g>
</svg>
