<svg xmlns="http://www.w3.org/2000/svg" xmlns:xlink="http://www.w3.org/1999/xlink" width="489" height="485" viewBox="0 0 489 485">
    <defs>
        <path id="a" d="M287.216 243.782c2.204-1.583 3.938-3.665 5.646-5.65 1.403-1.636 2.87-3.333 4.57-4.819-1.896-.381-3.858-.786-5.808-1.128-1.416-.247-2.81-.589-4.21-.897l.13 1.416c.185.874.52 3.123-.629 4.97-.854 1.339-2.264 2.246-4.302 2.711-2.651.686-7.397 3.337-7.592 3.447l-.205.097.149.171c.063.057 4.798 5.064 12.251-.318zm71.473 83.52l-.192.08c-2.551.968-23.536 8.18-36.827-17.383-1.403-2.56-3.107-10.117-6.122-16.828a65.84 65.84 0 0 0 2.376-4.484c9.197-1.898 16.11-6.185 17.424-8.15-5.146 1.697-10.474 2.189-14.773 2.189a83.506 83.506 0 0 0 5.235-19.64c11.974-.17 24.228-1.539 30.917-6.15 14.62-10.071 17.976-21.43 17.159-33.767 0 0-9.237 23.441-38.306 14.345-2.108-.62-6.285-3.09-11.097-5.396-.804-3.413-1.79-6.774-3.001-10.027 5.414-2.122 12.926-3.875 16.563-4.695-5.662-2.614-12.867-1.36-18.288.331-.168.034-1.575-3.37-1.71-3.665-.51-1.087-.964-2.189-1.477-3.3a.519.519 0 0 1-.115.124c.02.034.02.054.04.094-3.499 2.145-9.029 3.042-17.686.549-.169-.027 8.144-1.707 15.243-5.365-.996-1.446-2.135-2.818-3.094-4.308-.245-.395-1.817-3.286-2.4-3.022 9.594-9.127 20.042-20.717 21.753-29.887 3.038-16.205-2.091-25.8-10.6-33.294 0 0 9.098 21.346-15.703 34.532-2.863 1.617-12.615 3.648-19.353 7.862a89.366 89.366 0 0 0-7.638-3.912c-.113-4.214-1.063-13.579-7.698-16.152 0 0 3.501 5.99 2.63 14.1.064-.746-9.974-2.922-10.963-3.19-.715-.17-1.397-.338-2.095-.465.123.398.245.8.364 1.212.093-.04.132-.044.132-.044s-.02.044-.092.154c.698 2.226 1.406 4.381 2.012 6.433-1.764-.573-3.17-1.406-4.352-2.41a64.232 64.232 0 0 1-1.622 2.437c-6.913 6.52-9.613 15.104-7.892 20.509 1.72 5.372.605 9.917-2.228 15.613 1.83-10.8-2.81-14.609-6.122-22.203-3.333-7.637 1.873-19.512 1.873-19.512-.076 2.172-.39 10.847 1.109 15.995.086-2.879.883-4.783 4.881-9.723 2.009-2.52 5.219-4.361 7.84-5.552-.768-1.162-1.32-2.47-1.71-3.81-.984-.116-1.973-.193-2.99-.284.65-15.014.183-33.826-5.85-42.786-6.785-10.084-14.165-14.86-22.024-16.63l-.745-.13c-2.68-.553-5.427-.737-8.237-.69l-.82.033c-.54.01-1.063.027-1.573.08 0 0 .662.252 1.688.817l.887.52c5.748 3.46 18.721 14.116 11.606 37.393-1.181 4.154-9.501 16.423-9.501 25.952-.957.351-1.906.693-2.823 1.084l-.348-9.25s-3.349 3.497-3.2 10.74c-.53.254-1.055.515-1.568.78-2.267-4.094-5.633-9.077-9.115-10.4 1 3.324 4.25 8.358 3.872 12.06.278.224.61.414.858.669 1.66 1.506 2.905 3.377 4.2 5.278 1.952 2.828 3.762 5.756 5.205 8.899-.384-.63-1.268-1.054-1.824-1.496-1.565-1.302-3.157-2.534-4.762-3.765-1.883-1.476-3.958-2.705-5.844-4.16-.59-.456-1.145-.93-1.721-1.38-3.462 1.835-8.591 4.489-7.936 5.228-10.117-11.252-24.06-24.887-34.874-26.952-15.617-3.012-25.49 1.249-33.177 8.873 0 0-2.088 2.035-2.591 2.781 10.312-3.203 14.525-1.389 15.587-1.242 1.04.188 12.754 1.513 21.55 18.441 1.268 2.48 2.93 9.368 5.683 15.804-4.769-.124-11.325.134-14.406 2.306.199-.127 1.89.442 2.135.509 1.793.348 3.57.756 5.364 1.151 5.17 1.111 9.091 2.012 13.056 5.753.07.097-1.857 4.318-2.462 5.827 4.064 1.182 6.9 3.729 8.822 6.279-2.515-4.267-4.13-9.612-3.676-16.396 9.246 12.45 9.223 21.466 28.58 22.655 18.4 1.097 22.46-.442 33.815 8.835-6.602-.084-21.352-4.511-32.925 5.02 8.323-.646 28.447-4.732 36.96-.833 1.068-4.783 5.718-14.575-.309-26.939-.976-2.058-2.078-4.096-3.17-6.124-1.655-3.086-3.412-6.098-5.351-9.023-1.357-2.052-2.856-3.98-4.329-5.934.06-.09 4.782 2.965 6.635 4.491 1.847 1.5 3.574 3.116 5.15 4.89 1.575 1.764 3.018 3.711 4.166 5.803 1.258 2.303 2.145 4.786 2.724 7.333.35 1.42.606 2.838.794 4.284.11.743.215 1.506.301 2.24.053.377.093.752.116 1.13.027.174.255 1.031.159 1.148 4.011-4.702 10.789-13.94 6.496-27.307 4.405 5.901 5.272 7.494 5.272 7.494 2.462-4.742.513-14.311-4.964-20.874 3.405-.027 8.313-.137 14.005 8.444 6.067-6.011 12.225-10.268 19.149-10.49-5.851 4.446-16.915 12.752-15.468 20.129-5.762 1.65-8.092 2.028-12.232 10.733-4.143 8.739-13.539 21.46-18.956 35.724-.536 10.864.04 24.897-.252 33.285-.298 8.383-4.054 14.304-12.37 14.629-8.29.334-17.06 13.718-18.126 21.61 0-8.869.788-13.812 3.581-18.565-3.965 2.992-9.63 6.677-10.73 15.968-.413-9.8 3.575-18.685 13.775-23.776 10.163-5.08 13.955-3.698 15.325-16.262 1.357-12.548.656-18.612.656-18.612s-2.975 1.596-5.702 13.458c-2.734 11.898-9.929 20.482-20.135 17.33-2.482-.767-4.977-1.543-7.479-2.29-1.373-.405-2.763-.823-4.17-1.225-.423-.12-2.131-.26-2.61-.786-.014 0-.077.007-.077.007s-.027 0-.05-.007a2.198 2.198 0 0 0-.208.13l-.033.128c-4.432 3.079-12.358 9.244-12.986 14.23.072-.398-.348-1.181-.46-1.586a32.63 32.63 0 0 1-.87-4.133c-.633-3.87-.768-8.103.31-11.935l-.026.023c-2.373-.378-4.574-.609-6.49-.609 0 0 2.737-1.265 7.48-2.011.013-.05.013-.05.023-.05 1.969-4.114 5.447-6.949 9.716-8.354 7.082-2.407 15.08-1.45 22.246-.05-1.456 2.787-2.218 5.22-3.604 7.031-.063.017-.649.255-1.523.613.596-.12 1.122-.268 1.556-.425-.033.05-.08.09-.096.123.185-.16.38-.338.609-.458 1.214-.766 2.353-1.627 3.392-2.637 2.21-2.152 3.895-4.873 4.6-7.966 2.174-9.552 14.446-17.193 21.061-17.567-2.21-2.58-7.807-5.422-16.057 1.298-8.22 6.687-19.221 13.428-26.988 2.892-2.198-3.186-.285-5.305-5.596-6.895-5.348-1.583-11.19-1.506-13.308-15.405 7.483 5.415 9.128 6.854 19.42 7.862-3.697-2.862-10.478-6.64-15.217-13.12 1.457 2.537 2.026 4.605 2.026 4.605-4.772-5.17-14.042-7.206-14.615-7.323-.099.268-.191.496-.287.81-.067.261-.669 2.725-.808 2.725-2.67.217-7.416-.118-15.395-2.487 0 0 7.29 5.91 14.333 6.84a97.407 97.407 0 0 0-1.288 7.44c-14.786-2.262-26.902 2.454-30.794 6.751C112.914 264.101 95 260.486 95 260.486s11.15 5.482 16.984 6.547c5.834 1.07 19.284 1.124 30.691-1.426 4.944-1.125 12.771 2.477 20.075 6.915.45 1.787.874 3.62 1.396 5.381 2.198-.994 4.448-1.804 6.884-2.376a48.845 48.845 0 0 1 5.907-.94c.205-.027 2.27 0 2.353-.154-1.29 2.557-3.958 4.297-6.357 5.69-2.102 1.224-4.339 2.148-6.58 3.072.52 1.275 1 2.557 1.583 3.805a75.327 75.327 0 0 0 1.8 3.584c.199.369 1.536 3.35 1.853 3.35l-11.377.57s7.71 4.156 14.333 4.183c0 .03.016.047.043.067a80.542 80.542 0 0 0-4.236 5.392c-7.076 1.379-14.942 2.095-14.942 2.095 2.81 1.995 7.83 2.972 11.205 3.417-4.514 7.27-8.416 16.095-8.727 24.887-.006 11.875-1.826 27.943-8.647 31.092 14.945-7.52 22.676-12.343 25.489-20.737 2.326-6.924 8.028-19.214 23.619-22.808.56.344 1.105.692 1.658 1.02a53.416 53.416 0 0 0-.937 14.08c1.1-3.162 2.618-8.253 3.833-12.363-.08.325 5.722 2.942 6.264 3.183 1.543.7 3.078 1.315 4.64 1.864.612-1.409 1.29-3.685 1.893-5.897-2.081.07-4.514-.043-7.476-.361 2.558-.027 5.338-.91 8.151-2.36.526-2.118.864-3.738.864-3.738.424.843.768 1.764 1.089 2.654 13.158-7.808 26.899-26.213 26.899-26.213-2.648 19.198-13.993 27.625-17.712 36.317-.778-.268-2.224-5.08-.153-10.302-2.303 1.62-4.566 2.996-8.134 3.642.774 3.832.702 7.236.668 8.132.288.161.59.308.88.405.914.379 1.834.616 2.79.84.603.148 7.063 1.413 7.063 1.44-.063 12.989 1.161 26.821 6.073 34.134 9.974 14.77 21.213 18.137 33.391 17.317 0 0-23.172-9.338-14.157-38.737.715-2.52 4.004-7.962 6.536-13.966a80.206 80.206 0 0 0 12.086-3.91c7.22 3.364 8.697 9.58 10.547 15.242 2.879-6.452-1.93-13.243-5.788-17.36 1.558-.723 3.058-1.717 4.64-2.4.036-.023.046-.05.095-.066-1.356-1.346-2.455-2.939-3.177-4.95-.748-2.079-1.131-4.334-1.247-6.58.225.294.45.592.662.88 2.25 2.918 4.557 5.854 7.019 8.601a9.222 9.222 0 0 0 1.039-.565c.477-.325 5.566-3.94 5.586-3.94 9.24 9.539 20.227 19.057 29.067 20.751 7.9 1.516 14.34 1.161 19.76-.522l1.347-.472c5.815-2.085 10.444-5.803 14.488-10.442l.093-.147zm-58.444-14.143c5.126-4.753 9.647-10.181 13.49-16.105 3.957 30.992 29.261 33.629 35.43 34.134-22.07 11.714-39.898-5.853-48.92-18.03zm-10.434-.342c-2.625-.224-5.266-.29-7.877-.344-1.668-.034-3.335.016-4.984-.144-.655-.054-1.294-.114-1.942-.265-.387-.083-.768-.16-1.175-.217-.036 6.673-1.827 12.755-2.555 16.811.338-6.245-1.195-12.705-3.534-18.776-1.172-.579-2.208-1.395-3.194-2.232-2.912-2.447-4.279-5.964-4.71-9.686-.175-1.245-.194-2.507-.21-3.748-4.565-7.119-8.705-11.831-8.705-11.831 3.108 1.241 5.805 2.593 8.151 4.026-.231-.924-.728-1.884-1.145-2.718-1.601-3.156-4.256-5.495-6.906-7.771-2.979-2.577-5.894-5.218-8.095-8.548-6.189-9.408-.215-19.281-.215-19.281 3.69-.338 8.73 4.458 13.883 9.354 5.152 4.89 7.959 6.667 19.058 6.42 11.123-.282 19.936 4.08 21.32 5.923-11.438-2.543-22.925-.813-24.854-.01-7.565 3.652-15.1.01-19.456 1.085 21.28 10.104 28.47 23.588 31.635 31.32-5.266-8.05-9.955-10.443-16.577-14.62.106.064-.103 1.885-.08 2.112 0 .814.024 1.587.123 2.39.05.592.026 1.158.026 1.764 2.923 3.57 4.554 7.363 5.358 11.145 1.446.294 3.144.294 4.408.438 1.946.281 3.905.633 5.828 1.078 2.674.626 5.355 1.462 7.804 2.704 1.307.686 2.588 1.483 3.64 2.544.199.187 1.185 1.747 1.37 1.757a94.153 94.153 0 0 0-6.39-.68zm-32.806 67.322c-21.32-7.694-19.89-31.112-17.017-44.663.198.013.41.046.586.046 5.867.221 11.639-.214 17.189-1.184-14.247 23.454-1.622 42.665-.758 45.801zm10.113-140.821c3.101-.338 9.932 1.144 12.917-7.832.202-.63.413-1.202.622-1.81-1.678-.436-3.382-.804-5.047-1.313-.9-.277-1.784-.522-2.654-.887-.255-.137-.943-.307-1.023-.615.043.1 3.8 0 4.07 0 1.86.013 3.727.1 5.604.1.288-.76.546-1.563.877-2.27.619-1.448 1.37-2.79 2.346-4.015 1.036-1.336 2.264-2.423 3.64-3.38.808-.6 1.711-1.139 2.575-1.67.58-.292 2.615-.948 2.902-1.48-1.247 2.353-2.8 4.585-4 6.958a26.343 26.343 0 0 0-1.81 4.619 2.15 2.15 0 0 0-.1.856c.453-.043.903-.097 1.34-.13.907-.104 1.748-.037 2.628-.208.95-.184 1.946-.237 2.925-.381 3.257-.462 6.477-1.054 9.627-2.032 3.65-1.134 7.55-2.794 10.005-5.91-1.754 2.794-3.892 5.311-6.219 7.604-1.022 1.014-2.111 1.978-3.22 2.922-.533.455-2.025 1.271-2.521 2.008.476-.13.95-.335 1.462-.492 2.651-.72 5.378-.91 8.098-.79 2.873.09 4.63.813 6.692 2.021-.301-.184-1.83.211-2.207.245-1.238.09-2.46.187-3.65.278-1.477.133-2.956.294-4.415.555-.351.077-.722.198-1.1.315 2.056.505 4.177.84 6.252 1.318 3.14.713 6.268 1.51 9.392 2.41 5.845 1.7 11.795 3.628 17.213 6.536.38.195.767.432 1.161.646 5.709-.405 24.046-1.15 29.225-8.27-1.558 4.92-5.341 20.67-39.577 18.478-3.286-.097-11.357-1.308-15.421-2.995-.513-.211 12.191-4.04 19.19-3.237-1.667-.21-3.368-.826-4.986-1.211-5.908-1.319-11.808-2.537-17.63-4.17-2.713-.77-5.404-1.603-7.982-2.698-1.221-.509-3.1-1.151-4.302-2.182a4.359 4.359 0 0 1-.629-.713 4.122 4.122 0 0 0-1.287 1.46c-3.68 6.944-9.942 8.52-3.459 13.23 6.474 4.718 6.328 9.073 24.268 9.762-5.685 1.235-21.458 4.93-31.707-6.543-7.403-.83-9.313-.335-17.014-4.876-3.28-1.352-13.621-1.168-16.338-2.862-.315-.18 1.01-5.987 13.267-7.35zm56.71-91.757c2.929 8.2 12.96 30.044-21.379 43.442a82.601 82.601 0 0 0-11.698-9.793c12.632-3.89 34.272-13.622 33.077-33.65zm-97.846 20.763c19.903-19.646 5.573-43.756 5.573-43.756 19.397 6.135 17.534 30.697 15.558 41.96a7.347 7.347 0 0 0-.54-.024 82.383 82.383 0 0 0-20.59 1.82zm.126 36.782c.818 3.765 1.77 7.454 2.826 11.172a381.941 381.941 0 0 0 3.23 10.666c.907 2.915 1.86 5.83 2.817 8.732.06.258.155.526.248.8.036.157.103.616.222.706-11.477-10.064-28.15-8.805-34.163-8.538-18.506 1.507-24.192-15.094-23.633-14.555 10.422 10.024 18.612 8.605 28.004 8.478-6.529-2.24-9.415-7.956-13.058-14 10.732 10.656 14.637 8.775 19.37 9.716-11.527-17.675-19.192-14.516-24.242-14.867-5.063-.355-7.267-3.364-7.267-3.364s1.615-2.132 9.683-4.006c8.062-1.907 13.856-4.481 19.334 5.814 5.47 10.318 10.116 17.788 16.904 21.918-5.156-6.409-9.051-22.554-8.744-31.243.315-8.725-1.065-13.263-3.68-17.56 3.657 1.208 10.372 6.422 10.332 16.543 0 .98.04 1.971.143 2.939.29 3.574.916 7.145 1.674 10.65zm-82.116-36.751s24.854-10.01 42.98 20.412a84.24 84.24 0 0 0-12.378 14.452c-1.946-11.905-8.528-30.724-30.602-34.864zm35.378 132.29s9.329-16.152 25.568-5.603c-6.88 3.474-17.348 8.076-25.568 5.603zm-16.157 52.619s-9.75-30.48 19.033-44.747c3.405 3.698 7.138 7.058 11.136 10.114-8.946 3.631-23.447 12.708-30.169 34.633zm.113-90.375s12.642 7.748 35.093 3.43c-11.262 5.356-26.783 9.308-35.093-3.43zm-20.479-6.034c-5.712-1.238-11.38-.8-17.182 3.14-5.087 3.413-10.597 2.68-11.861 2.453-.096.103-.179.147-.179.147l-.096-.228s.096.047.275.08c1.241-1.137 9.65-8.815 17.083-13.715 5.55-3.695 18.38-6.603 29.325-4.096a94.071 94.071 0 0 0-.209 3.32 85.768 85.768 0 0 0 .904 15.844c-5.074-2.852-11.573-5.834-18.06-6.945z"/>
        <filter id="b" width="102.9%" height="102.9%" x="-1.4%" y="-1.4%" filterUnits="objectBoundingBox">
            <feGaussianBlur in="SourceAlpha" result="shadowBlurInner1" stdDeviation="1.5"/>
            <feOffset dx="1" dy="5" in="shadowBlurInner1" result="shadowOffsetInner1"/>
            <feComposite in="shadowOffsetInner1" in2="SourceAlpha" k2="-1" k3="1" operator="arithmetic" result="shadowInnerInner1"/>
            <feColorMatrix in="shadowInnerInner1" values="0 0 0 0 0 0 0 0 0 0 0 0 0 0 0 0 0 0 0.5 0"/>
        </filter>
        <path id="c" d="M440.867 270.807c-4.366 1.558-7.045 2.364-9.738.899.589-4.128.993-8.285 1.312-12.469 3.163.653 6.315 1.293 9.455 1.913-.253 3.233-.621 6.448-1.029 9.657zm-1.749 11.14c-3.028-.975-6.102-1.967-9.225-2.941.112-.557.178-1.08.283-1.588 2.729.766 5.375-.746 6.97-1.595.742-.398 1.936-1.173 3.297-1.886-.372 2.692-.838 5.35-1.325 8.01zm-.93 4.77c-2.943-1.038-5.984-2.122-9.117-3.23.214-1.153.434-2.28.661-3.434 3.107 1.008 6.197 1.963 9.215 2.921-.263 1.253-.516 2.523-.76 3.743zm-3.153 12.82a857.223 857.223 0 0 0-8.9-3.667c.385-1.36.766-2.722 1.099-4.084.588-2.427 1.104-4.854 1.633-7.294a7701.7 7701.7 0 0 1 9.094 3.216c-.862 3.949-1.815 7.93-2.926 11.829zm-4.994 15.588c-2.784-1.287-5.678-2.662-8.699-4.051 1.71-4.668 3.186-9.402 4.52-14.17 3.028 1.237 6.01 2.46 8.92 3.664-1.388 4.906-2.992 9.75-4.74 14.557zm-9.52-4.43a3489.753 3489.753 0 0 0-17.987-8.407c.04-.063.046-.129.089-.202a169.18 169.18 0 0 0 3.988-13.095c2.715 1.1 5.513 2.261 8.353 3.441-.088.292-.134.61-.243.922l1.772.5c.072-.232.109-.5.178-.735 2.755 1.13 5.572 2.284 8.337 3.427a205.163 205.163 0 0 1-4.488 14.15zm-.793 2.033c-4.389-2.129-7.509-3.637-7.509-3.637l.497-1.057s3.106 1.438 7.472 3.477c-.141.415-.302.802-.46 1.217zm-10.583 23.455c-5.424-3.64-11.105-7.47-16.536-11.143a171.226 171.226 0 0 0 8.906-20.096c5.904 2.811 12.023 5.778 17.91 8.62-2.948 7.73-6.36 15.315-10.28 22.619zM391.86 324.54c-2.679-1.8-5.26-3.554-7.706-5.195a162.94 162.94 0 0 0 8.186-18.804c2.663 1.283 5.468 2.63 8.367 3.995a176.476 176.476 0 0 1-8.847 20.004zm-9.224 15.684c-1.618-1.37-4.241-3.49-7.184-5.908 3.008-4.565 5.737-9.315 8.269-14.165 2.459 1.644 5.046 3.368 7.706 5.168-2.69 5.095-5.602 10.085-8.791 14.905zm-13.183 17.444c-4.82-4.886-9.557-9.677-13.358-13.516a156.785 156.785 0 0 0 11.263-15.15c2.167 1.804 4.419 3.647 6.562 5.414-2.564 3.872-5.276 7.658-8.18 11.308l.941.766c2.913-3.627 5.632-7.42 8.222-11.282 2.953 2.443 5.556 4.565 7.19 5.904-3.86 5.785-8.1 11.285-12.64 16.556zm-15.981 16.305c-4.33-5.596-8.344-10.765-11.632-15.032a151.349 151.349 0 0 0 12.3-12.53c3.947 4.123 8.73 9.159 13.103 13.764a172.419 172.419 0 0 1-13.771 13.798zM121.06 162.59c-2.18-1.064-8.46-4.114-16.645-8.149.795-1.187 1.588-2.367 2.364-3.524 2.574 2.016 5.993 3.368 9.1 4.555 5.638 2.138 7.423 2.682 7.423 2.682s1.933-1.35.322-2.403c-1.63-1.038-8.19-3.339-10.405-4.645-1.203-.68-2.93-1.631-4.409-3.02a155.48 155.48 0 0 1 7.108-9.107c9.481 6.415 16.152 10.957 16.438 11.13.312-.342.51-.568.868-.995-.733-.498-9.491-6.445-16.415-11.156 2.459-2.91 5.043-5.699 7.703-8.414 2.41 1.95 4.622 3.76 6.571 5.354-.318.332-.65.633-.97.955l1.717 1.734c.394-.382.779-.743 1.154-1.117 3.974 3.278 6.585 5.403 6.752 5.546.296-.272.45-.411.77-.736-.25-.186-2.821-2.317-6.77-5.553a153.16 153.16 0 0 1 12.496-11.126c3.38 3.534 5.649 5.895 5.75 6.03.178-.135.57-.454.81-.61-.132-.155-2.348-2.582-5.636-6.162.835-.65 1.697-1.27 2.532-1.907 3.011 3.521 5.286 6.213 5.546 6.518.292-.259.47-.395.841-.67a793.754 793.754 0 0 1-5.52-6.461c1.326-.968 2.647-1.936 4.018-2.861 3.146 3.962 5.155 6.485 5.29 6.65.309-.199.476-.301.808-.527-.157-.182-2.16-2.705-5.316-6.66.582-.421 1.207-.819 1.799-1.223 2.857 3.862 4.796 6.557 5.003 6.819.342-.222.51-.355.865-.587-.2-.285-2.166-2.964-4.997-6.826 2.219-1.439 4.48-2.804 6.785-4.114 2.647 4.22 4.284 6.86 4.425 7.045.375-.216.566-.332.977-.56-.135-.206-1.775-2.838-4.412-7.029 1.637-.921 3.255-1.846 4.935-2.688 2.41 4.33 3.925 7.068 4.014 7.257.374-.19.559-.275.95-.484-.128-.193-1.637-2.94-4.02-7.227 1.413-.736 2.82-1.45 4.257-2.122 1.058-.49 2.133-.922 3.215-1.406.868 1.857 3.32 6.89 3.659 7.602a95.666 95.666 0 0 0 2.627-1.084c-.08-.199-1.42-3.163-3.505-7.724 1.368-.56 2.758-1.121 4.142-1.678 1.769 4.555 2.877 7.423 2.953 7.655.39-.163.585-.232.97-.405-.083-.199-1.174-3.05-2.946-7.591a177.525 177.525 0 0 1 7.732-2.672c.296 2.648.565 5.582.9 6.65.583 1.737 2.453.215 2.453.215s-.01-1.793-.48-7.542v-.172c.523-.13 1.05-.318 1.575-.458 1.154 4.42 1.953 7.51 2.042 7.85.555-.162.992-.274 1.519-.44-.073-.289-.859-3.355-2.029-7.897 2.624-.69 5.273-1.3 7.94-1.856.851 4.714 1.377 7.717 1.42 7.982.417-.102.618-.162 1.016-.232-.033-.252-.572-3.235-1.41-7.946a82.994 82.994 0 0 1 2.823-.5c.31 2.37.566 4.306.75 5.688l.121.918c.112.823.168 1.31.185 1.406.364-.083.568-.116.812-.169 0-.05-.05-.318-.083-.696l-.203-1.485c-.188-1.386-.448-3.365-.776-5.822 2.866-.474 5.733-.888 8.623-1.253.342 4.177.565 7.22.628 7.99 0 0 1.867-.176 2.334-.222-.026-.256-.233-3.339-.549-8.013 4.132-.411 8.285-.683 12.5-.74-.24 4.327-.405 7.55-.435 7.987.444-.017.641-.017 1.059-.023 0-.355.194-3.624.424-7.924 2.245-.04 4.524-.053 6.802.017l.079-2.443c-2.249-.087-4.5-.06-6.76-.05.149-2.712.31-5.676.444-8.6 2.226 0 4.412 0 6.635.08.434.03.851.073 1.279.096a3800.061 3800.061 0 0 1-2.266 18.877h.487s.395.026.585.043c.023-.355.94-8.003 2.246-18.864 1.808.093 3.62.206 5.427.348-1.926 10.665-3.323 18.363-3.386 18.751.444.03.635.053 1.023.07.049-.305 1.44-8.056 3.376-18.748 1.555.15 3.126.329 4.678.524-2.258 10.645-3.892 18.224-3.961 18.618.41.066.595.066.973.116.065-.321 1.7-7.933 3.984-18.618 3.955.487 7.854 1.124 11.73 1.92-2.959 9.922-5.401 18.15-5.5 18.472.477.096 1.276.252 1.654.355.033-.063.138-.385.286-.899.243.04.539.106.782.136.06-.285 2.87-8.62 4.678-14.01-.108-.033-.555-.169-.976-.318.342-1.078.677-2.178 1.036-3.299 2.995.647 5.96 1.36 8.89 2.182-3.903 10.094-6.73 17.43-6.872 17.789.365.08.546.15.852.242.115-.308 2.945-7.655 6.854-17.806.815.232 1.624.441 2.43.653a3389.59 3389.59 0 0 1-7.565 17.59c.47.13.641.153 1.036.292.24-.57 3.994-9.319 7.525-17.55 3.715 1.14 7.364 2.463 11.003 3.862a8059.706 8059.706 0 0 0-8.14 17.405c.76.268 1.72.573 2.344.769.138-.302 3.475-7.267 8.268-17.206a138.11 138.11 0 0 1 9.094 4.028l.532-1.124a185.91 185.91 0 0 0-9.086-4.018c1.255-2.616 2.61-5.42 4.05-8.38a171.863 171.863 0 0 1 10.198 4.62c-3.778 6.018-7.39 11.71-10.198 16.175-.171-.08-.319-.162-.503-.242l-1.013 2.222c.063.036.112.066.191.122-2.597 4.084-4.284 6.776-4.415 6.965.342.17.539.279.832.402.19-.305 2.248-3.564 4.405-6.962 3.445 1.66 6.828 3.474 10.175 5.38-2.979 3.673-4.938 6.11-5.145 6.359.43.235.598.331.94.517.148-.186 2.098-2.603 5.115-6.345 1.122.663 2.213 1.316 3.285 2.002-.168.388-.362.762-.546 1.134-2.722 5.592-3.462 7.39-3.462 7.39s1.174 2.128 2.403.57c.862-1.098 2.624-4.695 4.113-7.496a163.97 163.97 0 0 1 8.837 6.173c-2.784 3.09-5.217 5.728-5.398 5.954.108.106.54.454.7.636.109-.096 2.37-2.51 5.596-5.92 1.15.881 2.258 1.81 3.399 2.744-3.084 2.653-5.822 5.023-6.299 5.434.385.292.546.444.838.693.342-.305 3.13-2.719 6.28-5.46a181.575 181.575 0 0 1 4.168 3.567c-3.784 3.173-6.16 5.195-6.39 5.374.348.321.502.45.752.703.154-.13 2.554-2.165 6.388-5.394.693.6 1.387 1.21 2.08 1.85-3.652 2.692-6.403 4.737-6.775 5.039.345.325.51.49.782.726.263-.19 3.045-2.261 6.773-5.053 2.324 2.205 4.56 4.512 6.743 6.846-4.3 2.745-7.167 4.572-7.374 4.681.207.226.315.332.48.52.138-.099 3.018-1.929 7.347-4.69a154.17 154.17 0 0 1 3.857 4.276l1.827-1.578c-1.14-1.392-2.383-2.698-3.596-4.038 2.17-1.365 4.612-2.923 7.223-4.565 1.781 1.98 3.573 3.962 5.256 6.05-9.846 5.312-17.088 9.23-17.473 9.426.3.311.404.457.595.68.276-.13 7.529-4.039 17.447-9.38a169.121 169.121 0 0 1 5.918 7.775c-10.13 5.016-17.197 8.566-17.638 8.775.306.421.44.613.664.952.273-.143 7.41-3.694 17.628-8.76.75 1.105 1.486 2.255 2.196 3.362-10.175 3.883-18.522 7.058-18.9 7.188.17.212.266.321.394.48.23-.086 8.607-3.278 18.848-7.16 1 1.505 2.065 2.993 3.008 4.551.102.17.187.339.29.514a4374.4 4374.4 0 0 1-19.187 6.452c.237.305.316.447.507.683.27-.1 8.271-2.798 19.107-6.462a212.813 212.813 0 0 1 4.727 8.46c-2.34 1.78-5.247 2.192-7.091 2.567-2.512.49-9.439.517-11.326.961-1.84.45-.447 2.37-.447 2.37s1.845.057 7.844-.11c4.36-.105 9.222-.334 12.68-2.505.438.908.885 1.816 1.332 2.731-3.16.836-18.091 4.81-19.46 5.165.317.637.553 1.101.777 1.578.611-.169 10.908-2.877 19.44-5.085a174.583 174.583 0 0 1 4.404 10.516c-10.398 1.896-19.3 3.537-19.965 3.636.178.455.263.647.411 1.012.424-.11 9.419-1.73 19.916-3.62.418 1.18.851 2.38 1.26 3.583a10543.893 10543.893 0 0 1-20.075 3.02c.148.481.224.67.342 1.025.355-.063 8.844-1.34 20.09-3.047a169.514 169.514 0 0 1 3.525 12.057l1.164-.295c-1.01-4.024-2.15-7.996-3.479-11.911 2.946-.458 6.076-.952 9.265-1.422a171.864 171.864 0 0 1 4.26 15.737c-6.414.434-13.39.908-19.12 1.283a144.465 144.465 0 0 0-3.82-13.288l-2.305.783c1.424 4.194 2.617 8.41 3.663 12.68-5.277.358-9.054.62-9.495.65.224.836.53 2.016.684 2.656.332-.007 4.28-.239 9.435-.53a139.93 139.93 0 0 1 2.12 11.29c-4.737-.142-7.728-.225-7.995-.225.08.415.102.61.158.945.164 0 3.196.086 7.943.222.565 4.041.983 8.053 1.213 12.124-5.618-.69-9.363-1.13-9.725-1.16.037.45.05.67.07 1.057.253.027 4.037.49 9.708 1.19.243 4.48.286 8.991.128 13.52 0 .053 0 .066-.02.09-5.756-1.165-9.429-1.9-9.744-1.973-.043.487-.043.978-.073 1.09.24.05 3.913.77 9.741 1.953-.121 3.2-.355 6.392-.687 9.594-.976 0-1.962.027-2.896.05-6.48.189-8.488.351-8.488.351s-1.371 2.175.65 2.55c.086.003.191.003.267.026-.013.163-.043.298-.076.517.217.047 3.9 1.23 9.685 3.077-.102.7-.174 1.415-.28 2.108-5.713-2.025-9.418-3.325-9.69-3.428-.086.445-.086.657-.175 1.008.207.056 3.928 1.376 9.672 3.405a142.224 142.224 0 0 1-1.91 9.372c-5.648-2.31-9.297-3.783-9.567-3.912-.118.434-.148.646-.256 1.028.203.102 3.866 1.59 9.556 3.935-.568 2.337-1.14 4.677-1.81 6.991l2.333.673c.651-2.234 1.2-4.485 1.743-6.743 2.4.988 5.092 2.102 7.972 3.27a155.26 155.26 0 0 1-3.824 12.842c-10.934-5.132-19.156-8.948-19.547-9.14-.234.713-.585 1.77-.747 2.35.283.133 8.472 4.085 19.4 9.353a166.178 166.178 0 0 1-8.13 18.658c-10.125-6.823-17.766-11.985-18.14-12.22-.165.345-.25.514-.411.819.299.172 7.952 5.35 18.134 12.19a152.056 152.056 0 0 1-8.2 14.076c-2.163-1.774-4.418-3.643-6.581-5.417 1.647-2.546 3.248-5.145 4.76-7.84l-2.143-1.18c-1.42 2.529-2.94 4.995-4.514 7.465-4.478-3.666-8.11-6.647-8.528-7.008-.25.394-.358.557-.582.895.286.245 2.818 2.334 6.207 5.122l.105.073c.723.583 1.45 1.183 2.226 1.817-3.4 5.188-7.078 10.2-11.073 14.938-2.926-2.954-5.53-5.586-6.446-6.505 0 0-1.74 1.714-1.95 1.936.158.15 2.804 2.924 6.46 6.8-3.794 4.343-7.788 8.497-12.108 12.385-4.132-5.344-6.832-8.878-7.019-9.077-.342.282-.46.395-.796.673.185.22 2.88 3.684 7.03 9.084-1.42 1.26-2.821 2.533-4.275 3.743l1.549 1.883c1.42-1.187 2.827-2.45 4.224-3.703 16.61 21.499 51.773 66.983 52.417 67.832.056-.053.42-.378.792-.683-.473-.623-22.743-29.43-40.223-52.052a178.9 178.9 0 0 0 13.838-13.887 1012.24 1012.24 0 0 0 6.206 6.52c-4.434 4.924-9.07 9.651-14.011 14.047l1.216 1.366c4.971-4.416 9.6-9.16 14.045-14.096 2.511 2.635 4.234 4.429 4.35 4.562.328-.259 1.068-.925 1.068-.925s.69.739 1.745 1.83c-4.1 4.588-8.393 9.067-12.91 13.234l.621.68c4.517-4.184 8.801-8.663 12.934-13.278 1.952 2.032 4.69 4.873 6.703 6.965a212.497 212.497 0 0 1-12.907 13.188l.398.468c4.504-4.197 8.807-8.617 12.94-13.198 1.167 1.203 2.054 2.075 2.19 2.24a4.8 4.8 0 0 0 .519-.46c-.158-.189-1.082-1.107-2.243-2.314.227-.262.45-.507.688-.76 1.183 1.211 2.113 2.143 2.298 2.341.256-.251.503-.477.503-.477-.076-.093-.93-.958-2.335-2.384a251.133 251.133 0 0 0 6.135-7.22 214.016 214.016 0 0 0 17.361-25.348l-.512-.298c-5.162 8.778-10.987 17.298-17.336 25.232-1.992 2.433-4 4.84-6.095 7.194-1.676-1.685-4.01-4.065-6.766-6.856.57-.693 1.233-1.31 1.805-1.98l-.706-.62c-.556.664-1.158 1.3-1.746 1.95-1.94-1.963-4.054-4.127-6.276-6.368a189.533 189.533 0 0 0 14.39-18.914l-1.526-1.017a180.27 180.27 0 0 1-14.173 18.608c-2.08-2.076-4.214-4.26-6.338-6.422 4.54-5.28 8.804-10.807 12.677-16.619.542.438.934.783 1.042.852.27-.335.395-.487.664-.822a52.519 52.519 0 0 1-1.111-.922c3.172-4.846 6.082-9.859 8.79-14.958 5.452 3.647 11.116 7.466 16.53 11.133-.74 1.352-1.469 2.725-2.251 4.077l.782.451c.776-1.316 1.502-2.668 2.222-4.024 13.848 9.295 25.617 17.252 26.035 17.53.207-.335.453-.762.453-.792-.338-.242-12.164-8.215-26.034-17.547a195.903 195.903 0 0 0 10.343-22.732c15.155 7.3 28.128 13.549 28.615 13.75.134-.354.19-.51.305-.825-.611-.308-17.894-8.622-28.591-13.76.14-.399.289-.797.447-1.201 2.613 1.233 5.641 2.626 8.705 4.068-.108.238-.194.537-.3.805l.61.183c.065-.226.163-.491.23-.75 9.31 4.357 18.949 8.859 19.527 9.127.122-.361.19-.527.306-.855-.316-.13-8.544-3.962-19.518-9.1a208.264 208.264 0 0 0 4.78-14.597c17.674 7.277 32.593 13.406 33.125 13.642.155-.487.29-.909.322-1.015-.47-.192-15.425-6.345-33.19-13.632a234.314 234.314 0 0 0 2.902-11.865c13.782 4.85 24.578 8.69 25.019 8.825.101-.43.223-.961.223-.961-.368-.146-11.194-3.965-25.012-8.852.263-1.256.53-2.522.747-3.772 18.311 5.844 33.815 10.754 34.378 10.94.023-.09.092-.54.226-1.038-.48-.13-16.023-5.069-34.41-10.933.526-2.841.983-5.692 1.38-8.54 2.742-1.303 5.954-2.162 7.74.477 2.863 4.234 9.606 8.62 13.107 8.706 2.18.063 4.35-.806 6.203-1.973 3.248-2.045 5.076-3.885 9.127-3.12 4.533.893 8.353 3.32 11.746 6.409 0 0-4.685-13.857-14.35-9.62-9.603 4.246-13.466 8.453-17.089 3.106-3.63-5.364-5.753-10.56-13.68-7.834-.857.308-1.637.593-2.37.852.405-3.093.733-6.2.973-9.32 22.694 4.57 43.044 8.64 43.735 8.776.065-.44.075-.66.135-1.04-.57-.143-20.968-4.238-43.754-8.803.236-2.88.378-5.801.486-8.735l-.585-.02c-.102 2.904-.27 5.785-.493 8.626-3.146-.603-6.316-1.25-9.505-1.9.165-2.337.336-4.68.431-7.058.122-3.272.125-6.56.092-9.849 10.826 1.346 19.144 2.34 19.59 2.397.05-.444.086-.64.142-1.041-.45-.046-8.82-1.074-19.732-2.41-.121-5.447-.49-10.837-1.042-16.215 16.612.451 30.969.816 31.478.849 0-.046-.033-.554-.072-.935-.424-.013-14.814-.411-31.488-.862-1.299-12.117-3.672-24.038-7.22-35.681 3.36-.517 6.595-.991 9.55-1.432.352 1.226.77 2.483 1.095 3.752l.602-.172c-.339-1.22-.743-2.453-1.101-3.67 9.211-1.409 15.803-2.393 16.207-2.47a11.936 11.936 0 0 1-.184-1.054c-.371.076-7.032 1.08-16.32 2.477a208.706 208.706 0 0 0-7.886-21.741c5.32.36 6.957-3.922 9.642-8.381 3.064-5.102 6.858-1.439 15.945 1.986 9.08 3.384 12.73-9.65 12.73-9.65-2.982 3.05-6.385 5.496-10.51 6.523-3.703.955-5.471-.686-8.585-2.39-1.749-.961-3.816-1.654-5.822-1.488-3.212.275-9.228 4.664-11.66 8.692-.695 1.237-1.825 1.658-3.035 1.697a204.107 204.107 0 0 0-6.828-13.834c10.641-3.594 18.512-6.232 18.88-6.375a8.371 8.371 0 0 1-.401-.693c-.312.103-8.186 2.768-18.858 6.349-2.038-3.73-4.178-7.46-6.46-11.073l-.506.322a210.97 210.97 0 0 1 6.365 10.956c-5.714 1.93-12.19 4.114-18.716 6.326a181.729 181.729 0 0 0-3.518-5.921c9.084-3.455 16.23-6.17 16.52-6.292a7.386 7.386 0 0 1-.309-.475c-.25.107-7.397 2.798-16.543 6.28-1.088-1.784-2.252-3.508-3.426-5.268 26.143-12.983 56.395-28.04 57.204-28.441-.24-.435-.345-.61-.562-.992-.668.305-31.058 15.423-57.286 28.474a210.626 210.626 0 0 0-6.148-8.503c18.99-10.24 38.235-20.617 38.813-20.945-.23-.325-.332-.448-.532-.72-.46.272-19.762 10.665-38.816 20.952a173.635 173.635 0 0 0-6.099-7.459c10.03-6.388 18.322-11.67 18.64-11.868a8.144 8.144 0 0 0-.433-.53c-.26.152-8.594 5.44-18.65 11.848-.073-.047-.122-.146-.178-.216l-1.371 1.214c-2.518 1.627-5.109 3.255-7.7 4.91-2.511-2.808-5.069-5.567-7.742-8.212 1.96-1.469 3.294-2.457 3.528-2.613-.267-.361-.391-.527-.618-.865-.237.17-1.634 1.21-3.653 2.725a107.638 107.638 0 0 0-2.965-2.814c4.879-4.095 10.08-8.497 15.25-12.843a209.826 209.826 0 0 1 6.905 6.915l.654-.623a213.45 213.45 0 0 0-6.838-6.886C390.08 88.452 406.41 74.681 406.9 74.234c0 0-.388-.421-.667-.746-.431.364-16.826 14.172-34.04 28.676-6.328-6.044-13.018-11.636-20.087-16.728 1.28-1.94 1.197-4.403 1.184-5.948 0-1.077-.178-3.03-.023-5.002 3.481 2.413 6.943 4.9 10.32 7.518l.364-.484c-3.465-2.708-7.035-5.244-10.631-7.727.289-2.44 1.17-4.721 3.708-5.033 4.79-.527 11.473-4.336 13.094-7.26 1.02-1.833 1.253-4.078 1.111-6.126-.256-3.71-1.002-6.074 1.45-9.177 2.745-3.454 6.47-5.64 10.583-7.15 0 0-13.706-2.172-14.43 7.89-.72 10.09 1.112 15.253-5.01 15.979-6.072.706-11.39.175-12.62 8.142-.066.427-.119.782-.161 1.167-.727-.468-1.414-.929-2.144-1.363 4.195-5.201 7.039-8.716 7.243-8.984-.32-.279-.474-.378-.81-.67-.206.262-3.08 3.836-7.317 9.084a200.326 200.326 0 0 0-15.57-8.971c2.995-4.754 5.07-8.076 5.23-8.301-.223-.14-.559-.319-.634-.375-.095.176-2.153 3.438-5.27 8.341-4.38-2.264-8.844-4.386-13.413-6.309 8.962-18.638 16.773-34.892 17.056-35.432-.398-.176-.596-.242-.97-.395-.493 1.031-4.51 9.372-4.51 9.372l-1.263-.587s3.817-8.172 4.379-9.325c-.296-.1-.562-.222-.993-.375-.22.47-7.854 16.782-16.599 35.5-3.33-1.334-6.664-2.62-10.056-3.797a153.227 153.227 0 0 0-7.04-2.3c5.024-13.026 8.946-23.223 9.098-23.631a15.24 15.24 0 0 0-.822-.272c-.142.335-4.087 10.572-9.123 23.687a197.107 197.107 0 0 0-28.977-6.448c3.59-16.742 6.552-30.576 6.67-31.086-.453-.073-.805-.1-1.002-.133-.066.44-3.057 14.315-6.657 31.103-2.025-.288-4.06-.577-6.109-.776 2.591-14.381 4.626-25.765 4.711-26.23-.417-.046-.608-.053-1.002-.092-.076.4-2.124 11.798-4.74 26.23a214.37 214.37 0 0 0-7.881-.68c2.462-20.468 4.583-38.347 4.665-38.944-.437-.01-.631-.033-1.062-.066-.066.55-2.18 18.436-4.662 38.977-1.61-.097-3.228-.236-4.83-.282l-.029.606c1.601.063 3.206.163 4.78.279a3591.807 3591.807 0 0 1-2.32 19.497c-1.05-.073-2.101-.17-3.157-.206l-.056 1.847c1.016.03 1.993.129 3.015.185-.388 3.063-.74 6.064-1.088 8.974-.743-.043-1.493-.09-2.245-.132-2.13-.063-4.28-.12-6.401-.12.102-2.002.164-3.345.184-3.597-.428-.006-.618-.026-1.065-.053 0 .236-.073 1.608-.194 3.66a175.39 175.39 0 0 0-15.205.806c-.48-7.16-.97-14.278-1.345-19.861 8.18-.766 16.428-1.028 24.732-.71l.03-.945a194.961 194.961 0 0 0-24.815.75c-.378-5.553-.65-9.306-.664-9.584-.614.01-2.041.072-2.041.072s-.78-9.64-.848-10.71c-.444.006-.645.026-1.056.026.023.44.747 9.216 1.65 20.487-3.612.385-7.215.892-10.78 1.482-2.409-18.462-4.589-35.008-4.648-35.525-.355.053-.5.11-.838.156.069.517 2.262 17.04 4.685 35.532-1.608.278-3.212.52-4.813.835-2.946-16.649-5.553-31.106-5.622-31.676-.44.09-.641.116-1.045.199.085.547 2.685 15.06 5.657 31.713a160.999 160.999 0 0 0-11.082 2.629c-1.065-4.148-1.772-6.866-1.831-7.151-.418.106-.605.162-1.039.265.187.69 1.098 4.233 1.86 7.154-2.501.67-5.01 1.406-7.485 2.198-.263-2.185.582-4.913 1.614-9.047 1.812-7.4-3.34-8.517-8.77-10.953-5.429-2.447-1.81-6.449 1.265-15.555 3.08-9.11-10.553-11.279-10.553-11.279 3.287 2.556 5.976 5.593 7.249 9.475 1.147 3.471-.447 5.331-2.078 8.517-.907 1.767-1.529 3.81-1.262 5.735.443 3.067 5.27 8.41 9.57 10.317 4.267 1.933.417 8.334-.52 10.566-.96 2.244-3.166 6.703 2.334 9.395 5.504 2.635 3.995 4.044 2.627 8.473-1.37 4.436 1.233 11.16 5.477 12.96a7.29 7.29 0 0 1 1.858 1.127 148.148 148.148 0 0 0-7.673 2.672c-2.091-5.378-4.458-11.54-6.96-17.962.306-.113.598-.269.894-.355l-.608-1.727c-.312.113-.641.242-.934.368-2.33-6.024-4.74-12.25-7.035-18.23 1.24-.484 2.472-.968 3.734-1.416l-.217-.6c-1.275.468-2.491.981-3.754 1.449-7.43-19.192-13.893-35.947-14.103-36.47-.474.169-.885.354-.99.364.207.55 6.693 17.276 14.107 36.477-2.37.928-4.718 1.877-7.045 2.878-4.393-9.71-7.66-16.808-7.772-17.1-.023 0-.095.01-.095.01s-.365.162-.74.312c.148.341 3.458 7.532 7.83 17.133-.7.281-1.4.593-2.09.905-4.593-9.515-8.002-16.682-8.173-16.987-.325.135-.447.182-.792.351.158.335 3.616 7.542 8.173 16.987-3.466 1.568-6.924 3.21-10.3 4.976-9.955-17.952-18.608-33.553-18.874-34.07-.401.239-.832.467-.832.467s-.06.05-.082.05c.253.52 8.912 16.102 18.844 34.04-2.492 1.34-4.96 2.686-7.4 4.121a38596.176 38596.176 0 0 0-24.604-39.325c-.385.246-.796.494-.796.494s-.108.087-.167.087c.348.583 11.947 19.092 24.617 39.334-4.945 2.894-9.761 6.047-14.452 9.386a25338.219 25338.219 0 0 1-17.605-22.13 2.15 2.15 0 0 1-.164.127s-.306.205-.609.43c.303.359 7.989 10.042 17.602 22.1a199.924 199.924 0 0 0-14.982 11.888l.388.44c4.86-4.193 9.833-8.145 14.982-11.841 3.873 4.883 8.051 10.118 12.167 15.306-3.097 2.192-6.112 4.525-9.1 6.929-4.744-5.172-8.239-8.978-8.393-9.127l-.894.723s-.378.335-.654.577c.147.146 3.705 3.898 8.554 8.984-3.541 2.92-7.062 5.934-10.419 9.19l1.26 1.326c3.356-3.23 6.844-6.253 10.415-9.19a1546.87 1546.87 0 0 0 6.206 6.498 179.203 179.203 0 0 0-14.39 13.128 5926.735 5926.735 0 0 0-15.326-12.578c3.31-3.448 6.69-6.796 10.241-9.992l-.615-.693c-3.57 3.23-6.986 6.634-10.33 10.108C88.387 98.454 78.24 90.127 77.837 89.77c-.283.344-.41.5-.68.832.417.348 10.52 8.662 22.5 18.482a211.338 211.338 0 0 0-9.735 11.006C73.01 108.65 50.332 93.286 49.708 92.832c-.076.083-.161.202-.161.202s-.253.335-.507.643c.592.391 20.183 13.669 40.2 27.205-1.42 1.783-2.777 3.593-4.125 5.377-2.108-2.679-5.537-2.185-7.466-2.003-2.423.259-9.626 1.993-10.606-2.639-1.003-4.628-5.25-10.787-8.209-12.1-1.867-.822-4.04-.832-6.003-.497-3.514.593-5.747 1.551-8.969-.56-3.567-2.348-6.003-5.785-7.827-9.658 0 0-.806 13.596 8.926 13.347 9.74-.245 14.537-2.51 15.78 3.388 1.262 5.878 1.262 11.083 9.027 11.534 6.641.388 9.945.123 12.131 3.494a186.787 186.787 0 0 0-6.45 9.7c-14.12-6.915-27.447-13.45-33.28-16.307-.075.17-.15.325-.15.325s-.675 1.415-.737 1.588c3.915 1.86 18.009 8.57 33.3 15.833a195.616 195.616 0 0 0-5.488 9.508c-18.019-6.72-34.157-12.71-34.604-12.893-.165.299-.25.451-.421.756.539.196 16.641 6.2 34.608 12.923-1.309 2.443-2.597 4.933-3.768 7.426a52439.72 52439.72 0 0 0-45.542-15.426c-.187.372-.23.564-.437.978.73.259 23.706 8.033 45.503 15.426-.296.636-.579 1.276-.878 1.946-22-7.022-45.18-14.368-45.812-14.58 0 0-.197.504-.408.988.694.208 22.898 7.266 45.776 14.566-.618 1.35-1.272 2.68-1.854 4.022l.842.361c.585-1.389 1.265-2.738 1.883-4.104a7023.16 7023.16 0 0 0 18.9 6c-1.893 4.045-3.583 8.172-5.164 12.31-2.93-.726-5.882-1.436-8.778-2.135 1.23-3.315 2.505-6.584 3.942-9.813l-1.664-.736c-1.486 3.315-2.798 6.69-4.06 10.101-7.012-1.7-13.719-3.332-18.992-4.608 1.69-4.714 3.504-9.389 5.516-13.963l-.552-.242c-2.055 4.62-3.876 9.328-5.569 14.046-6.184-1.525-10.33-2.513-10.55-2.556l-.19.991s.013.033 0 .04c.25.063 4.31 1.044 10.392 2.5-1.01 2.844-1.927 5.718-2.801 8.6a33157.272 33157.272 0 0 1-36.95-6.257c-.108.372-.167.574-.269 1.035.589.076 17.342 2.924 36.9 6.22-.747 2.495-1.414 5.015-2.075 7.544-17.76-2.168-32.458-3.955-32.987-4.03-.063.437-.072.639-.122 1.073.516.057 15.162 1.85 32.84 3.969a209.214 209.214 0 0 0-5.593 34.206c-3.51-2.47-8.202-4.28-10.737-3.962-2.058.245-3.971 1.366-5.513 2.699-2.745 2.4-4.192 4.382-8.08 4.233-4.334-.182-8.246-1.91-11.826-4.3 0 0 6.302 12.266 14.685 6.929 8.377-5.32 11.379-9.813 15.534-5.34 1.97 2.167 3.626 4.309 5.592 5.592-.046.978-.144 2.019-.167 3.027-.106 2.818-.148 5.629-.132 8.404l-24.89 3.766c.07.434.102.606.164 1.05.457-.076 11.053-1.687 24.752-3.742a204.804 204.804 0 0 0 5.185 44.102c-8.495 3.331-14.511 5.685-14.748 5.791.033.096.141.52.204.83.315-.137 6.299-2.477 14.748-5.793a203.204 203.204 0 0 0 1.7 6.797c-20.502 8.692-38.524 16.34-39.047 16.556.118.354.19.59.345 1.047.638-.278 18.598-7.9 38.994-16.543.46 1.622.888 3.282 1.374 4.88a215.12 215.12 0 0 0 4.961 14.458l.559-.206a206.76 206.76 0 0 1-4.948-14.437c-.49-1.631-.927-3.276-1.38-4.933 2.925-1.23 5.88-2.487 8.88-3.756.67 2.513 1.386 5.019 2.156 7.525-4.044 2.248-6.707 3.736-6.838 3.806.111.295.131.5.2.726.19-.106 2.827-1.605 6.858-3.83 1.18 3.724 2.476 7.354 3.856 11.014a11357.288 11357.288 0 0 0-22.861 13.668c.105.329.177.484.309.836.394-.222 10.47-6.28 22.855-13.665v.023l.87-.335a.716.716 0 0 0-.078-.159c2.568-1.545 5.217-3.106 7.884-4.714.315.862.575 1.727.92 2.592.947 2.42 1.992 4.75 3.025 7.105-8.19 5.712-14.574 10.217-14.775 10.35.04.08.175.41.267.67.286-.223 6.634-4.665 14.777-10.39.809 1.793 1.677 3.56 2.522 5.327-1.006.172-2.357.093-4.363-.384-6.568-1.605-8.298 3.67-9.28 6.199-.99 2.536-2.926 10.516-7.924 9.176-4.983-1.362-13.137-.252-15.905 2.026-1.745 1.406-2.84 3.554-3.508 5.669-1.196 3.773-1.377 6.431-5.036 8.536-4.096 2.38-8.676 3.034-13.357 2.911 0 0 12.821 7.628 17.48-2.115 4.671-9.733 4.891-15.604 11.22-13.9 6.371 1.737 11.424 4.359 15.793-3.08 4.356-7.44 5.484-10.87 12.013-10.24 1.118.128 2.969.042 4.951-.574.648 1.26 1.358 2.506 2.068 3.766-15.889 11.725-31.09 22.94-31.501 23.232.194.272.289.415.51.736.47-.351 15.609-11.543 31.405-23.183 2.387 4.264 4.876 8.514 7.594 12.601a19446.236 19446.236 0 0 0-23.331 20.432c.351.384 1.24 1.31 1.24 1.31s-1.973 1.756-3.456 3.07a225.99 225.99 0 0 1 1.24 1.276c2.215-2.006 9.698-8.799 18.627-16.915 6.867 9.863 14.623 19.116 23.164 27.53l.621-.647c-8.502-8.407-16.264-17.67-23.115-27.49 2.193-1.995 4.448-4.057 6.736-6.116 7.414 10.775 15.899 20.823 25.39 29.824l1.226-1.356a196.208 196.208 0 0 1-7.69-7.771c1.07-1.336 3.137-3.912 5.747-7.114 3.403 3.673 6.878 7.263 10.583 10.648l.612-.703c-3.699-3.401-7.207-6.995-10.63-10.671 3.676-4.529 8.147-10.082 12.053-14.896 3.196 3.568 6.555 7.035 10.063 10.287-14.669 20.846-43.718 62.177-44.214 62.856 0 .014.408.312.786.614.572-.84 29.555-42.014 44.148-62.793 1.769 1.591 3.518 3.215 5.333 4.737l1.561-1.873c-1.887-1.591-3.672-3.216-5.48-4.89 4.053-5.762 6.723-9.55 6.858-9.746a42.602 42.602 0 0 1-.717-.64c-.217.252-2.847 4.024-6.868 9.72a144.567 144.567 0 0 1-9.905-10.208c4.044-4.996 7.15-8.841 7.37-9.146-.243-.285-.39-.431-.686-.8-.33.382-3.397 4.201-7.378 9.13-3.327-3.775-6.532-7.71-9.481-11.824-1.378-1.93-2.653-3.892-3.935-5.855 4.813-4.386 8.018-7.287 8.182-7.45a287.22 287.22 0 0 0-1.193-1.803c-.335.305-3.8 3.345-8.265 7.254-2.107-3.395-4.057-6.886-5.917-10.426 5.437-4.025 9.037-6.684 9.192-6.8a27.117 27.117 0 0 0-.428-.762c-.227.185-3.807 2.798-9.172 6.77-.023-.064-.046-.103-.056-.147 1.749-1.319 3.416-2.794 4.984-4.23 4.908-4.512 6.352-5.994 6.352-5.994s-.349-2.582-2.183-1.511c-1.256.72-4.205 3.424-6.714 5.576-1.305.945-2.692 1.992-4.04 3.003-1.006-2.105-2.015-4.233-2.942-6.408l-2.223.968a123.995 123.995 0 0 0 3.097 6.704c-2.226 1.183-5.013 2.098-8.163 1.183-.22-.066-.463-.066-.684-.11-.848-1.833-1.68-3.65-2.465-5.5a4088.085 4088.085 0 0 0 18.558-13.018c-.076-.239-.128-.375-.237-.66-.335.249-8.682 6.094-18.59 13.049a181.469 181.469 0 0 1-3.147-8.272c10.744-6.431 18.966-11.337 19.216-11.503-.09-.318-.142-.488-.253-.869-.388.246-8.594 5.139-19.243 11.494-.73-2.085-1.42-4.177-2.06-6.279-.389-1.313-.74-2.632-1.092-3.958 10.55-5.878 19.393-10.814 19.643-10.947-.05-.275-.072-.431-.125-.723-.385.176-9.212 5.099-19.725 10.964-.369-1.403-.71-2.789-1.043-4.168 11.615-4.93 19.897-8.44 20.206-8.593-.086-.351-.119-.567-.237-1.067-.457.222-8.709 3.71-20.209 8.576-.466-1.9-.884-3.819-1.246-5.755 11.435-4.489 20.166-7.907 20.465-8.04-.069-.294-.075-.457-.134-.835-.434.17-9.15 3.568-20.482 8.04a165.849 165.849 0 0 1-2.35-17.339c2.094-.58 5.184-1.382 8.363-2.23.3 4.306.74 8.592 1.404 12.822l2.393-.378a148.176 148.176 0 0 1-1.41-13.075c5.096-1.372 9.787-2.609 10.234-2.755-.016-.487-.066-1.014-.112-1.714-.513.15-4.846 1.293-10.244 2.699-.184-3.411-.23-6.81-.184-10.21l10.231-1.88c.007-.372.007-.6.007-1.071-.395.053-4.416.795-10.221 1.86.006-.912-.017-1.807.02-2.722 0-.163.036-.338.036-.504 6.062-.928 10.02-1.522 10.24-1.555.02-.305.043-.74.043-1.074-.335.043-4.244.653-10.228 1.548.037-.733.076-1.478.132-2.234 3.232.348 6.795-.236 10.073-.836 6.003-1.074 7.844-1.561 7.844-1.561s.993-2.178-.96-2.261c-1.926-.066-8.9 1.382-11.483 1.415-1.384.037-3.281.136-5.23-.278.127-1.714.282-3.441.476-5.112 5.891-.395 9.912-.673 10.181-.69.07-.63.198-1.697.316-2.559-.43.043-4.484.245-10.126.587a156.953 156.953 0 0 1 2.614-14.388c4.757.295 9.386.54 9.925.567.063-.381.135-.57.243-1.054-.706-.047-5.266-.282-9.931-.528a133.527 133.527 0 0 1 2.17-8.009c5.792.706 9.48 1.17 9.708 1.17.102-.364.164-.543.315-1.008-.299-.036-3.978-.497-9.705-1.17a188.388 188.388 0 0 1 1.628-5.099c5.727.965 9.353 1.588 9.58 1.622.111-.372.19-.56.338-1.008-.292-.047-3.899-.667-9.537-1.618.427-1.197.835-2.407 1.286-3.587l-2.262-.875c-.533 1.33-.973 2.695-1.437 4.05-5.26-.871-11.809-1.995-18.992-3.202.69-2.151 1.502-4.246 2.275-6.345 15.714 3.823 29.97 7.28 30.36 7.37.073-.345.122-.544.244-.998-.5-.143-14.63-3.547-30.256-7.383 1.595-4.1 3.288-8.185 5.172-12.21 3.13.991 6.098 1.943 8.935 2.835-.033.07-.072.122-.095.189l1.098.53c.046-.12.108-.235.168-.348 11.2 3.564 19.173 6.107 19.472 6.216.332-.666 1.078-2.132 1.502-2.984-.424-.146-8.271-2.808-19.298-6.517a141.365 141.365 0 0 1 3.505-6.521c10.858 4.05 18.801 6.971 19.094 7.124.174-.282.273-.434.483-.766-.385-.149-8.314-3.1-19.15-7.134.51-.855.977-1.71 1.483-2.583 8.294 3.637 17.943 7.844 18.532 8.116.207-.345.319-.52.565-.908-.779-.355-10.313-4.502-18.551-8.116.713-1.164 1.479-2.314 2.205-3.474a4922.634 4922.634 0 0 0 16.54 7.853c-.598.657-1.226 1.303-1.811 1.96l2.63-2.775zm267.77 100.907c-.108.773-.203 1.555-.308 2.344-3.275-1.07-5.832-1.863-7.496-2.407 2.321.034 5.484-.026 7.805.063zM103.335 153.901c-2.64-1.263-5.447-2.65-8.376-4.058a167.522 167.522 0 0 1 6.203-8.964c.75.812 1.351 1.979 1.624 3.746.332 2.287 1.46 4.074 3.068 5.546a142.713 142.713 0 0 0-2.519 3.73zm-2.985 4.631c-3.402-1.508-6.463-2.838-8.498-3.726a134.745 134.745 0 0 1 2.318-3.776c2.942 1.402 5.776 2.732 8.449 4.011a94.815 94.815 0 0 0-2.269 3.491zm-2.022 3.564c-2.78-1.038-5.74-2.142-8.8-3.269a260.522 260.522 0 0 0 1.768-3.106c2.016.892 5.093 2.24 8.548 3.736-.526.882-1.026 1.777-1.516 2.639zm-3.941 7.316c-2.801-.958-5.767-1.939-8.88-2.996.861-1.708 1.683-3.399 2.567-5.076.326-.593.688-1.16 1.013-1.75 3.07 1.14 6.02 2.24 8.8 3.275a151.434 151.434 0 0 0-3.5 6.547zm8.948 4.151l-.42 1.3s-3.311-1.035-8.578-2.719c.234-.477.464-.905.723-1.402 5.083 1.727 8.275 2.821 8.275 2.821zm-10.171-1.807c-2.6-.815-5.622-1.773-8.923-2.814.247-.527.543-1.061.802-1.592 3.285 1.134 6.283 2.135 8.844 3.01-.234.471-.503.945-.723 1.396zm-9.78-3.096c-5.76-1.827-12.283-3.912-18.97-6.02.312-.65.588-1.31.894-1.963 6.641 2.254 13.157 4.459 18.854 6.382-.256.53-.555 1.074-.779 1.6zm-13.841-16.35c6.223 2.317 12.643 4.694 18.666 6.958-.292.537-.621 1.087-.93 1.628-.927 1.73-1.772 3.47-2.64 5.238-6.02-2.036-12.457-4.244-18.867-6.432 1.19-2.493 2.472-4.946 3.77-7.393zm5.878-10.198c5.993 2.841 12.13 5.762 17.91 8.503-.769 1.283-1.561 2.543-2.32 3.826-.885-.391-1.483-.64-1.641-.713-.171.388-.247.57-.398.962.131.066.687.318 1.502.693-.611 1.017-1.203 2.068-1.818 3.126a2011.584 2011.584 0 0 0-18.683-6.955 162.67 162.67 0 0 1 5.448-9.442zm6.996-10.658c.177.39.358.729.535 1.143.878 2.427 4.688 8.136 12.237 6.757 1.2-.206 3.517-.478 5.332.868a167.967 167.967 0 0 0-6.384 9.21c-5.73-2.828-11.865-5.828-17.862-8.772a179.491 179.491 0 0 1 6.142-9.206zm7.587-10.039c5.609 3.786 11.244 7.619 16.48 11.17-1.39 1.683-2.76 3.354-4.082 5.081-2.377-2.032-5.379-3.428-8.015-3.438-4.712 0-6.434 1.028-7.904-4.999a8.537 8.537 0 0 0-.835-2.158c1.414-1.903 2.844-3.796 4.356-5.656zm10.346-11.719c5.01 4.071 10.303 8.42 15.31 12.551-2.945 3.047-5.766 6.25-8.485 9.515-2.38-1.605-8.758-5.944-16.494-11.152 3.084-3.766 6.342-7.413 9.67-10.914zm14.541 28.58c-2.4 2.891-4.718 5.855-6.917 8.908-.874-1.077-1.588-2.334-1.88-3.942-.349-1.75-1.473-3.51-3.025-4.976 1.37-1.76 2.755-3.474 4.165-5.168 2.683 1.8 5.257 3.55 7.657 5.178zm1.483-15.439c2.508 2.046 4.934 4.038 7.229 5.905-2.719 2.751-5.31 5.602-7.83 8.507-3.893-2.663-7.04-4.794-7.428-5.066-.078.152-.16.272-.16.272s-.112-.073-.264-.176c2.716-3.245 5.517-6.415 8.453-9.442zm15.063-13.79c4.583 4.816 9.34 9.796 13.12 13.79a147.627 147.627 0 0 0-12.696 11.335 1011.607 1011.607 0 0 1-6.588-5.417 153.73 153.73 0 0 1 6.825-6.508l-.789-.898a142.841 142.841 0 0 0-6.973 6.637c-2.291-1.876-4.704-3.859-7.206-5.904a170.501 170.501 0 0 1 14.307-13.036zm16.671 11.055c-.858.654-1.758 1.267-2.6 1.956-3.705-4.044-8.34-9.093-12.838-13.983 1.03-.826 2.075-1.618 3.104-2.404 3.133 3.64 8.16 9.532 12.334 14.431zm-22.141-19.36c2.942-2.387 5.93-4.698 9.001-6.856 6.822 8.563 13.407 16.801 18.075 22.67-1.384.94-2.745 1.939-4.106 2.92-4.165-4.903-9.199-10.781-12.328-14.474.595-.458 1.21-.952 1.827-1.412l-.522-.73c-.658.47-1.256.991-1.894 1.459-1.341-1.572-2.255-2.62-2.416-2.818-.329.295-.464.411-.796.69.178.205 1.039 1.236 2.38 2.774a148.316 148.316 0 0 0-3.133 2.42c-2.11-2.324-4.195-4.561-6.088-6.643zm-3.548-24.128a194.317 194.317 0 0 1 14.393-9.359c3.446 5.527 6.986 11.142 10.389 16.576a168.38 168.38 0 0 0-8.81 5.543c-3.203-4.353-5.455-7.43-5.675-7.721-.332.268-.49.385-.835.63.19.305 2.462 3.355 5.645 7.671-.98.647-1.973 1.247-2.936 1.923-4.106-5.165-8.278-10.416-12.17-15.263zm22.724-14.05c3.12 5.64 6.352 11.47 9.494 17.17-2.18 1.13-4.33 2.304-6.473 3.54-3.392-5.447-6.933-11.056-10.375-16.612 2.416-1.432 4.885-2.768 7.354-4.098zm11.204-5.45c2.627 5.45 5.586 11.606 8.485 17.637a184.67 184.67 0 0 0-9.254 4.472c-3.137-5.676-6.398-11.524-9.505-17.146 3.393-1.77 6.815-3.392 10.274-4.963zm2.886-1.26c2.466 5.44 5.27 11.636 8.065 17.753-.566.245-1.111.53-1.67.782a4318.149 4318.149 0 0 1-8.479-17.64c.697-.298 1.364-.586 2.084-.895zm7.76-3.196c2.34 5.998 4.73 12.214 7.07 18.23-2.002.77-3.984 1.575-5.96 2.397-2.83-6.212-5.628-12.382-8.077-17.776 2.288-1.017 4.629-1.946 6.966-2.85zm-.593 23.382c.572-.252 1.095-.517 1.654-.762 4.852 10.612 9.51 20.806 12.062 26.438-.375.156-.746.345-1.14.475a8489.7 8489.7 0 0 0-12.576-26.15zm-9.931 4.778a185.323 185.323 0 0 1 9.159-4.42c5.513 11.478 10.671 22.192 12.575 26.154-1.092.494-2.206.915-3.298 1.419-1.505.703-2.949 1.449-4.392 2.181a6302.644 6302.644 0 0 1-14.044-25.334zm-7.332 3.998c2.095-1.197 4.251-2.357 6.391-3.501 5.412 9.77 10.445 18.883 14.025 25.315a139.655 139.655 0 0 0-5.05 2.748c-3.882-6.193-9.389-14.991-15.366-24.562zm6.579 29.94c-.645.42-1.263.841-1.904 1.279-4.648-5.918-11.24-14.15-18.071-22.713.917-.676 1.897-1.27 2.84-1.912 5.112 6.975 12.092 16.45 17.135 23.345zM139.46 90.822a168.938 168.938 0 0 1 8.702-5.407 6385.017 6385.017 0 0 1 15.347 24.529c-2.351 1.342-4.665 2.721-6.944 4.21-5.033-6.869-11.99-16.37-17.105-23.332zm42.265 14.44c-.105.017-.602.253-1.039.462-.158-.332-.368-.78-.641-1.31.355-.156.736-.322 1.078-.48.244.526.457.96.602 1.329zm-.05-14.705c-.118 0-.21.066-.308.086l.443 1.14c.096-.026.214-.07.316-.096 1.124 2.937 2.163 5.613 3.057 7.953a266.102 266.102 0 0 0-4.26 1.737c-3.176-6.932-7.591-16.658-12.059-26.418a171.851 171.851 0 0 1 5.865-2.357c2.479 6.411 4.85 12.54 6.947 17.955zm9.696-2.092c1.768 2.038 2.344 4.631 2.784 6.312.112.404.21 1.027.306 1.684a139.552 139.552 0 0 0-8.281 2.841c-.905-2.354-1.934-5.04-3.071-7.97 2.722-1.054 5.48-1.989 8.262-2.867zm-3.548-13.188c3.548-6.803-.963-11.59-3.097-12.953-1.745-1.17-2.666-2.327-3.047-3.64a168.219 168.219 0 0 1 7.555-2.234c.447 1.72.762 3.033.762 3.033l-.713.183c.18.706 3.672 14.023 6.835 26.1-.576.163-1.115.352-1.67.497-.904-1.137-2.085-2.115-3.643-2.711-5.796-2.202-3.836-6.561-2.982-8.275zm13.423-21.701c1.167 6.451 2.38 13.194 3.521 19.596-3.123.64-6.256 1.326-9.326 2.151l.223.875a196.388 196.388 0 0 1 9.274-2.138c.546 3.2 1.098 6.282 1.628 9.17a212.708 212.708 0 0 0-8.834 2.102c-2.561-10.009-5.56-21.585-7.496-29.164 3.646-.955 7.335-1.84 11.01-2.592zm5.796-1.068c.852 6.574 1.746 13.35 2.571 19.716-1.266.238-2.544.47-3.817.716-1.134-6.369-2.37-13.125-3.504-19.596 1.561-.295 3.169-.55 4.75-.836zm11.54-1.638c.486 6.243 1.055 13.152 1.578 19.835-3.258.352-6.493.849-9.722 1.393-.835-6.389-1.722-13.142-2.577-19.712a176.34 176.34 0 0 1 10.72-1.516zm2.416 30.053a155.8 155.8 0 0 0-9.218 1.329c-.388-2.894-.803-6.024-1.213-9.256 3.211-.534 6.43-1.014 9.681-1.392.25 3.225.517 6.332.75 9.319zm-13.196 3.338c1.11-.219 2.2-.45 3.304-.643.434 3.11.799 5.99 1.127 8.513-.992.153-1.95.315-2.939.474-.437-2.456-.947-5.297-1.492-8.344zm-1.858-10.41c1.276-.245 2.522-.507 3.8-.706.412 3.21.836 6.342 1.23 9.266-1.147.19-2.271.428-3.37.637-.526-2.924-1.1-5.998-1.66-9.197zm-7.35 21.37c-.395.113-.79.242-1.174.345-.313-2.934-.865-5.901-2.249-8.229.417-.119.832-.265 1.26-.387.778 2.92 1.498 5.735 2.162 8.271zm-.556-8.69c2.886-.798 5.809-1.464 8.735-2.074.545 3.066 1.052 5.907 1.496 8.374a128.354 128.354 0 0 0-8.108 1.916c-.664-2.477-1.364-5.271-2.123-8.215zm23.759 4.205c-2.943.321-5.829.736-8.755 1.246-.316-2.54-.7-5.404-1.111-8.517 3.038-.513 6.102-.974 9.159-1.332.27 3.133.496 6.04.707 8.603zm15.672-9.618c-.139 2.924-.326 5.871-.47 8.6-4.284.07-8.558.301-12.766.726-.174-2.57-.378-5.457-.582-8.543 4.576-.441 9.185-.72 13.818-.783zm.549-10.555c-.122 2.513-.306 5.818-.497 9.339a153.02 153.02 0 0 0-13.962.802c-.197-3.024-.424-6.18-.635-9.352 5.01-.464 10.057-.743 15.094-.79zm1.071-.02c2.134 0 4.284.02 6.418.12.73.029 1.44.089 2.176.132-.391 3.239-.77 6.375-1.108 9.266-.47-.01-.914-.073-1.39-.08-2.197-.08-4.41-.08-6.599-.08.198-3.52.352-6.829.503-9.358zm9.646.318c2.009.116 4.027.196 6.046.388a971.195 971.195 0 0 0-1.677 9.216c-1.821-.15-3.649-.239-5.48-.341.332-2.894.707-6 1.111-9.263zm1.164-9.876c2.212.1 4.431.252 6.611.451-.536 3.013-1.065 6.007-1.598 8.895-2.012-.186-4.047-.282-6.069-.388.33-2.911.671-5.905 1.056-8.958zm2.554-21.386c2.627.199 5.273.381 7.877.686-1.098 6.127-2.288 12.78-3.471 19.36a125.873 125.873 0 0 0-6.74-.5c.773-6.464 1.581-13.091 2.334-19.546zm8.89.782c2.025.222 4.057.488 6.088.776-1.348 6.206-2.738 12.777-4.11 19.202-1.827-.246-3.638-.428-5.466-.624a5625.342 5625.342 0 0 1 3.488-19.354zm7.075.895a203.36 203.36 0 0 1 28.884 6.405 3470.052 3470.052 0 0 0-7.052 18.32c-3.39-.991-6.779-1.84-10.218-2.632 2.4-7.526 4.172-13.208 4.255-13.457-.234-.043-.5-.136-.55-.149-.088.255-1.916 6.09-4.23 13.496-.448-.1-.855-.182-1.283-.285 2.206-7.422 3.968-13.32 4.054-13.579 0 0-.286-.096-.523-.152-.085.215-1.801 5.99-4.057 13.625-4.448-.951-8.88-1.783-13.4-2.4l4.12-19.192zm29.716 6.624a190.2 190.2 0 0 1 7.075 2.327c3.38 1.15 6.7 2.43 9.97 3.77a4625.87 4625.87 0 0 1-8.29 17.76c-5.201-2.076-10.458-3.94-15.83-5.547a2261.28 2261.28 0 0 0 7.075-18.31zM291 77.562c.96-2.238 1.627-3.77 1.729-4.028-.385-.189-.575-.259-.95-.418-.112.23-.806 1.844-1.802 4.144-.92-.281-1.874-.54-2.817-.809a1732.18 1732.18 0 0 1 3.255-8.513 185.382 185.382 0 0 1 15.714 5.48c-1.315 2.781-2.587 5.507-3.833 8.172A178.173 178.173 0 0 0 291 77.562zm-.365.849c3.794 1.2 7.558 2.55 11.263 4.014-1.378 2.99-2.725 5.812-3.962 8.497-3.626-1.432-7.295-2.748-11.003-3.892 1.38-3.199 2.67-6.212 3.702-8.62zm-3.807-1.124c.92.275 1.857.54 2.791.832-1.029 2.394-2.344 5.417-3.689 8.593-.835-.249-1.676-.448-2.488-.666 1.078-2.759 2.219-5.73 3.386-8.76zm-10.36-2.626c3.206.68 6.375 1.505 9.515 2.39-1.177 3.047-2.334 5.984-3.393 8.753a172.764 172.764 0 0 0-8.942-2.232c.93-2.917 1.884-5.93 2.82-8.91zm-4.263 8.613c.832-2.788 1.752-5.848 2.68-9.007.338.103.7.182 1.045.258-.99 3.117-1.953 6.18-2.821 8.945-.31-.06-.602-.133-.904-.196zm-.336 1.184c.283.04.573.129.872.179-.345 1.167-.707 2.247-1.042 3.272-.24-.093-.431-.163-.48-.193-.497 1.509-1.27 4.068-2.068 6.608l-.21-.07s1.222-4.104 2.928-9.796zm-10.06-12.386c4.222.554 8.41 1.213 12.536 2.075-.904 3.024-1.805 6.06-2.676 9.008-3.912-.8-7.844-1.432-11.825-1.956.634-2.858 1.272-5.921 1.966-9.127zm-.982-.123c-.687 3.2-1.368 6.263-1.966 9.16-1.572-.209-3.173-.404-4.744-.527.522-2.9 1.065-6.004 1.647-9.23 1.7.163 3.393.385 5.063.597zm.19-.911c-1.7-.22-3.38-.415-5.076-.597.52-2.894 1.042-5.871 1.598-8.895 1.792.193 3.577.372 5.385.607-.648 3.02-1.295 6.017-1.907 8.885zm13.598 2.237a163.067 163.067 0 0 0-12.605-2.111c.612-2.891 1.243-5.855 1.897-8.878 4.468.583 8.873 1.409 13.252 2.35-.802 2.732-1.667 5.656-2.544 8.64zm4.852-8.135c3.383.753 6.77 1.601 10.103 2.576a914.581 914.581 0 0 1-3.271 8.457 157.076 157.076 0 0 0-9.534-2.38c.933-2.997 1.864-5.915 2.702-8.653zm-3.248 8.497c-.358-.07-.71-.163-1.075-.226.865-2.94 1.732-5.864 2.554-8.652.418.06.829.156 1.236.252-.887 2.784-1.808 5.715-2.715 8.626zm41.896-18.403a179.81 179.81 0 0 1 13.351 6.266c-4.283 6.813-10.467 16.59-16.286 25.838a158.387 158.387 0 0 0-10.327-4.66c1.306-2.666 2.608-5.391 3.982-8.192 2.58 1.08 5.178 2.234 7.739 3.45l.762-1.66a161.214 161.214 0 0 0-7.719-3.435 2635.61 2635.61 0 0 1 8.498-17.607zm14.005 6.604a206.222 206.222 0 0 1 15.501 8.928c-1.84 2.25-3.882 4.8-6.072 7.512-3.794-2.357-7.666-4.654-11.615-6.763l-.43.809c3.922 2.082 7.729 4.33 11.437 6.677-3.978 4.943-8.344 10.373-12.562 15.578a163.436 163.436 0 0 0-10.188-5.779c-.773-.414-1.591-.755-2.35-1.14 4.97-7.88 11.618-18.432 16.28-25.822zm16.379 9.485c.842.517 1.637 1.057 2.433 1.585-.687 4.734-1.069 7.638-3.146 9.461-1.766-1.187-3.541-2.387-5.34-3.517 2.21-2.725 4.255-5.285 6.053-7.53zm3.005 14.805a196.581 196.581 0 0 1 19.982 16.62c-5.159 4.356-10.376 8.742-15.251 12.85-3.304-3.06-6.684-6.031-10.215-8.823 5.747-6.093 10.474-11.115 10.655-11.301-.325-.345-1.154-1.21-1.259-1.326-.24.245-5.983 6.607-10.629 11.7a198.008 198.008 0 0 0-5.72-4.277c1.315-1.834 2.239-3.9 2.433-5.809.467-4.866-.405-6.746 5.865-7.654 1.995-.292 3.274-1.051 4.139-1.98zm-29 27.4c1.532-2.171 3.972-6.143 8.683-6.58 2.613-.255 5.326-2.182 7.311-4.648a180.82 180.82 0 0 1 5.688 4.227c-2.88 3.17-5.152 5.692-5.152 5.692s-3.909 4.273-7.666 8.44c-3.022-2.28-6.125-4.402-9.307-6.484.147-.232.302-.474.443-.647zm13.72-17.444c.029.799.068 2.072-.297 3.335-2.192-1.465-4.379-2.924-6.634-4.29 4.211-5.208 8.604-10.645 12.568-15.558a148.014 148.014 0 0 1 5.08 3.355c-.714.46-1.562.852-2.65 1.184-2.535.68-8.696 4.024-8.068 11.974zm-7.523-.239a160.874 160.874 0 0 1 6.894 4.456c-.746 1.571-2.294 2.917-5.477 3.086-5.076.292-8.173 4.555-10.618 9.15-.947-.587-1.91-1.17-2.884-1.74 3.337-4.124 7.601-9.389 12.085-14.952zm-19.636 2.56s2.62-4.18 6.282-9.953c.793.382 1.631.726 2.433 1.157 3.413 1.774 6.736 3.713 10.007 5.693a4091.53 4091.53 0 0 0-12.068 14.97 154.116 154.116 0 0 0-10.415-5.559c1.963-3.093 3.738-5.854 3.945-6.216-.095-.043-.184-.092-.184-.092zm34.76 18.923c-.455.424-4.212 3.656-7.947 6.928-1.213-.98-2.387-1.959-3.603-2.887 3.89-4.104 8.738-9.273 13.104-13.904 3.505 2.732 6.874 5.699 10.155 8.722-5.621 4.75-10.717 9.014-14.675 12.356-1.374-1.213-2.742-2.433-4.169-3.607 3.712-3.216 7.368-6.382 7.831-6.813-.27-.318-.41-.464-.697-.795zm15.385 2.31c-2.114 1.595-4.764 3.57-7.571 5.686-.513-.497-.987-1.041-1.49-1.518l-.822.891c.45.448.868.932 1.312 1.353-2.32 1.73-4.668 3.507-6.848 5.125-.697-.68-1.45-1.293-2.176-1.946 3.981-3.332 9.064-7.612 14.669-12.339.99.889 1.97 1.833 2.926 2.748zm-.54 14.67c-2.623 1.631-5.062 3.202-7.252 4.582-2.199-2.384-4.49-4.734-6.831-6.989 2.147-1.614 4.487-3.358 6.818-5.095a173.35 173.35 0 0 1 7.266 7.502zm1.29-13.884a175.335 175.335 0 0 1 7.689 8.126c-2.719 1.757-5.415 3.447-7.96 5.085a162.44 162.44 0 0 0-7.3-7.555c2.813-2.122 5.473-4.095 7.57-5.656zM370 131.205l.68-.587c-.595-.706-1.203-1.356-1.818-2.032 2.61-1.658 5.178-3.299 7.703-4.887a188.12 188.12 0 0 1 6.03 7.334 3814.248 3814.248 0 0 1-17.136 9.249c-1.693-2.089-3.52-4.114-5.329-6.126 2.565-1.642 5.26-3.342 7.966-5.083.625.72 1.279 1.396 1.904 2.132zm19.255 9.017c-6.194 3.077-12.105 6.02-17.322 8.616-1.874-2.675-3.873-5.274-5.918-7.813 5.234-2.832 11.135-6.014 17.122-9.25a184.497 184.497 0 0 1 6.118 8.447zm4.02 6.05c-5.897 2.228-12.4 4.711-18.4 6.982-.763-1.15-1.486-2.327-2.278-3.45a4769.794 4769.794 0 0 1 17.309-8.604 241.151 241.151 0 0 1 3.37 5.073zm3.807 6.356c-6.463 2.178-12.837 4.316-18.578 6.259-.144-.255-.272-.517-.437-.743-.9-1.505-1.913-2.91-2.86-4.382 5.96-2.275 12.506-4.771 18.358-6.986a165.74 165.74 0 0 1 3.517 5.852zm5.303 9.985c-1.006-.225-2.206-.782-3.8-1.353-4.458-1.511-11.622.66-13.95 4.668-.335.623-.782 1.157-1.239 1.641a136.5 136.5 0 0 0-4.464-7.98c5.704-1.952 12.098-4.104 18.551-6.278 1.73 3.05 3.364 6.16 4.902 9.302zm15.56-16.211a207.682 207.682 0 0 1 6.753 13.688c-2.683-.222-5.744-2.078-7.157-2.741-2.223-1.028-6.582-3.355-9.899 1.83-1.302 1.989-2.291 2.986-3.261 3.368-1.634-3.329-3.314-6.62-5.132-9.823 6.513-2.218 12.982-4.4 18.696-6.322zm8.005 16.556a208.334 208.334 0 0 1 7.983 21.943c-2.989.458-6.181.948-9.57 1.442-.47-1.508-.96-3.007-1.467-4.505.957-.176 1.536-.279 1.693-.309a17.912 17.912 0 0 1-.184-1.03c-.131 0-.809.115-1.84.318-1.365-3.988-2.818-7.93-4.436-11.829l-.841.325c1.594 3.872 3.014 7.758 4.366 11.64-2.078.41-5.238.974-8.94 1.664a185.496 185.496 0 0 0-6.574-16.347c1.742-.842 3.067-1.976 3.718-2.765 3.88-4.542 6.743-3.004 14.232-.915.66.192 1.272.275 1.86.368zm-23.578 22.623c3.097-.584 6.112-1.14 8.896-1.635.375 1.17.829 2.314 1.23 3.491l1.726-.567c-.375-1.064-.783-2.165-1.16-3.252 3.727-.663 6.854-1.253 8.918-1.605.487 1.47.973 2.984 1.447 4.47-6.362.954-13.216 1.995-19.768 3.003-.408-1.33-.845-2.616-1.289-3.905zm-.904.142c.464 1.293.842 2.576 1.295 3.866-3.205.49-6.312.981-9.267 1.438a95.801 95.801 0 0 0-1.309-3.626c3.045-.547 6.207-1.104 9.281-1.678zm-4.307-13.579c-1.091.292-9.06 2.364-10.155 2.642-.615-1.29-1.252-2.559-1.877-3.858.861-.733 1.624-1.545 2.19-2.633 2.86-5.457 7.166-3.358 8.846-2.463 3.133 1.757 5.934 1.757 8.255 1.097a187.775 187.775 0 0 1 6.5 16.01c-5.79 1.05-12.654 2.284-19.071 3.46a171.224 171.224 0 0 0-4.416-10.628c5.224-1.372 9.524-2.516 10.004-2.602-.105-.411-.167-.627-.276-1.025zm33.813 50.892c-6.559-.18-13.433-.365-19.926-.55a166.497 166.497 0 0 0-2.091-13.165c3.067-.153 5.161-.282 5.45-.292-.032-.597-.091-2.062-.091-2.062s10.898-.74 12.098-.842c-.023-.405-.036-.59-.066-1.031-.52.03-8.554.587-18.058 1.213a172.902 172.902 0 0 0-4.287-15.823c6.548-.965 13.377-2.02 19.774-2.964 3.534 11.59 5.908 23.472 7.197 35.516zm1.137 17.083c-6.203-.77-13.13-1.592-19.86-2.43-.168-4.778-.51-9.535-1.075-14.256 6.503.183 13.35.372 19.9.554.552 5.334.933 10.708 1.035 16.132zm-3.626 29.528c-1.049-1.147-3.478-2.984-6.657-3.544.348-2.93.628-5.871.838-8.815 2.923.6 5.891 1.197 8.867 1.787-.31 4.048-.717 8.115-1.28 12.13a11.843 11.843 0 0 1-1.768-1.558zm-8.087 6.322c.292-1.694.575-3.358.831-5.042 1.572-.21 2.933.583 5.096 3.55.944 1.326 1.97 2.175 2.959 2.63-.066.556-.138 1.09-.253 1.607-2.89-.918-5.757-1.827-8.633-2.745zm-.756 4.177c.203-1.018.384-2.059.568-3.133 2.867.912 5.77 1.837 8.656 2.769-.226 1.133-.427 2.27-.674 3.42-2.814-1.02-5.7-2.018-8.55-3.056zm-.185 1.021c2.847 1.015 5.704 2.016 8.548 3.017-.523 2.453-1.039 4.936-1.657 7.386-.342 1.31-.713 2.636-1.058 3.926-2.798-1.138-5.596-2.271-8.36-3.405a196.389 196.389 0 0 0 2.527-10.924zm-10.23-3.623c2.768.978 5.648 1.979 8.491 3-.736 3.647-1.558 7.264-2.508 10.808a849.129 849.129 0 0 1-8.337-3.408 170.292 170.292 0 0 0 2.354-10.4zm-11.849 6.478a197.234 197.234 0 0 0 2.157-9.933c2.791 1.028 5.75 2.05 8.82 3.13a190.54 190.54 0 0 1-2.317 10.366 770.632 770.632 0 0 1-8.66-3.563zm-.282 1.07c2.741 1.134 5.65 2.314 8.666 3.538a162.09 162.09 0 0 1-4.008 13.148c0 .046-.03.073-.03.13-2.942-1.367-5.756-2.69-8.475-3.956 1.47-4.233 2.765-8.51 3.847-12.86zm-6.871-14.285c2.442.886 5.174 1.844 8.126 2.901a157.736 157.736 0 0 1-2.127 9.853c-2.876-1.17-5.562-2.268-7.962-3.262.77-3.133 1.41-6.3 1.963-9.492zm20.974-16.9c-3.192-.644-6.282-1.264-9.159-1.844.013-.693.089-1.372.118-2.055l-1.216-.047c-.023.644-.072 1.25-.095 1.87-3.094-.62-5.895-1.193-8.433-1.68.013-.16.013-.325.013-.488a151.12 151.12 0 0 0-.089-13.317c5.415.643 12.092 1.465 19.055 2.32.112 3.873.151 7.768 0 11.69-.03 1.17-.125 2.377-.194 3.55zm2.321 14.05c-.648.374-1.693.997-2.91 1.296a182.267 182.267 0 0 0 1.447-14.1c2.837.584 5.8 1.194 8.798 1.79a198.154 198.154 0 0 1-.842 9.028c-1.989-.044-4.182.5-6.493 1.985zm-.993 5.49c1.4-.007 2.736-.253 3.886-.73 1.157-.454 2.1-.932 2.92-1.276-.204 1.339-.474 2.648-.671 3.984-2.084-.666-4.116-1.306-6.135-1.979zm-2.62.294c2.768.889 5.658 1.797 8.548 2.729-.178 1.02-.359 2.052-.536 3.083-2.87-1.031-5.72-2.01-8.492-3.01.168-.935.286-1.867.48-2.802zm-6.095-7.946c-.694-1.154-1.601-2.056-2.627-2.782.365-3.272.615-6.56.802-9.882 2.9.587 5.957 1.223 9.153 1.846-.296 4.837-.763 9.64-1.456 14.411-1.874.176-4.024-.474-5.872-3.593zm-3.53 3.77c.081-.554.177-1.128.259-1.702.19.233.378.428.542.687.431.676 1.052 1.28 1.726 1.83-.87-.272-1.696-.55-2.528-.816zm-.185 1.037c2.814.915 5.81 1.873 8.913 2.844-.161.938-.303 1.857-.45 2.808-3.091-1.087-6.053-2.165-8.87-3.143.147-.825.282-1.67.407-2.51zm-8.403-10.234c.28-3.043.493-6.1.644-9.157 2.552.498 5.353 1.071 8.446 1.671a179.657 179.657 0 0 1-.74 9.379c-2.4-1.28-5.339-1.764-8.35-1.893zm7.236 9.902c-.105.79-.26 1.615-.41 2.427-2.94-1.041-5.656-2.009-8.115-2.868.115-.739.214-1.442.326-2.194 2.452.795 5.237 1.66 8.199 2.635zm-8.058-3.706c.135-.945.24-1.906.378-2.89 2.265.317 5.648.745 8.193 3.036-.102.845-.194 1.677-.319 2.49-2.995-.952-5.786-1.837-8.252-2.636zm.092-44.616c-.539-3.865-1.259-7.658-2.114-11.48 6.372-.355 13.96-.803 19.203-1.074.871 4.323 1.542 8.689 2.074 13.078-7.222-.186-13.952-.381-19.163-.524zm19.308 1.469c.55 4.7.904 9.408 1.075 14.172-6.966-.842-13.656-1.677-19.051-2.314-.24-4.14-.641-8.261-1.207-12.382 5.214.16 11.927.328 19.183.524zm21.744 27.658c-.066 2.311-.253 4.622-.43 6.913-2.953-.597-5.951-1.184-8.857-1.764.101-1.82.289-3.65.348-5.44l-1.808-.093c-.07 1.737-.217 3.434-.345 5.162-3.005-.597-5.96-1.184-8.827-1.76.062-1.244.154-2.467.207-3.697.144-3.915.098-7.771 0-11.63 6.71.826 13.646 1.654 19.807 2.414.05 3.282.03 6.597-.095 9.895zM384.42 373.797s3.82 3.882 6.588 6.653c-.23.252-.454.518-.687.76-2.745-2.845-6.601-6.806-6.601-6.806l.7-.607zM75.045 189.287c-2.877-.477-5.885-.988-8.89-1.502.75-2.357 1.562-4.7 2.407-7.025 2.945.687 5.871 1.41 8.774 2.135-.779 2.122-1.571 4.25-2.291 6.392zm19.525 4.39a122.471 122.471 0 0 0-1.667 5.194c-5.277-.666-11.914-1.449-19.094-2.337a141.57 141.57 0 0 1 1.834-6.05 3386.635 3386.635 0 0 1 18.927 3.192zm-4.146 14.37c-4.182-.245-7.946-.414-8.485-.467-.013.441-.033.637-.04 1.071.526.023 4.17.235 8.275.448a156.446 156.446 0 0 0-2.623 14.633c-5.773.311-12.75.72-19.226 1.07 1.01-9.255 2.719-18.352 5.168-27.24a3941.76 3941.76 0 0 1 19.094 2.347 135.261 135.261 0 0 0-2.163 8.139zm-12.318 47.5c-.257-3.69-.415-7.356-.424-11.059 3.024-.547 5.924-1.044 8.56-1.528-.042 3.474 0 6.929.207 10.406a818.453 818.453 0 0 0-8.343 2.182zm1.315 19.62c-8.854 3.438-19.104 7.486-28.273 11.086a195.893 195.893 0 0 1-4.481-36.132 9446.668 9446.668 0 0 0 29.811-5.394c0 3.733.158 7.436.424 11.112-6.581 1.724-12.19 3.19-12.696 3.332.121.424.164.613.273 1.034 1.167-.298 10.96-2.88 10.96-2.88s.185.712.185.719c.167-.023.667-.186 1.393-.348a159.68 159.68 0 0 0 2.404 17.47zm1.394 6.63c-5.425 2.291-11.536 4.87-17.872 7.562-.01 0-.01-.033-.023-.033l-1.749.448c.033.096.056.195.086.305-2.768 1.173-5.54 2.353-8.327 3.543a180.54 180.54 0 0 1-.96-3.7c-.227-.94-.418-1.889-.628-2.827 9.159-3.63 19.403-7.638 28.227-11.1.374 1.93.802 3.86 1.246 5.802zm1.35 5.344c-5.64 3.153-11.677 6.521-17.108 9.548a152.735 152.735 0 0 1-1.821-6.269 6908.731 6908.731 0 0 0 17.822-7.569c.355 1.436.726 2.871 1.108 4.29zm1.217 4.43c.654 2.19 1.4 4.389 2.16 6.577-2.604 1.554-5.326 3.189-8.117 4.873-.7-1.992-1.404-3.982-2.035-5.964l-.865.252a168.404 168.404 0 0 0 2.088 6.183c-2.57 1.535-5.168 3.1-7.762 4.644a181.12 181.12 0 0 1-3.6-10.74c5.425-3.038 11.474-6.376 17.092-9.549.362 1.24.674 2.507 1.04 3.723zm5.543 15.564c.03.07.082.133.099.202-5.277 3.69-10.905 7.675-15.978 11.229-.986-2.244-1.97-4.452-2.863-6.7-.352-.945-.658-1.926-1.023-2.881 2.6-1.545 5.208-3.136 7.772-4.641.674 1.853 1.384 3.7 2.124 5.553l.841-.365c-.76-1.87-1.502-3.77-2.18-5.699 2.785-1.647 5.51-3.279 8.108-4.837.98 2.752 2.008 5.487 3.1 8.14zm2.413 5.457c-4.668-.083-10.497 3.282-12.558 7.323-1.174 2.274-1.736 3.995-2.788 4.936-.92-1.88-1.841-3.762-2.666-5.635a3133.51 3133.51 0 0 1 15.99-11.232c.651 1.548 1.358 3.09 2.022 4.608zm1.775 4.25c.086.01.178.01.27.07a174.333 174.333 0 0 0 2.127 4.094c-4.885 3.574-10.238 7.562-15.567 11.477-.634-1.104-1.275-2.215-1.847-3.345 2.449-1.223 4.862-3.451 6.095-7.453.638-2.012 2.479-7.021 8.922-4.843zm10.136-1.863c.036.06.085.146.128.189-2.11 1.571-4.432 3.282-6.894 5.109a122.882 122.882 0 0 1-1.571-3.087c2.912.424 5.707-.6 8.337-2.211zm.532.991c1.887 3.604 3.883 7.15 6.02 10.592a541.367 541.367 0 0 1-6.401 5.606 157.468 157.468 0 0 1-6.513-11.112c2.473-1.834 4.8-3.528 6.894-5.086zm11.132 18.25c3.057 4.303 6.394 8.39 9.886 12.34-3.916 4.84-8.39 10.363-12.066 14.92a171.872 171.872 0 0 1-15.786-20.04 4287.89 4287.89 0 0 0 6.966-6.275c.726 1.087 1.417 2.211 2.18 3.309l.973-.69c-.773-1.124-1.496-2.31-2.256-3.461 2.256-2.046 4.383-3.978 6.312-5.755 1.24 1.92 2.466 3.829 3.791 5.652zm-8.492 35.098c-6.147-6.62-11.753-13.692-16.862-21.134 2.25-2.052 4.508-4.078 6.727-6.11a178.762 178.762 0 0 0 15.862 20.16 727.833 727.833 0 0 0-5.727 7.084zm-18.548-23.574c-2.683-4.045-5.152-8.238-7.515-12.482 5.345-3.942 10.684-7.913 15.537-11.467a158.504 158.504 0 0 0 6.584 11.182c-2.702 2.354-5.256 4.605-7.393 6.468l-.434.288c.016.03.016.04.05.063l-5.011 4.356s-.694.63-1.818 1.592zM59.38 313.792a204.78 204.78 0 0 1-3.824-10.98c2.348-1.296 5.083-2.85 8.052-4.485a185.04 185.04 0 0 0 3.665 10.764 908.373 908.373 0 0 1-7.893 4.701zm-6.18-19.085c2.807-1.2 5.585-2.39 8.356-3.551.566 2.155 1.22 4.29 1.851 6.448-2.988 1.664-5.727 3.21-8.074 4.499a237.03 237.03 0 0 1-2.134-7.396zm-9.998 3.006a190.141 190.141 0 0 1-1.72-6.77c2.785-1.08 5.81-2.27 8.995-3.523.21.888.401 1.81.598 2.705.342 1.276.668 2.57 1 3.859-2.982 1.26-5.957 2.503-8.873 3.73zm-7.075-51.537c3.07-.475 6.27-.962 9.56-1.46 0 1.51.026 3.001.06 4.496-5.008.909-8.387 1.542-8.677 1.572.056.444.092.66.181 1.074.293-.067 3.6-.68 8.515-1.568a193.1 193.1 0 0 0 4.547 36.3c-3.196 1.247-6.22 2.45-9.012 3.535a205.893 205.893 0 0 1-5.174-43.95zm40.351-2.537c-10.25 1.867-21.869 3.982-29.821 5.417a157.513 157.513 0 0 1-.066-4.485c10.149-1.545 20.866-3.163 29.953-4.538-.02 1.213-.066 2.396-.066 3.606zm9.764-1.767c-2.636.475-5.52 1.002-8.54 1.572 0-1.194.016-2.394.052-3.57 3.093-.475 5.947-.932 8.531-1.294v.057c-.043 1.084-.023 2.165-.043 3.235zm-4.523-15.077c1.913-.12 3.757-.249 5.496-.358-.18 1.356-.299 2.758-.41 4.124-.954-.477-1.871-1.117-2.68-2.032-.628-.686-1.47-1.267-2.406-1.734zm-45.487 10.038c.04-.951.118-1.866.168-2.778 2.002 1.048 4.34 1.194 7.63-.56 5.826-3.03 8.568-4.94 12.052-3.451a234.45 234.45 0 0 0-.437 7.476l1.828.07c.072-2.195.223-4.357.378-6.555.18.16.358.239.559.391 1.341 1.068 4.563 2.709 8.278 2.198-.095 1.42-.23 2.851-.26 4.293l.885.034c.055-1.499.217-2.984.299-4.483 1.634-.37 3.31-1.14 4.987-2.572 1.476-1.267 5.349-4.287 9.327.58 1.252 1.518 2.857 2.4 4.586 2.927-.063 1.038-.118 2.056-.184 3.07-2.581.401-5.438.829-8.551 1.313v-.46l-1.197-.04c-.023.222 0 .457-.023.662-9.1 1.406-19.817 3.017-29.966 4.529 0-2.085.023-4.164.105-6.26l-.897-.055c-.086 2.174-.112 4.33-.112 6.477-3.29.491-6.516.992-9.59 1.462 0-2.754.043-5.51.135-8.268zm10.34-7.638c-2.433 1.737-5.553 3.345-7.746.981-.128-.132-.302-.275-.45-.45 1.89-.13 4.72-.312 8.195-.53zm-4.215-35.423c6.295.796 12.923 1.575 19.452 2.367-2.462 9.31-4.182 18.794-5.207 28.418-2.18-.643-4.106.246-5.576 1.217-1.857.113-3.054.189-3.232.189.02.616.102 2.062.102 2.062s-7.288.504-10.618.723c-.165-.136-.369-.276-.536-.405.887-11.729 2.8-23.26 5.615-34.57zm2.354-8.523c6.302 1.061 12.884 2.175 19.314 3.249-.694 2.208-1.348 4.4-1.963 6.6-6.516-.765-13.147-1.604-19.436-2.35.655-2.51 1.338-5.03 2.085-7.499zm19.17 10.078c.608-2.191 1.278-4.336 1.959-6.517 3.011.513 5.996 1.02 8.909 1.511a157.903 157.903 0 0 0-1.857 6.11c-2.92-.361-5.95-.732-9.012-1.104zm3.162 32.466c0 .136 0 .275-.02.414-1.992 1.273-3.261 1.727-5.53-.033 1.838-.13 3.693-.252 5.55-.381zm-8.699-2.427c1.003-9.826 2.752-19.526 5.277-28.985 3.05.365 6.045.717 8.965 1.078-2.46 8.918-4.166 18.08-5.172 27.39-3.234.202-6.328.351-9.07.517zm-10.55-49.665c5.29 1.29 11.99 2.914 19.009 4.622a184.387 184.387 0 0 0-2.476 7.17c-6.423-1.084-13.002-2.214-19.314-3.282a270.19 270.19 0 0 1 2.781-8.51zm279.88 194.362c-6.269-5.646-13.82-12.492-14.27-12.92-.409.309-.793.594-1.32 1.002.97.905 11.931 10.883 14.223 12.988-.76.584-1.545 1.17-2.321 1.738-1.976-3.392-6.026-5.746-9.666-7.755-4.993-2.798-6.598-3.55-6.598-3.55s-2.018 1.001-.647 2.204c1.393 1.207 7.278 4.3 9.182 5.819 1.436 1.13 3.695 2.784 4.908 5.317-2.528 1.787-5.083 3.448-7.683 5.072-7.598-7.853-13.206-13.731-13.41-13.937-.243.146-.398.206-.726.375.292.302 5.93 6.116 13.462 13.954-.158.102-.296.205-.457.318-1.48.905-3.031 1.694-4.54 2.55-7-7.841-12.71-14.253-12.877-14.438-.181.07-.28.145-.533.251.253.256 5.96 6.637 12.91 14.448-1.124.633-2.216 1.26-3.343 1.857-6.447-8.816-10.967-14.962-11.152-15.224-.325.202-.51.295-.966.527.266.375 4.757 6.508 11.145 15.257a143.667 143.667 0 0 1-8.4 3.961c-6.095-8.924-10.553-15.432-10.708-15.69-.282.11-.427.192-.815.335.257.344 4.691 6.862 10.737 15.73-2.34 1.028-4.737 1.926-7.12 2.805-1.487-2.55-2.88-4.927-4.123-7.095 1.591-.567 3.225-1.137 4.796-1.8l-.851-2.151c-1.687.69-3.416 1.302-5.132 1.912-2.485-4.25-4.116-7.09-4.201-7.22-.214.086-.342.13-.612.239.128.169 1.726 2.997 4.202 7.213-2.88 1.025-5.76 2-8.7 2.825-1.945-4.021-3.412-7.002-3.55-7.293-.345.096-.565.172-.976.278.167.405 1.627 3.362 3.534 7.277-.848.245-1.696.457-2.538.646-1.867-4.425-3.021-7.23-3.074-7.416-.342.103-.52.186-.95.292.095.235 1.253 3.017 3.074 7.366-1.693.415-3.38.826-5.083 1.197-1.482-3.73-2.79-7.008-2.952-7.413-.358.087-.552.126-1.003.213.204.547 1.52 3.772 2.96 7.406-1.372.278-2.723.577-4.07.795a866.278 866.278 0 0 0-2.16-7.469c-.234.07-.763.17-.885.226.062.278.96 3.577 2.009 7.439-3.403.567-6.8.994-10.202 1.326-.04-3.027.023-6.86-.233-8.169-.352-1.87-2.292-.596-2.292-.596s-.147 1.856-.279 7.804v1.21a114.67 114.67 0 0 1-3.689.228c-.927-4.502-1.518-7.419-1.571-7.644-.372.006-.543.033-1.02.033.067.315.662 3.229 1.599 7.661-3.676.153-7.335.206-10.984.066-.339-3.832-.67-7.485-.697-7.823-.306-.017-.523-.044-.878-.044.02.21.276 3.233.714 7.857-.09 0-.165 0-.227.01l-.099 2.334c.184.014.342 0 .533 0 .427 5.063 1.009 11.487 1.607 18.26-3.583-.083-7.134-.308-10.665-.603.063-3.143.145-6.126.217-8.905 3.127.295 6.276.494 9.446.604l.049-1.174c-3.186-.09-6.335-.302-9.465-.597.263-10.552.45-17.951.46-18.28-.598-.092-1.561-.268-2.308-.387-.036.437-.282 7.847-.677 18.382-3.685-.407-7.35-.911-10.993-1.571.578-8.55 1.183-17.647 1.21-18.247-.359-.063-.536-.116-.974-.192-.046.752-.647 9.743-1.246 18.237-.762-.126-1.558-.335-2.337-.498 1.098-10.343 1.884-17.835 1.916-18.124-.302-.07-.47-.09-.818-.185-.036.378-.822 7.84-1.923 18.134-2.84-.597-5.658-1.29-8.485-2.086.187-1.097.371-2.204.542-3.252.444.063.884.14.966.143.842-5.35 2.085-13.659 2.134-13.964a6.497 6.497 0 0 1-.703-.199c.088-.52.131-.825.148-.891-.365-.097-1.122-.319-1.569-.421-.049.305-1.568 8.367-3.366 18.104a159.874 159.874 0 0 1-10.787-3.57c2.696-10.072 4.65-17.26 4.721-17.565-.351-.119-.51-.202-.877-.341-.115.381-2.045 7.535-4.731 17.554-1.397-.527-2.82-1.054-4.218-1.625 3.031-9.925 5.21-17.126 5.296-17.4-.332-.153-.496-.21-.868-.379-.121.361-2.301 7.502-5.319 17.408-1.578-.696-3.18-1.402-4.75-2.112 3.635-9.796 6.18-16.701 6.312-17.01-.175-.066-.526-.225-.526-.225s-.208-.12-.398-.206c-.151.372-2.683 7.254-6.325 17.017-.342-.176-.717-.318-1.095-.48-1.923-.932-3.774-1.9-5.671-2.885 1.144-2.543 2.301-5.112 3.373-7.466 1.91.978 3.797 2.003 5.746 2.924l1-2.105a137.89 137.89 0 0 1-5.783-2.977c1.677-3.763 2.942-6.607 3.074-6.929-.329-.189-.506-.278-.868-.474-.178.368-1.44 3.19-3.117 6.956-3.537-1.91-6.946-3.972-10.277-6.147 2.318-3.825 3.817-6.362 3.969-6.574-.385-.228-1.91-1.21-1.91-1.21-.372.623-1.888 3.116-3.985 6.495a183.657 183.657 0 0 1-6.779-4.89c1.338-1.92 2.433-3.488 3.189-4.562l.815-1.18c.181-.308.349-.504.385-.567-.204-.14-.362-.292-.635-.5-.032.066-.302.467-.756 1.12l-.513.706c-.743 1.117-1.82 2.639-3.113 4.509l-1.321 1.91c-1.371 1.992-2.936 4.276-4.666 6.73l-.624.95a815.614 815.614 0 0 0-5.083 7.32l-11.766 17.007c-10.106 14.63-19.147 27.709-19.449 28.097.273.188.372.291.644.493.283-.414 9.32-13.476 19.436-28.092a172.49 172.49 0 0 0 8.47 6.037c-5.675 9.153-10.097 16.317-10.307 16.638.351.183.512.315.874.488.536-.849 5.395-8.706 5.395-8.706s1.18.716 1.696.975c.148-.229 2-3.276 4.738-7.814a186.95 186.95 0 0 0 20.744 11.603l.368-.806c-7.183-3.437-14.064-7.313-20.678-11.556 2.742-4.555 6.262-10.413 9.78-16.268a165.792 165.792 0 0 0 12.568 7.416c-.792 1.79-1.318 2.987-1.43 3.223.365.152.563.225.927.384.073-.205.612-1.36 1.394-3.13 1.799.952 3.64 1.867 5.5 2.746.645.321 1.315.58 1.947.885-.97 2.615-1.976 5.32-2.999 8.099-.87-.418-1.749-.763-2.61-1.204l-.753 1.608c.92.441 1.841.792 2.759 1.227-2.154 5.811-4.38 11.812-6.513 17.577a178.7 178.7 0 0 1-4.169-1.906l-.253.55c1.394.663 2.818 1.273 4.231 1.926-6.848 18.479-12.825 34.597-13.012 35.111.368.146.546.222.924.398.187-.544 6.164-16.649 12.992-35.101a226.273 226.273 0 0 0 6.993 2.92c-4.067 13.384-7.298 23.966-7.414 24.354.359.123.517.192.895.341.141-.41 3.37-10.976 7.43-24.307 1.834.7 3.672 1.363 5.52 2.033-4.268 15.846-7.766 28.911-7.89 29.362.177.03.473.146.897.279.135-.471 3.632-13.513 7.867-29.313 8.968 3.12 18.104 5.612 27.392 7.366-1.42 13.337-2.525 23.767-2.545 24.121.316.083.54.083.825.126.03-.427 1.138-10.797 2.538-24.051 2.318.41 4.642.832 6.983 1.15 3.393.52 6.772.882 10.178 1.24-.733 19.729-1.344 36.968-1.36 37.458.437.053.703.07.992.116.04-1.24.368-9.823.368-9.823l1.315.043s-.24 8.852-.243 9.943c.372.026.569.053.97.112.036-.603.46-17.865.96-37.614 4.717.365 9.429.55 14.146.6.487 5.514.809 9.18.832 9.376.089-.01.447-.01.687-.02-.03-.282-.329-4.028-.825-9.356 5.71 0 11.41-.235 17.105-.739a4729.46 4729.46 0 0 1 2.278 10.94c.388-.083.585-.132.986-.215-.069-.309-.953-4.552-2.268-10.821a91.645 91.645 0 0 0 2.423-.209c-.128.348-.233.68-.358 1.064-2.417 7.3 2.304 9.2 7.163 12.505 4.876 3.292 1.069 6.892-2.696 15.76-3.777 8.875 8.795 13.069 8.795 13.069-2.84-3.096-5.037-6.59-5.872-10.748-.72-3.723.947-5.394 2.758-8.4 1.033-1.705 1.805-3.707 1.743-5.71-.122-3.198-4.12-9.375-7.966-11.964-2.002-1.372-1.759-3.69-.94-5.907 4.12-.504 8.258-1.071 12.368-1.85l-.1-.55c-4 .735-8.004 1.299-12.022 1.79.724-1.721 1.743-3.312 2.206-4.227.674-1.293 1.822-3.368 1.562-5.573 8.215-1.194 16.323-2.987 24.35-5.301 8.269 19.934 16.185 38.894 16.386 39.41.385-.162.881-.344.881-.344-.21-.613-8.08-19.497-16.336-39.331 2.942-.859 5.895-1.77 8.807-2.798l-.286-.83a229.612 229.612 0 0 1-8.863 2.832c-2.495-5.994-5.01-12.02-7.357-17.65a87.517 87.517 0 0 0 3.738-1.094c1.062 2.191 1.798 3.68 1.916 3.929.359-.18.523-.256.891-.448-.125-.242-.815-1.67-1.824-3.793a159.671 159.671 0 0 0 10.109-3.53c1.483 2.55 2.975 5.079 4.395 7.558l.625 1.635c.108-.037.184-.08.263-.113 5.766 9.902 10.517 18.1 10.678 18.343.25-.103.572-.262.595-.262-.207-.325-4.922-8.5-10.648-18.32a185.552 185.552 0 0 0 8.396-3.636 16685.604 16685.604 0 0 1 23.841 34.962c.273-.14.44-.236.766-.375-.355-.544-12.17-17.849-23.825-34.952a187.717 187.717 0 0 0 8.933-4.495c16.582 22.675 35.778 48.958 36.186 49.512.361-.236.532-.335.907-.607-.493-.67-19.617-26.846-36.15-49.443 1.779-.968 3.518-1.9 5.23-2.943 6.234 6.978 11.096 12.445 11.277 12.647.21-.116.457-.262.48-.278-.194-.223-5.083-5.686-11.29-12.638 1.871-1.134 3.748-2.268 5.573-3.47 4.56 4.783 9.12 9.484 13.13 13.668-3.343 2.257-6.726 4.439-10.184 6.47l.299.498a219.777 219.777 0 0 0 10.303-6.547c7.482 7.757 13.005 13.535 13.213 13.731.295-.186.585-.388.67-.408-.273-.275-5.786-6.013-13.262-13.744a208.528 208.528 0 0 0 11.832-8.72c1.01.544 1.752 1.44 1.825 2.765.315 4.506 3.514 10.88 6.115 12.525 1.624 1.051 3.672 1.38 5.585 1.313 3.376-.056 5.582-.646 8.308 1.784 3.067 2.688 4.885 6.295 6.095 10.174 0 0 2.577-12.66-6.598-13.811-9.212-1.107-14.025.331-14.396-5.377-.346-4.966.131-9.32-4.534-11.368l-.648-.216c-.522-.175-1.078-.38-1.745-.527-7.26-1.541-10.34-1.485-11.678-7.048-.194-.971-.805-2.516-1.936-4.001l-1.177-1.303c-1.67-1.615-4.05-2.851-7.482-2.742-1.815.03-6.382-.11-6.418-6.017-.013-1.16-.319-2.191-.736-3.192 1.091-.803 2.2-1.628 3.307-2.447.79.713 6.638 6.027 7.463 6.756.253-.308.388-.45.67-.755-.38-.322-3.52-3.16-7.36-6.64l-.885-.796zm-195.057 9.962c-3.465 5.026-7.176 10.383-10.77 15.581l10.77-15.581zm-10.125 16.045a7006.94 7006.94 0 0 0 10.77-15.568 165.83 165.83 0 0 0 7.65 5.46c-3.36 5.45-6.845 11.05-9.988 16.125a162.98 162.98 0 0 1-8.432-6.017zm18.88-10.824a163.334 163.334 0 0 1-7.6-5.473c1.758-2.536 3.461-5.026 5.046-7.304 2.364 1.777 4.773 3.558 7.259 5.212-1.52 2.41-3.077 4.953-4.705 7.565zm5.29-8.553a169.733 169.733 0 0 1-7.187-5.195c1.707-2.447 3.298-4.727 4.669-6.71a129.642 129.642 0 0 0 6.87 4.917c-1.301 2.075-2.745 4.449-4.352 6.988zm2.071 1.323c1.532-2.52 2.949-4.913 4.228-6.982a139.431 139.431 0 0 0 10.523 6.262c-1.068 2.377-2.219 4.947-3.366 7.503-3.903-2.099-7.683-4.373-11.385-6.783zm-5.198 8.646c1.572-2.616 3.11-5.192 4.6-7.668a140.577 140.577 0 0 0 11.496 6.852 495.159 495.159 0 0 1-3.632 8.149 177.797 177.797 0 0 1-12.464-7.333zm17-.335c1.855.951 3.735 1.933 5.625 2.851.424.186.819.355 1.23.55-.967 2.6-2.015 5.414-3.087 8.335-.635-.279-1.27-.54-1.913-.83a177.015 177.015 0 0 1-5.497-2.73c.99-2.222 2.275-5.103 3.642-8.176zm7.772 3.792c1.608.733 3.196 1.466 4.783 2.152-.812 2.685-1.69 5.576-2.584 8.563-1.788-.746-3.544-1.565-5.3-2.354 1.086-2.94 2.138-5.728 3.101-8.36zm-3.393 9.18c1.766.82 3.521 1.645 5.336 2.387-.845 2.669-1.673 5.444-2.525 8.245a169.25 169.25 0 0 1-5.838-2.546c1.035-2.752 2.048-5.457 3.027-8.086zm-3.616 9.727c1.963.905 3.932 1.76 5.914 2.56-1.864 6.126-3.718 12.272-5.447 17.96a136.208 136.208 0 0 1-6.99-2.91c2.164-5.775 4.366-11.765 6.523-17.61zm6.828 2.937c1.63.633 3.258 1.296 4.909 1.893a3541.205 3541.205 0 0 0-4.88 18.098 179.39 179.39 0 0 1-5.506-2.023c1.733-5.698 3.626-11.861 5.477-17.968zm5.773 2.228c4.096 1.475 8.239 2.738 12.4 3.895a3388.5 3388.5 0 0 0-2.485 13.35c.23.057.517.123.517.123.059-.248 1.127-6.04 2.482-13.347.404.116.799.222 1.203.342a3042.377 3042.377 0 0 1-2.285 13.307c.063 0 .345.086.53.133.026-.266 1.002-5.865 2.261-13.301 3.248.832 6.5 1.638 9.794 2.28-.677 6.373-1.361 12.788-1.976 18.682-9.27-1.8-18.37-4.244-27.303-7.363 1.575-5.851 3.228-12.044 4.862-18.101zm25.222 6.975c5.23 1.031 10.497 1.75 15.827 2.304-.22 6.18-.457 12.561-.688 18.738-3.37-.339-6.755-.71-10.105-1.194-2.335-.355-4.675-.759-7.016-1.193.641-5.891 1.321-12.306 1.982-18.655zm16.201-8.089c-.102 2.811-.187 5.692-.315 8.633a174.74 174.74 0 0 1-15.705-2.31c.322-2.925.641-5.826.947-8.634.907.156 1.825.372 2.755.544-.171 2.394-.283 4.051-.283 4.316.391.024.589.04.983.06.026-.258.151-1.863.3-4.18 3.75.656 7.521 1.177 11.318 1.571zm-10.664-11.407c3.645.68 7.334 1.157 11.033 1.58a1783.07 1783.07 0 0 0-.32 8.949 146.266 146.266 0 0 1-11.315-1.588c.168-2.487.398-5.626.602-8.941zm-3.377-.683c.78.139 1.582.361 2.384.5-.23 3.289-.428 6.445-.599 8.941-.917-.179-1.818-.348-2.732-.54.332-3.11.645-6.107.947-8.901zm-9.386-2.268c2.834.79 5.698 1.469 8.561 2.069-.302 2.824-.608 5.831-.947 8.92-3.054-.639-6.095-1.342-9.093-2.16.486-2.954 1.003-5.948 1.48-8.829zm-.51-.143c-.446 2.742-.97 5.756-1.492 8.849-.338-.1-.677-.186-1.022-.262.598-3.1 1.15-6.1 1.673-8.805.263.093.559.139.842.218zm1.158-10.99l.2.027c-.424 2.497-.867 5.033-1.124 6.508.072.023.266.023.51.07-.178 1.004-.332 2.068-.543 3.222-.273-.076-.559-.136-.835-.226 1.046-5.576 1.792-9.6 1.792-9.6zm-13.39 7.062c3.61 1.306 7.21 2.516 10.868 3.55-.522 2.888-1.088 5.865-1.63 8.829-3.906-1.11-7.74-2.387-11.55-3.776.813-3.037 1.588-5.914 2.312-8.603zm-7.752 6.534c.91-2.983 1.798-5.854 2.613-8.546 1.407.586 2.828 1.12 4.26 1.647-.742 2.719-1.505 5.613-2.317 8.63-1.525-.564-3.04-1.104-4.556-1.73zm2.074 10.964a198.33 198.33 0 0 1-4.849-1.87c.871-2.815 1.703-5.56 2.515-8.255a103.71 103.71 0 0 0 4.583 1.73c-.733 2.722-1.506 5.54-2.249 8.395zm13.144 4.213c-4.106-1.154-8.216-2.4-12.25-3.882.756-2.838 1.51-5.652 2.252-8.374a157.24 157.24 0 0 0 11.612 3.783c-.569 2.933-1.082 5.781-1.614 8.473zm3.642-7.946a140.57 140.57 0 0 0 9.166 2.168c-.319 2.814-.602 5.722-.934 8.64-3.251-.644-6.48-1.433-9.691-2.278.47-2.696.98-5.593 1.46-8.53zm-1.966 8.407a19.5 19.5 0 0 1-1.144-.345c.503-2.702 1.042-5.59 1.572-8.444.348.087.684.156 1.029.246-.503 2.887-.996 5.791-1.457 8.543zm29.434 6.922c2.676.225 5.359.408 8.051.517l.062-1.77c-2.692-.09-5.378-.265-8.06-.484.078-2.974.138-5.878.203-8.706 3.567.315 7.164.53 10.78.594.924 10.452 1.904 21.465 2.578 29.153a187.324 187.324 0 0 1-14.051-.593c.128-6.136.276-12.522.437-18.711zm11.73-9.793c.835 0 1.683.043 2.498.043 3.735 0 7.45-.136 11.148-.384a4879.884 4879.884 0 0 1 3.9 18.773c-4.192.349-8.38.57-12.628.627l.02.885c4.274-.066 8.537-.288 12.801-.633.678 3.259 1.292 6.352 1.9 9.064-5.7.487-11.378.756-17.062.722-.736-8.327-1.778-20.236-2.577-29.097zm18.742 19.228a190.39 190.39 0 0 0 6.046-.613c1.02 2.473.056 5.099-1.424 9.422-.9.106-1.814.175-2.748.255-.565-2.732-1.187-5.765-1.874-9.064zm8.203-5.662c-4.919-3.548-3.354-4.76-1.628-9.09.654-1.711.78-3.873.45-6.018 2.253-.308 4.488-.719 6.727-1.097 1.716 6.372 3.814 14.312 3.909 14.623.154-.06 1.25-.414 1.647-.553-.05-.239-1.887-6.61-4.11-14.322 4.209-.809 8.341-1.81 12.51-2.954 2.34 5.64 4.859 11.676 7.347 17.634a180.117 180.117 0 0 1-24.186 5.274c-.345-1.17-1.105-2.377-2.666-3.497zm-10.116-33.348c3.6-.315 7.14-.766 10.704-1.372 1.41 5.201 2.837 10.549 2.837 10.549s.822 3.156 1.907 7.114c-2.222.401-4.455.776-6.657 1.08-.632-2.973-2.094-5.804-4.192-7.183-3.807-2.45-4.165-6.906-4.517-9.429-.023-.198-.056-.49-.082-.759zm5.77 35.373a9.61 9.61 0 0 1 1.739 2.168c-1.917.24-3.844.448-5.77.6-1.24-5.927-2.6-12.461-3.893-18.76 2.502-.166 4.99-.418 7.49-.716-.227 1.243-.826 2.317-1.204 2.957-3.984 6.488-.23 12.044 1.637 13.751zm-11.849-34.892c1.059-.066 2.147-.116 3.189-.186.07 4.963.861 9.946 5.033 12.455 2.634 1.562 3.344 3.359 3.294 5.02-2.574.318-5.155.57-7.785.746-1.387-6.717-2.712-13.079-3.73-18.035zm-11.615 7.14c-.026-.374-.325-3.503-.65-6.99 3.734.109 7.495.072 11.246-.107 1.022 4.98 2.347 11.335 3.744 18.055-3.642.228-7.304.384-10.977.384-.861 0-1.716-.053-2.57-.083-.586-6.547-.993-11.222-.993-11.222s.098-.016.2-.036zm38.471-1.017c-.204-.557-1.943-4.873-3.679-9.253 1.716-.35 3.413-.772 5.11-1.2 1.922 4.572 4.335 10.453 7.058 16.97a167.753 167.753 0 0 1-12.418 2.915 3663.291 3663.291 0 0 0-5.056-17.6c1.434-.25 2.867-.564 4.304-.862 1.775 4.455 3.537 8.841 3.747 9.385.392-.136.576-.196.934-.355zm9.432 6.276c-2.706-6.521-5.135-12.392-7.085-16.987.908-.219 1.809-.431 2.706-.663 1.134 2.32 2.357 4.87 3.58 7.366-.582.176-1.127.401-1.7.54l.306 1.148c.654-.203 1.273-.431 1.933-.617 1.457 3.017 2.838 5.884 3.945 8.169-1.226.328-2.459.719-3.685 1.044zm.197-10.599c-1.22-2.49-2.465-5.002-3.596-7.323a198.752 198.752 0 0 0 8.853-2.904c1.243 2.135 2.65 4.525 4.149 7.071a139.869 139.869 0 0 1-9.406 3.156zm.507 1.071c3.185-.975 6.361-2.022 9.468-3.206a919.668 919.668 0 0 1 4.543 7.857c-3.32 1.253-6.677 2.437-10.05 3.481a1539.113 1539.113 0 0 1-3.961-8.132zm14.623 4.396c-1.539-2.669-3.09-5.314-4.534-7.82 2.407-.926 4.826-1.824 7.174-2.855a6013.997 6013.997 0 0 1 10.53 15.445c-2.752 1.207-5.517 2.41-8.328 3.551-1.433-2.47-2.9-5.013-4.402-7.555.822-.332 1.614-.594 2.413-.929l-.309-.795c-.841.331-1.686.626-2.544.958zm13.929 4.366c-3.666-5.377-7.279-10.701-10.507-15.426a134.326 134.326 0 0 0 8.44-4.001c3.297 4.502 7.044 9.63 10.947 14.971-2.91 1.549-5.865 3.06-8.88 4.456zm9.87-4.993c-3.956-5.347-7.677-10.472-10.978-14.961 1.177-.617 2.298-1.296 3.472-1.946 4.083 4.598 8.537 9.607 12.552 14.1a166.354 166.354 0 0 1-5.047 2.807zm5.532-3.116a2627.183 2627.183 0 0 1-12.552-14.07c1.447-.802 2.916-1.551 4.33-2.42.253-.146.47-.298.71-.44 4.017 4.167 8.498 8.818 13.029 13.532a171.628 171.628 0 0 1-5.517 3.398zm6.154-3.816a4245.219 4245.219 0 0 1-13.012-13.526c2.453-1.545 4.895-3.12 7.256-4.793.184.613.309 1.26.352 1.922.223 4.433 5.365 9.459 9.803 10.128 1.588.239 2.837.295 3.807.557a161.34 161.34 0 0 1-8.206 5.712zm1.25 1.28c2.91-1.92 5.799-3.945 8.62-6.057.66.75 1.058 2.032 1.288 4.287.572 5.88 5.297 5.841 7.611 5.94 1.506.09 4.922-.149 7.269.842a201.376 201.376 0 0 1-11.684 8.637c-4.02-4.174-8.528-8.875-13.104-13.65z"/>
        <filter id="d" width="101.6%" height="101.6%" x="-.8%" y="-.8%" filterUnits="objectBoundingBox">
            <feGaussianBlur in="SourceAlpha" result="shadowBlurInner1" stdDeviation="1.5"/>
            <feOffset dx="1" dy="5" in="shadowBlurInner1" result="shadowOffsetInner1"/>
            <feComposite in="shadowOffsetInner1" in2="SourceAlpha" k2="-1" k3="1" operator="arithmetic" result="shadowInnerInner1"/>
            <feColorMatrix in="shadowInnerInner1" values="0 0 0 0 0 0 0 0 0 0 0 0 0 0 0 0 0 0 0.5 0"/>
        </filter>
    </defs>
    <g fill="none" fill-rule="evenodd" opacity=".188">
        <g opacity=".624">
            <use fill="#A19062" xlink:href="#a"/>
            <use fill="#000" filter="url(#b)" xlink:href="#a"/>
        </g>
        <g opacity=".624">
            <use fill="#A19062" xlink:href="#c"/>
            <use fill="#000" filter="url(#d)" xlink:href="#c"/>
        </g>
    </g>
</svg>
