<svg xmlns="http://www.w3.org/2000/svg" width="24" height="24" viewBox="0 0 24 24">
    <g fill="#A19062" fill-rule="evenodd">
        <path d="M11.83 20.713c-3.735 0-6.764-2.588-6.764-5.78 0-2.396 1.91-5.145 4.269-6.605a.326.326 0 0 1-.014-.09c0-.142.092-.26.214-.284a.317.317 0 0 1-.052-.176c0-.141.088-.26.204-.283l-.925-2.402a.687.687 0 0 1-.011-.06c-.073-.508.354-.95.866-.916l.235.016a.49.49 0 0 0 .498-.341l.096-.304c.036-.302.445-.573.747-.536l2.911.073a.55.55 0 0 1 .48.613l-.06.14a.334.334 0 0 0 .138.422l.707.411a.557.557 0 0 1 .199.76l-.246.303a.357.357 0 0 0-.005.442.364.364 0 0 1-.064.512l-.186.143-.967.752a.296.296 0 0 1 .132.255.314.314 0 0 1-.061.19.29.29 0 0 1 .17.27.308.308 0 0 1-.048.165c2.319 1.478 4.302 4.17 4.302 6.53 0 3.192-3.028 5.78-6.764 5.78M11.83 0C5.296 0 0 5.297 0 11.83c0 6.535 5.295 11.831 11.83 11.831 6.534 0 11.83-5.296 11.83-11.83S18.365 0 11.831 0"/>
        <path d="M12.224 13.812c-1.08-.446-1.538-.769-1.538-1.413 0-.496.36-1.067 1.314-1.067.794 0 1.303.273 1.563.422l.33-.819c-.36-.21-.85-.409-1.593-.434V9.333h-.867v1.218c-1.053.186-1.843.967-1.843 1.997 0 1.078.796 1.649 2.06 2.145.919.372 1.41.793 1.41 1.475 0 .707-.592 1.216-1.472 1.216a3.297 3.297 0 0 1-1.784-.534l-.314.831c.434.31 1.2.534 1.88.546v1.265h.868V18.19c1.177-.21 1.934-1.129 1.934-2.108 0-1.104-.671-1.749-1.948-2.27"/>
    </g>
</svg>
