<svg xmlns="http://www.w3.org/2000/svg" width="320" height="320" viewBox="0 0 320 320">
    <g fill="none" fill-rule="evenodd">
        <path fill="#8E7D55" fill-rule="nonzero" d="M0 0h320v320H0z"/>
        <g fill="#A39361">
            <path d="M180.826 158.627c1.128-.81 2.007-1.877 2.873-2.881.722-.83 1.462-1.689 2.334-2.46-.976-.183-1.979-.398-2.95-.566-.729-.131-1.438-.308-2.147-.473l.051.732c.116.454.269 1.582-.31 2.526-.428.677-1.162 1.154-2.177 1.39-1.368.345-3.774 1.698-3.873 1.743l-.122.06.094.087c.028.03 2.442 2.566 6.227-.158zm36.387 42.508l-.097.03c-1.3.503-11.984 4.17-18.748-8.838-.717-1.307-1.583-5.151-3.118-8.571.43-.734.823-1.498 1.202-2.273 4.687-.973 8.203-3.17 8.876-4.158-2.62.87-5.326 1.121-7.516 1.121a42.811 42.811 0 0 0 2.66-9.996c6.094-.08 12.336-.782 15.731-3.133 7.45-5.139 9.146-10.904 8.741-17.19 0 0-4.71 11.934-19.507 7.297-1.066-.31-3.193-1.575-5.64-2.747a43.662 43.662 0 0 0-1.524-5.102c2.756-1.071 6.577-1.97 8.424-2.386-2.884-1.335-6.549-.693-9.305.173-.08.01-.805-1.726-.86-1.863-.275-.564-.49-1.128-.767-1.685-.017.022-.027.05-.054.053.015.027.015.036.027.046-1.787 1.102-4.61 1.556-9.01.296-.087-.017 4.145-.885 7.76-2.734-.508-.74-1.092-1.434-1.574-2.199-.12-.198-.928-1.666-1.218-1.528 4.875-4.651 10.193-10.54 11.072-15.215 1.54-8.244-1.076-13.138-5.391-16.948 0 0 4.617 10.868-8 17.582-1.466.826-6.431 1.854-9.857 3.99-1.251-.737-2.552-1.378-3.895-1.981-.039-2.146-.527-6.914-3.9-8.23 0 0 1.779 3.05 1.33 7.184.039-.381-5.068-1.497-5.571-1.628-.362-.084-.72-.174-1.066-.237l.182.624c.042-.028.053-.028.053-.028s0 .035-.02.081c.343 1.131.703 2.223 1.002 3.267a6.15 6.15 0 0 1-2.205-1.216c-.261.415-.545.845-.83 1.24-3.508 3.301-4.897 7.687-4.016 10.418.879 2.752.312 5.063-1.13 7.964.926-5.507-1.43-7.438-3.12-11.31-1.687-3.869.945-9.92.945-9.92-.027 1.101-.186 5.518.578 8.14.05-1.477.449-2.441 2.482-4.953 1.032-1.283 2.655-2.217 3.988-2.823-.391-.585-.665-1.254-.875-1.945-.493-.057-1.002-.095-1.513-.141.326-7.641.091-17.226-2.977-21.772-3.456-5.131-7.21-7.564-11.205-8.453l-.377-.077c-1.369-.293-2.785-.392-4.211-.353l-.413.026c-.264 0-.527.004-.786.024 0 0 .337.145.85.42l.444.271c2.932 1.756 9.54 7.187 5.914 19.025-.602 2.115-4.838 8.361-4.838 13.2-.478.187-.957.356-1.438.57l-.175-4.716s-1.7 1.778-1.622 5.461c-.284.145-.548.267-.806.397-1.16-2.068-2.868-4.606-4.633-5.287.512 1.697 2.16 4.252 1.98 6.13.13.124.302.222.43.335.85.775 1.475 1.73 2.14 2.705.986 1.434 1.909 2.928 2.638 4.513-.185-.313-.636-.524-.925-.757a82.443 82.443 0 0 0-2.417-1.903c-.967-.75-2.013-1.387-2.987-2.12-.287-.232-.573-.483-.874-.708-1.76.93-4.364 2.273-4.027 2.65-5.161-5.723-12.256-12.66-17.748-13.708-7.958-1.516-12.982.637-16.89 4.519 0 0-1.066 1.028-1.32 1.422 5.244-1.637 7.39-.71 7.921-.636.544.09 6.501.777 10.974 9.396.653 1.247 1.497 4.763 2.902 8.016-2.425-.054-5.782.09-7.332 1.193.1-.067.953.211 1.086.248.903.189 1.817.393 2.725.58 2.63.585 4.63 1.046 6.647 2.943.04.034-.952 2.199-1.261 2.955 2.072.604 3.52 1.907 4.488 3.2-1.277-2.175-2.098-4.89-1.858-8.348 4.702 6.35 4.692 10.93 14.54 11.536 9.367.553 11.419-.222 17.216 4.492-3.364-.036-10.88-2.283-16.759 2.566 4.228-.332 14.48-2.414 18.8-.43.553-2.438 2.92-7.414-.146-13.692a68.014 68.014 0 0 0-1.623-3.15c-.84-1.557-1.73-3.098-2.717-4.58-.693-1.043-1.457-2.018-2.208-3.016.039-.043 2.438 1.501 3.381 2.284a23.603 23.603 0 0 1 2.625 2.493c.796.889 1.539 1.886 2.127 2.947a15.26 15.26 0 0 1 1.387 3.745c.167.705.287 1.44.4 2.183.049.36.108.752.146 1.128.02.191.049.38.068.581.01.074.119.51.07.575 2.043-2.378 5.492-7.096 3.314-13.91 2.227 3.016 2.666 3.829 2.666 3.829 1.261-2.406.265-7.289-2.51-10.612 1.72-.02 4.227-.091 7.134 4.298 3.069-3.064 6.207-5.235 9.734-5.354-2.971 2.271-8.61 6.482-7.867 10.243-2.938.833-4.125 1.028-6.233 5.47-2.11 4.45-6.885 10.915-9.64 18.174-.274 5.545.018 12.672-.128 16.96-.165 4.247-2.067 7.27-6.298 7.428-4.227.161-8.684 6.982-9.231 10.995 0-4.501.4-7.029 1.817-9.44-2.013 1.514-4.896 3.391-5.452 8.116-.21-4.993 1.815-9.51 7.006-12.089 5.181-2.596 7.106-1.887 7.806-8.285.697-6.37.332-9.464.332-9.464s-1.512.8-2.894 6.842c-1.406 6.057-5.07 10.424-10.258 8.832-1.261-.4-2.531-.786-3.803-1.172a137.65 137.65 0 0 0-2.12-.618c-.214-.06-1.082-.154-1.334-.407h-.063a.458.458 0 0 0-.107.07l-.014.067c-2.245 1.556-6.291 4.7-6.604 7.237.03-.198-.194-.61-.243-.805a20.424 20.424 0 0 1-.444-2.095c-.33-1.981-.388-4.127.165-6.089l-.015.014c-1.204-.196-2.336-.306-3.309-.306 0 0 1.403-.638 3.807-1.028 0-.012 0-.012.02-.02 1.006-2.088 2.766-3.54 4.94-4.268 3.611-1.212 7.672-.733 11.333 0-.748 1.398-1.138 2.646-1.847 3.576-.03 0-.328.125-.773.296.304-.057.568-.138.782-.215-.009.024-.029.044-.04.057.094-.068.196-.167.319-.224a10.18 10.18 0 0 0 1.71-1.348c1.139-1.088 1.989-2.481 2.34-4.053 1.118-4.845 7.36-8.748 10.723-8.939-1.122-1.32-3.978-2.754-8.16.66-4.194 3.403-9.794 6.842-13.743 1.476-1.124-1.62-.151-2.694-2.854-3.516-2.715-.807-5.697-.75-6.763-7.828 3.811 2.747 4.648 3.476 9.88 3.99-1.875-1.451-5.324-3.382-7.738-6.673.73 1.29 1.028 2.358 1.028 2.358-2.424-2.64-7.148-3.675-7.437-3.742-.053.12-.1.246-.151.413-.038.134-.342 1.39-.4 1.39-1.369.097-3.772-.05-7.839-1.266 0 0 3.705 3.009 7.292 3.48a47.829 47.829 0 0 0-.655 3.787c-7.528-1.152-13.704 1.25-15.677 3.429C92.127 168.964 83 167.123 83 167.123s5.678 2.794 8.64 3.339c2.981.533 9.82.567 15.638-.733 2.502-.567 6.489 1.259 10.203 3.523.235.89.446 1.833.718 2.734 1.11-.507 2.264-.93 3.5-1.209a27.646 27.646 0 0 1 3.014-.481c.104-.016 1.15 0 1.182-.074-.653 1.303-2.011 2.18-3.234 2.892-1.066.62-2.198 1.095-3.344 1.571.267.638.519 1.29.813 1.931.284.618.587 1.223.9 1.825.098.173.792 1.702.948 1.702l-5.787.285s3.93 2.125 7.3 2.14c0 .01 0 .01.01.03a37.857 37.857 0 0 0-2.14 2.732c-3.608.712-7.603 1.07-7.603 1.07 1.427 1.026 3.984 1.526 5.684 1.748-2.278 3.7-4.278 8.195-4.429 12.653-.005 6.059-.923 14.223-4.403 15.834 7.599-3.824 11.543-6.27 12.98-10.55 1.173-3.523 4.075-9.784 12.01-11.6.29.171.568.346.852.505a26.394 26.394 0 0 0-.47 7.17c.538-1.61 1.32-4.206 1.937-6.302-.051.182 2.902 1.508 3.19 1.64.778.35 1.56.674 2.36.946.318-.719.665-1.88.97-3.013-1.061.049-2.304-.015-3.822-.19 1.312 0 2.727-.45 4.153-1.192.274-1.078.45-1.912.45-1.912.215.444.39.915.548 1.357 6.693-3.955 13.694-13.33 13.694-13.33-1.35 9.774-7.123 14.052-9.009 18.491-.401-.156-1.139-2.598-.083-5.258-1.182.819-2.316 1.522-4.145 1.844.393 1.958.362 3.7.344 4.147.151.077.3.161.459.211.45.19.928.306 1.406.437.304.063 3.599.708 3.599.719-.03 6.609.59 13.648 3.088 17.376 5.082 7.515 10.79 9.238 16.987 8.808 0 0-11.788-4.742-7.198-19.692.366-1.296 2.047-4.065 3.327-7.123a42.493 42.493 0 0 0 6.147-2.002c3.67 1.73 4.432 4.873 5.376 7.763 1.465-3.27-.978-6.738-2.946-8.83.79-.377 1.548-.87 2.36-1.226.02-.01.03-.021.054-.031a6.75 6.75 0 0 1-1.624-2.524c-.379-1.05-.581-2.205-.636-3.336.104.141.23.303.34.423 1.133 1.498 2.314 3.002 3.565 4.39.187-.078.362-.162.54-.286.242-.165 2.838-2.001 2.838-2.001 4.706 4.855 10.285 9.695 14.799 10.564 4.015.763 7.29.591 10.047-.272l.687-.232c2.961-1.068 5.317-2.954 7.371-5.325l.058-.064zm-29.752-7.197a42.672 42.672 0 0 0 6.858-8.21c2.018 15.779 14.899 17.116 18.037 17.381-11.225 5.958-20.302-2.985-24.895-9.171zm-5.303-.177c-1.343-.126-2.682-.158-4.02-.169-.85-.037-1.692 0-2.531-.07a6.981 6.981 0 0 1-.998-.155c-.194-.027-.391-.074-.582-.106-.023 3.39-.933 6.494-1.314 8.559.186-3.178-.605-6.477-1.798-9.555-.592-.308-1.124-.724-1.627-1.131-1.476-1.255-2.175-3.032-2.389-4.947-.09-.62-.109-1.276-.114-1.903-2.32-3.625-4.421-6.015-4.421-6.015a26.933 26.933 0 0 1 4.142 2.045c-.115-.466-.367-.956-.581-1.367-.81-1.611-2.164-2.823-3.519-3.979-1.515-1.296-2.995-2.65-4.109-4.34-3.157-4.795-.107-9.812-.107-9.812 1.865-.167 4.437 2.271 7.055 4.752 2.62 2.506 4.068 3.406 9.705 3.291 5.66-.165 10.148 2.062 10.852 3.006-5.828-1.307-11.671-.427-12.65-.017-3.839 1.87-7.68.017-9.906.562 10.83 5.134 14.48 11.998 16.094 15.943-2.678-4.1-5.064-5.326-8.43-7.444.052.03-.053.964-.043 1.067 0 .416.022.807.063 1.206.022.306.01.615.01.914a13.141 13.141 0 0 1 2.74 5.67c.735.142 1.588.131 2.24.233.996.137 1.971.31 2.956.535 1.373.325 2.721.737 3.973 1.392.675.34 1.319.747 1.861 1.28.094.087.597.883.699.9a51.48 51.48 0 0 0-3.25-.345zm-16.707 34.258c-10.858-3.908-10.11-15.833-8.66-22.73.109 0 .206.036.302.036 2.982.098 5.92-.123 8.74-.613-7.252 11.93-.823 21.714-.382 23.307zm5.15-71.678c1.584-.159 5.053.588 6.578-3.986.089-.316.21-.602.313-.908-.86-.228-1.73-.416-2.576-.667-.448-.148-.899-.277-1.344-.46-.131-.064-.468-.162-.517-.314.019.049 1.926 0 2.062 0 .949.007 1.906.049 2.865.049.136-.387.272-.786.438-1.16.323-.732.704-1.423 1.194-2.045.518-.668 1.157-1.231 1.847-1.71.419-.31.87-.587 1.318-.842.304-.162 1.331-.487 1.472-.755-.634 1.195-1.421 2.323-2.033 3.546-.376.765-.68 1.525-.923 2.331-.05.167-.06.301-.05.46.225-.034.451-.068.694-.095.45-.04.88-.009 1.32-.086.489-.102 1.006-.122 1.497-.2 1.66-.23 3.296-.533 4.905-1.033 1.848-.568 3.83-1.424 5.091-3.006-.9 1.424-1.984 2.703-3.167 3.866a29.015 29.015 0 0 1-1.64 1.483c-.266.236-1.017.649-1.286 1.022.24-.074.485-.152.748-.243 1.348-.37 2.736-.466 4.125-.409 1.455.043 2.354.42 3.401 1.035-.158-.101-.935.107-1.125.124-.626.053-1.241.088-1.857.13-.753.074-1.51.155-2.238.29-.194.032-.37.097-.567.168 1.048.254 2.125.42 3.181.657 1.598.37 3.191.777 4.776 1.229 2.981.88 6.01 1.847 8.756 3.346.196.093.402.205.602.308 2.907-.195 12.23-.581 14.87-4.197-.79 2.491-2.732 10.507-20.145 9.41-1.68-.059-5.773-.683-7.847-1.525-.267-.122 6.198-2.058 9.77-1.666-.847-.105-1.707-.413-2.547-.599-3-.684-6.011-1.296-8.96-2.125-1.381-.402-2.758-.825-4.064-1.38-.61-.258-1.59-.578-2.193-1.1a2.526 2.526 0 0 1-.314-.367c-.243.167-.47.395-.673.74-1.869 3.53-5.044 4.32-1.75 6.732 3.303 2.394 3.22 4.637 12.353 4.956-2.892.634-10.918 2.529-16.135-3.31-3.774-.43-4.74-.18-8.655-2.49-1.666-.698-6.926-.603-8.317-1.45-.163-.104.512-3.06 6.748-3.754zm28.859-46.692c1.496 4.172 6.602 15.286-10.875 22.103a43.819 43.819 0 0 0-5.952-4.983c6.422-1.969 17.442-6.929 16.827-17.12zm-49.794 10.564c10.127-10.001 2.846-22.27 2.846-22.27 9.862 3.125 8.911 15.626 7.915 21.357-.093 0-.206-.014-.289-.014-3.6-.132-7.106.191-10.472.927zm.06 18.73c.42 1.916.907 3.784 1.446 5.675a156.79 156.79 0 0 0 1.637 5.426c.465 1.48.952 2.96 1.432 4.464.034.117.076.261.127.392.03.08.053.313.113.356-5.842-5.105-14.325-4.467-17.383-4.33-9.423.753-12.305-7.689-12.018-7.414 5.293 5.102 9.466 4.376 14.247 4.306-3.324-1.145-4.791-4.048-6.647-7.127 5.455 5.428 7.434 4.477 9.853 4.946-5.867-8.992-9.757-7.384-12.346-7.561-2.56-.18-3.689-1.713-3.689-1.713s.825-1.088 4.93-2.042c4.1-.963 7.049-2.284 9.835 2.965 2.783 5.24 5.16 9.055 8.599 11.156-2.61-3.267-4.594-11.482-4.437-15.904.158-4.43-.548-6.758-1.877-8.936 1.848.607 5.273 3.263 5.254 8.418 0 .492.02.996.077 1.486.153 1.822.464 3.633.847 5.436zm-41.788-18.713s12.651-5.096 21.879 10.39a42.863 42.863 0 0 0-6.306 7.347c-.982-6.047-4.34-15.637-15.573-17.737zm18.003 67.327s4.75-8.22 13.013-2.854c-3.49 1.77-8.824 4.118-13.013 2.854zm-8.225 26.771s-4.966-15.493 9.705-22.758a41.143 41.143 0 0 0 5.65 5.134c-4.556 1.86-11.943 6.476-15.355 17.624zm.054-45.98s6.435 3.947 17.871 1.75c-5.727 2.721-13.634 4.733-17.87-1.75zm-10.416-3.058c-2.902-.652-5.793-.42-8.744 1.589-2.601 1.73-5.386 1.356-6.032 1.244-.053.059-.094.078-.094.078l-.042-.127s.042.03.136.05c.625-.575 4.911-4.49 8.689-6.995 2.823-1.867 9.358-3.351 14.924-2.065-.039.554-.083 1.114-.107 1.688a44.247 44.247 0 0 0 .464 8.054c-2.579-1.461-5.902-2.973-9.194-3.516z"/>
            <path d="M261.905 175.892c-2.279.79-3.667 1.201-5.087.463.306-2.135.526-4.278.685-6.442 1.646.327 3.302.662 4.935.985-.131 1.668-.325 3.34-.533 4.994zm-.91 5.738c-1.582-.492-3.184-1.002-4.817-1.505.062-.284.102-.56.15-.83 1.424.398 2.796-.378 3.637-.814.385-.216 1.01-.617 1.715-.975a96.166 96.166 0 0 1-.685 4.124zm-.488 2.475c-1.542-.537-3.134-1.097-4.752-1.664.106-.588.225-1.168.346-1.775 1.62.506 3.233 1.01 4.789 1.505-.125.648-.258 1.293-.383 1.934zm-1.642 6.617a646.73 646.73 0 0 1-4.645-1.901c.189-.681.386-1.397.577-2.102.308-1.243.572-2.515.846-3.768 1.625.563 3.212 1.116 4.75 1.654-.454 2.059-.94 4.105-1.528 6.117zm-2.606 8.058c-1.443-.669-2.956-1.381-4.537-2.097a91.7 91.7 0 0 0 2.355-7.332 458.02 458.02 0 0 0 4.65 1.908 106.9 106.9 0 0 1-2.468 7.521zm-4.965-2.299c-3.073-1.431-6.297-2.92-9.372-4.328a.612.612 0 0 1 .037-.114 89.247 89.247 0 0 0 2.088-6.762c1.417.581 2.871 1.17 4.352 1.769-.045.159-.074.333-.14.503l.926.233c.034-.109.07-.233.09-.358 1.452.57 2.91 1.162 4.359 1.753-.698 2.46-1.47 4.9-2.34 7.304zm-.412 1.051a1376.097 1376.097 0 0 0-3.926-1.874l.27-.544s1.611.754 3.895 1.8c-.074.201-.154.402-.239.618zm-5.518 12.125c-2.833-1.887-5.788-3.865-8.614-5.752a92.191 92.191 0 0 0 4.636-10.381c3.068 1.448 6.27 2.988 9.34 4.452a104.64 104.64 0 0 1-5.362 11.681zm-9.02-6.011c-1.395-.929-2.738-1.845-4.022-2.681a85.844 85.844 0 0 0 4.277-9.73c1.395.662 2.856 1.367 4.36 2.08a89.079 89.079 0 0 1-4.616 10.33zm-4.803 8.094c-.854-.705-2.213-1.803-3.755-3.054a78.528 78.528 0 0 0 4.316-7.32c1.275.848 2.629 1.752 4.011 2.674a90.689 90.689 0 0 1-4.572 7.7zm-6.878 9.007c-2.518-2.522-4.99-4.994-6.955-6.964a83.085 83.085 0 0 0 5.85-7.825c1.133.918 2.323 1.863 3.441 2.774a78.093 78.093 0 0 1-4.278 5.844l.5.398a88.222 88.222 0 0 0 4.282-5.827c1.547 1.267 2.9 2.344 3.744 3.056-2.009 2.99-4.227 5.816-6.584 8.544zm-8.337 8.423c-2.26-2.887-4.358-5.56-6.06-7.75a80.791 80.791 0 0 0 6.418-6.486c2.049 2.136 4.546 4.73 6.825 7.11a86.462 86.462 0 0 1-7.183 7.126zm-121.2-109.18c-1.13-.55-4.402-2.124-8.671-4.201.41-.617.817-1.224 1.234-1.83 1.334 1.043 3.115 1.74 4.745 2.35 2.936 1.097 3.86 1.386 3.86 1.386s1.016-.7.17-1.248c-.846-.525-4.267-1.728-5.416-2.399-.637-.35-1.528-.835-2.304-1.56a84.158 84.158 0 0 1 3.7-4.695c4.95 3.31 8.436 5.66 8.581 5.749.154-.17.26-.298.443-.517-.384-.258-4.933-3.33-8.555-5.77a87.795 87.795 0 0 1 4.028-4.347c1.245 1.015 2.394 1.943 3.413 2.778-.165.166-.334.326-.507.498l.905.893c.199-.214.4-.392.597-.584 2.08 1.692 3.431 2.795 3.516 2.876.16-.149.225-.214.4-.389-.127-.09-1.459-1.198-3.529-2.862a76.459 76.459 0 0 1 6.522-5.752c1.757 1.827 2.934 3.043 3 3.114.09-.07.299-.249.418-.313-.066-.09-1.223-1.332-2.935-3.175.447-.357.876-.67 1.322-.997 1.568 1.817 2.746 3.208 2.887 3.367.148-.123.238-.207.436-.337-.16-.19-1.328-1.542-2.875-3.345.68-.511 1.378-.992 2.09-1.474 1.652 2.041 2.69 3.343 2.756 3.428.168-.096.249-.15.429-.268a408.854 408.854 0 0 1-2.767-3.443c.318-.22.626-.433.94-.638 1.48 2.007 2.491 3.394 2.597 3.538.178-.133.284-.188.462-.311-.104-.145-1.135-1.521-2.611-3.528a88.172 88.172 0 0 1 3.537-2.124c1.382 2.172 2.234 3.538 2.298 3.64.199-.116.299-.17.517-.294-.07-.105-.926-1.462-2.3-3.633.852-.463 1.698-.946 2.573-1.388 1.253 2.238 2.055 3.65 2.094 3.758.189-.108.29-.146.497-.258-.059-.09-.855-1.505-2.089-3.732.732-.36 1.464-.74 2.214-1.097.543-.254 1.12-.477 1.671-.726a237.09 237.09 0 0 0 1.914 3.935c.33-.145 1.016-.402 1.365-.572-.036-.098-.746-1.624-1.83-3.98.72-.298 1.443-.583 2.173-.86.92 2.351 1.492 3.822 1.523 3.955.214-.088.311-.133.512-.207-.042-.104-.607-1.59-1.521-3.925 1.32-.496 2.67-.96 4.018-1.378.16 1.367.298 2.878.476 3.422.294.916 1.284.113 1.284.113s-.02-.925-.268-3.903v-.078c.278-.064.553-.17.827-.24a340.325 340.325 0 0 0 1.074 4.055c.277-.088.507-.138.78-.223-.036-.16-.442-1.736-1.053-4.074a64.417 64.417 0 0 1 4.132-.96c.447 2.44.727 3.981.746 4.114.225-.048.32-.08.538-.122-.02-.127-.292-1.686-.753-4.1.504-.104 1-.18 1.483-.265.154 1.224.303 2.232.393 2.946l.06.47c.07.425.089.677.1.734.188-.046.294-.065.429-.084 0-.037-.032-.18-.052-.388l-.104-.745c-.095-.715-.234-1.745-.398-3.007a86.724 86.724 0 0 1 4.487-.636c.195 2.147.294 3.713.334 4.119 0 0 .964-.095 1.215-.118-.01-.135-.116-1.72-.29-4.145a81.5 81.5 0 0 1 6.516-.373c-.125 2.226-.205 3.901-.227 4.116h.555c.01-.21.104-1.89.218-4.106 1.179-.01 2.37-.022 3.55.021l.053-1.267c-1.185-.046-2.362-.036-3.532-.026.064-1.395.16-2.93.234-4.437 1.158 0 2.303 0 3.452.035.229.01.443.045.67.054-.675 5.598-1.15 9.516-1.182 9.75h.253s.21.01.315.02c.01-.18.486-4.129 1.162-9.76.94.055 1.881.124 2.826.199-.995 5.507-1.722 9.487-1.75 9.686.222.01.326.024.516.033.04-.158.751-4.149 1.77-9.693.807.084 1.634.188 2.444.278a4969.44 4969.44 0 0 0-2.075 9.615c.22.03.319.03.523.054.024-.16.875-4.088 2.063-9.609 2.06.254 4.11.581 6.118.998-1.54 5.112-2.81 9.37-2.86 9.539.246.055.658.124.857.17.005-.025.058-.189.154-.457.119.02.278.064.398.09.03-.17 1.503-4.472 2.433-7.25-.037-.02-.283-.094-.502-.174a97.09 97.09 0 0 0 .536-1.7 63.03 63.03 0 0 1 4.63 1.128c-2.013 5.222-3.495 9-3.57 9.192.188.045.283.074.437.12a1540.4 1540.4 0 0 0 3.577-9.208c.419.14.855.235 1.268.346a1501.37 1501.37 0 0 1-3.945 9.086c.24.067.339.078.538.149a6248.7 6248.7 0 0 0 3.94-9.057c1.93.58 3.83 1.27 5.73 1.99-2.439 5.16-4.153 8.785-4.249 8.985.398.138.902.303 1.224.401.069-.154 1.82-3.74 4.309-8.884 1.6.638 3.173 1.319 4.751 2.088l.274-.59a107.512 107.512 0 0 0-4.742-2.074c.661-1.356 1.37-2.801 2.108-4.322a80.751 80.751 0 0 1 5.32 2.395c-1.961 3.089-3.842 6.027-5.32 8.337-.083-.028-.168-.078-.263-.11l-.528 1.128c.031.036.071.057.111.064a753.29 753.29 0 0 0-2.303 3.603c.183.09.278.144.432.206.09-.159 1.175-1.84 2.288-3.593a90.252 90.252 0 0 1 5.312 2.782c-1.56 1.891-2.587 3.15-2.685 3.284.22.12.308.163.498.265.07-.102 1.083-1.345 2.662-3.276.581.341 1.149.681 1.72 1.029a23.32 23.32 0 0 1-.295.59c-1.415 2.88-1.8 3.812-1.8 3.812s.613 1.108 1.254.292c.448-.561 1.363-2.43 2.138-3.86a83.428 83.428 0 0 1 4.617 3.191 509.852 509.852 0 0 0-2.815 3.068c.053.054.273.24.368.329.049-.045 1.229-1.286 2.9-3.056.606.45 1.198.93 1.785 1.41-1.617 1.378-3.039 2.603-3.283 2.81.2.151.287.232.433.359.18-.161 1.637-1.402 3.279-2.823.73.603 1.446 1.222 2.178 1.846-1.98 1.63-3.223 2.684-3.343 2.774.185.152.25.234.405.367.068-.056 1.32-1.13 3.335-2.794.344.325.713.63 1.064.96a482.364 482.364 0 0 0-3.532 2.605c.18.16.261.247.42.381.129-.114 1.582-1.187 3.522-2.608a83.414 83.414 0 0 1 3.516 3.525c-2.242 1.413-3.736 2.38-3.834 2.426.098.11.159.166.244.263.074-.054 1.566-1.002 3.83-2.423.68.73 1.357 1.455 2.003 2.207l.96-.82c-.602-.715-1.237-1.387-1.874-2.072 1.134-.719 2.407-1.519 3.757-2.375.938 1.027 1.874 2.057 2.748 3.141-5.127 2.752-8.908 4.764-9.116 4.853.16.163.218.234.322.367.135-.07 3.916-2.1 9.093-4.843a89.738 89.738 0 0 1 3.084 4.005c-5.283 2.592-8.974 4.423-9.202 4.526.17.237.228.322.347.507.15-.081 3.871-1.908 9.194-4.532.407.565.77 1.163 1.154 1.744-5.309 2.001-9.67 3.645-9.85 3.7.089.116.12.175.191.265.133-.048 4.494-1.694 9.838-3.716.517.79 1.065 1.55 1.552 2.354.07.104.109.185.159.273-5.62 1.874-9.79 3.263-10.009 3.338.13.152.18.216.265.344.144-.042 4.322-1.445 9.967-3.324a96.217 96.217 0 0 1 2.463 4.354c-1.219.931-2.726 1.147-3.695 1.336-1.3.252-4.925.266-5.906.489-.95.244-.227 1.219-.227 1.219s.963.041 4.077-.044c2.27-.067 4.811-.18 6.616-1.303.23.453.469.935.694 1.41-1.639.43-9.43 2.486-10.135 2.674.16.315.27.56.4.804.316-.088 5.7-1.474 10.126-2.622a81.723 81.723 0 0 1 2.298 5.43c-5.416.993-10.057 1.824-10.395 1.888.087.223.123.327.208.524.21-.062 4.906-.902 10.386-1.874.22.62.44 1.222.657 1.846-5.805.872-10.197 1.534-10.476 1.57.08.24.123.339.189.527.189-.028 4.612-.698 10.476-1.583a90.085 90.085 0 0 1 1.834 6.245l.608-.156a81.243 81.243 0 0 0-1.805-6.17c1.531-.234 3.153-.48 4.824-.726a87.644 87.644 0 0 1 2.219 8.125c-3.337.23-6.984.467-9.959.662a81.462 81.462 0 0 0-2-6.864l-1.213.403a77.428 77.428 0 0 1 1.919 6.546c-2.753.195-4.724.33-4.955.34.116.44.27 1.051.359 1.378.18 0 2.228-.125 4.916-.284.448 1.948.82 3.865 1.114 5.837a379.708 379.708 0 0 0-4.168-.116c.04.216.05.315.074.505.085 0 1.666.023 4.155.104.287 2.076.496 4.148.626 6.252-2.931-.344-4.885-.567-5.06-.597 0 .25.009.348.016.54.138.027 2.11.262 5.063.611.13 2.336.161 4.662.076 6.989 0 .029 0 .053-.01.057-3.006-.605-4.927-.996-5.086-1.017-.019.256-.03.5-.03.564.115.02 2.025.396 5.074 1.006a82.514 82.514 0 0 1-.353 4.959c-.517 0-1.022.003-1.522.02-3.378.099-4.416.192-4.416.192s-.712 1.119.342 1.297c.035.01.085.01.125.02 0 .085-.021.173-.04.266.12.039 2.044.638 5.05 1.59-.046.376-.096.727-.144 1.091-2.977-1.042-4.906-1.725-5.055-1.768-.041.22-.041.33-.09.515.11.042 2.061.73 5.04 1.774a76.3 76.3 0 0 1-.985 4.83c-2.94-1.189-4.84-1.958-4.99-2.029-.06.23-.08.344-.134.543.104.045 2.014.825 4.989 2.022-.303 1.207-.596 2.425-.954 3.623l1.224.34c.337-1.147.614-2.308.905-3.47 1.252.501 2.645 1.08 4.15 1.675a74.929 74.929 0 0 1-1.982 6.627c-5.709-2.64-10.004-4.615-10.198-4.705-.128.354-.308.907-.387 1.218.133.058 4.412 2.099 10.118 4.818a87.777 87.777 0 0 1-4.243 9.64 3890.452 3890.452 0 0 1-9.456-6.315c-.091.178-.13.266-.22.432.15.08 4.149 2.76 9.452 6.306a80.249 80.249 0 0 1-4.263 7.25c-1.14-.92-2.314-1.87-3.447-2.79.87-1.321 1.69-2.661 2.497-4.056l-1.125-.603a80.878 80.878 0 0 1-2.357 3.854c-2.328-1.887-4.224-3.443-4.447-3.616-.13.197-.189.287-.3.467.15.118 1.473 1.191 3.243 2.633l.056.034c.363.308.745.617 1.15.939-1.772 2.68-3.682 5.273-5.77 7.728-1.522-1.53-2.885-2.875-3.354-3.367 0 0-.916.884-1.025 1.005.085.078 1.462 1.51 3.373 3.513a77.654 77.654 0 0 1-6.323 6.397c-2.15-2.766-3.561-4.59-3.657-4.686-.18.142-.247.199-.406.33.078.124 1.491 1.925 3.656 4.713-.742.645-1.469 1.307-2.234 1.92l.815.986c.74-.627 1.483-1.28 2.2-1.913 8.655 11.1 27.001 34.586 27.339 35.035.03-.02.22-.197.417-.345-.258-.338-11.878-15.214-20.971-26.888a96.725 96.725 0 0 0 7.202-7.189c1.175 1.23 2.298 2.387 3.234 3.37-2.308 2.545-4.726 4.984-7.304 7.251l.638.716c2.587-2.285 5.01-4.743 7.327-7.275a500.976 500.976 0 0 1 2.263 2.352c.168-.15.552-.475.552-.475s.369.368.91.935c-2.138 2.37-4.365 4.686-6.724 6.847l.317.337c2.358-2.16 4.596-4.477 6.742-6.857 1.027 1.05 2.452 2.506 3.507 3.6a98.334 98.334 0 0 1-6.75 6.809l.223.236a109.465 109.465 0 0 0 6.745-6.813c.616.626 1.064 1.077 1.154 1.179.021-.038.15-.135.258-.26-.078-.084-.557-.561-1.16-1.2.117-.13.236-.255.345-.374.627.625 1.104 1.09 1.203 1.217.13-.146.27-.268.27-.268-.04-.037-.483-.483-1.234-1.23 1.094-1.221 2.173-2.447 3.203-3.726a108.628 108.628 0 0 0 9.062-13.091l-.277-.166a108.227 108.227 0 0 1-9.034 13.045 107.275 107.275 0 0 1-3.163 3.726c-.885-.883-2.101-2.115-3.546-3.548.303-.367.65-.692.938-1.029l-.358-.321c-.296.347-.615.669-.904 1.006-1.026-1.017-2.128-2.133-3.282-3.288a97.107 97.107 0 0 0 7.51-9.766l-.796-.53a92.337 92.337 0 0 1-7.39 9.613 222.425 222.425 0 0 1-3.315-3.318 88.292 88.292 0 0 0 6.626-8.584c.279.232.476.401.538.432.128-.165.2-.24.338-.421a10.474 10.474 0 0 1-.587-.474c1.672-2.487 3.182-5.087 4.596-7.735 2.836 1.902 5.8 3.88 8.616 5.754a63.144 63.144 0 0 1-1.175 2.116l.407.23c.405-.662.787-1.378 1.166-2.08 7.216 4.818 13.35 8.905 13.574 9.054.114-.168.235-.39.235-.408-.185-.128-6.342-4.233-13.58-9.06a100.564 100.564 0 0 0 5.402-11.742 5556.52 5556.52 0 0 0 14.911 7.1c.081-.17.106-.257.18-.43-.341-.152-9.353-4.445-14.922-7.102.07-.202.154-.418.234-.619 1.358.63 2.93 1.364 4.542 2.094-.052.134-.11.287-.155.413l.302.103c.042-.117.09-.24.137-.382 4.849 2.256 9.883 4.583 10.175 4.714.06-.173.095-.277.154-.436-.157-.08-4.456-2.046-10.161-4.706a106.975 106.975 0 0 0 2.471-7.545c9.223 3.772 17.003 6.92 17.29 7.056.075-.26.14-.483.16-.536-.248-.102-8.038-3.276-17.31-7.033a101.716 101.716 0 0 0 1.516-6.138c7.183 2.513 12.809 4.494 13.039 4.572.07-.223.125-.507.128-.517-.199-.064-5.84-2.043-13.047-4.57.134-.645.27-1.296.394-1.932 9.542 3.012 17.628 5.553 17.915 5.648.028-.04.063-.283.121-.53-.238-.082-8.347-2.64-17.937-5.654.28-1.476.507-2.944.725-4.41 1.424-.679 3.095-1.11 4.032.251 1.491 2.173 5.002 4.442 6.833 4.5 1.134.017 2.28-.433 3.24-1.027 1.688-1.05 2.638-1.999 4.758-1.61 2.359.446 4.352 1.715 6.119 3.298 0 0-2.447-7.154-7.475-4.962-5.001 2.2-7.026 4.364-8.92 1.61-1.894-2.779-2.984-5.456-7.134-4.044-.437.142-.855.3-1.233.432.209-1.597.378-3.208.512-4.808 11.834 2.347 22.44 4.45 22.809 4.518.02-.22.038-.322.069-.53-.31-.072-10.943-2.192-22.813-4.559.115-1.48.19-2.983.248-4.488l-.313-.018a99.68 99.68 0 0 1-.253 4.463c-1.64-.325-3.296-.651-4.946-.988.07-1.214.17-2.422.219-3.654a99.11 99.11 0 0 0 .041-5.073c5.65.68 9.988 1.194 10.222 1.229.026-.223.03-.325.065-.538-.235-.02-4.596-.557-10.287-1.236-.059-2.831-.26-5.62-.543-8.388 8.67.223 16.146.429 16.422.439 0-.028-.021-.294-.042-.493-.218 0-7.73-.204-16.418-.428-.677-6.257-1.918-12.417-3.773-18.443 1.758-.257 3.437-.513 4.98-.75.19.645.407 1.296.587 1.962l.31-.095c-.19-.635-.39-1.262-.594-1.9 4.816-.717 8.253-1.229 8.464-1.263-.036-.227-.071-.32-.09-.543-.19.03-3.672.553-8.507 1.272a108.864 108.864 0 0 0-4.118-11.236c2.765.188 3.627-2.023 5.023-4.318 1.602-2.64 3.582-.747 8.317 1.018 4.73 1.753 6.64-4.975 6.64-4.975-1.551 1.566-3.337 2.837-5.485 3.364-1.922.48-2.851-.347-4.468-1.238-.925-.506-1.99-.864-3.038-.774-1.677.154-4.8 2.416-6.074 4.497-.388.637-.952.85-1.589.879a107.012 107.012 0 0 0-3.564-7.15c5.54-1.857 9.638-3.221 9.858-3.299a2.946 2.946 0 0 1-.228-.354c-.161.062-4.27 1.438-9.83 3.282-1.07-1.938-2.173-3.858-3.374-5.716l-.256.16a108.589 108.589 0 0 1 3.323 5.674c-2.985.98-6.358 2.107-9.772 3.25a67.155 67.155 0 0 0-1.834-3.041c4.752-1.794 8.47-3.2 8.631-3.264-.01-.015-.102-.134-.176-.24-.128.045-3.844 1.447-8.61 3.244a78.696 78.696 0 0 0-1.795-2.727c13.63-6.701 29.403-14.488 29.83-14.692-.13-.223-.188-.313-.292-.506-.334.166-16.192 7.963-29.878 14.707a88.145 88.145 0 0 0-3.208-4.392c9.909-5.303 19.938-10.649 20.246-10.811-.117-.177-.178-.234-.278-.384-.244.143-10.307 5.512-20.245 10.811a107.864 107.864 0 0 0-3.178-3.845c5.225-3.298 9.543-6.026 9.723-6.117-.01-.02-.128-.16-.229-.287-.14.08-4.476 2.826-9.73 6.136-.03-.035-.059-.09-.088-.123l-.723.634c-1.309.821-2.66 1.68-4.013 2.526a100.208 100.208 0 0 0-4.029-4.223c1.02-.762 1.712-1.28 1.84-1.364a4.623 4.623 0 0 1-.327-.446c-.12.088-.855.62-1.907 1.406-.497-.491-1.028-.979-1.54-1.461 2.54-2.112 5.257-4.382 7.961-6.629a98.787 98.787 0 0 1 3.584 3.589l.343-.324a96.355 96.355 0 0 0-3.568-3.565c8.934-7.46 17.44-14.56 17.709-14.794 0 0-.2-.223-.348-.382-.218.183-8.775 7.313-17.747 14.821a103.637 103.637 0 0 0-10.476-8.66c.66-.984.624-2.255.614-3.055 0-.553-.087-1.571-.017-2.59a106.55 106.55 0 0 1 5.376 3.88l.194-.246c-1.801-1.398-3.662-2.7-5.536-3.991.153-1.262.613-2.44 1.925-2.6 2.512-.273 5.985-2.241 6.835-3.74.526-.956.65-2.104.583-3.186-.135-1.897-.524-3.133.76-4.734 1.422-1.784 3.372-2.904 5.521-3.676 0 0-7.164-1.134-7.525 4.065-.384 5.215.56 7.873-2.624 8.247-3.173.371-5.937.105-6.584 4.213-.031.213-.06.407-.085.6-.374-.238-.737-.475-1.114-.71 2.194-2.683 3.675-4.49 3.78-4.627-.17-.138-.245-.213-.423-.358-.11.145-1.616 1.99-3.82 4.693a106.167 106.167 0 0 0-8.118-4.626c1.562-2.46 2.647-4.17 2.735-4.293a2.456 2.456 0 0 0-.332-.178c-.064.078-1.128 1.768-2.74 4.281a110.537 110.537 0 0 0-7.006-3.239c4.67-9.634 8.746-18.028 8.895-18.311-.213-.074-.308-.123-.507-.197l-2.359 4.834-.647-.299s1.981-4.212 2.274-4.829c-.154-.038-.293-.093-.512-.176-.11.226-4.1 8.652-8.656 18.332a142.06 142.06 0 0 0-5.247-1.964 97.798 97.798 0 0 0-3.666-1.196c2.616-6.727 4.665-11.985 4.746-12.2-.15-.042-.25-.082-.429-.122-.074.149-2.13 5.436-4.759 12.213a107.24 107.24 0 0 0-15.118-3.324c1.879-8.65 3.422-15.794 3.481-16.053a6.767 6.767 0 0 0-.528-.075c-.029.232-1.586 7.388-3.46 16.071a79.555 79.555 0 0 0-3.19-.4c1.338-7.435 2.413-13.311 2.444-13.55-.21-.02-.308-.028-.518-.055-.034.214-1.105 6.096-2.457 13.55a147.02 147.02 0 0 0-4.12-.347c1.275-10.583 2.398-19.816 2.43-20.124-.229 0-.331-.014-.554-.031-.03.289-1.139 9.527-2.423 20.135-.844-.045-1.67-.118-2.526-.139l-.009.317c.844.034 1.66.08 2.487.13a1146.98 1146.98 0 0 1-1.205 10.071 44.982 44.982 0 0 0-1.647-.095l-.03.95c.533.02 1.04.068 1.563.085a461.865 461.865 0 0 1-.562 4.634c-.378-.014-.777-.024-1.163-.07-1.106-.018-2.24-.044-3.343-.044.048-1.033.088-1.733.098-1.853-.218-.024-.323-.024-.548-.034-.014.128-.044.835-.108 1.887a92.745 92.745 0 0 0-7.928.412c-.255-3.7-.514-7.386-.706-10.248a99.2 99.2 0 0 1 12.896-.379l.025-.477c-4.347-.15-8.673-.009-12.942.382-.203-2.866-.338-4.814-.358-4.959-.308.01-1.056.055-1.056.055s-.408-4.978-.452-5.544c-.223 0-.334.02-.543.02.01.213.39 4.76.857 10.577-1.881.188-3.752.46-5.617.769-1.264-9.548-2.395-18.085-2.421-18.353-.19.03-.26.055-.438.08.038.259 1.163 8.804 2.436 18.354-.83.138-1.66.268-2.497.422-1.552-8.58-2.903-16.052-2.943-16.353-.22.041-.318.066-.538.102.048.287 1.393 7.771 2.954 16.386-1.94.387-3.88.834-5.79 1.351-.552-2.141-.916-3.541-.954-3.687-.218.05-.32.08-.538.128.095.355.576 2.208.966 3.698a95.836 95.836 0 0 0-3.911 1.133c-.123-1.123.32-2.535.846-4.665.955-3.832-1.743-4.399-4.567-5.666-2.829-1.254-.945-3.323.667-8.044 1.602-4.696-5.5-5.813-5.5-5.813 1.71 1.324 3.106 2.894 3.764 4.895.602 1.793-.225 2.762-1.08 4.398-.472.912-.796 1.967-.66 2.962.243 1.589 2.754 4.337 4.988 5.341 2.234 1 .228 4.292-.268 5.459-.499 1.147-1.64 3.443 1.228 4.84 2.87 1.372 2.075 2.101 1.359 4.383-.717 2.28.645 5.752 2.864 6.697.379.145.692.342.965.581a73.21 73.21 0 0 0-3.999 1.37c-1.094-2.782-2.327-5.962-3.632-9.276.156-.055.315-.13.467-.188l-.317-.894c-.159.059-.33.13-.487.199-1.215-3.096-2.468-6.325-3.681-9.42.664-.24 1.305-.498 1.95-.73l-.1-.304c-.672.247-1.303.507-1.966.74-3.873-9.902-7.242-18.558-7.356-18.826-.244.058-.467.18-.509.188.102.27 3.483 8.924 7.353 18.837-1.224.482-2.457.959-3.676 1.474-2.282-4.997-3.994-8.673-4.058-8.824-.02 0-.051.01-.051.01s-.187.075-.376.156c.083.161 1.805 3.89 4.084 8.848-.369.149-.722.317-1.096.467-2.382-4.914-4.168-8.625-4.258-8.775-.17.084-.229.105-.412.18.074.177 1.886 3.895 4.262 8.78a93.252 93.252 0 0 0-5.371 2.572c-5.195-9.275-9.7-17.324-9.85-17.6-.197.117-.427.251-.427.251l-.042.025c.14.248 4.648 8.317 9.83 17.576a114.624 114.624 0 0 0-3.858 2.117c-6.607-10.462-12.662-20.022-12.835-20.3-.2.12-.418.238-.418.238s-.049.05-.089.06c.189.309 6.232 9.869 12.833 20.312-2.566 1.5-5.079 3.12-7.52 4.848-5.034-6.234-9.045-11.257-9.194-11.437a.52.52 0 0 1-.074.074s-.158.106-.324.213c.156.197 4.163 5.2 9.183 11.425a110.905 110.905 0 0 0-7.82 6.136l.215.237a108.08 108.08 0 0 1 7.804-6.115c2.025 2.523 4.198 5.223 6.348 7.904a94.914 94.914 0 0 0-4.756 3.58 657.661 657.661 0 0 0-4.367-4.721c-.16.133-.467.382-.467.382s-.2.164-.34.287c.075.081 1.926 2.033 4.463 4.64-1.862 1.522-3.686 3.077-5.432 4.75l.651.683c1.751-1.671 3.566-3.23 5.434-4.74a471.51 471.51 0 0 0 3.232 3.352 95.595 95.595 0 0 0-7.501 6.783c-2.617-2.13-5.384-4.377-7.993-6.489 1.735-1.789 3.485-3.528 5.345-5.158l-.317-.368a112.92 112.92 0 0 0-5.392 5.213 3993.332 3993.332 0 0 1-11.765-9.579c-.144.178-.208.254-.343.432.22.189 5.482 4.461 11.73 9.55a94.183 94.183 0 0 0-5.074 5.688A15749.989 15749.989 0 0 0 57.917 83.96c-.03.03-.082.11-.082.11s-.126.158-.252.326c.294.2 10.512 7.041 20.954 14.052-.738.92-1.449 1.858-2.15 2.783-1.104-1.397-2.9-1.148-3.9-1.03-1.262.114-5.018 1.02-5.532-1.374-.516-2.39-2.738-5.576-4.274-6.245-.97-.44-2.11-.443-3.138-.27-1.824.313-2.992.809-4.661-.278-1.859-1.222-3.136-2.997-4.08-4.978 0 0-.421 7.01 4.644 6.876 5.073-.135 7.584-1.297 8.226 1.744.647 3.04.652 5.723 4.707 5.973 3.462.187 5.172.057 6.326 1.798-1.164 1.654-2.298 3.3-3.367 5.017-7.354-3.577-14.312-6.95-17.351-8.426-.045.088-.073.163-.073.163l-.394.82c2.038.958 9.396 4.438 17.371 8.17a107.95 107.95 0 0 0-2.862 4.919c-9.387-3.475-17.808-6.563-18.043-6.665-.083.159-.131.24-.225.389.282.114 8.682 3.213 18.054 6.677-.682 1.279-1.347 2.549-1.983 3.845a10384.74 10384.74 0 0 0-23.735-7.973c-.102.204-.13.294-.223.515.374.126 12.366 4.136 23.726 7.961-.158.324-.301.662-.459 1.01-11.476-3.633-23.553-7.424-23.89-7.533 0 0-.106.252-.21.51.357.11 11.94 3.758 23.865 7.524-.313.684-.663 1.374-.964 2.08l.441.179c.296-.707.654-1.412.981-2.128 3.342 1.063 6.706 2.128 9.86 3.124-.996 2.079-1.872 4.201-2.706 6.35-1.521-.368-3.065-.754-4.572-1.111a83.045 83.045 0 0 1 2.061-5.068l-.868-.387c-.78 1.725-1.46 3.47-2.125 5.221-3.652-.867-7.14-1.707-9.902-2.38.88-2.44 1.819-4.838 2.876-7.207l-.287-.123a108.588 108.588 0 0 0-2.899 7.252c-3.225-.78-5.395-1.303-5.502-1.315l-.097.51v.019c.124.024 2.253.537 5.414 1.296a101.935 101.935 0 0 0-1.45 4.434c-10.255-1.715-19.009-3.191-19.275-3.224-.056.192-.092.284-.142.526.31.045 9.036 1.505 19.239 3.22-.38 1.287-.736 2.592-1.075 3.88-9.266-1.104-16.932-2.022-17.212-2.067-.013.212-.03.332-.068.567.279.017 7.922.942 17.133 2.036a107.486 107.486 0 0 0-2.92 17.66c-1.813-1.26-4.273-2.2-5.594-2.03-1.064.121-2.062.693-2.867 1.399-1.445 1.215-2.189 2.253-4.22 2.167-2.264-.085-4.29-.98-6.166-2.212 0 0 3.29 6.33 7.655 3.576 4.372-2.752 5.941-5.061 8.106-2.762 1.024 1.115 1.89 2.235 2.92 2.886-.034.514-.082 1.05-.093 1.58a90.623 90.623 0 0 0-.072 4.335c-7.183 1.07-12.738 1.898-12.979 1.93.035.224.056.326.087.56.234-.043 5.767-.877 12.899-1.947.076 7.703.986 15.33 2.72 22.777a1942.231 1942.231 0 0 1-7.699 2.99c.016.073.073.275.11.43.162-.055 3.278-1.277 7.68-2.988.284 1.176.58 2.34.9 3.525-10.697 4.48-20.093 8.43-20.358 8.55.052.19.09.301.168.53.33-.127 9.692-4.073 20.337-8.54.23.823.46 1.684.708 2.519.77 2.515 1.65 5.023 2.594 7.467l.294-.102a106.505 106.505 0 0 1-2.582-7.464c-.252-.824-.479-1.688-.723-2.535a396.314 396.314 0 0 0 4.627-1.959c.355 1.3.727 2.61 1.129 3.893-2.101 1.161-3.489 1.922-3.558 1.969.038.152.069.252.1.371.097-.06 1.473-.831 3.575-1.972.616 1.901 1.29 3.8 2.016 5.678-6.489 3.846-11.758 6.966-11.933 7.07.066.165.097.253.175.431.202-.12 5.447-3.233 11.914-7.055.003 0 .003 0 .003.01l.449-.178c-.025-.027-.03-.055-.04-.088 1.327-.797 2.703-1.597 4.106-2.425.166.446.298.895.476 1.348.491 1.233 1.047 2.444 1.585 3.65a2256.55 2256.55 0 0 0-7.707 5.366c.015.031.093.21.143.328.137-.095 3.453-2.4 7.7-5.361.425.93.876 1.858 1.318 2.751-.53.092-1.224.045-2.278-.191-3.419-.828-4.32 1.894-4.833 3.202-.52 1.304-1.524 5.426-4.137 4.728-2.605-.697-6.848-.127-8.294 1.056-.91.722-1.475 1.834-1.828 2.923-.633 1.95-.72 3.328-2.623 4.405-2.139 1.24-4.528 1.577-6.961 1.506 0 0 6.686 3.948 9.11-1.093 2.435-5.024 2.55-8.061 5.858-7.178 3.302.902 5.95 2.27 8.228-1.587 2.27-3.85 2.86-5.614 6.264-5.289a6.562 6.562 0 0 0 2.575-.304c.348.655.716 1.31 1.085 1.952-8.28 6.053-16.216 11.845-16.425 11.993.092.146.154.23.256.39.258-.19 8.147-5.959 16.387-11.975 1.244 2.191 2.547 4.392 3.954 6.509-3.6 3.118-11.815 10.248-12.161 10.542.188.2.652.686.652.686s-1.035.9-1.805 1.58c.056.06.599.608.642.669 1.163-1.037 5.06-4.548 9.708-8.748a102.365 102.365 0 0 0 12.073 14.23l.338-.342a100.561 100.561 0 0 1-12.053-14.204c1.14-1.024 2.317-2.075 3.508-3.158a96.235 96.235 0 0 0 13.246 15.407l.647-.698a79.676 79.676 0 0 1-4.014-4.003c.547-.704 1.621-2.033 2.988-3.677 1.777 1.88 3.582 3.755 5.519 5.49l.316-.358c-1.93-1.746-3.755-3.609-5.532-5.5 1.912-2.363 4.238-5.213 6.273-7.717a77.04 77.04 0 0 0 5.253 5.32c-7.655 10.77-22.798 32.121-23.05 32.476 0 0 .198.152.403.314.299-.442 15.41-21.71 23.032-32.436.908.821 1.825 1.658 2.773 2.455l.817-.986a56.944 56.944 0 0 1-2.855-2.528c2.104-2.965 3.492-4.92 3.566-5.016a8.733 8.733 0 0 1-.377-.346c-.095.145-1.478 2.086-3.577 5.031a73.842 73.842 0 0 1-5.163-5.273c2.107-2.579 3.72-4.568 3.848-4.727-.128-.149-.207-.223-.367-.412-.17.203-1.77 2.182-3.85 4.72-1.735-1.958-3.402-3.987-4.935-6.115-.716-.985-1.383-2.008-2.057-3.02 2.51-2.265 4.187-3.77 4.277-3.855-.159-.23-.429-.617-.628-.915a809.02 809.02 0 0 1-4.312 3.73 81 81 0 0 1-3.079-5.384c2.826-2.067 4.705-3.445 4.79-3.498l-.214-.405c-.139.092-1.989 1.432-4.795 3.5-.01-.029-.03-.057-.03-.074a35.297 35.297 0 0 0 2.587-2.197c2.577-2.305 3.323-3.076 3.323-3.076s-.179-1.34-1.139-.795c-.642.383-2.194 1.778-3.489 2.888-.69.49-1.412 1.027-2.118 1.554-.527-1.108-1.055-2.206-1.531-3.319l-1.154.503c.491 1.172 1.045 2.327 1.602 3.464-1.154.613-2.611 1.08-4.248.613-.116-.032-.25-.032-.358-.053a84.4 84.4 0 0 1-1.284-2.842c5.191-3.598 9.56-6.644 9.68-6.729-.045-.114-.071-.202-.12-.34-.188.117-4.537 3.15-9.706 6.734a93.547 93.547 0 0 1-1.64-4.26c5.596-3.331 9.895-5.87 10.033-5.959a7.71 7.71 0 0 1-.145-.439c-.192.121-4.482 2.66-10.032 5.94a74.31 74.31 0 0 1-1.074-3.248c-.21-.68-.398-1.357-.573-2.05 5.508-3.025 10.123-5.58 10.237-5.647-.01-.149-.03-.223-.055-.379-.197.088-4.804 2.643-10.286 5.678-.189-.736-.367-1.452-.547-2.157 6.053-2.55 10.366-4.36 10.546-4.439-.05-.197-.08-.3-.129-.554-.24.095-4.537 1.908-10.547 4.43a65.108 65.108 0 0 1-.647-2.978 2510.281 2510.281 0 0 0 10.675-4.149c-.04-.159-.045-.233-.074-.425-.215.078-4.76 1.832-10.69 4.148a88.96 88.96 0 0 1-1.203-8.965c1.083-.29 2.694-.716 4.357-1.143.154 2.216.388 4.437.73 6.627l1.255-.199a75.262 75.262 0 0 1-.74-6.765c2.648-.691 5.092-1.343 5.34-1.407-.01-.257-.039-.53-.058-.895-.284.092-2.538.662-5.349 1.391-.103-1.76-.123-3.517-.103-5.27 3.083-.556 5.19-.938 5.333-.959.008-.206.008-.327.008-.563-.199.027-2.298.414-5.322.966 0-.474-.02-.946.01-1.412 0-.082.015-.178.015-.26 3.159-.475 5.218-.79 5.342-.814.006-.155.016-.378.016-.546-.17.03-2.21.348-5.328.797l.06-1.148c1.684.171 3.546-.122 5.258-.442 3.132-.548 4.099-.78 4.099-.78s.507-1.147-.497-1.168c-1.026-.054-4.648.695-6 .73-.716 0-1.71.063-2.721-.17a52.64 52.64 0 0 1 .244-2.626c3.073-.21 5.174-.357 5.307-.357.045-.325.104-.882.168-1.328-.223.028-2.336.121-5.281.311.334-2.496.79-4.973 1.358-7.437 2.482.148 4.904.273 5.183.283.03-.188.066-.283.12-.537-.37-.012-2.728-.139-5.168-.27.32-1.385.71-2.76 1.121-4.138 3.022.358 4.953.593 5.065.607.056-.178.085-.294.165-.536-.154 0-2.073-.24-5.063-.598.276-.889.557-1.753.854-2.624 2.985.494 4.872.818 4.996.838.064-.197.099-.29.178-.537-.148-.01-2.03-.323-4.975-.826.213-.626.428-1.243.667-1.855l-1.174-.461c-.27.705-.515 1.396-.766 2.103-2.73-.446-6.143-1.03-9.9-1.654.365-1.094.79-2.192 1.196-3.265 8.186 1.958 15.64 3.75 15.838 3.8.03-.188.064-.28.118-.535-.253-.055-7.631-1.834-15.778-3.778.837-2.13 1.717-4.254 2.706-6.33 1.627.513 3.174 1.02 4.657 1.474a.266.266 0 0 0-.055.085l.565.273a1.25 1.25 0 0 1 .096-.178c5.84 1.843 9.998 3.167 10.159 3.21.173-.327.56-1.096.784-1.52-.223-.09-4.316-1.463-10.068-3.387a84.925 84.925 0 0 1 1.82-3.364c5.663 2.1 9.81 3.623 9.97 3.67.09-.139.14-.216.238-.387-.192-.075-4.322-1.594-9.984-3.686.275-.435.514-.884.78-1.32 4.321 1.867 9.36 4.036 9.663 4.181.104-.178.163-.266.298-.472-.412-.18-5.384-2.323-9.679-4.186.37-.607.774-1.188 1.153-1.794 4.153 1.958 7.39 3.477 8.624 4.05-.318.337-.64.677-.934 1.024l1.358-1.438zm139.632 52.115c-.043.404-.086.805-.147 1.208-1.711-.551-3.044-.96-3.914-1.236 1.208.014 2.859-.017 4.061.028zM85.877 115.503c-1.362-.665-2.838-1.37-4.355-2.1a88.665 88.665 0 0 1 3.234-4.632c.387.418.704 1.03.844 1.938.175 1.178.762 2.103 1.596 2.862-.443.641-.89 1.286-1.319 1.932zm-1.54 2.386c-1.782-.77-3.383-1.454-4.449-1.922.395-.652.808-1.309 1.222-1.964 1.535.74 3.007 1.428 4.4 2.083-.398.594-.8 1.187-1.173 1.803zm-1.064 1.834c-1.454-.528-2.996-1.098-4.588-1.67.308-.545.618-1.082.926-1.61l4.453 1.93c-.27.444-.533.907-.791 1.35zm-2.06 3.788c-1.463-.51-3.004-1.013-4.616-1.555.438-.875.875-1.751 1.334-2.615.168-.3.363-.6.526-.904 1.59.58 3.144 1.161 4.582 1.693a98.344 98.344 0 0 0-1.825 3.381zm4.664 2.149l-.218.67s-1.722-.542-4.466-1.41c.12-.233.239-.47.379-.716 2.649.887 4.305 1.456 4.305 1.456zm-5.3-.939c-1.343-.42-2.926-.92-4.657-1.455.14-.273.287-.538.428-.818 1.702.581 3.267 1.094 4.606 1.55-.114.246-.258.493-.377.723zm-5.095-1.61c-3.005-.929-6.41-2.002-9.9-3.1.172-.342.317-.67.47-1.014 3.467 1.163 6.864 2.304 9.828 3.303-.128.273-.289.54-.398.81zm-7.224-8.432c3.256 1.187 6.608 2.425 9.742 3.599-.16.266-.329.539-.488.827-.488.896-.915 1.798-1.374 2.709-3.137-1.053-6.505-2.181-9.84-3.308.62-1.302 1.299-2.574 1.96-3.827zm3.06-5.267c3.13 1.463 6.338 2.978 9.36 4.4-.416.665-.823 1.306-1.226 1.977-.459-.218-.777-.34-.846-.384-.09.204-.13.304-.208.517.059.01.351.145.77.333-.313.538-.621 1.082-.94 1.62-3.154-1.174-6.49-2.4-9.752-3.597a121.77 121.77 0 0 1 2.841-4.866zm3.647-5.5c.099.194.199.358.289.592.457 1.253 2.442 4.193 6.385 3.477.628-.098 1.843-.247 2.778.45a75.095 75.095 0 0 0-3.323 4.763c-2.99-1.466-6.193-3.013-9.327-4.528a111.782 111.782 0 0 1 3.198-4.754zm3.964-5.188c2.93 1.958 5.865 3.921 8.6 5.77-.721.863-1.443 1.724-2.138 2.62-1.234-1.053-2.795-1.769-4.167-1.78-2.464 0-3.359.537-4.125-2.583a4.228 4.228 0 0 0-.449-1.103c.751-.985 1.494-1.969 2.28-2.924zm5.408-6.066c2.606 2.113 5.371 4.353 7.979 6.486-1.552 1.583-3.014 3.234-4.437 4.927-1.239-.84-4.566-3.085-8.586-5.77 1.606-1.956 3.303-3.824 5.044-5.643zm7.576 14.767a86.164 86.164 0 0 0-3.606 4.597 4.317 4.317 0 0 1-.987-2.029c-.178-.902-.765-1.817-1.571-2.568.706-.904 1.438-1.788 2.17-2.673 1.407.934 2.74 1.834 3.994 2.673zm.772-7.975c1.311 1.064 2.574 2.093 3.76 3.055a87.614 87.614 0 0 0-4.07 4.392c-2.039-1.363-3.676-2.483-3.875-2.613-.043.085-.095.13-.095.13s-.04-.02-.124-.083a84.8 84.8 0 0 1 4.404-4.881zm7.847-7.13c2.409 2.506 4.876 5.078 6.85 7.13a74.9 74.9 0 0 0-6.62 5.864c-1.035-.85-2.19-1.789-3.442-2.809a93.417 93.417 0 0 1 3.57-3.361l-.427-.464a84.257 84.257 0 0 0-3.632 3.443c-1.182-.973-2.456-1.998-3.759-3.06a92.336 92.336 0 0 1 7.46-6.743zm8.697 5.724c-.438.34-.917.652-1.344 1.008-1.94-2.09-4.35-4.694-6.695-7.228.522-.419 1.08-.84 1.612-1.238 1.63 1.879 4.257 4.93 6.427 7.458zM97.684 88.038a102.586 102.586 0 0 1 4.691-3.543c3.565 4.427 7.001 8.685 9.43 11.715-.726.483-1.427.996-2.14 1.511-2.177-2.527-4.8-5.58-6.425-7.477.322-.239.625-.482.954-.731l-.29-.375c-.326.242-.645.51-.979.758-.7-.82-1.17-1.38-1.258-1.455-.157.131-.242.202-.413.342.095.104.543.642 1.244 1.445-.552.405-1.1.83-1.632 1.243-1.11-1.196-2.192-2.361-3.182-3.433zm-1.847-12.462a102.783 102.783 0 0 1 7.507-4.834c1.794 2.852 3.64 5.749 5.416 8.566-1.56.904-3.089 1.872-4.59 2.852-1.672-2.235-2.85-3.825-2.97-3.98-.17.134-.25.198-.427.323.107.159 1.287 1.735 2.933 3.97-.513.333-1.02.634-1.521.988a1131.78 1131.78 0 0 0-6.348-7.885zm11.859-7.247c1.621 2.905 3.309 5.91 4.934 8.853a77.1 77.1 0 0 0-3.358 1.837c-1.784-2.817-3.627-5.723-5.416-8.585a86.23 86.23 0 0 1 3.84-2.105zm5.83-2.83c1.374 2.83 2.914 6.002 4.428 9.108a93.136 93.136 0 0 0-4.826 2.326c-1.642-2.937-3.331-5.961-4.954-8.855a114.218 114.218 0 0 1 5.352-2.579zm1.507-.64c1.29 2.803 2.757 5.993 4.214 9.167-.288.12-.587.275-.876.4-1.531-3.141-3.07-6.317-4.423-9.115.353-.143.711-.311 1.085-.451zm4.05-1.648c1.223 3.096 2.462 6.298 3.685 9.415-1.035.397-2.078.804-3.103 1.227-1.48-3.201-2.936-6.399-4.225-9.173a59.38 59.38 0 0 1 3.642-1.47zm-.304 12.061c.293-.123.566-.266.855-.382 2.527 5.481 4.955 10.742 6.297 13.65a4.25 4.25 0 0 1-.597.243c-1.393-2.857-3.92-8.089-6.555-13.511zm-5.194 2.472a100.99 100.99 0 0 1 4.786-2.273c2.886 5.928 5.567 11.458 6.557 13.497-.568.256-1.15.48-1.712.754-.787.358-1.547.731-2.306 1.118-1.868-3.324-4.5-8.025-7.325-13.096zm-3.82 2.08c1.096-.63 2.2-1.232 3.333-1.814 2.821 5.044 5.451 9.75 7.322 13.083-.895.447-1.76.914-2.64 1.406-2.015-3.194-4.89-7.746-8.014-12.674zm3.432 15.446c-.34.22-.65.443-.985.673-2.436-3.053-5.87-7.3-9.42-11.752.467-.33.98-.645 1.47-.968a8047.77 8047.77 0 0 1 8.935 12.047zm-8.476-12.35a85.866 85.866 0 0 1 4.551-2.807c3.11 4.939 5.976 9.474 7.995 12.69a61.188 61.188 0 0 0-3.622 2.175c-2.625-3.542-6.252-8.471-8.924-12.058zm22.04 7.459c-.063.019-.305.133-.54.233-.09-.175-.198-.398-.33-.672.186-.097.378-.168.565-.237.123.268.232.49.306.676zm-.028-7.592c-.054 0-.106.028-.144.033l.218.602a1 1 0 0 0 .16-.07c.59 1.525 1.134 2.913 1.607 4.13-.746.288-1.497.584-2.224.893-1.663-3.586-3.97-8.609-6.299-13.653a77.604 77.604 0 0 1 3.075-1.208c1.28 3.3 2.518 6.465 3.607 9.273zm5.06-1.083c.925 1.047 1.223 2.39 1.462 3.25.045.224.098.52.148.879-1.443.44-2.88.918-4.322 1.46-.467-1.213-1.01-2.596-1.597-4.105a69.352 69.352 0 0 1 4.308-1.484zm-1.852-6.814c1.857-3.507-.492-5.982-1.611-6.692-.905-.605-1.388-1.193-1.587-1.88 1.294-.426 2.622-.79 3.933-1.15.24.895.4 1.564.4 1.564l-.369.093c.099.365 1.92 7.242 3.572 13.49-.31.065-.588.167-.876.244-.477-.584-1.095-1.092-1.908-1.394-3.015-1.155-2.002-3.39-1.554-4.275zm7.008-11.214c.604 3.336 1.23 6.822 1.827 10.122a69.902 69.902 0 0 0-4.855 1.116l.117.45a87.596 87.596 0 0 1 4.827-1.1c.287 1.639.581 3.236.856 4.731-1.549.332-3.085.69-4.606 1.082-1.343-5.163-2.9-11.155-3.904-15.044a90.65 90.65 0 0 1 5.738-1.357zm3.011-.546c.446 3.39.915 6.886 1.357 10.18-.67.12-1.338.25-1.996.363-.595-3.273-1.233-6.774-1.834-10.125.82-.138 1.648-.273 2.473-.418zm6.024-.849c.252 3.218.541 6.796.83 10.24-1.7.19-3.393.437-5.073.729-.433-3.298-.895-6.795-1.345-10.198a108.02 108.02 0 0 1 5.588-.771zm1.273 15.516a97.171 97.171 0 0 0-4.816.695c-.202-1.5-.422-3.125-.635-4.779a83.403 83.403 0 0 1 5.053-.719c.125 1.664.253 3.274.398 4.803zm-6.889 1.729c.577-.107 1.144-.228 1.72-.332.22 1.599.407 3.1.584 4.404-.514.074-1.011.16-1.528.245a747.15 747.15 0 0 1-.776-4.317zm-.97-5.38c.65-.12 1.313-.255 1.98-.362.214 1.66.439 3.284.626 4.79-.582.098-1.158.207-1.746.328a607.03 607.03 0 0 1-.86-4.757zM135.56 85.19c-.207.055-.417.13-.61.18-.165-1.52-.452-3.056-1.169-4.254.208-.064.426-.144.656-.199.398 1.513.77 2.971 1.123 4.273zm-.3-4.496a69.583 69.583 0 0 1 4.57-1.054c.273 1.571.546 3.032.774 4.32a78.94 78.94 0 0 0-4.227.983c-.343-1.27-.716-2.717-1.116-4.249zm12.4 2.181a75.277 75.277 0 0 0-4.567.637c-.16-1.297-.369-2.778-.578-4.392a95.54 95.54 0 0 1 4.772-.697c.142 1.626.256 3.122.372 4.452zm8.17-4.964c-.077 1.508-.154 3.032-.238 4.437-2.241.035-4.461.16-6.659.379a1797.61 1797.61 0 0 1-.3-4.413 81.04 81.04 0 0 1 7.197-.403zm.284-5.451a598.128 598.128 0 0 1-.247 4.815c-2.442.03-4.887.18-7.289.415-.104-1.562-.218-3.187-.332-4.83a93.493 93.493 0 0 1 7.868-.4zm.563-.014c1.109 0 2.232.014 3.348.055.382.02.756.054 1.133.08l-.576 4.784c-.249-.015-.477-.033-.737-.05-1.144-.04-2.288-.04-3.426-.04.105-1.816.182-3.522.258-4.829zm5.03.154c1.049.066 2.103.11 3.142.204-.31 1.664-.591 3.265-.865 4.78-.95-.09-1.91-.129-2.86-.188.185-1.505.374-3.106.583-4.796zm.595-5.108c1.17.075 2.33.14 3.468.246-.284 1.562-.562 3.099-.83 4.594-1.056-.1-2.12-.145-3.18-.199.179-1.505.364-3.045.542-4.64zm1.34-11.03c1.377.105 2.755.2 4.113.357-.568 3.16-1.194 6.61-1.81 9.994-1.165-.126-2.34-.195-3.513-.261.403-3.332.825-6.762 1.21-10.09zm4.639.399c1.06.114 2.12.247 3.174.406-.696 3.2-1.423 6.589-2.14 9.912-.944-.124-1.894-.214-2.853-.307.627-3.405 1.24-6.831 1.819-10.011zm3.687.465c5.098.736 10.137 1.84 15.067 3.318-1.159 2.983-2.422 6.228-3.68 9.453-1.76-.517-3.532-.949-5.32-1.362 1.241-3.89 2.16-6.817 2.205-6.957a2.596 2.596 0 0 1-.273-.07c-.056.125-1.006 3.152-2.214 6.968-.228-.03-.437-.091-.668-.135a1401.31 1401.31 0 0 0 2.11-7.03s-.149-.05-.267-.07c-.041.109-.925 3.1-2.116 7.045a95.7 95.7 0 0 0-6.982-1.251c.71-3.319 1.443-6.708 2.138-9.91zm15.503 3.424c1.241.382 2.468.78 3.683 1.187 1.772.607 3.497 1.274 5.203 1.948-1.412 3.025-2.895 6.146-4.317 9.187a97.175 97.175 0 0 0-8.253-2.857c1.264-3.224 2.532-6.475 3.684-9.465zm-3.729 15.319c.502-1.155.855-1.953.905-2.093a11.072 11.072 0 0 0-.498-.203c-.048.118-.417.95-.924 2.13-.498-.138-.985-.266-1.481-.415l1.699-4.383a92.936 92.936 0 0 1 8.19 2.828c-.689 1.43-1.344 2.851-1.992 4.212-1.94-.749-3.91-1.464-5.899-2.076zm-.188.446c1.988.601 3.949 1.313 5.878 2.067-.72 1.531-1.422 2.997-2.063 4.394a71.67 71.67 0 0 0-5.746-2.014 926.448 926.448 0 0 0 1.93-4.447zm-1.98-.581c.481.135.97.268 1.452.422-.533 1.232-1.213 2.798-1.92 4.437-.432-.123-.87-.234-1.292-.343.55-1.43 1.153-2.957 1.76-4.516zm-5.402-1.367a80.61 80.61 0 0 1 4.963 1.232c-.615 1.582-1.224 3.103-1.77 4.517a99.655 99.655 0 0 0-4.662-1.148c.484-1.495.98-3.056 1.469-4.601zm-2.23 4.452c.428-1.43.916-3.031 1.394-4.654.183.05.372.093.547.138l-1.454 4.617c-.159-.026-.327-.08-.486-.1zm-.179.602c.16.034.308.081.464.109-.189.606-.369 1.153-.533 1.68-.13-.043-.227-.09-.268-.11-.243.79-.663 2.122-1.07 3.418l-.105-.035s.628-2.12 1.512-5.062zm-5.242-6.385c2.209.283 4.387.617 6.547 1.073-.478 1.566-.936 3.12-1.404 4.641a99.551 99.551 0 0 0-6.163-1.004c.325-1.476.662-3.056 1.02-4.71zm-.508-.064c-.357 1.654-.706 3.229-1.014 4.726-.83-.1-1.662-.208-2.487-.279.279-1.491.556-3.095.865-4.76.885.08 1.76.189 2.636.313zm.105-.472c-.886-.11-1.761-.212-2.661-.314.278-1.485.552-3.03.836-4.591.95.102 1.87.195 2.815.314-.343 1.56-.668 3.105-.99 4.591zm7.088 1.153a90.982 90.982 0 0 0-6.586-1.1c.329-1.494.668-3.024 1.005-4.58 2.324.313 4.616.735 6.905 1.208-.407 1.421-.867 2.927-1.324 4.472zm2.527-4.205c1.777.394 3.526.841 5.267 1.334-.571 1.485-1.149 2.95-1.7 4.366a87.79 87.79 0 0 0-4.974-1.232c.486-1.535.969-3.056 1.407-4.468zm-1.691 4.392c-.19-.044-.369-.088-.56-.107.44-1.516.904-3.036 1.33-4.482.22.038.433.09.642.13-.455 1.429-.945 2.953-1.412 4.459zm21.847-9.5a98.03 98.03 0 0 1 6.965 3.241c-2.24 3.504-5.451 8.564-8.502 13.335a87.694 87.694 0 0 0-5.371-2.411c.67-1.37 1.358-2.771 2.075-4.226a98.84 98.84 0 0 1 4.018 1.778l.408-.845a60.545 60.545 0 0 0-4.03-1.773c1.462-3.011 2.974-6.126 4.437-9.099zm7.307 3.41a104.477 104.477 0 0 1 8.083 4.605c-.964 1.165-2.028 2.484-3.168 3.882-1.985-1.219-3.994-2.411-6.055-3.498l-.229.423a93.566 93.566 0 0 1 5.972 3.452 1184.394 1184.394 0 0 1-6.567 8.023 106.816 106.816 0 0 0-5.304-2.97c-.398-.205-.823-.386-1.223-.592 2.592-4.069 6.058-9.503 8.491-13.325zm8.542 4.91c.432.257.844.53 1.263.803-.358 2.45-.547 3.946-1.632 4.884-.93-.615-1.86-1.232-2.79-1.813 1.14-1.412 2.214-2.722 3.159-3.875zm1.56 7.622a102.022 102.022 0 0 1 10.428 8.593c-2.686 2.256-5.413 4.522-7.955 6.638a91.06 91.06 0 0 0-5.333-4.553c2.996-3.153 5.468-5.747 5.563-5.84-.166-.173-.602-.623-.662-.697-.128.14-3.124 3.43-5.536 6.053a121.5 121.5 0 0 0-2.985-2.2c.687-.96 1.16-2.033 1.268-3.003.25-2.518-.212-3.493 3.055-3.973 1.03-.133 1.711-.528 2.158-1.018zm-15.125 14.164c.804-1.127 2.078-3.175 4.53-3.4 1.369-.133 2.777-1.137 3.82-2.402 1.001.705 1.982 1.445 2.965 2.18-1.51 1.645-2.694 2.941-2.694 2.941s-2.035 2.21-3.996 4.368c-1.576-1.19-3.192-2.275-4.85-3.355.08-.12.16-.247.225-.332zm7.152-9.014c.026.41.045 1.074-.15 1.715-1.127-.75-2.282-1.51-3.46-2.2 2.198-2.698 4.485-5.492 6.56-8.04.891.555 1.772 1.154 2.64 1.73-.363.243-.799.436-1.385.604-1.314.358-4.519 2.093-4.205 6.191zm-3.915-.117a82.65 82.65 0 0 1 3.601 2.299c-.385.805-1.202 1.502-2.853 1.597-2.646.148-4.269 2.349-5.546 4.718-.493-.307-.997-.6-1.507-.89 1.74-2.136 3.968-4.853 6.305-7.724zm-10.242 1.317s1.367-2.162 3.269-5.154c.427.204.856.397 1.272.617a83.957 83.957 0 0 1 5.226 2.926c-2.35 2.876-4.569 5.604-6.31 7.745a84.41 84.41 0 0 0-5.416-2.881c1.02-1.587 1.945-3.016 2.044-3.2-.028-.025-.085-.053-.085-.053zm18.131 9.783c-.238.218-2.187 1.887-4.154 3.585-.621-.51-1.241-1.027-1.87-1.504 2.036-2.128 4.552-4.791 6.841-7.189 1.815 1.414 3.567 2.935 5.292 4.515-2.935 2.45-5.591 4.66-7.65 6.378-.722-.624-1.443-1.25-2.179-1.862 1.931-1.664 3.84-3.303 4.09-3.522a11.088 11.088 0 0 0-.37-.401zm8.021 1.186c-1.106.826-2.488 1.844-3.952 2.926-.267-.244-.507-.527-.78-.771l-.428.46c.244.223.458.47.692.705-1.215.885-2.433 1.798-3.572 2.638-.368-.35-.756-.666-1.13-1.008 2.065-1.722 4.721-3.925 7.642-6.371.512.468 1.033.944 1.528 1.42zm-.28 7.567c-1.373.86-2.646 1.66-3.78 2.38a91.476 91.476 0 0 0-3.573-3.618c1.127-.828 2.35-1.737 3.567-2.632 1.3 1.253 2.559 2.539 3.786 3.87zm.66-7.17a93.907 93.907 0 0 1 4.017 4.209 388.66 388.66 0 0 1-4.15 2.624 86.138 86.138 0 0 0-3.81-3.907 381.038 381.038 0 0 0 3.944-2.926zm5.25 5.57l.349-.293c-.31-.368-.628-.696-.94-1.054 1.346-.849 2.7-1.703 4.008-2.519a98.765 98.765 0 0 1 3.153 3.796c-3.132 1.67-6.21 3.314-8.94 4.765a74.6 74.6 0 0 0-2.784-3.164c1.338-.849 2.746-1.73 4.158-2.624.329.377.678.726.997 1.092zm10.043 4.663c-3.233 1.598-6.311 3.11-9.038 4.456a82.646 82.646 0 0 0-3.084-4.042c2.73-1.465 5.81-3.099 8.919-4.774a98.42 98.42 0 0 1 3.203 4.36zm2.093 3.123c-3.073 1.156-6.475 2.444-9.6 3.618-.396-.602-.78-1.209-1.194-1.79 2.712-1.33 5.8-2.851 9.048-4.445.582.868 1.18 1.739 1.746 2.617zm1.98 3.284c-3.362 1.129-6.69 2.247-9.675 3.24a5.597 5.597 0 0 0-.233-.392c-.476-.77-1.004-1.495-1.513-2.255 3.136-1.174 6.536-2.47 9.582-3.604a94.969 94.969 0 0 1 1.839 3.01zm2.767 5.163c-.528-.113-1.149-.403-1.985-.705-2.313-.78-6.063.347-7.257 2.413-.19.328-.419.604-.658.841a77.893 77.893 0 0 0-2.332-4.113c2.99-1.005 6.32-2.123 9.685-3.241a95.342 95.342 0 0 1 2.547 4.805zm8.109-8.373a103.564 103.564 0 0 1 3.525 7.075c-1.388-.123-2.985-1.077-3.724-1.43-1.154-.527-3.435-1.733-5.176.95-.664 1.026-1.182 1.55-1.689 1.733a89.618 89.618 0 0 0-2.687-5.063c3.412-1.132 6.774-2.27 9.75-3.265zm4.177 8.553a101.103 101.103 0 0 1 4.163 11.345c-1.547.213-3.218.47-4.988.726-.25-.766-.504-1.54-.751-2.33.488-.085.79-.135.87-.149-.045-.224-.07-.33-.1-.542-.07.007-.417.07-.956.178a94.108 94.108 0 0 0-2.313-6.11l-.436.17c.83 1.987 1.576 3.999 2.263 6.002-1.074.213-2.717.51-4.646.868a96.44 96.44 0 0 0-3.433-8.45c.915-.422 1.597-1.03 1.945-1.44 2.024-2.337 3.516-1.54 7.408-.459.358.1.676.14.974.19zm-12.295 11.67c1.615-.29 3.202-.572 4.64-.824.202.59.453 1.19.652 1.802l.886-.3c-.18-.554-.4-1.117-.599-1.675 1.95-.351 3.582-.657 4.659-.844.256.776.505 1.544.76 2.323-3.34.496-6.91 1.027-10.323 1.53-.22-.672-.438-1.334-.675-2.012zm-.474.086c.244.662.454 1.345.682 2.004-1.672.256-3.288.503-4.835.734a91.115 91.115 0 0 0-.666-1.877c1.585-.276 3.222-.567 4.82-.86zm-2.244-7.017c-.568.152-4.714 1.225-5.292 1.364-.323-.659-.657-1.32-.98-2.002.447-.358.845-.783 1.14-1.341 1.503-2.817 3.75-1.754 4.62-1.276 1.638.908 3.088.908 4.303.564a94.934 94.934 0 0 1 3.394 8.27c-3.022.545-6.597 1.183-9.96 1.786a86.109 86.109 0 0 0-2.29-5.488c2.718-.705 4.958-1.286 5.214-1.36-.06-.208-.078-.304-.15-.517zm17.63 26.284c-3.413-.091-6.993-.176-10.376-.28a86.504 86.504 0 0 0-1.096-6.796c1.589-.081 2.688-.148 2.845-.148-.019-.324-.059-1.07-.059-1.07s5.69-.382 6.318-.429a9.977 9.977 0 0 0-.04-.534c-.27.007-4.457.287-9.411.626a88.678 88.678 0 0 0-2.238-8.174c3.41-.503 6.972-1.039 10.312-1.53a98.514 98.514 0 0 1 3.744 18.335zm.596 8.828c-3.239-.401-6.84-.82-10.346-1.252a86.514 86.514 0 0 0-.566-7.363c3.387.097 6.962.188 10.38.287.283 2.755.477 5.526.532 8.328zm-1.89 15.251c-.553-.592-1.81-1.53-3.465-1.832.176-1.498.33-3.021.425-4.55 1.528.307 3.069.627 4.636.907a89.812 89.812 0 0 1-.66 6.283 5.903 5.903 0 0 1-.935-.808zm-4.199 3.265c.13-.864.284-1.731.43-2.616.814-.1 1.517.3 2.645 1.844.507.695 1.03 1.116 1.542 1.364-.04.29-.075.567-.128.836-1.499-.479-3.016-.949-4.489-1.428zm-.412 2.168c.114-.53.204-1.073.298-1.61 1.498.459 3 .938 4.513 1.411-.12.6-.22 1.18-.343 1.765-1.469-.513-2.981-1.05-4.468-1.566zm-.085.517c1.473.523 2.965 1.049 4.448 1.559-.274 1.263-.542 2.556-.866 3.8-.17.687-.368 1.389-.546 2.058a946.23 946.23 0 0 1-4.365-1.774 117.45 117.45 0 0 0 1.33-5.643zm-5.347-1.867c1.447.5 2.94 1.016 4.43 1.549a92.52 92.52 0 0 1-1.298 5.58c-1.486-.58-2.94-1.185-4.35-1.755a88.456 88.456 0 0 0 1.218-5.374zm-6.182 3.352c.427-1.698.8-3.4 1.133-5.132 1.464.517 3.004 1.064 4.601 1.61a93.885 93.885 0 0 1-1.218 5.373c-1.578-.659-3.084-1.26-4.516-1.851zm-.151.547c1.443.581 2.966 1.198 4.537 1.833a90.018 90.018 0 0 1-2.094 6.789c-.005.028-.015.028-.02.057-1.528-.709-3.008-1.391-4.413-2.043a77.878 77.878 0 0 0 1.99-6.636zm-3.582-7.373c1.275.442 2.706.938 4.248 1.488a74.399 74.399 0 0 1-1.112 5.092 552.079 552.079 0 0 1-4.15-1.685c.39-1.618.737-3.244 1.014-4.895zm10.95-8.737c-1.671-.337-3.279-.656-4.77-.961 0-.336.04-.694.044-1.051l-.626-.023c-.016.327-.036.652-.047.975-1.614-.323-3.068-.627-4.397-.885 0-.081.01-.171.01-.245.08-2.306.056-4.593-.05-6.888 2.812.335 6.308.746 9.93 1.2.064 2.008.09 4.01.01 6.045-.03.6-.074 1.222-.104 1.833zm1.21 7.264c-.345.197-.886.503-1.523.673.367-2.42.597-4.852.746-7.29 1.486.295 3.033.616 4.601.906a115.95 115.95 0 0 1-.443 4.676c-1.035-.01-2.168.266-3.381 1.035zm-.52 2.83c.733-.018 1.423-.132 2.027-.375.602-.253 1.083-.476 1.531-.659-.116.69-.244 1.37-.363 2.05-1.075-.347-2.139-.676-3.194-1.016zm-1.372.159c1.442.446 2.956.918 4.472 1.403-.104.524-.197 1.065-.303 1.59-1.493-.525-2.975-1.035-4.418-1.552.088-.482.16-.959.25-1.441zm-3.163-4.116a4.927 4.927 0 0 0-1.384-1.441c.199-1.687.325-3.383.429-5.087 1.49.29 3.103.63 4.77.949a90.741 90.741 0 0 1-.771 7.45c-.976.077-2.089-.26-3.044-1.87zm-1.85 1.948c.049-.273.089-.587.134-.867.103.117.193.205.273.35.239.348.562.645.905.929-.457-.125-.876-.284-1.312-.412zm-.09.545c1.463.458 3.03.96 4.645 1.464-.08.478-.158.962-.237 1.445-1.618-.56-3.165-1.108-4.622-1.611.074-.436.135-.868.214-1.298zm-4.391-5.288c.159-1.576.273-3.152.34-4.725 1.32.252 2.792.55 4.4.857-.086 1.63-.21 3.241-.39 4.84-1.251-.66-2.776-.904-4.35-.972zm3.784 5.111c-.071.412-.14.823-.215 1.254-1.545-.538-2.959-1.041-4.232-1.494.05-.371.1-.741.159-1.116 1.284.4 2.736.853 4.288 1.356zm-4.214-1.908c.075-.492.125-.988.205-1.491 1.175.155 2.934.378 4.274 1.557-.057.432-.116.86-.177 1.293-1.56-.495-3.012-.96-4.302-1.359zm.056-23.043a79.725 79.725 0 0 0-1.106-5.948c3.324-.17 7.273-.418 10.009-.546a87.463 87.463 0 0 1 1.085 6.737c-3.76-.081-7.278-.18-9.988-.243zm10.066.743c.28 2.447.47 4.874.559 7.325-3.63-.44-7.12-.871-9.94-1.198a85.084 85.084 0 0 0-.616-6.39c2.705.085 6.212.164 9.997.263zm11.332 14.29c-.03 1.195-.128 2.39-.223 3.578-1.542-.324-3.1-.617-4.622-.907.05-.949.154-1.905.19-2.823l-.944-.038c-.032.896-.122 1.767-.18 2.654-1.572-.306-3.105-.6-4.586-.897.02-.652.07-1.276.095-1.916.078-2.03.043-4.006 0-6.011 3.506.432 7.107.86 10.33 1.253.02 1.7 0 3.409-.06 5.108zm-24.812 63.386s1.981 2.002 3.433 3.457c-.125.121-.239.26-.362.373l-3.44-3.503.369-.327zM71.135 133.782c-1.507-.254-3.068-.51-4.639-.775a82.72 82.72 0 0 1 1.262-3.62c1.533.35 3.056.729 4.575 1.086a112.67 112.67 0 0 0-1.198 3.309zm10.177 2.27c-.308.875-.586 1.78-.865 2.678-2.762-.35-6.202-.753-9.959-1.211a76.9 76.9 0 0 1 .955-3.127c3.742.622 7.144 1.186 9.87 1.66zm-2.163 7.414c-2.173-.124-4.124-.212-4.428-.233-.005.214-.016.328-.024.548.278.02 2.183.11 4.317.226a82.55 82.55 0 0 0-1.358 7.562c-3.01.168-6.64.358-10.026.546.53-4.77 1.413-9.478 2.69-14.07 3.755.459 7.211.88 9.963 1.22a73.167 73.167 0 0 0-1.134 4.201zm-6.422 24.54a77.753 77.753 0 0 1-.209-5.712c1.571-.28 3.073-.548 4.458-.797-.031 1.79 0 3.602.103 5.378-1.418.36-2.919.743-4.352 1.132zm.68 10.128c-4.611 1.782-9.958 3.868-14.725 5.72a99.75 99.75 0 0 1-2.343-18.65 3913.46 3913.46 0 0 0 15.534-2.789c.008 1.919.083 3.829.237 5.735-3.44.899-6.356 1.646-6.633 1.729.06.214.092.304.14.516.618-.145 5.717-1.474 5.717-1.474s.1.368.1.38c.084-.022.347-.093.731-.202a82.33 82.33 0 0 0 1.243 9.035zm.732 3.432a1172.172 1172.172 0 0 0-9.314 3.91c-.006-.01-.006-.031-.01-.031l-.923.233c.015.057.031.113.05.16-1.44.61-2.888 1.228-4.338 1.835-.173-.641-.351-1.28-.504-1.913-.12-.483-.22-.975-.327-1.466 4.773-1.87 10.116-3.936 14.714-5.725.204.996.414 1.988.652 2.997zm.707 2.752c-2.946 1.64-6.088 3.372-8.926 4.938a71.59 71.59 0 0 1-.943-3.23c3.296-1.393 6.466-2.717 9.29-3.922.18.748.38 1.495.579 2.214zm.636 2.275a74.651 74.651 0 0 0 1.129 3.424c-1.357.786-2.79 1.643-4.237 2.515a90.575 90.575 0 0 1-1.06-3.086l-.447.125a64.085 64.085 0 0 0 1.083 3.194c-1.34.797-2.694 1.6-4.033 2.403a90.522 90.522 0 0 1-1.895-5.544c2.831-1.576 5.984-3.308 8.922-4.938.18.635.348 1.286.538 1.907zm2.895 8.056c.01.04.03.074.05.118-2.746 1.894-5.7 3.949-8.344 5.783a125.189 125.189 0 0 1-1.486-3.457c-.185-.494-.35-.994-.53-1.497 1.341-.793 2.712-1.599 4.043-2.392.356.947.725 1.92 1.12 2.87l.432-.194a66.627 66.627 0 0 1-1.134-2.937c1.452-.85 2.876-1.684 4.228-2.498a80.942 80.942 0 0 0 1.621 4.204zm1.258 2.835c-2.43-.054-5.485 1.674-6.55 3.757-.619 1.183-.906 2.062-1.453 2.558a67.88 67.88 0 0 1-1.398-2.916c2.653-1.842 5.577-3.889 8.344-5.793.33.79.706 1.593 1.057 2.394zm.92 2.18c.04.011.096.011.141.03.351.718.725 1.412 1.104 2.128-2.537 1.84-5.338 3.892-8.114 5.922-.334-.585-.66-1.148-.959-1.729 1.272-.634 2.537-1.789 3.174-3.856.332-1.025 1.303-3.612 4.655-2.494zm5.294-.969c.01.031.038.078.049.113-1.094.8-2.298 1.683-3.58 2.622a39.4 39.4 0 0 1-.817-1.587c1.507.21 2.974-.3 4.348-1.148zm.269.514a84.838 84.838 0 0 0 3.142 5.475c-1.075.939-2.224 1.922-3.347 2.887a79.72 79.72 0 0 1-3.38-5.728c1.287-.95 2.479-1.82 3.585-2.634zm5.8 9.446c1.6 2.21 3.341 4.32 5.153 6.36-2.04 2.494-4.367 5.353-6.288 7.71a88.83 88.83 0 0 1-8.218-10.35c1.239-1.107 2.447-2.215 3.622-3.245.379.569.737 1.15 1.133 1.716l.514-.358c-.398-.598-.787-1.203-1.17-1.799 1.17-1.054 2.269-2.046 3.29-2.957.64.988 1.287 1.956 1.964 2.923zm-4.423 18.112a95.956 95.956 0 0 1-8.789-10.919c1.173-1.06 2.341-2.096 3.5-3.149a91.671 91.671 0 0 0 8.277 10.407 343.317 343.317 0 0 0-2.988 3.661zm-9.675-12.154c-1.402-2.113-2.687-4.273-3.92-6.475 2.787-2.023 5.571-4.074 8.108-5.924a77.898 77.898 0 0 0 3.433 5.789 450.111 450.111 0 0 0-3.85 3.336l-.229.152.031.026c-1.569 1.341-2.623 2.266-2.623 2.266s-.363.311-.95.83zm-14.856-16.528a98.563 98.563 0 0 1-1.984-5.678c1.21-.655 2.649-1.462 4.196-2.309a98.719 98.719 0 0 0 1.9 5.56c-1.395.823-2.765 1.648-4.112 2.427zm-3.222-9.857c1.463-.622 2.921-1.233 4.352-1.834.308 1.118.64 2.21.964 3.329-1.554.857-2.988 1.671-4.203 2.342-.4-1.283-.763-2.565-1.113-3.837zm-5.217 1.566c-.315-1.151-.61-2.327-.893-3.514 1.449-.555 3.034-1.162 4.695-1.806.1.456.2.938.315 1.393.16.651.339 1.334.512 1.979-1.549.655-3.101 1.296-4.629 1.948zm-3.682-26.632c1.593-.24 3.26-.503 4.982-.757 0 .786.008 1.554.034 2.323-2.616.475-4.39.804-4.532.82.04.224.056.331.1.547.15-.04 1.87-.354 4.432-.807a99.38 99.38 0 0 0 2.38 18.747c-1.677.651-3.25 1.253-4.704 1.832a104.564 104.564 0 0 1-2.692-22.705zm21.038-1.307c-5.345.975-11.405 2.052-15.553 2.799-.01-.777-.041-1.546-.041-2.317 5.302-.796 10.88-1.633 15.629-2.349-.016.624-.035 1.233-.035 1.867zm5.095-.918a387.19 387.19 0 0 0-4.458.81c0-.618.01-1.231.03-1.85 1.612-.234 3.102-.465 4.447-.655v.02c-.02.56-.02 1.117-.02 1.675zm-2.37-7.781c1.006-.071 1.975-.13 2.866-.2-.09.713-.149 1.432-.21 2.148a4.464 4.464 0 0 1-1.392-1.051c-.322-.372-.77-.659-1.263-.897zm-23.711 5.185c.008-.5.053-.976.083-1.448 1.045.546 2.265.624 3.99-.28 3.025-1.554 4.463-2.55 6.275-1.79-.097 1.299-.17 2.57-.224 3.87l.954.032c.033-1.137.116-2.244.192-3.365.099.057.19.112.301.169.678.584 2.372 1.417 4.309 1.148-.056.733-.121 1.467-.137 2.217l.469.01c.026-.765.106-1.54.149-2.315.855-.178 1.72-.581 2.6-1.328.769-.652 2.79-2.204 4.86.315.66.78 1.491 1.225 2.398 1.505a63.08 63.08 0 0 0-.09 1.58c-1.343.216-2.845.422-4.463.686v-.254l-.63-.017c-.005.123 0 .24-.005.365-4.753.71-10.337 1.553-15.64 2.326 0-1.08.032-2.147.068-3.23l-.474-.025a80.059 80.059 0 0 0-.055 3.343c-1.722.26-3.394.513-4.998.75 0-1.426.02-2.843.068-4.264zm5.386-3.953c-1.268.904-2.896 1.734-4.033.507-.066-.071-.158-.14-.239-.22.983-.074 2.459-.173 4.272-.287zm-2.199-18.29c3.291.394 6.744.816 10.142 1.218a96.723 96.723 0 0 0-2.71 14.682c-1.142-.344-2.137.117-2.898.62-.98.054-1.596.095-1.698.095.021.324.052 1.084.052 1.084s-3.795.256-5.532.361c-.076-.074-.197-.131-.275-.212a104.898 104.898 0 0 1 2.919-17.848zm1.236-4.392c3.282.536 6.722 1.106 10.062 1.673a85.225 85.225 0 0 0-1.007 3.39c-3.41-.391-6.868-.813-10.144-1.209.336-1.3.692-2.592 1.089-3.854zm9.991 5.19c.318-1.12.672-2.24 1.023-3.351 1.585.252 3.121.496 4.644.762a71.26 71.26 0 0 0-.96 3.148c-1.54-.184-3.118-.362-4.707-.559zm1.656 16.773c0 .068-.01.149-.015.206-1.037.658-1.707.894-2.873-.014.948-.054 1.914-.128 2.888-.192zm-4.546-1.253a95.366 95.366 0 0 1 2.757-14.982c1.594.188 3.158.389 4.665.556a89.077 89.077 0 0 0-2.684 14.153c-1.69.107-3.3.188-4.738.273zm-5.5-25.664c2.76.669 6.25 1.52 9.915 2.39a77.063 77.063 0 0 0-1.28 3.712c-3.358-.57-6.791-1.14-10.075-1.696.448-1.474.93-2.95 1.44-4.406zm146.757 99.88a2049.25 2049.25 0 0 1-7.453-6.674c-.203.155-.412.297-.69.513.511.465 6.227 5.626 7.42 6.717-.395.29-.805.591-1.207.888-1.024-1.745-3.144-2.967-5.039-4.02-2.606-1.423-3.449-1.806-3.449-1.806s-1.048.51-.332 1.13c.732.622 3.8 2.221 4.795 3.011.736.57 1.926 1.431 2.547 2.745a81.72 81.72 0 0 1-4.004 2.606c-3.954-4.055-6.88-7.08-6.994-7.183-.123.07-.205.104-.374.192.14.152 3.085 3.152 7.025 7.21-.084.044-.159.096-.238.156-.777.469-1.582.878-2.373 1.31-3.642-4.034-6.62-7.363-6.712-7.458-.099.054-.149.082-.277.135.128.135 3.1 3.443 6.735 7.469-.592.333-1.156.644-1.743.96-3.37-4.559-5.724-7.74-5.82-7.858-.167.091-.278.148-.496.274.12.182 2.457 3.348 5.8 7.865-1.44.746-2.915 1.415-4.38 2.057a1644.234 1644.234 0 0 1-5.578-8.103c-.149.055-.23.098-.427.162.128.18 2.441 3.549 5.604 8.129-1.228.538-2.478.992-3.715 1.452-.777-1.336-1.514-2.558-2.154-3.666.83-.29 1.682-.598 2.504-.925l-.45-1.118c-.886.358-1.78.68-2.667.994a203.153 203.153 0 0 1-2.194-3.748c-.123.057-.178.075-.322.135.059.09.905 1.545 2.179 3.727a94.186 94.186 0 0 1-4.517 1.462c-1.034-2.064-1.79-3.63-1.86-3.761-.18.036-.289.085-.519.128.102.223.851 1.753 1.862 3.775-.448.114-.895.216-1.332.333-.971-2.298-1.573-3.74-1.613-3.842-.178.052-.263.081-.488.156.055.115.657 1.557 1.613 3.8-.886.211-1.776.427-2.658.616-.77-1.92-1.45-3.623-1.55-3.818-.18.032-.285.053-.518.107.109.294.79 1.948 1.542 3.814-.703.146-1.409.301-2.13.43-.636-2.24-1.094-3.802-1.118-3.862-.125.02-.383.074-.454.112.021.142.497 1.863 1.042 3.834a77.25 77.25 0 0 1-5.314.68c-.024-1.555.01-3.532-.13-4.208-.183-.968-1.187-.306-1.187-.306s-.081.961-.145 4.024c0 .213-.004.436-.004.624-.642.054-1.27.092-1.917.124-.493-2.324-.807-3.833-.82-3.946-.205 0-.298.01-.539.01.032.156.345 1.665.828 3.971-1.902.06-3.813.092-5.721.03-.18-1.988-.343-3.876-.369-4.047-.144 0-.258 0-.448-.031 0 .124.15 1.689.369 4.065-.049 0-.08 0-.12.012l-.048 1.193c.093.007.178 0 .273 0 .228 2.622.52 5.948.845 9.442a89.416 89.416 0 0 1-5.566-.314c.03-1.63.085-3.16.11-4.605 1.635.149 3.272.266 4.933.311l.02-.59a91.615 91.615 0 0 1-4.94-.312c.144-5.455.236-9.283.244-9.446-.308-.06-.816-.135-1.202-.205-.021.236-.154 4.051-.353 9.496a81.608 81.608 0 0 1-5.737-.81c.308-4.422.623-9.108.635-9.412-.192-.044-.287-.064-.507-.121-.027.4-.34 5.047-.645 9.435-.409-.081-.815-.178-1.224-.27.577-5.34.985-9.212 1.004-9.364-.157-.031-.247-.038-.427-.092-.028.199-.438 4.055-1.016 9.379a81.937 81.937 0 0 1-4.414-1.074c.098-.59.197-1.147.289-1.685.228.031.444.064.496.064.428-2.76 1.085-7.055 1.118-7.211-.114-.022-.253-.064-.372-.097a6.98 6.98 0 0 1 .078-.463c-.2-.05-.587-.166-.813-.22-.032.156-.817 4.325-1.762 9.348a80.46 80.46 0 0 1-5.62-1.84c1.403-5.202 2.412-8.918 2.467-9.077-.19-.064-.273-.088-.474-.18-.05.197-1.059 3.907-2.462 9.07a79.879 79.879 0 0 1-2.205-.835c1.589-5.125 2.722-8.834 2.772-8.99-.17-.074-.265-.109-.464-.202-.053.185-1.187 3.896-2.765 9-.82-.351-1.664-.716-2.481-1.094 1.9-5.072 3.222-8.611 3.288-8.78-.087-.032-.274-.118-.274-.118s-.109-.049-.21-.116c-.058.202-1.387 3.757-3.284 8.798-.188-.085-.385-.17-.584-.256-.997-.46-1.977-.96-2.947-1.476.609-1.307 1.195-2.65 1.758-3.865.988.5 1.974 1.035 3.004 1.53l.51-1.098a89.819 89.819 0 0 1-3.018-1.547c.881-1.941 1.528-3.419 1.606-3.57-.173-.093-.256-.146-.457-.252-.08.198-.745 1.655-1.621 3.592-1.841-.982-3.617-2.055-5.352-3.17 1.194-1.97 1.985-3.29 2.059-3.386-.199-.142-.985-.63-.985-.63-.199.31-.99 1.607-2.083 3.352a83.033 83.033 0 0 1-3.528-2.525c.695-.995 1.254-1.803 1.656-2.35l.418-.624c.106-.16.19-.263.203-.294-.097-.064-.172-.135-.327-.244-.021.02-.16.23-.398.562l-.258.38c-.398.567-.957 1.348-1.632 2.313l-.687 1.002a315.13 315.13 0 0 1-2.433 3.47l-.332.49c-.836 1.193-1.73 2.472-2.653 3.782l-6.127 8.784-10.132 14.508c.128.099.189.16.332.265.144-.223 4.856-6.97 10.123-14.514a97.296 97.296 0 0 0 4.427 3.127c-2.956 4.722-5.271 8.42-5.382 8.589.189.083.279.153.469.252.268-.44 2.805-4.513 2.805-4.513s.616.372.874.517c.09-.123 1.055-1.713 2.488-4.034a98.466 98.466 0 0 0 10.814 5.985l.183-.423a98.667 98.667 0 0 1-10.779-5.958c1.428-2.36 3.274-5.374 5.103-8.395a87.726 87.726 0 0 0 6.557 3.825c-.417.924-.7 1.545-.75 1.654.193.09.284.12.487.206.035-.106.305-.713.722-1.618.94.492 1.901.959 2.863 1.412.338.164.684.302 1.032.468-.523 1.347-1.035 2.748-1.578 4.18-.457-.21-.91-.405-1.352-.614l-.4.82c.478.226.957.418 1.438.63-1.117 3.01-2.277 6.109-3.396 9.078a46.187 46.187 0 0 1-2.169-.971l-.135.273c.73.34 1.463.665 2.205.992-3.573 9.555-6.692 17.882-6.785 18.133.187.097.289.121.48.216.101-.282 3.22-8.589 6.77-18.126 1.226.524 2.433 1.016 3.657 1.505a7421.882 7421.882 0 0 0-3.864 12.566c.18.071.258.121.463.188.07-.212 1.74-5.688 3.865-12.567.955.38 1.919.726 2.884 1.056a4217.193 4217.193 0 0 1-4.118 15.162c.1.033.26.097.476.157.074-.249 1.891-6.98 4.1-15.143a101.826 101.826 0 0 0 14.285 3.805c-.745 6.9-1.316 12.277-1.337 12.47.175.03.294.03.432.06.026-.222.6-5.584 1.33-12.439 1.212.235 2.422.441 3.645.59 1.762.268 3.532.477 5.302.651-.377 10.207-.695 19.105-.706 19.352.229.036.37.036.518.064.02-.645.188-5.089.188-5.089l.687.031s-.119 4.569-.124 5.14c.189.018.294.022.514.06.008-.311.227-9.223.486-19.435 2.462.188 4.925.29 7.38.313.262 2.836.42 4.74.431 4.841.049-.01.227-.01.362-.01-.004-.145-.184-2.083-.424-4.831 2.971.01 5.95-.125 8.915-.38a764.814 764.814 0 0 1 1.173 5.646 3.82 3.82 0 0 0 .528-.114c-.03-.159-.503-2.35-1.175-5.584.419-.03.838-.06 1.255-.114-.066.178-.114.357-.189.56-1.254 3.775 1.213 4.756 3.73 6.445 2.543 1.725.572 3.568-1.404 8.148-1.968 4.589 4.606 6.753 4.606 6.753-1.49-1.6-2.639-3.407-3.068-5.543-.393-1.926.483-2.79 1.438-4.349.528-.871.94-1.908.91-2.96-.064-1.644-2.154-4.832-4.163-6.16-1.043-.727-.915-1.926-.493-3.064 2.16-.252 4.312-.546 6.461-.952l-.064-.29c-2.085.378-4.163.682-6.262.945.39-.91.91-1.725 1.144-2.197.358-.669.955-1.742.827-2.87a95.818 95.818 0 0 0 12.684-2.754c4.317 10.31 8.446 20.11 8.55 20.356.21-.075.467-.171.467-.171-.114-.322-4.222-10.069-8.526-20.32 1.528-.436 3.072-.928 4.591-1.438l-.149-.429c-1.531.517-3.064 1.01-4.62 1.464-1.303-3.106-2.611-6.217-3.831-9.124.652-.175 1.3-.355 1.947-.536.55 1.1.934 1.879.998 2.015.178-.098.268-.152.462-.233-.059-.145-.433-.875-.953-1.962a86.097 86.097 0 0 0 5.28-1.834c.773 1.31 1.543 2.638 2.29 3.91l.327.844c.054-.01.09-.03.139-.044 2.995 5.097 5.482 9.33 5.563 9.46.138-.064.287-.135.298-.135-.09-.17-2.563-4.373-5.541-9.47a89.884 89.884 0 0 0 4.386-1.877c6.099 8.862 12.278 17.851 12.427 18.06.145-.07.228-.103.393-.195l-12.422-18.043a95.77 95.77 0 0 0 4.657-2.327c8.645 11.714 18.663 25.29 18.883 25.58.188-.126.273-.18.475-.315-.276-.358-10.237-13.881-18.856-25.538a81.844 81.844 0 0 0 2.711-1.519c3.252 3.623 5.8 6.425 5.89 6.522.12-.054.238-.128.248-.128-.098-.128-2.65-2.95-5.883-6.543.969-.573 1.954-1.178 2.9-1.778 2.392 2.447 4.755 4.881 6.858 7.055-1.744 1.152-3.516 2.289-5.307 3.328l.138.268c1.833-1.074 3.624-2.221 5.383-3.373 3.9 3.993 6.79 6.964 6.886 7.096.154-.111.308-.21.348-.21-.13-.159-3.015-3.123-6.905-7.109a103.972 103.972 0 0 0 6.157-4.518c.523.287.917.743.96 1.431.165 2.334 1.816 5.645 3.174 6.473.862.547 1.926.713 2.921.681 1.765-.024 2.914-.337 4.342.915 1.586 1.412 2.542 3.265 3.173 5.266 0 0 1.34-6.538-3.447-7.145-4.798-.565-7.31.175-7.501-2.772-.178-2.559.064-4.818-2.357-5.874l-.348-.109a11.863 11.863 0 0 0-.896-.276c-3.79-.78-5.408-.77-6.088-3.633a5.844 5.844 0 0 0-1.02-2.066l-.612-.688c-.872-.824-2.125-1.469-3.91-1.415-.937.02-3.318-.054-3.349-3.086-.008-.61-.163-1.15-.377-1.671a63.738 63.738 0 0 0 1.715-1.255c.424.387 3.473 3.125 3.89 3.483.14-.145.21-.228.356-.387a626.995 626.995 0 0 1-3.83-3.424l-.46-.412zm-101.72 5.141c-1.82 2.602-3.745 5.367-5.626 8.048l5.626-8.048zm-5.284 8.294c1.871-2.683 3.8-5.449 5.62-8.062a66.986 66.986 0 0 0 3.986 2.84c-1.756 2.805-3.577 5.709-5.208 8.341a92.029 92.029 0 0 1-4.398-3.12zm9.847-5.59c-1.355-.904-2.683-1.88-3.975-2.83.93-1.315 1.81-2.586 2.646-3.773a69.364 69.364 0 0 0 3.77 2.667c-.782 1.265-1.607 2.582-2.441 3.936zm2.758-4.429a94.223 94.223 0 0 1-3.76-2.677 327.597 327.597 0 0 0 2.438-3.467 60.91 60.91 0 0 0 3.585 2.548c-.671 1.064-1.436 2.28-2.263 3.596zm1.085.685c.786-1.3 1.533-2.518 2.2-3.602a69.597 69.597 0 0 0 5.481 3.24c-.543 1.223-1.16 2.55-1.761 3.876a83.153 83.153 0 0 1-5.92-3.514zm-2.715 4.46c.815-1.344 1.621-2.66 2.397-3.94a82.798 82.798 0 0 0 5.997 3.542c-.699 1.583-1.38 3.06-1.893 4.191a85.825 85.825 0 0 1-6.501-3.794zm8.863-.179c.974.507 1.95 1.015 2.93 1.485.225.095.427.181.642.283-.502 1.34-1.045 2.816-1.611 4.311-.329-.138-.668-.273-.999-.435a76.85 76.85 0 0 1-2.862-1.407c.512-1.138 1.189-2.628 1.9-4.237zm4.06 1.974c.815.375 1.65.754 2.492 1.112-.428 1.384-.881 2.886-1.359 4.424-.924-.39-1.841-.809-2.751-1.211.552-1.52 1.106-2.958 1.618-4.325zm-1.78 4.746c.923.422 1.846.85 2.78 1.24a600.562 600.562 0 0 0-1.308 4.257 82.466 82.466 0 0 1-3.035-1.317c.527-1.431 1.053-2.82 1.562-4.18zm-1.882 5.03c1.025.467 2.044.903 3.09 1.307-.97 3.163-1.955 6.36-2.851 9.29a94.088 94.088 0 0 1-3.646-1.502c1.128-2.993 2.284-6.079 3.407-9.095zm3.558 1.5c.85.334 1.7.671 2.556.982-.857 3.146-1.722 6.337-2.537 9.358-.97-.344-1.926-.684-2.88-1.053.91-2.95 1.892-6.127 2.86-9.286zm3.007 1.159c2.141.776 4.31 1.41 6.48 2.001l-1.304 6.9c.118.04.267.068.267.068.02-.132.588-3.124 1.289-6.878.225.045.422.088.637.17-.653 3.76-1.17 6.75-1.19 6.877.03 0 .174.033.28.064.01-.135.517-3.032 1.164-6.874 1.7.432 3.402.842 5.113 1.189a3862.99 3862.99 0 0 1-1.034 9.645 104.715 104.715 0 0 1-14.233-3.801c.822-3.021 1.687-6.233 2.531-9.361zm13.153 3.603c2.731.524 5.482.903 8.262 1.197-.123 3.194-.238 6.481-.362 9.672-1.76-.18-3.518-.358-5.273-.622-1.232-.182-2.438-.391-3.651-.614.337-3.042.677-6.36 1.024-9.633zm8.457-4.184c-.06 1.464-.11 2.936-.164 4.47a95.85 95.85 0 0 1-8.192-1.183c.168-1.53.327-3.021.493-4.48.481.088.959.206 1.436.29-.08 1.24-.138 2.094-.149 2.222.21.02.308.038.507.045.03-.132.071-.974.16-2.164 1.958.337 3.92.61 5.91.8zm-5.562-5.879c1.9.332 3.826.602 5.756.814-.075 1.456-.114 2.994-.18 4.633-1.973-.216-3.933-.474-5.894-.832.09-1.296.21-2.912.318-4.615zm-1.771-.368c.42.088.837.194 1.254.268-.118 1.708-.234 3.324-.318 4.608a31.983 31.983 0 0 1-1.433-.271c.185-1.592.339-3.156.497-4.605zm-4.884-1.163a65.84 65.84 0 0 0 4.466 1.063c-.159 1.46-.321 3.007-.496 4.618a95.53 95.53 0 0 1-4.747-1.111c.25-1.53.52-3.078.777-4.57zm-.268-.066a979.228 979.228 0 0 1-.786 4.558c-.17-.043-.347-.091-.517-.124.298-1.594.592-3.167.86-4.558.144.031.292.07.443.124zm.61-5.688l.106.014a302.351 302.351 0 0 1-.607 3.369c.045 0 .149.02.277.03-.087.517-.182 1.074-.287 1.662-.146-.038-.295-.064-.43-.114.539-2.875.942-4.961.942-4.961zm-6.994 3.637c1.881.684 3.773 1.324 5.673 1.85-.275 1.489-.578 3.041-.862 4.56a78.932 78.932 0 0 1-6.018-1.948c.427-1.569.835-3.062 1.207-4.462zm-4.033 3.4c.48-1.55.934-3.025 1.363-4.437.725.328 1.473.58 2.215.864-.394 1.395-.79 2.907-1.211 4.452-.796-.299-1.59-.567-2.367-.88zm1.07 5.664a91.378 91.378 0 0 1-2.519-.986c.443-1.434.883-2.865 1.309-4.25.79.31 1.588.614 2.39.883-.385 1.42-.778 2.861-1.18 4.353zm6.859 2.16c-2.148-.601-4.287-1.246-6.386-1.988.397-1.476.784-2.931 1.168-4.345 1.996.723 4.02 1.402 6.066 1.955-.3 1.516-.578 3.008-.848 4.378zm1.901-4.108c1.582.421 3.174.8 4.77 1.137-.16 1.442-.314 2.94-.473 4.452a82.052 82.052 0 0 1-5.058-1.177c.247-1.388.498-2.883.761-4.412zm-1.026 4.348c-.207-.06-.406-.115-.597-.169.265-1.4.538-2.897.826-4.368.18.04.358.075.527.125-.257 1.488-.517 2.99-.756 4.412zm15.356 3.585c1.388.102 2.786.199 4.184.26l.045-.908a82.674 82.674 0 0 1-4.208-.263c.04-1.536.074-3.021.114-4.48 1.85.152 3.73.27 5.607.304.488 5.391.998 11.09 1.356 15.05a107.02 107.02 0 0 1-7.34-.297c.07-3.17.157-6.479.242-9.666zm6.114-5.071c.427 0 .87.024 1.303.024 1.945 0 3.885-.06 5.81-.192.686 3.248 1.397 6.638 2.02 9.688a88.647 88.647 0 0 1-6.57.329l.01.454c2.223-.033 4.45-.141 6.68-.313.347 1.69.676 3.281.979 4.672a98.57 98.57 0 0 1-8.89.372c-.387-4.302-.934-10.448-1.342-15.034zm9.77 9.926a57.928 57.928 0 0 0 3.153-.318c.519 1.286.02 2.64-.75 4.888-.463.032-.941.092-1.419.121-.304-1.396-.626-2.98-.984-4.69zm4.274-2.92c-2.563-1.833-1.748-2.452-.853-4.697.35-.883.424-1.988.244-3.114 1.17-.14 2.345-.343 3.507-.548.897 3.294 1.99 7.4 2.046 7.551.064-.026.64-.223.844-.287-.024-.114-.98-3.426-2.144-7.403 2.2-.408 4.36-.924 6.527-1.526 1.224 2.928 2.542 6.032 3.833 9.12a97.05 97.05 0 0 1-12.618 2.727c-.17-.626-.578-1.233-1.386-1.824zm-5.27-17.218a82.983 82.983 0 0 0 5.581-.705c.732 2.688 1.473 5.445 1.473 5.445s.438 1.624.99 3.683c-1.15.19-2.314.389-3.468.557-.327-1.546-1.085-2.998-2.179-3.713-1.984-1.272-2.176-3.559-2.351-4.874-.021-.099-.031-.258-.045-.393zm3.005 18.27c.412.389.706.767.915 1.136-1.005.107-2.01.205-3.025.306-.636-3.075-1.342-6.451-2.019-9.695a85.247 85.247 0 0 0 3.906-.379c-.125.638-.43 1.21-.637 1.533-2.063 3.343-.106 6.226.86 7.099zm-6.178-18.02c.547-.027 1.115-.07 1.663-.105.038 2.572.445 5.15 2.625 6.429 1.362.817 1.751 1.757 1.73 2.596a57.596 57.596 0 0 1-4.073.39c-.716-3.463-1.419-6.751-1.945-9.31zm-6.058 3.696c-.01-.195-.165-1.818-.33-3.62 1.946.056 3.9.032 5.86-.046.528 2.574 1.224 5.848 1.95 9.315-1.9.117-3.805.199-5.72.199-.447 0-.905-.033-1.353-.044-.295-3.375-.513-5.79-.513-5.79s.056-.014.106-.014zm20.06-.532c-.113-.287-1.018-2.522-1.915-4.784.897-.185 1.78-.391 2.667-.617.995 2.37 2.268 5.401 3.68 8.777-2.144.56-4.296 1.09-6.477 1.495-.875-3.028-1.848-6.39-2.64-9.088.75-.135 1.498-.305 2.253-.448.92 2.292 1.851 4.57 1.95 4.853.197-.077.3-.114.483-.188zm4.915 3.24c-1.396-3.356-2.68-6.393-3.682-8.783.469-.095.95-.216 1.41-.335.597 1.203 1.217 2.518 1.869 3.799-.303.096-.597.223-.9.299l.17.558c.332-.088.666-.21.998-.297.763 1.548 1.483 3.024 2.061 4.205-.628.197-1.265.375-1.926.555zm.104-5.465c-.635-1.284-1.282-2.61-1.869-3.802a77.151 77.151 0 0 0 4.617-1.492c.661 1.101 1.377 2.344 2.163 3.652a84.311 84.311 0 0 1-4.911 1.642zm.273.536a73.18 73.18 0 0 0 4.943-1.64c.749 1.296 1.56 2.653 2.365 4.041a80.82 80.82 0 0 1-5.252 1.813c-.562-1.172-1.292-2.64-2.056-4.214zm7.621 2.28c-.8-1.374-1.595-2.752-2.362-4.048a85.216 85.216 0 0 0 3.75-1.466c1.672 2.427 3.563 5.172 5.482 7.962a132.927 132.927 0 0 1-4.338 1.856c-.744-1.277-1.521-2.593-2.298-3.91.429-.185.84-.304 1.26-.482l-.16-.413c-.437.173-.886.321-1.334.501zm7.265 2.257c-1.91-2.784-3.802-5.536-5.477-7.97a89.432 89.432 0 0 0 4.402-2.065c1.706 2.308 3.665 4.971 5.714 7.733a93.286 93.286 0 0 1-4.64 2.302zm5.146-2.585c-2.058-2.768-4.008-5.412-5.73-7.732.627-.316 1.208-.653 1.812-.999 2.134 2.37 4.461 4.96 6.555 7.272-.875.51-1.761.994-2.637 1.459zm2.886-1.604c-2.099-2.329-4.416-4.91-6.54-7.268.75-.422 1.515-.808 2.257-1.262.125-.071.248-.145.364-.21 2.099 2.14 4.437 4.538 6.794 6.975-.949.601-1.91 1.194-2.875 1.765zm3.209-1.97c-2.354-2.43-4.702-4.832-6.786-6.989a87.6 87.6 0 0 0 3.785-2.489c.1.325.16.666.19 1.01.11 2.286 2.797 4.879 5.109 5.226.83.118 1.483.16 1.983.287a89.854 89.854 0 0 1-4.281 2.954zm.657.658a93.148 93.148 0 0 0 4.49-3.13c.34.397.558 1.052.667 2.224.31 3.018 2.756 3.018 3.98 3.05.78.042 2.556-.061 3.779.452a99.875 99.875 0 0 1-6.088 4.449c-2.088-2.16-4.445-4.594-6.828-7.045z"/>
        </g>
    </g>
</svg>
