<svg xmlns="http://www.w3.org/2000/svg" width="190" height="74" viewBox="0 0 190 74">
    <g fill="#998A5C" fill-rule="evenodd">
        <path d="M188.152 51.666a1.64 1.64 0 0 1-.758.162h-2.863v-1.605h2.863c.295 0 .55.056.758.164.212.107.317.321.317.64s-.105.53-.317.64zm1.112-2.15c-.494-.3-1.171-.447-2.03-.447h-4.73v.228c.33 0 .496.075.496.224v5.697c0 .148-.166.222-.496.222v.227h2.46v-.227c-.288 0-.433-.074-.433-.222v-2.236h2.702c.86 0 1.537-.148 2.03-.445.491-.297.737-.798.737-1.51s-.246-1.215-.736-1.511zm-10.82-.219c.271 0 .407.075.407.224v3.762c0 .528-.183.89-.548 1.084-.362.202-.891.296-1.592.296-.699 0-1.23-.094-1.59-.296-.366-.195-.547-.556-.547-1.084V49.52c0-.149.098-.224.298-.224v-.228h-2.205v.228c.252 0 .378.075.378.224v3.7c0 .495.074.902.228 1.223.151.32.38.581.683.774.307.191.682.319 1.137.388.45.067.974.099 1.565.099.59 0 1.11-.032 1.563-.1.456-.068.835-.196 1.138-.387.304-.193.53-.454.682-.774.155-.32.231-.728.231-1.222V49.52c0-.149.108-.224.324-.224v-.228h-2.151v.228zm-9.285 4.014a2.306 2.306 0 0 1-.665.692c-.271.192-.58.338-.918.436-.342.101-.684.15-1.023.15-.338 0-.68-.049-1.022-.15a3.024 3.024 0 0 1-.92-.436 2.34 2.34 0 0 1-.667-.692 1.778 1.778 0 0 1-.254-.94c0-.352.087-.666.254-.944.173-.277.395-.505.667-.697.271-.187.578-.328.92-.43a3.57 3.57 0 0 1 1.022-.153c.339 0 .681.052 1.023.154.339.1.647.242.918.43.274.191.493.42.665.696.171.278.257.592.257.944 0 .35-.086.663-.257.94zm.295-3.486a4.686 4.686 0 0 0-1.396-.623 5.823 5.823 0 0 0-1.505-.206c-.493 0-.996.07-1.504.206a4.698 4.698 0 0 0-1.398.623 3.365 3.365 0 0 0-1.036 1.046c-.265.42-.404.92-.404 1.5 0 .574.139 1.074.404 1.495.269.423.61.772 1.036 1.05.419.277.886.477 1.398.598a6.06 6.06 0 0 0 1.504.19c.494 0 .994-.06 1.505-.19.513-.121.976-.32 1.396-.599a3.495 3.495 0 0 0 1.037-1.05c.269-.42.4-.92.4-1.494 0-.58-.131-1.08-.4-1.5a3.43 3.43 0 0 0-1.037-1.046zm-11.703 2.11a4.094 4.094 0 0 1-.806.07h-2.324v-1.858h2.324c.325 0 .593.027.806.068.214.047.39.115.509.197.129.082.219.18.274.296a.872.872 0 0 1 .076.37.867.867 0 0 1-.076.369.775.775 0 0 1-.274.294c-.12.085-.295.149-.509.195zm2.244 3.33l-1.788-2.383c.593-.1 1.064-.294 1.413-.59.349-.29.524-.712.524-1.264 0-.363-.067-.665-.202-.911a1.604 1.604 0 0 0-.578-.601 2.642 2.642 0 0 0-.9-.338 5.87 5.87 0 0 0-1.165-.109h-4.6v.228c.261 0 .39.075.39.224v5.697c0 .148-.129.222-.39.222v.227h2.324v-.227c-.15 0-.254-.018-.312-.053a.192.192 0 0 1-.09-.169v-2.236h1.923l1.48 1.96c.066.09.119.162.159.214a.327.327 0 0 1 .054.146c0 .042-.03.08-.088.104a.597.597 0 0 1-.21.034v.227h2.512v-.227c-.07 0-.148-.007-.234-.025a.346.346 0 0 1-.222-.15zm-12.871-2.942c-.062-.038-.105-.127-.123-.267h-.24v1.605h.24c.018-.17.061-.275.123-.326.061-.052.156-.076.282-.076h1.722v1.082c-.29.089-.637.175-1.044.253a7.258 7.258 0 0 1-1.376.121c-.335 0-.662-.042-.988-.132a2.696 2.696 0 0 1-.873-.408 2.069 2.069 0 0 1-.62-.72c-.156-.299-.232-.649-.232-1.06 0-.42.076-.775.233-1.067.155-.295.364-.534.619-.715.255-.185.545-.32.873-.408a3.75 3.75 0 0 1 .988-.131c.267 0 .553.015.85.047.305.033.58.087.837.161.252.07.464.154.63.256.166.103.249.213.249.337 0 .052-.01.101-.025.153l.267.075.792-1.657-.16-.087c-.044.027-.09.054-.134.087-.045.036-.11.05-.19.05-.045 0-.159-.026-.342-.081a10.848 10.848 0 0 0-1.649-.346 8.3 8.3 0 0 0-1.125-.073c-.626 0-1.2.075-1.714.23-.517.155-.956.38-1.325.672-.364.293-.65.645-.854 1.059-.199.415-.3.886-.3 1.414 0 .524.101.995.3 1.408.204.416.49.764.854 1.058.369.284.808.5 1.325.648a6.24 6.24 0 0 0 1.714.22c.322 0 .653-.007.987-.026a6.342 6.342 0 0 0 2.002-.427c.328-.125.64-.282.934-.473v-.202c-.073-.034-.135-.064-.187-.087-.054-.026-.08-.083-.08-.164v-1.418c0-.11.022-.18.064-.212.047-.035.159-.064.337-.092v-.225h-3.359c-.126 0-.221-.016-.282-.056zm-11.797-3.026c.07 0 .15.006.234.026.085.014.127.051.127.11 0 .05-.02.104-.067.165-.043.058-.104.139-.174.237l-1.571 2.018a18.709 18.709 0 0 0-.458-.639 57.27 57.27 0 0 1-1-1.374c-.134-.187-.196-.306-.196-.358 0-.08.037-.134.108-.154a.79.79 0 0 1 .228-.03v-.229h-2.794v.228c.09 0 .2.028.328.09a.654.654 0 0 1 .288.21l2.593 3.385v2.236c0 .07-.025.132-.079.169a.364.364 0 0 1-.203.053v.227h2.124v-.227c-.205 0-.308-.074-.308-.222v-2.236l2.284-3.022c.109-.148.199-.269.275-.356.075-.088.149-.157.216-.203a.548.548 0 0 1 .195-.086c.06-.012.129-.018.202-.018v-.228h-2.352v.228zm-6.605-.292a.496.496 0 0 1-.237.064h-5.964a.506.506 0 0 1-.237-.064c-.074-.038-.115-.119-.115-.235h-.238v1.755h.238c0-.116.04-.195.115-.24a.525.525 0 0 1 .237-.062h2.217v4.995c0 .07-.025.132-.073.169a.292.292 0 0 1-.17.053v.227h2.068v-.227c-.195 0-.293-.074-.293-.222v-4.995h2.215c.082 0 .159.022.237.062.076.045.117.124.117.24h.241V48.77h-.24c0 .116-.042.197-.118.235zm-10.677.292c.235 0 .35.075.35.224v5.697c0 .148-.115.222-.35.222v.227h2.232v-.227c-.234 0-.35-.074-.35-.222v-5.697c0-.149.116-.224.35-.224v-.228h-2.232v.228zm-3.168 4.138a.232.232 0 0 1 .052.15c0 .107-.089.223-.262.344a2.78 2.78 0 0 1-.65.327c-.262.097-.55.174-.863.238a4.688 4.688 0 0 1-.898.095c-.378 0-.737-.049-1.083-.15a2.69 2.69 0 0 1-.899-.44 2.16 2.16 0 0 1-.614-.71 1.979 1.979 0 0 1-.224-.954c0-.362.074-.682.224-.963.152-.28.357-.52.614-.71.254-.188.555-.336.899-.44a3.807 3.807 0 0 1 1.083-.148c.224 0 .466.024.734.073.263.052.512.115.75.193.237.072.437.16.598.252.16.098.251.193.27.283.009.035.013.067.02.092.004.02.004.049.004.073l.135.086 1.05-1.515-.201-.154c-.018.025-.042.059-.076.1-.031.047-.069.064-.113.064-.034 0-.134-.032-.295-.1a6.857 6.857 0 0 0-.66-.215 12.143 12.143 0 0 0-.974-.212 7.092 7.092 0 0 0-1.242-.098c-.565 0-1.105.07-1.627.215a4.17 4.17 0 0 0-1.376.638 3.103 3.103 0 0 0-.947 1.058c-.236.425-.351.908-.351 1.464 0 .559.115 1.05.351 1.464.233.42.546.769.947 1.051.4.278.86.486 1.376.621a6.76 6.76 0 0 0 1.627.198c.428 0 .84-.046 1.236-.136a7.319 7.319 0 0 0 1.055-.33c.31-.124.564-.234.763-.34.205-.097.33-.143.386-.143.028 0 .048 0 .073.003.023.002.047.005.075.005l.106-.101-.886-1.328-.187.1zm-10.913-4.138c.234 0 .351.075.351.224v3.99l-3.857-3.735c-.18-.17-.268-.288-.268-.355 0-.084.035-.124.108-.124v-.228H98v.228c.17 0 .254.075.254.224v5.697c0 .148-.085.222-.254.222v.227h1.99v-.227c-.21 0-.31-.074-.31-.222v-4.169l4.098 3.991c.143.133.213.228.213.289 0 .077-.058.111-.173.111v.227h2.175v-.227c-.168 0-.252-.074-.252-.222v-5.697c0-.149.084-.224.252-.224v-.228h-2.028v.228zm-10.225 0c.27 0 .403.075.403.224v3.762c0 .528-.18.89-.544 1.084-.363.202-.893.296-1.59.296-.702 0-1.23-.094-1.593-.296-.362-.195-.546-.556-.546-1.084V49.52c0-.149.099-.224.298-.224v-.228H87.96v.228c.254 0 .377.075.377.224v3.7c0 .495.076.902.23 1.223.153.32.38.581.683.774.307.191.685.319 1.138.388.45.067.973.099 1.563.099.594 0 1.113-.032 1.565-.1.455-.068.833-.196 1.137-.387a1.83 1.83 0 0 0 .683-.774c.154-.32.229-.728.229-1.222V49.52c0-.149.107-.224.324-.224v-.228h-2.15v.228zm-8.473 2.817a2.825 2.825 0 0 0-.873-.302 8.718 8.718 0 0 0-1.001-.133 42.66 42.66 0 0 0-.999-.062 6.773 6.773 0 0 1-.874-.1 1.735 1.735 0 0 1-.618-.229c-.158-.1-.234-.248-.234-.45 0-.14.055-.261.168-.36.112-.091.253-.169.422-.23.17-.057.36-.101.574-.131a4.436 4.436 0 0 1 1.389.024c.257.05.5.107.726.185.223.076.42.16.582.257.168.095.285.192.357.292.054.079.09.174.106.29l.137.05.926-1.569-.163-.1c-.05.052-.143.075-.265.075-.117 0-.265-.032-.437-.1a12.383 12.383 0 0 0-.646-.215 10.249 10.249 0 0 0-.908-.212 6.704 6.704 0 0 0-1.239-.098c-.553 0-1.034.059-1.449.182-.412.12-.75.276-1.02.468-.269.194-.468.415-.597.663-.13.254-.197.51-.197.768 0 .385.08.694.237.935.155.236.362.424.616.565.257.134.546.232.877.293.327.06.658.1.999.127.34.025.674.043 1.002.055.327.014.619.04.87.08.258.044.463.11.62.203a.458.458 0 0 1 .235.424c0 .192-.085.35-.254.465a2.1 2.1 0 0 1-.604.278 3.648 3.648 0 0 1-.714.13c-.242.018-.439.031-.591.031a3.95 3.95 0 0 1-.699-.07 5.801 5.801 0 0 1-.748-.178 3.822 3.822 0 0 1-.63-.258c-.182-.098-.308-.193-.37-.297a.358.358 0 0 1-.051-.2l-.135-.062-.742 1.517.19.103c.056-.066.114-.103.178-.103.095 0 .21.03.347.095.134.064.316.134.545.212.227.083.513.147.858.202.345.055.774.08 1.284.08a9.34 9.34 0 0 0 1.187-.08c.429-.055.823-.16 1.19-.322.37-.158.676-.375.923-.652.245-.272.368-.627.368-1.064 0-.373-.08-.683-.236-.917a1.656 1.656 0 0 0-.619-.555zM42.531 35.886c.331-.237.589-.55.842-.844.212-.243.429-.495.684-.72-.286-.054-.58-.117-.864-.167-.214-.038-.421-.09-.63-.138l.016.215c.034.133.078.463-.09.74-.126.198-.342.338-.639.407-.401.1-1.106.497-1.135.51l-.036.018.028.026c.008.008.716.751 1.824-.047zm10.662 12.455l-.029.009c-.38.147-3.51 1.222-5.493-2.59-.21-.382-.463-1.509-.913-2.51.126-.216.24-.44.352-.667 1.373-.285 2.403-.929 2.6-1.218-.767.255-1.56.328-2.202.328.371-.925.637-1.906.78-2.929 1.785-.023 3.614-.229 4.609-.917 2.183-1.506 2.68-3.195 2.561-5.037 0 0-1.38 3.497-5.716 2.138-.312-.09-.935-.462-1.652-.805a12.793 12.793 0 0 0-.447-1.495c.808-.314 1.928-.577 2.469-.7-.845-.39-1.92-.202-2.727.052-.023.003-.236-.506-.252-.546-.08-.166-.143-.33-.224-.494-.005.007-.008.015-.016.016.004.008.004.01.008.013-.524.323-1.351.456-2.64.087-.026-.005 1.214-.26 2.274-.801-.15-.217-.32-.42-.462-.644-.035-.058-.272-.489-.357-.448 1.429-1.363 2.987-3.088 3.244-4.458.452-2.416-.315-3.85-1.579-4.966 0 0 1.353 3.184-2.344 5.152-.43.242-1.884.543-2.888 1.168a11.69 11.69 0 0 0-1.141-.58c-.012-.629-.155-2.026-1.143-2.41 0 0 .521.893.39 2.104.011-.112-1.485-.439-1.633-.477-.106-.025-.21-.051-.312-.07l.053.183c.013-.008.016-.008.016-.008s0 .01-.006.024c.1.331.206.651.294.957a1.802 1.802 0 0 1-.646-.356c-.077.121-.16.247-.243.363-1.029.967-1.435 2.252-1.177 3.052.257.807.091 1.484-.331 2.334.27-1.614-.42-2.18-.915-3.314-.494-1.134.277-2.906.277-2.906-.008.322-.054 1.616.17 2.385.014-.433.131-.716.727-1.452.302-.376.778-.65 1.168-.827a2.146 2.146 0 0 1-.256-.57c-.145-.016-.294-.027-.443-.041.095-2.239.026-5.047-.873-6.38-1.012-1.503-2.112-2.215-3.283-2.476l-.11-.023a5.216 5.216 0 0 0-1.234-.103l-.121.008c-.077 0-.154 0-.23.007 0 0 .098.042.249.123l.13.08c.86.514 2.795 2.105 1.733 5.574-.177.62-1.418 2.45-1.418 3.867-.14.055-.28.104-.421.167l-.052-1.382s-.498.521-.475 1.6c-.083.043-.16.078-.236.117-.34-.606-.84-1.35-1.357-1.55.15.498.632 1.246.58 1.797.038.036.088.065.126.098.249.227.432.507.627.792.289.42.56.858.773 1.323-.054-.092-.186-.154-.271-.222-.236-.193-.47-.378-.708-.558-.284-.22-.59-.406-.876-.62-.084-.069-.167-.142-.256-.208-.515.272-1.278.666-1.18.776-1.512-1.677-3.59-3.71-5.2-4.016-2.331-.444-3.803.186-4.948 1.324 0 0-.313.301-.387.416 1.536-.48 2.165-.208 2.32-.186.16.027 1.905.228 3.216 2.753.191.365.439 1.396.85 2.349-.71-.016-1.694.026-2.148.35.03-.02.28.061.318.072.265.055.533.115.799.17.77.171 1.356.306 1.947.862.012.01-.279.644-.37.866a2.522 2.522 0 0 1 1.316.938c-.375-.638-.615-1.433-.545-2.446 1.378 1.86 1.375 3.202 4.26 3.38 2.745.162 3.346-.065 5.045 1.316-.986-.01-3.188-.669-4.91.752 1.238-.098 4.242-.708 5.508-.126.162-.715.855-2.173-.043-4.012-.149-.313-.31-.616-.476-.923a16.863 16.863 0 0 0-.796-1.342c-.203-.306-.426-.591-.647-.883.012-.013.715.44.991.669.274.224.531.464.77.73.232.26.45.553.622.863.185.344.318.716.407 1.098.049.206.084.422.117.64.014.105.032.22.043.33l.02.17c.003.022.034.15.02.168.599-.696 1.61-2.079.971-4.075.653.884.781 1.122.781 1.122.37-.705.078-2.136-.735-3.11.504-.005 1.238-.026 2.09 1.26.9-.898 1.819-1.534 2.852-1.569-.87.666-2.523 1.9-2.305 3.001-.86.245-1.208.302-1.826 1.603-.618 1.304-2.017 3.198-2.825 5.325-.08 1.625.006 3.713-.037 4.97-.048 1.244-.606 2.13-1.846 2.176-1.238.047-2.544 2.045-2.704 3.221 0-1.319.117-2.06.532-2.766-.59.444-1.434.994-1.597 2.378-.062-1.463.532-2.786 2.053-3.542 1.518-.76 2.082-.553 2.287-2.427.204-1.867.097-2.773.097-2.773s-.443.234-.848 2.004c-.412 1.775-1.485 3.055-3.005 2.588-.37-.117-.742-.23-1.115-.343a40.33 40.33 0 0 0-.62-.181c-.064-.018-.318-.045-.392-.12H28.004a.134.134 0 0 0-.032.021l-.004.02c-.658.456-1.843 1.377-1.935 2.12.01-.058-.057-.179-.071-.236a5.984 5.984 0 0 1-.13-.614c-.097-.58-.114-1.209.048-1.784l-.004.004a6.19 6.19 0 0 0-.97-.09s.412-.186 1.116-.3c0-.004 0-.004.006-.006.295-.612.81-1.037 1.447-1.25 1.058-.356 2.248-.215 3.32 0-.219.409-.333.774-.54 1.047-.01 0-.096.037-.227.087.09-.017.166-.04.23-.063-.003.007-.01.013-.012.016.027-.02.057-.049.093-.065.18-.114.348-.245.501-.395.334-.32.583-.727.686-1.188.327-1.42 2.156-2.563 3.141-2.619-.328-.387-1.165-.807-2.39.194-1.23.997-2.87 2.004-4.027.432-.33-.475-.045-.79-.836-1.03-.796-.236-1.67-.22-1.982-2.294 1.117.805 1.362 1.019 2.895 1.17-.55-.426-1.56-.992-2.267-1.956.214.378.301.69.301.69-.71-.772-2.094-1.076-2.18-1.095-.015.035-.029.072-.044.12-.01.04-.1.408-.117.408-.4.028-1.105-.015-2.296-.371 0 0 1.085.881 2.136 1.02-.078.366-.143.732-.192 1.11-2.205-.338-4.015.366-4.593 1.004-2.532 2.507-5.206 1.968-5.206 1.968s1.663.818 2.531.978c.874.156 2.878.166 4.582-.215.733-.166 1.901.37 2.99 1.033.068.26.13.537.21.8a5.22 5.22 0 0 1 1.025-.354 8.1 8.1 0 0 1 .884-.14c.03-.005.336 0 .346-.022-.192.382-.59.638-.948.847-.312.182-.644.32-.98.46.079.187.152.378.239.566.083.181.172.358.263.535.03.05.232.498.278.498l-1.695.084s1.151.623 2.138.627l.003.009c-.197.227-.412.5-.627.8-1.057.209-2.227.314-2.227.314.418.3 1.167.447 1.665.512-.668 1.084-1.253 2.401-1.298 3.707-.001 1.776-.27 4.167-1.29 4.64 2.227-1.12 3.382-1.837 3.803-3.092.344-1.032 1.194-2.866 3.52-3.398.084.05.166.101.249.148a7.734 7.734 0 0 0-.138 2.1c.158-.471.387-1.232.568-1.846-.015.053.85.442.935.48.227.103.457.198.691.278.093-.211.195-.551.284-.883a7.086 7.086 0 0 1-1.12-.056c.385 0 .8-.132 1.217-.35.08-.315.132-.56.132-.56.063.13.114.269.16.398 1.962-1.158 4.013-3.906 4.013-3.906-.396 2.864-2.087 4.118-2.64 5.419-.117-.046-.333-.762-.024-1.541-.346.24-.678.446-1.214.54a5.49 5.49 0 0 1 .1 1.215c.044.023.088.048.135.062.132.056.272.09.412.128.089.019 1.054.208 1.054.21-.008 1.937.173 4 .905 5.092 1.489 2.202 3.162 2.707 4.977 2.58 0 0-3.454-1.389-2.109-5.77.107-.379.6-1.19.975-2.086a12.45 12.45 0 0 0 1.801-.587c1.076.507 1.299 1.428 1.575 2.275.43-.958-.286-1.974-.863-2.587.232-.11.454-.255.691-.36l.016-.009a1.978 1.978 0 0 1-.475-.74 3.386 3.386 0 0 1-.187-.977c.03.042.067.09.1.124.332.44.678.88 1.044 1.286a.795.795 0 0 0 .158-.083c.072-.049.832-.587.832-.587 1.379 1.423 3.014 2.841 4.336 3.096 1.177.223 2.136.173 2.944-.08l.201-.068c.868-.313 1.558-.865 2.16-1.56l.017-.019zm-8.717-2.109a12.503 12.503 0 0 0 2.009-2.405c.591 4.623 4.365 5.015 5.285 5.093-3.29 1.745-5.949-.875-7.294-2.688zm-1.554-.051a13.773 13.773 0 0 0-1.178-.05c-.25-.01-.496 0-.742-.02-.099-.01-.192-.022-.292-.046-.057-.008-.115-.021-.17-.031-.007.993-.274 1.903-.386 2.508.055-.931-.177-1.898-.527-2.8a2.905 2.905 0 0 1-.476-.331c-.433-.368-.637-.888-.7-1.45a4.17 4.17 0 0 1-.033-.557c-.68-1.062-1.296-1.762-1.296-1.762.464.182.865.386 1.214.599a1.926 1.926 0 0 0-.17-.401c-.238-.472-.635-.827-1.032-1.166-.443-.38-.877-.776-1.203-1.271-.925-1.405-.032-2.875-.032-2.875.547-.05 1.3.665 2.067 1.392.768.734 1.192.998 2.844.964 1.658-.048 2.973.604 3.18.881-1.708-.383-3.42-.125-3.707-.005-1.125.548-2.25.005-2.902.165 3.173 1.504 4.242 3.515 4.715 4.671-.784-1.201-1.484-1.56-2.47-2.181.015.009-.015.282-.012.313 0 .122.006.236.018.353.006.09.003.18.003.268a3.85 3.85 0 0 1 .803 1.661c.215.042.465.039.656.068.292.04.578.091.866.157.403.095.798.216 1.164.408.198.1.387.219.546.375.027.026.174.259.204.264a15.084 15.084 0 0 0-.952-.101zm-4.895 10.037c-3.182-1.145-2.963-4.639-2.538-6.66.032 0 .06.01.089.01a12.57 12.57 0 0 0 2.56-.179c-2.124 3.496-.24 6.362-.111 6.83zm1.509-21.002c.464-.046 1.48.173 1.927-1.167.026-.093.062-.177.092-.266-.252-.067-.507-.122-.755-.196-.131-.043-.263-.08-.394-.135-.038-.018-.137-.047-.151-.091.005.014.564 0 .604 0 .278.002.558.014.84.014.039-.114.079-.23.128-.34a2.76 2.76 0 0 1 .35-.6c.151-.195.338-.36.54-.5.123-.091.256-.172.387-.247.089-.047.39-.143.431-.221-.186.35-.416.68-.596 1.039-.11.224-.199.446-.27.683a.36.36 0 0 0-.015.134c.066-.01.132-.02.204-.027.132-.012.258-.003.386-.026.144-.03.295-.035.439-.058a8.948 8.948 0 0 0 1.437-.303c.542-.166 1.122-.417 1.492-.88a6.352 6.352 0 0 1-.928 1.132 8.502 8.502 0 0 1-.48.435c-.078.069-.299.19-.377.299.07-.022.142-.044.219-.071a3.94 3.94 0 0 1 1.208-.12c.427.013.69.123.997.303-.046-.03-.274.032-.33.037-.183.015-.363.025-.544.038-.22.022-.442.045-.656.085-.057.01-.108.028-.166.049.307.074.623.123.932.192.469.109.935.228 1.4.36.873.258 1.76.542 2.565.98.058.028.118.06.177.091.851-.057 3.583-.17 4.356-1.23-.231.73-.8 3.079-5.902 2.758-.492-.018-1.692-.2-2.3-.447-.077-.036 1.817-.603 2.863-.488-.248-.031-.5-.121-.746-.176-.879-.2-1.761-.38-2.625-.622a10.654 10.654 0 0 1-1.19-.405c-.18-.076-.467-.17-.643-.322a.74.74 0 0 1-.092-.108.66.66 0 0 0-.198.217c-.547 1.035-1.478 1.266-.512 1.973.968.7.943 1.358 3.619 1.452-.847.185-3.199.74-4.728-.97-1.105-.126-1.388-.053-2.535-.73-.489-.204-2.03-.176-2.437-.424-.048-.031.15-.897 1.977-1.1zm8.455-13.68c.438 1.222 1.935 4.478-3.186 6.476a12.839 12.839 0 0 0-1.744-1.46c1.882-.577 5.11-2.03 4.93-5.016zm-14.59 3.095c2.968-2.93.835-6.525.835-6.525 2.889.916 2.61 4.579 2.319 6.258-.028 0-.06-.004-.085-.004a12.236 12.236 0 0 0-3.068.271zm.018 5.488c.123.561.266 1.109.424 1.663.148.534.312 1.062.48 1.59.136.433.279.867.42 1.307.01.035.022.077.036.115.009.024.016.092.033.105-1.711-1.496-4.197-1.31-5.093-1.269-2.76.22-3.605-2.253-3.52-2.172 1.55 1.494 2.773 1.282 4.173 1.261-.974-.335-1.403-1.186-1.947-2.088 1.598 1.59 2.178 1.312 2.887 1.45-1.72-2.635-2.859-2.164-3.618-2.216-.75-.053-1.08-.502-1.08-.502s.241-.319 1.444-.598c1.201-.283 2.065-.67 2.882.869.815 1.535 1.511 2.652 2.519 3.268-.765-.957-1.346-3.364-1.3-4.66.046-1.298-.16-1.98-.55-2.618.541.178 1.545.956 1.54 2.467 0 .144.005.291.022.435.045.534.136 1.064.248 1.593zm-12.244-5.483s3.707-1.493 6.41 3.044a12.559 12.559 0 0 0-1.847 2.153c-.288-1.772-1.271-4.582-4.563-5.197zm5.275 19.727s1.392-2.409 3.813-.836c-1.022.518-2.585 1.206-3.813.836zm-2.41 7.844s-1.455-4.54 2.844-6.668c.504.55 1.057 1.056 1.655 1.504-1.335.545-3.499 1.897-4.499 5.164zm.016-13.472s1.886 1.156 5.236.513c-1.678.797-3.994 1.386-5.236-.513zm-3.052-.896c-.85-.191-1.697-.123-2.562.465-.762.507-1.578.398-1.767.365a.098.098 0 0 1-.027.022l-.013-.037s.013.01.04.015c.183-.168 1.439-1.316 2.546-2.05.827-.547 2.742-.981 4.373-.605-.012.163-.025.327-.032.495-.029.805.023 1.593.136 2.36-.755-.428-1.73-.871-2.694-1.03z"/>
        <path d="M67.52 41.36c-.669.233-1.076.354-1.494.137.09-.628.155-1.258.202-1.894l1.449.29c-.039.49-.096.981-.157 1.467zm-.267 1.688c-.464-.145-.935-.295-1.415-.443.019-.083.03-.165.045-.244.418.117.82-.111 1.068-.24.113-.063.296-.18.503-.286-.058.408-.125.81-.2 1.213zm-.143.727l-1.396-.489c.031-.173.066-.344.102-.522.476.149.95.297 1.406.443-.036.19-.076.38-.112.568zm-.482 1.946c-.447-.18-.903-.369-1.364-.56l.169-.617c.09-.366.168-.74.248-1.108l1.395.486a27.419 27.419 0 0 1-.448 1.799zm-.766 2.369c-.424-.197-.868-.406-1.332-.617.263-.71.49-1.428.691-2.155.46.192.92.38 1.366.56a31.455 31.455 0 0 1-.725 2.212zm-1.458-.676c-.902-.42-1.85-.858-2.752-1.272a26.262 26.262 0 0 0 .624-2.022l1.278.52c-.013.047-.022.098-.041.148l.272.068a.776.776 0 0 0 .026-.105c.426.168.855.342 1.28.515-.205.724-.431 1.441-.687 2.148zm-.12.309c-.672-.322-1.154-.55-1.154-.55l.08-.161s.472.222 1.143.53l-.07.181zm-1.621 3.565l-2.53-1.691c.517-.99.97-2.006 1.361-3.052.901.425 1.841.878 2.743 1.309a30.782 30.782 0 0 1-1.574 3.434zm-2.65-1.768c-.41-.272-.804-.542-1.18-.788.476-.928.898-1.884 1.255-2.86.41.194.839.402 1.28.611a26.205 26.205 0 0 1-1.355 3.037zm-1.41 2.38c-.251-.207-.65-.53-1.103-.898.462-.693.883-1.411 1.268-2.152l1.178.786a26.67 26.67 0 0 1-1.343 2.264zm-2.02 2.648l-2.043-2.047a24.426 24.426 0 0 0 1.719-2.3c.332.27.682.547 1.01.815a22.96 22.96 0 0 1-1.256 1.718l.146.117c.444-.554.862-1.126 1.258-1.713.454.373.852.69 1.1.899-.59.879-1.242 1.71-1.934 2.511zm-2.449 2.477c-.663-.849-1.28-1.635-1.78-2.279.667-.6 1.295-1.239 1.885-1.907.602.629 1.336 1.39 2.005 2.09a25.407 25.407 0 0 1-2.11 2.096zm-35.595-32.1c-.331-.162-1.292-.625-2.546-1.236.12-.181.24-.36.362-.537.392.306.915.51 1.394.69.862.323 1.133.408 1.133.408s.299-.206.05-.367c-.248-.155-1.253-.508-1.59-.706-.187-.103-.45-.245-.677-.458a24.74 24.74 0 0 1 1.087-1.38c1.454.973 2.477 1.664 2.52 1.69.045-.05.076-.088.13-.152-.113-.076-1.449-.98-2.513-1.697.376-.436.773-.861 1.184-1.278.365.299.702.571 1.002.817l-.15.146.267.263c.058-.063.117-.115.175-.172.61.498 1.008.822 1.033.846a3.94 3.94 0 0 0 .117-.115c-.037-.026-.428-.352-1.036-.841a22.463 22.463 0 0 1 1.915-1.691l.88.915c.027-.02.089-.073.124-.092-.02-.026-.36-.391-.862-.933.131-.105.257-.197.388-.293.46.534.807.943.848.99.044-.036.07-.061.128-.1l-.844-.983c.2-.15.404-.292.614-.433.485.6.79.983.809 1.007.05-.028.073-.044.126-.078-.025-.028-.33-.41-.813-1.013.094-.064.184-.127.276-.187.435.59.732.998.763 1.04.052-.039.083-.055.136-.091-.03-.043-.334-.448-.767-1.038.34-.215.683-.422 1.039-.624.406.639.656 1.04.675 1.07.058-.034.087-.05.152-.086l-.676-1.069c.25-.136.499-.277.756-.408.368.659.603 1.074.615 1.105.055-.031.085-.042.146-.076a80.91 80.91 0 0 1-.614-1.097c.215-.105.43-.217.65-.322.16-.075.329-.14.491-.214.132.283.507 1.05.562 1.157.097-.042.298-.118.401-.168-.01-.029-.219-.478-.538-1.17.212-.088.424-.172.639-.253.27.691.438 1.124.447 1.163.063-.026.091-.04.15-.061-.012-.03-.178-.468-.446-1.154.387-.146.784-.282 1.18-.405.047.402.087.846.14 1.006.086.27.377.033.377.033s-.006-.272-.08-1.147v-.023c.083-.02.163-.05.244-.07.175.67.3 1.141.315 1.191.082-.026.15-.04.23-.065-.011-.047-.13-.51-.31-1.198a18.9 18.9 0 0 1 1.214-.282c.13.717.213 1.17.219 1.21.066-.015.094-.024.158-.037a73.758 73.758 0 0 0-.221-1.205c.148-.03.293-.053.435-.078.045.36.09.656.116.866l.017.138c.02.125.026.2.03.216.055-.013.086-.019.125-.025 0-.01-.009-.052-.015-.113l-.03-.22c-.028-.21-.069-.513-.117-.884.437-.075.876-.134 1.318-.187.057.631.086 1.092.098 1.211l.356-.034-.084-1.219c.633-.06 1.27-.1 1.913-.11-.037.655-.06 1.147-.067 1.21h.163c.004-.061.031-.555.065-1.207.346-.003.695-.006 1.042.006l.016-.372c-.349-.014-.694-.01-1.038-.008.02-.41.047-.861.069-1.304.34 0 .676 0 1.014.01.067.003.13.013.197.016a947.324 947.324 0 0 1-.348 2.866h.075l.092.006c.003-.052.143-1.214.342-2.87.276.017.552.037.83.06-.293 1.618-.506 2.789-.515 2.847.066.003.096.007.152.01.012-.047.22-1.22.52-2.85.237.025.48.055.718.082-.35 1.617-.598 2.768-.61 2.827.065.008.094.008.154.015.007-.046.257-1.201.606-2.825.605.075 1.207.171 1.797.294-.453 1.503-.826 2.755-.84 2.804.072.017.193.037.251.05a2.6 2.6 0 0 1 .045-.134c.035.006.082.019.117.026.01-.05.442-1.314.715-2.131-.01-.006-.083-.028-.148-.051.053-.16.106-.33.158-.5.461.095.914.203 1.36.332-.592 1.535-1.027 2.646-1.049 2.702.055.013.083.022.129.035.019-.044.454-1.163 1.05-2.707.123.041.251.07.372.102a441.674 441.674 0 0 1-1.158 2.671c.07.02.1.023.158.044.038-.086.616-1.415 1.157-2.663.567.17 1.125.374 1.683.585l-1.248 2.642c.117.04.265.089.36.118.02-.045.534-1.1 1.265-2.612.47.187.932.388 1.395.614l.08-.174c-.46-.215-.923-.417-1.392-.61l.62-1.27c.527.218 1.047.447 1.561.704-.575.908-1.128 1.772-1.562 2.45-.024-.007-.05-.022-.077-.031l-.155.331c.009.01.02.017.032.02-.397.62-.658 1.03-.676 1.059.054.026.082.042.127.06.026-.047.345-.541.672-1.056.53.254 1.046.528 1.56.818-.458.556-.76.926-.789.965l.147.078c.02-.03.318-.395.781-.963.171.1.338.2.505.302a6.86 6.86 0 0 1-.086.174c-.416.847-.528 1.12-.528 1.12s.18.327.367.087c.132-.165.401-.715.629-1.135a24.5 24.5 0 0 1 1.356.938c-.431.469-.8.87-.827.902.015.016.08.07.108.097.014-.014.36-.378.852-.899.178.132.351.274.524.415-.475.405-.893.765-.964.826.059.044.084.068.127.105.052-.047.48-.412.963-.83.214.178.425.36.64.543-.582.48-.947.79-.982.816.054.045.073.068.119.108.02-.017.387-.332.979-.822.101.096.21.185.312.282-.557.408-.978.722-1.037.766.053.047.077.073.124.113.037-.034.464-.35 1.034-.767.356.333.698.683 1.033 1.036-.66.416-1.098.7-1.127.713l.072.078c.022-.016.46-.295 1.125-.713.2.215.399.428.588.65l.282-.242c-.177-.21-.363-.408-.55-.61l1.103-.697c.276.302.55.604.807.923-1.506.81-2.616 1.4-2.677 1.427.047.048.064.069.095.108.04-.02 1.15-.618 2.67-1.424.313.382.614.775.906 1.177-1.552.763-2.636 1.3-2.703 1.331.05.07.067.095.102.15.044-.025 1.137-.562 2.7-1.333.12.166.227.342.34.512a510.12 510.12 0 0 1-2.893 1.088c.026.035.035.052.056.078l2.889-1.092c.152.232.313.455.456.692.02.03.032.054.046.08l-2.94.981a.88.88 0 0 1 .079.101c.042-.012 1.27-.424 2.927-.977.253.421.492.847.723 1.28-.358.274-.8.338-1.085.393-.382.074-1.446.078-1.734.144-.28.072-.067.358-.067.358s.283.012 1.197-.012c.667-.02 1.413-.053 1.943-.384.068.134.138.275.204.415-.481.126-2.77.73-2.977.786.048.093.08.165.118.237.093-.026 1.674-.434 2.974-.771.245.529.47 1.058.675 1.596-1.591.292-2.954.537-3.053.555.025.066.036.096.06.154.062-.018 1.442-.265 3.051-.55.065.182.13.359.193.542l-3.076.462c.023.07.036.1.055.155l3.077-.466c.2.604.38 1.212.538 1.836l.179-.046a23.907 23.907 0 0 0-.53-1.814l1.417-.213c.254.786.473 1.58.651 2.389-.98.067-2.051.137-2.925.194-.166-.677-.359-1.35-.587-2.018l-.356.119c.22.638.403 1.278.563 1.924-.808.058-1.387.097-1.455.1l.105.405c.053 0 .655-.036 1.444-.083.132.573.241 1.136.328 1.716a111.39 111.39 0 0 0-1.225-.034c.012.064.015.093.022.149.025 0 .49.006 1.22.03.085.61.146 1.22.184 1.838-.86-.1-1.434-.166-1.486-.175 0 .073.003.102.005.158.04.009.62.078 1.487.18.038.687.047 1.37.022 2.055 0 .009 0 .016-.003.017-.883-.178-1.447-.293-1.493-.3a3.242 3.242 0 0 0-.01.167c.034.006.596.116 1.491.295-.019.485-.055.973-.104 1.458-.152 0-.3.001-.447.006-.992.03-1.297.057-1.297.057s-.209.329.1.381c.01.003.026.003.037.006 0 .025-.006.05-.011.078.035.012.6.188 1.483.468l-.043.32c-.874-.306-1.44-.507-1.484-.52-.012.065-.012.098-.026.152.032.012.605.215 1.48.522-.084.476-.176.95-.29 1.42-.863-.35-1.421-.576-1.465-.597-.018.068-.024.101-.04.16.031.013.592.242 1.466.594-.09.355-.175.713-.28 1.066l.359.1c.099-.338.18-.68.266-1.02.368.147.777.317 1.218.492-.165.66-.358 1.31-.582 1.948-1.676-.776-2.937-1.357-2.994-1.383-.038.104-.09.267-.114.358.039.017 1.296.617 2.971 1.416-.359.971-.774 1.917-1.246 2.835-1.553-1.036-2.722-1.82-2.777-1.857-.027.052-.038.078-.064.127.043.024 1.218.812 2.776 1.854a23.6 23.6 0 0 1-1.253 2.132l-1.012-.82c.256-.39.497-.783.733-1.193l-.33-.177c-.219.384-.45.758-.692 1.133-.684-.555-1.24-1.012-1.306-1.063a4.5 4.5 0 0 0-.088.137l.952.774.016.01c.107.09.22.182.338.276-.52.788-1.081 1.55-1.694 2.272-.447-.45-.848-.845-.985-.99 0 0-.27.26-.301.296.025.023.43.444.99 1.033a22.82 22.82 0 0 1-1.857 1.88c-.63-.813-1.046-1.349-1.074-1.377-.052.041-.072.058-.119.097.023.036.438.566 1.074 1.386-.218.19-.432.384-.656.564l.24.29c.217-.185.435-.376.645-.563 2.542 3.264 7.93 10.17 8.03 10.301.008-.006.064-.058.122-.101-.076-.1-3.489-4.473-6.16-7.906a28.423 28.423 0 0 0 2.116-2.113c.345.361.675.702.95.99a26.87 26.87 0 0 1-2.145 2.133l.187.21a28.582 28.582 0 0 0 2.152-2.139c.383.397.645.67.665.692.049-.045.162-.14.162-.14s.108.108.267.275a29.755 29.755 0 0 1-1.975 2.013l.093.099a29.648 29.648 0 0 0 1.98-2.016c.302.309.72.737 1.03 1.058-.63.7-1.289 1.37-1.982 2.002l.065.07c.69-.636 1.35-1.31 1.981-2.004.181.184.313.317.34.347.005-.011.043-.04.075-.076-.023-.025-.164-.165-.34-.353l.1-.11c.185.184.325.32.354.358.038-.043.08-.08.08-.08-.013-.01-.143-.14-.363-.36.321-.36.638-.72.94-1.096a31.94 31.94 0 0 0 2.662-3.85l-.081-.048a31.821 31.821 0 0 1-2.654 3.835c-.3.375-.613.737-.929 1.096-.26-.26-.617-.622-1.041-1.043.089-.108.191-.204.275-.303l-.105-.094c-.087.102-.18.197-.265.296-.301-.3-.625-.627-.964-.967.794-.905 1.53-1.87 2.205-2.871l-.233-.156a27.145 27.145 0 0 1-2.17 2.826 65.363 65.363 0 0 1-.974-.975 25.956 25.956 0 0 0 1.946-2.524c.082.068.14.118.158.127.038-.049.058-.07.099-.124a3.077 3.077 0 0 1-.172-.14 26.14 26.14 0 0 0 1.35-2.273c.832.559 1.703 1.14 2.53 1.691-.111.208-.226.42-.345.622l.12.068c.118-.195.23-.405.342-.611 2.119 1.416 3.92 2.618 3.986 2.661a.835.835 0 0 0 .07-.12l-3.99-2.663a29.583 29.583 0 0 0 1.587-3.452c2.32 1.107 4.308 2.055 4.38 2.087.024-.05.03-.076.053-.126-.1-.045-2.747-1.307-4.383-2.089.02-.059.046-.123.069-.181.399.185.86.4 1.334.615l-.046.121.09.03c.011-.034.026-.07.04-.111 1.423.663 2.902 1.347 2.988 1.385l.045-.128c-.046-.024-1.309-.601-2.984-1.383.268-.734.512-1.47.725-2.219 2.71 1.11 4.994 2.035 5.078 2.075.022-.076.041-.142.047-.158-.073-.03-2.36-.963-5.084-2.068.17-.598.316-1.204.446-1.804 2.11.739 3.761 1.321 3.829 1.344.02-.066.037-.149.038-.152-.059-.019-1.716-.6-3.832-1.344.04-.19.079-.38.116-.568 2.802.886 5.177 1.633 5.261 1.661.008-.012.018-.083.036-.156-.07-.024-2.452-.776-5.268-1.662.082-.434.148-.866.213-1.297.418-.2.909-.326 1.184.074.438.639 1.469 1.306 2.007 1.323.332.005.669-.127.95-.302.497-.309.776-.588 1.398-.473.693.13 1.279.504 1.798.97 0 0-.72-2.104-2.196-1.46-1.469.647-2.063 1.284-2.62.474-.556-.817-.876-1.604-2.095-1.19-.128.043-.25.089-.362.128.062-.47.111-.943.15-1.414 3.476.69 6.59 1.309 6.7 1.329.005-.065.01-.095.02-.156-.091-.021-3.214-.645-6.7-1.34.033-.436.055-.878.072-1.32l-.092-.005c-.015.442-.039.875-.074 1.312-.481-.096-.968-.192-1.452-.29.02-.358.05-.713.064-1.075.017-.495.02-.995.012-1.492 1.66.2 2.933.351 3.002.362.008-.066.01-.096.02-.159-.07-.006-1.35-.163-3.022-.363a30.334 30.334 0 0 0-.16-2.466c2.547.065 4.743.126 4.823.129 0-.008-.006-.086-.012-.145-.064 0-2.27-.06-4.822-.126a29.013 29.013 0 0 0-1.108-5.422c.517-.076 1.01-.151 1.463-.22.055.189.12.38.172.576l.091-.028a31.89 31.89 0 0 0-.174-.558l2.486-.372c-.011-.067-.021-.094-.027-.16-.056.01-1.078.163-2.498.374a32.03 32.03 0 0 0-1.21-3.303c.812.055 1.066-.595 1.476-1.27.47-.776 1.052-.22 2.442.3 1.39.515 1.95-1.463 1.95-1.463-.455.46-.98.834-1.61.989-.565.141-.838-.102-1.313-.364-.272-.149-.584-.254-.892-.228-.492.046-1.41.71-1.784 1.323-.114.187-.28.25-.466.258a31.477 31.477 0 0 0-1.047-2.102c1.627-.546 2.83-.947 2.895-.97a.866.866 0 0 1-.067-.104c-.047.018-1.254.423-2.887.965a28.107 28.107 0 0 0-.99-1.68l-.076.046c.342.542.666 1.103.976 1.668-.877.289-1.867.62-2.87.956-.17-.303-.352-.6-.539-.894 1.396-.528 2.488-.94 2.535-.96l-.052-.07-2.528.954a23.14 23.14 0 0 0-.528-.802c4.004-1.97 8.636-4.26 8.761-4.32-.038-.065-.055-.092-.085-.149-.098.049-4.756 2.341-8.775 4.324a25.915 25.915 0 0 0-.942-1.29c2.91-1.56 5.855-3.132 5.946-3.18-.035-.051-.053-.068-.082-.112-.072.042-3.027 1.62-5.946 3.178-.3-.38-.612-.759-.933-1.13 1.535-.97 2.803-1.772 2.855-1.799-.003-.006-.037-.047-.067-.084-.04.023-1.314.83-2.857 1.804-.009-.01-.018-.027-.026-.036l-.213.186c-.384.242-.78.494-1.178.743-.383-.426-.78-.843-1.183-1.242.299-.224.502-.376.54-.4a1.36 1.36 0 0 1-.096-.132c-.035.026-.251.183-.56.413-.146-.144-.302-.287-.453-.43.747-.62 1.544-1.287 2.339-1.948.356.342.709.69 1.052 1.055l.1-.095c-.34-.362-.691-.708-1.047-1.049 2.624-2.193 5.122-4.28 5.201-4.35 0 0-.058-.065-.102-.111-.064.053-2.577 2.15-5.212 4.357a30.445 30.445 0 0 0-3.077-2.546c.194-.29.183-.663.18-.898 0-.163-.025-.462-.005-.761.537.365 1.068.743 1.58 1.14l.056-.072a35.233 35.233 0 0 0-1.626-1.174c.045-.37.18-.717.566-.764.737-.08 1.757-.66 2.007-1.1.154-.28.191-.618.171-.936-.04-.558-.154-.922.223-1.392.418-.525.99-.854 1.622-1.081 0 0-2.104-.334-2.21 1.195-.113 1.533.165 2.315-.77 2.425-.933.109-1.744.03-1.934 1.239-.01.062-.018.12-.025.176-.11-.07-.217-.14-.328-.209.645-.789 1.08-1.32 1.11-1.36-.05-.04-.071-.063-.124-.105-.032.042-.474.584-1.121 1.38a31.17 31.17 0 0 0-2.385-1.36c.46-.724.778-1.227.804-1.263a.721.721 0 0 0-.098-.052c-.019.023-.331.52-.805 1.258-.675-.34-1.362-.66-2.057-.952 1.372-2.833 2.568-5.3 2.612-5.384-.062-.022-.09-.036-.149-.058l-.692 1.422-.19-.088.667-1.42c-.045-.011-.086-.027-.15-.052-.032.067-1.204 2.544-2.542 5.39a41.692 41.692 0 0 0-1.541-.577 28.7 28.7 0 0 0-1.077-.352l1.394-3.587c-.044-.012-.074-.024-.126-.036a527.6 527.6 0 0 0-1.398 3.591 31.465 31.465 0 0 0-4.44-.977c.552-2.544 1.005-4.644 1.023-4.72a1.985 1.985 0 0 0-.155-.022c-.009.068-.466 2.172-1.017 4.725a23.34 23.34 0 0 0-.936-.118c.393-2.186.708-3.913.717-3.984-.061-.006-.09-.008-.152-.016-.01.063-.324 1.793-.721 3.984-.4-.04-.807-.073-1.21-.102.374-3.111.704-5.826.713-5.917-.067 0-.097-.004-.162-.009-.01.085-.335 2.801-.712 5.92-.248-.013-.49-.034-.742-.04l-.003.092c.248.01.488.024.73.039-.11.974-.233 1.984-.353 2.96-.159-.01-.319-.021-.484-.027l-.008.28c.156.005.305.02.459.024-.055.469-.11.924-.166 1.363-.11-.004-.228-.007-.341-.021-.325-.005-.658-.013-.982-.013.014-.304.026-.51.029-.545-.064-.007-.095-.007-.161-.01-.004.038-.013.246-.032.555-.777.008-1.554.047-2.328.121-.075-1.087-.151-2.171-.208-3.013a29.102 29.102 0 0 1 3.788-.111l.007-.14a30.216 30.216 0 0 0-3.8.112c-.06-.843-.1-1.415-.106-1.458-.09.003-.31.016-.31.016l-.133-1.63c-.065 0-.098.006-.16.006.004.062.115 1.4.252 3.11-.552.055-1.101.135-1.65.226-.37-2.808-.703-5.318-.71-5.396-.056.008-.076.016-.129.023.011.076.342 2.589.716 5.397-.244.04-.488.078-.734.124-.455-2.523-.852-4.72-.864-4.808-.065.012-.094.019-.158.03.014.084.409 2.284.867 4.817-.57.114-1.139.246-1.7.398l-.28-1.084-.158.037.283 1.087c-.384.101-.767.216-1.148.334-.036-.33.094-.746.248-1.372.281-1.127-.511-1.293-1.34-1.666-.832-.369-.278-.977.195-2.365.47-1.38-1.615-1.709-1.615-1.709.502.39.912.85 1.105 1.44.177.526-.066.811-.317 1.292-.139.268-.234.578-.194.871.072.467.809 1.275 1.465 1.57.656.294.067 1.262-.079 1.605-.146.338-.481 1.013.361 1.424.843.403.61.617.4 1.288-.211.67.189 1.691.84 1.97.111.042.203.1.284.17-.393.12-.787.259-1.175.403-.32-.818-.683-1.753-1.066-2.728.045-.016.092-.038.137-.055l-.093-.263a2.649 2.649 0 0 0-.144.059c-.356-.91-.724-1.86-1.08-2.77.195-.07.383-.146.572-.214l-.03-.09c-.196.073-.382.15-.577.218-1.137-2.912-2.126-5.457-2.16-5.535-.072.017-.137.052-.15.055.03.08 1.024 2.624 2.16 5.538-.36.142-.722.282-1.08.434-.67-1.47-1.172-2.55-1.191-2.595a.062.062 0 0 0-.015.003l-.11.046c.024.047.53 1.144 1.199 2.602-.109.043-.212.093-.322.137-.7-1.445-1.224-2.536-1.25-2.58-.05.025-.068.03-.122.053.022.052.554 1.145 1.252 2.581-.532.236-1.062.487-1.577.756a5422.728 5422.728 0 0 1-2.893-5.174l-.126.074-.012.007 2.887 5.168c-.382.202-.763.408-1.133.622-1.94-3.076-3.719-5.887-3.77-5.969-.058.035-.122.07-.122.07s-.015.015-.026.018c.055.09 1.83 2.902 3.769 5.972-.754.441-1.492.917-2.21 1.426-1.477-1.834-2.656-3.31-2.7-3.363-.009.012-.021.022-.021.022l-.095.062c.046.058 1.223 1.529 2.697 3.36a32.577 32.577 0 0 0-2.297 1.803l.063.07a31.747 31.747 0 0 1 2.292-1.798l1.865 2.324c-.475.332-.939.687-1.397 1.052a193.28 193.28 0 0 0-1.283-1.387l-.137.112-.1.084c.022.024.566.598 1.311 1.365a26.73 26.73 0 0 0-1.595 1.396l.19.201c.515-.491 1.048-.95 1.597-1.394.295.31.617.644.949.986a28.086 28.086 0 0 0-2.203 1.994c-.768-.626-1.581-1.287-2.347-1.908a26.904 26.904 0 0 1 1.57-1.516l-.094-.108a33.18 33.18 0 0 0-1.583 1.532 1173.052 1173.052 0 0 1-3.456-2.816l-.1.127c.064.055 1.61 1.312 3.444 2.808a27.681 27.681 0 0 0-1.49 1.672 4625.254 4625.254 0 0 0-6.16-4.141.287.287 0 0 0-.024.032s-.038.047-.075.096c.087.059 3.088 2.07 6.154 4.132-.216.27-.425.546-.631.818-.324-.41-.852-.338-1.145-.303-.37.033-1.474.3-1.625-.404-.152-.703-.804-1.64-1.255-1.836-.285-.13-.62-.13-.922-.08-.536.092-.879.238-1.369-.081-.546-.36-.92-.882-1.198-1.464 0 0-.124 2.061 1.364 2.022 1.49-.04 2.227-.381 2.416.512.19.894.191 1.683 1.382 1.757 1.017.055 1.52.017 1.858.528-.342.487-.675.97-.989 1.476-2.16-1.052-4.203-2.044-5.096-2.478-.013.026-.021.048-.021.048l-.116.241c.599.282 2.76 1.305 5.102 2.402-.295.478-.575.96-.84 1.446-2.758-1.021-5.23-1.93-5.3-1.96-.024.047-.038.071-.066.115.083.034 2.55.945 5.302 1.963-.2.376-.395.75-.582 1.13a3047.547 3047.547 0 0 0-6.97-2.343c-.03.06-.039.086-.066.151.11.037 3.631 1.216 6.968 2.34-.046.096-.089.195-.135.298-3.37-1.069-6.917-2.183-7.016-2.215l-.062.15c.105.032 3.507 1.105 7.01 2.212-.093.201-.196.404-.284.611l.13.053c.087-.208.192-.415.288-.625l2.896.918c-.293.611-.55 1.235-.795 1.867-.447-.108-.9-.222-1.343-.327.188-.505.385-.998.605-1.49l-.255-.114c-.229.508-.429 1.02-.624 1.536a561.822 561.822 0 0 1-2.908-.7c.259-.718.534-1.423.845-2.12l-.085-.035c-.31.7-.592 1.414-.85 2.132-.948-.23-1.585-.383-1.617-.387l-.028.15v.006c.036.007.661.158 1.59.38-.152.432-.294.868-.426 1.304-3.012-.504-5.583-.938-5.661-.947-.016.056-.027.083-.042.154.091.013 2.654.443 5.65.947-.111.378-.215.762-.315 1.14-2.722-.324-4.973-.594-5.055-.607a1.383 1.383 0 0 1-.02.167c.082.005 2.327.277 5.032.598a31.635 31.635 0 0 0-.858 5.192c-.532-.37-1.255-.646-1.643-.596-.312.035-.605.204-.842.41-.424.358-.643.664-1.24.638-.664-.025-1.26-.288-1.81-.65 0 0 .966 1.86 2.248 1.051 1.284-.809 1.745-1.488 2.38-.812.302.328.556.657.859.849-.01.15-.025.308-.028.464-.02.425-.022.85-.021 1.275-2.11.314-3.741.558-3.812.567.01.066.017.096.026.165.068-.013 1.694-.258 3.788-.573.022 2.265.29 4.507.799 6.697-1.302.508-2.226.867-2.261.88.004.02.021.08.032.126.048-.016.963-.376 2.256-.879.083.346.17.688.264 1.036a1947.893 1947.893 0 0 0-5.98 2.514c.016.056.027.089.05.157.097-.038 2.847-1.198 5.973-2.511.068.241.135.495.208.74.226.74.484 1.477.762 2.195l.086-.03c-.28-.72-.533-1.458-.758-2.194-.074-.242-.14-.496-.212-.746.45-.188.902-.378 1.358-.575.105.382.214.767.332 1.144-.617.342-1.025.565-1.045.579.011.045.02.074.03.11.028-.019.432-.245 1.05-.58.18.558.378 1.117.591 1.669l-3.504 2.078c.02.05.028.075.051.127.06-.035 1.6-.95 3.5-2.074v.003l.132-.052c-.007-.009-.009-.017-.012-.026.39-.235.794-.47 1.206-.713.049.13.088.263.14.396.144.362.307.719.465 1.073a662.74 662.74 0 0 0-2.263 1.578l.042.096 2.262-1.576c.124.273.257.546.386.809-.155.027-.359.013-.669-.056-1.004-.244-1.268.557-1.419.941-.153.383-.448 1.595-1.215 1.39-.765-.205-2.011-.037-2.436.31-.267.213-.433.54-.537.86-.186.574-.211.979-.77 1.295-.628.365-1.33.464-2.045.443 0 0 1.964 1.16 2.676-.321.715-1.477.749-2.37 1.72-2.11.97.265 1.748.667 2.417-.467.667-1.132.84-1.65 1.84-1.555.168.017.453.01.756-.09.102.193.21.386.319.574a3889.24 3889.24 0 0 1-4.824 3.526l.075.115c.076-.056 2.393-1.752 4.813-3.521.365.644.748 1.291 1.16 1.914l-3.57 3.1.19.201-.53.465c.017.017.177.178.19.196.34-.305 1.485-1.337 2.85-2.572a30.088 30.088 0 0 0 3.546 4.184l.1-.1a29.558 29.558 0 0 1-3.54-4.177c.334-.3.68-.61 1.03-.928a28.286 28.286 0 0 0 3.89 4.53l.19-.206c-.408-.378-.8-.772-1.179-1.176.16-.207.476-.598.878-1.081a27.587 27.587 0 0 0 1.62 1.614L19 56.87a28.352 28.352 0 0 1-1.624-1.617c.561-.694 1.244-1.532 1.842-2.269a22.639 22.639 0 0 0 1.543 1.564c-2.249 3.167-6.696 9.445-6.77 9.549l.118.092c.088-.13 4.526-6.383 6.765-9.536.266.241.536.487.814.721l.24-.29a16.73 16.73 0 0 1-.838-.743c.618-.871 1.025-1.446 1.047-1.475a2.566 2.566 0 0 1-.11-.101l-1.051 1.48a21.7 21.7 0 0 1-1.517-1.551c.62-.759 1.093-1.344 1.13-1.39-.037-.044-.06-.066-.107-.121-.05.06-.52.641-1.131 1.388-.51-.576-1-1.173-1.45-1.798-.21-.29-.405-.59-.604-.889l1.257-1.133c-.047-.068-.126-.181-.185-.269-.05.044-.58.505-1.266 1.097a23.822 23.822 0 0 1-.904-1.583c.83-.608 1.381-1.013 1.406-1.029l-.063-.119c-.04.027-.584.421-1.408 1.03-.002-.01-.009-.017-.009-.022.267-.203.522-.426.76-.646.757-.678.976-.905.976-.905s-.052-.394-.334-.234c-.189.113-.645.523-1.025.85-.203.144-.415.301-.622.456-.155-.325-.31-.648-.45-.975l-.339.148c.145.344.307.684.47 1.018-.338.18-.766.318-1.247.18-.034-.01-.073-.01-.105-.015a24.828 24.828 0 0 1-.377-.836 1200.68 1200.68 0 0 0 2.843-1.978c-.013-.034-.021-.06-.035-.1-.056.034-1.333.926-2.85 1.98a27.523 27.523 0 0 1-.483-1.253c1.644-.98 2.906-1.726 2.947-1.752a2.268 2.268 0 0 1-.043-.129c-.056.036-1.316.782-2.946 1.746-.11-.313-.219-.634-.315-.955-.062-.2-.117-.399-.169-.602 1.618-.89 2.973-1.64 3.007-1.66-.003-.044-.009-.066-.016-.112-.058.026-1.411.777-3.021 1.67l-.16-.635 3.096-1.305c-.014-.058-.023-.088-.037-.163-.07.028-1.333.561-3.098 1.303-.069-.285-.133-.581-.19-.876 1.75-.678 3.092-1.2 3.135-1.22-.011-.046-.013-.068-.022-.125-.063.023-1.398.539-3.14 1.22a26.183 26.183 0 0 1-.352-2.636c.318-.085.79-.21 1.28-.336.044.652.113 1.305.214 1.949l.368-.059a22.152 22.152 0 0 1-.217-1.989c.778-.203 1.495-.395 1.568-.414-.003-.075-.011-.156-.017-.263-.083.027-.745.195-1.57.41a22.223 22.223 0 0 1-.031-1.55c.905-.164 1.524-.276 1.566-.282.003-.06.003-.096.003-.166-.059.008-.675.122-1.564.284 0-.14-.005-.278.003-.415 0-.024.005-.052.005-.076.927-.14 1.532-.233 1.569-.24.001-.045.004-.111.004-.16-.05.008-.649.102-1.564.234l.017-.337c.495.05 1.042-.037 1.544-.13.92-.162 1.204-.23 1.204-.23s.15-.337-.146-.343c-.3-.016-1.365.204-1.762.214-.21 0-.502.019-.799-.05.02-.255.04-.52.072-.772.902-.062 1.52-.105 1.558-.105.014-.095.03-.259.05-.39-.066.008-.686.036-1.551.091.098-.733.232-1.462.399-2.186.728.043 1.44.08 1.522.083.008-.055.019-.083.035-.158-.109-.004-.801-.04-1.518-.08.094-.406.209-.81.33-1.216.887.105 1.454.174 1.487.179.016-.053.025-.087.048-.158-.045 0-.608-.07-1.487-.176.082-.261.164-.515.251-.771.877.145 1.431.24 1.468.246.018-.058.029-.085.052-.158a73.436 73.436 0 0 1-1.461-.243c.062-.184.125-.365.195-.545l-.344-.136c-.08.208-.152.41-.225.619-.802-.131-1.804-.303-2.908-.487.108-.321.233-.644.352-.96 2.404.576 4.593 1.103 4.651 1.118.009-.055.019-.082.035-.158-.075-.016-2.242-.539-4.634-1.11.246-.627.504-1.251.795-1.862.477.151.932.3 1.367.434a.078.078 0 0 0-.016.025l.166.08a.367.367 0 0 1 .028-.052l2.984.944c.05-.097.164-.323.23-.447-.066-.027-1.267-.43-2.957-.996.173-.335.348-.663.535-.99a349.37 349.37 0 0 0 2.928 1.08c.026-.04.04-.064.07-.114L15.23 24.91c.081-.128.151-.26.23-.388 1.269.549 2.749 1.187 2.838 1.23.03-.053.047-.079.087-.14-.121-.052-1.581-.682-2.842-1.23.108-.178.227-.35.338-.528 1.22.576 2.17 1.023 2.533 1.191-.094.1-.188.2-.275.301l.4-.422zm41.009 15.322a8.36 8.36 0 0 1-.043.355c-.503-.162-.894-.282-1.15-.363.355.004.84-.005 1.193.008zM15.823 23.605c-.4-.195-.833-.403-1.28-.617.304-.464.619-.92.95-1.362.115.123.208.303.249.57.051.346.223.618.468.841-.13.189-.26.378-.387.568zm-.452.702c-.524-.226-.994-.428-1.307-.565.116-.192.237-.385.359-.578.45.218.883.42 1.292.613-.117.174-.234.349-.344.53zm-.313.539c-.427-.155-.88-.323-1.347-.491.09-.16.181-.318.272-.473l1.307.567c-.079.13-.156.267-.232.397zm-.605 1.114c-.43-.15-.882-.298-1.355-.458.128-.257.257-.514.391-.768.05-.088.107-.177.155-.266.467.17.923.341 1.346.498-.183.327-.364.655-.537.994zm1.37.632l-.064.197-1.312-.415c.035-.069.07-.138.112-.21.778.26 1.264.428 1.264.428zm-1.557-.276c-.394-.124-.859-.27-1.367-.428.041-.08.084-.158.125-.24.5.17.96.321 1.353.455-.033.072-.076.145-.11.213zm-1.496-.474c-.883-.273-1.882-.589-2.907-.911.05-.1.093-.197.138-.299l2.886.972c-.037.08-.085.159-.117.238zm-2.122-2.479c.957.35 1.941.713 2.862 1.058-.047.078-.097.159-.144.243-.143.264-.268.529-.403.797-.922-.31-1.91-.642-2.89-.973.182-.383.381-.757.575-1.125zm.899-1.548c.92.43 1.862.875 2.749 1.293-.122.196-.242.384-.36.581-.135-.064-.228-.1-.248-.113-.027.06-.039.09-.061.152.017.003.103.043.226.098-.092.158-.183.319-.276.477-.927-.345-1.907-.706-2.864-1.058.264-.484.547-.96.834-1.43zm1.071-1.618c.03.057.059.106.085.174.134.369.717 1.233 1.875 1.023.185-.03.542-.073.816.132a22.08 22.08 0 0 0-.976 1.4c-.878-.43-1.819-.885-2.739-1.331.303-.473.614-.942.94-1.398zm1.165-1.525c.86.576 1.722 1.153 2.525 1.696-.212.254-.423.507-.628.77-.362-.309-.82-.52-1.224-.522-.723 0-.986.157-1.211-.76a1.244 1.244 0 0 0-.132-.324c.22-.29.439-.58.67-.86zm1.588-1.783c.765.62 1.577 1.28 2.343 1.906-.456.466-.885.951-1.303 1.45-.364-.248-1.341-.908-2.522-1.697.472-.575.97-1.125 1.482-1.66zm2.225 4.341c-.37.437-.72.891-1.06 1.352a1.27 1.27 0 0 1-.29-.597c-.051-.265-.224-.534-.46-.755.207-.266.422-.525.637-.786.413.275.805.54 1.173.786zm.226-2.345l1.105.899c-.416.417-.813.85-1.196 1.291-.598-.4-1.08-.73-1.138-.768-.012.025-.027.038-.027.038s-.012-.006-.037-.025c.414-.495.843-.974 1.293-1.435zm2.305-2.096l2.012 2.096a22.005 22.005 0 0 0-1.944 1.725c-.304-.25-.644-.526-1.011-.826.337-.336.686-.664 1.048-.989l-.125-.136c-.368.326-.719.665-1.067 1.012-.347-.286-.721-.587-1.104-.9.695-.7 1.426-1.363 2.191-1.982zm2.554 1.683c-.128.1-.269.192-.395.296-.57-.614-1.277-1.38-1.966-2.125.154-.123.317-.247.474-.364.479.553 1.25 1.45 1.887 2.193zm-3.39-2.942c.45-.36.91-.71 1.377-1.042 1.047 1.302 2.057 2.554 2.77 3.445-.213.142-.42.293-.629.444-.639-.743-1.41-1.64-1.887-2.198.095-.07.184-.142.28-.215l-.084-.11c-.096.07-.19.15-.288.223-.206-.242-.344-.406-.37-.428-.046.038-.07.06-.121.1.028.03.16.189.365.425-.162.12-.323.244-.479.366l-.934-1.01zm-.543-3.664c.716-.506 1.45-.98 2.205-1.421.527.838 1.07 1.69 1.59 2.518-.458.266-.907.55-1.348.839-.49-.657-.837-1.125-.872-1.17-.05.04-.073.058-.125.095.031.046.378.51.861 1.167-.15.098-.3.186-.447.29a332.697 332.697 0 0 0-1.864-2.318zm3.483-2.13c.476.854.972 1.737 1.449 2.602-.333.172-.661.352-.986.54-.524-.828-1.065-1.682-1.59-2.524.367-.215.744-.42 1.127-.619zm1.712-.833l1.3 2.678c-.479.215-.952.443-1.417.684-.482-.863-.978-1.753-1.455-2.603a33.528 33.528 0 0 1 1.572-.759zm.443-.188c.378.824.81 1.762 1.237 2.695-.084.035-.172.081-.257.118a919.64 919.64 0 0 1-1.299-2.68c.104-.042.21-.091.319-.133zm1.189-.484c.36.91.723 1.851 1.083 2.768-.304.117-.61.236-.912.36-.434-.94-.862-1.88-1.24-2.696.352-.156.711-.302 1.069-.432zm-.089 3.546c.086-.036.166-.078.251-.113a6448.99 6448.99 0 0 0 1.85 4.014 1.247 1.247 0 0 1-.176.071c-.409-.84-1.15-2.378-1.925-3.972zm-1.526.726c.462-.234.932-.457 1.406-.668.848 1.743 1.635 3.369 1.926 3.969-.167.075-.338.141-.503.221-.231.105-.454.215-.677.329-.549-.977-1.322-2.36-2.152-3.85zm-1.121.612c.322-.185.646-.362.979-.533.828 1.483 1.6 2.866 2.15 3.846-.263.132-.517.27-.776.414-.591-.94-1.436-2.278-2.353-3.727zm1.008 4.542c-.1.064-.191.13-.29.197-.715-.897-1.723-2.146-2.766-3.455.137-.097.287-.19.432-.285a2366.07 2366.07 0 0 1 2.624 3.543zm-2.49-3.631c.435-.29.883-.563 1.337-.826.913 1.452 1.755 2.786 2.348 3.731-.36.2-.715.413-1.064.64-.77-1.042-1.836-2.491-2.62-3.545zm6.473 2.192c-.018.006-.09.04-.159.069a8.066 8.066 0 0 1-.096-.198c.054-.028.11-.049.166-.07.036.08.068.145.09.2zm-.008-2.232c-.016 0-.031.009-.042.01l.064.177a.293.293 0 0 0 .047-.02c.173.448.333.856.472 1.214-.22.084-.44.171-.653.262-.489-1.054-1.166-2.53-1.85-4.014.298-.124.6-.244.903-.355.375.97.74 1.9 1.059 2.726zm1.486-.318c.272.308.36.703.43.955.012.066.028.153.043.259-.424.13-.846.27-1.27.43-.137-.358-.296-.764-.469-1.208.42-.16.841-.305 1.266-.436zm-.544-2.004c.545-1.03-.144-1.758-.473-1.967-.266-.178-.408-.35-.466-.553.38-.125.77-.232 1.155-.338.07.263.117.46.117.46l-.108.027c.03.107.564 2.13 1.05 3.967-.092.018-.174.048-.258.071a1.308 1.308 0 0 0-.56-.41c-.886-.34-.589-.996-.457-1.257zm2.058-3.297l.537 2.976c-.48.095-.959.2-1.426.329l.034.132c.467-.123.942-.226 1.418-.323.084.481.17.95.251 1.39-.454.098-.906.203-1.352.319-.395-1.518-.852-3.28-1.147-4.424.556-.15 1.12-.284 1.685-.399zm.885-.16c.13.996.268 2.024.398 2.993-.197.035-.393.073-.586.107-.175-.963-.362-1.992-.539-2.977.241-.04.484-.08.727-.123zm1.769-.25c.074.946.159 1.998.244 3.01-.5.057-.997.13-1.49.215l-.395-2.998c.542-.088 1.09-.167 1.64-.227zm.374 4.562c-.48.057-.951.126-1.415.205-.06-.442-.124-.92-.186-1.406a24.47 24.47 0 0 1 1.484-.211c.036.49.074.963.117 1.412zm-2.023.508c.169-.031.335-.067.505-.097.064.47.12.912.17 1.295-.15.022-.296.047-.448.072-.068-.377-.146-.805-.227-1.27zm-.286-1.582c.191-.035.386-.074.582-.106.063.488.129.966.184 1.408-.171.03-.34.061-.513.097-.082-.443-.167-.912-.253-1.399zm-1.126 3.248c-.061.016-.123.038-.18.053-.048-.447-.132-.899-.343-1.251.061-.019.125-.042.193-.058.117.444.226.873.33 1.256zm-.088-1.322c.444-.12.891-.22 1.341-.31.08.462.161.891.228 1.27-.416.086-.832.18-1.241.29-.101-.374-.21-.8-.328-1.25zm3.641.641c-.447.049-.894.111-1.341.187-.047-.38-.108-.816-.17-1.291.465-.08.932-.149 1.402-.205.042.478.075.918.11 1.31zm2.4-1.46c-.023.444-.045.892-.07 1.305-.658.01-1.31.047-1.956.112l-.088-1.298a23.774 23.774 0 0 1 2.114-.118zm.083-1.602c-.017.38-.044.882-.072 1.416-.718.008-1.436.053-2.141.122-.03-.46-.064-.937-.098-1.42.769-.074 1.54-.11 2.311-.118zm.165-.004c.326 0 .656.004.984.016.112.006.222.016.333.024l-.17 1.406c-.073-.004-.14-.01-.216-.015-.336-.011-.672-.011-1.006-.011.03-.534.053-1.036.075-1.42zm1.478.045c.308.02.617.033.923.06-.091.49-.174.96-.254 1.406-.28-.027-.562-.038-.84-.056l.17-1.41zm.175-1.502c.343.022.684.042 1.018.073l-.244 1.35c-.31-.03-.622-.042-.934-.058.053-.443.107-.896.16-1.365zm.393-3.243c.404.031.809.06 1.208.105-.167.93-.35 1.944-.532 2.939a19.904 19.904 0 0 0-1.031-.077c.118-.98.242-1.988.355-2.967zm1.362.118c.312.033.623.072.932.119-.204.94-.417 1.937-.628 2.914-.277-.036-.556-.063-.838-.09.184-1.001.364-2.008.534-2.943zm1.083.136c1.498.217 2.977.541 4.425.976l-1.08 2.78a27.48 27.48 0 0 0-1.563-.401c.365-1.144.634-2.004.648-2.046a.762.762 0 0 1-.08-.02c-.017.037-.296.926-.65 2.049-.068-.01-.13-.027-.197-.04.34-1.127.608-2.025.62-2.067 0 0-.044-.015-.079-.02-.012.031-.271.91-.621 2.07a28.078 28.078 0 0 0-2.05-.367c.208-.976.423-1.973.627-2.914zm4.553 1.007c.365.112.725.23 1.082.35.52.177 1.027.374 1.528.572-.415.89-.85 1.807-1.268 2.7a28.518 28.518 0 0 0-2.424-.84c.371-.947.744-1.903 1.082-2.782zm-1.095 4.504c.148-.34.251-.574.266-.615a3.25 3.25 0 0 0-.146-.06c-.015.035-.123.28-.272.626-.146-.04-.289-.078-.435-.122l.5-1.288c.815.24 1.612.515 2.405.83-.203.422-.395.84-.585 1.24-.57-.22-1.149-.431-1.733-.61zm-.055.131c.584.177 1.16.386 1.726.608-.211.45-.418.881-.606 1.292-.558-.22-1.116-.421-1.687-.592.212-.487.412-.947.567-1.308zm-.582-.17c.142.04.286.078.427.123L43.79 13.4c-.127-.036-.255-.069-.38-.1.162-.421.34-.87.517-1.329zm-1.586-.403c.49.106.976.227 1.457.363-.18.465-.359.912-.52 1.328a29.24 29.24 0 0 0-1.369-.338c.143-.44.289-.898.432-1.353zm-.655 1.31c.126-.421.27-.892.41-1.369.053.015.109.027.16.04l-.427 1.358c-.047-.008-.096-.023-.143-.03zm-.053.176c.047.01.09.024.137.032l-.157.494c-.038-.012-.066-.026-.079-.032-.07.233-.194.624-.314 1.005l-.03-.01s.184-.624.443-1.489zm-1.539-1.877c.649.083 1.288.182 1.923.316-.14.46-.275.917-.413 1.364-.596-.118-1.2-.213-1.81-.295.096-.434.195-.899.3-1.385zm-.15-.019c-.104.487-.207.95-.297 1.39-.244-.03-.488-.061-.73-.082.081-.439.163-.91.254-1.4.26.024.516.056.774.092zm.032-.138c-.26-.033-.518-.063-.782-.093.082-.436.162-.89.245-1.35.28.03.55.058.827.093-.1.458-.196.913-.29 1.35zm2.081.339a26.693 26.693 0 0 0-1.934-.324c.097-.44.196-.889.295-1.346.683.092 1.356.216 2.028.355-.12.418-.255.86-.389 1.315zm.742-1.237a27.66 27.66 0 0 1 1.547.392c-.167.437-.337.868-.499 1.284a25.759 25.759 0 0 0-1.46-.362c.142-.451.284-.899.412-1.314zm-.496 1.291c-.056-.012-.109-.025-.165-.031.13-.446.266-.892.39-1.318.065.011.128.027.19.038-.134.42-.278.869-.415 1.311zm6.416-2.793c.693.291 1.374.607 2.045.953-.657 1.03-1.6 2.518-2.496 3.921a25.74 25.74 0 0 0-1.578-.709c.197-.403.399-.815.61-1.242.395.164.791.34 1.18.522l.12-.248c-.39-.188-.785-.364-1.184-.521.43-.886.873-1.801 1.303-2.676zm2.146 1.003c.81.413 1.6.868 2.374 1.354-.283.342-.596.73-.93 1.141a31.528 31.528 0 0 0-1.779-1.028l-.067.124c.6.318 1.184.657 1.754 1.015-.608.752-1.28 1.572-1.929 2.36a31.36 31.36 0 0 0-1.557-.874c-.117-.06-.242-.114-.36-.174.762-1.197 1.78-2.794 2.494-3.918zm2.509 1.443c.127.076.248.156.37.237-.105.72-.16 1.16-.479 1.436-.273-.181-.546-.363-.819-.533.334-.415.65-.8.928-1.14zm.458 2.241a29.97 29.97 0 0 1 3.062 2.527c-.788.663-1.59 1.33-2.336 1.952a26.751 26.751 0 0 0-1.566-1.339c.88-.927 1.606-1.69 1.634-1.717-.049-.05-.177-.183-.195-.205-.038.041-.917 1.009-1.626 1.78-.29-.22-.58-.437-.876-.647.201-.282.34-.598.372-.883.073-.74-.062-1.027.897-1.168.303-.04.503-.155.634-.3zm-4.442 4.165c.236-.331.61-.933 1.33-1 .402-.039.816-.334 1.122-.706.294.207.582.425.87.64l-.79.866s-.598.65-1.174 1.284c-.463-.35-.938-.669-1.424-.986.023-.035.047-.073.066-.098zm2.1-2.65c.008.12.013.315-.044.504-.331-.22-.67-.444-1.016-.647.645-.793 1.317-1.614 1.927-2.364.261.164.52.34.775.51a1.42 1.42 0 0 1-.407.177c-.386.105-1.327.615-1.235 1.82zm-1.15-.035c.36.216.714.444 1.058.676-.113.237-.353.442-.838.47-.777.043-1.254.69-1.629 1.387-.145-.09-.292-.176-.442-.262.51-.628 1.165-1.427 1.852-2.27zm-3.008.388l.96-1.516c.126.06.252.117.374.182a24.65 24.65 0 0 1 1.535.86c-.69.846-1.342 1.647-1.853 2.277a24.78 24.78 0 0 0-1.59-.847c.298-.467.57-.887.6-.94-.009-.008-.026-.016-.026-.016zm5.325 2.876c-.07.064-.642.555-1.22 1.054-.182-.15-.364-.302-.549-.442.598-.626 1.337-1.409 2.01-2.114.532.416 1.047.863 1.553 1.328l-2.246 1.875c-.212-.184-.424-.368-.64-.548.567-.489 1.128-.97 1.2-1.035a3.259 3.259 0 0 0-.108-.118zm2.356.349l-1.16.86c-.079-.072-.15-.155-.23-.227l-.125.135c.071.066.134.139.203.208-.357.26-.715.528-1.05.775-.107-.102-.221-.195-.331-.296.606-.506 1.386-1.154 2.244-1.873.15.138.304.277.449.418zm-.082 2.224l-1.11.7c-.34-.36-.689-.72-1.05-1.063.331-.244.69-.511 1.048-.774.381.368.751.746 1.112 1.137zm.194-2.108c.408.4.8.816 1.18 1.238-.416.266-.826.526-1.22.771-.36-.392-.73-.775-1.118-1.148.435-.32.84-.62 1.158-.86zm1.542 1.638l.102-.086c-.091-.108-.185-.205-.276-.31.395-.25.793-.5 1.177-.74.32.366.627.736.926 1.115-.92.491-1.824.975-2.626 1.402a21.926 21.926 0 0 0-.817-.931c.393-.25.806-.509 1.221-.771.097.11.2.213.293.32zm2.949 1.37c-.95.471-1.854.915-2.655 1.311a24.297 24.297 0 0 0-.905-1.188c.802-.431 1.706-.911 2.62-1.404.325.418.64.85.94 1.282zm.615.92l-2.82 1.063c-.116-.177-.229-.355-.35-.526.796-.391 1.703-.839 2.657-1.307.17.255.347.511.513.77zm.581.965l-2.841.953a1.646 1.646 0 0 0-.069-.116c-.14-.226-.295-.44-.444-.663.92-.345 1.92-.726 2.814-1.06.184.29.365.586.54.886zm.813 1.518c-.155-.033-.338-.119-.583-.208-.68-.229-1.78.102-2.132.71a1.186 1.186 0 0 1-.193.247c-.216-.409-.443-.812-.685-1.21.878-.294 1.857-.623 2.845-.952.262.464.513.937.748 1.413zm2.381-2.462c.37.684.717 1.37 1.035 2.08-.407-.036-.876-.317-1.093-.42-.34-.155-1.009-.51-1.52.279-.195.302-.347.456-.496.51a26.359 26.359 0 0 0-.79-1.489c1.003-.333 1.99-.667 2.864-.96zm1.227 2.515c.47 1.08.882 2.198 1.223 3.335-.455.063-.945.139-1.465.214-.074-.225-.148-.453-.22-.685l.255-.044c-.014-.066-.02-.097-.03-.16a6.31 6.31 0 0 0-.28.053 27.688 27.688 0 0 0-.68-1.797l-.128.05c.244.585.463 1.176.665 1.765-.316.063-.798.15-1.365.255-.299-.85-.634-1.675-1.008-2.484a1.73 1.73 0 0 0 .571-.424c.595-.687 1.033-.452 2.176-.134.105.03.199.04.286.056zm-3.61 3.43l1.362-.242c.06.174.133.35.191.53l.26-.088c-.052-.163-.117-.328-.175-.492.572-.104 1.052-.194 1.368-.248l.223.683-3.032.45a29.93 29.93 0 0 0-.198-.592zm-.14.026c.072.195.133.396.2.59l-1.42.215a26.81 26.81 0 0 0-.195-.552c.465-.081.946-.166 1.415-.253zm-.66-2.063c-.166.045-1.384.36-1.553.401-.095-.194-.193-.388-.288-.589.131-.105.248-.23.335-.394.441-.828 1.1-.516 1.356-.375.482.267.908.267 1.264.166.368.791.702 1.6.997 2.431l-2.925.525a25.333 25.333 0 0 0-.673-1.613c.799-.207 1.456-.378 1.532-.4-.018-.061-.023-.09-.044-.152zm5.178 7.728c-1.002-.027-2.053-.052-3.047-.082a25.46 25.46 0 0 0-.321-1.999c.466-.023.789-.043.835-.043a84.888 84.888 0 0 1-.017-.315s1.67-.112 1.855-.126a2.936 2.936 0 0 0-.011-.157c-.08.002-1.31.085-2.765.184a26.096 26.096 0 0 0-.657-2.403c1.002-.148 2.048-.306 3.029-.45a28.993 28.993 0 0 1 1.1 5.391zm.176 2.595c-.952-.118-2.01-.24-3.039-.368a25.464 25.464 0 0 0-.166-2.164c.995.028 2.045.055 3.048.084.084.81.14 1.625.157 2.448zm-.555 4.485a1.94 1.94 0 0 0-1.018-.54c.052-.44.097-.887.125-1.337.449.09.901.184 1.361.267-.045.62-.106 1.238-.194 1.847a1.734 1.734 0 0 1-.274-.237zm-1.234.96c.039-.255.084-.51.126-.77.24-.03.446.089.777.542.15.205.303.329.453.401-.011.086-.022.167-.037.246-.44-.14-.886-.279-1.319-.42zm-.12.637c.033-.156.06-.316.087-.474.44.135.881.276 1.325.415-.035.177-.064.347-.1.52-.432-.152-.876-.31-1.313-.461zm-.025.152c.432.154.87.308 1.306.458-.08.372-.16.752-.254 1.118-.05.201-.109.408-.161.604-.43-.173-.858-.347-1.282-.521.145-.551.274-1.104.39-1.66zm-1.57-.55c.424.148.863.3 1.3.456-.11.552-.239 1.105-.38 1.641-.437-.17-.864-.348-1.279-.516.135-.526.258-1.05.358-1.58zm-1.817.986c.126-.499.236-1 .333-1.508.43.151.882.313 1.352.473a27.63 27.63 0 0 1-.358 1.58c-.464-.194-.906-.37-1.327-.545zm-.044.161l1.333.54a26.488 26.488 0 0 1-.615 1.995c-.002.008-.005.008-.006.017l-1.296-.6c.222-.642.42-1.294.584-1.952zm-1.052-2.168c.375.13.795.276 1.248.438a21.895 21.895 0 0 1-.327 1.497c-.441-.178-.85-.343-1.219-.495.115-.476.217-.954.298-1.44zm3.216-2.568c-.49-.1-.963-.193-1.401-.283 0-.099.012-.204.013-.309l-.184-.007-.014.287c-.474-.095-.9-.184-1.29-.26l.002-.072c.024-.678.016-1.35-.015-2.025.826.098 1.853.22 2.917.352.018.59.026 1.18.003 1.778-.009.176-.022.36-.03.539zm.355 2.136c-.1.057-.26.147-.447.197a24.1 24.1 0 0 0 .22-2.143c.436.087.89.181 1.35.266-.033.46-.077.915-.13 1.375-.304-.003-.636.078-.993.305zm-.152.831a1.7 1.7 0 0 0 .595-.11c.177-.074.318-.14.45-.193-.034.202-.072.403-.107.602-.316-.102-.628-.198-.938-.299zm-.403.047c.423.131.868.27 1.313.413-.03.154-.058.313-.089.467-.438-.154-.873-.304-1.297-.456.026-.142.046-.282.073-.424zm-.93-1.21a1.448 1.448 0 0 0-.406-.424c.059-.496.096-.994.126-1.495.438.085.912.185 1.401.279-.047.735-.12 1.463-.226 2.19-.287.023-.614-.076-.894-.55zm-.542.573c.014-.08.026-.173.039-.255.03.034.057.06.08.103.07.102.165.19.266.273-.134-.037-.257-.083-.385-.121zm-.027.16c.43.135.89.283 1.364.43l-.07.425c-.475-.164-.929-.325-1.357-.473.022-.128.04-.255.063-.382zm-1.29-1.555c.047-.463.08-.927.1-1.389.388.074.82.162 1.292.252-.025.48-.061.953-.114 1.423-.367-.194-.815-.266-1.278-.286zm1.112 1.503l-.063.369c-.454-.158-.87-.306-1.243-.44.014-.109.03-.218.046-.328.378.118.804.251 1.26.4zm-1.238-.56c.022-.146.037-.292.06-.44.345.046.862.112 1.256.458l-.052.38c-.459-.145-.885-.282-1.264-.399zm.017-6.776a23.464 23.464 0 0 0-.325-1.749c.976-.05 2.136-.123 2.94-.16.133.656.236 1.318.318 1.98-1.104-.023-2.138-.052-2.933-.071zm2.956.218c.082.72.138 1.434.164 2.154-1.066-.129-2.09-.256-2.92-.352a25.043 25.043 0 0 0-.18-1.879c.794.025 1.824.048 2.936.077zm3.328 4.202c-.009.351-.038.702-.065 1.052-.453-.095-.91-.181-1.358-.267.015-.279.045-.56.056-.83l-.278-.01c-.009.262-.035.519-.052.78-.462-.09-.912-.177-1.347-.264.006-.192.02-.375.028-.564.023-.597.013-1.177 0-1.767 1.03.127 2.087.253 3.034.368.005.5 0 1.003-.018 1.502zm-7.287 18.636s.582.589 1.008 1.017c-.036.035-.07.076-.106.11-.42-.43-1.01-1.03-1.01-1.03l.108-.097zM11.494 28.98l-1.363-.227c.117-.36.239-.715.37-1.065.45.103.898.215 1.344.32-.12.32-.24.644-.351.972zm2.988.668c-.09.257-.172.523-.254.787-.81-.103-1.821-.221-2.924-.356.085-.305.18-.614.28-.92 1.099.184 2.098.35 2.898.49zm-.635 2.18c-.638-.037-1.21-.063-1.3-.069l-.007.161c.081.006.64.033 1.267.067-.166.735-.3 1.474-.398 2.223-.884.05-1.95.105-2.945.16a26.31 26.31 0 0 1 .79-4.136l2.926.358c-.12.404-.235.821-.333 1.236zm-1.886 7.215a22.886 22.886 0 0 1-.061-1.68c.461-.082.902-.16 1.309-.234-.01.526 0 1.06.03 1.581-.416.106-.857.219-1.278.333zm.2 2.978c-1.354.524-2.925 1.137-4.325 1.682a29.36 29.36 0 0 1-.688-5.484c1.21-.214 2.99-.535 4.562-.82.003.564.025 1.126.07 1.686-1.01.265-1.867.484-1.948.508.018.064.027.09.041.152.181-.042 1.68-.433 1.68-.433l.028.112.215-.06c.071.895.196 1.775.365 2.657zm.215 1.009c-.83.343-1.765.737-2.736 1.15l-.002-.01-.272.069.015.047-1.274.54c-.05-.19-.103-.377-.148-.563-.035-.142-.065-.287-.096-.431 1.402-.55 2.971-1.157 4.321-1.683.06.292.122.584.192.88zm.207.809c-.865.482-1.788.991-2.621 1.452-.1-.316-.193-.631-.277-.95.968-.41 1.9-.799 2.728-1.153.053.22.112.44.17.65zm.187.669c.101.337.213.671.332 1.006-.399.232-.82.484-1.244.74a26.65 26.65 0 0 1-.312-.907l-.131.036c.096.319.207.631.318.94-.394.234-.791.47-1.185.706a26.635 26.635 0 0 1-.556-1.63c.831-.463 1.757-.973 2.62-1.452.053.187.102.378.158.56zm.85 2.368c.004.012.01.022.015.035-.806.557-1.674 1.161-2.45 1.7-.15-.338-.299-.676-.437-1.016-.054-.145-.103-.292-.155-.44.393-.233.796-.47 1.187-.703.104.278.213.564.329.843l.127-.057c-.117-.283-.228-.57-.333-.863.426-.25.844-.495 1.241-.735.15.415.307.836.476 1.236zm.37.834c-.714-.016-1.611.492-1.924 1.105-.182.347-.266.606-.427.752-.142-.286-.283-.57-.41-.858.779-.541 1.638-1.143 2.45-1.703.097.232.208.468.31.704zm.27.641c.012.003.028.003.041.009.104.21.213.415.325.625-.745.541-1.568 1.145-2.383 1.741-.098-.171-.194-.337-.282-.508.374-.186.745-.526.932-1.134.098-.3.383-1.062 1.367-.733zm1.555-.285c.003.01.011.023.014.033l-1.051.771a11.589 11.589 0 0 1-.24-.467c.442.062.873-.087 1.277-.337zm.079.15c.289.552.596 1.087.923 1.61-.316.277-.653.566-.983.85a23.445 23.445 0 0 1-.993-1.685l1.053-.774zm1.703 2.778c.47.65.982 1.27 1.514 1.87-.6.734-1.283 1.574-1.847 2.267a26.113 26.113 0 0 1-2.414-3.043c.364-.325.719-.651 1.064-.954.111.167.217.338.333.505l.15-.106a37.264 37.264 0 0 1-.343-.529l.966-.87c.188.292.378.576.577.86zm-1.299 5.326a28.207 28.207 0 0 1-2.581-3.21c.345-.312.688-.617 1.028-.927a26.948 26.948 0 0 0 2.43 3.06c-.395.482-.71.866-.877 1.077zm-2.841-3.574a29.316 29.316 0 0 1-1.151-1.904c.818-.594 1.636-1.198 2.38-1.741.313.583.65 1.153 1.009 1.702-.414.355-.807.695-1.13.98l-.068.045.01.008c-.462.394-.771.666-.771.666s-.107.091-.28.244zm-4.363-4.86a29 29 0 0 1-.583-1.669c.356-.192.778-.43 1.232-.679.17.555.357 1.094.558 1.635-.41.242-.812.484-1.207.714zm-.946-2.898c.429-.183.857-.362 1.278-.539.09.329.188.65.283.979-.457.252-.878.491-1.235.689a34.557 34.557 0 0 1-.326-1.129zm-1.533.46c-.092-.338-.18-.683-.262-1.032.425-.163.891-.342 1.379-.531.03.134.059.276.092.41.048.19.1.392.15.581-.454.193-.91.381-1.359.573zm-1.081-7.83c.468-.07.957-.147 1.463-.222 0 .231.003.457.01.683-.768.14-1.29.236-1.33.241.01.066.015.098.029.161.043-.012.549-.104 1.301-.237a29.25 29.25 0 0 0 .699 5.512c-.492.191-.954.368-1.381.538a30.776 30.776 0 0 1-.791-6.675zm6.179-.384c-1.57.287-3.35.604-4.568.823-.003-.228-.012-.454-.012-.68l4.59-.691c-.005.183-.01.362-.01.548zm1.496-.27c-.407.072-.848.152-1.31.238 0-.181.004-.361.01-.543.473-.069.91-.137 1.305-.193v.006c-.005.165-.005.328-.005.493zm-.696-2.287c.295-.021.58-.038.842-.06-.027.21-.044.422-.062.632a1.311 1.311 0 0 1-.409-.308 1.142 1.142 0 0 0-.37-.264zM5.55 36.2c.003-.147.016-.287.025-.426.306.161.665.184 1.171-.082.889-.457 1.311-.75 1.843-.526-.028.382-.05.755-.065 1.137l.28.01c.01-.334.034-.66.056-.99.029.017.056.034.089.05.199.172.696.417 1.265.338-.016.215-.036.431-.04.652l.138.003c.007-.225.03-.453.043-.681.251-.052.505-.17.764-.39.226-.192.82-.648 1.427.092.194.23.438.36.704.443-.01.155-.02.312-.026.464-.394.064-.835.124-1.31.202v-.075l-.186-.005-.001.108c-1.396.208-3.036.456-4.593.684 0-.318.009-.632.02-.95l-.14-.007c-.013.328-.016.657-.016.982l-1.468.221c0-.42.006-.836.02-1.254zm1.582-1.162c-.372.266-.85.51-1.184.149-.02-.02-.047-.041-.07-.065.288-.021.722-.05 1.254-.084zm-.646-5.378c.967.116 1.98.24 2.979.359a28.466 28.466 0 0 0-.796 4.316c-.335-.1-.628.035-.851.183-.288.015-.469.028-.499.028.006.095.015.318.015.318s-1.114.076-1.624.107c-.023-.022-.058-.04-.081-.063.135-1.78.424-3.535.857-5.248zm.363-1.29c.964.157 1.974.324 2.955.491-.103.329-.207.665-.295.997-1.002-.115-2.018-.24-2.98-.356.099-.382.204-.762.32-1.133zm2.934 1.525c.094-.33.198-.658.3-.985.466.074.918.146 1.365.224-.101.309-.196.615-.282.925-.452-.053-.916-.106-1.383-.164zm.487 4.932c0 .02-.003.043-.005.06-.304.194-.5.263-.843-.004.278-.016.562-.037.848-.056zm-1.335-.369c.154-1.49.422-2.965.81-4.405.467.056.927.115 1.37.164a26.216 26.216 0 0 0-.789 4.161c-.496.031-.969.055-1.391.08zm-1.616-7.545c.81.196 1.836.446 2.912.703-.134.362-.261.724-.376 1.09-.986-.167-1.994-.334-2.959-.498a33.2 33.2 0 0 1 .423-1.295zM50.42 56.279a602.05 602.05 0 0 1-2.189-1.963c-.06.046-.12.088-.203.151.15.137 1.83 1.655 2.18 1.975l-.355.261c-.3-.513-.923-.872-1.48-1.182-.765-.418-1.012-.53-1.012-.53s-.308.15-.098.332c.215.183 1.116.653 1.408.885.216.168.566.42.748.807-.386.268-.777.522-1.176.766-1.16-1.192-2.02-2.081-2.054-2.112-.036.021-.06.03-.11.057.042.044.907.927 2.064 2.12a.46.46 0 0 0-.07.046c-.229.137-.465.258-.697.385-1.07-1.186-1.944-2.165-1.971-2.193-.03.016-.044.024-.082.04.038.04.91 1.012 1.978 2.196-.174.098-.34.19-.512.282-.99-1.34-1.68-2.276-1.709-2.31-.049.026-.081.043-.146.08.036.053.722.984 1.704 2.312-.423.22-.856.417-1.286.605a483.435 483.435 0 0 1-1.639-2.382c-.043.016-.067.029-.125.048.037.052.717 1.043 1.646 2.39-.361.158-.728.291-1.091.426-.228-.392-.445-.752-.633-1.077.244-.086.494-.176.735-.272l-.132-.33c-.26.106-.523.2-.783.293a59.744 59.744 0 0 1-.644-1.102c-.036.017-.053.022-.095.04.017.026.266.454.64 1.096-.438.154-.88.297-1.326.43-.304-.607-.526-1.068-.547-1.106-.053.01-.085.025-.152.037.03.066.25.516.547 1.11-.132.034-.263.064-.392.098-.285-.676-.462-1.1-.473-1.13l-.144.046c.017.034.193.458.474 1.118-.26.062-.521.125-.78.18-.227-.564-.427-1.064-.456-1.122-.053.01-.083.016-.152.032.032.086.232.572.453 1.121-.206.043-.414.089-.626.126a67.315 67.315 0 0 0-.328-1.135.716.716 0 0 0-.133.033c.006.042.146.548.306 1.127-.52.085-1.04.152-1.561.2-.007-.457.003-1.038-.038-1.237-.054-.285-.349-.09-.349-.09s-.024.283-.042 1.183l-.001.184c-.189.015-.373.026-.563.036a68.808 68.808 0 0 1-.241-1.16c-.06 0-.088.003-.158.003.009.046.1.49.242 1.167-.558.018-1.12.027-1.68.009-.053-.585-.1-1.14-.108-1.19-.042 0-.076 0-.132-.009 0 .037.045.497.109 1.195-.015 0-.024 0-.035.004l-.015.35c.028.003.053 0 .08 0 .068.771.154 1.75.249 2.777a26.231 26.231 0 0 1-1.635-.093c.009-.479.025-.929.032-1.354.48.044.961.079 1.45.092l.005-.174c-.488-.016-.968-.05-1.45-.091.042-1.604.069-2.73.071-2.778-.09-.017-.24-.04-.353-.06-.006.07-.045 1.191-.104 2.792a23.942 23.942 0 0 1-1.685-.238c.09-1.3.183-2.678.187-2.767l-.149-.036c-.008.118-.1 1.484-.19 2.774-.12-.024-.239-.052-.359-.08.17-1.57.29-2.708.295-2.752-.046-.01-.073-.012-.126-.027-.008.058-.128 1.192-.298 2.757a24.042 24.042 0 0 1-1.296-.316l.085-.495c.067.01.13.019.145.019.126-.812.32-2.075.329-2.12-.034-.007-.074-.02-.11-.029.012-.077.02-.127.023-.136-.058-.015-.172-.049-.239-.065l-.517 2.749c-.555-.16-1.105-.34-1.65-.541.412-1.53.708-2.622.724-2.67-.056-.018-.08-.025-.14-.052-.014.058-.31 1.149-.722 2.667-.215-.08-.43-.158-.648-.246.467-1.507.8-2.597.814-2.643-.05-.022-.077-.032-.136-.06a576.94 576.94 0 0 1-.812 2.647 26.95 26.95 0 0 1-.729-.322l.966-2.582c-.025-.009-.08-.034-.08-.034s-.032-.014-.062-.034c-.017.06-.407 1.105-.964 2.586l-.172-.075c-.293-.135-.58-.282-.866-.434.18-.384.351-.779.517-1.136.29.147.58.304.882.45l.15-.323c-.3-.148-.596-.298-.886-.455.258-.57.448-1.005.471-1.05-.05-.027-.075-.042-.134-.073-.023.058-.22.486-.476 1.056a22.511 22.511 0 0 1-1.572-.932c.35-.58.583-.968.605-.996-.059-.042-.29-.185-.29-.185-.058.091-.29.472-.611.985-.354-.239-.698-.486-1.037-.742.205-.293.369-.53.487-.691l.123-.184c.03-.046.056-.077.06-.086-.03-.019-.051-.04-.097-.072-.006.006-.047.068-.117.165l-.075.112c-.117.167-.282.397-.48.68l-.201.295c-.21.303-.45.647-.715 1.02l-.098.144c-.245.35-.508.727-.779 1.112l-1.8 2.583-2.975 4.266c.038.029.056.046.098.077.042-.065 1.426-2.05 2.973-4.267.424.316.856.626 1.3.92l-1.58 2.525c.055.024.081.045.137.074.079-.13.824-1.327.824-1.327s.18.11.256.152c.027-.036.31-.504.731-1.186a28.909 28.909 0 0 0 3.176 1.76l.054-.125a28.968 28.968 0 0 1-3.166-1.752c.42-.693.962-1.58 1.499-2.468.623.402 1.268.777 1.926 1.125l-.22.486c.056.026.083.036.142.06.01-.03.09-.209.212-.475.276.145.559.282.841.415.1.048.201.089.303.138-.153.396-.304.808-.463 1.229-.134-.062-.268-.12-.397-.18l-.118.24c.14.067.281.123.423.185-.329.885-.67 1.796-.998 2.67a13.557 13.557 0 0 1-.637-.286l-.04.08c.215.1.43.196.648.292l-1.993 5.331c.055.029.085.036.142.064.03-.083.945-2.525 1.988-5.33.36.154.714.3 1.074.443-.625 2.03-1.118 3.637-1.135 3.695.053.02.076.035.136.055.02-.063.51-1.672 1.135-3.695.28.112.564.213.847.31-.65 2.406-1.19 4.392-1.21 4.458.03.01.077.029.14.047.022-.074.556-2.053 1.205-4.453 1.373.474 2.773.85 4.195 1.119-.219 2.028-.387 3.61-.393 3.666.052.009.087.009.127.018.008-.065.176-1.642.39-3.657.357.069.712.13 1.071.173.518.079 1.038.14 1.557.192l-.207 5.69c.067.01.108.01.152.018l.055-1.496.202.01s-.035 1.342-.036 1.51c.055.006.086.007.15.018l.143-5.714c.724.055 1.447.085 2.168.092.077.834.123 1.393.126 1.423.015-.003.067-.003.107-.003-.001-.043-.054-.612-.125-1.42.873.003 1.748-.037 2.618-.112.202.957.336 1.613.345 1.66a1.12 1.12 0 0 0 .155-.033c-.009-.047-.148-.692-.345-1.642a6.4 6.4 0 0 0 .368-.034c-.019.052-.033.105-.055.165-.368 1.11.356 1.398 1.096 1.895.746.507.167 1.049-.413 2.395-.578 1.35 1.353 1.986 1.353 1.986-.438-.47-.775-1.002-.901-1.63-.116-.566.142-.82.422-1.278.155-.257.276-.562.267-.871-.018-.483-.632-1.42-1.222-1.811-.307-.214-.27-.566-.145-.9a27.15 27.15 0 0 0 1.898-.28l-.02-.086c-.612.111-1.222.2-1.838.278.114-.268.267-.507.335-.646.106-.197.281-.512.243-.844 1.255-.185 2.5-.454 3.726-.81a3222.83 3222.83 0 0 0 2.51 5.985l.138-.05c-.034-.095-1.24-2.96-2.504-5.974a30.8 30.8 0 0 0 1.348-.423l-.044-.126c-.45.152-.9.297-1.356.43l-1.126-2.682.572-.158c.162.323.274.552.293.593.053-.03.08-.045.136-.069-.017-.043-.127-.257-.28-.577.518-.16 1.037-.343 1.551-.539.227.385.453.775.672 1.15l.096.247c.016-.002.027-.008.041-.012.88 1.498 1.61 2.743 1.634 2.781.04-.019.084-.04.087-.04-.026-.05-.752-1.285-1.627-2.784.435-.174.863-.355 1.288-.552 1.791 2.606 3.606 5.249 3.65 5.31.043-.02.067-.03.115-.057l-3.648-5.305c.464-.217.92-.445 1.368-.684 2.539 3.444 5.48 7.435 5.545 7.52l.14-.092c-.081-.105-3.006-4.081-5.538-7.508.27-.145.537-.294.797-.447a365.448 365.448 0 0 0 1.73 1.917c.035-.016.07-.037.072-.037-.029-.038-.778-.868-1.728-1.924.285-.169.574-.346.852-.523.702.72 1.397 1.435 2.014 2.075a32.01 32.01 0 0 1-1.559.978l.041.079a37.803 37.803 0 0 0 1.581-.992 190.843 190.843 0 0 1 2.022 2.086.414.414 0 0 1 .102-.061c-.038-.047-.885-.918-2.027-2.09.62-.422 1.222-.864 1.808-1.329.153.085.27.219.282.421.048.686.533 1.66.932 1.903.253.16.566.21.858.2.518-.007.856-.099 1.275.27.466.414.747.96.932 1.548 0 0 .393-1.923-1.012-2.101-1.41-.166-2.148.051-2.203-.815-.053-.752.018-1.417-.693-1.727l-.102-.032a3.481 3.481 0 0 0-.263-.081c-1.113-.23-1.588-.227-1.788-1.069a1.719 1.719 0 0 0-.3-.607l-.18-.202c-.255-.243-.623-.432-1.148-.416-.275.006-.974-.016-.983-.908a1.317 1.317 0 0 0-.11-.49c.167-.12.337-.244.503-.37.124.114 1.02.919 1.142 1.024.041-.043.062-.067.105-.114a184.21 184.21 0 0 1-1.125-1.006l-.135-.121zM20.545 57.79c-.535.765-1.1 1.578-1.652 2.367l1.652-2.367zm-1.551 2.439l1.65-2.37c.383.293.77.571 1.17.835-.515.824-1.05 1.678-1.53 2.452-.44-.293-.87-.6-1.29-.917zm2.891-1.644c-.398-.265-.787-.553-1.167-.832.273-.386.531-.76.777-1.109.36.27.73.539 1.107.784l-.717 1.157zm.81-1.302a27.673 27.673 0 0 1-1.104-.787c.265-.372.506-.715.716-1.02.342.26.69.513 1.053.75l-.665 1.057zm.319.202c.23-.383.45-.74.646-1.06.518.34 1.055.659 1.61.953-.16.36-.34.75-.517 1.14a24.415 24.415 0 0 1-1.739-1.033zm-.797 1.31c.239-.394.476-.781.703-1.157.572.368 1.16.721 1.762 1.04-.205.466-.406.9-.556 1.233a25.2 25.2 0 0 1-1.91-1.115zm2.603-.052c.286.15.572.299.86.437.066.028.126.053.189.083-.148.394-.307.828-.474 1.268-.096-.041-.196-.08-.293-.128a22.56 22.56 0 0 1-.84-.414c.15-.334.349-.773.558-1.246zm1.192.58c.24.111.485.222.732.327-.126.408-.259.85-.4 1.301-.27-.114-.54-.237-.807-.356.162-.447.324-.87.475-1.271zm-.523 1.396c.271.124.542.25.817.365-.126.404-.254.821-.385 1.251-.3-.12-.596-.254-.891-.387.155-.42.31-.829.459-1.229zm-.552 1.479c.3.137.6.265.907.384-.285.93-.574 1.87-.837 2.732-.36-.139-.715-.287-1.071-.442.331-.88.67-1.787 1-2.674zm1.044.441c.25.098.5.197.751.289-.252.925-.506 1.863-.745 2.751a32.074 32.074 0 0 1-.846-.31c.268-.867.556-1.8.84-2.73zm.884.34c.628.229 1.266.415 1.902.59l-.382 2.028c.034.011.078.02.078.02.006-.039.173-.919.379-2.022.066.013.124.025.187.05a813.491 813.491 0 0 0-.35 2.021c.01 0 .051.01.082.02.003-.04.152-.892.342-2.022.5.127 1 .248 1.502.35-.102.963-.206 1.937-.304 2.835a30.726 30.726 0 0 1-4.18-1.117c.242-.888.496-1.833.744-2.752zm3.863 1.06c.802.154 1.61.265 2.426.352-.036.939-.07 1.906-.106 2.844-.517-.053-1.034-.106-1.549-.183a30.426 30.426 0 0 1-1.072-.18c.099-.895.198-1.87.3-2.833zm2.483-1.23c-.018.43-.032.863-.048 1.314a28.121 28.121 0 0 1-2.406-.348c.05-.45.096-.888.145-1.317.141.026.281.06.422.086l-.044.653c.061.006.09.01.149.013.009-.039.02-.286.047-.636.575.099 1.15.179 1.735.235zm-1.633-1.729c.558.098 1.123.177 1.69.24-.022.428-.033.88-.053 1.362-.58-.064-1.155-.14-1.73-.245.026-.38.06-.856.093-1.357zm-.52-.108c.123.026.245.057.368.079-.035.502-.069.977-.094 1.355a9.384 9.384 0 0 1-.42-.08c.054-.468.1-.928.145-1.354zm-1.435-.342c.43.12.87.223 1.312.313l-.146 1.358a28.03 28.03 0 0 1-1.394-.327c.073-.45.153-.905.228-1.344zm-.079-.02c-.07.415-.149.875-.23 1.341-.05-.013-.102-.027-.152-.037l.252-1.34c.043.01.086.021.13.037zm.18-1.672l.03.005c-.066.38-.134.76-.178.99.014 0 .044.006.082.01l-.085.488c-.042-.012-.086-.02-.126-.034.158-.845.277-1.459.277-1.459zm-2.054 1.07c.552.2 1.108.389 1.666.543-.081.439-.17.895-.254 1.342a23.163 23.163 0 0 1-1.767-.573c.125-.462.245-.9.355-1.312zm-1.185 1c.14-.457.274-.89.4-1.305.213.096.433.17.651.254-.116.41-.232.855-.356 1.309-.234-.088-.467-.167-.695-.259zm.314 1.665a26.82 26.82 0 0 1-.74-.29l.385-1.25c.232.091.466.18.702.26l-.347 1.28zm2.015.635a29.55 29.55 0 0 1-1.876-.585c.117-.434.23-.861.343-1.277a22.5 22.5 0 0 0 1.782.575c-.088.445-.17.884-.25 1.287zm.558-1.208c.465.124.932.235 1.4.334-.046.424-.091.865-.138 1.31a24.075 24.075 0 0 1-1.485-.347c.072-.408.146-.847.223-1.297zm-.301 1.279l-.176-.05c.078-.412.159-.852.243-1.284.053.011.105.021.155.036-.076.438-.152.88-.222 1.298zm4.51 1.054c.407.03.818.058 1.228.076l.014-.267a24.253 24.253 0 0 1-1.236-.077l.033-1.318c.544.045 1.096.08 1.647.09l.398 4.425a31.396 31.396 0 0 1-2.156-.088c.02-.932.047-1.904.072-2.841zm1.795-1.492c.126 0 .256.008.383.008.571 0 1.14-.018 1.706-.057.202.955.41 1.952.593 2.849-.636.056-1.28.087-1.93.096l.004.134c.653-.01 1.307-.042 1.962-.092.102.497.198.964.287 1.373-.871.075-1.738.114-2.61.11l-.395-4.42zm2.87 2.919c.309-.023.619-.054.925-.094.153.379.007.777-.22 1.438-.136.009-.276.027-.416.035-.09-.41-.184-.876-.29-1.379zm1.255-.859c-.753-.539-.514-.72-.25-1.38.102-.26.124-.585.07-.916.344-.042.69-.101 1.031-.161.263.968.584 2.175.6 2.22.02-.008.189-.066.249-.085-.007-.033-.288-1.007-.63-2.176a22.48 22.48 0 0 0 1.917-.449c.36.861.747 1.774 1.126 2.681-1.22.353-2.456.616-3.706.802-.05-.184-.17-.362-.407-.536zm-1.548-5.062c.551-.052 1.093-.118 1.64-.207l.432 1.6.29 1.084c-.337.055-.68.114-1.018.163-.096-.454-.319-.881-.64-1.091-.583-.374-.64-1.047-.69-1.434-.007-.029-.01-.075-.014-.115zm.883 5.372c.12.114.207.225.268.334-.295.031-.59.06-.888.09-.187-.905-.394-1.897-.593-2.85.381-.029.766-.067 1.147-.112a1.362 1.362 0 0 1-.187.45c-.606.983-.031 1.831.253 2.088zm-1.815-5.298c.16-.008.327-.021.489-.031.01.756.13 1.514.77 1.89.4.24.515.517.509.763-.398.052-.792.09-1.197.115-.21-1.019-.416-1.985-.57-2.737zm-1.779 1.086c-.003-.057-.048-.534-.097-1.064.572.016 1.145.01 1.721-.014.155.757.36 1.72.573 2.74a27.16 27.16 0 0 1-1.68.057c-.131 0-.266-.01-.398-.012-.086-.993-.15-1.703-.15-1.703s.016-.004.031-.004zm5.892-.156c-.034-.085-.3-.742-.563-1.407.263-.054.523-.115.783-.181l1.081 2.58c-.63.165-1.262.32-1.902.44a710.8 710.8 0 0 0-.776-2.672c.221-.04.44-.09.662-.132.27.674.544 1.344.573 1.427.058-.023.088-.033.142-.055zm1.443.953c-.41-.987-.787-1.88-1.082-2.583.138-.028.28-.064.415-.099.175.354.357.74.549 1.117-.09.029-.176.066-.265.088l.05.164c.098-.025.196-.061.293-.087l.606 1.236c-.185.058-.372.11-.566.164zm.03-1.607l-.548-1.118c.455-.13.908-.28 1.355-.439.195.324.405.69.636 1.074-.479.176-.957.337-1.443.483zm.08.157c.487-.142.975-.305 1.452-.482.22.381.459.78.695 1.188-.508.197-1.023.372-1.543.533-.165-.344-.38-.776-.603-1.239zm2.239.67c-.235-.403-.469-.808-.694-1.19a25.01 25.01 0 0 0 1.101-.43l1.61 2.34c-.42.188-.844.372-1.274.546-.218-.376-.446-.762-.675-1.15.127-.054.247-.089.37-.141l-.046-.122c-.129.051-.26.095-.392.148zm2.133.664a1922.24 1922.24 0 0 0-1.608-2.343c.438-.192.866-.392 1.293-.607.5.678 1.076 1.461 1.678 2.273-.447.238-.903.465-1.363.677zm1.512-.76c-.605-.814-1.177-1.591-1.683-2.273.184-.093.355-.192.532-.294.627.697 1.31 1.458 1.925 2.138-.257.15-.517.292-.774.429zm.847-.472c-.616-.684-1.297-1.443-1.92-2.137.22-.124.445-.237.663-.37l.106-.062c.617.63 1.303 1.334 1.996 2.05-.279.177-.562.352-.845.52zm.943-.579c-.692-.714-1.381-1.42-1.993-2.055.379-.235.75-.48 1.111-.731.03.095.048.195.056.296.032.673.822 1.435 1.5 1.537.244.035.436.047.583.085-.412.3-.827.591-1.257.868zm.193.194c.447-.291.887-.602 1.319-.92.1.116.163.309.195.653.091.888.81.888 1.17.897.228.013.75-.018 1.109.133-.577.46-1.177.893-1.788 1.308-.613-.635-1.305-1.35-2.005-2.071zM164.471 40.59l-1.09-2.167a.592.592 0 0 1-.042-.227c0-.282.129-.43.39-.43.085 0 .207.028.366.08.703.245 1.677.366 2.927.366l1.517 2.796c.15.223.525.33 1.135.33.606.005.91.23.91.694 0 .308-.162.558-.487.742l-2.1.017c-1.214-.003-1.993-.145-2.344-.434-.346-.284-.741-.875-1.182-1.767zm-9.206-8.301l3.99.004v-.777l-3.99-.007v.78zm0-2.271l3.992.007v-.752l-3.992-.004v.749zm.006-2.233l3.987.008v-.766l-4.012-.006.025.764zm6.73 9.361l-.003 5.615c0 .31-.128.462-.384.462l-2.79-.001c-.277-.029-.413-.163-.413-.397l.009-5.686-7.622-.005c-.15 0-.35-.052-.603-.16-.249-.105-.373-.312-.373-.62 0-.082.017-.181.057-.298.035-.116.134-.212.289-.29l.236-.114 8.016.007v-.831c.353-.004.683-.023.996-.062.304-.034.615-.086.915-.164.3-.08.562-.176.8-.293.228-.116.377-.172.443-.172.23-.006.343.08.343.233l-.002 1.3 7.942.005c.475.003.713.26.71.768 0 .473-.267.713-.798.713l-7.768-.01zm-8.654 1.03a8.034 8.034 0 0 0 2.161-.18l1.078-.258c.298 0 .446.109.446.327v.235c-.554 1.181-1 2.106-1.332 2.781-.34.672-.69 1.122-1.073 1.35-.376.228-.99.346-1.833.346l-2.444-.003c-.379-.147-.572-.398-.569-.756-.003-.314.098-.506.284-.593.194-.09.583-.129 1.163-.129.297 0 .497-.098.613-.293l1.506-2.826zm9.386-8.903v.76l5.244.007c.382.08.573.336.573.764 0 .483-.286.726-.854.723l-4.989-.008.019.777 7.34.007c.344.095.518.35.518.768a.653.653 0 0 1-.232.508.755.755 0 0 1-.513.203l-16.646-.018a1.616 1.616 0 0 1-.944-.411c-.266-.243-.431-.479-.487-.697-.056-.217-.084-.596-.08-1.125l.002-2.71c-.773 0-1.28-.034-1.524-.112-.244-.077-.364-.301-.364-.679 0-.41.164-.637.5-.671.334-.03.548-.071.641-.113.095-.04.333-.549.71-1.519.378-.973.724-1.926 1.03-2.862.892.029 1.618-.04 2.178-.2.557-.163.863-.245.914-.245.278 0 .417.134.417.4 0 .07-.02.175-.058.304l-.753 2.422 4.55.003-.697-1.67c0-.128.022-.216.072-.262.044-.05.345-.2.91-.446l1.61-.709c.377 0 .797.607 1.251 1.815.042.09.081.194.132.3.046.11.07.205.07.276 0 .086-.024.147-.076.193l-.552.506 6.351.007c.177 0 .33.078.457.233a.796.796 0 0 1 .191.524c0 .48-.26.718-.787.718l-6.148-.002.024.764 5.247.007c.376.084.565.34.565.78-.006.466-.244.699-.722.699l-5.09-.01zM181.938 33.73h1.09l.001-1.119-1.091-.003v1.121zm0-2.156l.992.003v-.693c-.012-.267-.143-.395-.409-.393a7.374 7.374 0 0 1-.58 0l-.003 1.083zm-4.449 2.148h1.115l.003-1.117h-1.115l-.003 1.117zm.003-2.154h1.115v-.807c-.275.007-.648.098-1.115.279v.528zm.795 8.045l.381 1.14c.464.072.7.334.696.792 0 .492-.273.739-.825.739l-1.036.03c-.552-.001-.972-.1-1.263-.303-.292-.198-.55-.654-.774-1.367-.23-.716-.34-1.106-.34-1.176 0-.228.102-.34.3-.34.038-.007.13.016.277.06l.988.257c.31.086.847.148 1.596.168zm4.892 2.944h-2.78c-.517-.054-.778-.324-.78-.802.002-.177.046-.338.132-.492.09-.15.184-.225.285-.225h.744c.284 0 .426-.16.426-.486l.003-1.604-6.565-.004c-.253.016-.427-.096-.526-.35h-.045l-.007 4.48 12.434.01.007-4.47h-.046c-.081.223-.258.334-.517.334h-1.516l-.005 2.116c0 .363-.115.699-.344 1.017-.234.318-.531.476-.9.476zm-1.244-6.74h1.955a1.118 1.118 0 0 1-.09-.332l.848-.194c.1-.013.255-.088.46-.215.209-.132.367-.195.482-.194.108 0 .21.043.3.116.02.073.092.24.21.504.121.262.18.492.178.687a.95.95 0 0 1-.234.633c-.16.18-.41.266-.765.262-.352-.015-.64-.015-.85-.015v.612h1.515c.277 0 .45.118.517.354h.046l.012-11.444c0-.477-.268-.714-.804-.708l-6.136-.009c-2.444-.008-4.271.17-5.492.52l-.014 11.6c.253-.216.444-.327.57-.327l6.567.008.003-.59-6.243-.007c-.474.006-.713-.224-.713-.68 0-.171.065-.315.194-.427.133-.103.252-.161.359-.158l3.791.004.003-.825-2.666-.001c-.222 0-.447-.112-.674-.33-.226-.221-.339-.447-.339-.685l.006-4.573c.566.003 1.237-.15 2.003-.455a.586.586 0 0 1 .332-.12c.155 0 .23.086.23.238l-.004.826 1.115-.345.004-.937-3.32-.007c-.552.055-.83-.163-.83-.659 0-.14.073-.277.228-.412.148-.13.302-.198.461-.194h3.46l.004-.623c1.285-.158 2.087-.307 2.402-.44.313-.131.51-.202.587-.202.228 0 .34.11.34.33v.938l3.659.01c.311-.006.471.212.468.643 0 .199-.07.346-.21.464-.133.103-.261.164-.377.159l-3.543-.004.003.659 1.977.003c.491 0 .891.138 1.205.426.316.28.471.624.471 1.022l-.003 3.199c0 .25-.106.49-.317.726-.214.234-.438.35-.675.35l-2.663-.006-.003.825zm-7.848-11.633v.738c1.308-.382 2.417-.568 3.324-.568l9.971.008c.679.02 1.282.324 1.817.92.538.597.804 1.36.801 2.284l-.015 15.751c-.003.346-.144.647-.433.906a1.463 1.463 0 0 1-1.007.387l-16.62-.02c-.382-.004-.702-.096-.96-.282-.254-.194-.381-.431-.381-.73l.02-18.917a6.65 6.65 0 0 0 2.92-.824.615.615 0 0 1 .184-.03c.254 0 .382.127.379.377zM87.212 37.772l-.225-1.87c-.03-.28.111-.415.43-.415.045 0 .119.01.214.052.78.294 1.607.46 2.474.493.188 1.266.421 2.553.696 3.873.742.005 1.115.274 1.115.818-.003.574-.253.865-.76.862-.111 0-.462-.016-1.057-.066-.592-.04-1.075-.115-1.452-.225-.375-.105-.593-.234-.657-.383-.065-.151-.207-.709-.437-1.66a43.882 43.882 0 0 1-.341-1.479m10.215 5.244l1.601-.026c.554.006.826.27.826.8 0 .528-.27.788-.807.788l-3.827-.003c-.624 0-1.213-.44-1.76-1.314-.55-.88-.913-1.605-1.105-2.182l-2.614-8.093-.872-3.508h-.212L87.61 33.3a83.644 83.644 0 0 1-1.792 5.725 250.858 250.858 0 0 1-1.319 3.629c-.258.68-.63 1.174-1.11 1.484-.483.312-.842.47-1.066.47l-3.987-.002c-.15 0-.29-.088-.419-.262-.13-.175-.195-.332-.195-.478 0-.21.093-.416.282-.613.192-.2.394-.293.607-.285l1.458.027c1.198-2.853 2.12-5.417 2.77-7.697l1.666-5.806-6.269-.005c-.142 0-.273-.075-.392-.23a.944.944 0 0 1-.18-.58.83.83 0 0 1 .262-.63.833.833 0 0 1 .585-.246l6.376.007c.094-.178.567-2.158 1.417-5.953 1.44-.06 2.669-.318 3.686-.782a.51.51 0 0 1 .19-.04c.21 0 .309.13.306.392.003.255-.469 2.38-1.412 6.363l9.922.013c.45 0 .674.273.674.826 0 .288-.086.51-.252.659-.164.154-.33.229-.495.227l-6.024-.001c1.116 4.263 2.624 8.764 4.528 13.503M106.848 40.757l.01-8.608c0-.449-.374-.678-1.118-.678l-.013 10.435c.338-.065.61-.223.813-.47.203-.254.308-.477.308-.679m-.11-11.852l.01-7.284c0-.25-.078-.372-.238-.372-.148 0-.4.122-.759.372l-.011 8.136c.22 0 .439-.08.669-.239.22-.16.328-.364.328-.613m-1.01 14.397l-.005 2.287c0 .231-.125.342-.373.342l-3.811-.002c-.201-.003-.297-.095-.297-.285l.03-26.507c.901-.04 1.666-.154 2.292-.343l1.7-.535c.328 0 .492.127.488.39v1.584c1.213-1.051 2.281-1.569 3.206-1.565 1.339 0 2.01.793 2.009 2.377l-.01 8.015c-.002.586-.408 1.1-1.223 1.538.815.43 1.22 1.03 1.22 1.797l-.008 4.2.061-.001c.797-2.77 1.257-4.43 1.376-4.992l-.732.03c-.208 0-.417-.101-.63-.312a.952.952 0 0 1-.323-.722c.007-.662.293-.99.867-.99l15.313.022c.479.109.717.44.714.987 0 .249-.086.475-.253.672-.169.195-.355.3-.553.3l-10.973-.013-.555 2.3c1.886-.93 4.115-1.402 6.687-1.396 1.71 0 2.943.282 3.7.84.76.556 1.138 1.46 1.135 2.71l-.008 7.831c0 1.425-1.155 2.14-3.46 2.136l-2.066-.044c-.122 0-.276-.094-.462-.277a.938.938 0 0 1-.285-.682c.005-.683.506-1.001 1.507-.974l.008-8.518h-.029c-.16 1.613-.449 3.473-.86 5.583-.417 2.109-.728 3.302-.938 3.585a1.331 1.331 0 0 1-.791.532c-.314.068-1.118.1-2.395.1-.07-.002-.204-.097-.404-.294a.943.943 0 0 1-.292-.692c0-.3.108-.538.334-.701.22-.171.47-.255.752-.255.099 0 .206.015.326.046.32-1.246.66-2.916 1.027-5.01.364-2.093.563-3.41.594-3.964h-.79c-.77 3.552-1.317 5.979-1.646 7.282-.332 1.303-.652 2.132-.972 2.48-.32.352-.957.522-1.907.52l-1.654-.03c-.038 0-.157-.08-.358-.238-.198-.163-.297-.386-.297-.674 0-.278.08-.514.248-.699.163-.195.395-.291.697-.297.305-.004.615 0 .933.009.74-2.17 1.36-4.709 1.872-7.623-.168 0-.392.061-.672.18-.088.193-.21.57-.366 1.139-.156.565-.346 1.03-.578 1.394-.228.363-.639.608-1.244.74-.599.127-1.149.175-1.658.144v1.603c-.003.869-.43 1.57-1.29 2.11-.85.536-2.161.811-3.928.83"/>
        <path d="M141.12 38.668h.046l.984-2.598-.58-3.645-.585-5.146c-.299-.012-.594-.027-.873-.031-1.08 0-2.097.129-3.054.379l-.002 1.884c.847-.417 1.523-.616 2.024-.625.585.009 1.07.208 1.46.615.393.407.586.801.583 1.178l-.003 7.99zm-9.39 1.654l1.71-.862.017-13.472c.788.003 1.473-.133 2.059-.395.583-.27.906-.4.973-.4.379 0 .572.109.573.315l-.001.485c1.46-.286 2.721-.427 3.782-.427l-.296-3.99c-.02-.12 0-.24.076-.358.072-.123.154-.185.25-.185.032 0 .066.01.093.023 1.32.417 2.39.594 3.211.524.058.983.161 2.315.32 3.987l1.03.003a19.156 19.156 0 0 0-.428-1.98l-.31-1.04c0-.214.091-.352.274-.422l1.676-.567c.179 0 .309.114.39.343.083.227.235.741.45 1.536.212.797.32 1.278.317 1.447.003.174-.159.306-.483.416-.325.102-.507.16-.546.182l.064.064c.189-.034.345-.054.466-.052.31 0 .53.105.656.308.128.212.19.407.19.593 0 .246-.062.448-.184.603-.126.157-.25.236-.382.236l-2.991-.007c0 .46.07 1.092.2 1.895.388 0 .888-.074 1.51-.227l.914-.242c.27 0 .406.16.406.471-.003.332-.122.894-.361 1.688l-1.507 5.156c.273 1.544.583 3.041.94 4.503.352 1.46.552 2.222.6 2.278.05.061.166.1.36.13.428.079.646.345.646.81 0 .543-.31.812-.922.812h-1.305c-.13.014-.256.028-.385.028-1.231-.003-2.008-.809-2.33-2.404-.512 1.25-1.122 1.879-1.824 1.873h-3.7c-.104-.003-.236-.072-.397-.212-.157-.14-.24-.363-.24-.667 0-.263.094-.451.272-.563.18-.116.554-.174 1.12-.174.424.003.707-.079.85-.25.146-.168.476-.773.997-1.828l-.049-.051c-.084.12-.367.176-.837.176h-1.785c-.19 0-.336-.093-.436-.274-.1-.184-.15-.348-.15-.503 0-.238.063-.448.193-.632.127-.19.223-.281.3-.281h.384l.006-7.394c0-.114-.058-.223-.166-.324a.535.535 0 0 0-.347-.141c-.138 0-.333.058-.588.187l-.01 11.668c-.004.453-.22.866-.662 1.253-.44.385-1 .577-1.69.577l-2.335-.005c-.153.01-.28-.082-.383-.284-.105-.204-.157-.378-.157-.526 0-.527.272-.806.81-.832.543-.032.81-.176.812-.436V41.34l-6.253 3.244a.978.978 0 0 1-.218.026c-.51 0-.765-.277-.765-.831.002-.342.124-.58.374-.709l1.546-.808.014-12.586c-.764.068-1.198-.022-1.312-.278-.116-.245-.175-.438-.175-.578 0-.216.069-.412.192-.574.126-.163.528-.242 1.199-.235l.005-6.078c.44-.019.868-.069 1.283-.151a4.75 4.75 0 0 0 1.085-.32l.891-.39c.294 0 .443.097.443.29l-.008 6.559c.95-.084 1.427.207 1.427.859-.006.239-.064.437-.181.59-.12.154-.355.23-.71.216-.35-.01-.528-.014-.536-.006l-.012 10.742zM117.892 17.178a5.242 5.242 0 0 0-5.249 5.237 5.241 5.241 0 0 0 5.236 5.248 5.238 5.238 0 0 0 5.247-5.234 5.24 5.24 0 0 0-5.234-5.251m8.312 5.25a8.32 8.32 0 1 1-16.642-.02 8.32 8.32 0 0 1 8.333-8.31 8.315 8.315 0 0 1 8.31 8.33"/>
        <path d="M117.925 20.534s.057-.45.2-.66c.142-.201.512-1.08-.383-1.61 0 0 1.583-.187 1.374 2.066 0 0 .607.085.752.226 0 0 .06-.266-.085-.512 0 0 .239.04.281.56 0 0 .162.096.254.14 0 0 .488-.205.664-.26.176-.056.799-.504.553-1.215 0 0 .625.41.342 1.297 0 0-.3.57-.72.898l.177.248-.503.201s.325.122.594-.035l.137.242s.405-.14.608 0l-.58.18.133.34s.551.327.96.235c.405-.095.62-.302.743-.546 0 0 .177 1.43-1.678 1.377 0 0-.081.53-.189.679 0 0 .431-.012.524-.08 0 0-.2.242-.608.286l-.09.174s.158.37.214.535c.053.166.556.943 1.313.614 0 0-.926 1.216-2.275-.301l-.217.15-.284-.303s.072.275.138.367l-.138.112s.312.204.206.584c0 0-.15-.475-.368-.503 0 0-.335.092-.43.109 0 0-.285.56-.285.738 0 .177-.094.708.524 1.095 0 0-1.4.2-1.361-1.779l-.35-.084s0-.396-.111-.49l-.095.408-.39-.163-.15.411s-.01-.371.041-.453l-.05-.055s-.394.08-.478.22c-.077.135-.171.122-.365.61-.188.494-.88.684-.88.684s.326-.204.3-.902c-.027-.695.311-1.037.311-1.037s-.35-.051-.376-.135l.514-.08.148-.176s-.458-.067-.5-.166h.365s-.202-.518-.27-.75c0 0-.404-.345-.85-.22-.443.12-1.406.014-1.513-.22 0 0 .351.105.783-.136.436-.246.61-.64 1.485-.527l.059-.25s-.46-.147-.5-.26c0 0 .458.154.536.084l.045-.135s.405.15.47.26c0 0-.013-.275-.393-.437l.082-.206s.015-.12-.713-.258c0 0 .27-.11.496-.082 0 0-.131-.397-.171-.493-.044-.099-.406-.903-1.309-.653 0 0 .35-.602 1.149-.425.795.18 1.295.943 1.295.943l.28-.19.486.383s-.255-.466-.346-.52c0 0-.067-.34-.124-.393l.3.342.158-.397.03.313.104-.014z"/>
    </g>
</svg>
