<svg xmlns="http://www.w3.org/2000/svg" width="24" height="24" viewBox="0 0 24 24">
    <g fill="#A19062" fill-rule="evenodd">
        <path d="M19.177 10.522c-.173.507-.76.945-.9 1.434-.058.205-.05.44-.027.68.03.326.087.661.04.95a.844.844 0 0 1-.107.309c-.293.488-1.117.562-1.58.914l.137.242.14.246 1.767 3.135c.096.17.014.308-.181.305l-1.625-.03a.658.658 0 0 0-.53.304l-.742 1.32c-.096.172-.244.167-.33-.009l-1.697-3.46-.137-.28c-.247.096-.487.288-.73.465-.281.205-.568.39-.878.384-.307-.005-.584-.195-.853-.408-.157-.122-.312-.252-.47-.356l-.12.227-1.82 3.402c-.093.172-.242.17-.332-.003l-.694-1.345a.654.654 0 0 0-.519-.323l-1.625-.029c-.195-.003-.272-.143-.17-.31l1.878-3.076.132-.221.08-.126c-.035-.052-.07-.1-.112-.143-.42-.436-1.337-.517-1.634-1.05a.804.804 0 0 1-.085-.243c-.062-.325.03-.715.074-1.086.025-.216.034-.425-.012-.612-.12-.485-.673-.935-.84-1.435a.854.854 0 0 1-.048-.291c.011-.623.786-1.123.949-1.694a.97.97 0 0 0 .027-.127c.047-.292-.01-.628-.04-.95-.032-.32-.037-.625.106-.862.314-.522 1.234-.57 1.67-.99.436-.421.516-1.34 1.05-1.634.525-.292 1.344.123 1.941-.025.577-.143 1.104-.899 1.726-.887.622.01 1.123.784 1.695.948.59.17 1.423-.217 1.938.093.522.315.57 1.235.99 1.67.42.437 1.338.517 1.634 1.049.125.226.12.504.085.796-.042.369-.134.758-.072 1.088.003.02.008.039.012.058.143.577.898 1.103.887 1.726a.814.814 0 0 1-.048.26M11.831 0C5.297 0 0 5.297 0 11.83c0 6.535 5.297 11.832 11.83 11.832 6.535 0 11.831-5.297 11.831-11.831S18.365 0 11.831 0"/>
        <path d="M11.83 6.58l-.839 2.583H8.274l2.198 1.596-.84 2.584 2.199-1.597 2.198 1.597-.84-2.584 2.198-1.596H12.67z"/>
    </g>
</svg>
