<svg xmlns="http://www.w3.org/2000/svg" width="46" height="46" viewBox="0 0 46 46">
    <g fill="none" fill-rule="evenodd">
        <circle cx="23" cy="23" r="23" fill="#FFF"/>
        <g fill="#614A0B">
            <path d="M22.308 16.693c-.617.01-1.138.536-1.127 1.135.01.62.522 1.106 1.157 1.098a1.105 1.105 0 0 0 1.113-1.132 1.112 1.112 0 0 0-1.143-1.101m-6.006 1.152c.023-.597-.495-1.134-1.11-1.152a1.12 1.12 0 0 0-1.165 1.081 1.106 1.106 0 0 0 1.096 1.147c.629.016 1.156-.465 1.179-1.076m11.512 1.016c-2.501.13-4.676.888-6.442 2.598-1.784 1.728-2.599 3.845-2.376 6.47-.978-.12-1.868-.253-2.764-.329-.31-.026-.676.011-.938.159-.87.49-1.704 1.043-2.692 1.66.182-.82.299-1.536.507-2.226.152-.507.082-.789-.386-1.119-3.003-2.116-4.268-5.284-3.321-8.545.876-3.017 3.028-4.847 5.952-5.8 3.992-1.302 8.477.026 10.904 3.19.876 1.142 1.414 2.425 1.556 3.942"/>
            <path d="M30.908 24.49a.958.958 0 0 0-.955.91.941.941 0 0 0 .943.984.934.934 0 0 0 .954-.903.95.95 0 0 0-.942-.991m-6.002 1.9a.96.96 0 0 0 .97-.91.963.963 0 0 0-.963-.992c-.54-.003-.992.455-.973.985.017.507.45.917.966.917m9.31 8.912c-.817-.36-1.568-.9-2.366-.982-.796-.082-1.633.371-2.465.455-2.536.257-4.808-.442-6.681-2.154-3.563-3.258-3.054-8.254 1.068-10.924 3.664-2.372 9.036-1.581 11.62 1.711 2.253 2.873 1.988 6.687-.763 9.1-.797.699-1.083 1.273-.572 2.194.094.17.105.386.16.6"/>
        </g>
    </g>
</svg>
