<svg xmlns="http://www.w3.org/2000/svg" width="46" height="46" viewBox="0 0 46 46">
    <g fill="none" fill-rule="evenodd">
        <circle cx="23" cy="23" r="23" fill="#FFF"/>
        <g fill="#614A0B">
            <path d="M29.802 22.66c-.377-.112-.635-.19-.438-.684.427-1.075.471-2.002.008-2.664-.868-1.24-3.245-1.174-5.97-.033 0-.002-.854.374-.636-.304.42-1.348.356-2.476-.296-3.127-1.478-1.479-5.408.056-8.778 3.425-2.524 2.524-3.99 5.2-3.99 7.512 0 4.425 5.675 7.115 11.225 7.115 7.277 0 12.118-4.228 12.118-7.584 0-2.028-1.708-3.18-3.243-3.655m-8.86 9.654c-4.429.436-8.252-1.565-8.54-4.474-.288-2.907 3.07-5.62 7.5-6.057 4.43-.439 8.253 1.564 8.54 4.471.287 2.909-3.07 5.622-7.5 6.06M34.634 14.563a7.081 7.081 0 0 0-6.742-2.181 1.024 1.024 0 1 0 .427 2.003 5.036 5.036 0 1 1 5.846 6.477v.001a1.024 1.024 0 1 0 1.95.632v-.004a7.079 7.079 0 0 0-1.481-6.928"/>
            <path d="M31.935 16.999a3.448 3.448 0 0 0-3.284-1.061.881.881 0 1 0 .368 1.723v.002a1.685 1.685 0 0 1 1.958 2.169.883.883 0 0 0 1.678.543 3.444 3.444 0 0 0-.72-3.376M21.385 24.022c-2.108-.549-4.49.501-5.406 2.36-.932 1.893-.03 3.996 2.099 4.683 2.206.712 4.806-.379 5.71-2.423.892-1.999-.222-4.056-2.403-4.62m-1.61 4.837c-.428.684-1.345.983-2.037.668-.68-.31-.881-1.104-.453-1.77.423-.664 1.31-.96 1.996-.673.693.296.916 1.085.495 1.775m1.41-1.812c-.154.266-.497.393-.765.282-.264-.108-.347-.404-.197-.665.155-.259.484-.385.747-.28.268.097.364.397.216.663"/>
        </g>
    </g>
</svg>
