<svg xmlns="http://www.w3.org/2000/svg" xmlns:xlink="http://www.w3.org/1999/xlink" width="30" height="30" viewBox="0 0 30 30">
    <defs>
        <rect id="a" width="30" height="30" rx="4"/>
    </defs>
    <g fill="none" fill-rule="evenodd">
        <g>
            <use fill="#FFF" xlink:href="#a"/>
            <rect width="29" height="29" x=".5" y=".5" stroke="#A19062" rx="4"/>
        </g>
        <g fill="#A19062">
            <path d="M20.64 14.422c-.3-.09-.505-.15-.348-.544.34-.854.375-1.59.007-2.116-.69-.985-2.578-.932-4.742-.026 0-.002-.68.297-.506-.242.333-1.07.283-1.966-.235-2.484-1.174-1.174-4.295.045-6.973 2.721-2.004 2.005-3.168 4.13-3.168 5.967 0 3.515 4.507 5.652 8.916 5.652 5.78 0 9.625-3.359 9.625-6.025 0-1.61-1.357-2.525-2.576-2.903m-7.037 7.668c-3.519.347-6.556-1.243-6.784-3.553-.229-2.31 2.44-4.464 5.957-4.812 3.519-.348 6.556 1.243 6.784 3.552.228 2.31-2.439 4.465-5.957 4.813M24.478 7.99a5.625 5.625 0 0 0-5.355-1.733.813.813 0 1 0 .34 1.592 4.003 4.003 0 0 1 4.643 5.145.814.814 0 1 0 1.549.502v-.003a5.623 5.623 0 0 0-1.177-5.503"/>
            <path d="M22.334 9.925a2.739 2.739 0 0 0-2.608-.843.7.7 0 1 0 .292 1.369 1.338 1.338 0 1 1 1.555 1.723.701.701 0 0 0 1.333.431 2.736 2.736 0 0 0-.572-2.68M13.954 15.503c-1.674-.436-3.566.398-4.294 1.874-.74 1.505-.024 3.175 1.667 3.72 1.753.566 3.818-.3 4.536-1.924.708-1.588-.176-3.222-1.909-3.67m-1.278 3.842c-.34.543-1.07.781-1.618.53-.541-.245-.7-.876-.36-1.406.336-.527 1.04-.762 1.585-.533.55.234.727.86.393 1.41m1.12-1.44c-.122.211-.394.312-.607.224-.21-.086-.276-.321-.157-.528.123-.206.385-.306.594-.223.212.078.288.316.17.527"/>
        </g>
    </g>
</svg>
