<svg xmlns="http://www.w3.org/2000/svg" width="158" height="432" viewBox="0 0 158 432">
    <defs>
        <linearGradient id="a" x1="96.093%" x2="1.381%" y1="98.087%" y2=".702%">
            <stop offset="0%" stop-color="#A19062"/>
            <stop offset="100%" stop-color="#ECE4C8"/>
        </linearGradient>
    </defs>
    <path fill="url(#a)" fill-rule="evenodd" d="M364.372 427.548l31.43-49.65 1.207 14.304-32.637 35.346zM303.59 146.074l110.908-46.016-18.679 274.711-92.229-228.695zM152.837 330.291l7.685-7.105.095 10.579.457 50.696-29.052-34.921 20.815-19.249zm7.363-8.05l-28.724 26.562-58.249-90.274L160.2 322.24zm-5.388-212.52l20.027-40.262 28.772 61.517-48.799-21.256zm100.41 87.455l-49.886-64.935 89.07-15.957-39.184 80.892zm-123.134-91.142l21.42 4.305-20.254 35.952-60.916 108.127 25.783-155.21 33.967 6.826zm171.098 38.74l-7.43-28.598 25.879 1.667-18.449 26.93zm111.353-45.845l-85.987 16.786 85.66-31 .327 14.214zM310.187 389.563l85.006-12.329-33.885 53.529-34.548-27.844-16.573-13.356zm84.673-14.915l-122.632-128.46 13.52-43.465 17.32-55.683 19.337 47.945 72.455 179.663zM295.075 116.86l7.476 28.776-21.725 23.769-23.834 26.075 23.322-48.146 14.761-30.474zm37.637 16.09l-28.45 11.804 18.424-26.895 87.624-17.106-77.598 32.196zM196.875 242.882l-36.104 78.623-87.967-64.44 124.071-14.183zm198.267 133.366l-85.811 12.445-36.76-140.84 83.6 87.574 38.97 40.821zm-176.99-77.956l11.883 75.936-22.786 1.375 10.903-77.311zm-47.68 19.973l47.134-21.997-11.119 78.848-44.823-52.74 8.808-4.11zm26.556-76.391l-73.087 8.355-51.576 5.896L154.11 111.03l34.514 105.22 8.405 25.625zm.306-1.752l-42.415-129.308 49.158 21.412-6.743 107.896zm.744 1.235l6.77-108.301 49.816 64.844-56.586 43.457zm66.035 152.919l-30.06-18.019 21.032 6.3 29.839 8.938-19.77 2.642-1.04.139zm37.93-246.752l-30.314 97.458-15.945-46.85 4.78-5.23 41.48-45.378zm-104.467 95.866l18.438 47.787 1.561 4.048-55.748 26.018 22.154-48.248 13.595-29.605zm57.529-44.658l16.018 47.075-14.218-.772-57.985-3.155 19.996-15.358 36.189-27.79zm32.491 192.414L272.74 251.791l15.982 61.234 19.778 75.773-10.53 1.184-10.374 1.165zm-56.717-16.856L218.814 297.2l67.272 93.63-29.17-8.739-26.037-7.8zm55.783 15.833l-28.476-39.632-39.46-54.922 52.702-48.326 11.087 103.995 4.147 38.885zm-16.063-143.357l-44.592 40.886-7.72 7.079-20.023-51.9 20.548 1.117 51.787 2.818zm37.95 143.016l-3.558 25.231-11.994-16.266-4.914-6.665 10.772-1.21 9.694-1.09zm-45.175 5.151l-12.619 16.852-19.086-35.857 31.705 19.005zm23.7-2.733l16.652 22.582-38.102-19.716 21.45-2.866zM154.097 109.242L100.26 57.335l73.917 11.534-20.081 40.373zm-45.409-42.518l44.036 42.458-54.505-10.955 1.03-40.604 9.439 9.101zm53.054 300.853l-.361-40.084 8.993 54.429-8.475 3.08-.157-17.425zm5.577-9.199l-5.736-34.719 44.298 52.121-34.706 5.93-3.856-23.332zm55.196 17.292l7.793-.47 18.95 35.6-41.271-34.252 14.528-.878zm38.147 24.36l3.486-4.655 38.832 20.095-51.4-3.31 9.082-12.13zm98.679 30.333l-53.62-14.63.384-2.728 3.236-22.94 18.985 15.3 31.015 24.998zm55.685-345.948l10.681-4.137-10.373 17.579-.197-8.616-.11-4.826zm12.062-4.775a.57.57 0 0 0-.004-.576c-.104-.173-.286-.247-.456-.179l-12.145 4.704v.001l-92.063 33.316-27.208-1.752c-.017-.002-.032.01-.048.011-.013 0-.023-.008-.034-.006l-90.4 16.195-29.522-63.12c-.013-.026-.037-.04-.054-.064-.025-.037-.048-.075-.081-.102-.027-.02-.057-.026-.086-.04-.029-.013-.053-.036-.084-.04L98.916 56.132l-.001.001a.341.341 0 0 0-.224.041c-.006.004-.01.014-.016.018-.02.012-.03.033-.047.048a.45.45 0 0 0-.119.16c-.005.01-.018.016-.023.029-.007.022.001.047-.004.07-.008.037-.027.069-.028.108L97.39 98.583l-26.25 158.02-.001.002v.003l-.002.011c-.002.012 0 .024-.001.036-.002.015-.007.03-.007.046v.001c0 .016.005.031.005.046a.743.743 0 0 0 .025.144l.01.026c.005.014.009.027.015.04l.002.008c.003.007.009.01.012.016.007.012.01.024.017.036l59.863 92.776c.005.009.014.013.02.02.006.009.007.018.014.026l30.092 36.172c.008.01.02.014.028.022.008.007.01.02.019.027.008.007.02.004.028.01a.36.36 0 0 0 .215.085l.003-.001h.023a.35.35 0 0 0 .17-.049l9.25-3.36 35.717-6.104 43.804 36.355.002.002.004.003c.003.003.006.001.01.004.057.044.12.075.187.082h.01c.002 0 .002.002.003.002l54.513 3.508 56.117 15.312c.031.01.066.01.088.012l.004.001.01.001h.005c.127 0 .237-.076.312-.186l35.986-38.97a.559.559 0 0 0 .132-.418l-1.324-15.69c.002-.02.008-.035.008-.054 0-.023-.006-.043-.009-.065l18.837-277.02 11.73-19.881z" transform="scale(-1 1) rotate(43 159.812 -80.14)"/>
</svg>
