<svg xmlns="http://www.w3.org/2000/svg" width="502" height="371" viewBox="0 0 502 371">
    <defs>
        <linearGradient id="a" x1="96.093%" x2="1.381%" y1="98.087%" y2=".702%">
            <stop offset="0%" stop-color="#A19062"/>
            <stop offset="100%" stop-color="#ECE4C8"/>
        </linearGradient>
    </defs>
    <path fill="url(#a)" fill-rule="evenodd" d="M438.898 463.67l48.297-40.575 1.855 11.69-50.152 28.884zm-93.4-230.02l170.426-37.603-28.702 224.492L345.498 233.65zM113.845 384.193l11.808-5.807.147 8.645.702 41.429-44.643-28.538 31.986-15.73zm11.313-6.579L81.021 399.32l-89.508-73.771 133.645 52.065zm-8.279-173.67l30.774-32.902 44.212 50.272-74.986-17.37zm154.294 71.468l-76.657-53.064 136.87-13.04-60.213 66.104zm-189.212-74.48l32.914 3.518-31.123 29.379-93.606 88.36 39.62-126.836 52.195 5.579zm262.916 31.657l-11.418-23.37 39.768 1.363-28.35 22.007zm171.11-37.464l-132.131 13.718 131.63-25.333.5 11.615zM355.635 432.628l130.623-10.075-52.07 43.743-53.087-22.753-25.466-10.915zm130.111-12.188L297.306 315.463l20.775-35.52 26.616-45.503 29.712 39.18 111.338 146.82zM332.413 209.777l11.489 23.516-33.384 19.424-36.625 21.308 35.837-39.344 22.683-24.904zm57.834 13.149l-43.717 9.646 28.31-21.978 134.648-13.98-119.24 26.312zm-208.732 89.836l-55.48 64.25-135.173-52.66 190.653-11.59zM486.18 421.748l-131.86 10.17-56.488-115.094 128.465 71.565 59.883 33.36zm-271.97-63.705l18.26 62.054-35.015 1.124 16.755-63.178zm-73.268 16.322l72.43-17.976-17.087 64.434-68.877-43.099 13.534-3.359zm40.807-62.427l-112.307 6.829-79.254 4.817 125.61-118.571 53.036 85.985 12.915 20.94zm.47-1.431l-65.176-105.67 75.538 17.498-10.361 88.172zm1.145 1.01l10.401-88.504 76.551 52.99-86.952 35.514zM284.836 436.48l-46.191-14.725 32.318 5.149 45.851 7.304-30.378 2.159-1.6.113zm58.286-201.643l-46.584 79.642-24.5-38.286 7.345-4.273 63.739-37.083zm-160.53 78.34l28.332 39.051 2.4 3.309-85.666 21.261 34.043-39.427 20.891-24.193zm88.401-36.494l24.614 38.47-21.847-.631-89.103-2.579 30.728-12.55 55.608-22.71zm49.928 157.24l-22.829-113.881 24.559 50.04 30.392 61.921-16.182.967-15.94.953zm-87.154-13.775l-18.54-62.998 103.374 76.513-44.823-7.14-40.011-6.375zm85.718 12.938L275.728 400.7l-60.636-44.881 80.985-39.492 17.037 84.984 6.371 31.776zm-24.683-117.15l-68.521 33.412-11.863 5.785-30.769-42.412 31.575.912 79.578 2.303zm58.316 116.872l-5.468 20.618-18.43-13.292-7.55-5.446 16.552-.99 14.896-.89zm-69.418 4.21l-19.39 13.77-29.329-29.302 48.719 15.531zm36.42-2.234l25.587 18.454-58.55-16.112 32.962-2.342zM115.777 203.552l-82.726-42.418 113.585 9.426-30.859 32.992zm-69.777-34.745l67.667 34.696-83.754-8.952 1.583-33.182L46 168.807zm81.525 245.855l-.555-32.757 13.819 44.479-13.022 2.517-.242-14.24zm8.571-7.518l-8.815-28.372 68.07 42.593-53.33 4.846-5.925-19.067zm84.816 14.13l11.976-.383 29.12 29.092-63.421-27.99 22.325-.718zm58.618 19.908l5.356-3.804 59.672 16.421-78.985-2.704 13.957-9.913zm151.634 24.787l-82.395-11.956.591-2.228 4.972-18.746 29.173 12.503 47.66 20.427zm85.569-282.705l16.413-3.381-15.94 14.365-.303-7.04-.17-3.944zm18.534-3.902c.159-.143.156-.332-.006-.471-.16-.141-.44-.202-.7-.146l-18.662 3.844-141.468 27.226-41.81-1.431c-.026-.002-.049.007-.074.008-.019 0-.034-.006-.052-.004l-138.913 13.234-45.365-51.58c-.02-.022-.056-.034-.081-.054-.04-.03-.075-.06-.126-.083-.042-.017-.087-.021-.132-.033-.044-.01-.08-.029-.129-.033l-116.763-9.688h-.002a.932.932 0 0 0-.344.035c-.01.003-.015.011-.025.014-.029.01-.045.027-.072.04a.515.515 0 0 0-.182.13c-.009.009-.028.013-.035.023-.012.019.001.04-.007.058-.012.03-.041.056-.044.088l-1.633 34.303-40.337 129.133-.002.001c0 .001.002.002 0 .003l-.002.009c-.003.01.001.019-.001.029-.003.012-.01.024-.012.037v.001c0 .013.008.026.009.038.003.02.006.041.013.061.007.02.015.038.025.057l.015.02c.007.012.014.023.024.034l.002.006c.005.006.014.008.02.013.01.01.013.02.024.03l91.988 75.815c.009.007.023.01.033.017.007.007.01.015.02.021l46.241 29.56c.013.007.03.01.043.018.011.005.016.016.029.021.013.006.03.004.043.01.1.04.21.068.33.068l.006-.001h.034a.92.92 0 0 0 .263-.04l14.212-2.746 54.885-4.988 67.311 29.71h.003l.006.003c.005.003.01.001.015.003a.884.884 0 0 0 .288.067l.017.001h.003l83.767 2.868 86.232 12.513c.048.007.102.008.135.01h.007l.014.001h.009a.784.784 0 0 0 .48-.152l55.296-31.846c.147-.086.222-.213.203-.341l-2.034-12.823c.002-.015.012-.028.012-.043 0-.019-.01-.035-.013-.054l28.944-226.379 18.025-16.245z" transform="scale(1 -1) rotate(-19 -1144.929 126.902)"/>
</svg>
