<svg xmlns="http://www.w3.org/2000/svg" width="159" height="175" viewBox="0 0 159 175">
    <defs>
        <linearGradient id="a" x1="96.093%" x2="1.381%" y1="98.087%" y2=".702%">
            <stop offset="0%" stop-color="#A19062"/>
            <stop offset="22.309%" stop-color="#ECE4C8"/>
            <stop offset="44.681%" stop-color="#A19062"/>
            <stop offset="65.472%" stop-color="#ECE4C8"/>
            <stop offset="82.119%" stop-color="#A19062"/>
            <stop offset="100%" stop-color="#ECE4C8"/>
        </linearGradient>
    </defs>
    <path fill="url(#a)" fill-rule="evenodd" d="M1899.996 919.054a.272.272 0 0 1 .004.054v.03l-.024.141-.013.016a.372.372 0 0 1-.023.044.474.474 0 0 1-.039.063l-.012.024-.093.076-126.204 84.443-.025.006a.327.327 0 0 1-.08.037l-.085.01a.572.572 0 0 1-.075.001h-.044a.282.282 0 0 1-.034-.01l-.044-.01a.467.467 0 0 1-.213-.156l-.025-.046c0 .006-.005-.005-.01-.018l-.027-.022-.01-.059-57.897-144.843-.005-.023s-.005-.01-.007-.022l-.007-.058a.376.376 0 0 1-.003-.084l.006-.045.034-.128.013-.012.023-.04.03-.042.13.09-.102-.118a.32.32 0 0 1 .043-.039l.043-.033c.024-.014.043-.02.052-.022-.008.002.004-.007.03-.018l106.256-38.23.019.001a.32.32 0 0 1 .074-.012l.195.03.05.021c.028.015.05.032.072.05l.078.07 77.867 98.67.062.13c.002.001.007.02.012.04l.008.043zM1854.853 932l43.612-13.052-59.272-40.39 15.66 53.442zm-75.731 67.123l117.581-78.673L1854.768 933l-75.646 66.124zm9.641-82.347l-14.72 85.546 79.514-69.503-64.794-16.043zm-15.388 83.936l14.48-84.16-29.33-7.262 14.85 91.422zm-56.422-139.56l55.27 138.281-14.71-90.563-40.56-47.717zm81.674-9.577l-82.227 7.488 41.523 48.85 40.704-56.338zm21.794-30.164l-101.37 36.473 80.3-7.312 21.07-29.161zm17.144 54.91l-16.063-54.816-21.239 29.397 37.302 25.418zm-49.55 39.309l10.789-62.708-40.07 55.458 29.28 7.25zm11.925-63.819l-11.018 64.043 64.94 16.08-15.883-54.203-38.039-25.92zm97.348 65.206l-74.483-94.38 15.974 54.51 58.51 39.87z" transform="rotate(9 6174.103 -10452.248)"/>
</svg>
