<svg xmlns="http://www.w3.org/2000/svg" width="296" height="742" viewBox="0 0 296 742">
    <defs>
        <linearGradient id="a" x1="96.093%" x2="1.381%" y1="98.087%" y2=".702%">
            <stop offset="0%" stop-color="#A19062"/>
            <stop offset="100%" stop-color="#ECE4C8"/>
        </linearGradient>
    </defs>
    <g fill="none" fill-rule="evenodd">
        <g fill="#F3EEE0">
            <path d="M152.72 334.453l-16.047 18.064 20.538 10.57-4.49-28.634zm-17.26 18.102a.486.486 0 0 1 .108-.212l17.113-19.263a.467.467 0 0 1 .81.24l4.792 30.536a.484.484 0 0 1-.19.461.46.46 0 0 1-.489.04l-21.903-11.272a.469.469 0 0 1-.241-.53z"/>
            <path d="M180.442 374.35l-25.99-38.789 4.376 28.122 21.614 10.667zm-27.23-40.912a.483.483 0 0 1 .284-.336.46.46 0 0 1 .556.172l28.15 42.013a.48.48 0 0 1-.033.578.463.463 0 0 1-.558.12L158.2 364.428a.465.465 0 0 1-.255-.349l-4.738-30.459a.477.477 0 0 1 .007-.183z"/>
            <path d="M181.92 375.698l-21.002-10.236 40.414 42.23-19.413-31.994zM158.33 363.8a.466.466 0 0 1 .659-.312l23.46 11.436c.082.04.149.1.196.176l21.686 35.741a.466.466 0 0 1-.735.561l-45.148-47.177a.464.464 0 0 1-.118-.425z"/>
            <path d="M203.327 411.463l-43.868-46.164 16.858 114.2 27.01-68.036zm-44.997-47.66a.467.467 0 0 1 .792-.218l45.085 47.448c.125.133.161.326.096.497l-27.76 69.927a.465.465 0 1 1-.894-.104l-17.327-117.374a.492.492 0 0 1 .008-.175z"/>
            <path d="M203.51 411.35l-26.719 67.465 48.921-54.83-22.202-12.636zm-28.577 69.634a.448.448 0 0 1 .022-.067l27.888-70.416a.463.463 0 0 1 .664-.238l23.172 13.19a.474.474 0 0 1 .116.724l-51.006 57.165a.467.467 0 0 1-.512.23.477.477 0 0 1-.346-.576l.002-.012zM152.044 333.656l-43.32-43.969 27.07 62.196 16.25-18.227zm-45.212-46.202a.475.475 0 0 1 .191-.284.461.461 0 0 1 .594.055l45.402 46.08c.174.176.182.461.014.648l-17.032 19.102a.465.465 0 0 1-.772-.123l-28.372-65.183a.481.481 0 0 1-.025-.295z"/>
            <path d="M107.475 288.257l-58.82 22.131 86.536 41.49-27.716-63.62zm-60.473 21.976a.473.473 0 0 1 .293-.337l60.27-22.677a.46.46 0 0 1 .589.25l28.4 65.188a.474.474 0 0 1-.631.617l-88.669-42.51a.472.472 0 0 1-.252-.531z"/>
            <path d="M135.626 352.883l-87.4-41.767 51.86 175.22 35.54-133.453zm-88.601-42.75a.475.475 0 0 1 .151-.25.462.462 0 0 1 .504-.068l88.698 42.388c.204.097.302.288.25.544l-36.067 135.436a.466.466 0 1 1-.899.013L47.032 310.37a.474.474 0 0 1-.007-.238z"/>
            <path d="M136.214 353.23l-34.572 129.747 55.602-119.018-21.03-10.73zm-36.85 134.66s.005-.014.006-.022l.003-.016 36.085-135.425a.468.468 0 0 1 .665-.297l21.95 11.2a.47.47 0 0 1 .214.616L100.27 488.13a.47.47 0 0 1-.906-.24z"/>
            <path d="M157.702 365.324L100.6 487.436l74.419-6.415-17.317-115.697zM99.371 487.868a.516.516 0 0 1 .032-.093l58.108-124.26a.47.47 0 0 1 .89.13l17.622 117.73a.476.476 0 0 1-.423.539l-75.596 6.516a.465.465 0 0 1-.286.024c-.256-.06-.437-.29-.35-.575l.003-.011z"/>
            <path d="M166.716 533.92l-66.244-46.514-8.355 46.864 74.6-.35zm-67.03-47.424a.473.473 0 0 1 .278-.329.464.464 0 0 1 .446.049l68.049 47.78a.476.476 0 0 1 .177.526.468.468 0 0 1-.445.329l-76.63.36a.467.467 0 0 1-.46-.552l8.581-48.14.004-.023z"/>
            <path d="M174.608 481.327l-73.356 6.535 66.352 46.662 7.004-53.197zm-75.131 6.076l.003-.015a.474.474 0 0 1 .414-.348l75.214-6.7a.467.467 0 0 1 .5.529l-7.18 54.543a.459.459 0 0 1-.275.37.462.462 0 0 1-.455-.045l-68.033-47.842a.47.47 0 0 1-.188-.492z"/>
            <path d="M99.71 487.058L47.688 312.56 21.148 546.517l78.563-59.46zM47.027 310.13a.465.465 0 0 1 .412-.36.465.465 0 0 1 .49.33l52.77 177a.468.468 0 0 1-.166.505l-79.688 60.311a.466.466 0 0 1-.745-.423l26.917-237.312.01-.051z"/>
            <path d="M99.614 487.734l-77.205 58.99 68.87-12.278 8.335-46.712zM20.137 547.42a.475.475 0 0 1 .174-.268l79.692-60.89a.458.458 0 0 1 .524-.027c.164.1.249.291.215.482l-8.603 48.216c-.019.186-.186.348-.38.382l-70.96 12.65a.457.457 0 0 1-.32.041c-.254-.058-.432-.285-.345-.574l.003-.012z"/>
            <path d="M20.973 547.195l-7.217 26.913 75.093-38.607-67.876 11.694zm-8.394 27.702l.002-.01 7.567-28.22a.467.467 0 0 1 .371-.336l71.156-12.26c.227-.039.45.093.523.31a.463.463 0 0 1-.226.56l-78.723 40.474a.468.468 0 0 1-.67-.518zM201.605 369.027l-47.213-33.824 26.817 39.62 20.396-5.796zm-49.543-35.855a.468.468 0 0 1 .73-.28l50.162 35.935a.478.478 0 0 1-.15.844l-21.669 6.156a.463.463 0 0 1-.513-.188l-28.491-42.093a.48.48 0 0 1-.07-.374z"/>
            <path d="M203.02 369.97l-20.641 5.547 21.052 33.88-.41-39.427zm-21.837 5.153a.463.463 0 0 1 .332-.341l21.844-5.87a.49.49 0 0 1 .414.08c.12.087.19.223.19.369l.436 41.72a.462.462 0 0 1-.345.447.484.484 0 0 1-.535-.21l-22.278-35.85a.459.459 0 0 1-.058-.345z"/>
            <path d="M225.257 423.643l-22.315-52.173.23 39.718 22.085 12.455zm-23.263-54.62a.473.473 0 0 1 .897-.078l23.784 55.61a.47.47 0 0 1-.668.594l-23.538-13.275a.468.468 0 0 1-.24-.408l-.247-42.335c0-.036.004-.072.012-.108z"/>
            <path d="M226.38 424.334l-49.832 55.33 65.993 13.02-16.161-68.35zm-51.186 55.523a.476.476 0 0 1 .108-.208l50.978-56.601a.467.467 0 1 1 .803.205l16.536 69.925a.468.468 0 0 1-.546.565L175.56 480.42a.465.465 0 0 1-.353-.311.458.458 0 0 1-.013-.252z"/>
            <path d="M263.32 440.346l-36.304-16.24 16.39 67.47 19.915-51.23zm-37.448-17.163a.459.459 0 0 1 .158-.254.481.481 0 0 1 .495-.064l37.59 16.816a.46.46 0 0 1 .249.593l-20.62 53.044a.469.469 0 0 1-.472.296.478.478 0 0 1-.43-.359l-16.97-69.86a.47.47 0 0 1 0-.212z"/>
            <path d="M241.634 494.253l-65.766-12.956-7.016 53.262 72.782-40.306zm-66.62-13.62a.467.467 0 0 1 .548-.357l67.519 13.3a.473.473 0 0 1 .133.875l-74.723 41.383a.465.465 0 0 1-.686-.474l7.202-54.683c.002-.015.004-.03.008-.044z"/>
            <path d="M263.742 440.95l-18.773 48.678 28.393-45.998-9.62-2.68zm-21.498 53.142a.398.398 0 0 1 .02-.064l20.754-53.816a.47.47 0 0 1 .565-.286l10.636 2.962a.475.475 0 0 1 .274.703l-31.357 50.8a.47.47 0 0 1-.892-.3zM274.542 445.416l-29.815 48.5 39.721-3.708-9.906-44.792zm-31.148 48.947a.455.455 0 0 1 .059-.14l30.901-50.269a.46.46 0 0 1 .843.141l10.269 46.424c.03.13.001.268-.078.377a.463.463 0 0 1-.332.191l-41.035 3.832a.464.464 0 0 1-.63-.545l.003-.01z"/>
            <path d="M242.535 494.63l-73.784 40.565 125.14 63.684-51.356-104.25zm-75.246 40.476a.47.47 0 0 1 .232-.307l74.992-41.231a.465.465 0 0 1 .367-.037.475.475 0 0 1 .28.24l52.199 105.96a.474.474 0 0 1-.09.543.468.468 0 0 1-.543.085L167.533 535.63a.47.47 0 0 1-.244-.525z"/>
            <path d="M284.087 490.755l-40.63 3.712 50.77 102.972-10.14-106.684zm-41.812 3.2a.47.47 0 0 1 .416-.362l41.778-3.817a.469.469 0 0 1 .508.423l10.428 109.696a.471.471 0 0 1-.889.254l-52.204-105.88a.479.479 0 0 1-.037-.314zM45.946 311.678L-108.54 516.47l127.81 30.295 26.675-235.088zm-155.743 204.977a.47.47 0 0 1 .083-.177L46.231 309.75a.467.467 0 0 1 .834.334L20.138 547.395a.468.468 0 0 1-.571.4l-129.017-30.58a.465.465 0 0 1-.33-.296.458.458 0 0 1-.017-.263z"/>
            <path d="M54.379 297.467L48.37 309.61l54.336-20.663-48.328 8.521zM46.97 310.37a.553.553 0 0 1 .037-.105l6.645-13.431a.473.473 0 0 1 .34-.257l53.46-9.426a.463.463 0 0 1 .527.343.478.478 0 0 1-.29.567l-60.106 22.857a.46.46 0 0 1-.508-.126.476.476 0 0 1-.105-.422zM293.062 601.055l-148.55 64.879 46.808 42.021 101.742-106.9zm-149.857 64.634a.464.464 0 0 1 .269-.322l151.337-66.096a.464.464 0 0 1 .568.16.47.47 0 0 1-.045.592L191.683 708.929a.468.468 0 0 1-.65.026l-47.685-42.81a.469.469 0 0 1-.149-.424c.003-.01.004-.02.006-.032z"/>
            <path d="M293.902 599.622l-125.777-63.864-24.691 129.231 150.468-65.367zm-126.577-64.67a.468.468 0 0 1 .668-.312l127.224 64.597a.467.467 0 0 1-.025.848l-152.198 66.12a.469.469 0 0 1-.648-.52L167.32 534.97l.004-.017zM17.848 547.883l-122.119-28.928 91.413 38.64 30.706-9.712zm-127.76-30.73a.462.462 0 0 1 .56-.339l129.02 30.563a.465.465 0 0 1 .361.427c.01.203-.12.389-.318.452l-32.44 10.26a.482.482 0 0 1-.33-.016l-96.578-40.823a.46.46 0 0 1-.275-.523z"/>
            <path d="M19.038 547.825L-12.298 558.1l24.007 17.084 7.329-27.36zM-13.8 557.837a.477.477 0 0 1 .315-.345l33.06-10.842a.477.477 0 0 1 .474.106.51.51 0 0 1 .131.468l-7.733 28.865a.474.474 0 0 1-.731.264l-25.327-18.023a.472.472 0 0 1-.196-.458l.007-.035zM142.782 666.24l-39.306 19.812 64.498 53.66-25.192-73.473zm-40.612 19.61a.467.467 0 0 1 .245-.314l40.427-20.378a.468.468 0 0 1 .653.267l25.91 75.565a.47.47 0 0 1-.745.513l-66.333-55.187a.467.467 0 0 1-.167-.413l.01-.053z"/>
            <path d="M190.43 708.63l-45.742-41.363 24.582 72.872 21.16-31.508zm-47.208-43.014a.473.473 0 0 1 .197-.286.46.46 0 0 1 .566.04l47.368 42.833a.47.47 0 0 1 .073.613l-21.911 32.628a.47.47 0 0 1-.447.203.465.465 0 0 1-.377-.313l-25.456-75.46a.47.47 0 0 1-.013-.258z"/>
            <path d="M143.217 665.564l-35.51-45.887-3.422 65.504 38.932-19.617zm-36.365-47.27a.469.469 0 0 1 .314-.34.469.469 0 0 1 .51.16l36.623 47.326c.086.109.118.253.087.388v.002a.467.467 0 0 1-.245.312l-40.152 20.233a.468.468 0 0 1-.675-.442l3.527-67.558a.458.458 0 0 1 .011-.082z"/>
            <path d="M91.276 535.211l-77.312 40.387 92.028 40.893-14.716-81.28zm-78.843 40.317a.474.474 0 0 1 .24-.313l78.733-41.128a.466.466 0 0 1 .674.33l14.988 82.776a.466.466 0 1 1-.648.514l-93.722-41.646a.474.474 0 0 1-.265-.533z"/>
            <path d="M167.088 535.587l-75.243.35 14.73 81.341 60.513-81.69zm-76.259-.222a.473.473 0 0 1 .455-.366l76.736-.355a.463.463 0 0 1 .418.259.466.466 0 0 1-.044.49l-61.712 83.312a.467.467 0 0 1-.834-.194l-15.023-82.957a.48.48 0 0 1 .004-.189z"/>
            <path d="M168.033 537.231l-60.156 81.225 35.724 46.453 24.432-127.678zm-61.196 81.126a.45.45 0 0 1 .081-.174L168.5 535.03a.466.466 0 0 1 .831.368l-25.01 130.708a.446.446 0 0 1-.35.368.467.467 0 0 1-.477-.168L106.92 618.75a.476.476 0 0 1-.084-.393z"/>
        </g>
        <path fill="url(#a)" d="M427.236 619.074l38.121-50.002 1.464 14.405-39.585 35.597zm-73.721-283.467l134.518-46.341-22.655 276.655-111.863-230.314zM170.669 521.13l9.32-7.156.116 10.653.554 51.055-35.237-35.168 25.247-19.384zm8.93-8.108l-34.838 26.75-70.65-90.913L179.6 513.021zm-6.535-214.025l24.29-40.546 34.897 61.952-59.187-21.406zm121.785 88.075l-60.506-65.395 108.032-16.069-47.526 81.464zm-149.347-91.787l25.98 4.335-24.565 36.207-73.884 108.892 31.272-156.309 41.197 6.875zm207.522 39.013l-9.012-28.8 31.389 1.68-22.377 27.12zm135.058-46.168l-104.291 16.904 103.896-31.218.395 14.314zm-126.566 292.69l103.102-12.415-41.098 53.907-41.903-28.04-20.1-13.451zm102.698-15.02L315.476 436.43l16.398-43.772 21.008-56.077 23.452 48.284 87.88 180.935zM343.186 306.186l9.069 28.98-26.35 23.937-28.909 26.26 28.287-48.487 17.903-30.69zm45.65 16.204l-34.507 11.888 22.346-27.085 106.278-17.228-94.118 32.425zM224.081 433.1l-43.791 79.18-106.693-64.897 150.484-14.283zm240.474 134.31l-104.079 12.533-44.586-141.837 101.399 88.194 47.266 41.11zm-214.669-78.508l14.413 76.474-27.637 1.385 13.224-77.859zm-57.83 20.115l57.169-22.153-13.486 79.406-54.366-53.113 10.683-4.14zm32.21-76.932l-88.646 8.415-62.556 5.937 99.146-146.123 41.861 105.965 10.194 25.806zm.37-1.764l-51.444-130.223 59.623 21.563-8.178 108.66zm.904 1.244l8.21-109.068 60.422 65.304-68.632 43.764zm80.092 154l-36.458-18.145 25.508 6.344 36.191 9.002-23.977 2.66-1.264.14zM351.64 337.07l-36.769 98.148-19.339-47.182 5.798-5.266 50.31-45.7zm-126.707 96.544l22.362 48.125 1.894 4.077-67.616 26.202 26.87-48.589 16.49-29.815zm69.775-44.974l19.428 47.408-17.244-.778-70.33-3.177 24.254-15.466 43.892-27.987zm39.408 193.776l-18.018-140.342 19.384 61.667 23.988 76.31-12.772 1.191-12.582 1.174zm-68.79-16.975l-14.634-77.637 81.593 94.292-35.38-8.8-31.58-7.855zm67.657 15.944l-34.538-39.912-47.86-55.31 63.922-48.669 13.447 104.731 5.03 39.16zM313.5 437.013l-54.085 41.176-9.363 7.128-24.286-52.266 24.922 1.124 62.812 2.838zm46.029 144.028l-4.316 25.41-14.547-16.381-5.96-6.712 13.066-1.22 11.757-1.097zm-54.792 5.188L289.432 603.2l-23.15-36.11 38.455 19.139zm28.746-2.753l20.197 22.743-46.214-19.856 26.017-2.887zM172.195 298.515l-65.297-52.275 89.654 11.616-24.357 40.659zm-55.075-42.819l53.41 42.758-66.108-11.032 1.249-40.892 11.449 9.166zm64.348 302.982l-.438-40.368 10.907 54.814-10.279 3.102-.19-17.548zm6.765-9.264l-6.958-34.965 53.728 52.49-42.094 5.973-4.676-23.498zm66.946 17.414l9.452-.473 22.984 35.853-50.058-34.496 17.622-.884zm46.267 24.533l4.228-4.688 47.099 20.237-62.343-3.333 11.016-12.216zm119.686 30.547l-65.035-14.734.467-2.746 3.924-23.102 23.026 15.408 37.618 25.174zm67.54-348.396l12.955-4.167-12.581 17.704-.24-8.677-.134-4.86zm14.63-4.809a.491.491 0 0 0-.005-.58.489.489 0 0 0-.553-.18l-14.73 4.737v.001l-111.662 33.552-33-1.764c-.022-.002-.04.009-.06.01-.014 0-.026-.007-.04-.005l-109.645 16.31-35.807-63.567c-.016-.027-.045-.041-.064-.065-.031-.037-.059-.076-.1-.102-.032-.021-.068-.027-.104-.041-.035-.013-.064-.036-.101-.04l-92.162-11.94h-.002a.487.487 0 0 0-.271.042c-.008.004-.012.014-.02.018-.023.012-.036.033-.057.049a.472.472 0 0 0-.144.16c-.007.012-.022.017-.028.03-.009.022.001.047-.005.07-.01.038-.032.07-.034.11l-1.29 42.272L71.58 446.92l-.001.001v.003l-.002.01c-.002.013 0 .025-.001.037-.002.016-.008.03-.01.046v.001c0 .016.007.032.008.047a.626.626 0 0 0 .03.145l.012.026c.005.014.01.027.018.04l.002.008c.004.007.011.01.015.016.008.012.011.025.02.037l72.607 93.432c.007.01.018.013.026.021.006.008.008.018.016.026l36.498 36.427c.01.01.024.014.034.023.009.007.013.02.023.027.01.007.024.004.033.01.08.05.166.085.262.085h.03c.075 0 .143-.02.208-.05l11.218-3.384 43.321-6.146 53.13 36.612.001.002.005.003c.004.003.008 0 .012.004a.5.5 0 0 0 .228.082h.012l.003.002 66.118 3.533 68.064 15.42c.037.01.08.01.106.013h.005l.012.002.007-.001a.49.49 0 0 0 .378-.187l43.646-39.246a.503.503 0 0 0 .16-.42l-1.605-15.803c.002-.018.01-.034.01-.053 0-.023-.008-.043-.011-.066l22.846-278.981 14.228-20.02z" transform="rotate(-118 48.842 434.561)"/>
    </g>
</svg>
