<svg xmlns="http://www.w3.org/2000/svg" xmlns:xlink="http://www.w3.org/1999/xlink" width="207" height="1440" viewBox="0 0 207 1440">
    <defs>
        <path id="a" d="M0 0h300v1600H0z"/>
        <linearGradient id="c" x1="96.093%" x2="1.381%" y1="98.087%" y2=".702%">
            <stop offset="0%" stop-color="#A19062"/>
            <stop offset="100%" stop-color="#ECE4C8"/>
        </linearGradient>
        <linearGradient id="d" x1="96.093%" x2="1.381%" y1="98.087%" y2=".702%">
            <stop offset="0%" stop-color="#A19062"/>
            <stop offset="22.309%" stop-color="#ECE4C8"/>
            <stop offset="44.681%" stop-color="#A19062"/>
            <stop offset="65.472%" stop-color="#ECE4C8"/>
            <stop offset="82.119%" stop-color="#A19062"/>
            <stop offset="100%" stop-color="#ECE4C8"/>
        </linearGradient>
    </defs>
    <g fill="none" fill-rule="evenodd" transform="translate(0 -62)">
        <mask id="b" fill="#fff">
            <use xlink:href="#a"/>
        </mask>
        <g mask="url(#b)">
            <g fill="#EEE9DC">
                <path d="M89.211 1165.734l-13.222 14.884 16.923 8.71-3.7-23.594zM74.99 1180.65a.4.4 0 0 1 .089-.174l14.101-15.874a.385.385 0 0 1 .668.197l3.948 25.163a.399.399 0 0 1-.156.38.38.38 0 0 1-.403.034l-18.048-9.29a.386.386 0 0 1-.2-.436z"/>
                <path d="M112.055 1198.61l-21.416-31.963 3.606 23.173 17.81 8.79zm-22.437-33.712a.398.398 0 0 1 .232-.277.378.378 0 0 1 .46.141l23.196 34.62a.395.395 0 0 1-.028.476.381.381 0 0 1-.46.098l-19.292-9.522a.383.383 0 0 1-.21-.287l-3.904-25.099a.393.393 0 0 1 .006-.15z"/>
                <path d="M113.272 1199.72l-17.306-8.434 33.302 34.798-15.996-26.364zm-19.438-9.803a.384.384 0 0 1 .543-.257l19.332 9.423a.388.388 0 0 1 .161.145l17.87 29.451a.384.384 0 0 1-.606.462l-37.203-38.874a.382.382 0 0 1-.097-.35z"/>
                <path d="M130.912 1229.191l-36.147-38.04 13.891 94.103 22.256-56.063zm-37.078-39.272a.385.385 0 0 1 .653-.18l37.151 39.098c.103.11.132.268.079.41l-22.876 57.62a.383.383 0 1 1-.737-.086l-14.276-96.718a.405.405 0 0 1 .006-.144z"/>
                <path d="M131.063 1229.098l-22.017 55.593 40.312-45.181-18.295-10.412zm-23.547 57.38a.37.37 0 0 1 .018-.055l22.98-58.024a.382.382 0 0 1 .547-.196l19.094 10.868a.39.39 0 0 1 .095.597l-42.03 47.104a.385.385 0 0 1-.422.19.393.393 0 0 1-.285-.474l.003-.01zM88.655 1165.077l-35.697-36.23 22.305 51.25 13.392-15.02zm-37.256-38.071a.391.391 0 0 1 .157-.234.38.38 0 0 1 .49.045l37.412 37.971a.39.39 0 0 1 .011.534l-14.034 15.74a.383.383 0 0 1-.636-.101l-23.38-53.712a.396.396 0 0 1-.02-.243z"/>
                <path d="M51.928 1127.668L3.46 1145.904l71.307 34.188-22.839-52.424zm-49.83 18.108a.39.39 0 0 1 .241-.278l49.664-18.686a.38.38 0 0 1 .485.207l23.402 53.715a.39.39 0 0 1-.52.509l-73.064-35.03a.39.39 0 0 1-.208-.437z"/>
                <path d="M75.125 1180.92l-72.018-34.417 42.733 144.385 29.285-109.967zm-73.008-35.226a.392.392 0 0 1 .125-.207.38.38 0 0 1 .415-.056l73.088 34.93c.168.08.249.236.206.448l-29.72 111.6a.384.384 0 1 1-.74.011L2.121 1145.89a.39.39 0 0 1-.005-.196z"/>
                <path d="M75.61 1181.206L47.122 1288.12l45.817-98.073-17.329-8.841zm-30.365 110.963l.005-.019.003-.013 29.734-111.593a.385.385 0 0 1 .548-.244l18.088 9.229c.186.094.262.32.175.507l-47.806 102.33a.387.387 0 0 1-.747-.197z"/>
                <path d="M93.317 1191.172l-47.054 100.623 61.323-5.287-14.269-95.336zM45.251 1292.15a.425.425 0 0 1 .026-.076l47.882-102.392a.388.388 0 0 1 .734.107l14.52 97.012a.392.392 0 0 1-.348.443l-62.293 5.37a.383.383 0 0 1-.235.02c-.212-.05-.36-.24-.288-.475l.002-.009z"/>
                <path d="M100.745 1330.098l-54.587-38.328-6.885 38.616 61.472-.288zM45.51 1291.02a.39.39 0 0 1 .228-.271.383.383 0 0 1 .368.04l56.073 39.372a.392.392 0 0 1 .147.433c-.05.161-.2.27-.367.271l-63.145.297a.385.385 0 0 1-.38-.455l7.072-39.669.004-.018z"/>
                <path d="M107.247 1286.76l-60.446 5.386 54.675 38.45 5.771-43.835zm-61.909 5.008l.003-.013a.39.39 0 0 1 .34-.287l61.978-5.521a.384.384 0 0 1 .413.436l-5.917 44.944a.378.378 0 0 1-.226.305.38.38 0 0 1-.376-.036l-56.06-39.424a.388.388 0 0 1-.155-.404z"/>
                <path d="M45.53 1291.483l-42.867-143.79-21.87 192.786 64.738-48.996zM2.118 1145.692a.383.383 0 0 1 .34-.296.383.383 0 0 1 .404.272l43.483 145.85a.386.386 0 0 1-.137.417l-65.664 49.697a.384.384 0 0 1-.614-.349l22.18-195.549a.605.605 0 0 1 .008-.042z"/>
                <path d="M45.451 1292.04l-63.618 48.609 56.75-10.117 6.868-38.492zm-65.49 49.182a.391.391 0 0 1 .143-.222l65.668-50.174a.378.378 0 0 1 .431-.022c.135.083.205.24.177.397l-7.088 39.73c-.016.154-.154.288-.313.316l-58.473 10.424a.377.377 0 0 1-.263.034c-.21-.049-.357-.235-.285-.473l.002-.01z"/>
                <path d="M-19.35 1341.037l-5.947 22.177L36.58 1331.4l-55.93 9.636zm-6.917 22.827l.001-.008 6.236-23.254a.385.385 0 0 1 .306-.277l58.634-10.102a.386.386 0 0 1 .43.254.381.381 0 0 1-.186.462l-64.87 33.351a.386.386 0 0 1-.551-.426zM129.494 1194.224l-38.905-27.872 22.098 32.647 16.807-4.775zm-40.825-29.546a.386.386 0 0 1 .602-.231l41.334 29.612a.394.394 0 0 1-.123.695l-17.856 5.073a.382.382 0 0 1-.423-.156l-23.477-34.684a.396.396 0 0 1-.057-.309z"/>
                <path d="M130.66 1195l-17.01 4.571 17.348 27.919-.338-32.49zm-17.995 4.247a.382.382 0 0 1 .274-.281l18-4.838a.404.404 0 0 1 .341.066.38.38 0 0 1 .157.305l.358 34.377a.38.38 0 0 1-.283.369.399.399 0 0 1-.442-.173l-18.357-29.541a.378.378 0 0 1-.048-.284z"/>
                <path d="M148.983 1239.228l-18.387-42.992.19 32.73 18.197 10.262zm-19.169-45.008a.39.39 0 0 1 .739-.064l19.598 45.823a.388.388 0 0 1-.55.49l-19.395-10.94a.386.386 0 0 1-.198-.335l-.204-34.885c0-.03.004-.06.01-.089z"/>
                <path d="M149.908 1239.797l-41.062 45.593 54.38 10.73-13.318-56.323zm-42.178 45.752a.392.392 0 0 1 .09-.171l42.006-46.64a.385.385 0 1 1 .662.169l13.626 57.619a.386.386 0 0 1-.45.465l-55.632-10.978a.383.383 0 0 1-.29-.256.377.377 0 0 1-.012-.208z"/>
                <path d="M180.348 1252.992l-29.916-13.383 13.506 55.598 16.41-42.215zm-30.858-14.143a.378.378 0 0 1 .13-.21.397.397 0 0 1 .408-.052l30.974 13.856c.19.084.285.302.206.489l-16.991 43.71a.386.386 0 0 1-.389.244.394.394 0 0 1-.354-.296l-13.984-57.567a.388.388 0 0 1 0-.174z"/>
                <path d="M162.478 1297.412l-54.193-10.676-5.78 43.889 59.973-33.213zm-54.896-11.224a.385.385 0 0 1 .452-.295l55.636 10.961a.39.39 0 0 1 .11.72l-61.573 34.1a.383.383 0 0 1-.565-.39l5.934-45.059a.454.454 0 0 1 .006-.037z"/>
                <path d="M180.695 1253.49l-15.47 40.11 23.398-37.903-7.928-2.208zm-17.714 43.789a.328.328 0 0 1 .016-.053l17.102-44.345a.388.388 0 0 1 .465-.236l8.765 2.441a.392.392 0 0 1 .226.58l-25.84 41.86a.387.387 0 0 1-.734-.247zM189.595 1257.169l-24.568 39.965 32.73-3.056-8.162-36.91zm-25.667 40.333c.01-.04.026-.079.049-.116l25.463-41.422a.38.38 0 0 1 .695.116l8.461 38.255a.383.383 0 0 1-.064.31.381.381 0 0 1-.273.158l-33.814 3.158a.383.383 0 0 1-.519-.45l.002-.009z"/>
                <path d="M163.22 1297.722l-60.799 33.427 103.118 52.476-42.318-85.903zm-62.003 33.354a.387.387 0 0 1 .19-.254l61.795-33.975a.383.383 0 0 1 .303-.03c.1.032.183.104.23.198l43.013 87.312a.39.39 0 0 1-.074.448.386.386 0 0 1-.447.07l-104.81-53.337a.388.388 0 0 1-.2-.432z"/>
                <path d="M197.46 1294.53l-33.48 3.058 41.836 84.851-8.356-87.91zm-34.453 2.636a.387.387 0 0 1 .343-.298l34.425-3.145a.386.386 0 0 1 .419.348l8.592 90.391a.388.388 0 0 1-.732.21l-43.017-87.247a.394.394 0 0 1-.03-.259zM1.227 1146.967l-127.298 168.752 105.318 24.964 21.98-193.716zm-128.334 168.905a.387.387 0 0 1 .068-.147L1.462 1145.38a.385.385 0 0 1 .688.276L-20.038 1341.2a.386.386 0 0 1-.471.33l-106.312-25.199a.383.383 0 0 1-.272-.244.377.377 0 0 1-.014-.216z"/>
                <path d="M8.176 1135.257l-4.95 10.005L48 1128.235l-39.824 7.022zm-6.104 10.63a.455.455 0 0 1 .03-.085l5.476-11.068a.39.39 0 0 1 .281-.212l44.052-7.767a.382.382 0 0 1 .434.283.394.394 0 0 1-.24.467L2.578 1146.34a.378.378 0 0 1-.418-.104.392.392 0 0 1-.087-.348zM204.856 1385.418L82.448 1438.88l38.57 34.626 83.838-88.088zm-123.485 53.26a.382.382 0 0 1 .221-.265l124.705-54.465a.383.383 0 0 1 .468.133.388.388 0 0 1-.037.487l-85.41 89.74a.385.385 0 0 1-.536.022l-39.294-35.276a.386.386 0 0 1-.122-.35l.005-.026z"/>
                <path d="M205.548 1384.237l-103.642-52.625-20.346 106.49 123.988-53.865zm-104.302-53.289a.386.386 0 0 1 .55-.257l104.835 53.23a.385.385 0 0 1-.02.698l-125.414 54.484a.386.386 0 0 1-.534-.428l20.58-107.713.003-.014z"/>
                <path d="M81.023 1439.131l-32.39 16.327 53.148 44.216-20.758-60.543zm-33.466 16.16a.385.385 0 0 1 .203-.258l33.312-16.792a.386.386 0 0 1 .538.22l21.35 62.266a.387.387 0 0 1-.614.422l-54.66-45.474a.385.385 0 0 1-.129-.384z"/>
                <path d="M120.286 1474.063l-37.693-34.084 20.256 60.047 17.437-25.963zm-38.901-35.445a.39.39 0 0 1 .162-.236.38.38 0 0 1 .466.034l39.032 35.294c.144.13.17.343.06.505l-18.054 26.887a.387.387 0 0 1-.369.167.383.383 0 0 1-.31-.258l-20.976-62.181a.388.388 0 0 1-.011-.212z"/>
                <path d="M81.381 1438.575l-29.262-37.812-2.819 53.977 32.081-16.165zm-29.965-38.952a.386.386 0 0 1 .258-.28.386.386 0 0 1 .42.132l30.179 38.998a.384.384 0 0 1-.13.578l-33.087 16.673a.385.385 0 0 1-.556-.364l2.906-55.67a.377.377 0 0 1 .01-.067z"/>
                <path d="M38.58 1331.162l-63.706 33.28 75.833 33.696-12.127-66.976zm-64.967 33.222a.39.39 0 0 1 .198-.258l64.877-33.89a.384.384 0 0 1 .555.272l12.35 68.209a.384.384 0 1 1-.534.423l-77.228-34.317a.39.39 0 0 1-.218-.44z"/>
                <path d="M101.05 1331.472l-62 .288 12.137 67.026 49.864-67.314zm-62.838-.183a.39.39 0 0 1 .375-.301l63.232-.293a.382.382 0 0 1 .345.213.384.384 0 0 1-.037.404l-50.852 68.65a.385.385 0 0 1-.687-.16l-12.379-68.357a.396.396 0 0 1 .003-.156z"/>
                <path d="M101.83 1332.826l-49.57 66.93 29.437 38.28 20.132-105.21zm-50.427 66.85a.371.371 0 0 1 .067-.144l50.745-68.52a.384.384 0 0 1 .684.304L82.29 1439.02a.367.367 0 0 1-.288.304.385.385 0 0 1-.393-.138l-30.136-39.188a.392.392 0 0 1-.07-.323z"/>
            </g>
            <path fill="url(#c)" d="M352.05 403.128l31.412-41.203 1.207 11.87-32.62 29.333zm-60.748-233.582l110.845-38.186-18.667 227.969-92.178-189.783zM140.634 322.42l7.68-5.896.096 8.778.456 42.07-29.036-28.979 20.804-15.973zm7.358-6.68l-28.707 22.042-58.216-74.914 86.923 52.872zm-5.384-176.36l20.015-33.412 28.756 51.05-48.771-17.639zm100.353 72.574l-49.858-53.886 89.02-13.241-39.162 67.127zM119.897 136.32l21.407 3.573-20.242 29.834-60.882 89.73L85.95 130.654l33.948 5.665zm171.001 32.148l-7.426-23.731 25.865 1.383-18.439 22.348zm111.29-38.044l-85.938 13.93 85.613-25.725.325 11.795zM297.896 371.606l84.958-10.231-33.866 44.42-34.53-23.106-16.562-11.083zm84.624-12.378L259.958 252.626l13.512-36.07 17.311-46.208 19.325 39.787 72.414 149.093zm-99.728-213.925l7.472 23.88-21.713 19.724-23.82 21.64 23.308-39.955 14.753-25.289zm37.615 13.352l-28.434 9.796 18.414-22.319 87.575-14.196-77.555 26.719zm-135.76 91.228l-36.084 65.246-87.917-53.476 124.001-11.77zm198.155 110.674l-85.762 10.327-36.74-116.876 83.554 72.674 38.948 33.875zm-176.89-64.692l11.876 63.016-22.773 1.14 10.897-64.156zm-47.654 16.575l47.109-18.254-11.113 65.432-44.798-43.766 8.802-3.412zm26.541-63.393l-73.045 6.933-51.547 4.893 81.698-120.408 34.494 87.317 8.4 21.265zm.306-1.454l-42.39-107.306 49.13 17.769-6.74 89.537zm.744 1.025l6.766-89.874 49.789 53.811-56.555 36.063zm65.998 126.9l-30.042-14.954 21.02 5.229 29.821 7.417-19.758 2.192-1.04.115zm37.91-204.767l-30.298 80.875-15.936-38.879 4.778-4.339 41.456-37.657zm-104.41 79.554l18.428 39.656 1.56 3.36-55.717 21.59 22.142-40.038 13.588-24.568zm57.497-37.06l16.009 39.066-14.21-.641-57.952-2.619 19.985-12.744 36.168-23.062zm32.473 159.675l-14.848-115.644 15.973 50.815 19.767 62.88-10.524.982-10.368.967zm-56.685-13.988l-12.058-63.974 67.234 77.698-29.153-7.25-26.023-6.474zm55.751 13.139l-28.46-32.889-39.438-45.576 52.673-40.104 11.081 86.3 4.144 32.269zM258.33 253.106l-44.566 33.93-7.716 5.874-20.012-43.069 20.536.927 51.758 2.338zm37.93 118.682l-3.557 20.938-11.987-13.498-4.911-5.53 10.766-1.006 9.688-.904zm-45.15 4.275l-12.612 13.984-19.075-29.756 31.686 15.772zm23.687-2.268l16.642 18.74-38.081-16.362 21.439-2.378zM141.892 138.982L88.086 95.906l73.876 9.572-20.07 33.504zm-45.383-35.284l44.01 35.234-54.474-9.091 1.03-33.696 9.434 7.553zm53.024 249.663l-.361-33.264 8.987 45.168-8.47 2.556-.156-14.46zm5.574-7.634l-5.733-28.812 44.272 43.253-34.685 4.922-3.854-19.363zm55.165 14.35l7.789-.39L237 389.23l-41.25-28.425 14.52-.729zm38.125 20.215l3.484-3.863 38.81 16.676-51.372-2.747 9.078-10.066zm98.623 25.171l-53.59-12.14.385-2.264 3.234-19.036 18.974 12.696 30.997 20.744zm55.654-287.084l10.676-3.434-10.368 14.588-.197-7.15-.11-4.004zm12.055-3.963a.405.405 0 0 0-.004-.478.403.403 0 0 0-.455-.148l-12.138 3.903v.001l-92.011 27.647-27.193-1.453c-.018-.002-.032.007-.049.009-.012 0-.022-.007-.033-.005l-90.35 13.44-29.505-52.38c-.013-.023-.037-.035-.053-.054-.026-.03-.049-.063-.082-.085-.027-.017-.057-.022-.086-.033-.029-.01-.052-.03-.084-.034l-75.943-9.838h-.001a.401.401 0 0 0-.224.035c-.006.003-.01.012-.016.015-.019.01-.03.027-.047.04a.389.389 0 0 0-.118.132c-.006.01-.018.014-.023.024-.008.019 0 .04-.004.059-.009.03-.027.056-.029.09l-1.062 34.833-26.236 131.133v.004l-.002.01c-.002.01 0 .019-.001.029-.002.013-.007.025-.008.038 0 .014.005.027.006.04a.516.516 0 0 0 .025.119l.01.021c.004.011.008.023.015.034 0 .002 0 .004.002.006.003.006.009.008.012.013.006.01.009.02.016.03l59.83 76.99c.005.008.014.011.02.018.006.006.007.014.014.02l30.075 30.018c.008.008.02.011.028.018.007.006.01.017.019.023.008.005.02.003.028.009.065.04.136.07.215.07l.003-.002v.001h.022a.405.405 0 0 0 .171-.04l9.244-2.79 35.698-5.065 43.779 30.17.002.001.004.002c.003.003.006.001.01.004.057.037.12.062.187.068h.01l.003.001 54.482 2.912 56.086 12.707c.03.007.066.008.087.01h.005l.01.001h.005a.403.403 0 0 0 .312-.154l35.965-32.34a.415.415 0 0 0 .132-.346l-1.323-13.022c.002-.015.008-.028.008-.044 0-.019-.006-.035-.009-.054l18.826-229.885 11.723-16.498z" transform="rotate(-118 376.501 727.613)"/>
            <path fill="url(#c)" d="M364.372 427.548l31.43-49.65 1.207 14.304-32.637 35.346zM303.59 146.074l110.908-46.016-18.679 274.711-92.229-228.695zM152.837 330.291l7.685-7.105.095 10.579.457 50.696-29.052-34.921 20.815-19.249zm7.363-8.05l-28.724 26.562-58.249-90.274L160.2 322.24zm-5.388-212.52l20.027-40.262 28.772 61.517-48.799-21.256zm100.41 87.455l-49.886-64.935 89.07-15.957-39.184 80.892zm-123.134-91.142l21.42 4.305-20.254 35.952-60.916 108.127 25.783-155.21 33.967 6.826zm171.098 38.74l-7.43-28.598 25.879 1.667-18.449 26.93zm111.353-45.845l-85.987 16.786 85.66-31 .327 14.214zM310.187 389.563l85.006-12.329-33.885 53.529-34.548-27.844-16.573-13.356zm84.673-14.915l-122.632-128.46 13.52-43.465 17.32-55.683 19.337 47.945 72.455 179.663zM295.075 116.86l7.476 28.776-21.725 23.769-23.834 26.075 23.322-48.146 14.761-30.474zm37.637 16.09l-28.45 11.804 18.424-26.895 87.624-17.106-77.598 32.196zM196.875 242.882l-36.104 78.623-87.967-64.44 124.071-14.183zm198.267 133.366l-85.811 12.445-36.76-140.84 83.6 87.574 38.97 40.821zm-176.99-77.956l11.883 75.936-22.786 1.375 10.903-77.311zm-47.68 19.973l47.134-21.997-11.119 78.848-44.823-52.74 8.808-4.11zm26.556-76.391l-73.087 8.355-51.576 5.896L154.11 111.03l34.514 105.22 8.405 25.625zm.306-1.752l-42.415-129.308 49.158 21.412-6.743 107.896zm.744 1.235l6.77-108.301 49.816 64.844-56.586 43.457zm66.035 152.919l-30.06-18.019 21.032 6.3 29.839 8.938-19.77 2.642-1.04.139zm37.93-246.752l-30.314 97.458-15.945-46.85 4.78-5.23 41.48-45.378zm-104.467 95.866l18.438 47.787 1.561 4.048-55.748 26.018 22.154-48.248 13.595-29.605zm57.529-44.658l16.018 47.075-14.218-.772-57.985-3.155 19.996-15.358 36.189-27.79zm32.491 192.414L272.74 251.791l15.982 61.234 19.778 75.773-10.53 1.184-10.374 1.165zm-56.717-16.856L218.814 297.2l67.272 93.63-29.17-8.739-26.037-7.8zm55.783 15.833l-28.476-39.632-39.46-54.922 52.702-48.326 11.087 103.995 4.147 38.885zm-16.063-143.357l-44.592 40.886-7.72 7.079-20.023-51.9 20.548 1.117 51.787 2.818zm37.95 143.016l-3.558 25.231-11.994-16.266-4.914-6.665 10.772-1.21 9.694-1.09zm-45.175 5.151l-12.619 16.852-19.086-35.857 31.705 19.005zm23.7-2.733l16.652 22.582-38.102-19.716 21.45-2.866zM154.097 109.242L100.26 57.335l73.917 11.534-20.081 40.373zm-45.409-42.518l44.036 42.458-54.505-10.955 1.03-40.604 9.439 9.101zm53.054 300.853l-.361-40.084 8.993 54.429-8.475 3.08-.157-17.425zm5.577-9.199l-5.736-34.719 44.298 52.121-34.706 5.93-3.856-23.332zm55.196 17.292l7.793-.47 18.95 35.6-41.271-34.252 14.528-.878zm38.147 24.36l3.486-4.655 38.832 20.095-51.4-3.31 9.082-12.13zm98.679 30.333l-53.62-14.63.384-2.728 3.236-22.94 18.985 15.3 31.015 24.998zm55.685-345.948l10.681-4.137-10.373 17.579-.197-8.616-.11-4.826zm12.062-4.775a.57.57 0 0 0-.004-.576c-.104-.173-.286-.247-.456-.179l-12.145 4.704v.001l-92.063 33.316-27.208-1.752c-.017-.002-.032.01-.048.011-.013 0-.023-.008-.034-.006l-90.4 16.195-29.522-63.12c-.013-.026-.037-.04-.054-.064-.025-.037-.048-.075-.081-.102-.027-.02-.057-.026-.086-.04-.029-.013-.053-.036-.084-.04L98.916 56.132l-.001.001a.341.341 0 0 0-.224.041c-.006.004-.01.014-.016.018-.02.012-.03.033-.047.048a.45.45 0 0 0-.119.16c-.005.01-.018.016-.023.029-.007.022.001.047-.004.07-.008.037-.027.069-.028.108L97.39 98.583l-26.25 158.02-.001.002v.003l-.002.011c-.002.012 0 .024-.001.036-.002.015-.007.03-.007.046v.001c0 .016.005.031.005.046a.743.743 0 0 0 .025.144l.01.026c.005.014.009.027.015.04l.002.008c.003.007.009.01.012.016.007.012.01.024.017.036l59.863 92.776c.005.009.014.013.02.02.006.009.007.018.014.026l30.092 36.172c.008.01.02.014.028.022.008.007.01.02.019.027.008.007.02.004.028.01a.36.36 0 0 0 .215.085l.003-.001h.023a.35.35 0 0 0 .17-.049l9.25-3.36 35.717-6.104 43.804 36.355.002.002.004.003c.003.003.006.001.01.004.057.044.12.075.187.082h.01c.002 0 .002.002.003.002l54.513 3.508 56.117 15.312c.031.01.066.01.088.012l.004.001.01.001h.005c.127 0 .237-.076.312-.186l35.986-38.97a.559.559 0 0 0 .132-.418l-1.324-15.69c.002-.02.008-.035.008-.054 0-.023-.006-.043-.009-.065l18.837-277.02 11.73-19.881z" transform="scale(-1 1) rotate(43 -85.052 -5.68)"/>
            <path fill="url(#d)" d="M470.424 68.174l-9.565-32.53 36.204 24.586-26.639 7.944zm-46.258 40.858l46.206-40.249 25.615-7.64-71.82 47.889zm5.89-50.123l39.576 9.764-48.567 42.306 8.99-52.07zm-9.4 51.09l-9.07-55.648 17.915 4.42L420.656 110zm-34.462-84.95l24.774 29.047 8.985 55.125-33.76-84.171zm49.886-5.828l-24.862 34.292-25.363-29.735 50.225-4.557zM449.392.86l-12.869 17.75-49.048 4.45L449.392.86zm10.473 33.423L437.08 18.81 450.053.917l9.812 33.366zM429.598 58.21l-17.884-4.413 24.475-33.757-6.59 38.17zm7.286-38.846l23.233 15.777 9.702 32.993-39.667-9.787 6.732-38.983zm59.46 39.69l-35.738-24.268-9.757-33.18 45.495 57.448zm1.653 1.24l-.005-.026a.133.133 0 0 0-.006-.025l-.038-.08L450.385.105l-.046-.043c-.015-.01-.028-.02-.045-.03l-.03-.012-.12-.019a.186.186 0 0 0-.045.008l-.011-.002-64.903 23.272c-.015.006-.023.012-.017.01a.119.119 0 0 0-.033.014l-.026.02a.221.221 0 0 0-.026.024l.062.07-.08-.053-.018.026-.014.023-.007.008-.022.078-.004.027c0 .018 0 .035.002.051l.005.036a.052.052 0 0 0 .005.013l.002.015 35.364 88.165.006.035.016.014c.004.007.008.014.007.01l.016.028a.293.293 0 0 0 .13.095l.026.006a.107.107 0 0 0 .022.006h.071l.052-.006c.021-.006.037-.015.05-.023l.015-.003 77.087-51.4.057-.047.007-.015a.257.257 0 0 0 .023-.037.26.26 0 0 0 .015-.028l.007-.01.015-.086v-.017a.15.15 0 0 0-.003-.033z" transform="matrix(-1 0 0 1 585 62)"/>
        </g>
    </g>
</svg>
