<svg xmlns="http://www.w3.org/2000/svg" xmlns:xlink="http://www.w3.org/1999/xlink" width="48" height="332" viewBox="0 0 48 332">
    <defs>
        <path id="a" d="M0 0h69v368H0z"/>
        <linearGradient id="c" x1="96.093%" x2="1.381%" y1="98.087%" y2=".702%">
            <stop offset="0%" stop-color="#A19062"/>
            <stop offset="100%" stop-color="#ECE4C8"/>
        </linearGradient>
        <linearGradient id="d" x1="96.093%" x2="1.381%" y1="98.087%" y2=".702%">
            <stop offset="0%" stop-color="#A19062"/>
            <stop offset="22.309%" stop-color="#ECE4C8"/>
            <stop offset="44.681%" stop-color="#A19062"/>
            <stop offset="65.472%" stop-color="#ECE4C8"/>
            <stop offset="82.119%" stop-color="#A19062"/>
            <stop offset="100%" stop-color="#ECE4C8"/>
        </linearGradient>
    </defs>
    <g fill="none" fill-rule="evenodd" transform="translate(0 -14)">
        <mask id="b" fill="#fff">
            <use xlink:href="#a"/>
        </mask>
        <g mask="url(#b)">
            <g fill="#EEE9DC">
                <path d="M20.52 268.12l-3.041 3.423 3.892 2.004-.85-5.427zm-3.271 3.43a.092.092 0 0 1 .02-.04l3.244-3.65a.089.089 0 0 1 .153.045l.908 5.787a.092.092 0 0 1-.036.088.087.087 0 0 1-.092.008l-4.151-2.137a.089.089 0 0 1-.046-.1z"/>
                <path d="M25.774 275.681l-4.925-7.351.829 5.33 4.096 2.021zm-5.16-7.753a.091.091 0 0 1 .053-.064.087.087 0 0 1 .106.032l5.335 7.963a.09.09 0 0 1-.007.11.088.088 0 0 1-.105.022l-4.437-2.19a.088.088 0 0 1-.049-.066l-.898-5.773a.09.09 0 0 1 .002-.034z"/>
                <path d="M26.054 275.937l-3.98-1.94 7.66 8.003-3.68-6.063zm-4.47-2.255a.088.088 0 0 1 .125-.06l4.446 2.168a.09.09 0 0 1 .037.033l4.11 6.774a.088.088 0 0 1-.14.106l-8.556-8.94a.088.088 0 0 1-.023-.081z"/>
                <path d="M30.111 282.715l-8.314-8.749 3.195 21.643 5.12-12.894zm-8.528-9.032a.088.088 0 0 1 .15-.041l8.545 8.992a.09.09 0 0 1 .018.094l-5.26 13.253a.088.088 0 1 1-.17-.02l-3.284-22.245a.093.093 0 0 1 .001-.033z"/>
                <path d="M30.146 282.694l-5.064 12.786 9.272-10.392-4.208-2.394zM24.73 295.89a.085.085 0 0 1 .004-.013l5.286-13.345a.088.088 0 0 1 .126-.045l4.391 2.5a.09.09 0 0 1 .022.137l-9.667 10.834a.089.089 0 0 1-.097.043.09.09 0 0 1-.065-.109v-.002zM20.392 267.969l-8.21-8.333 5.13 11.787 3.08-3.454zm-8.569-8.757a.09.09 0 0 1 .037-.053.087.087 0 0 1 .112.01l8.605 8.733a.09.09 0 0 1 .003.123l-3.228 3.62a.088.088 0 0 1-.147-.023l-5.377-12.354a.091.091 0 0 1-.005-.056z"/>
                <path d="M11.945 259.365L.797 263.559l16.401 7.863-5.253-12.057zM.485 263.53a.09.09 0 0 1 .055-.064l11.422-4.298a.087.087 0 0 1 .112.047l5.382 12.355a.09.09 0 0 1-.12.117L.533 263.63a.09.09 0 0 1-.048-.1z"/>
                <path d="M17.28 271.613L.716 263.697l9.829 33.208 6.735-25.292zM.488 263.51a.09.09 0 0 1 .03-.048.088.088 0 0 1 .095-.013l16.81 8.034c.039.018.057.054.047.103l-6.835 25.668a.088.088 0 1 1-.17.003L.49 263.556a.09.09 0 0 1-.002-.045z"/>
                <path d="M17.392 271.678l-6.552 24.59 10.538-22.556-3.986-2.034zM10.408 297.2l.001-.004v-.003l6.84-25.667a.089.089 0 0 1 .126-.056l4.16 2.123c.043.021.06.073.04.116L10.58 297.245a.089.089 0 0 1-.172-.045z"/>
                <path d="M21.464 273.97l-10.822 23.144 14.104-1.216-3.282-21.927zM10.41 297.197a.098.098 0 0 1 .006-.018l11.013-23.55a.09.09 0 0 1 .169.025l3.34 22.312a.09.09 0 0 1-.08.102l-14.328 1.235a.088.088 0 0 1-.054.005c-.049-.011-.083-.055-.066-.11v-.001z"/>
                <path d="M23.173 305.924l-12.555-8.816-1.584 8.882 14.139-.066zm-12.704-8.988a.09.09 0 0 1 .053-.063.088.088 0 0 1 .084.01l12.897 9.055a.09.09 0 0 1 .034.1.089.089 0 0 1-.085.062l-14.523.068a.089.089 0 0 1-.087-.104l1.626-9.124.001-.004z"/>
                <path d="M24.668 295.956l-13.902 1.239 12.575 8.843 1.327-10.082zm-14.239 1.152l.001-.003a.09.09 0 0 1 .078-.066l14.255-1.27a.088.088 0 0 1 .095.1l-1.36 10.337a.087.087 0 0 1-.053.07.088.088 0 0 1-.086-.008l-12.894-9.067a.09.09 0 0 1-.036-.093z"/>
                <path d="M10.474 297.042l-9.86-33.071-5.03 44.34 14.89-11.269zM.489 263.51a.088.088 0 0 1 .078-.068.088.088 0 0 1 .093.063l10 33.545a.089.089 0 0 1-.03.096l-15.103 11.43a.088.088 0 0 1-.142-.08L.487 263.52a.14.14 0 0 1 .002-.01z"/>
                <path d="M10.455 297.17l-14.632 11.18 13.053-2.327 1.58-8.853zm-15.063 11.312a.09.09 0 0 1 .033-.05l15.104-11.54a.087.087 0 0 1 .1-.006c.03.02.046.055.04.091l-1.63 9.138c-.004.036-.036.066-.072.073l-13.45 2.397a.087.087 0 0 1-.06.008c-.048-.011-.082-.054-.065-.109v-.002z"/>
                <path d="M-4.449 308.44l-1.368 5.1 14.232-7.317-12.864 2.217zm-1.59 5.25v-.002l1.434-5.349a.088.088 0 0 1 .07-.063l13.486-2.324a.089.089 0 0 1 .099.059.088.088 0 0 1-.043.106l-14.92 7.67a.089.089 0 0 1-.127-.097zM29.785 274.673l-8.948-6.41 5.083 7.508 3.865-1.098zm-9.39-6.796a.089.089 0 0 1 .139-.053l9.507 6.81a.09.09 0 0 1-.029.16l-4.106 1.167a.088.088 0 0 1-.098-.035l-5.4-7.978a.091.091 0 0 1-.013-.071z"/>
                <path d="M30.053 274.851l-3.912 1.052 3.99 6.42-.078-7.472zm-4.138.977a.088.088 0 0 1 .063-.065l4.14-1.112a.093.093 0 0 1 .078.015.087.087 0 0 1 .036.07l.083 7.907c0 .039-.027.074-.066.084a.092.092 0 0 1-.101-.04l-4.222-6.794a.087.087 0 0 1-.011-.065z"/>
                <path d="M34.268 285.024l-4.23-9.889.044 7.528 4.186 2.36zm-4.41-10.352a.09.09 0 0 1 .17-.015l4.508 10.54a.09.09 0 0 1-.126.112l-4.461-2.516a.089.089 0 0 1-.046-.077l-.046-8.024c0-.007 0-.014.002-.02z"/>
                <path d="M34.48 285.154l-9.444 10.487 12.507 2.468-3.063-12.955zm-9.7 10.523a.09.09 0 0 1 .02-.039l9.662-10.727a.089.089 0 1 1 .152.039l3.134 13.252a.089.089 0 0 1-.104.107l-12.795-2.525a.088.088 0 0 1-.067-.059.087.087 0 0 1-.002-.048z"/>
                <path d="M41.482 288.19L34.6 285.11l3.106 12.788 3.775-9.71zm-7.098-3.254a.087.087 0 0 1 .03-.048.091.091 0 0 1 .094-.012l7.124 3.187c.044.02.066.07.047.112l-3.908 10.054a.089.089 0 0 1-.089.056.09.09 0 0 1-.081-.068l-3.217-13.24a.09.09 0 0 1 0-.04z"/>
                <path d="M37.372 298.406l-12.465-2.456-1.33 10.095 13.795-7.64zm-12.626-2.582a.088.088 0 0 1 .104-.068l12.796 2.522a.09.09 0 0 1 .025.166l-14.162 7.842a.088.088 0 0 1-.13-.09l1.365-10.363c0-.003 0-.006.002-.009z"/>
                <path d="M41.561 288.304l-3.557 9.225 5.38-8.717-1.823-.508zm-4.074 10.071a.075.075 0 0 1 .004-.012l3.933-10.2a.09.09 0 0 1 .107-.053l2.016.56c.027.009.05.028.06.055a.09.09 0 0 1-.008.08l-5.943 9.627a.09.09 0 0 1-.169-.057zM43.608 289.15l-5.65 9.192 7.528-.703-1.878-8.489zm-5.903 9.277a.086.086 0 0 1 .011-.027l5.857-9.527a.087.087 0 0 1 .16.027l1.946 8.798c.005.025 0 .051-.015.071a.088.088 0 0 1-.063.037l-7.777.726a.088.088 0 0 1-.12-.103l.001-.002z"/>
                <path d="M37.542 298.477l-13.984 7.688 23.717 12.07-9.733-19.758zm-14.26 7.671a.089.089 0 0 1 .043-.058l14.213-7.814a.088.088 0 0 1 .07-.007.09.09 0 0 1 .053.045l9.893 20.082a.09.09 0 0 1-.017.103.089.089 0 0 1-.103.016l-24.106-12.267a.09.09 0 0 1-.047-.1z"/>
                <path d="M45.417 297.743l-7.7.703 9.622 19.516-1.922-20.22zm-7.924.606a.089.089 0 0 1 .079-.069l7.918-.723a.089.089 0 0 1 .096.08l1.976 20.79a.09.09 0 0 1-.168.049L37.5 298.409a.09.09 0 0 1-.007-.06zM.284 263.803l-29.279 38.814 24.223 5.741 5.056-44.555zm-29.517 38.849a.09.09 0 0 1 .016-.034l29.555-39.18a.089.089 0 0 1 .158.063l-5.103 44.976a.089.089 0 0 1-.109.076l-24.451-5.795a.088.088 0 0 1-.063-.057.087.087 0 0 1-.003-.05z"/>
                <path d="M1.882 261.11l-1.138 2.301 10.298-3.916-9.16 1.615zm-1.404 2.445a.105.105 0 0 1 .007-.02l1.26-2.545a.09.09 0 0 1 .064-.049l10.132-1.786a.088.088 0 0 1 .1.065.09.09 0 0 1-.055.107L.594 263.66a.087.087 0 0 1-.096-.024.09.09 0 0 1-.02-.08zM47.118 318.647l-28.153 12.296 8.87 7.965 19.283-20.26zm-28.401 12.25a.088.088 0 0 1 .05-.061l28.683-12.527a.088.088 0 0 1 .107.03.09.09 0 0 1-.008.113l-19.644 20.64a.089.089 0 0 1-.123.005l-9.038-8.114a.089.089 0 0 1-.028-.08v-.006z"/>
                <path d="M47.278 318.376L23.44 306.272l-4.68 24.492 28.518-12.388zm-23.99-12.257a.089.089 0 0 1 .127-.059l24.112 12.243a.089.089 0 0 1-.005.16l-28.845 12.532a.089.089 0 0 1-.123-.099l4.733-24.774.001-.003z"/>
                <path d="M18.637 331.001l-7.45 3.755 12.224 10.17-4.774-13.925zm-7.697 3.717a.089.089 0 0 1 .046-.06l7.662-3.862a.089.089 0 0 1 .124.051l4.91 14.321c.013.038 0 .08-.033.102a.089.089 0 0 1-.108-.005L10.97 334.806a.089.089 0 0 1-.03-.088z"/>
                <path d="M27.667 339.036l-8.669-7.84 4.659 13.811 4.01-5.971zm-8.947-8.153a.09.09 0 0 1 .037-.054.087.087 0 0 1 .108.008l8.977 8.117c.033.03.039.08.014.117l-4.153 6.183a.09.09 0 0 1-.084.039.088.088 0 0 1-.072-.06l-4.824-14.301a.09.09 0 0 1-.003-.049z"/>
                <path d="M18.72 330.873l-6.731-8.696-.648 12.414 7.378-3.718zm-6.893-8.959a.089.089 0 0 1 .06-.064.089.089 0 0 1 .096.03l6.941 8.97c.017.02.023.048.017.073a.088.088 0 0 1-.047.06l-7.61 3.835a.089.089 0 0 1-.128-.084l.669-12.804.002-.016z"/>
                <path d="M8.875 306.168l-14.652 7.655 17.441 7.75-2.789-15.405zm-14.943 7.641a.09.09 0 0 1 .046-.059L8.9 305.955a.088.088 0 0 1 .128.063l2.84 15.688a.088.088 0 1 1-.123.097l-17.762-7.893a.09.09 0 0 1-.05-.1z"/>
                <path d="M23.243 306.24l-14.26.066 2.792 15.416 11.468-15.482zm-14.453-.042a.09.09 0 0 1 .086-.07l14.544-.067c.033 0 .064.019.08.049a.088.088 0 0 1-.01.093l-11.695 15.79a.088.088 0 0 1-.158-.037L8.79 306.233a.091.091 0 0 1 0-.035z"/>
                <path d="M23.422 306.551l-11.4 15.394 6.77 8.804 4.63-24.198zm-11.598 15.375a.085.085 0 0 1 .016-.032l11.67-15.76a.088.088 0 0 1 .158.07l-4.74 24.772a.084.084 0 0 1-.066.07.089.089 0 0 1-.09-.032l-6.932-9.013a.09.09 0 0 1-.016-.075z"/>
            </g>
            <path fill="url(#c)" d="M81.344 92.72l7.225-9.477.278 2.73-7.503 6.746zM67.373 38.995l25.494-8.783-4.294 52.433-21.2-43.65zm-34.654 35.16l1.766-1.356.022 2.02.105 9.675-6.678-6.665 4.785-3.674zm1.692-1.536l-6.602 5.07-13.39-17.23L34.41 72.62zm-1.238-40.563l4.603-7.685 6.614 11.742-11.217-4.057zm23.081 16.692L44.787 36.355 65.26 33.31l-9.007 15.44zM27.949 31.353l4.924.822-4.656 6.862-14.003 20.638 5.927-29.624 7.808 1.302zm39.33 7.394l-1.708-5.458 5.95.318-4.241 5.14zm25.597-8.75l-19.765 3.204 19.69-5.917.075 2.713zM68.89 85.47l19.54-2.353-7.789 10.217-7.942-5.314-3.809-2.55zm19.464-2.846l-28.19-24.52 3.108-8.295 3.982-10.628 4.444 9.151 16.656 34.292zM65.415 33.42l1.719 5.492-4.994 4.537-5.48 4.977 5.362-9.19 3.393-5.816zm8.652 3.07l-6.54 2.254 4.235-5.134 20.142-3.265-17.837 6.146zM42.842 57.474l-8.3 15.007-20.22-12.3 28.52-2.707zm45.575 25.455l-19.725 2.375-8.45-26.881 19.217 16.715 8.958 7.791zM47.733 68.05l2.731 14.494-5.238.262 2.507-14.756zm-10.96 3.812l10.834-4.198-2.556 15.05-10.303-10.067 2.024-.785zm6.104-14.58l-16.8 1.594-11.856 1.126 18.79-27.694 7.934 20.083 1.932 4.89zm.07-.335l-9.75-24.68 11.3 4.087-1.55 20.593zm.171.236l1.556-20.67 11.452 12.376-13.008 8.294zm15.18 29.187l-6.91-3.44 4.835 1.203 6.859 1.706-4.545.504-.24.027zm8.719-47.096l-6.969 18.601-3.665-8.942 1.1-.998 9.534-8.661zM43.003 57.57l4.238 9.12.36.774-12.816 4.966 5.093-9.21 3.125-5.65zm13.224-8.524l3.682 8.985-3.268-.147-13.33-.602 4.597-2.931 8.32-5.305zm7.469 36.726L60.28 59.173l3.674 11.688L68.5 85.323l-2.42.226-2.385.223zm-13.038-3.218L47.885 67.84l15.464 17.87-6.705-1.667-5.986-1.489zm12.823 3.022l-6.546-7.564-9.07-10.483 12.114-9.224 2.549 19.85.953 7.421zM59.79 58.214l-10.25 7.804-1.775 1.351-4.603-9.905 4.723.213 11.905.537zm8.723 27.297l-.818 4.816-2.757-3.105-1.13-1.272 2.477-.23 2.228-.209zm-10.384.983l-2.9 3.217-4.388-6.844 7.288 3.627zm5.448-.521l3.828 4.31-8.759-3.763 4.931-.547zM33.008 31.966l-12.375-9.908 16.991 2.202-4.616 7.706zM22.57 23.85l10.122 8.103-12.529-2.09.237-7.75 2.17 1.737zm12.195 57.422l-.083-7.65L36.75 84.01l-1.948.588-.037-3.326zm1.283-1.756l-1.32-6.626 10.184 9.948-7.978 1.132-.886-4.454zm12.687 3.3l1.792-.09 4.356 6.796-9.487-6.538 3.34-.167zm8.77 4.65l.8-.888 8.927 3.835-11.816-.632 2.088-2.315zm22.683 5.79l-12.326-2.793.088-.52.744-4.379 4.364 2.92 7.13 4.772zm12.8-66.03l2.455-.79-2.384 3.356-.046-1.645-.025-.92zm2.773-.911a.093.093 0 0 0-.001-.11.093.093 0 0 0-.105-.034l-2.792.897-21.162 6.36-6.255-.335-.01.002h-.009l-20.78 3.09-6.786-12.047c-.003-.005-.009-.008-.012-.013-.006-.007-.011-.014-.02-.019-.005-.004-.012-.005-.019-.008-.007-.002-.012-.006-.02-.007l-17.466-2.263a.092.092 0 0 0-.052.008c-.001 0-.002.003-.004.003l-.01.01a.09.09 0 0 0-.028.03c0 .002-.004.003-.005.005-.002.005 0 .01 0 .014-.003.007-.007.013-.007.02l-.245 8.012-6.034 30.16v.011l-.002.009v.009a.119.119 0 0 0 .007.027l.002.005.003.008v.001l.004.003.003.007L27.717 77.88l.005.004.003.005 6.917 6.903.007.005.004.005c.002.001.005 0 .006.002.016.01.032.016.05.016h.006a.093.093 0 0 0 .04-.01l2.125-.64 8.21-1.166 10.07 6.939.001.001h.002a.095.095 0 0 0 .044.016h.002l12.531.67 12.9 2.923c.007.002.015.002.02.002h.005c.029 0 .054-.014.071-.035l8.272-7.438a.095.095 0 0 0 .03-.08l-.303-2.995.001-.01-.002-.012 4.33-52.874 2.697-3.794z" transform="rotate(-118 86.783 167.463)"/>
            <path fill="url(#c)" d="M84.179 97.967l7.229-11.42.277 3.29-7.506 8.13zm-13.98-64.74l25.508-10.583-4.296 63.184-21.212-52.6zm-34.673 42.37l1.767-1.633.022 2.433.105 11.66-6.682-8.032 4.788-4.427zm1.693-1.85l-6.606 6.109-13.398-20.763L37.22 73.746zm-1.24-48.88l4.607-9.26 6.617 14.148-11.223-4.888zM59.075 44.98L47.6 30.046l20.486-3.67-9.012 18.605zM30.754 24.02l4.926.99-4.659 8.269-14.01 24.869 5.93-35.698 7.812 1.57zm39.352 8.91l-1.71-6.578 5.953.384-4.243 6.194zm25.61-10.544l-19.776 3.86 19.702-7.13.075 3.27zm-24 66.845l19.551-2.835-7.793 12.311-7.946-6.404-3.812-3.072zm19.475-3.43L62.985 56.254l3.11-9.997 3.984-12.807 4.447 11.027L91.191 85.8zM68.24 26.509l1.719 6.618-4.997 5.467-5.482 5.997 5.364-11.073 3.395-7.01zm8.656 3.7l-6.544 2.715 4.238-6.186 20.153-3.934-17.847 7.405zM45.654 55.494L37.35 73.577 17.118 58.756l28.536-3.262zm45.602 30.674L71.519 89.03l-8.455-32.393L82.292 76.78l8.964 9.39zm-40.708-17.93l2.733 17.466-5.24.316 2.507-17.782zM39.58 72.832l10.841-5.06-2.557 18.136-10.31-12.13 2.026-.946zm6.108-17.57l-16.81 1.922-11.862 1.356 18.801-33.372 7.938 24.2 1.933 5.894zm.07-.403l-9.755-29.74 11.307 4.924L45.76 54.86zm.172.284l1.557-24.909 11.458 14.914-13.015 9.995zm15.188 35.172l-6.914-4.145 4.838 1.45 6.862 2.055-4.546.608-.24.032zm8.724-56.753l-6.972 22.415-3.668-10.776 1.1-1.202 9.54-10.437zM45.815 55.61l4.241 10.99.36.932-12.823 5.984L42.69 62.42l3.126-6.81zm13.232-10.272l3.684 10.828-3.27-.178-13.336-.726 4.599-3.532 8.323-6.392zm7.473 44.256l-3.417-32.052 3.676 14.084 4.549 17.428-2.422.272-2.386.268zm-13.045-3.877L50.7 67.987l15.473 21.535-6.71-2.01-5.988-1.794zm12.83 3.641l-6.55-9.115-9.075-12.632L62.8 56.497l2.55 23.919.954 8.943zm-3.694-32.972l-10.256 9.404-1.776 1.628-4.605-11.937 4.726.257 11.91.648zm8.728 32.894l-.818 5.803-2.759-3.741-1.13-1.533 2.478-.278 2.23-.251zm-10.39 1.185l-2.902 3.876-4.39-8.247 7.292 4.37zm5.451-.629l3.83 5.194-8.764-4.535 4.934-.659zm-30.585-65.08L23.433 12.818l17 2.653-4.618 9.286zm-10.444-9.78l10.128 9.766-12.536-2.52.237-9.339 2.171 2.093zm12.202 69.197l-.083-9.22 2.069 12.519-1.95.708-.036-4.007zm1.283-2.116l-1.32-7.986 10.19 11.988-7.983 1.364-.887-5.366zm12.695 3.977l1.793-.108 4.358 8.188-9.492-7.878 3.341-.202zm8.774 5.603l.802-1.07 8.931 4.621-11.822-.761 2.089-2.79zm22.696 6.976L70.688 95.25l.089-.627.744-5.276 4.367 3.519 7.133 5.75zM95.83 19.046l2.456-.951-2.385 4.043-.046-1.982-.025-1.11zm2.774-1.098a.131.131 0 0 0-.001-.132c-.024-.04-.066-.057-.105-.041l-2.793 1.081-21.175 7.663-6.258-.403-.01.003c-.003 0-.006-.002-.008-.001L47.46 29.842l-6.79-14.517c-.003-.006-.008-.01-.012-.015-.006-.008-.01-.017-.019-.023-.006-.005-.013-.007-.02-.01-.006-.003-.011-.008-.019-.009l-17.476-2.727a.078.078 0 0 0-.052.01c-.002 0-.002.003-.004.004l-.01.011a.103.103 0 0 0-.028.037l-.005.006c-.002.006 0 .011-.001.017-.002.008-.006.015-.007.024l-.244 9.655-6.038 36.345v.011l-.002.011.001.011a.17.17 0 0 0 .006.033l.002.006.004.01v.001c0 .002.002.002.003.004l.004.008L30.52 80.084l.005.004.003.006 6.921 8.32.007.005.004.006c.002.002.004 0 .006.002.015.012.032.02.05.02h.006a.08.08 0 0 0 .04-.012l2.126-.773 8.215-1.403L57.98 94.62l.002.001.002.001c.013.01.028.017.043.02h.003l12.538.807 12.907 3.521.02.003h.005c.029 0 .054-.017.071-.042l8.277-8.964a.128.128 0 0 0 .03-.096l-.304-3.609.002-.012-.002-.015 4.332-63.714 2.698-4.573z" transform="scale(-1 1) rotate(43 -19.843 -1.962)"/>
            <path fill="url(#d)" d="M108.57 15.68l-2.2-7.482 8.327 5.655-6.126 1.827zm-10.639 9.397l10.628-9.257 5.89-1.757-16.518 11.014zm1.355-11.528l9.102 2.246-11.17 9.73 2.068-11.976zm-2.162 11.75l-2.086-12.798 4.12 1.016L97.124 25.3zM89.198 5.762l5.698 6.681 2.066 12.679-7.764-19.36zm11.473-1.34l-5.718 7.887-5.833-6.84 11.551-1.047zm3.062-4.223l-2.96 4.082-11.28 1.024 14.24-5.106zm2.409 7.687l-5.24-3.558L103.884.21l2.257 7.674zm-6.961 5.503l-4.114-1.015 5.63-7.764-1.516 8.78zm1.675-8.934l5.344 3.629 2.231 7.588-9.123-2.251 1.548-8.966zm13.676 9.129L106.312 8 104.068.369l10.464 13.214zm.38.285v-.006a.03.03 0 0 0-.002-.006l-.009-.018L103.961.024l-.01-.01-.01-.007-.007-.003-.028-.004a.043.043 0 0 0-.01.002h-.003L88.966 5.353l-.004.002a.027.027 0 0 0-.008.003l-.006.005a.05.05 0 0 0-.006.006l.014.016-.018-.013-.004.006-.004.006-.001.002-.005.018v.006.02l.002.003v.003l8.134 20.278.001.008.004.003c0 .002.002.004.002.003l.003.006c.004.005.008.01.014.013.005.004.01.007.016.009l.006.001.005.002h.016l.013-.002.011-.005h.003l17.73-11.823.013-.01.002-.004a.06.06 0 0 0 .006-.008.06.06 0 0 0 .003-.007l.002-.002.003-.02v-.004-.007z" transform="matrix(-1 0 0 1 134.923 14.26)"/>
        </g>
    </g>
</svg>
