<svg xmlns="http://www.w3.org/2000/svg" width="92" height="91" viewBox="0 0 92 91">
    <defs>
        <linearGradient id="a" x1="96.093%" x2="1.381%" y1="98.087%" y2=".702%">
            <stop offset="0%" stop-color="#A19062"/>
            <stop offset="100%" stop-color="#ECE4C8"/>
        </linearGradient>
    </defs>
    <path fill="url(#a)" fill-rule="evenodd" d="M1347.401 1799.284l10.562-14.54 7.988 27.11-18.55-12.57zm47.96 34.395l-58.474 38.91 37.62-32.703 20.854-6.207zm-21.457 6.118l-39.542 34.373 7.32-42.307 32.222 7.934zm-32.673-8.046l-7.201 41.623-7.385-45.214 14.586 3.591zm-15.09-3.798l7.316 44.789-27.486-68.389 20.17 23.6zm.204-.474l-20.649-24.16 40.891-3.702-20.242 27.862zm-19.33-24.742l50.41-18.039-10.477 14.423-39.933 3.616zm59.54 9.526l-7.943-26.958 37.04 46.677-29.097-19.718zm7.994 27.129l-7.788-26.43 29.476 19.975-21.688 6.455zm-32.788-7.985l5.48-31.674 18.916 12.82 7.9 26.806-32.296-7.952zm-15.012-3.697l19.927-27.428-5.366 31.013-14.56-3.585zm70.25 5.279l-.005-.022a.075.075 0 0 0-.006-.02l-.03-.064-38.724-48.798-.038-.035a.247.247 0 0 0-.036-.025l-.025-.01-.097-.015a.154.154 0 0 0-.037.006h-.01l-52.84 18.907c-.013.005-.02.01-.015.008l-.026.011-.021.017c-.009.006-.015.012-.022.02l.05.057-.064-.044-.014.02a.245.245 0 0 0-.012.02l-.006.006-.018.064-.003.022c0 .014 0 .028.002.042l.003.028a.06.06 0 0 0 .004.011l.002.012 28.792 71.634.006.03.013.01c.002.006.005.012.005.009l.012.022a.245.245 0 0 0 .106.077l.022.005c.004.002.01.004.017.005h.059l.042-.005a.163.163 0 0 0 .04-.018l.013-.003 62.76-41.763.047-.037.006-.012a.238.238 0 0 0 .02-.031l.011-.022.006-.008.012-.07v-.015c0-.01 0-.02-.002-.026z" transform="translate(-1305 -1784)"/>
</svg>
