<svg xmlns="http://www.w3.org/2000/svg" width="339" height="519" viewBox="0 0 339 519">
    <defs>
        <linearGradient id="a" x1="96.093%" x2="1.381%" y1="98.087%" y2=".702%">
            <stop offset="0%" stop-color="#A19062"/>
            <stop offset="100%" stop-color="#ECE4C8"/>
        </linearGradient>
    </defs>
    <g fill="none" fill-rule="evenodd">
        <g fill="#F3EEE0">
            <path d="M233.187 227.997l-21.397 6.58-.745-21.688 22.142 15.108zm-21.907 7.601a.441.441 0 0 0 .22-.009l22.818-7.018a.441.441 0 0 0 .119-.786l-23.612-16.114a.44.44 0 0 0-.686.381l.794 23.131a.439.439 0 0 0 .347.415z"/>
            <path d="M210.626 189.024l22.186 37.653-21.8-14.878-.386-22.775zm23.472 39.557c.137.029.284-.01.393-.11a.442.442 0 0 0 .076-.546l-24.03-40.784a.436.436 0 0 0-.497-.199.441.441 0 0 0-.32.432l.42 24.67a.437.437 0 0 0 .19.357l23.613 16.113c.047.033.1.055.155.067z"/>
            <path d="M209.723 187.503l.374 22.084-20.001-51.493 19.627 29.41zm.762 24.964a.44.44 0 0 0 .53-.44l-.418-24.67a.445.445 0 0 0-.072-.237l-21.927-32.854a.436.436 0 0 0-.567-.145.441.441 0 0 0-.207.55l22.345 57.526c.054.141.176.24.316.27z"/>
            <path d="M187.927 154.935l21.739 55.97-90.23-59.885 68.49 3.915zm22.559 57.533a.438.438 0 0 0 .367-.09.444.444 0 0 0 .133-.503l-22.344-57.524a.444.444 0 0 0-.383-.28l-70.396-4.022a.437.437 0 0 0-.44.3.44.44 0 0 0 .172.507l92.74 61.548c.047.03.098.053.15.064z"/>
            <path d="M187.757 154.043l-67.447-3.855 65.59-20.167 1.857 24.022zm-70.011-3.123c.02.004.044.007.065.007l70.396 4.023a.44.44 0 0 0 .463-.474l-1.938-25.072a.438.438 0 0 0-.565-.387l-68.383 21.028a.44.44 0 0 0-.397.348.447.447 0 0 0 .348.524l.011.003zM233.92 228.693l19.866 54.502-41.639-47.806 21.773-6.696zm20.997 57.006a.438.438 0 0 0 .504-.58l-20.82-57.122a.435.435 0 0 0-.54-.268l-22.818 7.018a.44.44 0 0 0-.202.71l43.638 50.104c.064.072.149.12.238.138z"/>
            <path d="M254.407 285.248l-41.899 41.562-.689-90.46 42.588 48.898zm-42.422 43.038a.438.438 0 0 0 .4-.117l42.932-42.587a.439.439 0 0 0 .022-.603l-43.637-50.103a.435.435 0 0 0-.486-.12.442.442 0 0 0-.283.416l.705 92.689a.442.442 0 0 0 .347.425z"/>
            <path d="M210.936 235.537l.694 91.331L83.807 212.96l127.129 22.578zm1.049 92.75a.438.438 0 0 0 .53-.434l-.705-92.69c-.001-.212-.124-.372-.361-.43L82.43 211.82a.442.442 0 0 0-.368.764l129.723 115.602a.44.44 0 0 0 .199.1z"/>
            <path d="M210.914 234.64l-123.61-21.953 122.849-.209.761 22.161zM82.24 212.68s.014.002.022.005l.015.003L211.294 235.6a.44.44 0 0 0 .515-.449l-.795-23.13a.439.439 0 0 0-.437-.426l-128.182.218a.44.44 0 0 0-.155.866z"/>
            <path d="M209.12 211.598l-126.006.213 34.87-60.696 91.137 60.483zm-126.858 1.087c.03.006.06.009.091.01l128.224-.218a.441.441 0 1 0 .242-.808L118.08 150.12a.444.444 0 0 0-.623.147l-35.42 61.657a.437.437 0 0 0-.134.233c-.051.241.072.486.349.524l.01.003z"/>
            <path d="M68.728 136.447l13.075 75.204-42.983-11.455 29.908-63.75zm13.533 76.238a.44.44 0 0 0 .525-.508l-13.432-77.253a.439.439 0 0 0-.83-.11l-30.722 65.485a.439.439 0 0 0 .285.613l44.154 11.768.02.005z"/>
            <path d="M117.185 150.744l-34.607 60.239-13.1-75.345 47.707 15.106zm-34.923 61.941l.015.004a.442.442 0 0 0 .457-.217l35.483-61.764a.439.439 0 0 0-.248-.639l-48.914-15.488a.441.441 0 0 0-.565.496l13.431 77.253a.44.44 0 0 0 .34.355z"/>
            <path d="M82.29 212.786l127.89 113.968L.39 256.332l81.9-43.546zm129.695 115.5a.437.437 0 0 0 .47-.21.44.44 0 0 0-.086-.55L82.646 211.925a.438.438 0 0 0-.497-.06l-83.073 44.17a.441.441 0 0 0 .064.806l212.797 71.433c.016.005.032.01.048.012z"/>
            <path d="M81.159 212.39L.679 255.183l37.704-54.19 42.776 11.399zm-81.97 44.465a.44.44 0 0 0 .296-.043l83.073-44.17a.437.437 0 0 0 .23-.438.438.438 0 0 0-.321-.376l-44.153-11.767c-.165-.058-.368.021-.473.174l-38.85 55.836a.436.436 0 0 0-.16.257c-.052.241.068.484.347.524l.011.003z"/>
            <path d="M-.92 255.942l-25.956-4.575 63.08-48.783L-.92 255.942zm-27.102-3.883l.009.002 27.217 4.797a.442.442 0 0 0 .436-.184l38.92-55.936a.438.438 0 1 0-.627-.6L-28.2 251.279a.441.441 0 0 0 .177.78zM223.568 172.353l9.747 53.447-22.618-38.387 12.871-15.06zm10.53 56.227c.08.017.164.012.246-.017a.442.442 0 0 0 .277-.494l-10.355-56.784a.442.442 0 0 0-.317-.345.435.435 0 0 0-.447.14l-13.676 16a.439.439 0 0 0-.044.51l24.03 40.784a.44.44 0 0 0 .287.206z"/>
            <path d="M223.126 171.519l-12.923 15.12-20.722-31.05 33.645 15.93zm-13.058 16.278a.437.437 0 0 0 .424-.144l13.675-16a.446.446 0 0 0 .095-.379.434.434 0 0 0-.24-.306l-35.601-16.856a.44.44 0 0 0-.552.644l21.926 32.856a.438.438 0 0 0 .273.185z"/>
            <path d="M186.833 130.698l35.22 39.337-33.403-15.813-1.817-23.524zm36.91 41.1a.44.44 0 0 0 .418-.726l-37.54-41.928a.438.438 0 0 0-.763.33l1.938 25.072a.436.436 0 0 0 .25.362l35.601 16.857a.48.48 0 0 0 .096.032z"/>
            <path d="M185.366 129.264l-66.917 20.575 15.16-61.57 51.757 40.995zm-67.62 21.656c.07.015.147.012.22-.01l68.456-21.05a.443.443 0 0 0 .145-.767l-52.95-41.942a.438.438 0 0 0-.698.242l-15.508 62.99a.438.438 0 0 0 .335.537z"/>
            <path d="M186.366 91.512l-.498 37.027-51.138-40.505 51.636 3.478zm-.162 38.357c.092.02.191.01.28-.033a.445.445 0 0 0 .25-.392l.514-38.338a.433.433 0 0 0-.407-.444l-53.465-3.602a.439.439 0 0 0-.44.28.443.443 0 0 0 .137.505l52.95 41.94c.053.041.115.07.18.084z"/>
            <path d="M132.63 88.572l-15.106 61.356-47.646-15.087 62.751-46.269zm-14.884 62.348a.442.442 0 0 0 .518-.327l15.507-62.99a.44.44 0 0 0-.684-.46l-64.425 47.502c-.132.1-.2.263-.173.427a.437.437 0 0 0 .3.347l48.916 15.49.04.011z"/>
            <path d="M186.444 90.635l-48.36-3.258 49.894-5.959-1.534 9.217zm-53.19-2.705c.02.004.04.007.061.008l53.465 3.601a.44.44 0 0 0 .463-.366l1.697-10.19a.438.438 0 0 0-.484-.509l-55.104 6.581a.44.44 0 1 0-.099.875z"/>
            <path d="M187.389 80.6l-53.222 6.357 19.042-32.837 34.18 26.48zm-54.136 7.33c.047.01.095.012.144.006l55.161-6.588a.442.442 0 0 0 .218-.785L153.35 53.116a.439.439 0 0 0-.647.127l-19.672 33.923a.446.446 0 0 0-.136.238.437.437 0 0 0 .348.524l.01.002z"/>
            <path d="M132.717 87.416L69.333 134.15 65.023 2.532l67.694 84.884zM68.83 135.43c.121.026.249 0 .351-.075l64.424-47.501a.438.438 0 0 0 .175-.298.446.446 0 0 0-.092-.333L64.884.946a.439.439 0 0 0-.78.29l4.38 133.78a.44.44 0 0 0 .346.414z"/>
            <path d="M152.483 53.622l-19.195 33.1L66.373 2.816l86.11 50.807zm-19.229 34.309a.439.439 0 0 0 .47-.211l19.737-34.035a.44.44 0 0 0-.156-.6L64.765.843a.438.438 0 0 0-.555.091.445.445 0 0 0-.012.564l68.805 86.277c.064.08.154.135.251.156zM210.415 327.762l-235.883 50.682L-.39 256.998l210.806 70.764zm-236.54 51.685a.44.44 0 0 0 .184 0l238.11-51.162a.44.44 0 0 0 .047-.847L-.58 256.006a.438.438 0 0 0-.569.33l-25.314 122.591a.44.44 0 0 0 .338.52z"/>
            <path d="M225.73 327.03l-12.554.354 38.81-38.498-26.257 38.144zm-13.744 1.257a.5.5 0 0 0 .102.01l13.886-.392a.441.441 0 0 0 .35-.19l29.046-42.195a.443.443 0 0 0-.08-.588.436.436 0 0 0-.59.024l-42.932 42.587a.443.443 0 0 0 .218.744zM62.622 2.339L-51.515 103.705l-17.074-56.778L62.622 2.34zM-51.827 104.921a.434.434 0 0 0 .38-.102L64.832 1.551a.44.44 0 0 0-.43-.747L-69.273 46.23a.443.443 0 0 0-.28.546l17.395 57.842a.439.439 0 0 0 .3.295l.03.008z"/>
            <path d="M64.134 2.173l4.33 132.257-119.287-30.163L64.134 2.173zM68.83 135.43a.437.437 0 0 0 .528-.445L64.98 1.207a.438.438 0 0 0-.728-.315L-52.027 104.16a.44.44 0 0 0 .183.757l120.659 30.51.016.003zM-1.465 257.866L-25.425 373.9l3.106-93.698 20.854-22.336zm-24.66 121.581l.039.006a.44.44 0 0 0 .481-.348L-.29 256.513a.44.44 0 0 0-.749-.39l-22.032 23.597a.448.448 0 0 0-.118.288l-3.282 98.993a.44.44 0 0 0 .346.446zM37.462 200.502l-64.936 50.217 1.916-95.14 63.02 44.923zm-65.485 51.557a.441.441 0 0 0 .36-.082l66.13-51.14a.438.438 0 0 0 .17-.36.44.44 0 0 0-.182-.349l-64.18-45.75a.444.444 0 0 0-.453-.034.443.443 0 0 0-.24.385l-1.952 96.891a.446.446 0 0 0 .347.439z"/>
            <path d="M68.151 135.61l-30.124 64.213-62.932-44.859L68.15 135.61zm-30.044 65.308a.446.446 0 0 0 .49-.244l30.722-65.487a.44.44 0 0 0-.485-.617l-94.903 19.736a.44.44 0 0 0-.166.791l64.18 45.75c.05.034.105.059.162.071z"/>
            <path d="M66.96 134.958l-92.702 19.28-25.159-49.083L66.96 134.958zm-93.032 20.21c.059.013.12.014.18 0l94.902-19.736a.442.442 0 0 0 .019-.858l-120.658-30.511a.416.416 0 0 0-.451.154.446.446 0 0 0-.047.475l25.756 50.248a.443.443 0 0 0 .3.228z"/>
        </g>
        <path fill="url(#a)" d="M402.06 512.916l37.435-49.106 1.437 14.147-38.871 34.959zm-72.39-278.383l132.091-45.51-22.246 271.693L329.67 234.533zM150.12 416.727l9.153-7.027.114 10.462.544 50.14-34.602-34.538 24.792-19.037zm8.77-7.962l-34.21 26.27-69.375-89.282 103.585 63.012zm-6.417-210.187l23.852-39.819 34.268 60.842-58.12-21.023zm119.589 86.496l-59.415-64.222 106.084-15.781-46.67 80.003zm-146.654-90.141l25.511 4.257-24.122 35.557-72.551 106.94 30.708-153.506 40.454 6.752zm203.78 38.314l-8.85-28.284 30.823 1.65-21.973 26.634zm132.622-45.341L359.4 204.507l102.022-30.659.388 14.058zM337.527 475.348l101.242-12.193-40.357 52.94-41.148-27.538-19.737-13.21zm100.845-14.752l-146.055-127.05 16.102-42.987 20.63-55.071 23.028 47.419 86.295 177.69zM319.527 205.64l8.905 28.46-25.875 23.507-28.387 25.79 27.777-47.618 17.58-30.14zm44.826 15.913l-33.884 11.674 21.943-26.6 104.361-16.918-92.42 31.844zM202.571 330.278l-43.002 77.76-104.768-63.733 147.77-14.027zM438.708 462.18l-102.202 12.308-43.782-139.293 99.57 86.612 46.414 40.373zm-210.797-77.1l14.153 75.102-27.139 1.36 12.986-76.462zm-56.787 19.754l56.137-21.756-13.243 77.982-53.385-52.16 10.49-4.066zm31.628-75.553l-87.047 8.264-61.427 5.83 97.357-143.501 41.107 104.064 10.01 25.343zm.365-1.732L152.6 199.66l58.547 21.177-8.03 106.71zm.886 1.222l8.062-107.112 59.333 64.132-67.395 42.98zm78.648 151.239l-35.8-17.821 25.048 6.23 35.538 8.84-23.545 2.613-1.24.138zm45.176-244.042l-36.105 96.388-18.99-46.336 5.693-5.172 49.402-44.88zm-124.422 94.813l21.96 47.262 1.86 4.004-66.398 25.732 26.386-47.718 16.192-29.28zm68.517-44.167L291 333.172l-16.933-.764-69.061-3.12 23.816-15.19 43.1-27.484zm38.698 190.3L292.926 339.09l19.035 60.562 23.556 74.94-12.542 1.17-12.355 1.154zm-67.55-16.67l-14.37-76.245 80.122 92.6-34.742-8.641-31.01-7.714zm66.437 15.658l-33.915-39.197-46.997-54.318 62.769-47.795 13.205 102.852 4.938 38.458zM290.376 334.12l-53.109 40.437-9.194 7.001-23.849-51.33 24.473 1.105 61.679 2.787zm45.2 141.445l-4.239 24.954-14.285-16.087-5.852-6.592 12.83-1.197 11.545-1.078zm-53.805 5.095l-15.029 16.667-22.732-35.464 37.76 18.797zm28.228-2.704l19.832 22.335-45.38-19.5 25.548-2.835zm-158.38-279.85l-64.118-51.337 88.036 11.407-23.917 39.93zm-54.082-42.051l52.447 41.991-64.915-10.834 1.226-40.159 11.242 9.002zm63.188 297.548l-.43-39.644 10.71 53.831-10.093 3.047-.187-17.234zm6.643-9.098l-6.832-34.337 52.759 51.548-41.335 5.866-4.592-23.077zm65.739 17.102l9.282-.465 22.57 35.21-49.156-33.877 17.304-.868zM278.54 485.7l4.151-4.604 46.25 19.874-61.219-3.273L278.54 485.7zm117.527 30l-63.862-14.47.458-2.698 3.854-22.687 22.611 15.132 36.94 24.722zM462.39 173.55l12.722-4.092-12.355 17.386-.235-8.52-.132-4.774zm14.366-4.722a.482.482 0 0 0-.005-.57.48.48 0 0 0-.542-.177l-14.465 4.653-109.648 32.95-32.406-1.732c-.02-.002-.038.009-.057.01-.015 0-.027-.007-.04-.005l-107.668 16.017-35.16-62.426c-.017-.027-.045-.041-.064-.065-.03-.036-.058-.074-.098-.1-.032-.02-.067-.026-.102-.04-.034-.013-.063-.035-.1-.04L85.9 145.58h-.002a.478.478 0 0 0-.266.042c-.008.004-.011.013-.02.017-.022.012-.034.032-.055.048a.463.463 0 0 0-.141.157c-.007.012-.022.017-.028.03-.008.022.001.046-.004.07-.01.035-.033.067-.035.106l-1.265 41.515-31.265 156.284-.001.002v.003l-.002.011c-.002.012.001.023 0 .035-.003.016-.009.03-.01.046 0 .016.006.032.007.047a.615.615 0 0 0 .03.142c.003.01.007.017.011.025.006.014.01.028.019.04 0 .003 0 .006.002.008.003.007.01.01.014.016.008.011.01.024.02.036l71.297 91.756c.007.01.018.013.025.02.006.009.008.018.016.026l35.84 35.774c.01.01.024.014.033.023.01.007.013.02.023.026.01.007.023.004.033.01a.483.483 0 0 0 .256.084l.004-.001h.027c.073 0 .14-.019.204-.048l11.015-3.324 42.54-6.036 52.171 35.955.002.002.005.003c.004.003.008.001.012.004a.492.492 0 0 0 .223.081l.013.001h.002l64.926 3.471 66.836 15.144c.037.009.079.01.104.012h.005l.012.002.006-.001a.48.48 0 0 0 .372-.184l42.859-38.542a.494.494 0 0 0 .158-.413l-1.577-15.519c.002-.018.01-.034.01-.052 0-.023-.008-.042-.011-.064l22.434-273.979 13.97-19.661z" transform="scale(-1 1) rotate(-33 109.576 930.787)"/>
    </g>
</svg>
