<svg xmlns="http://www.w3.org/2000/svg" width="46" height="46" viewBox="0 0 46 46">
    <g fill="none" fill-rule="evenodd">
        <circle cx="23" cy="23" r="23" fill="#FFF"/>
        <path fill="#614A0B" d="M20.134 29.126c0-1.927-.008-3.853.006-5.779.003-.324-.087-.426-.404-.413-.587.025-1.175-.002-1.762.012-.238.006-.325-.062-.323-.32.012-1.201.011-2.403.001-3.605-.002-.232.066-.308.295-.303.6.015 1.202-.017 1.801.014.348.017.42-.11.412-.44-.02-.914-.02-1.83 0-2.744.023-1.118.316-2.16.966-3.069.823-1.15 1.993-1.676 3.343-1.738 1.386-.063 2.776-.028 4.163-.043.194-.003.252.068.25.26a304.432 304.432 0 0 0 .002 3.648c.001.216-.067.282-.275.279-.667-.01-1.335-.006-2.002-.004-.889.003-1.42.47-1.476 1.37-.045.722-.012 1.448-.028 2.172-.006.257.143.24.31.24 1.014-.002 2.029.01 3.043-.008.298-.005.396.065.362.386a165.595 165.595 0 0 0-.338 3.628c-.023.273-.145.325-.385.321-.8-.012-1.601-.008-2.402-.003-.575.003-.52-.086-.52.514-.002 3.77-.007 7.54.009 11.31.001.399-.098.497-.483.49-1.375-.026-2.75-.027-4.125.001-.387.008-.45-.127-.448-.48.015-1.899.008-3.797.008-5.696"/>
    </g>
</svg>
