<svg xmlns="http://www.w3.org/2000/svg" width="375" height="26" viewBox="0 0 375 26">
    <defs>
        <linearGradient id="a" x1="139.211%" x2="-1.542%" y1="0%" y2="50%">
            <stop offset="0%" stop-color="#C1B38A"/>
            <stop offset="100%" stop-color="#86754D"/>
        </linearGradient>
        <filter id="b" width="103.8%" height="244.4%" x="-1.9%" y="-72.2%" filterUnits="objectBoundingBox">
            <feOffset dy="1" in="SourceAlpha" result="shadowOffsetOuter1"/>
            <feGaussianBlur in="shadowOffsetOuter1" result="shadowBlurOuter1" stdDeviation="1"/>
            <feColorMatrix in="shadowBlurOuter1" result="shadowMatrixOuter1" values="0 0 0 0 0 0 0 0 0 0 0 0 0 0 0 0 0 0 0.7 0"/>
            <feMerge>
                <feMergeNode in="shadowMatrixOuter1"/>
                <feMergeNode in="SourceGraphic"/>
            </feMerge>
        </filter>
    </defs>
    <g fill="none" fill-rule="evenodd">
        <path fill="url(#a)" d="M0 0h375v26H0z"/>
        <g fill="#FFF" filter="url(#b)" transform="translate(18 8)">
            <path d="M140.025 4.072c0-.928 0-1.099-.011-1.294-.011-.207-.066-.312-.188-.343a.732.732 0 0 0-.199-.023c-.055 0-.088-.012-.088-.062 0-.036.044-.048.133-.048.21 0 .557.018.717.018.138 0 .463-.018.674-.018.07 0 .115.012.115.048 0 .05-.033.062-.088.062-.056 0-.1.006-.165.018-.15.03-.194.134-.205.348-.011.195-.011.366-.011 1.294v1.075c0 .592 0 1.074.022 1.337.016.165.055.275.22.299.078.012.2.024.282.024.061 0 .089.018.089.049 0 .042-.044.061-.105.061-.365 0-.712-.019-.861-.019-.127 0-.475.02-.696.02-.072 0-.11-.02-.11-.062 0-.03.022-.049.088-.049a.798.798 0 0 0 .2-.024c.11-.024.143-.129.16-.305.027-.257.027-.74.027-1.331V4.072zM142.877 6.209c.011.402.072.525.166.563.082.03.176.035.253.035.056 0 .083.025.083.056 0 .042-.044.054-.11.054-.315 0-.54-.019-.63-.019-.044 0-.275.02-.523.02-.067 0-.111-.007-.111-.055 0-.03.033-.056.078-.056a.874.874 0 0 0 .22-.024c.127-.036.144-.177.15-.63l.043-3.076c0-.104.033-.177.083-.177.06 0 .127.08.21.171.06.067.789.891 1.496 1.654.33.361.976 1.093 1.048 1.166h.022l-.05-2.307c-.005-.317-.05-.41-.165-.458-.072-.031-.188-.031-.254-.031-.061 0-.078-.024-.078-.054 0-.043.05-.05.122-.05.254 0 .514.013.618.013.055 0 .238-.013.475-.013.066 0 .11.007.11.05 0 .03-.027.054-.082.054-.05 0-.089 0-.15.019-.132.043-.171.134-.176.427l-.055 3.272c0 .117-.039.165-.078.165-.082 0-.148-.055-.198-.11-.304-.31-.911-.952-1.419-1.495-.53-.563-1.043-1.192-1.136-1.283h-.017l.055 2.119zM147.793 6.209c.011.402.072.525.166.563.082.03.176.035.253.035.056 0 .083.025.083.056 0 .042-.044.054-.11.054-.315 0-.541-.019-.63-.019-.044 0-.275.02-.524.02-.066 0-.11-.007-.11-.055 0-.03.033-.056.078-.056a.87.87 0 0 0 .22-.024c.127-.036.144-.177.15-.63l.043-3.076c0-.104.034-.177.083-.177.06 0 .127.08.21.171.06.067.789.891 1.496 1.654.33.361.976 1.093 1.048 1.166h.022l-.05-2.307c-.005-.317-.05-.41-.165-.458-.072-.031-.188-.031-.254-.031-.06 0-.078-.024-.078-.054 0-.043.05-.05.122-.05.254 0 .513.013.618.013.055 0 .238-.013.475-.013.066 0 .11.007.11.05 0 .03-.028.054-.082.054-.05 0-.089 0-.15.019-.132.043-.171.134-.176.427l-.055 3.272c0 .117-.039.165-.078.165-.082 0-.149-.055-.198-.11-.304-.31-.911-.952-1.419-1.495-.53-.563-1.043-1.192-1.136-1.283h-.017l.055 2.119zM155.12 5.049c0-1.147-.623-1.856-1.407-1.856-.54 0-1.175.317-1.175 1.6 0 1.068.552 1.91 1.468 1.91.342 0 1.115-.177 1.115-1.654m-3.3-.098c0-.885.563-2.033 2.036-2.033 1.225 0 1.987.751 1.987 1.942 0 1.19-.784 2.124-2.036 2.124-1.413 0-1.987-1.11-1.987-2.033M156.73 3.499c-.11-.287-.182-.337-.358-.385-.072-.019-.15-.019-.188-.019-.044 0-.055-.024-.055-.054 0-.043.05-.05.122-.05.259 0 .535.013.706.013.121 0 .375-.013.618-.013.06 0 .116.013.116.05 0 .036-.033.054-.077.054-.077 0-.15.007-.188.037-.033.025-.05.055-.05.104 0 .067.045.207.11.391l.818 2.325h.016c.21-.536.833-2.209.95-2.551a.77.77 0 0 0 .043-.19c0-.054-.022-.073-.066-.091a.689.689 0 0 0-.193-.025c-.044 0-.083-.018-.083-.054 0-.037.044-.05.138-.05.243 0 .458.013.519.013.083 0 .31-.013.458-.013.06 0 .1.013.1.05 0 .036-.028.054-.078.054s-.154-.006-.237.062c-.06.048-.127.128-.254.458-.193.488-.32.77-.585 1.404-.309.757-.535 1.325-.646 1.587-.121.3-.165.378-.231.378-.067 0-.105-.066-.2-.31l-1.224-3.175zM161.923 5.318c.022 0 .027-.012.022-.03l-.458-1.301c-.006-.018-.011-.05-.022-.05-.017 0-.022.032-.028.05l-.469 1.294c-.011.025 0 .037.017.037h.938zm-1.037.287c-.028 0-.034.005-.045.037l-.259.702c-.05.127-.072.257-.072.317 0 .091.044.146.193.146h.072c.06 0 .072.025.072.056 0 .042-.028.054-.077.054-.16 0-.387-.019-.541-.019-.05 0-.31.02-.563.02-.061 0-.088-.013-.088-.055 0-.03.016-.056.054-.056.045 0 .1-.005.144-.005.22-.037.304-.196.403-.458l1.269-3.243c.056-.146.094-.208.144-.208.072 0 .093.05.143.166.116.287.927 2.387 1.237 3.175.187.47.325.537.413.556.072.012.127.017.183.017.044 0 .066.018.066.056 0 .042-.028.054-.21.054-.171 0-.524 0-.933-.012-.088-.007-.143-.007-.143-.042 0-.03.01-.05.06-.056.034-.005.067-.055.045-.115l-.376-1.05c-.011-.032-.027-.037-.049-.037h-1.142zM164.726 3.31l-.723.018c-.282.005-.398.042-.47.159a.63.63 0 0 0-.082.176c-.012.042-.022.067-.055.067-.034 0-.045-.03-.045-.085 0-.085.094-.586.105-.63.011-.066.028-.097.055-.097.039 0 .089.043.21.061.144.02.326.025.486.025h1.97c.154 0 .26-.013.33-.025.078-.013.117-.024.134-.024.033 0 .038.031.038.11 0 .11-.01.495-.01.628-.006.056-.017.086-.045.086-.039 0-.05-.024-.055-.104l-.005-.055c-.012-.133-.138-.292-.575-.299l-.612-.011v2.1a14 14 0 0 0 .028 1.11c.016.147.043.245.187.27.067.011.177.017.249.017.055 0 .077.03.077.055 0 .036-.04.056-.094.056-.32 0-.646-.02-.784-.02-.11 0-.441.02-.635.02-.06 0-.093-.02-.093-.056 0-.024.016-.055.077-.055a.63.63 0 0 0 .171-.018c.1-.024.127-.122.144-.276.022-.218.022-.628.022-1.104v-2.1zM167.848 4.493c0-.787 0-.933-.005-1.099-.011-.177-.06-.237-.166-.275a.576.576 0 0 0-.177-.024c-.05 0-.077-.011-.077-.06 0-.031.039-.043.116-.043.182 0 .513.012.651.012.122 0 .437-.012.624-.012.06 0 .099.012.099.042 0 .05-.027.06-.077.06a.62.62 0 0 0-.143.02c-.133.023-.172.098-.182.28-.011.166-.011.312-.011 1.1v.915c0 .5 0 .916.021 1.136.017.141.05.22.194.244.066.013.176.019.248.019.055 0 .078.03.078.054 0 .037-.04.056-.095.056-.32 0-.651-.02-.783-.02-.11 0-.442.02-.635.02-.06 0-.094-.02-.094-.056 0-.024.017-.054.077-.054a.631.631 0 0 0 .172-.019c.1-.025.127-.098.143-.25.022-.214.022-.63.022-1.13v-.916zM169.912 3.499c-.11-.287-.183-.337-.36-.385-.071-.019-.149-.019-.187-.019-.044 0-.055-.024-.055-.054 0-.043.05-.05.122-.05.259 0 .534.013.706.013.12 0 .375-.013.618-.013.06 0 .116.013.116.05 0 .036-.034.054-.077.054-.078 0-.15.007-.188.037-.034.025-.05.055-.05.104 0 .067.044.207.11.391l.817 2.325h.017c.21-.536.833-2.209.949-2.551a.77.77 0 0 0 .044-.19c0-.054-.022-.073-.066-.091a.689.689 0 0 0-.193-.025c-.044 0-.083-.018-.083-.054 0-.037.044-.05.138-.05.243 0 .458.013.519.013.083 0 .309-.013.458-.013.06 0 .1.013.1.05 0 .036-.028.054-.078.054s-.155-.006-.237.062c-.061.048-.127.128-.254.458-.193.488-.32.77-.585 1.404-.31.757-.535 1.325-.646 1.587-.121.3-.166.378-.232.378s-.104-.066-.198-.31l-1.225-3.175zM174.16 4.493c0-.787 0-.933-.006-1.099-.01-.177-.055-.232-.21-.28a.81.81 0 0 0-.192-.02c-.05 0-.083-.017-.083-.053 0-.037.039-.05.11-.05.254 0 .563.013.7.013.156 0 1.232.005 1.325 0 .089-.006.166-.025.205-.03.028-.007.055-.026.077-.026.028 0 .033.025.033.05 0 .036-.028.097-.039.335-.005.055-.016.282-.027.342-.005.025-.016.086-.055.086-.033 0-.038-.025-.038-.068a.536.536 0 0 0-.034-.189c-.039-.09-.077-.164-.32-.189a15.328 15.328 0 0 0-.762-.024c-.022 0-.033.019-.033.05v1.28c0 .03.006.055.033.055.11 0 .74 0 .85-.012.116-.012.182-.03.232-.079.039-.037.055-.067.077-.067.023 0 .039.025.039.055s-.011.116-.039.378c-.01.105-.022.312-.022.347 0 .044-.005.118-.05.118-.032 0-.044-.02-.044-.043-.005-.055-.005-.123-.016-.19-.028-.103-.089-.182-.27-.2-.089-.013-.64-.025-.762-.025-.022 0-.028.025-.028.055v.415c0 .177-.005.616 0 .768.011.355.16.435.657.435.127 0 .331-.007.458-.068.122-.06.177-.17.21-.384.01-.056.021-.08.055-.08.039 0 .044.067.044.122 0 .116-.039.47-.066.574-.033.135-.078.135-.26.135-.364 0-.656-.007-.893-.02-.238-.005-.42-.011-.563-.011-.056 0-.16.006-.277.006-.115.006-.237.013-.336.013-.06 0-.094-.02-.094-.056 0-.024.017-.054.077-.054a.631.631 0 0 0 .171-.019c.1-.025.127-.123.144-.275.022-.22.022-.63.022-1.105v-.916zM180.345 4.744c0 .647.005 1.117.01 1.233.006.153.018.397.062.463.071.117.286.246.722.246.564 0 .939-.123 1.27-.44.353-.337.464-.892.464-1.52 0-.776-.293-1.277-.53-1.527-.508-.537-1.137-.61-1.568-.61-.11 0-.314.018-.358.042-.05.025-.067.056-.067.123-.005.207-.005.738-.005 1.22v.77zm-.69-.672c0-.927 0-1.099-.011-1.294-.011-.207-.055-.305-.238-.348a1.034 1.034 0 0 0-.215-.018c-.06 0-.093-.012-.093-.055s.038-.055.121-.055c.292 0 .64.018.795.018.17 0 .518-.018.85-.018.69 0 1.61 0 2.213.696.276.318.535.823.535 1.55 0 .77-.293 1.356-.601 1.704-.254.286-.828.72-1.85.72-.198 0-.425-.018-.634-.036-.21-.019-.403-.038-.54-.038-.061 0-.183 0-.316.007-.127 0-.27.012-.38.012-.072 0-.11-.019-.11-.061 0-.03.021-.049.088-.049a.79.79 0 0 0 .198-.024c.11-.024.138-.159.16-.336.028-.256.028-.739.028-1.3V4.072zM185.382 4.896c0 .055.011.074.044.092.105.036.249.048.37.048.193 0 .26-.017.342-.085.15-.116.315-.342.315-.77 0-.732-.453-.92-.74-.92-.12 0-.237.006-.287.017-.033.013-.044.032-.044.073v1.545zm-.618-.403c0-.787 0-.933-.006-1.099-.01-.177-.055-.232-.21-.28a.81.81 0 0 0-.192-.02c-.05 0-.083-.017-.083-.053 0-.037.038-.05.11-.05.254 0 .563.013.662.013.166 0 .607-.013.756-.013.31 0 .663.03.922.22a.932.932 0 0 1 .342.715c0 .384-.198.726-.673 1.148.43.586.773 1.056 1.065 1.379.27.3.442.324.52.342.049.012.076.012.115.012.038 0 .06.03.06.055 0 .043-.033.056-.093.056h-.464c-.27 0-.402-.03-.53-.105-.21-.116-.391-.36-.662-.763-.193-.28-.398-.629-.458-.709a.107.107 0 0 0-.088-.036l-.436-.012c-.022 0-.039.012-.039.043v.073c0 .483.005.885.028 1.105.016.153.038.25.187.275a1.6 1.6 0 0 0 .238.018c.038 0 .06.03.06.055 0 .037-.038.056-.099.056-.282 0-.684-.02-.756-.02-.094 0-.403.02-.596.02-.06 0-.094-.02-.094-.056 0-.024.017-.055.077-.055a.634.634 0 0 0 .172-.018c.099-.025.127-.122.143-.275.022-.22.022-.63.022-1.105v-.916zM188.824 4.493c0-.787 0-.933-.005-1.099-.01-.177-.056-.232-.21-.28a.811.811 0 0 0-.193-.02c-.05 0-.083-.017-.083-.053 0-.037.039-.05.11-.05.254 0 .564.013.702.013.154 0 1.23.005 1.324 0 .088-.006.166-.025.204-.03.028-.007.056-.026.078-.026.027 0 .033.025.033.05 0 .036-.028.097-.04.335-.005.055-.015.282-.026.342-.006.025-.017.086-.056.086-.033 0-.038-.025-.038-.068a.536.536 0 0 0-.033-.189c-.039-.09-.078-.164-.32-.189a15.328 15.328 0 0 0-.762-.024c-.022 0-.033.019-.033.05v1.28c0 .03.005.055.033.055.11 0 .74 0 .85-.012.115-.012.182-.03.232-.079.038-.037.055-.067.077-.067s.038.025.038.055-.01.116-.038.378a5.652 5.652 0 0 0-.022.347c0 .044-.006.118-.05.118-.033 0-.044-.02-.044-.043-.006-.055-.006-.123-.017-.19-.027-.103-.088-.182-.27-.2a14.09 14.09 0 0 0-.762-.025c-.022 0-.027.025-.027.055v.415c0 .177-.006.616 0 .768.01.355.16.435.656.435.127 0 .332-.007.459-.068.12-.06.176-.17.21-.384.01-.056.021-.08.055-.08.038 0 .043.067.043.122 0 .116-.038.47-.066.574-.033.135-.077.135-.26.135-.363 0-.656-.007-.893-.02-.238-.005-.42-.011-.563-.011-.055 0-.16.006-.276.006-.116.006-.237.013-.336.013-.061 0-.095-.02-.095-.056 0-.024.017-.054.078-.054a.63.63 0 0 0 .17-.019c.1-.025.128-.123.145-.275.021-.22.021-.63.021-1.105v-.916zM193.526 5.318c.022 0 .027-.012.022-.03l-.459-1.301c-.005-.018-.01-.05-.02-.05-.018 0-.023.032-.029.05l-.47 1.294c-.01.025 0 .037.018.037h.938zm-1.038.287c-.028 0-.033.005-.044.037l-.26.702c-.049.127-.07.257-.07.317 0 .091.043.146.192.146h.072c.06 0 .072.025.072.056 0 .042-.028.054-.078.054-.16 0-.386-.019-.54-.019-.05 0-.31.02-.563.02-.061 0-.089-.013-.089-.055 0-.03.017-.056.055-.056.045 0 .1-.005.144-.005.22-.037.304-.196.403-.458l1.269-3.243c.055-.146.094-.208.144-.208.071 0 .093.05.143.166.116.287.927 2.387 1.236 3.175.188.47.326.537.414.556.072.012.127.017.182.017.045 0 .067.018.067.056 0 .042-.028.054-.21.054-.171 0-.524 0-.933-.012-.088-.007-.143-.007-.143-.042 0-.03.01-.05.06-.056.033-.005.067-.055.045-.115l-.376-1.05c-.011-.032-.027-.037-.05-.037h-1.142zM196.333 3.034c.011-.085.056-.134.095-.134.05 0 .082.025.149.165l1.302 2.87 1.303-2.907c.038-.085.082-.128.126-.128.04 0 .094.055.11.165l.442 3.194c.044.322.089.463.237.512a.893.893 0 0 0 .276.049c.045 0 .078.018.078.048 0 .043-.056.062-.127.062-.121 0-.812-.02-1.004-.032-.117-.005-.144-.03-.144-.06 0-.025.022-.043.055-.055.028-.012.039-.073.022-.22l-.27-2.241h-.017l-1.043 2.297c-.11.243-.137.292-.193.292-.061 0-.116-.104-.193-.263-.116-.238-.502-1.031-.557-1.177-.039-.098-.326-.727-.486-1.087h-.017l-.232 2.002c-.01.092-.016.16-.016.245 0 .098.066.134.149.152a.73.73 0 0 0 .171.024c.044 0 .077.025.077.049 0 .05-.044.061-.116.061-.204 0-.425-.019-.513-.019-.094 0-.325.02-.48.02-.05 0-.089-.013-.089-.062 0-.024.028-.049.078-.049.039 0 .071 0 .149-.012.132-.018.176-.226.198-.397l.48-3.364zM201.255 6.85c-.077-.037-.094-.06-.094-.177 0-.28.022-.605.028-.69 0-.08.022-.134.06-.134.044 0 .05.048.05.085 0 .068.017.178.044.27.105.384.47.512.772.512.42 0 .674-.293.674-.66 0-.225-.05-.451-.48-.732l-.282-.184c-.573-.372-.761-.72-.761-1.178 0-.634.552-1.044 1.225-1.044.315 0 .563.049.69.086.044.012.066.03.066.067 0 .067-.016.214-.016.623 0 .11-.023.165-.061.165-.033 0-.05-.03-.05-.092a.623.623 0 0 0-.127-.341c-.071-.098-.226-.244-.54-.244-.348 0-.663.2-.663.554 0 .233.078.415.513.684l.2.123c.64.39.838.787.838 1.258 0 .384-.133.695-.486.97-.231.183-.552.213-.81.213-.283 0-.58-.03-.79-.134M208.207 4.664c-.116-.09-.243-.133-.458-.146-.1-.006-.155-.006-.237-.006-.023 0-.034.012-.034.043v1.447c0 .402.017.506.193.586a.92.92 0 0 0 .403.073c.249 0 .668-.147.668-.782 0-.378-.116-.891-.535-1.215zm-.729-.488c0 .048.017.06.039.068.05.012.133.018.26.018.181 0 .303-.025.397-.116.143-.129.226-.348.226-.647 0-.41-.215-.948-.69-.948-.078 0-.127 0-.182.013-.039.012-.05.037-.05.104v1.508zm-.662-.103c0-.929 0-1.1-.011-1.295-.01-.208-.055-.305-.237-.348a1.038 1.038 0 0 0-.215-.018c-.061 0-.094-.013-.094-.055 0-.043.038-.056.121-.056.292 0 .64.019.751.019.27 0 .485-.019.673-.019.999 0 1.175.593 1.175.916 0 .5-.259.8-.562 1.07.452.17 1.004.604 1.004 1.318 0 .654-.458 1.33-1.474 1.33-.066 0-.226-.012-.386-.017a6.735 6.735 0 0 0-.414-.02c-.06 0-.182 0-.314.007-.127 0-.27.013-.382.013-.07 0-.11-.02-.11-.062 0-.03.023-.048.089-.048.082 0 .15-.013.199-.025.11-.024.138-.16.16-.335.027-.257.027-.74.027-1.301V4.073zM211.39 4.896c0 .055.011.074.044.092.106.036.249.048.37.048.193 0 .26-.017.342-.085.15-.116.315-.342.315-.77 0-.732-.453-.92-.74-.92-.121 0-.237.006-.287.017-.033.013-.044.032-.044.073v1.545zm-.618-.403c0-.787 0-.933-.005-1.099-.012-.177-.056-.232-.21-.28a.811.811 0 0 0-.193-.02c-.05 0-.083-.017-.083-.053 0-.037.039-.05.11-.05.254 0 .563.013.663.013.165 0 .607-.013.756-.013.309 0 .662.03.921.22a.932.932 0 0 1 .342.715c0 .384-.198.726-.673 1.148.43.586.773 1.056 1.066 1.379.27.3.44.324.518.342.05.012.077.012.116.012.039 0 .06.03.06.055 0 .043-.033.056-.093.056h-.464c-.27 0-.402-.03-.53-.105-.209-.116-.392-.36-.662-.763-.193-.28-.397-.629-.458-.709a.108.108 0 0 0-.088-.036l-.436-.012c-.022 0-.039.012-.039.043v.073c0 .483.006.885.028 1.105.016.153.038.25.188.275a1.6 1.6 0 0 0 .237.018c.039 0 .06.03.06.055 0 .037-.038.056-.099.056-.281 0-.684-.02-.756-.02-.094 0-.403.02-.596.02-.06 0-.094-.02-.094-.056 0-.024.017-.055.078-.055a.632.632 0 0 0 .17-.018c.1-.025.128-.122.144-.275.022-.22.022-.63.022-1.105v-.916zM214.833 4.493c0-.787 0-.933-.006-1.099-.011-.177-.06-.237-.166-.275a.576.576 0 0 0-.176-.024c-.05 0-.077-.011-.077-.06 0-.031.038-.043.115-.043.182 0 .514.012.652.012.121 0 .436-.012.623-.012.06 0 .1.012.1.042 0 .05-.028.06-.078.06a.62.62 0 0 0-.143.02c-.133.023-.171.098-.182.28-.011.166-.011.312-.011 1.1v.915c0 .5 0 .916.022 1.136.016.141.05.22.193.244.067.013.176.019.248.019.056 0 .078.03.078.054 0 .037-.04.056-.094.056-.32 0-.652-.02-.784-.02-.11 0-.442.02-.635.02-.06 0-.093-.02-.093-.056 0-.024.016-.054.077-.054a.631.631 0 0 0 .17-.019c.1-.025.128-.098.145-.25.022-.214.022-.63.022-1.13v-.916zM217.658 6.209c.01.402.072.525.165.563.083.03.177.035.254.035.056 0 .083.025.083.056 0 .042-.045.054-.11.054-.315 0-.541-.019-.63-.019-.044 0-.276.02-.524.02-.066 0-.11-.007-.11-.055 0-.03.033-.056.077-.056a.877.877 0 0 0 .22-.024c.128-.036.144-.177.15-.63l.044-3.076c0-.104.033-.177.082-.177.061 0 .127.08.21.171.061.067.79.891 1.496 1.654.331.361.977 1.093 1.049 1.166h.022l-.05-2.307c-.006-.317-.05-.41-.166-.458-.071-.031-.187-.031-.254-.031-.06 0-.077-.024-.077-.054 0-.043.05-.05.122-.05.254 0 .513.013.618.013.055 0 .237-.013.475-.013.066 0 .11.007.11.05 0 .03-.028.054-.083.054-.05 0-.088 0-.149.019-.132.043-.171.134-.177.427l-.055 3.272c0 .117-.038.165-.077.165-.083 0-.15-.055-.199-.11-.303-.31-.91-.952-1.418-1.495-.53-.563-1.043-1.192-1.137-1.283h-.017l.056 2.119zM225.178 6.569c0 .14 0 .147-.06.183-.326.178-.807.232-1.187.232-1.192 0-2.246-.597-2.246-2.033 0-.83.403-1.41.85-1.696.463-.3.9-.337 1.308-.337.337 0 .761.061.86.086.1.018.271.048.387.055.055.005.067.024.067.06 0 .062-.034.202-.034.856 0 .078-.027.115-.066.115-.033 0-.044-.024-.05-.067a.732.732 0 0 0-.165-.427c-.144-.165-.508-.397-1.054-.397-.265 0-.602.006-.939.305-.27.245-.447.629-.447 1.264 0 1.117.651 1.93 1.69 1.93.126 0 .226 0 .341-.055.072-.037.094-.092.094-.183v-.478c0-.255 0-.45-.005-.609-.006-.178-.055-.233-.21-.281a.761.761 0 0 0-.188-.018c-.044 0-.077-.025-.077-.055 0-.043.038-.049.105-.049.254 0 .602.013.745.013.154 0 .408-.013.568-.013.066 0 .1.006.1.049 0 .03-.028.055-.061.055a.576.576 0 0 0-.132.018c-.133.025-.183.097-.188.281-.006.158-.006.366-.006.622v.574zM230.199 5.056c.027 0 .032-.02.027-.037l-.496-1.502c-.006-.025-.011-.056-.028-.056s-.028.03-.033.056l-.508 1.496c-.005.024 0 .043.022.043h1.016zm-1.127.304c-.027 0-.038.013-.049.049l-.298.837a1.27 1.27 0 0 0-.083.372c0 .11.05.19.221.19h.083c.066 0 .083.012.083.048 0 .05-.034.061-.095.061-.176 0-.414-.019-.584-.019-.06 0-.364.02-.652.02-.071 0-.104-.013-.104-.062 0-.036.022-.049.066-.049.05 0 .127-.005.171-.012.254-.036.359-.244.47-.55l1.384-3.785c.066-.176.1-.244.155-.244.05 0 .083.055.138.196.132.335 1.015 2.777 1.368 3.706.21.549.37.634.486.665.083.019.166.024.232.024.044 0 .072.006.072.049 0 .05-.05.061-.254.061-.199 0-.602 0-1.043-.012-.1-.007-.166-.007-.166-.05 0-.035.022-.048.078-.053.038-.013.077-.068.05-.141l-.442-1.257c-.011-.03-.028-.044-.056-.044h-1.23zM234.43 2.9c-.066-.226-.127-.372-.204-.434a.45.45 0 0 0-.221-.054c-.055 0-.089-.007-.089-.055 0-.043.045-.055.122-.055.287 0 .59.018.64.018.05 0 .293-.018.612-.018.078 0 .117.018.117.055 0 .048-.044.055-.1.055-.044 0-.1 0-.138.023-.05.025-.06.068-.06.136 0 .08.055.287.121.56.094.404.607 2.254.707 2.596h.016l1.07-3.187c.056-.17.095-.22.139-.22.06 0 .088.092.16.286l1.148 3.079h.016c.1-.41.54-2.022.735-2.736.038-.14.054-.268.054-.353 0-.098-.05-.184-.265-.184-.054 0-.093-.02-.093-.055 0-.043.044-.055.127-.055.292 0 .524.018.573.018.04 0 .276-.018.459-.018.06 0 .099.012.099.048 0 .043-.028.062-.077.062a.543.543 0 0 0-.193.03c-.133.056-.193.3-.31.647-.254.77-.833 2.711-1.103 3.627-.06.214-.088.287-.16.287-.055 0-.089-.073-.171-.299l-1.148-3.066H237c-.104.312-.838 2.48-1.076 3.041-.104.25-.132.324-.198.324-.055 0-.077-.067-.127-.226L234.43 2.9zM243.844 5.049c0-1.147-.624-1.856-1.408-1.856-.54 0-1.176.317-1.176 1.6 0 1.068.552 1.91 1.468 1.91.343 0 1.116-.177 1.116-1.654m-3.301-.098c0-.885.563-2.033 2.036-2.033 1.226 0 1.987.751 1.987 1.942 0 1.19-.783 2.124-2.036 2.124-1.413 0-1.987-1.11-1.987-2.033M246.364 4.896c0 .055.011.074.044.092.105.036.249.048.37.048.193 0 .26-.017.342-.085.15-.116.315-.342.315-.77 0-.732-.453-.92-.74-.92-.122 0-.237.006-.287.017-.033.013-.044.032-.044.073v1.545zm-.618-.403c0-.787 0-.933-.005-1.099-.012-.177-.056-.232-.21-.28a.811.811 0 0 0-.194-.02c-.049 0-.082-.017-.082-.053 0-.037.038-.05.11-.05.254 0 .563.013.663.013.165 0 .606-.013.756-.013.309 0 .662.03.92.22a.932.932 0 0 1 .342.715c0 .384-.197.726-.672 1.148.43.586.772 1.056 1.065 1.379.27.3.442.324.519.342.05.012.077.012.116.012.038 0 .06.03.06.055 0 .043-.033.056-.094.056h-.463c-.27 0-.402-.03-.53-.105-.21-.116-.392-.36-.662-.763-.193-.28-.398-.629-.458-.709a.108.108 0 0 0-.089-.036l-.436-.012c-.022 0-.038.012-.038.043v.073c0 .483.005.885.028 1.105.016.153.038.25.187.275a1.6 1.6 0 0 0 .238.018c.038 0 .06.03.06.055 0 .037-.039.056-.1.056-.28 0-.684-.02-.755-.02-.094 0-.403.02-.596.02-.061 0-.094-.02-.094-.056 0-.024.017-.055.077-.055a.627.627 0 0 0 .171-.018c.1-.025.127-.122.144-.275.022-.22.022-.63.022-1.105v-.916zM250.458 5.409c0 .666 0 .996.105 1.093.082.08.27.11.645.11.26 0 .447-.006.569-.147a.668.668 0 0 0 .122-.311c.004-.049.016-.08.054-.08.034 0 .045.056.045.117 0 .06-.033.445-.072.598-.033.116-.055.141-.309.141-.348 0-.629-.007-.872-.02-.243-.005-.447-.011-.646-.011-.055 0-.16.006-.276.006-.115.006-.237.013-.336.013-.061 0-.094-.02-.094-.056 0-.025.016-.054.077-.054a.634.634 0 0 0 .171-.019c.1-.024.127-.122.144-.275.022-.22.022-.63.022-1.105v-.916c0-.787 0-.934-.006-1.099-.01-.177-.055-.231-.21-.28a.564.564 0 0 0-.16-.02c-.055 0-.083-.017-.083-.053 0-.037.034-.05.106-.05.226 0 .535.013.667.013.116 0 .513-.012.701-.012.072 0 .105.012.105.049 0 .036-.028.054-.088.054a.942.942 0 0 0-.188.02c-.133.023-.171.097-.182.28-.011.164-.011.31-.011 1.098v.916zM253.78 5.067c0 .55.005.947.01 1.05.005.129.017.311.055.366.061.098.254.208.635.208.441 0 .767-.085 1.06-.354.314-.287.414-.75.414-1.288 0-.66-.238-1.087-.453-1.294-.447-.44-.977-.495-1.357-.495-.1 0-.26.013-.299.037-.044.018-.06.043-.06.104-.006.176-.006.604-.006 1.013v.653zm-.652-.574c0-.787 0-.933-.005-1.099-.011-.177-.056-.232-.21-.28a.814.814 0 0 0-.193-.02c-.05 0-.083-.017-.083-.053 0-.037.038-.05.11-.05.254 0 .563.013.7.013.15 0 .498-.013.79-.013.608 0 1.424 0 1.954.593.243.27.458.702.458 1.319 0 .654-.254 1.147-.53 1.447-.22.243-.734.61-1.628.61-.176 0-.386-.019-.58-.03a5.515 5.515 0 0 0-.49-.031c-.056 0-.16.006-.277.006-.115.006-.237.013-.336.013-.06 0-.094-.02-.094-.056 0-.024.017-.055.078-.055a.64.64 0 0 0 .17-.018c.1-.025.127-.122.144-.275.022-.22.022-.63.022-1.105v-.916zM262.69 5.049c0-1.147-.624-1.856-1.407-1.856-.54 0-1.176.317-1.176 1.6 0 1.068.552 1.91 1.468 1.91.342 0 1.115-.177 1.115-1.654m-3.3-.098c0-.885.563-2.033 2.036-2.033 1.225 0 1.987.751 1.987 1.942 0 1.19-.783 2.124-2.036 2.124-1.413 0-1.987-1.11-1.987-2.033M265.244 5.428c0 .5.006.866.028 1.086.016.153.05.25.193.275.066.013.171.019.237.019.06 0 .083.03.083.054 0 .037-.033.056-.105.056-.309 0-.651-.02-.779-.02-.126 0-.435.02-.618.02-.066 0-.099-.013-.099-.056 0-.024.017-.054.072-.054a.63.63 0 0 0 .171-.019c.1-.025.127-.122.143-.275.023-.22.023-.604.023-1.105v-.916c0-.787 0-.933-.006-1.099-.01-.177-.055-.237-.21-.28a.811.811 0 0 0-.193-.02c-.044 0-.082-.017-.082-.053 0-.037.038-.05.115-.05.249 0 .558.013.695.013.188 0 1.265.005 1.38 0 .09-.006.15-.012.2-.025.027-.006.049-.03.077-.03.016 0 .032.024.032.049 0 .036-.021.097-.038.232-.006.055-.017.36-.022.42-.006.043-.017.105-.05.105s-.06-.024-.06-.085c0-.043.005-.123-.028-.196-.033-.073-.127-.153-.31-.159l-.805-.018c-.028 0-.044.013-.044.074v1.257c0 .03.006.048.033.048l.679-.005c.083 0 .149 0 .22-.007.09-.005.161-.024.205-.09.027-.031.039-.056.066-.056.017 0 .027.018.027.048 0 .032-.022.171-.038.337-.011.103-.016.342-.016.378 0 .042-.006.115-.056.115-.027 0-.044-.035-.044-.073a.526.526 0 0 0-.033-.158.253.253 0 0 0-.232-.19 17.143 17.143 0 0 0-.778-.017c-.022 0-.033.005-.033.043v.427zM270.038 4.072c0-.928 0-1.099-.01-1.294-.012-.207-.057-.305-.238-.348a1.043 1.043 0 0 0-.216-.018c-.06 0-.093-.012-.093-.055s.038-.055.12-.055c.15 0 .31.006.448.006.144.006.27.012.347.012.177 0 1.276 0 1.38-.006.105-.012.194-.025.238-.037.028-.006.06-.024.088-.024.028 0 .033.024.033.055 0 .042-.027.115-.044.396-.005.062-.017.33-.027.403-.006.03-.017.067-.056.067-.038 0-.05-.03-.05-.085a.7.7 0 0 0-.032-.22c-.039-.11-.094-.182-.37-.219a16.26 16.26 0 0 0-.784-.024c-.028 0-.038.018-.038.06v1.545c0 .043.005.068.038.068.122 0 .756 0 .883-.013.132-.012.215-.03.265-.092.038-.048.06-.079.088-.079.022 0 .039.013.039.048 0 .038-.023.136-.044.446-.006.123-.022.367-.022.41 0 .048 0 .116-.05.116-.038 0-.05-.025-.05-.056-.005-.06-.005-.14-.022-.22-.027-.122-.104-.213-.309-.238a16.106 16.106 0 0 0-.783-.017c-.028 0-.033.024-.033.06v.483c0 .207-.006.77 0 .946.01.42.099.513.661.513.144 0 .376 0 .52-.073.143-.073.21-.201.248-.453.01-.066.022-.09.06-.09.044 0 .044.048.044.11 0 .14-.044.554-.07.677-.04.159-.09.159-.299.159-.415 0-.718-.013-.955-.019a11.197 11.197 0 0 0-.574-.019c-.06 0-.182 0-.315.007-.126 0-.27.012-.38.012-.072 0-.11-.019-.11-.061 0-.03.022-.049.088-.049a.798.798 0 0 0 .199-.024c.11-.024.137-.159.16-.336.027-.256.027-.739.027-1.3V4.072zM273.884 6.209c.01.402.072.525.165.563a.77.77 0 0 0 .254.035c.056 0 .083.025.083.056 0 .042-.045.054-.11.054-.315 0-.541-.019-.63-.019-.043 0-.276.02-.524.02-.066 0-.11-.007-.11-.055 0-.03.033-.056.077-.056a.868.868 0 0 0 .22-.024c.128-.036.144-.177.15-.63l.044-3.076c0-.104.033-.177.083-.177.06 0 .127.08.21.171.06.067.789.891 1.495 1.654.331.361.977 1.093 1.049 1.166h.022l-.05-2.307c-.006-.317-.05-.41-.165-.458-.072-.031-.188-.031-.255-.031-.06 0-.077-.024-.077-.054 0-.043.05-.05.122-.05.254 0 .513.013.618.013.055 0 .237-.013.474-.013.067 0 .111.007.111.05 0 .03-.028.054-.083.054-.05 0-.088 0-.149.019-.132.043-.171.134-.176.427l-.056 3.272c0 .117-.038.165-.077.165-.083 0-.149-.055-.199-.11-.303-.31-.91-.952-1.418-1.495-.53-.563-1.044-1.192-1.137-1.283h-.016l.055 2.119zM279.148 5.067c0 .55.005.947.01 1.05.006.129.017.311.056.366.06.098.253.208.634.208.441 0 .767-.085 1.06-.354.314-.287.414-.75.414-1.288 0-.66-.238-1.087-.453-1.294-.447-.44-.976-.495-1.358-.495-.098 0-.259.013-.297.037-.045.018-.061.043-.061.104-.005.176-.005.604-.005 1.013v.653zm-.652-.574c0-.787 0-.933-.006-1.099-.01-.177-.055-.232-.209-.28a.811.811 0 0 0-.193-.02c-.05 0-.083-.017-.083-.053 0-.037.039-.05.11-.05.254 0 .563.013.7.013.15 0 .498-.013.79-.013.607 0 1.424 0 1.954.593.243.27.458.702.458 1.319 0 .654-.254 1.147-.53 1.447-.22.243-.734.61-1.628.61-.177 0-.386-.019-.58-.03a5.526 5.526 0 0 0-.49-.031c-.055 0-.16.006-.277.006-.115.006-.237.013-.336.013-.06 0-.094-.02-.094-.056 0-.024.016-.055.078-.055a.632.632 0 0 0 .17-.018c.1-.025.127-.122.144-.275.022-.22.022-.63.022-1.105v-.916zM283.953 5.409c0 .666 0 .996.104 1.093.083.08.271.11.646.11.26 0 .448-.006.569-.147a.668.668 0 0 0 .121-.311c.006-.049.017-.08.055-.08.034 0 .045.056.045.117 0 .06-.033.445-.072.598-.033.116-.055.141-.309.141-.348 0-.63-.007-.872-.02-.243-.005-.448-.011-.646-.011-.055 0-.16.006-.276.006-.116.006-.237.013-.336.013-.06 0-.095-.02-.095-.056 0-.025.017-.054.078-.054a.634.634 0 0 0 .171-.019c.1-.024.127-.122.143-.275.022-.22.022-.63.022-1.105v-.916c0-.787 0-.934-.005-1.099-.01-.177-.055-.231-.21-.28a.564.564 0 0 0-.16-.02c-.055 0-.082-.017-.082-.053 0-.037.032-.05.104-.05.227 0 .536.013.668.013.116 0 .514-.012.7-.012.073 0 .106.012.106.049 0 .036-.027.054-.089.054a.942.942 0 0 0-.187.02c-.133.023-.171.097-.182.28-.011.164-.011.31-.011 1.098v.916zM286.623 4.493c0-.787 0-.933-.005-1.099-.011-.177-.056-.232-.21-.28a.811.811 0 0 0-.193-.02c-.05 0-.083-.017-.083-.053 0-.037.038-.05.11-.05.254 0 .563.013.7.013.156 0 1.232.005 1.326 0 .088-.006.166-.025.204-.03.027-.007.055-.026.077-.026.028 0 .033.025.033.05 0 .036-.028.097-.039.335-.005.055-.016.282-.027.342-.005.025-.017.086-.055.086-.034 0-.039-.025-.039-.068a.546.546 0 0 0-.033-.189c-.04-.09-.077-.164-.32-.189a15.328 15.328 0 0 0-.762-.024c-.022 0-.033.019-.033.05v1.28c0 .03.006.055.033.055.11 0 .74 0 .85-.012.116-.012.182-.03.232-.079.038-.037.055-.067.077-.067s.038.025.038.055-.01.116-.038.378c-.01.105-.022.312-.022.347 0 .044-.006.118-.05.118-.033 0-.044-.02-.044-.043-.005-.055-.005-.123-.016-.19-.028-.103-.088-.182-.27-.2a14.09 14.09 0 0 0-.762-.025c-.022 0-.028.025-.028.055v.415c0 .177-.006.616 0 .768.01.355.16.435.657.435.127 0 .33-.007.458-.068.122-.06.176-.17.21-.384.01-.056.022-.08.054-.08.04 0 .045.067.045.122 0 .116-.039.47-.066.574-.033.135-.078.135-.26.135-.364 0-.656-.007-.893-.02-.238-.005-.42-.011-.564-.011-.055 0-.16.006-.276.006-.116.006-.237.013-.336.013-.06 0-.094-.02-.094-.056 0-.024.016-.054.077-.054a.636.636 0 0 0 .172-.019c.099-.025.126-.123.143-.275.022-.22.022-.63.022-1.105v-.916zM289.812 6.85c-.078-.037-.094-.06-.094-.177 0-.28.022-.605.027-.69 0-.08.023-.134.06-.134.045 0 .05.048.05.085 0 .068.017.178.045.27.105.384.47.512.773.512.419 0 .673-.293.673-.66 0-.225-.05-.451-.48-.732l-.282-.184c-.574-.372-.761-.72-.761-1.178 0-.634.552-1.044 1.225-1.044.315 0 .563.049.69.086.044.012.066.03.066.067 0 .067-.017.214-.017.623 0 .11-.021.165-.06.165-.034 0-.05-.03-.05-.092a.619.619 0 0 0-.127-.341c-.072-.098-.226-.244-.54-.244-.348 0-.663.2-.663.554 0 .233.077.415.514.684l.198.123c.64.39.839.787.839 1.258 0 .384-.132.695-.486.97-.231.183-.551.213-.81.213-.282 0-.58-.03-.79-.134M293.067 6.85c-.077-.037-.094-.06-.094-.177 0-.28.022-.605.028-.69 0-.08.021-.134.06-.134.044 0 .05.048.05.085 0 .068.017.178.044.27.105.384.469.512.772.512.42 0 .674-.293.674-.66 0-.225-.05-.451-.48-.732l-.282-.184c-.573-.372-.761-.72-.761-1.178 0-.634.552-1.044 1.225-1.044.315 0 .563.049.69.086.044.012.066.03.066.067 0 .067-.016.214-.016.623 0 .11-.022.165-.06.165-.034 0-.05-.03-.05-.092a.623.623 0 0 0-.128-.341c-.072-.098-.226-.244-.54-.244-.348 0-.663.2-.663.554 0 .233.078.415.514.684l.198.123c.64.39.84.787.84 1.258 0 .384-.133.695-.487.97-.231.183-.551.213-.81.213-.283 0-.58-.03-.79-.134M298.629 4.072c0-.928 0-1.099-.011-1.294-.012-.207-.056-.305-.238-.348a1.034 1.034 0 0 0-.215-.018c-.06 0-.094-.012-.094-.055s.039-.055.121-.055c.293 0 .64.018.795.018.226 0 .547-.018.8-.018.69 0 .938.256 1.027.348.122.128.276.402.276.726 0 .868-.574 1.477-1.358 1.477-.028 0-.088 0-.116-.005-.027-.006-.065-.013-.065-.056 0-.048.038-.067.153-.067.31 0 .74-.384.74-1.007 0-.201-.016-.61-.326-.916a.774.774 0 0 0-.551-.238.718.718 0 0 0-.215.025c-.028.012-.044.05-.044.115v2.443c0 .561 0 1.044.027 1.306.017.171.05.306.216.33.076.012.198.024.28.024.061 0 .089.018.089.049 0 .042-.044.061-.105.061-.364 0-.712-.019-.855-.019-.127 0-.475.02-.695.02-.073 0-.111-.02-.111-.062 0-.03.022-.049.088-.049a.79.79 0 0 0 .199-.024c.11-.024.138-.159.16-.336.028-.256.028-.739.028-1.3V4.072zM305.178 5.049c0-1.147-.623-1.856-1.407-1.856-.541 0-1.176.317-1.176 1.6 0 1.068.553 1.91 1.468 1.91.343 0 1.115-.177 1.115-1.654m-3.3-.098c0-.885.563-2.033 2.036-2.033 1.226 0 1.987.751 1.987 1.942 0 1.19-.784 2.124-2.036 2.124-1.413 0-1.987-1.11-1.987-2.033M306.981 6.85c-.077-.037-.093-.06-.093-.177 0-.28.022-.605.027-.69 0-.08.022-.134.06-.134.045 0 .05.048.05.085 0 .068.017.178.045.27.105.384.469.512.772.512.42 0 .674-.293.674-.66 0-.225-.05-.451-.48-.732l-.282-.184c-.574-.372-.762-.72-.762-1.178 0-.634.552-1.044 1.225-1.044.315 0 .563.049.69.086.045.012.067.03.067.067 0 .067-.017.214-.017.623 0 .11-.022.165-.06.165-.034 0-.05-.03-.05-.092a.623.623 0 0 0-.127-.341c-.072-.098-.227-.244-.541-.244-.348 0-.662.2-.662.554 0 .233.077.415.513.684l.199.123c.64.39.839.787.839 1.258 0 .384-.133.695-.486.97-.232.183-.552.213-.811.213-.282 0-.58-.03-.79-.134M310.236 6.85c-.076-.037-.093-.06-.093-.177 0-.28.021-.605.028-.69 0-.08.021-.134.06-.134.044 0 .05.048.05.085 0 .068.016.178.044.27.104.384.469.512.772.512.42 0 .674-.293.674-.66 0-.225-.05-.451-.48-.732l-.282-.184c-.573-.372-.761-.72-.761-1.178 0-.634.552-1.044 1.225-1.044.314 0 .563.049.69.086.044.012.066.03.066.067 0 .067-.016.214-.016.623 0 .11-.023.165-.061.165-.034 0-.05-.03-.05-.092a.621.621 0 0 0-.127-.341c-.072-.098-.227-.244-.54-.244-.349 0-.664.2-.664.554 0 .233.079.415.514.684l.199.123c.64.39.839.787.839 1.258 0 .384-.133.695-.486.97-.232.183-.552.213-.81.213-.283 0-.581-.03-.79-.134M313.646 4.493c0-.787 0-.933-.005-1.099-.011-.177-.061-.237-.166-.275a.582.582 0 0 0-.177-.024c-.05 0-.076-.011-.076-.06 0-.031.038-.043.115-.043.183 0 .514.012.651.012.122 0 .437-.012.624-.012.06 0 .1.012.1.042 0 .05-.028.06-.078.06a.62.62 0 0 0-.143.02c-.133.023-.172.098-.183.28-.01.166-.01.312-.01 1.1v.915c0 .5 0 .916.021 1.136.017.141.05.22.194.244.066.013.177.019.248.019.055 0 .077.03.077.054 0 .037-.038.056-.094.056-.32 0-.651-.02-.783-.02-.11 0-.441.02-.635.02-.06 0-.094-.02-.094-.056 0-.024.017-.054.078-.054a.636.636 0 0 0 .171-.019c.099-.025.127-.098.143-.25.022-.214.022-.63.022-1.13v-.916zM316.797 6.105c0 .342.016.446.17.514.128.054.238.06.348.06.26 0 .596-.158.596-.732 0-.239-.093-.648-.457-.923a.649.649 0 0 0-.42-.133h-.21c-.016 0-.027.005-.027.036v1.178zm0-1.526c0 .043.016.05.032.055a.916.916 0 0 0 .227.018c.16 0 .298-.018.38-.092.128-.11.221-.298.221-.548 0-.349-.187-.782-.607-.782-.066 0-.16 0-.21.012-.032.006-.043.03-.043.086v1.25zm-.63-.086c0-.787 0-.934-.005-1.099-.01-.177-.055-.231-.21-.28a.778.778 0 0 0-.193-.02c-.05 0-.082-.017-.082-.053 0-.037.038-.05.11-.05.254 0 .563.013.656.013.243 0 .563-.013.729-.013.877 0 1.032.501 1.032.776 0 .404-.27.714-.547.91.398.14.895.512.895 1.124 0 .554-.398 1.13-1.291 1.13-.056 0-.221-.008-.387-.02-.165-.006-.337-.013-.414-.013-.055 0-.16.007-.276.007-.116.006-.238.012-.336.012-.061 0-.095-.019-.095-.055 0-.025.017-.055.078-.055a.63.63 0 0 0 .171-.018c.1-.024.127-.122.143-.275.023-.22.023-.63.023-1.105v-.916zM319.754 4.493c0-.787 0-.933-.006-1.099-.01-.177-.06-.237-.165-.275a.579.579 0 0 0-.177-.024c-.05 0-.077-.011-.077-.06 0-.031.039-.043.116-.043.182 0 .513.012.651.012.122 0 .436-.012.623-.012.061 0 .1.012.1.042 0 .05-.028.06-.078.06a.627.627 0 0 0-.143.02c-.133.023-.17.098-.182.28-.011.166-.011.312-.011 1.1v.915c0 .5 0 .916.022 1.136.017.141.05.22.193.244.067.013.177.019.249.019.055 0 .077.03.077.054 0 .037-.039.056-.094.056-.32 0-.651-.02-.784-.02-.11 0-.441.02-.634.02-.06 0-.094-.02-.094-.056 0-.024.017-.054.078-.054a.63.63 0 0 0 .17-.019c.1-.025.127-.098.144-.25.022-.214.022-.63.022-1.13v-.916zM322.927 5.409c0 .666 0 .996.105 1.093.082.08.27.11.645.11.26 0 .448-.006.569-.147a.668.668 0 0 0 .122-.311c.004-.049.016-.08.054-.08.034 0 .044.056.044.117 0 .06-.032.445-.072.598-.033.116-.054.141-.308.141-.348 0-.629-.007-.872-.02-.243-.005-.447-.011-.646-.011-.055 0-.16.006-.276.006-.116.006-.237.013-.336.013-.061 0-.094-.02-.094-.056 0-.025.016-.054.077-.054.071 0 .127-.006.171-.019.1-.024.127-.122.143-.275.022-.22.022-.63.022-1.105v-.916c0-.787 0-.934-.005-1.099-.011-.177-.055-.231-.21-.28a.56.56 0 0 0-.16-.02c-.055 0-.083-.017-.083-.053 0-.037.034-.05.105-.05.227 0 .535.013.669.013.115 0 .512-.012.7-.012.072 0 .105.012.105.049 0 .036-.028.054-.088.054a.95.95 0 0 0-.188.02c-.133.023-.171.097-.182.28-.011.164-.011.31-.011 1.098v.916zM325.596 4.493c0-.787 0-.933-.005-1.099-.01-.177-.06-.237-.166-.275a.576.576 0 0 0-.176-.024c-.05 0-.077-.011-.077-.06 0-.031.038-.043.116-.043.182 0 .513.012.65.012.122 0 .437-.012.624-.012.06 0 .1.012.1.042 0 .05-.028.06-.078.06a.628.628 0 0 0-.144.02c-.132.023-.17.098-.182.28-.01.166-.01.312-.01 1.1v.915c0 .5 0 .916.022 1.136.016.141.05.22.193.244.066.013.177.019.248.019.055 0 .077.03.077.054 0 .037-.038.056-.093.056-.32 0-.652-.02-.784-.02-.11 0-.441.02-.634.02-.061 0-.095-.02-.095-.056 0-.024.017-.054.078-.054a.634.634 0 0 0 .171-.019c.1-.025.127-.098.144-.25.021-.214.021-.63.021-1.13v-.916zM328.764 3.31l-.723.018c-.282.005-.397.042-.47.159a.63.63 0 0 0-.082.176c-.011.042-.022.067-.056.067-.032 0-.044-.03-.044-.085 0-.085.094-.586.105-.63.011-.066.028-.097.056-.097.038 0 .088.043.21.061.143.02.325.025.485.025h1.97c.155 0 .26-.013.332-.025.077-.013.115-.024.132-.024.033 0 .038.031.038.11 0 .11-.011.495-.011.628-.005.056-.016.086-.044.086-.038 0-.05-.024-.055-.104l-.006-.055c-.01-.133-.137-.292-.574-.299l-.612-.011v2.1c0 .475.006.885.028 1.11.016.147.043.245.187.27.066.011.177.017.25.017.054 0 .076.03.076.055 0 .036-.038.056-.095.056-.319 0-.645-.02-.783-.02-.11 0-.441.02-.634.02-.06 0-.094-.02-.094-.056 0-.024.016-.055.077-.055a.63.63 0 0 0 .171-.018c.1-.024.127-.122.143-.276.023-.218.023-.628.023-1.104v-2.1zM331.886 4.493c0-.787 0-.933-.005-1.099-.01-.177-.06-.237-.166-.275a.579.579 0 0 0-.176-.024c-.05 0-.077-.011-.077-.06 0-.031.038-.043.115-.043.182 0 .514.012.651.012.122 0 .437-.012.624-.012.061 0 .1.012.1.042 0 .05-.028.06-.078.06a.62.62 0 0 0-.143.02c-.133.023-.171.098-.182.28-.011.166-.011.312-.011 1.1v.915c0 .5 0 .916.022 1.136.016.141.05.22.193.244.066.013.176.019.248.019.055 0 .078.03.078.054 0 .037-.04.056-.094.056-.32 0-.652-.02-.784-.02-.11 0-.442.02-.634.02-.061 0-.095-.02-.095-.056 0-.024.017-.054.078-.054a.63.63 0 0 0 .17-.019c.1-.025.128-.098.144-.25.022-.214.022-.63.022-1.13v-.916zM334.407 4.493c0-.787 0-.933-.005-1.099-.01-.177-.055-.232-.21-.28a.811.811 0 0 0-.193-.02c-.05 0-.083-.017-.083-.053 0-.037.039-.05.111-.05.254 0 .563.013.7.013.155 0 1.232.005 1.325 0 .088-.006.166-.025.205-.03.027-.007.055-.026.076-.026.029 0 .034.025.034.05 0 .036-.028.097-.04.335-.004.055-.015.282-.026.342-.006.025-.017.086-.056.086-.033 0-.038-.025-.038-.068a.546.546 0 0 0-.033-.189c-.039-.09-.077-.164-.32-.189a15.308 15.308 0 0 0-.762-.024c-.022 0-.033.019-.033.05v1.28c0 .03.006.055.033.055.11 0 .74 0 .85-.012.116-.012.182-.03.232-.079.038-.037.055-.067.077-.067s.038.025.038.055-.01.116-.038.378c-.01.105-.022.312-.022.347 0 .044-.006.118-.05.118-.033 0-.044-.02-.044-.043-.006-.055-.006-.123-.017-.19-.028-.103-.088-.182-.27-.2a14.07 14.07 0 0 0-.761-.025c-.022 0-.028.025-.028.055v.415c0 .177-.006.616 0 .768.01.355.16.435.657.435.127 0 .33-.007.458-.068.121-.06.176-.17.21-.384.01-.056.021-.08.055-.08.039 0 .043.067.043.122 0 .116-.038.47-.066.574-.033.135-.077.135-.259.135-.364 0-.657-.007-.894-.02-.237-.005-.42-.011-.563-.011-.055 0-.16.006-.276.006-.115.006-.237.013-.336.013-.06 0-.095-.02-.095-.056 0-.024.017-.054.078-.054a.631.631 0 0 0 .171-.019c.1-.025.127-.123.143-.275.022-.22.022-.63.022-1.105v-.916zM337.596 6.85c-.076-.037-.094-.06-.094-.177 0-.28.022-.605.029-.69 0-.08.021-.134.06-.134.044 0 .05.048.05.085 0 .068.016.178.044.27.104.384.469.512.772.512.42 0 .674-.293.674-.66 0-.225-.05-.451-.48-.732l-.282-.184c-.574-.372-.762-.72-.762-1.178 0-.634.553-1.044 1.226-1.044.314 0 .563.049.69.086.043.012.066.03.066.067 0 .067-.017.214-.017.623 0 .11-.022.165-.06.165-.034 0-.05-.03-.05-.092a.621.621 0 0 0-.127-.341c-.072-.098-.227-.244-.541-.244-.348 0-.663.2-.663.554 0 .233.079.415.514.684l.199.123c.64.39.839.787.839 1.258 0 .384-.133.695-.486.97-.232.183-.552.213-.811.213-.282 0-.58-.03-.79-.134"/>
            <g>
                <path d="M4.454.036c.286.042.593.09.924.145.235.049.352.115.352.199 0 .06-.053.102-.16.126-.162.06-.243.109-.243.146V1.81h1.066c.24-.368.406-.585.496-.651a.088.088 0 0 1 .05-.019c.073.025.196.121.37.29.24.23.371.393.394.49 0 .084-.02.132-.059.144H5.327v1.567h.898c.224-.333.378-.529.462-.589a.156.156 0 0 1 .06-.009c.066.018.178.103.335.254.218.216.34.37.37.462 0 .084-.024.132-.068.144H5.327V5.66h1.159c.257-.399.433-.634.528-.707a.1.1 0 0 1 .06-.017c.083.024.217.123.402.298.257.253.4.432.428.535 0 .084-.02.133-.059.145H5.327v.135c.017 1.05.03 1.786.042 2.21 0 .162-.193.244-.579.244-.196 0-.293-.063-.293-.19.016-.363.027-1.13.033-2.3V.924a15.007 15.007 0 0 0-.076-.888M.35 1.748c.19.035.797.06 1.821.071h.588L2.75 1.53C2.74.92 2.711.435 2.666.072 3.545.2 3.984.32 3.984.435c0 .071-.075.127-.226.163a.458.458 0 0 0-.177.19L3.573 4.31C3.405 6.483 2.423 7.893.627 8.538c-.012-.024-.042-.051-.093-.082.638-.392 1.181-.983 1.628-1.774.202-.301.354-.691.454-1.168-.414.247-.982.498-1.704.751-.045.284-.1.426-.168.426-.056 0-.129-.133-.218-.398-.079-.26-.17-.58-.277-.96.185.036.47.055.856.055.677-.043 1.2-.119 1.57-.227.055-.356.09-.746.1-1.169v-.135h-.579c-.587.006-1.044.03-1.368.073a5.81 5.81 0 0 1-.134-.399c.162.03.683.052 1.561.064h.52L2.76 2.064h-.68c-.677.007-1.209.033-1.595.082a6.1 6.1 0 0 1-.134-.398M15.375 2.536c.985.765 1.478 1.5 1.478 2.199 0 .224-.062.378-.185.462a.4.4 0 0 1-.293.118c-.219 0-.373-.323-.462-.969-.124-.706-.342-1.271-.655-1.693.028-.03.067-.07.117-.117M14.1.326l.89.425h2.149c.263-.35.445-.524.546-.524.1 0 .265.108.495.326.173.162.26.274.26.334 0 .127-.126.263-.377.407v5.578c0 .266.12.401.36.408h.57c.22 0 .348-.14.387-.417.078-.241.151-.767.219-1.575h.184v1.376c0 .247.034.38.101.398.14.097.218.16.235.19a.401.401 0 0 1 .067.209c-.011.308-.3.51-.865.606-.184.03-.394.045-.63.045h-.486c-.626-.005-.951-.323-.974-.95V.97h-2.266l.008 2.852c0 .978-.08 1.708-.243 2.19-.095.4-.325.816-.689 1.25-.47.58-.945.965-1.426 1.159-.045 0-.093-.033-.143-.1a4.89 4.89 0 0 0 1.234-1.71c.274-.55.42-1.467.437-2.753 0-1.394-.006-2.254-.017-2.58 0-.278-.009-.595-.026-.95M30.871 5.794c.912.514 1.368 1.005 1.368 1.477 0 .199-.056.34-.168.425a.42.42 0 0 1-.276.1c-.207 0-.35-.23-.429-.689-.112-.506-.313-.91-.604-1.213l.109-.1zm-1.595-1.267h1.662v-1.15h-1.662v1.15zm0-1.404h1.662V2.118h-1.662v1.005zm0-1.24h1.662V.833h-1.662v1.05zM28.462.3l.739.299h1.603c.23-.302.383-.456.462-.462.078.006.232.099.461.28.207.17.31.293.31.372 0 .053-.039.108-.117.162a2.024 2.024 0 0 0-.234.218V3.34c.033.84.05 1.382.05 1.63 0 .204-.148.31-.445.317-.224 0-.342-.057-.353-.173v-.352h-1.662v.207c-.034.181-.19.273-.47.273-.173 0-.277-.031-.31-.092 0-.772.01-1.526.033-2.263V1.422c-.011-.634-.033-1.009-.067-1.123zm-.226 5.142c.766.103 1.163.417 1.191.942a.97.97 0 0 1-.042.317c-.067.18-.179.272-.335.272-.084 0-.202-.178-.353-.534a2.902 2.902 0 0 0-.52-.888.198.198 0 0 0 .059-.109zm-1.78.045c.84.164 1.26.284 1.26.363 0 .102-.152.211-.454.327v.922c0 .272.137.417.41.435h1.529c.313-.006.529-.112.646-.317.084-.145.188-.477.31-.995l.151.008v.978c.006.078.062.139.169.181.117.073.176.151.176.235-.011.29-.263.48-.756.57a9.377 9.377 0 0 1-1.166.073c-.801 0-1.307-.018-1.52-.054-.459-.03-.688-.452-.688-1.268v-.497c0-.465-.022-.786-.067-.96zm-.646.4c.1 0 .15.003.15.008.018.175.026.45.026.824-.006.791-.283 1.192-.831 1.204-.291 0-.448-.102-.47-.308 0-.175.095-.355.285-.543.157-.071.33-.232.52-.48.135-.169.24-.405.32-.706zm1.88-4.98c.028 0 .078.029.15.09.308.29.482.483.521.58 0 .072-.022.108-.067.108h-1.276v.453c.756.423 1.136.805 1.142 1.15 0 .235-.059.392-.176.47a.399.399 0 0 1-.219.055c-.106 0-.199-.145-.277-.435-.134-.404-.29-.734-.47-.987v2.563c0 .157-.16.242-.478.253-.185 0-.277-.048-.277-.145l.017-2.028A4.461 4.461 0 0 1 24.744 4.7c-.029 0-.057-.033-.085-.099.666-.786 1.103-1.627 1.31-2.527a6.73 6.73 0 0 0 .1-.389h-.284c-.359 0-.636.024-.832.073a6.136 6.136 0 0 0-.117-.372c.19.042.506.066.949.073h.503v-.87a6.911 6.911 0 0 1-.042-.543c.7.091 1.085.202 1.158.335 0 .08-.053.136-.16.173-.15.083-.226.138-.226.162v.743h.21c.123-.188.246-.35.37-.489.038-.043.07-.064.092-.064zM41.952 3.395h1.377V2.3h-1.377v1.095zm-1.998 0h1.284V2.3h-1.3v.625c0 .145.005.302.016.47zm-.033-1.34h1.502c.218-.35.36-.621.428-.815h-1.259a4.123 4.123 0 0 1-.478.517 2.79 2.79 0 0 1-.26.262l.067.036zM40.306 0c.79.247 1.184.425 1.184.534 0 .084-.18.151-.537.198a2.49 2.49 0 0 1-.185.263h1.058c.252-.283.406-.434.462-.452.072 0 .237.112.495.335.207.2.313.317.32.353 0 .061-.043.103-.127.127a1.2 1.2 0 0 1-.37.081 4.18 4.18 0 0 1-.856.616h1.486c.213-.29.355-.438.428-.443.078.005.224.093.437.262.19.15.285.266.285.344 0 .055-.042.106-.126.154a1.089 1.089 0 0 0-.235.199v.616c.034.242.05.4.05.47 0 .188-.14.285-.42.29-.2 0-.31-.051-.327-.153V3.63h-1.35c-.141.192-.297.361-.471.506.297.32.52.643.672.97.47-.388.78-.782.931-1.187.577.35.865.564.865.644 0 .06-.045.09-.135.09l-.276.018a7.512 7.512 0 0 1-.63.326c.14.465.383.86.73 1.186.325.314.647.525.965.634a.738.738 0 0 1-.041.172.407.407 0 0 0-.303.163 2.1 2.1 0 0 0-.176.317c-.05.09-.1.138-.151.145-.095-.013-.277-.206-.546-.58a4.719 4.719 0 0 1-.68-1.956 9.19 9.19 0 0 1-.486.173c.162.386.243.766.243 1.14 0 1.178-.249 1.862-.747 2.055a.823.823 0 0 1-.336.064c-.123 0-.184-.06-.184-.181-.029-.254-.135-.432-.32-.534a2.445 2.445 0 0 0-.662-.245v-.109c.525.043.945.067 1.259.073.173 0 .268-.396.285-1.186a9.945 9.945 0 0 1-2.888 1.168.444.444 0 0 1-.084-.145c1.198-.496 2.175-1.135 2.93-1.92-.011-.079-.022-.151-.033-.217a9.355 9.355 0 0 1-2.854 1.16.422.422 0 0 1-.084-.146c1.102-.453 2-1.05 2.694-1.793a1.242 1.242 0 0 0-.1-.181c-.655.514-1.542.827-2.662.943a.334.334 0 0 0-.067-.146c1.136-.296 1.93-.77 2.384-1.42l-1.057-.001c0 .066.002.13.008.19-.034.145-.202.217-.504.217-.15 0-.226-.046-.226-.136.01-.283.017-.594.017-.932v-.49a4.324 4.324 0 0 1-.387.236.963.963 0 0 0-.084-.1c.84-.9 1.346-1.771 1.52-2.616zm-2.182.045c.828.181 1.243.338 1.243.471 0 .09-.149.16-.445.208a13.064 13.064 0 0 1-.638 1.684c.28.085.42.157.42.218 0 .043-.062.08-.185.117-.107.049-.16.09-.16.126v3.07c.022.84.034 1.624.034 2.355-.023.15-.199.235-.53.253-.212 0-.318-.055-.318-.162.022-.804.034-1.612.034-2.427V3.622a4.933 4.933 0 0 1-.798.896l-.05-.118c.671-1.08 1.136-2.532 1.393-4.355zM53.595 4.319a.76.76 0 0 1-.218.544.669.669 0 0 1-.512.243.666.666 0 0 1-.512-.243.757.757 0 0 1-.219-.544c0-.211.073-.392.219-.543a.664.664 0 0 1 .512-.245c.195 0 .366.081.512.245.145.15.218.332.218.543M67.185.1c.291.042.596.093.915.154.235.042.352.105.352.19 0 .06-.05.099-.15.117-.163.066-.244.118-.244.154v5.342a155.2 155.2 0 0 0 .034 2.21c0 .163-.19.244-.57.244-.197 0-.295-.064-.295-.19.017-.362.028-1.13.034-2.3V.985c-.017-.3-.042-.597-.076-.886zm-4.197 2.788c-.14.852-.255 1.494-.344 1.929h2.149c.252-.296.414-.443.487-.443.078.005.23.11.453.316.23.218.344.36.344.425 0 .067-.053.128-.16.181a1.53 1.53 0 0 0-.21.136c-.105 1.141-.257 1.884-.452 2.227-.123.466-.507.752-1.15.861-.101 0-.166-.067-.194-.2a.962.962 0 0 0-.369-.533 1.663 1.663 0 0 0-.646-.309.964.964 0 0 0 .034-.18 7.5 7.5 0 0 0 1.091.199c.268 0 .43-.085.486-.254.13-.254.26-.98.395-2.182h-2.3c-.061.326-.098.489-.109.489-.034.11-.163.163-.386.163-.319 0-.479-.052-.479-.154.404-1.69.618-2.783.647-3.277.358.162.6.287.73.371h1.687V.924h-1.737c-.582 0-1.013.024-1.293.071a3.832 3.832 0 0 0-.11-.361c.22.041.7.063 1.445.063h1.586c.257-.338.43-.507.52-.507.068 0 .208.09.42.272.224.205.336.347.336.425 0 .054-.042.112-.126.172a7.384 7.384 0 0 0-.26.181v1.223c.034.277.05.522.05.733 0 .174-.187.274-.562.299-.18-.006-.269-.073-.269-.199v-.408h-1.704zM77.703 5.604c.168.507.473.933.916 1.277.318-.386.536-.812.654-1.277h-1.57zm1.973-.615c.055 0 .187.085.394.253.152.163.23.257.236.28 0 .049-.014.08-.043.092-.095.042-.148.078-.159.109a3.8 3.8 0 0 1-.949 1.511c.068.03.13.061.185.09.347.164.901.245 1.662.245-.011.079-.02.127-.025.146-.073 0-.157.095-.252.289l-.059.38c-.022.091-.07.136-.142.136-.627-.036-1.248-.33-1.864-.878-.61.416-1.374.707-2.291.87a.652.652 0 0 1-.059-.118 7.734 7.734 0 0 0 1.528-.843c.15-.102.29-.208.42-.317-.337-.416-.569-.957-.697-1.62-.23.005-.398.024-.504.054a14.004 14.004 0 0 0-.16-.363c.235.049.594.073 1.075.073h1.267c.235-.26.38-.39.437-.39zM74.43 1.15c.24.036.437.09.587.163.308.157.462.338.462.543 0 .217-.053.369-.16.452a.443.443 0 0 1-.285.083c-.129 0-.213-.109-.252-.327a1.813 1.813 0 0 0-.159-.435 3.228 3.228 0 0 0-.269-.38.908.908 0 0 0 .076-.099zM77.3.09c.085.024.239.154.462.39.218.235.327.404.327.507 0 .055-.072.093-.218.117.151.205.305.387.462.544.397-.447.64-.881.73-1.304.582.235.873.387.873.452-.005.067-.14.106-.403.118-.23.296-.596.574-1.1.834.236.223.474.404.714.542.425-.392.725-.826.898-1.303.129.096.347.238.655.426.151.102.227.174.227.216-.006.055-.045.083-.118.083-.157.01-.26.024-.31.036-.18.144-.384.28-.613.406-.163.097-.342.18-.537.246.564.313 1.208.485 1.93.516a8.33 8.33 0 0 1-.016.17c-.046.008-.113.056-.202.146-.045.055-.1.17-.168.344-.028.116-.082.172-.16.172-.234 0-.576-.138-1.023-.416a.905.905 0 0 0-.168.118v.589c0 .162.075.247.227.252h.25c.186 0 .325-.033.42-.099a.73.73 0 0 0 .135-.153h.067c.072.036.165.12.277.252.106.133.16.226.16.281 0 .211-.342.32-1.024.327a3.28 3.28 0 0 1-.529-.036c-.47-.007-.71-.206-.722-.598V3.26h-.605c-.01.241-.041.44-.092.598-.129.639-.59 1.065-1.385 1.276a2.652 2.652 0 0 1-.1-.118c.24-.12.436-.32.587-.597.129-.248.194-.629.194-1.142a4 4 0 0 0-.035-.634l.765.371h.596c.077-.101.145-.18.2-.234a4.635 4.635 0 0 1-1.308-1.64.206.206 0 0 1-.059.01c-.666.785-1.52 1.442-2.56 1.973h.973c.19-.223.322-.337.395-.343.073.006.207.088.403.244.173.139.26.245.26.317 0 .048-.04.094-.117.136-.13.09-.205.15-.227.18v.598c.027.23.042.378.042.444 0 .174-.13.266-.386.271-.185 0-.283-.05-.294-.153V4.69h-1.117a91.7 91.7 0 0 1-.176 1.014h1.117c.218-.266.358-.399.42-.399.072.007.2.097.385.273.202.186.302.31.302.37 0 .062-.041.112-.125.155a1.947 1.947 0 0 0-.193.118c-.09.815-.225 1.342-.404 1.584-.1.331-.435.54-1.006.625-.073 0-.121-.058-.143-.173a.775.775 0 0 0-.277-.452 1.322 1.322 0 0 0-.47-.263.761.761 0 0 0 .033-.154c.269.085.532.142.79.173.234 0 .377-.058.427-.173.118-.169.235-.651.353-1.449h-1.25c-.04.181-.063.273-.068.273-.028.09-.14.135-.336.135-.269 0-.402-.042-.402-.126.263-1.075.402-1.766.42-2.074.29.132.489.232.595.298h1.125V3.368h-1.553c-.353.158-.72.3-1.1.425-.039-.029-.072-.093-.1-.19.665-.278 1.376-.703 2.132-1.276.47-.375.94-.863 1.41-1.467H74.74a3.656 3.656 0 0 0-.503.064 2.255 2.255 0 0 0-.218-.435c.34.072.8.114 1.376.126h1.368c.291-.349.47-.525.537-.525zM91.814 6.438c.901.453 1.355.871 1.36 1.258 0 .254-.039.428-.117.525-.079.121-.199.181-.361.181-.174 0-.285-.162-.336-.489-.157-.604-.381-1.065-.671-1.385l.125-.09zm-1.292-.698h.654V3.676h-.654V5.74zm0-2.327h.654V1.548h-.654v1.865zm-.47 3.07c.682.387 1.026.742 1.032 1.068 0 .278-.045.47-.134.58-.08.121-.205.181-.378.181-.112 0-.188-.151-.226-.453-.096-.561-.241-.99-.437-1.286l.143-.09zm-.923-.743h.62V3.676h-.62V5.74zm0-2.327h.62V1.548h-.62v1.865zm-.966 3.051c.565.4.86.84.881 1.323 0 .361-.134.546-.402.552-.286 0-.432-.133-.437-.398v-.834c0-.235-.036-.43-.109-.588.028 0 .05-.019.067-.055zM87.7 5.74h.655V3.676h-.655V5.74zm0-2.327h.655V1.548h-.655v1.865zM86.93 6.32c.095 0 .143.004.143.01.016.163.025.417.025.76-.006.93-.324 1.403-.957 1.422-.268 0-.414-.1-.436-.299 0-.157.092-.323.276-.497.18-.085.379-.273.597-.562.15-.193.268-.47.352-.834zm.454-6.291c.738.252 1.107.41 1.107.47 0 .115-.145.187-.436.217a3.957 3.957 0 0 1-.37.561h4.164c.224-.331.38-.528.47-.589a.125.125 0 0 1 .05-.008c.062.019.174.105.336.263.218.217.338.364.36.444 0 .096-.016.15-.049.162H91.95v1.865h.184c.28-.447.456-.673.53-.679.06 0 .183.118.369.353.184.218.29.366.318.444 0 .091-.033.138-.1.145h-1.301V5.74h.226c.247-.446.406-.673.479-.679.056 0 .168.118.336.353.162.217.257.366.285.444 0 .091-.037.138-.11.145H87.19c-.834.024-1.253.054-1.259.09a11.89 11.89 0 0 1-.16-.489c.113.049.499.091 1.16.127V3.676c-.74.017-1.112.048-1.117.09-.05-.127-.11-.29-.177-.489.13.049.56.094 1.293.136V2.128c-.28.253-.58.465-.898.634a.754.754 0 0 0-.142-.091c.716-.695 1.214-1.576 1.494-2.643zM101.972 3.766h2.09V2.444h-2.09v1.322zm0-1.557h2.09V.924h-2.09v1.285zM101.14.29l.822.409h1.948c.223-.26.38-.394.47-.4.072.006.224.098.453.272.212.17.319.294.319.372 0 .06-.042.117-.126.172-.117.097-.188.166-.21.207V2.89c.028.609.042 1.005.042 1.186 0 .198-.148.3-.445.308-.223 0-.341-.056-.352-.164v-.217h-1.158c.14.724.363 1.35.67 1.875.488-.417.826-.873 1.016-1.368l.697.435c.168.114.252.192.252.235-.006.066-.05.1-.134.1a3.634 3.634 0 0 0-.336.036c-.19.145-.409.287-.655.425a4.326 4.326 0 0 1-.73.3c.314.476.7.872 1.158 1.185.302.211.56.347.773.407 0 .06-.012.112-.034.155a.835.835 0 0 0-.243.099.911.911 0 0 0-.21.354c-.073.15-.14.226-.202.226-.056 0-.17-.079-.344-.236-1.007-.785-1.634-2.194-1.88-4.228h-.73v3.096a8.57 8.57 0 0 0 1.2-.244c.017.006.03.033.042.082-.543.446-1.324.832-2.342 1.158 0 .182-.025.272-.076.272-.034 0-.095-.088-.184-.263-.078-.176-.194-.449-.344-.824.33-.024.643-.051.94-.08V1.103a10.715 10.715 0 0 0-.067-.814zm-.857-.117c.045 0 .185.108.42.326.23.217.344.359.344.426 0 .071-.039.12-.117.144-.18.072-.294.124-.344.155-.23.536-.594 1.155-1.092 1.855.8.568 1.215 1.229 1.243 1.983 0 .935-.289 1.476-.865 1.621-.084-.006-.142-.057-.176-.154a.663.663 0 0 0-.268-.452 1.323 1.323 0 0 0-.337-.182.36.36 0 0 0 .017-.136c.157.025.345.04.563.046.251-.036.377-.32.377-.852 0-.808-.249-1.43-.747-1.865.28-.591.476-1.361.588-2.308h-.915v7.46c-.034.187-.19.28-.47.28-.174 0-.277-.03-.31-.09 0-1.298.008-2.568.025-3.811v-2.5c-.006-1.06-.025-1.693-.06-1.892l.823.344h.831c.224-.254.381-.387.47-.398zM112.053 5.495h1.444V2.997h-1.444v2.498zm-.881-3.087l.83.344h1.445c.23-.284.383-.428.461-.434.079.006.233.1.462.28.207.17.31.293.31.372 0 .06-.05.117-.15.172-.158.097-.253.169-.286.217v1.62c.033.623.05 1.027.05 1.214 0 .206-.147.31-.444.317-.224 0-.342-.058-.353-.172v-.59h-1.444v.562c-.039.206-.21.308-.512.308-.179 0-.288-.033-.327-.099 0-.653.011-1.288.034-1.91v-1.24c-.012-.538-.037-.858-.076-.96zM116.989.28c.078.043.157.097.235.164.425.385.638.63.638.733 0 .084-.028.127-.084.127h-1.26v6.193c-.005.561-.358.881-1.057.96-.112 0-.17-.063-.176-.191a1.26 1.26 0 0 0-.151-.362c-.034-.14-.358-.272-.974-.398v-.163c.425.03.859.046 1.301.046.163 0 .247-.034.252-.1V1.303h-3.458c-1.007 0-1.637.038-1.889.118a3.468 3.468 0 0 0-.193-.49c.403.067 1.094.1 2.073.1h4.012c.297-.417.51-.67.639-.76a.47.47 0 0 1 .092.008zM126.508.045c.778.152 1.167.266 1.167.344 0 .09-.143.19-.428.299v1.214c.722-.375 1.253-.807 1.595-1.296.57.44.856.683.856.724 0 .073-.033.112-.101.119-.112 0-.235-.007-.37-.019-.514.284-1.175.532-1.98.743v.76c0 .247.128.384.386.408h.898c.291-.007.487-.112.588-.316.09-.133.187-.451.293-.952.09.007.14.009.152.009v.932c.005.08.07.137.193.173.151.073.226.147.226.226-.016.272-.254.45-.713.534-.292.043-.59.064-.899.064-.61 0-.998-.016-1.166-.045-.43-.024-.646-.42-.646-1.187V.933c0-.429-.017-.725-.05-.888zm-.025 4.183c.845.151 1.267.272 1.267.362 0 .097-.156.202-.47.318v1.185c.75-.398 1.299-.86 1.646-1.385.576.441.864.682.864.725 0 .065-.033.105-.1.117-.107 0-.23-.009-.37-.027-.526.314-1.206.592-2.04.833v.806c0 .271.137.42.412.444h.805c.32-.007.532-.118.638-.335.096-.145.2-.487.311-1.023l.168.009v1.005c.005.078.067.138.185.18.156.072.235.155.235.245-.017.29-.272.48-.764.57a5.32 5.32 0 0 1-.89.073c-.599 0-.982-.018-1.15-.054-.459-.03-.688-.453-.688-1.268V5.17c0-.465-.02-.779-.06-.942zm-2.93 1.82h1.57V5.07h-1.57v.978zm0-1.222h1.57v-.878h-1.57v.878zm-.805-1.421l.73.299h1.527c.253-.273.406-.408.462-.408.079.024.205.096.378.217.235.187.355.317.361.39 0 .065-.042.126-.126.18a2.467 2.467 0 0 0-.21.172v3.142c-.011.574-.28.93-.806 1.07-.111-.025-.168-.09-.168-.19-.05-.201-.132-.35-.243-.445-.106-.096-.29-.193-.554-.29a.745.745 0 0 0 .017-.145c.29.048.53.072.713.072.196 0 .294-.056.294-.17V6.282h-1.57v1.993c-.033.187-.187.28-.461.28-.174 0-.28-.03-.319-.09 0-.803.01-1.588.033-2.354v-1.54c-.01-.658-.03-1.047-.058-1.167zm1.124-3.388c.74.297 1.108.487 1.108.572-.005.097-.176.15-.511.162-.286.538-.714 1.047-1.285 1.531.274.024.585.042.932.054.504 0 .943-.018 1.318-.054-.107-.393-.272-.71-.495-.952a.831.831 0 0 0 .083-.08c.857.524 1.284 1.029 1.284 1.512 0 .18-.047.304-.142.37a.36.36 0 0 1-.235.083c-.196 0-.336-.227-.42-.68a.654.654 0 0 0-.033-.108c-.783.337-1.724.55-2.82.634-.034.144-.085.216-.152.216-.023 0-.062-.097-.117-.289a9.329 9.329 0 0 1-.168-.843c.162.049.38.085.655.11.537-.761.87-1.507.998-2.238z"/>
            </g>
        </g>
    </g>
</svg>
