<svg xmlns="http://www.w3.org/2000/svg" width="1920" height="64" viewBox="0 0 1920 64">
    <defs>
        <linearGradient id="a" x1="139.211%" x2="-1.542%" y1="0%" y2="50%">
            <stop offset="0%" stop-color="#C1B38A"/>
            <stop offset="100%" stop-color="#86754D"/>
        </linearGradient>
        <filter id="b" width="102.1%" height="191%" x="-1.1%" y="-43.6%" filterUnits="objectBoundingBox">
            <feOffset dy="2" in="SourceAlpha" result="shadowOffsetOuter1"/>
            <feGaussianBlur in="shadowOffsetOuter1" result="shadowBlurOuter1" stdDeviation="1.5"/>
            <feColorMatrix in="shadowBlurOuter1" result="shadowMatrixOuter1" values="0 0 0 0 0 0 0 0 0 0 0 0 0 0 0 0 0 0 0.7 0"/>
            <feMerge>
                <feMergeNode in="shadowMatrixOuter1"/>
                <feMergeNode in="SourceGraphic"/>
            </feMerge>
        </filter>
    </defs>
    <g fill="none" fill-rule="evenodd">
        <path fill="url(#a)" d="M0 0h1920v64H0z"/>
        <g fill="#FFF" filter="url(#b)" transform="translate(460 19)">
            <path d="M411.834 10.898c0-2.483 0-2.94-.033-3.465-.032-.553-.194-.834-.552-.916a2.357 2.357 0 0 0-.585-.063c-.161 0-.26-.032-.26-.165 0-.097.13-.13.391-.13.616 0 1.639.049 2.11.049.405 0 1.362-.048 1.98-.048.21 0 .34.032.34.13 0 .132-.096.164-.26.164-.162 0-.292.016-.485.048-.44.082-.57.36-.602.931-.032.524-.032.982-.032 3.465v2.875c0 1.585 0 2.875.064 3.578.05.442.163.736.65.8.228.034.585.066.828.066.18 0 .26.048.26.13 0 .113-.13.164-.309.164-1.072 0-2.093-.05-2.531-.05-.374 0-1.397.05-2.046.05-.212 0-.325-.05-.325-.165 0-.081.066-.13.26-.13.244 0 .438-.031.585-.065.325-.064.421-.344.47-.816.082-.687.082-1.977.082-3.562v-2.875zM420.223 16.615c.032 1.078.211 1.406.487 1.506.243.08.519.096.745.096.164 0 .244.066.244.148 0 .114-.13.146-.325.146-.925 0-1.59-.05-1.85-.05-.13 0-.811.05-1.54.05-.196 0-.326-.017-.326-.146 0-.082.098-.148.228-.148.194 0 .455-.016.65-.066.373-.096.42-.474.437-1.684l.13-8.232c0-.278.097-.474.242-.474.18 0 .374.212.619.458.178.177 2.32 2.385 4.398 4.426.974.966 2.873 2.925 3.084 3.121h.065l-.146-6.175c-.017-.848-.147-1.096-.487-1.225-.211-.084-.553-.084-.747-.084-.18 0-.228-.063-.228-.145 0-.114.147-.132.358-.132.747 0 1.51.034 1.818.034.162 0 .698-.034 1.397-.034.194 0 .323.018.323.132 0 .082-.08.145-.242.145-.146 0-.26 0-.438.051-.39.114-.506.358-.521 1.144l-.162 8.755c0 .313-.114.443-.227.443-.243 0-.438-.148-.585-.295a336.079 336.079 0 0 1-4.172-4.001c-1.557-1.506-3.069-3.19-3.343-3.433h-.049l.163 5.67zM434.681 16.615c.033 1.078.212 1.406.487 1.506.244.08.52.096.746.096.164 0 .244.066.244.148 0 .114-.13.146-.325.146-.925 0-1.591-.05-1.85-.05-.13 0-.812.05-1.542.05-.195 0-.325-.017-.325-.146 0-.082.098-.148.228-.148.195 0 .454-.016.648-.066.375-.096.423-.474.44-1.684l.13-8.232c0-.278.098-.474.242-.474.18 0 .374.212.617.458.18.177 2.322 2.385 4.4 4.426.974.966 2.873 2.925 3.084 3.121h.064l-.145-6.175c-.017-.848-.147-1.096-.489-1.225-.21-.084-.55-.084-.745-.084-.178 0-.229-.063-.229-.145 0-.114.147-.132.359-.132.746 0 1.508.034 1.818.034.162 0 .698-.034 1.395-.034.196 0 .324.018.324.132 0 .082-.08.145-.242.145-.147 0-.26 0-.438.051-.39.114-.505.358-.52 1.144l-.163 8.755c0 .313-.113.443-.228.443-.242 0-.438-.148-.583-.295a336.078 336.078 0 0 1-4.172-4.001c-1.559-1.506-3.069-3.19-3.343-3.433h-.049l.162 5.67zM456.233 13.512c0-3.071-1.834-4.968-4.14-4.968-1.59 0-3.455.849-3.455 4.282 0 2.859 1.623 5.114 4.317 5.114 1.006 0 3.278-.476 3.278-4.428m-9.706-.263c0-2.369 1.656-5.44 5.988-5.44 3.605 0 5.845 2.01 5.845 5.197 0 3.185-2.306 5.683-5.989 5.683-4.156 0-5.844-2.97-5.844-5.44M460.968 9.363c-.324-.768-.536-.9-1.055-1.03-.211-.05-.44-.05-.553-.05-.128 0-.16-.064-.16-.146 0-.114.145-.132.356-.132.763 0 1.575.034 2.078.034.356 0 1.103-.034 1.818-.034.178 0 .34.034.34.132s-.098.145-.227.145c-.226 0-.438.019-.552.099a.303.303 0 0 0-.146.277c0 .18.13.557.325 1.049l2.403 6.222h.049c.615-1.436 2.45-5.913 2.79-6.828.066-.18.13-.392.13-.506 0-.148-.064-.199-.194-.246a2.216 2.216 0 0 0-.569-.067c-.13 0-.243-.047-.243-.145 0-.098.13-.132.406-.132.715 0 1.347.034 1.525.034.245 0 .91-.034 1.348-.034.179 0 .292.034.292.132s-.081.145-.228.145c-.144 0-.453-.015-.697.165-.178.13-.374.344-.747 1.226-.568 1.307-.942 2.06-1.72 3.758-.908 2.025-1.574 3.545-1.899 4.248-.358.8-.487 1.011-.681 1.011-.196 0-.31-.177-.585-.83l-3.604-8.497zM476.239 14.231c.066 0 .081-.032.066-.082l-1.348-3.48c-.017-.048-.033-.131-.064-.131-.05 0-.066.083-.083.13l-1.378 3.464c-.034.067 0 .1.049.1h2.758zm-3.05.768c-.083 0-.099.015-.132.098l-.761 1.88c-.147.34-.212.687-.212.849 0 .243.129.391.568.391h.21c.18 0 .213.066.213.148 0 .114-.083.147-.228.147-.47 0-1.136-.051-1.591-.051-.146 0-.91.05-1.656.05-.179 0-.259-.032-.259-.146 0-.082.048-.148.161-.148.132 0 .293-.015.423-.015.65-.099.893-.524 1.185-1.226l3.732-8.676c.164-.392.278-.557.423-.557.211 0 .276.133.423.443.34.767 2.726 6.389 3.635 8.496.553 1.258.959 1.438 1.218 1.487.211.033.373.048.536.048.13 0 .194.048.194.148 0 .114-.08.147-.617.147-.504 0-1.542 0-2.743-.033-.26-.018-.422-.018-.422-.114 0-.082.032-.132.179-.148.098-.015.194-.148.13-.31l-1.104-2.81c-.034-.083-.081-.098-.146-.098h-3.36zM484.482 8.857l-2.125.048c-.829.015-1.17.114-1.38.425a1.618 1.618 0 0 0-.244.472c-.033.114-.065.18-.162.18-.098 0-.13-.08-.13-.228 0-.228.276-1.569.308-1.683.032-.18.08-.262.162-.262.113 0 .26.115.617.163.423.051.957.067 1.429.067h5.795c.453 0 .763-.034.972-.067.229-.034.342-.063.39-.063.099 0 .114.082.114.291 0 .296-.032 1.326-.032 1.684-.015.148-.049.228-.13.228-.113 0-.146-.063-.162-.276l-.016-.148c-.033-.358-.406-.783-1.689-.8l-1.8-.031v5.619c0 1.273.014 2.369.08 2.973.048.391.129.654.552.72.196.032.519.048.732.048.16 0 .226.081.226.148 0 .095-.115.148-.277.148-.94 0-1.899-.053-2.305-.053-.324 0-1.298.053-1.867.053-.177 0-.275-.053-.275-.148 0-.067.049-.148.226-.148.212 0 .391-.016.504-.048.293-.066.374-.329.423-.739.064-.585.064-1.681.064-2.954V8.857zM493.666 12.024c0-2.107 0-2.498-.015-2.94-.034-.474-.18-.636-.488-.736a1.852 1.852 0 0 0-.52-.066c-.145 0-.226-.03-.226-.162 0-.082.113-.114.34-.114.536 0 1.51.032 1.916.032.358 0 1.283-.032 1.834-.032.178 0 .291.032.291.114 0 .132-.08.162-.227.162-.145 0-.258.018-.42.05-.391.064-.505.263-.537.751-.032.443-.032.834-.032 2.941v2.451c0 1.34 0 2.45.064 3.041.05.376.146.586.57.652.195.034.518.05.73.05.161 0 .227.08.227.146 0 .097-.115.148-.277.148-.94 0-1.916-.05-2.305-.05-.324 0-1.298.05-1.866.05-.178 0-.276-.05-.276-.148 0-.066.049-.146.227-.146.21 0 .373-.016.503-.05.293-.066.374-.262.423-.67.064-.572.064-1.683.064-3.023v-2.45zM499.735 9.363c-.324-.768-.536-.9-1.055-1.03-.211-.05-.44-.05-.553-.05-.128 0-.162-.064-.162-.146 0-.114.145-.132.358-.132.763 0 1.573.034 2.078.034.356 0 1.103-.034 1.818-.034.178 0 .34.034.34.132s-.098.145-.227.145c-.228 0-.439.019-.552.099a.303.303 0 0 0-.146.277c0 .18.129.557.325 1.049l2.401 6.222h.05c.616-1.436 2.45-5.913 2.79-6.828.067-.18.131-.392.131-.506 0-.148-.064-.199-.194-.246a2.216 2.216 0 0 0-.569-.067c-.13 0-.243-.047-.243-.145 0-.098.13-.132.406-.132.715 0 1.347.034 1.525.034.244 0 .91-.034 1.348-.034.177 0 .292.034.292.132s-.081.145-.228.145c-.146 0-.455-.015-.697.165-.179.13-.373.344-.747 1.226-.568 1.307-.942 2.06-1.721 3.758-.909 2.025-1.573 3.545-1.898 4.248-.358.8-.488 1.011-.683 1.011-.194 0-.308-.177-.583-.83l-3.604-8.497zM512.23 12.024c0-2.107 0-2.498-.016-2.94-.033-.474-.163-.622-.618-.752a2.608 2.608 0 0 0-.566-.05c-.147 0-.244-.048-.244-.144 0-.1.114-.132.325-.132.746 0 1.655.032 2.06.032.456 0 3.621.015 3.896 0 .26-.015.487-.066.601-.082.082-.017.163-.066.227-.066.081 0 .098.066.098.133 0 .097-.083.259-.115.897-.015.148-.047.754-.081.915-.015.067-.047.23-.16.23-.099 0-.114-.066-.114-.182 0-.095-.017-.342-.098-.505-.115-.244-.228-.44-.942-.506-.243-.032-1.948-.066-2.24-.066-.065 0-.097.05-.097.132v3.43c0 .08.015.146.097.146.324 0 2.174 0 2.5-.032.34-.034.535-.082.682-.211.113-.099.162-.18.227-.18s.113.066.113.147c0 .08-.032.31-.113 1.012-.033.28-.065.834-.065.93 0 .115-.017.314-.147.314-.096 0-.13-.053-.13-.116-.015-.146-.015-.328-.047-.509-.083-.276-.26-.487-.797-.535-.259-.033-1.882-.066-2.239-.066-.066 0-.08.066-.08.147v1.11c0 .474-.018 1.65 0 2.057.031.948.47 1.162 1.93 1.162.374 0 .974-.018 1.348-.18.357-.163.52-.458.617-1.03.03-.148.063-.21.16-.21.116 0 .131.177.131.324 0 .31-.113 1.258-.194 1.536-.097.36-.229.36-.763.36-1.072 0-1.931-.017-2.63-.05-.698-.016-1.234-.033-1.655-.033-.162 0-.472.017-.813.017-.34.016-.697.034-.99.034-.177 0-.275-.05-.275-.148 0-.066.049-.146.227-.146.21 0 .373-.016.503-.05.293-.066.374-.328.423-.736.064-.588.064-1.684.064-2.957v-2.45zM530.42 12.696c0 1.73.017 2.988.033 3.3.016.408.05 1.062.179 1.24.211.312.844.656 2.125.656 1.657 0 2.761-.329 3.734-1.178 1.04-.9 1.364-2.386 1.364-4.07 0-2.074-.86-3.413-1.559-4.082-1.493-1.439-3.343-1.634-4.61-1.634-.324 0-.924.047-1.054.114-.147.066-.195.148-.195.328-.017.553-.017 1.975-.017 3.266v2.06zm-2.027-1.798c0-2.483 0-2.94-.034-3.465-.032-.553-.162-.815-.698-.93-.129-.033-.405-.049-.633-.049-.179 0-.275-.032-.275-.148 0-.114.113-.146.356-.146.86 0 1.884.048 2.337.048.504 0 1.526-.048 2.501-.048 2.028 0 4.738 0 6.509 1.864.811.849 1.574 2.202 1.574 4.148 0 2.059-.86 3.628-1.769 4.558-.747.767-2.435 1.926-5.438 1.926-.585 0-1.251-.047-1.867-.095-.617-.05-1.185-.1-1.59-.1-.178 0-.535 0-.926.018-.373 0-.795.032-1.12.032-.21 0-.324-.05-.324-.164 0-.082.064-.13.26-.13.244 0 .438-.032.584-.066.325-.063.406-.424.472-.897.08-.686.08-1.978.08-3.48v-2.876zM545.237 13.102c0 .148.032.199.13.247.307.097.73.13 1.087.13.568 0 .763-.049 1.006-.23.438-.309.925-.915.925-2.058 0-1.961-1.33-2.467-2.175-2.467-.356 0-.698.019-.843.048-.098.034-.13.085-.13.196v4.134zm-1.818-1.077c0-2.108 0-2.5-.017-2.942-.032-.473-.162-.62-.617-.75a2.608 2.608 0 0 0-.567-.051c-.147 0-.243-.048-.243-.145 0-.099.111-.133.324-.133.746 0 1.654.034 1.947.034.487 0 1.785-.034 2.223-.034.91 0 1.95.082 2.71.59.407.278 1.007.98 1.007 1.912 0 1.027-.582 1.942-1.98 3.072 1.266 1.568 2.273 2.827 3.133 3.69.797.802 1.299.868 1.527.916.146.032.227.032.34.032.113 0 .18.082.18.148 0 .114-.099.148-.276.148h-1.365c-.795 0-1.184-.081-1.559-.28-.616-.31-1.152-.964-1.946-2.041-.569-.752-1.17-1.683-1.348-1.898-.081-.08-.162-.095-.259-.095l-1.283-.034c-.064 0-.113.034-.113.116v.195c0 1.292.015 2.37.08 2.957.05.408.114.67.552.737.211.034.52.047.698.047.114 0 .18.082.18.148 0 .098-.114.148-.293.148-.829 0-2.012-.05-2.224-.05-.277 0-1.185.05-1.753.05-.178 0-.276-.05-.276-.148 0-.066.05-.148.227-.148.211 0 .374-.013.504-.047.292-.067.373-.329.42-.737.067-.587.067-1.683.067-2.957v-2.45zM555.36 12.024c0-2.107 0-2.498-.015-2.94-.032-.474-.164-.622-.617-.752a2.614 2.614 0 0 0-.568-.05c-.146 0-.244-.048-.244-.144 0-.1.114-.132.325-.132.746 0 1.655.032 2.061.032.455 0 3.62.015 3.896 0 .259-.015.487-.066.6-.082.082-.017.163-.066.229-.066.08 0 .096.066.096.133 0 .097-.081.259-.115.897-.015.148-.047.754-.08.915-.016.067-.048.23-.162.23-.098 0-.113-.066-.113-.182 0-.095-.017-.342-.098-.505-.113-.244-.227-.44-.942-.506-.243-.032-1.948-.066-2.24-.066-.065 0-.097.05-.097.132v3.43c0 .08.017.146.097.146.324 0 2.176 0 2.5-.032.34-.034.535-.082.682-.211.113-.099.162-.18.228-.18.064 0 .112.066.112.147 0 .08-.032.31-.112 1.012-.034.28-.066.834-.066.93 0 .115-.017.314-.147.314-.096 0-.128-.053-.128-.116-.017-.146-.017-.328-.05-.509-.08-.276-.258-.487-.794-.535-.26-.033-1.884-.066-2.24-.066-.065 0-.082.066-.082.147v1.11c0 .474-.017 1.65 0 2.057.032.948.47 1.162 1.931 1.162.374 0 .974-.018 1.348-.18.357-.163.52-.458.617-1.03.032-.148.064-.21.162-.21.114 0 .13.177.13.324 0 .31-.114 1.258-.195 1.536-.097.36-.227.36-.763.36a55.47 55.47 0 0 1-2.63-.05c-.698-.016-1.232-.033-1.655-.033-.162 0-.472.017-.812.017-.341.016-.698.034-.989.034-.18 0-.277-.05-.277-.148 0-.066.049-.146.228-.146.21 0 .372-.016.502-.05.293-.066.374-.328.423-.736.064-.588.064-1.684.064-2.957v-2.45zM569.188 14.231c.064 0 .081-.032.064-.082l-1.347-3.48c-.016-.048-.032-.131-.063-.131-.05 0-.066.083-.083.13l-1.38 3.464c-.032.067 0 .1.05.1h2.759zm-3.052.768c-.081 0-.097.015-.13.098l-.763 1.88c-.145.34-.21.687-.21.849 0 .243.129.391.567.391h.211c.18 0 .212.066.212.148 0 .114-.082.147-.229.147-.468 0-1.136-.051-1.59-.051-.145 0-.909.05-1.655.05-.179 0-.26-.032-.26-.146 0-.082.049-.148.162-.148.13 0 .293-.015.423-.015.65-.099.893-.524 1.185-1.226l3.732-8.676c.163-.392.278-.557.423-.557.21 0 .276.133.423.443.34.767 2.726 6.389 3.635 8.496.552 1.258.957 1.438 1.218 1.487.211.033.373.048.534.048.132 0 .196.048.196.148 0 .114-.082.147-.617.147-.504 0-1.542 0-2.743-.033-.26-.018-.422-.018-.422-.114 0-.082.032-.132.179-.148.096-.015.194-.148.13-.31l-1.106-2.81c-.032-.083-.08-.098-.145-.098h-3.36zM577.446 8.12c.032-.229.162-.358.277-.358.145 0 .242.066.438.44l3.83 7.679 3.831-7.777c.114-.228.244-.342.373-.342.114 0 .277.146.324.44l1.299 8.546c.13.864.26 1.24.698 1.372.406.113.634.13.812.13.13 0 .228.049.228.13 0 .113-.164.166-.374.166-.356 0-2.387-.053-2.954-.085-.341-.016-.422-.082-.422-.162 0-.066.065-.116.162-.148.081-.03.113-.196.064-.587l-.795-5.998h-.049l-3.067 6.146c-.325.652-.404.781-.568.781-.18 0-.342-.276-.568-.701-.34-.638-1.477-2.76-1.639-3.152-.113-.26-.959-1.944-1.429-2.907h-.049l-.681 5.358a4.652 4.652 0 0 0-.05.653c0 .262.195.36.439.407.243.05.373.066.504.066.13 0 .226.067.226.13 0 .132-.128.165-.341.165-.6 0-1.25-.051-1.509-.051-.277 0-.957.05-1.412.05-.147 0-.26-.032-.26-.164 0-.063.081-.13.228-.13.113 0 .21 0 .438-.034.39-.047.52-.604.584-1.062l1.412-9.002zM591.92 18.331c-.227-.098-.276-.161-.276-.473 0-.752.065-1.618.082-1.848 0-.211.065-.358.179-.358.128 0 .144.13.144.229 0 .18.05.476.131.72.308 1.03 1.38 1.373 2.271 1.373 1.235 0 1.982-.786 1.982-1.765 0-.606-.145-1.21-1.412-1.962l-.828-.492c-1.688-.996-2.24-1.927-2.24-3.152 0-1.697 1.624-2.793 3.604-2.793.925 0 1.656.13 2.03.228.128.034.194.081.194.18 0 .179-.05.574-.05 1.666 0 .295-.065.443-.178.443-.098 0-.146-.082-.146-.245 0-.131-.066-.557-.374-.914-.21-.262-.666-.654-1.59-.654-1.024 0-1.949.538-1.949 1.484 0 .623.229 1.11 1.51 1.83l.585.328c1.882 1.046 2.466 2.108 2.466 3.367 0 1.03-.39 1.86-1.427 2.597-.682.489-1.624.569-2.386.569-.829 0-1.705-.08-2.322-.358M612.367 12.482c-.34-.244-.714-.358-1.346-.392-.293-.015-.457-.015-.699-.015-.066 0-.098.03-.098.116v3.87c0 1.077.05 1.355.568 1.57.438.176.81.195 1.186.195.73 0 1.963-.395 1.963-2.093 0-1.011-.34-2.385-1.574-3.251zm-2.143-1.307c0 .13.05.163.114.182.147.032.39.047.762.047.536 0 .893-.066 1.17-.31.421-.343.665-.93.665-1.73 0-1.096-.633-2.536-2.03-2.536-.227 0-.371 0-.535.034-.114.032-.146.098-.146.279v4.034zm-1.948-.276c0-2.485 0-2.943-.032-3.465-.032-.555-.162-.817-.698-.931-.129-.033-.406-.048-.633-.048-.179 0-.275-.034-.275-.148 0-.114.113-.148.357-.148.859 0 1.882.05 2.208.05.795 0 1.427-.05 1.98-.05 2.937 0 3.456 1.585 3.456 2.45 0 1.34-.762 2.142-1.655 2.862 1.33.457 2.954 1.617 2.954 3.528 0 1.75-1.348 3.56-4.335 3.56-.193 0-.664-.032-1.135-.047a21.76 21.76 0 0 0-1.218-.051c-.177 0-.534 0-.925.019-.373 0-.794.032-1.12.032-.21 0-.325-.051-.325-.165 0-.082.066-.13.26-.13.244 0 .44-.033.585-.066.325-.063.406-.425.47-.897.081-.687.081-1.98.081-3.48v-2.875zM621.73 13.102c0 .148.032.199.13.247.31.097.73.13 1.087.13.568 0 .763-.049 1.006-.23.44-.309.927-.915.927-2.058 0-1.961-1.333-2.467-2.176-2.467-.357 0-.699.019-.844.048-.098.034-.13.085-.13.196v4.134zm-1.818-1.077c0-2.108 0-2.5-.016-2.942-.033-.473-.163-.62-.617-.75a2.614 2.614 0 0 0-.568-.051c-.145 0-.243-.048-.243-.145 0-.099.113-.133.324-.133.746 0 1.656.034 1.948.034.486 0 1.786-.034 2.224-.034.908 0 1.948.082 2.71.59.406.278 1.007.98 1.007 1.912 0 1.027-.584 1.942-1.98 3.072 1.266 1.568 2.272 2.827 3.133 3.69.795.802 1.297.868 1.525.916.147.032.227.032.342.032.113 0 .177.082.177.148 0 .114-.098.148-.275.148h-1.365c-.795 0-1.184-.081-1.557-.28-.616-.31-1.154-.964-1.948-2.041-.569-.752-1.169-1.683-1.346-1.898a.335.335 0 0 0-.26-.095l-1.284-.034c-.064 0-.113.034-.113.116v.195c0 1.292.016 2.37.08 2.957.05.408.114.67.554.737.21.034.519.047.698.047.113 0 .178.082.178.148 0 .098-.114.148-.293.148-.827 0-2.012-.05-2.224-.05-.275 0-1.185.05-1.752.05-.179 0-.277-.05-.277-.148 0-.066.05-.148.228-.148.21 0 .373-.013.503-.047.292-.067.373-.329.422-.737.065-.587.065-1.683.065-2.957v-2.45zM631.854 12.024c0-2.107 0-2.498-.015-2.94-.034-.474-.18-.636-.489-.736a1.852 1.852 0 0 0-.519-.066c-.145 0-.226-.03-.226-.162 0-.082.113-.114.34-.114.536 0 1.51.032 1.915.032.359 0 1.284-.032 1.835-.032.178 0 .29.032.29.114 0 .132-.079.162-.226.162-.145 0-.259.018-.42.05-.391.064-.505.263-.537.751-.032.443-.032.834-.032 2.941v2.451c0 1.34 0 2.45.064 3.041.05.376.146.586.57.652.194.034.518.05.729.05.162 0 .228.08.228.146 0 .097-.115.148-.277.148-.94 0-1.916-.05-2.305-.05-.324 0-1.298.05-1.867.05-.177 0-.275-.05-.275-.148 0-.066.049-.146.226-.146.212 0 .374-.016.504-.05.293-.066.374-.262.423-.67.064-.572.064-1.683.064-3.023v-2.45zM640.163 16.615c.033 1.078.212 1.406.487 1.506.244.08.52.096.746.096.164 0 .244.066.244.148 0 .114-.13.146-.325.146-.925 0-1.59-.05-1.85-.05-.13 0-.812.05-1.54.05-.197 0-.327-.017-.327-.146 0-.082.098-.148.228-.148.195 0 .454-.016.65-.066.373-.096.42-.474.438-1.684l.13-8.232c0-.278.098-.474.242-.474.179 0 .374.212.619.458.177.177 2.32 2.385 4.398 4.426.974.966 2.873 2.925 3.084 3.121h.064l-.145-6.175c-.017-.848-.147-1.096-.489-1.225-.21-.084-.55-.084-.745-.084-.178 0-.229-.063-.229-.145 0-.114.147-.132.359-.132.747 0 1.508.034 1.818.034.162 0 .698-.034 1.396-.034.195 0 .323.018.323.132 0 .082-.08.145-.242.145-.145 0-.26 0-.438.051-.39.114-.505.358-.52 1.144l-.163 8.755c0 .313-.113.443-.226.443-.244 0-.44-.148-.585-.295a336.076 336.076 0 0 1-4.172-4.001c-1.557-1.506-3.067-3.19-3.343-3.433h-.049l.162 5.67zM662.283 17.579c0 .376 0 .394-.18.49-.956.476-2.37.621-3.49.621-3.505 0-6.604-1.598-6.604-5.441 0-2.221 1.183-3.772 2.497-4.54 1.365-.8 2.648-.9 3.849-.9.99 0 2.239.164 2.531.23.293.048.797.13 1.137.146.162.016.196.067.196.164 0 .165-.098.538-.098 2.287 0 .211-.082.31-.195.31-.098 0-.13-.066-.147-.18-.032-.31-.113-.75-.487-1.144-.421-.44-1.493-1.06-3.1-1.06-.779 0-1.77.015-2.759.816-.795.654-1.316 1.682-1.316 3.38 0 2.991 1.916 5.164 4.968 5.164.374 0 .667 0 1.007-.144.21-.1.275-.247.275-.49V16.01c0-.683 0-1.207-.015-1.631-.017-.477-.162-.623-.619-.752-.112-.034-.355-.05-.551-.05-.129 0-.227-.066-.227-.146 0-.116.114-.13.31-.13.745 0 1.768.033 2.19.033.454 0 1.202-.033 1.672-.033.194 0 .292.014.292.13 0 .08-.082.146-.179.146-.113 0-.227.016-.389.05-.389.066-.536.26-.553.752-.015.424-.015.979-.015 1.664v1.536zM677.048 13.53c.081 0 .097-.051.081-.1l-1.46-4.02c-.017-.065-.033-.147-.082-.147s-.08.082-.098.148l-1.493 4.004c-.015.064 0 .115.066.115h2.986zm-3.312.815c-.08 0-.113.034-.146.13l-.876 2.24c-.163.406-.243.8-.243.996 0 .295.145.506.65.506h.243c.194 0 .243.034.243.13 0 .132-.098.164-.277.164-.52 0-1.217-.05-1.72-.05-.177 0-1.07.05-1.916.05-.21 0-.307-.032-.307-.164 0-.096.065-.13.194-.13.147 0 .374-.015.504-.032.746-.097 1.055-.654 1.38-1.47l4.073-10.131c.195-.472.293-.654.455-.654.146 0 .244.148.406.524.389.898 2.986 7.433 4.025 9.918.617 1.469 1.088 1.697 1.428 1.779.244.05.487.066.682.066.13 0 .211.015.211.13 0 .132-.145.164-.746.164-.585 0-1.77 0-3.069-.032-.29-.018-.487-.018-.487-.132 0-.096.066-.13.229-.145.113-.033.226-.18.145-.376l-1.299-3.365c-.032-.082-.08-.116-.162-.116h-3.62zM689.493 7.761c-.195-.606-.374-.996-.6-1.162-.18-.114-.505-.145-.65-.145-.162 0-.26-.017-.26-.146 0-.116.13-.148.358-.148.842 0 1.737.047 1.882.047.146 0 .86-.047 1.801-.047.228 0 .342.047.342.148 0 .13-.13.146-.293.146-.129 0-.292 0-.406.063-.145.067-.177.182-.177.363 0 .212.162.767.356 1.5.276 1.08 1.786 6.03 2.079 6.947h.049l3.147-8.53c.163-.457.277-.59.407-.59.178 0 .259.247.47.768l3.377 8.237h.049c.29-1.095 1.59-5.41 2.16-7.321.11-.373.16-.717.16-.945 0-.262-.146-.492-.78-.492-.16 0-.275-.05-.275-.146 0-.116.13-.148.373-.148.861 0 1.543.047 1.688.047.115 0 .812-.047 1.348-.047.177 0 .292.032.292.13 0 .113-.08.164-.226.164-.163 0-.39.016-.569.082-.39.148-.568.801-.91 1.73-.747 2.06-2.451 7.256-3.246 9.707-.177.572-.259.768-.47.768-.162 0-.26-.196-.502-.8l-3.377-8.205h-.034c-.308.834-2.467 6.636-3.165 8.139-.308.67-.39.866-.584.866-.162 0-.226-.18-.373-.606l-3.441-10.374zM717.18 13.512c0-3.071-1.835-4.968-4.14-4.968-1.59 0-3.458.849-3.458 4.282 0 2.859 1.624 5.114 4.318 5.114 1.007 0 3.28-.476 3.28-4.428m-9.708-.263c0-2.369 1.656-5.44 5.99-5.44 3.605 0 5.843 2.01 5.843 5.197 0 3.185-2.304 5.683-5.989 5.683-4.156 0-5.844-2.97-5.844-5.44M724.593 13.102c0 .148.032.199.13.247.308.097.73.13 1.086.13.57 0 .764-.049 1.008-.23.438-.309.925-.915.925-2.058 0-1.961-1.33-2.467-2.175-2.467-.358 0-.698.019-.844.048-.098.034-.13.085-.13.196v4.134zm-1.818-1.077c0-2.108 0-2.5-.015-2.942-.034-.473-.164-.62-.619-.75a2.614 2.614 0 0 0-.568-.051c-.144 0-.243-.048-.243-.145 0-.099.113-.133.324-.133.748 0 1.656.034 1.95.034.485 0 1.784-.034 2.224-.034.908 0 1.946.082 2.709.59.405.278 1.004.98 1.004 1.912 0 1.027-.58 1.942-1.978 3.072 1.268 1.568 2.272 2.827 3.131 3.69.798.802 1.3.868 1.527.916.147.032.228.032.342.032.113 0 .179.082.179.148 0 .114-.098.148-.277.148h-1.363c-.797 0-1.184-.081-1.56-.28-.615-.31-1.152-.964-1.946-2.041-.568-.752-1.17-1.683-1.347-1.898a.333.333 0 0 0-.26-.095l-1.284-.034c-.064 0-.112.034-.112.116v.195c0 1.292.016 2.37.081 2.957.05.408.114.67.552.737.211.034.519.047.698.047.113 0 .178.082.178.148 0 .098-.114.148-.293.148-.827 0-2.012-.05-2.222-.05-.277 0-1.185.05-1.753.05-.18 0-.276-.05-.276-.148 0-.066.049-.148.227-.148.211 0 .373-.013.502-.047.294-.067.374-.329.424-.737.064-.587.064-1.683.064-2.957v-2.45zM736.634 14.475c0 1.782 0 2.665.308 2.926.243.21.796.292 1.898.292.763 0 1.316-.015 1.673-.391.177-.18.324-.572.358-.834.014-.13.048-.211.16-.211.099 0 .131.148.131.31 0 .163-.096 1.193-.211 1.601-.097.312-.161.378-.908.378a54.16 54.16 0 0 1-2.565-.053c-.714-.013-1.316-.032-1.9-.032-.162 0-.47.019-.811.019-.34.013-.698.032-.99.032-.179 0-.277-.051-.277-.148 0-.066.05-.147.229-.147.21 0 .373-.015.503-.049.291-.065.373-.327.422-.737.064-.587.064-1.683.064-2.956v-2.451c0-2.107 0-2.499-.015-2.941-.033-.473-.164-.62-.618-.75a1.814 1.814 0 0 0-.471-.052c-.161 0-.244-.047-.244-.143 0-.1.098-.132.31-.132.666 0 1.574.032 1.963.032.341 0 1.51-.032 2.063-.032.21 0 .308.032.308.132 0 .096-.082.143-.26.143-.163 0-.39.019-.552.053-.39.063-.504.262-.536.749-.032.442-.032.834-.032 2.941v2.45zM746.402 13.56c0 1.472.017 2.535.033 2.811.015.344.049.831.162.979.18.262.746.556 1.867.556 1.297 0 2.256-.228 3.116-.948.925-.767 1.218-2.008 1.218-3.446 0-1.765-.699-2.909-1.331-3.462-1.316-1.178-2.873-1.326-3.993-1.326-.292 0-.764.034-.877.1-.13.048-.178.114-.178.276-.017.473-.017 1.617-.017 2.713v1.747zm-1.915-1.536c0-2.107 0-2.498-.016-2.94-.032-.474-.164-.622-.617-.751a2.624 2.624 0 0 0-.568-.051c-.147 0-.243-.048-.243-.145 0-.099.113-.133.324-.133.748 0 1.656.034 2.06.034.44 0 1.462-.034 2.323-.034 1.786 0 4.187 0 5.746 1.588.714.72 1.346 1.879 1.346 3.528 0 1.75-.747 3.07-1.557 3.872-.65.652-2.16 1.634-4.79 1.634-.518 0-1.135-.05-1.704-.081a17.807 17.807 0 0 0-1.444-.084c-.162 0-.471.017-.813.017-.338.016-.697.034-.988.034-.179 0-.277-.05-.277-.148 0-.066.05-.148.228-.148.21 0 .373-.014.504-.048.291-.066.372-.328.421-.736.065-.588.065-1.684.065-2.957v-2.45zM772.61 13.512c0-3.071-1.835-4.968-4.14-4.968-1.589 0-3.456.849-3.456 4.282 0 2.859 1.624 5.114 4.317 5.114 1.006 0 3.28-.476 3.28-4.428m-9.707-.263c0-2.369 1.655-5.44 5.988-5.44 3.605 0 5.845 2.01 5.845 5.197 0 3.185-2.305 5.683-5.99 5.683-4.154 0-5.843-2.97-5.843-5.44M780.122 14.526c0 1.337.017 2.318.081 2.906.048.408.146.67.568.736.195.034.504.05.699.05.177 0 .242.08.242.146 0 .097-.097.148-.308.148-.908 0-1.915-.05-2.29-.05-.372 0-1.282.05-1.817.05-.195 0-.291-.034-.291-.148 0-.066.047-.146.21-.146.21 0 .373-.016.503-.05.293-.066.374-.328.421-.736.066-.588.066-1.617.066-2.957v-2.45c0-2.108 0-2.5-.017-2.942-.03-.473-.162-.635-.615-.75a2.614 2.614 0 0 0-.568-.051c-.13 0-.244-.048-.244-.145 0-.099.113-.131.34-.131.73 0 1.64.032 2.044.032.553 0 3.719.016 4.06 0 .26-.015.438-.032.584-.066.08-.015.145-.082.228-.082.047 0 .096.067.096.133 0 .097-.064.259-.113.621-.017.146-.049.963-.066 1.125-.017.114-.047.28-.145.28-.097 0-.18-.065-.18-.229 0-.114.017-.328-.08-.524s-.374-.408-.909-.424l-2.37-.048c-.082 0-.129.033-.129.196v3.365c0 .082.017.13.096.13l1.997-.014c.244 0 .438 0 .65-.019.26-.015.471-.066.602-.243.08-.082.113-.148.194-.148.048 0 .08.047.08.13 0 .084-.066.457-.114.9-.032.277-.047.915-.047 1.01 0 .115-.018.31-.164.31-.08 0-.13-.095-.13-.195 0-.096-.032-.262-.097-.424-.064-.196-.243-.474-.681-.506-.358-.034-2.046-.048-2.29-.048-.064 0-.096.014-.096.114v1.144zM794.222 10.898c0-2.483 0-2.94-.032-3.465-.032-.553-.164-.815-.699-.931a3.364 3.364 0 0 0-.634-.048c-.177 0-.274-.032-.274-.148 0-.114.114-.146.356-.146.438 0 .91.015 1.315.015.423.017.796.033 1.021.033.52 0 3.752 0 4.06-.016.308-.032.568-.066.697-.098.083-.016.178-.064.26-.064.083 0 .097.064.097.145 0 .114-.08.31-.13 1.062-.014.165-.05.882-.08 1.078-.015.081-.049.18-.162.18-.114 0-.147-.08-.147-.228 0-.114-.014-.392-.097-.587-.113-.295-.275-.49-1.087-.588-.277-.032-1.98-.066-2.305-.066-.083 0-.113.05-.113.164v4.132c0 .116.015.182.113.182.359 0 2.224 0 2.596-.034.389-.032.634-.082.78-.247.113-.129.179-.21.26-.21.064 0 .113.033.113.129 0 .1-.066.362-.13 1.193-.015.328-.064.98-.064 1.096 0 .13 0 .31-.146.31-.113 0-.147-.067-.147-.148-.017-.162-.017-.373-.064-.588-.081-.328-.308-.572-.91-.638-.31-.032-1.916-.048-2.305-.048-.08 0-.096.067-.096.162v1.292c0 .555-.017 2.06 0 2.533.03 1.125.29 1.371 1.945 1.371.424 0 1.105 0 1.528-.195.423-.195.617-.538.73-1.21.033-.178.065-.244.178-.244.129 0 .129.13.129.296 0 .373-.129 1.483-.208 1.811-.115.426-.26.426-.878.426-1.219 0-2.11-.034-2.809-.05-.696-.032-1.2-.05-1.687-.05-.18 0-.536 0-.927.018-.372 0-.793.032-1.118.032-.212 0-.324-.05-.324-.165 0-.081.064-.13.259-.13.243 0 .438-.031.585-.065.324-.064.404-.424.47-.898.08-.685.08-1.977.08-3.48v-2.875zM805.532 16.615c.033 1.078.212 1.406.486 1.506.246.08.52.096.749.096.162 0 .243.066.243.148 0 .114-.131.146-.326.146-.925 0-1.59-.05-1.85-.05-.129 0-.812.05-1.542.05-.194 0-.325-.017-.325-.146 0-.082.098-.148.229-.148.194 0 .454-.016.647-.066.376-.096.423-.474.44-1.684l.13-8.232c0-.278.096-.474.243-.474.178 0 .374.212.616.458.18.177 2.322 2.385 4.4 4.426.974.966 2.873 2.925 3.084 3.121h.066l-.147-6.175c-.017-.848-.147-1.096-.487-1.225-.211-.084-.553-.084-.749-.084-.178 0-.225-.063-.225-.145 0-.114.145-.132.357-.132.747 0 1.51.034 1.818.034.162 0 .698-.034 1.395-.034.196 0 .326.018.326.132 0 .082-.083.145-.244.145-.147 0-.26 0-.438.051-.39.114-.505.358-.519 1.144l-.165 8.755c0 .313-.112.443-.225.443-.244 0-.438-.148-.585-.295a336.084 336.084 0 0 1-4.172-4.001c-1.557-1.506-3.069-3.19-3.343-3.433h-.047l.16 5.67zM821.014 13.56c0 1.472.015 2.535.032 2.811.016.344.05.831.163.979.177.262.745.556 1.865.556 1.299 0 2.257-.228 3.118-.948.923-.767 1.217-2.008 1.217-3.446 0-1.765-.698-2.909-1.33-3.462-1.316-1.178-2.873-1.326-3.994-1.326-.291 0-.763.034-.876.1-.13.048-.18.114-.18.276-.015.473-.015 1.617-.015 2.713v1.747zm-1.916-1.536c0-2.107 0-2.498-.016-2.94-.033-.474-.163-.622-.616-.751a2.614 2.614 0 0 0-.568-.051c-.147 0-.244-.048-.244-.145 0-.099.114-.133.325-.133.746 0 1.655.034 2.06.034.438 0 1.46-.034 2.321-.034 1.786 0 4.189 0 5.748 1.588.713.72 1.346 1.879 1.346 3.528 0 1.75-.748 3.07-1.56 3.872-.649.652-2.157 1.634-4.786 1.634-.521 0-1.137-.05-1.705-.081a17.844 17.844 0 0 0-1.444-.084c-.162 0-.472.017-.813.017-.34.016-.698.034-.988.034-.18 0-.279-.05-.279-.148 0-.066.05-.148.23-.148.21 0 .372-.014.502-.048.293-.066.372-.328.422-.736.065-.588.065-1.684.065-2.957v-2.45zM835.147 14.475c0 1.782 0 2.665.308 2.926.243.21.796.292 1.899.292.764 0 1.317-.015 1.672-.391.178-.18.325-.572.358-.834.016-.13.048-.211.161-.211.1 0 .132.148.132.31 0 .163-.098 1.193-.213 1.601-.097.312-.16.378-.907.378-1.024 0-1.851-.019-2.566-.053-.714-.013-1.316-.032-1.898-.032-.164 0-.471.019-.813.019-.34.013-.698.032-.99.032-.177 0-.276-.051-.276-.148 0-.066.049-.147.228-.147.21 0 .373-.015.504-.049.29-.065.373-.327.42-.737.065-.587.065-1.683.065-2.956v-2.451c0-2.107 0-2.499-.015-2.941-.032-.473-.163-.62-.617-.75a1.814 1.814 0 0 0-.472-.052c-.16 0-.242-.047-.242-.143 0-.1.096-.132.306-.132.668 0 1.576.032 1.967.032.34 0 1.51-.032 2.06-.032.21 0 .309.032.309.132 0 .096-.08.143-.26.143-.163 0-.39.019-.552.053-.39.063-.504.262-.536.749-.032.442-.032.834-.032 2.941v2.45zM843 12.024c0-2.107 0-2.498-.016-2.94-.032-.474-.162-.622-.617-.752a2.614 2.614 0 0 0-.568-.05c-.145 0-.243-.048-.243-.144 0-.1.113-.132.326-.132.746 0 1.654.032 2.06.032.454 0 3.62.015 3.896 0 .258-.015.488-.066.6-.082.081-.017.162-.066.226-.066.083 0 .099.066.099.133 0 .097-.082.259-.115.897-.014.148-.048.754-.08.915-.015.067-.049.23-.162.23-.098 0-.114-.066-.114-.182 0-.095-.016-.342-.096-.505-.117-.244-.228-.44-.943-.506-.244-.032-1.948-.066-2.24-.066-.067 0-.097.05-.097.132v3.43c0 .08.016.146.096.146.325 0 2.176 0 2.5-.032.342-.034.537-.082.684-.211.112-.099.16-.18.225-.18.066 0 .113.066.113.147 0 .08-.03.31-.113 1.012-.03.28-.064.834-.064.93 0 .115-.017.314-.147.314-.097 0-.13-.053-.13-.116-.016-.146-.016-.328-.048-.509-.083-.276-.259-.487-.795-.535-.26-.033-1.883-.066-2.24-.066-.065 0-.081.066-.081.147v1.11c0 .474-.017 1.65 0 2.057.03.948.471 1.162 1.932 1.162.374 0 .973-.018 1.348-.18.357-.163.518-.458.616-1.03.032-.148.064-.21.16-.21.115 0 .13.177.13.324 0 .31-.113 1.258-.194 1.536-.096.36-.227.36-.763.36a55.4 55.4 0 0 1-2.628-.05c-.7-.016-1.234-.033-1.657-.033-.162 0-.47.017-.811.017-.342.016-.699.034-.99.034-.177 0-.277-.05-.277-.148 0-.066.05-.146.228-.146.21 0 .373-.016.504-.05.291-.066.372-.328.421-.736.065-.588.065-1.684.065-2.957v-2.45zM852.38 18.331c-.228-.098-.277-.161-.277-.473 0-.752.064-1.618.08-1.848 0-.211.067-.358.178-.358.13 0 .147.13.147.229 0 .18.05.476.13.72.308 1.03 1.38 1.373 2.273 1.373 1.233 0 1.98-.786 1.98-1.765 0-.606-.145-1.21-1.412-1.962l-.828-.492c-1.688-.996-2.24-1.927-2.24-3.152 0-1.697 1.624-2.793 3.604-2.793.925 0 1.656.13 2.03.228.128.034.194.081.194.18 0 .179-.05.574-.05 1.666 0 .295-.063.443-.177.443-.1 0-.147-.082-.147-.245 0-.131-.064-.557-.373-.914-.212-.262-.665-.654-1.59-.654-1.023 0-1.95.538-1.95 1.484 0 .623.229 1.11 1.512 1.83l.585.328c1.882 1.046 2.466 2.108 2.466 3.367 0 1.03-.39 1.86-1.43 2.597-.68.489-1.621.569-2.384.569-.828 0-1.706-.08-2.321-.358M861.953 18.331c-.226-.098-.276-.161-.276-.473 0-.752.064-1.618.081-1.848 0-.211.064-.358.18-.358.128 0 .146.13.146.229 0 .18.048.476.129.72.308 1.03 1.378 1.373 2.271 1.373 1.236 0 1.982-.786 1.982-1.765 0-.606-.146-1.21-1.414-1.962l-.827-.492c-1.687-.996-2.24-1.927-2.24-3.152 0-1.697 1.625-2.793 3.605-2.793.925 0 1.655.13 2.027.228.13.034.196.081.196.18 0 .179-.049.574-.049 1.666 0 .295-.064.443-.177.443-.1 0-.147-.082-.147-.245 0-.131-.066-.557-.374-.914-.211-.262-.666-.654-1.591-.654-1.022 0-1.948.538-1.948 1.484 0 .623.228 1.11 1.511 1.83l.584.328c1.884 1.046 2.467 2.108 2.467 3.367 0 1.03-.389 1.86-1.429 2.597-.681.489-1.622.569-2.384.569-.83 0-1.706-.08-2.323-.358M878.31 10.898c0-2.483 0-2.94-.031-3.465-.034-.553-.164-.815-.7-.931-.129-.032-.405-.048-.633-.048-.177 0-.274-.032-.274-.148 0-.114.113-.146.355-.146.861 0 1.884.048 2.337.048.667 0 1.608-.048 2.356-.048 2.029 0 2.758.686 3.018.932a2.83 2.83 0 0 1 .813 1.943c0 2.321-1.689 3.952-3.995 3.952-.081 0-.259 0-.34-.014-.08-.015-.193-.034-.193-.148 0-.13.113-.18.452-.18.91 0 2.176-1.027 2.176-2.695 0-.54-.05-1.635-.959-2.45a2.397 2.397 0 0 0-1.622-.639c-.243 0-.488.019-.632.066-.083.033-.13.133-.13.31v6.536c0 1.503 0 2.795.08 3.496.05.458.146.818.635.882.225.034.582.066.827.066.177 0 .259.048.259.13 0 .113-.129.164-.308.164-1.072 0-2.095-.05-2.516-.05-.374 0-1.397.05-2.045.05-.213 0-.326-.05-.326-.165 0-.081.066-.13.26-.13.244 0 .438-.031.584-.065.326-.064.406-.424.472-.898.08-.685.08-1.977.08-3.48v-2.875zM897.575 13.512c0-3.071-1.835-4.968-4.14-4.968-1.591 0-3.458.849-3.458 4.282 0 2.859 1.625 5.114 4.317 5.114 1.008 0 3.28-.476 3.28-4.428m-9.707-.263c0-2.369 1.655-5.44 5.99-5.44 3.604 0 5.843 2.01 5.843 5.197 0 3.185-2.305 5.683-5.99 5.683-4.154 0-5.843-2.97-5.843-5.44M902.878 18.331c-.227-.098-.276-.161-.276-.473 0-.752.064-1.618.08-1.848 0-.211.065-.358.179-.358.13 0 .145.13.145.229 0 .18.05.476.132.72.308 1.03 1.378 1.373 2.271 1.373 1.234 0 1.982-.786 1.982-1.765 0-.606-.146-1.21-1.414-1.962l-.828-.492c-1.686-.996-2.24-1.927-2.24-3.152 0-1.697 1.624-2.793 3.604-2.793.927 0 1.656.13 2.03.228.13.034.194.081.194.18 0 .179-.048.574-.048 1.666 0 .295-.066.443-.179.443-.098 0-.145-.082-.145-.245 0-.131-.066-.557-.374-.914-.211-.262-.666-.654-1.591-.654-1.023 0-1.948.538-1.948 1.484 0 .623.228 1.11 1.51 1.83l.585.328c1.882 1.046 2.467 2.108 2.467 3.367 0 1.03-.39 1.86-1.429 2.597-.681.489-1.623.569-2.386.569-.828 0-1.704-.08-2.321-.358M912.45 18.331c-.225-.098-.274-.161-.274-.473 0-.752.063-1.618.081-1.848 0-.211.065-.358.178-.358.13 0 .147.13.147.229 0 .18.048.476.129.72.308 1.03 1.38 1.373 2.272 1.373 1.235 0 1.98-.786 1.98-1.765 0-.606-.143-1.21-1.411-1.962l-.829-.492c-1.686-.996-2.239-1.927-2.239-3.152 0-1.697 1.623-2.793 3.604-2.793.925 0 1.655.13 2.029.228.13.034.194.081.194.18 0 .179-.047.574-.047 1.666 0 .295-.066.443-.18.443-.097 0-.146-.082-.146-.245 0-.131-.065-.557-.373-.914-.211-.262-.667-.654-1.59-.654-1.024 0-1.95.538-1.95 1.484 0 .623.23 1.11 1.511 1.83l.584.328c1.883 1.046 2.467 2.108 2.467 3.367 0 1.03-.39 1.86-1.429 2.597-.681.489-1.622.569-2.384.569-.829 0-1.706-.08-2.324-.358M922.48 12.024c0-2.107 0-2.498-.016-2.94-.032-.474-.179-.636-.487-.736a1.87 1.87 0 0 0-.52-.066c-.146 0-.226-.03-.226-.162 0-.082.112-.114.339-.114.537 0 1.511.032 1.916.032.358 0 1.283-.032 1.834-.032.18 0 .293.032.293.114 0 .132-.081.162-.228.162-.146 0-.26.018-.422.05-.39.064-.503.263-.535.751-.033.443-.033.834-.033 2.941v2.451c0 1.34 0 2.45.065 3.041.049.376.147.586.57.652.194.034.518.05.73.05.16 0 .226.08.226.146 0 .097-.113.148-.277.148-.94 0-1.916-.05-2.304-.05-.324 0-1.298.05-1.866.05-.177 0-.277-.05-.277-.148 0-.066.05-.146.228-.146.21 0 .372-.016.504-.05.291-.066.372-.262.421-.67.065-.572.065-1.683.065-3.023v-2.45zM931.746 16.338c0 .916.049 1.192.502 1.374.375.146.698.162 1.023.162.764 0 1.753-.424 1.753-1.96 0-.638-.275-1.734-1.346-2.469-.294-.211-.683-.358-1.234-.358h-.617c-.05 0-.081.014-.081.1v3.151zm0-4.084c0 .114.049.132.096.146.13.034.342.05.666.05.472 0 .876-.05 1.12-.246.375-.294.65-.8.65-1.469 0-.932-.552-2.091-1.787-2.091-.194 0-.47 0-.615.032-.098.015-.13.082-.13.23v3.348zm-1.85-.23c0-2.107 0-2.499-.017-2.941-.03-.473-.162-.62-.616-.75-.113-.033-.357-.052-.568-.052-.147 0-.243-.047-.243-.143 0-.1.113-.133.324-.133.746 0 1.656.033 1.93.033.715 0 1.655-.033 2.144-.033 2.58 0 3.035 1.34 3.035 2.077 0 1.079-.795 1.91-1.608 2.434 1.17.376 2.631 1.371 2.631 3.007 0 1.484-1.17 3.023-3.798 3.023-.164 0-.65-.019-1.138-.053-.485-.014-.989-.032-1.216-.032-.162 0-.471.018-.813.018-.34.014-.698.033-.988.033-.179 0-.278-.051-.278-.148 0-.067.049-.147.23-.147.21 0 .372-.015.502-.049.292-.065.372-.327.42-.737.067-.587.067-1.683.067-2.956v-2.451zM940.444 12.024c0-2.107 0-2.498-.017-2.94-.032-.474-.178-.636-.487-.736a1.86 1.86 0 0 0-.52-.066c-.145 0-.226-.03-.226-.162 0-.082.113-.114.34-.114.536 0 1.51.032 1.916.032.358 0 1.282-.032 1.833-.032.18 0 .292.032.292.114 0 .132-.08.162-.228.162-.144 0-.257.018-.42.05-.391.064-.503.263-.535.751-.034.443-.034.834-.034 2.941v2.451c0 1.34 0 2.45.066 3.041.049.376.145.586.568.652.194.034.52.05.73.05.163 0 .229.08.229.146 0 .097-.115.148-.28.148-.94 0-1.913-.05-2.302-.05-.325 0-1.299.05-1.866.05-.179 0-.278-.05-.278-.148 0-.066.05-.146.23-.146.21 0 .372-.016.502-.05.292-.066.372-.262.42-.67.067-.572.067-1.683.067-3.023v-2.45zM949.776 14.475c0 1.782 0 2.665.308 2.926.243.21.794.292 1.899.292.762 0 1.315-.015 1.672-.391.178-.18.325-.572.358-.834.014-.13.048-.211.161-.211.098 0 .129.148.129.31 0 .163-.095 1.193-.212 1.601-.096.312-.16.378-.906.378a54.16 54.16 0 0 1-2.565-.053c-.716-.013-1.316-.032-1.9-.032-.162 0-.47.019-.813.019-.34.013-.696.032-.987.032-.18 0-.277-.051-.277-.148 0-.066.047-.147.228-.147.208 0 .372-.015.502-.049.293-.065.374-.327.421-.737.064-.587.064-1.683.064-2.956v-2.451c0-2.107 0-2.499-.015-2.941-.032-.473-.162-.62-.617-.75a1.802 1.802 0 0 0-.47-.052c-.162 0-.244-.047-.244-.143 0-.1.098-.132.308-.132.666 0 1.574.032 1.967.032.338 0 1.508-.032 2.06-.032.21 0 .307.032.307.132 0 .096-.08.143-.259.143-.162 0-.389.019-.553.053-.389.063-.502.262-.534.749-.032.442-.032.834-.032 2.941v2.45zM957.627 12.024c0-2.107 0-2.498-.015-2.94-.032-.474-.18-.636-.489-.736a1.852 1.852 0 0 0-.519-.066c-.147 0-.226-.03-.226-.162 0-.082.113-.114.341-.114.536 0 1.51.032 1.914.032.359 0 1.284-.032 1.833-.032.18 0 .295.032.295.114 0 .132-.082.162-.229.162a2.02 2.02 0 0 0-.422.05c-.39.064-.503.263-.536.751-.031.443-.031.834-.031 2.941v2.451c0 1.34 0 2.45.064 3.041.05.376.146.586.569.652.194.034.52.05.73.05.162 0 .227.08.227.146 0 .097-.114.148-.276.148-.94 0-1.916-.05-2.305-.05-.323 0-1.297.05-1.865.05-.18 0-.277-.05-.277-.148 0-.066.047-.146.228-.146.21 0 .374-.016.504-.05.29-.066.372-.262.42-.67.065-.572.065-1.683.065-3.023v-2.45zM966.943 8.857l-2.127.048c-.827.015-1.167.114-1.379.425a1.618 1.618 0 0 0-.243.472c-.034.114-.066.18-.164.18-.096 0-.13-.08-.13-.228 0-.228.277-1.569.31-1.683.031-.18.08-.262.162-.262.113 0 .26.115.617.163.422.051.957.067 1.429.067h5.793c.455 0 .764-.034.975-.067.227-.034.34-.063.39-.063.097 0 .113.082.113.291 0 .296-.034 1.326-.034 1.684-.014.148-.047.228-.129.228-.113 0-.145-.063-.162-.276l-.017-.148c-.03-.358-.404-.783-1.687-.8l-1.803-.031v5.619c0 1.273.018 2.369.083 2.973.047.391.128.654.551.72.195.032.52.048.732.048.16 0 .227.081.227.148 0 .095-.114.148-.279.148-.939 0-1.897-.053-2.303-.053-.325 0-1.299.053-1.865.053-.18 0-.278-.053-.278-.148 0-.067.05-.148.229-.148.21 0 .387-.016.502-.048.292-.066.374-.329.421-.739.066-.585.066-1.681.066-2.954V8.857zM976.127 12.024c0-2.107 0-2.498-.017-2.94-.03-.474-.178-.636-.487-.736a1.86 1.86 0 0 0-.52-.066c-.146 0-.226-.03-.226-.162 0-.082.114-.114.34-.114.536 0 1.512.032 1.916.032.358 0 1.283-.032 1.835-.032.179 0 .29.032.29.114 0 .132-.08.162-.226.162-.145 0-.259.018-.421.05-.39.064-.504.263-.536.751-.032.443-.032.834-.032 2.941v2.451c0 1.34 0 2.45.064 3.041.047.376.147.586.568.652.195.034.52.05.73.05.163 0 .229.08.229.146 0 .097-.115.148-.277.148-.94 0-1.918-.05-2.305-.05-.323 0-1.299.05-1.865.05-.18 0-.278-.05-.278-.148 0-.066.048-.146.229-.146.21 0 .372-.016.502-.05.292-.066.374-.262.421-.67.066-.572.066-1.683.066-3.023v-2.45zM983.542 12.024c0-2.107 0-2.498-.016-2.94-.032-.474-.162-.622-.617-.752a2.614 2.614 0 0 0-.568-.05c-.147 0-.243-.048-.243-.144 0-.1.113-.132.326-.132.746 0 1.654.032 2.06.032.454 0 3.62.015 3.895 0 .26-.015.489-.066.602-.082.08-.017.161-.066.225-.066.083 0 .098.066.098.133 0 .097-.08.259-.114.897-.014.148-.048.754-.08.915-.015.067-.05.23-.162.23-.098 0-.114-.066-.114-.182 0-.095-.017-.342-.096-.505-.115-.244-.228-.44-.944-.506-.243-.032-1.946-.066-2.24-.066-.064 0-.096.05-.096.132v3.43c0 .08.016.146.096.146.325 0 2.176 0 2.5-.032.342-.034.537-.082.684-.211.112-.099.16-.18.225-.18.066 0 .113.066.113.147 0 .08-.03.31-.113 1.012-.03.28-.064.834-.064.93 0 .115-.017.314-.147.314-.097 0-.129-.053-.129-.116-.017-.146-.017-.328-.05-.509-.082-.276-.258-.487-.794-.535-.259-.033-1.884-.066-2.239-.066-.066 0-.082.066-.082.147v1.11c0 .474-.017 1.65 0 2.057.032.948.47 1.162 1.932 1.162.374 0 .973-.018 1.348-.18.357-.163.517-.458.615-1.03.033-.148.065-.21.163-.21.115 0 .128.177.128.324 0 .31-.113 1.258-.194 1.536-.097.36-.227.36-.763.36-1.07 0-1.93-.017-2.628-.05-.7-.016-1.234-.033-1.657-.033-.162 0-.47.017-.811.017-.34.016-.699.034-.99.034-.177 0-.277-.05-.277-.148 0-.066.048-.146.228-.146.212 0 .374-.016.504-.05.291-.066.374-.328.42-.736.066-.588.066-1.684.066-2.957v-2.45zM992.92 18.331c-.225-.098-.276-.161-.276-.473 0-.752.065-1.618.083-1.848 0-.211.064-.358.178-.358.13 0 .145.13.145.229 0 .18.05.476.13.72.308 1.03 1.38 1.373 2.273 1.373 1.233 0 1.98-.786 1.98-1.765 0-.606-.145-1.21-1.412-1.962l-.828-.492c-1.688-.996-2.24-1.927-2.24-3.152 0-1.697 1.624-2.793 3.604-2.793.925 0 1.656.13 2.03.228.128.034.194.081.194.18 0 .179-.05.574-.05 1.666 0 .295-.063.443-.177.443-.098 0-.147-.082-.147-.245 0-.131-.064-.557-.372-.914-.213-.262-.668-.654-1.593-.654-1.021 0-1.948.538-1.948 1.484 0 .623.23 1.11 1.512 1.83l.583.328c1.882 1.046 2.467 2.108 2.467 3.367 0 1.03-.388 1.86-1.428 2.597-.682.489-1.622.569-2.385.569-.828 0-1.706-.08-2.323-.358"/>
            <g>
                <path d="M13.1.097c.84.111 1.745.24 2.717.388.69.13 1.037.306 1.037.532 0 .162-.158.274-.47.338-.478.161-.716.29-.716.389v3.1h3.135c.707-.984 1.193-1.566 1.457-1.742a.274.274 0 0 1 .149-.05c.213.065.575.323 1.086.777.707.614 1.093 1.049 1.16 1.308 0 .225-.059.355-.172.387h-6.815v4.193h2.641c.658-.89 1.112-1.415 1.36-1.576a.501.501 0 0 1 .173-.024c.196.047.524.274.986.68.642.579 1.003.99 1.087 1.235 0 .226-.067.355-.198.387h-6.049v4.725h3.408c.756-1.067 1.275-1.697 1.554-1.89a.314.314 0 0 1 .173-.047c.247.064.641.33 1.186.796.756.679 1.176 1.156 1.259 1.431 0 .228-.058.357-.173.389h-7.407v.363c.05 2.81.09 4.779.123 5.91 0 .436-.567.657-1.702.657-.577 0-.864-.17-.864-.509.05-.97.081-3.022.098-6.156V2.472a36.625 36.625 0 0 0-.222-2.375M1.029 4.677c.558.094 2.345.162 5.357.192h1.729l-.026-.774c-.034-1.632-.115-2.93-.247-3.902 2.584.339 3.877.663 3.877.971 0 .191-.222.339-.667.435-.264.161-.437.333-.519.509l-.024 9.426c-.494 5.815-3.383 9.587-8.666 11.316-.033-.065-.122-.139-.271-.22 1.876-1.05 3.472-2.632 4.788-4.75.594-.805 1.039-1.848 1.335-3.124-1.22.662-2.89 1.332-5.013 2.01-.132.76-.296 1.139-.494 1.139-.164 0-.378-.356-.64-1.065-.232-.697-.504-1.552-.815-2.57.543.097 1.382.148 2.518.148 1.99-.114 3.53-.317 4.615-.606.164-.955.264-1.996.298-3.128v-.362H6.46c-1.729.015-3.07.08-4.025.195a14.594 14.594 0 0 1-.394-1.068c.477.08 2.008.139 4.592.17h1.53l-.048-4.095h-2c-1.993.018-3.555.088-4.692.218a15.326 15.326 0 0 1-.394-1.064M45.221 6.785c2.898 2.05 4.345 4.014 4.345 5.886 0 .6-.182 1.012-.543 1.238-.231.209-.518.314-.863.314-.643 0-1.095-.864-1.359-2.592-.362-1.89-1.004-3.402-1.926-4.531.083-.083.198-.188.346-.315M41.468.873l2.617 1.138h6.32c.773-.938 1.309-1.405 1.606-1.405.296 0 .78.29 1.456.873.509.435.765.735.765.896 0 .339-.37.703-1.11 1.088V18.39c0 .712.352 1.073 1.06 1.091h1.679c.642 0 1.021-.373 1.136-1.115.23-.646.445-2.052.643-4.215h.543v3.683c0 .661.098 1.018.296 1.065.41.258.642.429.692.508.13.195.196.38.196.559-.032.823-.88 1.364-2.543 1.623-.543.08-1.16.12-1.851.12H53.54c-1.842-.015-2.797-.864-2.863-2.542V2.593H44.01l.025 7.632c0 2.616-.238 4.572-.716 5.863-.28 1.067-.954 2.181-2.025 3.345-1.382 1.55-2.78 2.582-4.196 3.1-.132 0-.272-.09-.419-.266 1.53-1.228 2.74-2.754 3.629-4.58.805-1.47 1.235-3.925 1.284-7.364 0-3.732-.017-6.033-.05-6.906 0-.744-.026-1.592-.075-2.544M90.796 15.506c2.683 1.375 4.025 2.69 4.025 3.951 0 .533-.166.91-.494 1.138a1.31 1.31 0 0 1-.814.268c-.61 0-1.03-.616-1.26-1.844-.33-1.355-.921-2.437-1.777-3.245.098-.08.205-.172.32-.268zm-4.69-3.39h4.888V9.037h-4.888v3.079zm0-3.758h4.888v-2.69h-4.888v2.69zm0-3.319h4.888V2.23h-4.888v2.81zM83.711.8l2.173.8h4.714c.675-.808 1.128-1.22 1.36-1.235.23.015.682.265 1.357.75.609.453.912.782.912.994 0 .143-.115.291-.345.436-.379.29-.609.484-.69.58v5.817c.098 2.246.147 3.699.147 4.36 0 .549-.435.832-1.308.85-.66 0-1.005-.154-1.037-.462v-.944h-4.888v.555c-.1.485-.56.73-1.382.73-.51 0-.816-.082-.914-.245 0-2.067.032-4.085.098-6.056V3.805c-.033-1.697-.098-2.7-.197-3.006zm-.666 13.763c2.254.274 3.422 1.114 3.504 2.52 0 .355-.04.638-.122.849-.198.483-.528.727-.988.727-.247 0-.592-.477-1.037-1.429-.428-.989-.938-1.78-1.53-2.377a.518.518 0 0 0 .173-.29zm-5.235.12c2.47.438 3.704.759 3.704.971 0 .273-.445.565-1.333.873v2.469c0 .727.402 1.115 1.209 1.165h4.494c.92-.018 1.555-.3 1.9-.85.247-.387.552-1.275.914-2.663.262.015.411.022.443.022v2.618c.017.208.183.37.496.485.345.194.518.403.518.629-.034.777-.774 1.284-2.222 1.526-1.135.13-2.28.194-3.431.194-2.356 0-3.844-.048-4.47-.144-1.349-.083-2.024-1.212-2.024-3.393v-1.332c0-1.244-.066-2.102-.198-2.57zm-1.9 1.067c.296 0 .443.01.443.025.05.466.075 1.205.075 2.205-.016 2.116-.83 3.19-2.444 3.221-.856 0-1.318-.272-1.382-.823 0-.47.279-.952.839-1.454.46-.192.97-.622 1.53-1.283.396-.453.707-1.085.939-1.89zm5.53-13.326c.082 0 .23.078.444.24.905.776 1.415 1.294 1.53 1.553 0 .194-.065.29-.196.29h-3.753v1.212c2.223 1.132 3.34 2.156 3.357 3.079 0 .629-.173 1.049-.518 1.258-.166.096-.379.147-.643.147-.312 0-.584-.388-.814-1.165-.396-1.082-.856-1.964-1.382-2.64v6.857c0 .42-.47.647-1.408.679-.543 0-.814-.13-.814-.389l.049-5.426c-1.037 1.792-2.543 3.278-4.517 4.457-.084 0-.166-.089-.248-.265 1.958-2.103 3.243-4.355 3.852-6.762.132-.421.23-.768.296-1.042h-.839c-1.053 0-1.87.065-2.444.195a15.364 15.364 0 0 0-.345-.994c.558.111 1.487.176 2.79.194h1.48V1.576A16.86 16.86 0 0 1 77.193.12c2.056.244 3.191.542 3.406.897 0 .212-.156.364-.47.462-.442.223-.665.37-.665.435v1.987h.617a11.38 11.38 0 0 1 1.086-1.308c.115-.114.205-.17.271-.17zM123.388 9.085h4.049V6.154h-4.05v2.93zm-5.876 0h3.776V6.154h-3.827v1.672c0 .389.017.809.051 1.259zm-.1-3.584h4.42c.642-.938 1.06-1.664 1.258-2.182h-3.702c-.43.5-.897.96-1.408 1.382a7.87 7.87 0 0 1-.766.703l.198.097zm1.135-5.5c2.322.66 3.482 1.137 3.482 1.428 0 .226-.528.405-1.58.531a6.7 6.7 0 0 1-.543.703h3.11c.741-.758 1.194-1.16 1.358-1.21.213 0 .7.3 1.457.896.609.535.922.85.939.946 0 .163-.125.274-.372.34-.378.129-.74.202-1.086.216-.64.567-1.481 1.115-2.518 1.65h4.37c.625-.777 1.044-1.173 1.259-1.188.23.015.658.25 1.284.703.56.402.84.71.84.92 0 .147-.124.283-.371.412-.379.244-.609.42-.692.532v1.65c.1.645.149 1.067.149 1.258 0 .503-.413.761-1.235.775-.592 0-.912-.137-.963-.411v-.435h-3.974a7.889 7.889 0 0 1-1.383 1.355c.873.856 1.53 1.72 1.975 2.593 1.384-1.035 2.296-2.09 2.741-3.176 1.695.94 2.543 1.512 2.543 1.724 0 .16-.132.24-.396.24-.279.019-.552.034-.814.05-.543.29-1.16.58-1.851.872a7 7 0 0 0 2.147 3.175c.954.84 1.902 1.404 2.839 1.696a1.828 1.828 0 0 1-.123.46c-.379.03-.676.178-.89.437-.131.158-.303.443-.518.846-.147.244-.296.37-.445.389-.279-.034-.813-.55-1.604-1.55-1.12-1.682-1.787-3.425-2-5.236-.46.16-.937.317-1.43.462.476 1.034.714 2.051.714 3.051 0 3.152-.732 4.984-2.196 5.5-.281.113-.61.172-.988.172-.362 0-.543-.163-.543-.486-.083-.68-.396-1.155-.939-1.429a7.656 7.656 0 0 0-1.95-.655v-.292c1.547.115 2.782.18 3.703.195.511 0 .79-1.059.84-3.172-2.534 1.404-5.366 2.446-8.493 3.125-.066-.05-.147-.18-.247-.388 3.523-1.327 6.396-3.038 8.617-5.137a25.856 25.856 0 0 0-.099-.582c-2.518 1.424-5.317 2.455-8.394 3.102-.066-.05-.148-.176-.247-.388 3.243-1.212 5.884-2.81 7.925-4.799a3.253 3.253 0 0 0-.296-.485c-1.926 1.376-4.535 2.215-7.826 2.523-.017-.114-.083-.244-.198-.388 3.34-.793 5.678-2.06 7.012-3.804h-3.11c0 .176.007.346.024.509-.1.388-.593.58-1.482.58-.444 0-.667-.123-.667-.363.033-.76.05-1.59.05-2.496V6.639c-.363.225-.74.435-1.136.629a2.652 2.652 0 0 0-.246-.265c2.469-2.409 3.958-4.742 4.467-7.003zm-6.418.12c2.435.484 3.654.904 3.654 1.261 0 .241-.437.426-1.308.556-.576 1.696-1.202 3.198-1.877 4.506.824.226 1.235.42 1.235.583 0 .114-.181.217-.543.315-.313.13-.47.24-.47.337v8.214c.065 2.248.099 4.346.099 6.301-.066.402-.585.63-1.556.68-.625 0-.937-.148-.937-.436.065-2.15.098-4.312.098-6.494V9.693c-.74.953-1.523 1.752-2.345 2.396-.083-.176-.132-.283-.148-.314 1.975-2.89 3.342-6.777 4.098-11.654zM157.63 11.557c0 .565-.214 1.05-.64 1.456-.43.435-.931.652-1.507.652-.576 0-1.08-.217-1.506-.652-.43-.407-.642-.891-.642-1.456 0-.564.213-1.049.642-1.452.427-.438.93-.655 1.506-.655s1.077.217 1.507.655c.426.403.64.888.64 1.452M197.602.267c.856.112 1.753.25 2.69.411.692.113 1.037.283 1.037.51 0 .162-.148.264-.444.314-.478.176-.716.314-.716.412V16.21c.032 2.81.065 4.783.098 5.912 0 .438-.56.655-1.678.655-.576 0-.865-.17-.865-.509.05-.969.083-3.022.1-6.156V2.64a37.64 37.64 0 0 0-.222-2.373zM185.258 7.73c-.412 2.28-.75 3.998-1.012 5.16h6.319c.74-.791 1.218-1.184 1.433-1.184.23.013.674.296 1.332.846.675.582 1.013.962 1.013 1.138 0 .179-.157.341-.47.484a4.57 4.57 0 0 0-.616.365c-.313 3.052-.758 5.04-1.333 5.96-.362 1.244-1.49 2.01-3.384 2.302-.296 0-.486-.179-.567-.533a2.588 2.588 0 0 0-1.086-1.428 5.112 5.112 0 0 0-1.902-.827c.017-.015.051-.176.1-.481a24.04 24.04 0 0 0 3.21.531c.788 0 1.265-.226 1.431-.679.379-.679.765-2.625 1.161-5.839h-6.765c-.181.873-.288 1.308-.32 1.308-.1.292-.48.437-1.137.437-.937 0-1.407-.139-1.407-.413 1.186-4.522 1.818-7.446 1.9-8.77 1.054.436 1.77.768 2.15.994h4.961V2.473h-5.11c-1.712 0-2.979.064-3.802.19a9.574 9.574 0 0 0-.321-.967c.643.111 2.057.17 4.247.17h4.665c.757-.905 1.267-1.358 1.531-1.358.198 0 .609.241 1.233.727.66.55.99.93.99 1.14 0 .144-.125.298-.372.459-.165.098-.42.259-.765.485V6.59c.1.74.147 1.397.147 1.962 0 .466-.55.734-1.653.799-.526-.015-.79-.194-.79-.531V7.729h-5.01zM228.537 14.997c.494 1.358 1.39 2.496 2.692 3.417.937-1.033 1.578-2.174 1.925-3.417h-4.617zm5.801-1.647c.164 0 .552.227 1.161.68.445.434.675.685.692.749 0 .13-.042.212-.125.245-.279.111-.435.208-.467.29-.61 1.596-1.54 2.946-2.792 4.045.198.08.38.163.545.243 1.02.438 2.649.655 4.888.655-.034.209-.059.338-.075.388-.214 0-.46.256-.74.774-.066.373-.124.71-.173 1.019-.066.242-.206.362-.42.362-1.844-.097-3.669-.882-5.48-2.35-1.795 1.115-4.042 1.891-6.74 2.326a1.689 1.689 0 0 1-.173-.314c1.497-.55 2.994-1.302 4.494-2.255a14.53 14.53 0 0 0 1.233-.848c-.987-1.114-1.67-2.56-2.047-4.335-.677.014-1.17.065-1.483.143-.181-.388-.338-.71-.468-.97.69.13 1.744.195 3.16.195h3.726c.692-.694 1.12-1.042 1.284-1.042zM218.91 3.078c.707.096 1.284.24 1.727.435.904.42 1.358.906 1.358 1.453 0 .582-.157.987-.468 1.211-.198.146-.479.22-.84.22-.38 0-.626-.29-.743-.873-.146-.518-.304-.906-.466-1.163a8.689 8.689 0 0 0-.792-1.018c.066-.065.14-.154.224-.265zm8.442-2.837c.248.064.7.412 1.357 1.044.641.63.963 1.081.963 1.355 0 .148-.213.25-.64.315.443.549.895 1.035 1.357 1.455 1.168-1.196 1.885-2.359 2.147-3.49 1.713.629 2.567 1.035 2.567 1.211-.015.18-.41.283-1.184.315-.676.793-1.753 1.535-3.234 2.232a11.14 11.14 0 0 0 2.1 1.451c1.25-1.049 2.13-2.213 2.64-3.489.378.259 1.019.638 1.925 1.141.445.272.667.467.667.58-.017.146-.132.22-.345.22-.461.03-.765.064-.914.097-.526.384-1.127.75-1.802 1.087a8.608 8.608 0 0 1-1.58.656c1.661.84 3.555 1.3 5.678 1.382-.017.176-.034.328-.049.458-.133.018-.331.147-.593.388-.132.148-.296.453-.494.921-.083.309-.24.461-.468.461-.692 0-1.696-.37-3.012-1.114a2.68 2.68 0 0 0-.494.315v1.576c0 .435.222.66.667.676h.74c.544 0 .953-.09 1.234-.265.1-.065.23-.204.396-.411h.197c.212.096.485.32.813.676.313.355.471.605.471.752 0 .565-1.004.855-3.012.873-.61 0-1.129-.031-1.555-.096-1.382-.018-2.09-.55-2.124-1.6v-2.69h-1.778c-.032.647-.123 1.179-.272 1.6-.378 1.71-1.736 2.851-4.073 3.416a7.323 7.323 0 0 1-.295-.315c.707-.324 1.283-.855 1.727-1.599.38-.662.57-1.683.57-3.055 0-.806-.036-1.373-.102-1.697l2.249.994h1.753c.228-.273.426-.485.592-.628-1.597-1.132-2.88-2.594-3.852-4.388a.66.66 0 0 1-.171.027c-1.96 2.1-4.471 3.86-7.532 5.28h2.865c.56-.597.946-.903 1.16-.92.214.017.608.236 1.185.656.51.37.765.653.765.847 0 .128-.115.25-.345.364-.38.241-.601.402-.666.482v1.6c.08.614.123 1.01.123 1.188 0 .467-.38.71-1.135.726-.544 0-.831-.136-.865-.411v-.34h-3.284a225.331 225.331 0 0 1-.518 2.715h3.284c.64-.712 1.053-1.067 1.234-1.067.213.016.592.259 1.135.728.594.5.888.833.888.994 0 .162-.122.298-.37.412-.197.097-.386.2-.567.315-.264 2.181-.66 3.591-1.187 4.239-.294.888-1.28 1.446-2.96 1.672-.215 0-.356-.155-.42-.46-.134-.518-.404-.922-.815-1.212a4.008 4.008 0 0 0-1.383-.703c.017-.017.05-.152.1-.411.79.226 1.562.38 2.32.462.692 0 1.112-.157 1.26-.462.344-.453.69-1.743 1.036-3.878h-3.678c-.116.485-.182.729-.198.729-.082.24-.412.361-.987.361-.792 0-1.184-.111-1.184-.337.773-2.875 1.184-4.725 1.233-5.549.856.354 1.44.62 1.753.797h3.308V9.013h-4.567c-1.037.422-2.115.801-3.235 1.138-.115-.078-.213-.25-.296-.508 1.959-.744 4.049-1.882 6.271-3.416 1.382-1.002 2.764-2.31 4.148-3.926h-6.174c-.673.048-1.167.104-1.48.172a5.838 5.838 0 0 0-.64-1.165c1.002.194 2.352.305 4.047.338h4.024c.856-.934 1.384-1.405 1.58-1.405zM270.04 17.228c2.65 1.212 3.984 2.332 4 3.366 0 .68-.116 1.147-.346 1.406-.231.324-.584.485-1.063.485-.51 0-.837-.435-.987-1.308-.46-1.617-1.12-2.851-1.974-3.708l.37-.24zm-3.803-1.866h1.927V9.837h-1.927v5.525zm0-6.228h1.927V4.143h-1.927v4.991zm-1.382 8.215c2.008 1.036 3.02 1.987 3.037 2.858 0 .744-.132 1.26-.396 1.552-.231.324-.6.485-1.11.485-.33 0-.552-.405-.666-1.212-.282-1.502-.708-2.647-1.285-3.442l.42-.241zm-2.714-1.987h1.826V9.837h-1.826v5.525zm0-6.228h1.826V4.143h-1.826v4.991zM259.3 17.3c1.662 1.067 2.527 2.246 2.591 3.54 0 .967-.394 1.46-1.184 1.476-.839 0-1.268-.355-1.284-1.064v-2.233c0-.629-.107-1.151-.32-1.571.081 0 .147-.051.196-.148zm-1.358-1.937h1.926V9.837h-1.926v5.525zm0-6.228h1.926V4.143h-1.926v4.991zm-2.272 7.777c.28 0 .42.009.42.027.048.435.074 1.114.074 2.034-.017 2.488-.954 3.754-2.814 3.805-.79 0-1.22-.268-1.284-.8 0-.42.272-.865.813-1.332.528-.227 1.113-.73 1.755-1.503.444-.517.79-1.26 1.036-2.231zM257.006.074c2.171.676 3.257 1.096 3.257 1.257 0 .31-.428.503-1.283.583-.33.549-.692 1.049-1.086 1.502h12.243c.66-.888 1.12-1.414 1.384-1.576a.4.4 0 0 1 .147-.023c.183.05.512.282.99.703.64.581.993.976 1.06 1.188 0 .257-.05.402-.147.435h-3.136v4.991h.543c.822-1.196 1.34-1.801 1.555-1.816.181 0 .541.314 1.087.943.542.583.855.979.938 1.188 0 .244-.099.37-.296.388h-3.827v5.525h.666c.725-1.194 1.194-1.803 1.408-1.817.164 0 .493.315.987.944.477.58.756.978.84 1.187 0 .244-.108.37-.321.389h-17.578c-2.453.065-3.686.143-3.703.24-.132-.338-.29-.773-.469-1.307.328.129 1.465.243 3.406.34v-5.5c-2.171.046-3.266.129-3.283.24-.148-.338-.32-.773-.519-1.308.38.13 1.647.25 3.802.364v-3.44a13.204 13.204 0 0 1-2.64 1.697 2.256 2.256 0 0 0-.42-.244c2.106-1.859 3.571-4.216 4.395-7.073zM299.914 10.078h6.147V6.541h-6.147v3.537zm0-4.166h6.147v-3.44h-6.147v3.44zM297.47.776c.905.403 1.71.767 2.419 1.09h5.73C306.273 1.17 306.736.816 307 .8c.213.015.658.259 1.331.725.626.453.939.786.939.995 0 .161-.123.315-.37.46-.345.26-.552.445-.616.556V7.73c.08 1.63.122 2.69.122 3.175 0 .531-.435.805-1.31.823-.656 0-1.003-.147-1.035-.438v-.58h-3.406c.41 1.938 1.069 3.61 1.974 5.016 1.432-1.114 2.428-2.335 2.986-3.66.43.243 1.112.628 2.05 1.164.494.306.741.515.741.63-.017.176-.149.268-.395.268-.46.031-.79.063-.988.096-.56.388-1.203.768-1.927 1.138-.64.308-1.355.573-2.147.8a11.967 11.967 0 0 0 3.408 3.174c.888.564 1.646.927 2.272 1.088 0 .163-.034.3-.099.414-.282.063-.52.154-.716.265-.231.194-.437.509-.616.947-.215.403-.413.607-.594.607-.166 0-.503-.213-1.012-.633-2.963-2.1-4.807-5.872-5.53-11.313h-2.148v8.285c1.382-.176 2.558-.395 3.53-.654.05.015.09.09.123.219-1.596 1.193-3.892 2.227-6.888 3.1 0 .487-.073.728-.222.728-.1 0-.28-.235-.543-.703a68.102 68.102 0 0 1-1.012-2.206c.97-.064 1.893-.138 2.765-.216V2.955c-.017-.515-.083-1.245-.198-2.18zM294.951.46c.132 0 .544.289 1.235.871.674.582 1.012.96 1.012 1.14 0 .191-.115.32-.345.385-.528.195-.865.333-1.012.416-.677 1.434-1.746 3.092-3.21 4.964 2.354 1.52 3.571 3.288 3.654 5.308 0 2.502-.85 3.948-2.544 4.337-.247-.015-.419-.154-.517-.413-.1-.531-.363-.938-.79-1.21a4.03 4.03 0 0 0-.99-.486c.035-.065.052-.185.052-.364.46.067 1.012.105 1.654.123.74-.096 1.11-.855 1.11-2.279 0-2.163-.732-3.828-2.197-4.992.824-1.582 1.399-3.642 1.728-6.176h-2.69V22.05c-.1.5-.56.75-1.383.75-.51 0-.814-.082-.913-.241 0-3.476.023-6.873.074-10.202v-6.69c-.017-2.838-.074-4.529-.173-5.062l2.418.92h2.445c.658-.679 1.12-1.034 1.382-1.064zM329.564 14.706h4.247V8.02h-4.247v6.685zm-2.592-8.262l2.445.92h4.247c.674-.758 1.127-1.145 1.357-1.16.232.015.684.265 1.357.75.61.452.914.784.914.993 0 .16-.148.314-.443.462-.463.259-.742.451-.84.58v4.338c.098 1.665.148 2.745.148 3.247 0 .55-.435.83-1.308.849-.66 0-1.004-.157-1.038-.462v-1.577h-4.246v1.503c-.115.55-.616.823-1.507.823-.525 0-.847-.087-.962-.263 0-1.748.034-3.449.1-5.114V9.014c-.035-1.438-.107-2.296-.224-2.57zM344.082.75c.23.114.46.259.692.438 1.248 1.031 1.876 1.687 1.876 1.961 0 .226-.083.34-.247.34h-3.704v16.574c-.016 1.502-1.054 2.357-3.11 2.566-.33 0-.502-.167-.52-.508a3.21 3.21 0 0 0-.444-.968c-.098-.374-1.052-.729-2.863-1.067v-.436c1.25.08 2.526.122 3.826.122.479 0 .726-.088.74-.268V3.49h-10.169c-2.963 0-4.816.102-5.555.314a8.804 8.804 0 0 0-.57-1.308c1.186.176 3.219.265 6.099.265h11.8c.873-1.115 1.499-1.791 1.878-2.035.098 0 .188.009.271.024zM372.08.12c2.286.407 3.43.712 3.43.92 0 .244-.418.509-1.259.801v3.248c2.124-1.002 3.687-2.158 4.692-3.466 1.678 1.178 2.517 1.826 2.517 1.937 0 .194-.097.3-.296.318-.328 0-.69-.018-1.086-.05-1.514.759-3.457 1.422-5.827 1.987V7.85c0 .661.38 1.025 1.135 1.09h2.643c.856-.017 1.43-.3 1.728-.846.264-.355.55-1.206.864-2.547.264.018.41.024.445.024v2.496c.015.212.205.364.567.462.446.194.667.394.667.605-.049.727-.748 1.203-2.098 1.429-.857.116-1.738.171-2.642.171-1.795 0-2.938-.042-3.431-.12-1.267-.065-1.9-1.123-1.9-3.176V2.496c0-1.147-.051-1.94-.15-2.376zm-.076 11.195c2.485.404 3.729.727 3.729.968 0 .26-.46.54-1.384.85v3.172c2.207-1.064 3.82-2.301 4.84-3.707 1.696 1.182 2.544 1.826 2.544 1.94 0 .176-.1.283-.296.315-.315 0-.677-.024-1.086-.074-1.548.841-3.548 1.585-6.002 2.23v2.156c0 .728.404 1.123 1.212 1.188h2.368c.94-.016 1.565-.314 1.877-.896.281-.388.585-1.303.915-2.738.296.015.46.024.493.024v2.69c.016.21.197.37.543.482.46.194.692.416.692.656-.05.777-.8 1.284-2.247 1.527-.84.13-1.712.194-2.616.194-1.763 0-2.89-.048-3.384-.145-1.35-.082-2.024-1.211-2.024-3.392v-4.92c0-1.243-.059-2.083-.174-2.52zm-8.615 4.87h4.617v-2.616h-4.617v2.616zm0-3.27h4.617v-2.35h-4.617v2.35zm-2.37-3.803l2.148.799h4.492c.743-.729 1.194-1.091 1.36-1.091.23.064.6.258 1.11.582.691.5 1.044.848 1.063 1.04 0 .178-.125.339-.372.486-.197.13-.403.282-.618.458v8.409c-.032 1.535-.823 2.488-2.37 2.861-.328-.064-.493-.236-.493-.509-.149-.535-.388-.931-.716-1.187-.313-.26-.855-.518-1.63-.777.033-.144.05-.275.05-.388.856.13 1.557.194 2.098.194.577 0 .865-.152.865-.458v-2.717h-4.617v5.333c-.098.5-.552.75-1.358.75-.51 0-.822-.083-.937-.24 0-2.15.032-4.25.098-6.302v-4.118c-.033-1.762-.09-2.803-.172-3.125zm3.308-9.065c2.173.794 3.259 1.302 3.259 1.529-.016.259-.52.402-1.505.435-.84 1.438-2.098 2.801-3.777 4.096.805.065 1.719.111 2.739.143 1.481 0 2.774-.047 3.876-.143-.313-1.05-.798-1.9-1.456-2.547a2.36 2.36 0 0 0 .245-.217c2.52 1.405 3.778 2.755 3.778 4.048 0 .482-.14.814-.419.99a1.123 1.123 0 0 1-.69.222c-.577 0-.99-.607-1.236-1.817a1.636 1.636 0 0 0-.097-.292c-2.305.903-5.07 1.47-8.297 1.696-.098.386-.247.58-.443.58-.068 0-.183-.259-.345-.774-.247-.951-.415-1.704-.496-2.255.479.13 1.12.228 1.927.292 1.58-2.035 2.558-4.031 2.937-5.986z"/>
            </g>
        </g>
    </g>
</svg>
