<svg xmlns="http://www.w3.org/2000/svg" width="101" height="100" viewBox="0 0 101 100">
    <g fill="none" fill-rule="evenodd" transform="translate(.75)">
        <circle cx="50" cy="50" r="50" fill="#A19062"/>
        <path fill="#FFF" d="M77.523 29v34.174h-3.408V32.417H26.408V29h51.115zM23 35.835h47.707V66.59H50.06a4.52 4.52 0 0 0 .201-1.281v-2.136h10.223c0-3.775 3.052-6.835 6.816-6.835V46.087c-3.764 0-6.816-3.06-6.816-6.835H33.223c0 3.775-3.052 6.835-6.815 6.835v5.126h-1.704c-.603 0-1.169.108-1.704.277V35.835zm27.186 23.241c.03-.2.075-.393.075-.601v-2.563c0-2.637-2.242-4.699-5.111-4.699h-6.815c0-4.72 3.813-8.543 8.519-8.543 4.707 0 8.519 3.824 8.519 8.543a8.548 8.548 0 0 1-5.187 7.863zm-25.482.68H45.15c.944 0 1.704-.574 1.704-1.281v-2.563c0-.708-.76-1.282-1.704-1.282H24.704c-.942 0-1.704.574-1.704 1.282v2.563c0 .707.762 1.281 1.704 1.281zm0 13.67H45.15c.944 0 1.704-.574 1.704-1.282v-2.563c0-.707-.76-1.281-1.704-1.281H24.704c-.942 0-1.704.574-1.704 1.281v2.563c0 .708.762 1.282 1.704 1.282zm0-6.835H45.15c.944 0 1.704-.574 1.704-1.281v-2.563c0-.708-.76-1.282-1.704-1.282H24.704c-.942 0-1.704.574-1.704 1.282v2.563c0 .707.762 1.281 1.704 1.281z"/>
    </g>
</svg>
