<svg xmlns="http://www.w3.org/2000/svg" width="100" height="100" viewBox="0 0 100 100">
    <g fill="none" fill-rule="evenodd">
        <circle cx="50" cy="50" r="50" fill="#A19062"/>
        <path fill="#FFF" d="M80.664 58.712c-.548-.052-1.537-.166-2.815-.32-4.63-.562-13.107-1.672-18.643-2.402l-1.18-.34-.234-.03-2.886-.849c-.323 5.759-.66 10.502-1.102 14.179l-.003.682 1.438.67 4.43 2.064c.154.071.282.292.288.492l.084 3.483.008.321c.005.201-.124.34-.287.313l-.018-.003c-.012.002-.023.006-.036.003l-7.252-1.216c-.524 1.437-1.163 2.189-1.956 2.232-.026.001-.051.009-.077.009-.01 0-.02-.003-.028-.004-.009.001-.019.004-.029.004-.83-.004-1.483-.773-2.01-2.263l-7.263 1.143c-.014.003-.025 0-.037-.003l-.019.003c-.162.027-.29-.115-.282-.316l.01-.32.121-3.483c.007-.199.137-.42.293-.49l4.45-2.018 1.445-.655.004-.682c-.404-3.68-.693-8.428-.958-14.19l-2.891.819-.237.029-1.183.327c-5.542.674-14.03 1.698-18.667 2.212-1.28.142-2.27.246-2.818.292-1.608.138-1.712-1.764-.526-2.416.178-.098 3.543-1.894 7.854-4.194V49.4c0-.944.768-1.709 1.716-1.709.947 0 1.716.765 1.716 1.709v.567c2.532-1.352 5.176-2.761 7.57-4.037v-2.786c0-.944.767-1.709 1.715-1.709.948 0 1.716.765 1.716 1.709v.956l3.611-1.926c-.13-10.983.725-19.41 3.89-20.91a2.485 2.485 0 0 1 .494-.18c.127-.033.261-.045.394-.057.009 0 .017-.003.026-.004.053-.007.104-.023.159-.022.01 0 .018.003.027.004.01-.001.02-.004.03-.004.063 0 .12.023.184.028.133.014.267.027.393.06.162.04.317.104.47.174.007.005.015.008.023.012 3.15 1.532 3.917 9.968 3.675 20.95l3.454 1.887v-.968c0-.944.769-1.709 1.716-1.709.948 0 1.716.765 1.716 1.709v2.843l7.57 4.136v-.723c0-.944.768-1.709 1.716-1.709.947 0 1.715.765 1.715 1.709v2.599c4.314 2.358 7.69 4.203 7.867 4.303 1.18.664 1.056 2.566-.551 2.411"/>
    </g>
</svg>
