<svg xmlns="http://www.w3.org/2000/svg" width="100" height="100" viewBox="0 0 100 100">
    <g fill="none" fill-rule="evenodd">
        <circle cx="50" cy="50" r="50" fill="#A19062"/>
        <g fill="#FFF">
            <path d="M79.013 71.339c-.816-.461-1.617-.965-2.467-1.363-4.56-2.108-9.1-4.268-13.73-6.237-1.711-.729-2.481-1.994-2.745-3.557-.192-1.107-.42-1.87-1.638-1.928-.403-2.51-.448-1.857.607-7.596 1.054-5.742 1.074-2.952 3.055-7.291 1.14-3.462 1.05-3.892-.374-3.433-.235-.254-.171-.832-.146-1.255.119-2.4.232-4.807.434-7.203.155-1.82-.456-3.298-1.678-4.628-.414-.452-1.457-1.678-1.457-1.678l-.377-3.483c-1.875 1.984-7.865 2.157-7.865 2.157s-5.41.522-7.803 1.197c-3.46.979-4.984 3.197-4.808 6.689.113 2.293.57 5.864.66 8.157.016.468-.53-.567-1.078-.169-.55.396.191 2.988 1.02 4.415 1.387 2.816 1.444 1.42 2.222 6.925 1.392 7.475 1.14 4.678.735 7.196-1.203.063-1.45.823-1.636 1.935-.259 1.57-1.032 2.816-2.735 3.563-5.26 2.313-10.44 4.795-15.628 7.254-1.65.786-2.815 1.972-2.542 3.994H50l-4.6-7.656-4.419-7.758 7.216 1.678 1.829.52 8.988-2.198-4.417 7.758L50 75h30.953c.226-1.674-.5-2.855-1.939-3.661"/>
            <path d="M48 63.996L50.5 75 53 63.996 50.5 62z"/>
        </g>
    </g>
</svg>
