<svg xmlns="http://www.w3.org/2000/svg" width="100" height="100" viewBox="0 0 100 100">
    <g fill="none" fill-rule="evenodd">
        <circle cx="50" cy="50" r="50" fill="#A19062"/>
        <g fill="#FFF">
            <path d="M74.677 30.692c-3.374 0-6.11 3.687-6.11 8.233 0 4.071 2.193 7.45 5.076 8.11l-1.312 22.573 4.71.047-1.313-22.62c2.874-.674 5.059-4.05 5.059-8.11 0-4.546-2.737-8.233-6.11-8.233M29.342 31.576l-.445 8.76h-1.113l-.44-8.76h-1.222l-.44 8.76h-1.164l-.442-8.76h-1.22l-.44 8.76h-1.182l-.446-8.76H19.57c-.521 4.195-2.182 13.467 4.444 15.024l-1.148 22.621 4.697-.047-1.466-22.569c6.645-1.53 4.82-10.677 4.464-15.03h-1.219zM49.79 38.06c-7.359 0-13.326 6.025-13.326 13.46 0 7.432 5.967 13.457 13.327 13.457 7.363 0 13.328-6.025 13.328-13.457 0-7.435-5.965-13.46-13.328-13.46"/>
            <path d="M49.79 66.85c-8.384 0-15.18-6.862-15.18-15.33 0-8.47 6.796-15.335 15.18-15.335 8.386 0 15.184 6.866 15.184 15.334 0 8.469-6.798 15.33-15.183 15.33m0-35.463c-11.008 0-19.934 9.013-19.934 20.133 0 11.117 8.926 20.132 19.934 20.132 11.01 0 19.934-9.015 19.934-20.132 0-11.12-8.923-20.133-19.934-20.133"/>
        </g>
    </g>
</svg>
