<svg xmlns="http://www.w3.org/2000/svg" width="100" height="100" viewBox="0 0 100 100">
    <g fill="none" fill-rule="evenodd">
        <circle cx="50" cy="50" r="50" fill="#A19062"/>
        <g fill="#FFF">
            <path d="M50.333 66.545c.08.002.163.009.242.012a17.421 17.421 0 0 1 1.069.066c.19.015.38.03.57.05.18.02.366.046.547.07.183.023.359.045.54.07.255.04.512.085.769.13.14.028.277.051.419.077.343.067.69.141 1.038.224.127.029.255.062.379.095.262.064.522.13.786.202.147.039.298.084.447.127.24.069.482.14.722.216.17.054.341.108.514.167.114.037.23.072.345.111a16 16 0 0 0 .191-.326l.231-.401c.126-.223.248-.447.37-.672l.192-.353a35.788 35.788 0 0 0 .564-1.107c.159-.32.309-.64.457-.961.05-.107.096-.216.145-.323.108-.244.215-.486.32-.73l.159-.38c.091-.225.181-.447.27-.672.056-.142.11-.28.164-.422.075-.199.149-.398.22-.597.06-.167.12-.332.177-.496a.173.173 0 0 1 .014-.042h-11.86v5.865zM61.971 37.902c-.067-.178-.134-.359-.203-.538-.062-.162-.13-.324-.193-.484-.07-.174-.143-.348-.216-.52l-.207-.472a21.89 21.89 0 0 0-.244-.544 25.177 25.177 0 0 0-.526-1.092c-.054-.11-.104-.217-.162-.325a30.458 30.458 0 0 0-.72-1.333c-.103-.186-.21-.372-.317-.559-.09-.155-.186-.312-.279-.467-.052-.088-.105-.173-.158-.26-.05.015-.102.025-.152.039a32.717 32.717 0 0 1-1.07.264c-.278.068-.558.13-.835.188a6.742 6.742 0 0 0-.197.037 33.76 33.76 0 0 1-3.898.555l-.193.017c-.235.019-.471.032-.704.046l-.424.021c-.202.009-.403.014-.607.019-.11.003-.222.008-.333.01v5.884h11.818l-.01-.028a48.987 48.987 0 0 0-.17-.458M50.333 59.176h12.338l.116-.392c.053-.19.107-.381.157-.572.052-.197.102-.396.15-.594.053-.216.107-.428.157-.644.041-.176.076-.353.113-.529.049-.23.099-.46.144-.69l.084-.487c.043-.242.088-.485.126-.724.005-.027.007-.051.01-.076.085-.566.152-1.13.21-1.691.02-.203.044-.404.061-.604.015-.203.026-.404.038-.604.012-.203.027-.407.036-.608.01-.21.014-.418.02-.628.003-.136.004-.275.006-.411H50.333v9.254zM64.032 47.63c-.012-.207-.027-.413-.041-.62-.016-.183-.03-.36-.047-.54a27.5 27.5 0 0 0-.067-.649c-.02-.172-.038-.34-.06-.511-.031-.241-.068-.481-.105-.72-.02-.146-.04-.29-.064-.434a36.541 36.541 0 0 0-.205-1.123c-.023-.12-.054-.237-.08-.357a28.854 28.854 0 0 0-.174-.785c-.036-.157-.08-.31-.117-.467a29.898 29.898 0 0 0-.316-1.156l-.115-.378H50.334v8.528h13.733l-.005-.23a60.57 60.57 0 0 0-.03-.558M57.749 27.132c.101.131.201.268.305.408.076.106.153.21.23.32a31.49 31.49 0 0 1 .566.799c.193.283.39.577.588.882l.29-.087c.274-.087.546-.176.815-.267l.495-.17c.31-.11.621-.228.93-.346l.288-.11a24.76 24.76 0 0 0-5.225-2.354c.228.282.468.597.718.925M55.452 26.688a18.82 18.82 0 0 0-.347-.412l-.072-.084-.278-.317c-.02-.024-.041-.044-.058-.066l-.224-.245-.014-.015a24.935 24.935 0 0 0-4.126-.48v5.92a31.815 31.815 0 0 0 5.167-.49l.036-.005c.337-.061.676-.13 1.016-.203l.136-.029c.326-.07.657-.148.983-.23.038-.01.074-.016.112-.026l.114-.032a39.944 39.944 0 0 0-2.438-3.28c-.004-.002-.004-.004-.007-.006M63.81 60.68l-.153.444-.114.334c-.104.292-.21.584-.323.874a8.26 8.26 0 0 1-.088.242 42.43 42.43 0 0 1-.948 2.258c-.03.06-.06.123-.088.184-.14.303-.283.607-.43.907-.054.108-.11.216-.163.324a63.93 63.93 0 0 1-.39.765l-.2.37a32.509 32.509 0 0 1-.608 1.096c-.04.068-.078.137-.116.206l.007.004-.005.006c.062.026.128.053.191.076l.312.127c.28.113.56.228.84.347.086.04.17.073.259.112.65.283 1.31.587 1.99.921a24.781 24.781 0 0 0 8.132-9.597H63.81zM57.294 69.284a29.76 29.76 0 0 0-1.117-.322c-.2-.056-.395-.105-.59-.153-.169-.043-.336-.085-.5-.122-.19-.044-.374-.081-.56-.121-.17-.034-.338-.073-.502-.103-.222-.043-.441-.078-.66-.113a24.276 24.276 0 0 0-.824-.12 27.218 27.218 0 0 0-.485-.061 18.598 18.598 0 0 0-.512-.046 17.062 17.062 0 0 0-.966-.064l-.244-.005v6.708a24.84 24.84 0 0 0 3.99-.447c.04-.046.08-.093.129-.144a.064.064 0 0 1 .015-.022c.055-.06.109-.124.167-.194l.324-.386v-.003a42.236 42.236 0 0 0 2.954-4.084c-.05-.017-.1-.034-.152-.05-.153-.051-.312-.099-.467-.148M62.22 71.203c-.322-.15-.64-.292-.953-.43a40.022 40.022 0 0 0-1.209-.51c-.136-.054-.272-.105-.406-.157l-.264-.1a21.633 21.633 0 0 1-.364.567c-.04.066-.083.127-.124.19-.078.12-.159.24-.236.355-.002.009-.009.017-.014.026a47.592 47.592 0 0 1-1.842 2.553 24.667 24.667 0 0 0 5.5-2.456l-.017-.006-.07-.032M63.793 29.562c-.233.1-.467.194-.702.29a33.58 33.58 0 0 1-1.224.47c-.07.027-.141.05-.214.077-.305.11-.612.213-.917.316-.098.03-.196.062-.291.093-.057.018-.112.038-.167.055l.006.01-.01.004c.031.052.06.104.092.155.053.094.106.187.162.282a39.057 39.057 0 0 1 .608 1.081c.128.232.25.466.373.7.057.11.115.222.169.333.141.275.277.55.408.829.031.064.064.13.093.194a37.127 37.127 0 0 1 1.397 3.377c.067.187.136.372.2.56h7.727a24.873 24.873 0 0 0-7.71-8.826M64.261 39.89h-.017l.031.108c.05.179.097.358.147.536.058.218.115.434.169.652.044.17.084.342.125.513.054.231.104.462.156.693.032.162.069.323.1.485.05.258.098.518.14.778.025.136.05.271.073.408.062.381.118.764.168 1.148.017.141.029.286.046.428a19.791 19.791 0 0 1 .124 1.316 24.23 24.23 0 0 1 .071 1.226c.003.079.01.158.014.237h8.677a24.633 24.633 0 0 0-2.062-8.528h-7.962zM65.62 50.694a33.24 33.24 0 0 1-.21 2.79l-.02.143a25.24 25.24 0 0 1-.156 1.134c-.012.084-.026.167-.04.251-.057.351-.117.7-.184 1.052-.018.079-.031.158-.049.237a41.616 41.616 0 0 1-.275 1.27 38.33 38.33 0 0 1-.31 1.22c-.004.015-.01.03-.013.045-.03.115-.059.228-.09.34H72.576a24.714 24.714 0 0 0 1.78-9.255h-8.714c-.003.257-.013.516-.022.773M39.09 44.812a32.457 32.457 0 0 1-1.88-.518c-1.088-.34-1.964-.72-2.61-1.13-.583-.356-.993-.775-1.216-1.224-.234-.474-.355-1.073-.355-1.777 0-1.58.666-2.796 2.04-3.724.99-.67 2.336-1.112 4.02-1.318v9.691zm0-15.862c-1.499.126-2.776.358-3.883.707-1.799.565-3.374 1.358-4.678 2.364a10.885 10.885 0 0 0-3.07 3.669c-.726 1.427-1.092 2.993-1.092 4.652 0 1.553.272 2.94.812 4.13.535 1.196 1.37 2.272 2.485 3.196 1.077.906 2.474 1.702 4.143 2.362 1.484.592 3.25 1.13 5.282 1.608v12.478c-.312-.054-.59-.113-.851-.181-1.235-.307-2.338-.793-3.28-1.446a7.909 7.909 0 0 1-2.301-2.452c-.599-.974-.962-2.155-1.093-3.512l-.064-.68H25l.02.773c.064 2.027.475 3.913 1.23 5.61a12.39 12.39 0 0 0 3.35 4.434c1.455 1.23 3.29 2.194 5.458 2.869 1.187.373 2.54.644 4.031.81v5.096h6.873v-50.75h-6.873v4.263z"/>
        </g>
    </g>
</svg>
