<svg xmlns="http://www.w3.org/2000/svg" width="100" height="100" viewBox="0 0 100 100">
    <g fill="none" fill-rule="evenodd">
        <circle cx="50" cy="50" r="50" fill="#A19062"/>
        <path fill="#FEFEFE" d="M30.098 73.886h5.198v-4.708l-5.198-.424zM30.098 57.207h5.198V52.5l-5.198-.424zM30.098 49.51h5.198V44.8l-5.198-.423zM30.098 66.188h5.198V61.48l-5.198-.424zM30.098 32.83h5.198v-4.708l-5.198-.424z"/>
        <path stroke="#FFF" d="M38.935 20L21 23.657v52.369l17.056 2.992 12.836-3.824V23.657z"/>
        <path fill="#FEFEFE" d="M24.899 32.83h3.899v-5.132l-3.899.778zM48.293 26.166l-9.098-2.317v51.32l9.098-2.483zM24.899 66.188h3.899v-5.132l-3.899.778zM24.899 73.886h3.899v-5.132l-3.899.778zM24.899 40.528h3.899v-5.132l-3.899.778zM24.899 57.207h3.899v-5.132l-3.899.778zM24.899 49.51h3.899v-5.133l-3.899.778zM30.098 40.528h5.198V35.82l-5.198-.424z"/>
        <g>
            <path fill="#FEFEFE" d="M62.138 75.186h4.598v-4.219l-4.598-.38zM62.138 61.39h4.598v-4.22l-4.598-.38zM62.138 54.491h4.598v-4.219l-4.598-.38zM62.138 69.054h4.598v-4.219l-4.598-.38zM62.138 40.695h4.598v-4.22l-4.598-.38z"/>
            <path stroke="#FFF" d="M69.19 29.964l-14.717 3.04v43.527l13.995 2.487L79 75.84V33.004z"/>
            <path fill="#FEFEFE" d="M57.539 40.695h3.066v-4.6l-3.066.698zM76.7 34.968l-7.664-1.938v42.922l7.665-2.076zM57.539 69.054h3.066v-4.599l-3.066.697zM57.539 75.186h3.066v-4.599l-3.066.697zM57.539 47.593h3.066v-4.599l-3.066.697zM57.539 61.39h3.066v-4.6l-3.066.697zM57.539 54.491h3.066v-4.599l-3.066.697zM62.138 47.593h4.598v-4.219l-4.598-.38z"/>
        </g>
    </g>
</svg>
