<svg xmlns="http://www.w3.org/2000/svg" width="30" height="30" viewBox="0 0 30 30">
    <g fill="#614A0B" fill-rule="evenodd">
        <path d="M18.323 14.829c.139-.1.248-.231.356-.356.088-.104.18-.21.288-.304-.12-.024-.243-.05-.366-.071-.09-.016-.177-.037-.266-.057l.009.09a.441.441 0 0 1-.04.313.41.41 0 0 1-.271.17c-.167.044-.467.21-.479.218l-.013.006.01.01c.004.004.302.32.772-.02zm4.505 5.264l-.012.005c-.16.061-1.484.516-2.321-1.095-.089-.162-.196-.638-.386-1.061a4.15 4.15 0 0 0 .15-.283c.58-.12 1.015-.39 1.098-.514-.325.107-.66.138-.931.138.157-.39.269-.805.33-1.237.754-.011 1.527-.098 1.948-.388.922-.635 1.133-1.351 1.082-2.129 0 0-.582 1.478-2.415.905-.133-.04-.396-.195-.7-.34a5.284 5.284 0 0 0-.188-.633 8.054 8.054 0 0 1 1.044-.296c-.357-.164-.811-.085-1.153.021-.01.002-.1-.212-.108-.23-.032-.07-.06-.139-.093-.209a.033.033 0 0 1-.007.008l.002.006c-.22.135-.569.192-1.114.035-.011-.002.513-.108.96-.339-.062-.09-.134-.177-.195-.271-.015-.025-.114-.207-.15-.19.604-.576 1.262-1.306 1.37-1.884.192-1.022-.132-1.627-.668-2.099 0 0 .574 1.345-.99 2.177-.18.102-.795.23-1.22.495a5.633 5.633 0 0 0-.481-.246c-.007-.266-.067-.856-.485-1.019 0 0 .22.378.166.89.004-.048-.63-.185-.692-.202l-.132-.03.023.077a.031.031 0 0 1 .009-.002l-.006.01c.044.14.089.275.127.405a.794.794 0 0 1-.275-.152 4.049 4.049 0 0 1-.102.153c-.436.411-.606.952-.497 1.293.108.339.038.625-.14.984.115-.68-.178-.92-.387-1.4-.21-.48.118-1.23.118-1.23-.004.138-.024.685.07 1.01.006-.182.056-.302.308-.614.127-.159.329-.275.494-.35a.884.884 0 0 1-.108-.24c-.062-.007-.124-.012-.188-.018.04-.946.011-2.132-.369-2.697-.427-.635-.893-.936-1.388-1.048l-.047-.008a2.37 2.37 0 0 0-.52-.044l-.05.002c-.035.001-.068.002-.1.006 0 0 .042.015.106.051l.056.033c.363.218 1.18.89.732 2.357-.075.262-.6 1.035-.6 1.636-.06.022-.12.043-.177.068l-.022-.583s-.211.22-.202.677a3.942 3.942 0 0 0-.098.049c-.143-.258-.356-.572-.575-.656.063.21.268.527.244.76.018.015.038.027.054.043.105.095.183.213.265.332.123.179.237.363.328.561-.024-.04-.08-.066-.115-.094a9.71 9.71 0 0 0-.3-.237c-.119-.093-.25-.17-.369-.262-.037-.03-.072-.06-.108-.087-.218.115-.542.283-.5.33-.638-.71-1.517-1.57-2.198-1.7-.985-.19-1.607.079-2.092.56 0 0-.131.128-.163.175.65-.202.915-.088.982-.078.066.011.804.095 1.359 1.162.08.156.184.59.358.996-.3-.008-.714.009-.908.145.013-.008.12.028.135.033.113.021.225.047.338.072.326.07.573.127.823.363.004.006-.117.272-.156.367.257.075.435.235.557.396a1.751 1.751 0 0 1-.232-1.034c.583.785.581 1.353 1.801 1.428 1.16.07 1.416-.028 2.132.557-.416-.005-1.346-.284-2.076.317.525-.041 1.794-.299 2.33-.053.067-.301.36-.919-.02-1.698-.06-.13-.13-.258-.2-.386a7.08 7.08 0 0 0-.337-.569c-.085-.129-.18-.25-.272-.374a3.85 3.85 0 0 1 .418.283c.116.095.225.197.324.309a1.792 1.792 0 0 1 .434.828 4.96 4.96 0 0 1 .076.482c.003.011.017.065.011.072.253-.296.68-.878.41-1.72.277.371.332.472.332.472.155-.3.032-.903-.313-1.316.215-.002.524-.009.883.532.382-.379.77-.647 1.207-.661-.369.28-1.066.804-.975 1.269-.363.104-.51.127-.771.676-.261.551-.854 1.353-1.195 2.252-.034.685.002 1.57-.016 2.098-.019.528-.255.902-.78.922-.522.021-1.075.865-1.142 1.362 0-.559.05-.87.226-1.17-.25.189-.608.42-.677 1.007-.026-.618.226-1.178.868-1.5.641-.32.88-.232.966-1.024.086-.791.042-1.173.042-1.173s-.188.1-.36.848c-.172.75-.625 1.291-1.269 1.092l-.471-.144c-.087-.026-.174-.052-.263-.077-.027-.008-.134-.017-.165-.05h-.004-.004a.138.138 0 0 0-.013.008l-.002.008c-.28.195-.779.583-.818.897.004-.025-.022-.074-.03-.1a2.057 2.057 0 0 1-.054-.26 1.77 1.77 0 0 1 .02-.752l-.002.001a2.67 2.67 0 0 0-.41-.038s.173-.08.472-.127c0-.003 0-.003.002-.003.124-.26.343-.438.612-.527.446-.151.95-.091 1.402-.003-.092.176-.14.33-.227.443a3.37 3.37 0 0 0-.096.039.696.696 0 0 0 .098-.027l-.006.008c.012-.01.024-.021.038-.029.077-.048.149-.103.214-.166.14-.136.246-.307.29-.502.137-.602.91-1.084 1.328-1.108-.14-.162-.492-.341-1.012.082-.518.422-1.212.847-1.701.182-.139-.2-.018-.334-.353-.434-.337-.1-.705-.095-.839-.971.472.341.575.432 1.224.495-.233-.18-.66-.418-.96-.827.093.16.129.29.129.29-.301-.325-.886-.453-.922-.46-.006.016-.012.03-.018.05-.004.017-.042.172-.05.172-.169.014-.468-.007-.971-.157 0 0 .46.373.903.431a6.14 6.14 0 0 0-.08.47c-.933-.143-1.696.154-1.942.425-1.07 1.058-2.2.83-2.2.83s.703.346 1.07.413c.368.068 1.216.071 1.935-.09.312-.07.805.156 1.265.436.029.113.055.228.088.34a2.344 2.344 0 0 1 .807-.21c.013-.001.143 0 .148-.01-.081.162-.25.272-.4.36a3.343 3.343 0 0 1-.415.193c.032.08.063.161.1.24.035.077.073.15.113.226.012.023.097.21.117.21l-.718.037s.486.262.904.264c0 .001 0 .002.003.004a5.077 5.077 0 0 0-.267.34c-.446.087-.942.132-.942.132.177.125.493.187.706.215-.285.458-.53 1.015-.55 1.569 0 .748-.115 1.761-.545 1.96.942-.474 1.43-.778 1.607-1.308.146-.436.506-1.21 1.488-1.437l.105.064c-.045.217-.083.53-.06.888.07-.2.166-.52.242-.78-.005.02.361.186.395.201.097.044.194.083.293.117.038-.088.081-.232.119-.371a3.386 3.386 0 0 1-.471-.023 1.18 1.18 0 0 0 .514-.149c.033-.133.054-.235.054-.235.027.053.048.11.069.167.829-.492 1.695-1.652 1.695-1.652-.167 1.21-.882 1.74-1.116 2.289-.05-.017-.14-.32-.01-.65a1.2 1.2 0 0 1-.513.23 2.3 2.3 0 0 1 .042.513 1.118 1.118 0 0 0 .231.078c.039.01.446.09.446.09-.004.82.073 1.691.383 2.152.628.931 1.337 1.144 2.105 1.092 0 0-1.461-.589-.893-2.442.045-.159.253-.502.412-.88.262-.062.517-.145.762-.247.455.212.548.604.665.961.181-.407-.122-.835-.365-1.094.098-.046.193-.108.292-.151l.006-.005a.823.823 0 0 1-.2-.312 1.453 1.453 0 0 1-.078-.414l.041.055c.142.184.287.37.443.542a.581.581 0 0 0 .065-.035l.352-.249c.583.602 1.275 1.202 1.832 1.308.498.096.904.074 1.246-.033l.085-.03c.366-.13.658-.365.913-.657l.006-.01zm-3.684-.891c.323-.3.608-.642.85-1.015.25 1.953 1.845 2.12 2.234 2.151-1.392.739-2.515-.369-3.084-1.136zm-.658-.022a7.686 7.686 0 0 0-.496-.022c-.105-.002-.21.002-.314-.009a.833.833 0 0 1-.123-.016 1.002 1.002 0 0 0-.074-.014c-.002.42-.115.804-.16 1.06.02-.394-.076-.801-.224-1.184a1.009 1.009 0 0 1-.2-.14c-.184-.155-.27-.376-.298-.611a1.872 1.872 0 0 1-.013-.236c-.288-.45-.549-.746-.549-.746.196.078.366.163.514.254-.014-.059-.046-.12-.072-.172-.101-.199-.268-.346-.435-.49-.188-.162-.372-.328-.51-.538-.39-.593-.014-1.216-.014-1.216.232-.02.55.281.875.59.325.308.502.42 1.201.405.701-.018 1.257.257 1.344.373-.72-.16-1.445-.051-1.567 0-.476.23-.951 0-1.226.068 1.341.637 1.795 1.487 1.994 1.974-.332-.507-.627-.658-1.045-.922.007.004-.006.12-.005.134 0 .05.002.1.008.15.003.038.002.073.002.111.184.225.287.465.337.703.091.018.198.018.278.028.123.017.246.04.368.067.168.04.337.093.491.17a.92.92 0 0 1 .23.161c.012.012.075.11.086.111a5.935 5.935 0 0 0-.403-.043zm-2.067 4.244c-1.344-.485-1.254-1.961-1.073-2.816l.037.003c.37.014.733-.013 1.083-.074-.898 1.478-.102 2.689-.047 2.887zm.637-8.877c.195-.021.626.072.814-.493l.04-.115c-.106-.027-.214-.05-.319-.082-.056-.018-.112-.033-.167-.056-.016-.009-.06-.02-.064-.039.002.006.239 0 .256 0 .117 0 .235.006.353.006.018-.047.035-.098.056-.143a1.025 1.025 0 0 1 .377-.466c.05-.038.108-.072.162-.105.037-.018.165-.06.183-.093-.078.148-.176.289-.252.438a1.66 1.66 0 0 0-.114.291.135.135 0 0 0-.006.054l.084-.008c.057-.006.11-.002.166-.013.06-.012.122-.015.184-.024.205-.03.408-.066.607-.128.23-.072.476-.176.63-.373-.11.177-.245.335-.391.48a3.617 3.617 0 0 1-.203.184c-.034.029-.128.08-.16.126.03-.008.06-.02.093-.03a1.66 1.66 0 0 1 .51-.05.8.8 0 0 1 .422.127c-.019-.012-.115.013-.14.015l-.23.018a3.245 3.245 0 0 0-.277.035c-.023.005-.046.012-.07.02.13.032.264.053.394.083.198.045.395.095.592.152.369.107.744.229 1.085.412l.074.04c.36-.025 1.515-.072 1.842-.52-.099.31-.337 1.302-2.495 1.164-.207-.006-.716-.083-.972-.189-.032-.013.768-.254 1.21-.204-.106-.013-.213-.052-.315-.076-.372-.083-.744-.16-1.11-.263a4.254 4.254 0 0 1-.504-.17c-.077-.032-.196-.073-.271-.138a.275.275 0 0 1-.04-.045.26.26 0 0 0-.081.092c-.232.438-.627.538-.218.834.408.298.399.572 1.53.616-.359.078-1.353.31-1.999-.413-.467-.052-.587-.02-1.072-.307-.207-.085-.859-.074-1.03-.18-.02-.012.063-.378.836-.464zm3.575-5.783c.184.516.816 1.893-1.348 2.738a5.207 5.207 0 0 0-.737-.617c.796-.246 2.16-.86 2.085-2.121zm-6.168 1.308c1.255-1.238.351-2.758.351-2.758 1.223.387 1.106 1.935.981 2.645a5.193 5.193 0 0 0-1.332.113zm.008 2.319c.052.237.112.47.178.704a34.442 34.442 0 0 0 .381 1.223c.004.016.01.033.016.05.002.01.006.039.014.045-.724-.635-1.774-.555-2.153-.538-1.167.094-1.525-.952-1.49-.918.657.632 1.173.542 1.765.534-.411-.14-.593-.501-.823-.882.676.672.923.553 1.22.612-.726-1.114-1.209-.915-1.527-.937-.32-.022-.458-.212-.458-.212s.102-.134.61-.252c.508-.12.874-.283 1.219.366.345.65.638 1.121 1.065 1.382-.325-.404-.57-1.422-.55-1.97.019-.55-.068-.836-.233-1.106.23.076.654.404.652 1.042 0 .062.002.125.008.186.019.225.058.45.106.67zm-5.176-2.317s1.567-.63 2.71 1.287a5.31 5.31 0 0 0-.781.91c-.123-.75-.538-1.936-1.929-2.197zm2.23 8.339s.588-1.018 1.612-.353c-.434.219-1.094.509-1.612.353zm-1.018 3.317s-.615-1.922 1.2-2.82c.214.232.45.444.701.637-.564.229-1.478.8-1.901 2.183zm.007-5.697s.797.488 2.212.216c-.71.338-1.689.587-2.212-.216zm-1.291-.38c-.36-.078-.718-.05-1.083.198-.32.215-.668.169-.748.154-.006.007-.011.01-.011.01L7.375 16s.006.003.017.005c.078-.072.608-.555 1.077-.864.35-.233 1.159-.417 1.848-.259a5.406 5.406 0 0 0 .044 1.208c-.32-.18-.73-.367-1.138-.437z"/>
        <path d="M27.047 16.751c-.268.096-.432.146-.597.056.036-.256.06-.513.08-.772l.58.119c-.015.2-.038.398-.063.597zm-.107.689c-.186-.06-.375-.122-.566-.182.007-.034.01-.067.017-.098.168.047.33-.046.428-.099.045-.024.119-.072.202-.116-.023.166-.051.33-.081.495zm-.057.295l-.56-.2.04-.212.566.18-.046.232zm-.194.793c-.177-.075-.36-.15-.546-.227.024-.084.047-.168.068-.252.036-.15.067-.3.1-.452l.558.2c-.053.244-.112.49-.18.731zm-.306.964l-.534-.25c.105-.29.196-.582.278-.877l.547.227c-.085.303-.184.603-.291.9zm-.584-.274l-1.104-.52.006-.012c.092-.267.174-.537.244-.81.167.068.339.14.513.213-.006.018-.008.037-.015.057l.109.03.01-.045.512.212c-.081.295-.173.587-.275.875zm-.049.126l-.46-.225.03-.065.458.215c-.008.025-.018.05-.028.075zm-.65 1.45c-.332-.224-.68-.461-1.014-.688.21-.403.39-.817.547-1.243.362.173.737.357 1.099.533-.181.478-.39.947-.631 1.399zm-1.06-.72c-.164-.11-.322-.22-.472-.32.19-.377.359-.765.502-1.164.163.08.335.163.513.247-.155.424-.337.837-.543 1.238zm-.565.97l-.441-.365c.184-.282.352-.576.507-.876.15.102.31.208.473.32-.165.315-.344.624-.54.922zm-.81 1.08l-.819-.836c.249-.297.479-.61.691-.937l.403.335a9.93 9.93 0 0 1-.502.699l.058.047c.178-.224.345-.459.504-.697l.441.365c-.237.358-.497.698-.775 1.024zm-.98 1.008c-.265-.346-.512-.666-.713-.93.267-.243.519-.503.754-.775l.804.852c-.265.3-.547.586-.845.853zM7.427 10.057c-.134-.066-.519-.254-1.021-.504l.145-.218c.158.125.368.208.558.282.346.132.456.166.456.166s.118-.084.02-.149c-.1-.064-.503-.206-.639-.287-.074-.042-.18-.101-.27-.187.139-.194.283-.382.436-.563.581.396.99.677 1.008.688.02-.021.031-.035.053-.061l-1.007-.69c.151-.18.31-.353.473-.521.148.12.283.233.403.331l-.06.06.106.107c.024-.024.048-.046.07-.07.244.203.405.335.415.343l.047-.045-.415-.344c.244-.244.5-.474.766-.688.208.219.347.365.353.373.011-.008.035-.028.05-.037l-.346-.382.155-.118c.185.218.325.385.34.404a.654.654 0 0 1 .052-.042 48.991 48.991 0 0 1-.338-.4c.08-.06.162-.12.246-.176l.325.41.05-.032-.327-.412c.036-.026.074-.05.11-.075.176.239.295.405.307.421.021-.013.032-.021.053-.036l-.306-.422c.136-.09.275-.174.416-.255.162.262.263.425.272.436l.06-.034-.271-.435c.1-.057.2-.114.303-.166l.246.448.058-.03c-.008-.011-.1-.181-.247-.447.087-.045.174-.09.262-.13.065-.031.13-.058.197-.088.053.115.204.426.224.47l.162-.067a51.525 51.525 0 0 0-.215-.477l.254-.104c.108.282.176.459.18.473.025-.01.037-.014.06-.025l-.18-.47c.157-.058.314-.114.474-.165.018.164.035.346.055.412.036.107.15.013.15.013s0-.11-.029-.466v-.011c.032-.008.065-.02.097-.028l.125.485.093-.027-.124-.489c.16-.042.323-.08.487-.114l.087.493c.026-.006.038-.01.062-.014l-.086-.491c.058-.012.116-.022.173-.031l.046.351.008.057.01.087.05-.01-.004-.043-.013-.092-.048-.36c.176-.03.352-.055.53-.078l.038.494.143-.013-.033-.496c.253-.025.508-.042.766-.046l-.026.494.065-.001c0-.022.012-.224.026-.49.137-.003.277-.003.417 0l.005-.15c-.138-.006-.276-.004-.415-.003.01-.168.02-.351.027-.532.137 0 .271 0 .407.005.027.001.053.004.079.006-.079.67-.136 1.142-.14 1.167h.03l.037.003c.001-.022.057-.495.137-1.167.111.006.222.013.333.022l-.207 1.16.062.004.208-1.16c.095.01.191.02.287.032-.139.659-.24 1.128-.243 1.152.025.004.036.004.06.007.003-.02.103-.49.244-1.151.242.03.481.07.72.118l-.338 1.143.101.022a.587.587 0 0 0 .018-.056l.048.009c.003-.018.176-.533.287-.867-.007-.002-.034-.01-.06-.02l.063-.204c.184.04.366.085.546.135l-.422 1.1.053.016.42-1.102c.05.015.1.028.15.04l-.465 1.089c.029.008.04.01.064.018l.461-1.086c.228.07.452.153.675.24l-.5 1.076.145.047c.008-.018.213-.45.507-1.064.189.076.373.159.558.25l.033-.07c-.186-.089-.37-.171-.558-.249l.249-.518c.21.088.419.183.625.286l-.625 1-.031-.015-.062.137a.133.133 0 0 1 .011.008l-.27.43c.02.011.032.018.05.026l.27-.43c.212.102.42.214.625.332l-.316.393.058.032.314-.392c.069.04.136.081.201.124-.01.024-.022.047-.033.07-.167.346-.213.457-.213.457s.072.131.148.035c.053-.068.16-.29.252-.464.185.122.365.248.542.382-.17.191-.32.355-.33.369.006.006.032.028.042.039.007-.006.146-.155.343-.366.071.054.139.112.209.17l-.387.336c.024.018.034.027.052.042l.385-.337c.086.071.171.145.256.22l-.392.333.046.043.392-.333c.042.037.085.074.128.114-.225.167-.393.293-.416.312l.048.045.415-.313c.143.136.28.28.414.424l-.452.29.03.031c.008-.006.184-.12.45-.29.08.087.159.174.236.265l.113-.098c-.07-.086-.147-.167-.221-.25l.443-.282c.11.122.22.245.323.374l-1.072.583.036.042c.017-.008.462-.25 1.07-.58.125.156.247.317.363.48-.621.311-1.055.53-1.082.544.02.026.027.038.041.059.017-.01.455-.229 1.082-.542.046.068.09.14.134.208-.624.24-1.136.436-1.16.444l.025.03 1.156-.443c.062.093.127.185.185.282l.018.031-1.177.4.03.042 1.173-.4c.1.173.197.347.29.523-.144.11-.322.136-.435.16-.154.03-.58.031-.695.059-.113.027-.027.146-.027.146s.113.004.48-.007c.268-.006.567-.02.779-.155l.081.17-1.193.319.047.097c.038-.01.67-.178 1.193-.314.097.214.187.432.27.65-.638.118-1.184.22-1.225.225l.025.063c.026-.007.578-.107 1.222-.224l.077.222-1.231.186.02.064 1.233-.189c.082.247.153.495.217.746l.071-.018a9.49 9.49 0 0 0-.213-.737c.18-.028.372-.059.568-.088.103.32.19.646.261.974l-1.173.079a8.993 8.993 0 0 0-.234-.822l-.141.048c.087.26.16.52.224.785l-.582.04.042.164c.02 0 .262-.015.579-.033.052.232.096.463.13.699l-.49-.014.009.058.487.014c.035.25.06.498.075.75a50.39 50.39 0 0 0-.597-.072l.004.066.596.073c.015.277.017.556.008.837l-.001.005c-.354-.072-.579-.117-.598-.122-.003.03-.003.06-.005.068.015.003.24.047.598.12a9.176 9.176 0 0 1-.042.594c-.06 0-.12.001-.178.003-.398.012-.52.022-.52.022s-.085.134.04.157c.004 0 .01 0 .016.002l-.005.032c.013.003.24.076.594.19-.006.043-.01.088-.017.13l-.595-.211c-.005.027-.005.04-.01.062.012.003.24.085.593.21-.033.197-.072.39-.117.58l-.587-.242-.016.064.587.243c-.035.145-.07.29-.112.433l.144.041c.04-.138.073-.277.106-.417l.49.202a9.664 9.664 0 0 1-.235.795c-.67-.318-1.175-.554-1.2-.566-.014.045-.035.11-.045.146l1.19.578c-.143.395-.309.78-.499 1.154-.62-.422-1.09-.74-1.113-.755l-.025.05c.019.01.488.331 1.113.754-.153.3-.32.59-.503.871l-.404-.335c.101-.158.2-.318.292-.485l-.132-.073a9.64 9.64 0 0 1-.276.462 89.866 89.866 0 0 1-.524-.434l-.035.056.38.316.007.005.136.112c-.208.321-.434.631-.679.924l-.395-.402-.12.12c.01.009.172.18.396.42a8.892 8.892 0 0 1-.742.766c-.254-.33-.42-.549-.431-.561l-.049.042c.011.013.177.227.431.561-.087.078-.173.157-.262.232l.095.116c.087-.073.174-.151.26-.229l3.215 4.196.049-.042-2.468-3.22c.3-.27.581-.557.849-.859l.38.404a11.07 11.07 0 0 1-.859.868l.075.085c.305-.273.589-.567.861-.872l.267.282a1.98 1.98 0 0 0 .066-.057s.042.046.107.113c-.252.284-.515.561-.792.819l.038.042c.277-.259.54-.536.793-.821l.412.43c-.253.284-.517.557-.792.816l.024.029c.277-.26.54-.533.794-.816.072.074.126.128.134.138a.295.295 0 0 0 .032-.028c-.01-.012-.066-.069-.137-.143.014-.017.027-.032.042-.047.072.075.13.132.14.144l.032-.03-.144-.146c.129-.147.254-.296.377-.447.39-.494.749-1.022 1.065-1.568l-.032-.018c-.316.543-.674 1.07-1.063 1.56-.122.15-.245.3-.374.445l-.415-.424c.035-.043.076-.08.11-.122l-.043-.039c-.034.041-.07.08-.107.121l-.385-.394c.318-.37.613-.761.883-1.17l-.094-.063c-.265.403-.555.788-.87 1.151-.127-.128-.258-.263-.388-.397.279-.327.54-.668.778-1.028l.064.053.04-.051a3.228 3.228 0 0 1-.068-.057c.195-.3.373-.61.54-.925.334.225.682.461 1.014.688-.046.084-.09.169-.138.252l.048.028c.047-.081.092-.165.136-.249.85.575 1.571 1.068 1.597 1.085a.556.556 0 0 0 .028-.05l-1.597-1.085c.24-.455.453-.923.634-1.406.93.452 1.726.838 1.756.85l.019-.05c-.038-.02-1.098-.534-1.755-.851l.028-.075c.16.077.346.163.534.252-.007.015-.012.033-.018.05l.037.011.014-.046c.571.27 1.163.548 1.198.564l.019-.053c-.02-.008-.524-.245-1.198-.563.109-.298.207-.598.294-.902l2.032.843.02-.062-2.037-.844c.067-.244.125-.488.178-.733.846.3 1.508.537 1.535.545l.014-.06-1.534-.547c.016-.077.032-.156.045-.233 1.124.362 2.075.665 2.11.677 0-.006.005-.034.013-.064-.03-.008-.983-.314-2.11-.677.032-.175.06-.352.084-.528.168-.08.365-.134.475.03.175.261.59.533.804.538a.693.693 0 0 0 .38-.122c.2-.126.312-.24.56-.193.278.055.513.205.721.396 0 0-.287-.857-.88-.595-.59.263-.827.523-1.049.193-.222-.332-.353-.654-.839-.485l-.145.053c.024-.192.045-.384.06-.577 1.392.283 2.64.535 2.682.543l.009-.064c-.035-.01-1.287-.262-2.685-.545.015-.178.024-.359.03-.54l-.036-.001c-.006.18-.016.357-.03.533-.193-.037-.387-.077-.583-.117.01-.145.02-.29.026-.437.008-.202.008-.406.006-.61.664.084 1.174.146 1.202.15l.009-.065-1.211-.15c-.007-.336-.03-.67-.064-1.002 1.02.028 1.9.05 1.931.052l-.004-.058-1.932-.053c-.08-.75-.225-1.487-.443-2.207l.586-.089c.022.076.047.154.067.232l.037-.01c-.02-.076-.045-.152-.067-.227.565-.087.97-.148.994-.153a.744.744 0 0 1-.011-.065c-.023.005-.432.067-1.002.153a12.979 12.979 0 0 0-.483-1.345c.326.023.426-.242.591-.518.188-.316.42-.09.978.123.557.209.781-.597.781-.597-.183.188-.391.34-.645.403-.227.06-.335-.042-.526-.148a.648.648 0 0 0-.357-.092c-.197.017-.567.289-.716.538-.042.077-.112.103-.186.105a12.668 12.668 0 0 0-.419-.856c.653-.222 1.136-.385 1.158-.394a.519.519 0 0 1-.024-.043L25.653 9c-.125-.23-.256-.462-.396-.685l-.031.02c.136.22.267.449.39.678l-1.148.39c-.07-.123-.142-.245-.216-.365.557-.214.996-.382 1.014-.39l-.02-.029c-.015.007-.453.173-1.014.388-.067-.11-.138-.217-.21-.325l3.509-1.76-.035-.061-3.514 1.761a13.026 13.026 0 0 0-.377-.526l2.381-1.295-.033-.045c-.028.017-1.212.66-2.381 1.296-.12-.157-.246-.311-.374-.461l1.143-.734a.503.503 0 0 0-.026-.033c-.016.01-.527.336-1.144.733-.005-.003-.008-.01-.011-.014l-.084.075c-.155.101-.314.202-.473.304a11.45 11.45 0 0 0-.475-.508c.12-.09.202-.152.217-.161l-.038-.054c-.015.01-.1.075-.224.169-.06-.06-.121-.118-.182-.174l.935-.795c.145.14.286.282.424.428l.04-.039a13.15 13.15 0 0 0-.42-.426 650.77 650.77 0 0 0 2.083-1.77s-.024-.026-.04-.046l-2.09 1.773c-.387-.373-.798-.72-1.231-1.034.078-.12.073-.273.072-.368 0-.067-.01-.188-.001-.31.213.15.426.303.633.465l.022-.03a13.613 13.613 0 0 0-.652-.478c.018-.15.072-.292.228-.31.293-.033.703-.269.803-.45a.696.696 0 0 0 .068-.379c-.016-.23-.061-.376.089-.567.168-.214.397-.35.65-.443 0 0-.842-.134-.886.488-.044.624.068.944-.307.989-.373.043-.7.01-.775.503a1.705 1.705 0 0 0-.01.072c-.044-.028-.086-.057-.131-.084.257-.322.432-.539.444-.556l-.05-.04-.448.56c-.311-.199-.629-.383-.955-.554.183-.294.31-.5.32-.513l-.039-.024c-.005.011-.132.213-.323.516-.268-.14-.542-.271-.823-.39l1.047-2.192-.06-.024-.277.58-.077-.037s.234-.505.269-.576l-.061-.024-1.019 2.196a14.009 14.009 0 0 0-1.048-.377l.558-1.462a.93.93 0 0 0-.05-.016c-.01.02-.251.654-.56 1.465a12.008 12.008 0 0 0-1.778-.4c.22-1.035.402-1.89.41-1.922l-.062-.008c-.004.027-.188.885-.409 1.924a8.39 8.39 0 0 0-.375-.048l.29-1.623-.062-.005-.29 1.622c-.16-.017-.322-.03-.484-.042.15-1.266.28-2.372.286-2.409-.027 0-.039-.002-.065-.004-.004.034-.134 1.14-.286 2.41-.1-.005-.198-.014-.297-.017l-.001.038c.098.004.196.01.293.017-.046.396-.094.807-.143 1.206-.064-.004-.128-.01-.193-.012l-.004.114c.063.002.123.008.185.011l-.066.555-.138-.008a13.24 13.24 0 0 0-.393-.007l.011-.223c-.026 0-.037-.001-.065-.003 0 .015-.004.1-.012.226-.31.004-.622.02-.933.05-.03-.443-.06-.883-.082-1.228a11.434 11.434 0 0 1 1.517-.044l.002-.059c-.511-.018-1.02 0-1.522.047l-.041-.593c-.038 0-.125.004-.125.004s-.048-.596-.052-.662l-.065.001c.001.028.046.57.101 1.268-.222.023-.443.055-.661.091-.148-1.142-.282-2.165-.285-2.197-.022.003-.031.007-.052.01l.288 2.197c-.099.018-.197.033-.296.052-.18-1.03-.34-1.924-.345-1.96l-.064.013.347 1.962a9.81 9.81 0 0 0-.68.162l-.112-.442-.064.016.115.443a9.89 9.89 0 0 0-.46.136c-.016-.135.036-.304.1-.56.11-.457-.206-.527-.539-.677-.333-.152-.11-.4.078-.962.189-.564-.648-.698-.648-.698.202.158.367.346.445.586.07.215-.027.33-.127.527a.62.62 0 0 0-.078.355c.028.19.324.52.587.638.262.12.026.515-.031.653-.06.14-.195.415.143.581.337.163.245.25.16.525-.083.274.077.69.337.801a.447.447 0 0 1 .114.07c-.157.05-.316.106-.47.165-.13-.332-.274-.714-.428-1.11.019-.008.037-.018.055-.023l-.037-.107-.058.023-.431-1.128c.076-.03.151-.06.229-.087l-.013-.037c-.079.029-.153.06-.23.09C9.836 2.01 9.44.974 9.427.941c-.029.01-.054.022-.06.023l.865 2.256c-.146.058-.29.116-.432.178l-.477-1.057h-.006l-.045.02c.009.02.212.465.48 1.06a3.377 3.377 0 0 0-.128.055c-.282-.588-.491-1.032-.502-1.05-.02.008-.027.01-.048.021L9.576 3.5a12.25 12.25 0 0 0-.632.308L7.786 1.699l-.05.03-.006.002c.016.033.547.996 1.156 2.106-.153.083-.304.166-.454.255-.776-1.254-1.488-2.399-1.51-2.433-.023.016-.048.03-.048.03s-.007.006-.01.006c.021.036.733 1.181 1.51 2.433-.303.18-.599.374-.887.58L6.407 3.34a.132.132 0 0 1-.01.008l-.037.027L7.44 4.74c-.316.23-.623.474-.92.736l.024.027c.299-.26.604-.504.92-.732l.746.946c-.19.136-.375.28-.558.429l-.515-.565-.055.045-.04.036.525.556c-.218.18-.434.367-.64.568l.078.082c.206-.2.42-.387.639-.568l.38.401c-.308.255-.603.525-.882.813-.308-.256-.632-.525-.94-.778.202-.214.41-.42.628-.619l-.038-.042c-.22.2-.429.41-.634.625L4.775 5.553l-.042.051 1.38 1.143c-.206.22-.405.447-.596.681-1.038-.707-2.43-1.658-2.467-1.686l-.01.013-.031.04 2.466 1.682c-.087.11-.17.222-.253.333-.13-.166-.34-.135-.458-.124-.149.016-.59.123-.65-.163-.062-.287-.323-.668-.505-.749a.647.647 0 0 0-.368-.03c-.215.036-.352.095-.55-.035-.219-.145-.368-.358-.48-.598 0 0-.05.841.547.826.598-.015.892-.155.968.21.078.363.078.685.554.713.408.024.61.008.745.216-.138.196-.271.396-.396.6L2.587 7.668l-.01.02-.044.098 2.043.98c-.118.193-.23.389-.337.587l-2.123-.797-.026.047c.033.012 1.021.383 2.123.799a9.85 9.85 0 0 0-.23.46l-2.795-.955c-.011.023-.014.035-.027.06.045.017 1.455.497 2.792.955l-.054.12-2.81-.902-.025.061 2.808.901c-.038.084-.078.166-.114.25l.052.022c.036-.086.077-.17.115-.254l1.16.37c-.116.251-.22.506-.317.762l-.539-.132c.076-.205.154-.407.242-.607l-.102-.045c-.09.205-.171.413-.249.624l-1.165-.285c.104-.291.215-.58.338-.863l-.033-.015c-.127.286-.238.577-.342.869-.38-.095-.634-.156-.647-.159l-.012.062v.002l.637.155c-.061.176-.118.354-.171.532l-2.267-.387-.017.064c.036.005 1.064.18 2.264.385-.046.154-.087.31-.127.466-1.09-.134-1.991-.244-2.024-.25-.004.028-.004.04-.007.067.031.004.93.115 2.014.246a13.04 13.04 0 0 0-.343 2.116c-.215-.153-.503-.265-.659-.245a.652.652 0 0 0-.338.167c-.168.148-.257.27-.496.261-.265-.01-.505-.118-.725-.266 0 0 .387.76.9.429.515-.33.699-.607.954-.33.12.134.222.266.343.346-.003.06-.009.124-.01.187-.007.174-.01.348-.008.52l-1.527.233.01.065c.028-.005.678-.105 1.518-.232.008.922.115 1.836.318 2.728l-.904.358a.665.665 0 0 1 .012.052l.905-.359c.032.14.067.28.104.42L.22 19.457l.02.065c.04-.018 1.142-.49 2.393-1.024.028.1.055.203.084.302.09.301.193.6.305.894l.034-.012a12.862 12.862 0 0 1-.304-.893c-.03-.101-.056-.203-.084-.305l.545-.233c.04.156.085.31.132.466l-.42.235c.007.018.008.031.013.045.011-.007.173-.1.42-.237.073.23.152.455.237.681l-1.403.846.02.052c.024-.014.642-.389 1.401-.846v.002l.054-.021a.044.044 0 0 0-.005-.01l.484-.291c.02.053.035.106.056.16.058.15.122.294.186.44-.503.353-.894.631-.907.64a.6.6 0 0 1 .017.041c.017-.014.407-.289.906-.643.05.111.103.22.155.33a.68.68 0 0 1-.268-.024c-.403-.1-.509.227-.569.384-.06.156-.18.65-.486.567-.306-.084-.806-.015-.976.125a.726.726 0 0 0-.215.351c-.073.233-.085.398-.31.528-.25.147-.531.188-.819.18 0 0 .787.472 1.073-.13.286-.603.3-.966.688-.86.391.107.701.27.97-.191.266-.46.336-.672.736-.633a.778.778 0 0 0 .304-.036c.04.078.083.155.127.233-.975.725-1.908 1.42-1.933 1.437l.031.046 1.927-1.434c.147.263.3.526.466.78l-1.431 1.263c.021.024.076.08.076.08s-.121.11-.212.19l.076.08 1.143-1.047c.42.61.897 1.183 1.42 1.703l.039-.04a12.246 12.246 0 0 1-1.418-1.7l.413-.378c.455.666.975 1.288 1.558 1.844l.075-.083c-.161-.156-.32-.317-.472-.481.066-.083.192-.242.353-.44.208.227.422.45.649.658l.037-.043c-.227-.21-.442-.433-.652-.66.226-.28.5-.624.74-.921.196.22.402.435.617.636l-2.712 3.888.048.038c.035-.052 1.813-2.599 2.708-3.884.109.098.216.199.327.293l.096-.116a9.674 9.674 0 0 1-.336-.303l.42-.603a2.62 2.62 0 0 1-.043-.04c-.014.016-.175.25-.422.602a8.91 8.91 0 0 1-.607-.631l.452-.566c-.015-.018-.024-.027-.042-.05l-.453.565a9.345 9.345 0 0 1-.582-.731c-.084-.12-.162-.24-.24-.362.294-.272.491-.451.501-.461a17.78 17.78 0 0 0-.073-.112c-.02.02-.233.207-.507.45-.13-.21-.25-.427-.363-.646l.564-.42a1.681 1.681 0 0 0-.027-.048c-.013.012-.233.173-.562.42l-.004-.01c.108-.082.21-.173.306-.262.301-.279.39-.37.39-.37s-.022-.16-.134-.094c-.077.045-.258.212-.412.345l-.248.186c-.062-.13-.124-.262-.18-.397l-.137.06a7.7 7.7 0 0 0 .19.415.649.649 0 0 1-.5.073c-.014-.004-.029-.004-.043-.007a11.793 11.793 0 0 1-.15-.34c.61-.43 1.123-.794 1.138-.805l-.015-.04-1.14.806a11.282 11.282 0 0 1-.193-.511l1.179-.712c-.006-.02-.01-.03-.016-.054-.024.016-.527.318-1.18.711a10.12 10.12 0 0 1-.127-.388 9.115 9.115 0 0 1-.067-.245l1.205-.677-.007-.045c-.024.011-.566.316-1.21.678a13.005 13.005 0 0 1-.065-.257c.713-.305 1.221-.522 1.24-.532l-.014-.066c-.029.014-.535.23-1.24.53a6.515 6.515 0 0 1-.077-.355l1.256-.498c-.004-.018-.005-.028-.008-.051-.027.01-.562.22-1.257.497a10.339 10.339 0 0 1-.144-1.073l.513-.138c.018.267.045.532.086.794l.147-.024a9.238 9.238 0 0 1-.087-.809c.313-.084.6-.16.628-.17 0-.03-.004-.063-.007-.106-.031.01-.297.08-.628.167a9.433 9.433 0 0 1-.011-.632l.627-.116v-.066c-.024.003-.27.05-.626.115v-.168c0-.01.003-.021.003-.032l.628-.096a1.15 1.15 0 0 0 .003-.066c-.02.002-.26.04-.628.096l.009-.139c.198.022.416-.014.617-.051.369-.067.482-.097.482-.097s.06-.135-.06-.14c-.117-.004-.545.086-.704.088-.085.002-.201.008-.32-.017.007-.106.017-.213.029-.317l.624-.042c.005-.04.012-.105.02-.159-.027.003-.275.016-.622.037.04-.3.093-.595.16-.89.293.018.577.033.61.035.004-.024.008-.036.015-.065l-.61-.033c.04-.166.084-.331.133-.495.356.043.582.072.596.072.006-.023.01-.034.02-.062l-.596-.073c.032-.106.065-.212.1-.315l.588.1c.006-.023.011-.035.02-.062l-.585-.1c.026-.074.051-.15.08-.222l-.14-.054c-.032.082-.06.166-.088.25L4.66 11.72c.042-.133.092-.263.14-.392l1.862.456a.988.988 0 0 1 .015-.062c-.03-.009-.897-.22-1.856-.457a12.3 12.3 0 0 1 .317-.755l.548.175-.005.012.067.033.01-.022c.687.22 1.177.378 1.195.385l.092-.185c-.026-.009-.507-.174-1.184-.403.07-.138.14-.271.215-.403.666.25 1.154.43 1.172.44.01-.017.016-.027.03-.047l-1.176-.441c.032-.053.06-.106.091-.16.51.225 1.101.485 1.137.502l.035-.056-1.138-.502c.044-.072.09-.143.135-.215l1.015.486-.111.12.161-.17zM23.855 16.3l-.02.145c-.2-.066-.357-.115-.46-.15.143.003.337 0 .48.005zM6.34 9.519c-.162-.077-.335-.163-.514-.25.121-.19.248-.375.38-.555.046.05.083.123.1.232.02.141.09.252.188.343a8.832 8.832 0 0 0-.154.23zm-.184.287c-.208-.093-.396-.175-.521-.23.046-.079.094-.157.142-.234l.519.248a5.87 5.87 0 0 0-.14.216zm-.124.22l-.54-.202.109-.192c.124.055.312.139.524.231l-.093.164zm-.241.453c-.172-.06-.354-.12-.545-.185.053-.106.103-.21.157-.314.02-.037.042-.072.062-.108l.54.202a9.393 9.393 0 0 0-.214.405zm.549.257l-.026.08-.527-.168.045-.087.508.175zm-.625-.112l-.547-.174c.015-.033.033-.066.05-.098.2.07.385.132.542.186-.014.029-.031.058-.045.086zm-.6-.191l-1.163-.373.055-.121 1.156.395c-.015.032-.034.066-.048.099zM4.266 9.42c.382.144.776.29 1.146.43-.018.034-.039.068-.058.101-.056.107-.108.215-.161.324-.37-.126-.765-.262-1.158-.398.073-.154.152-.305.231-.457zm.361-.63l1.099.525c-.047.08-.096.158-.143.237l-.1-.044a1.15 1.15 0 0 0-.025.06l.093.042c-.038.063-.074.128-.112.194-.37-.142-.765-.29-1.146-.43.105-.2.216-.393.334-.585zm.43-.66l.032.07c.054.151.288.504.75.419.074-.013.217-.03.328.054-.137.185-.268.375-.392.57-.351-.176-.728-.361-1.096-.543.12-.193.245-.384.377-.57zm.465-.62c.344.233.69.47 1.01.69-.085.104-.169.208-.25.314-.146-.125-.33-.212-.491-.212-.29 0-.395.063-.485-.31a.53.53 0 0 0-.052-.133c.087-.118.175-.235.268-.35zm.634-.726c.308.252.632.521.94.777-.181.188-.354.386-.52.588l-1.013-.69c.19-.233.39-.458.593-.675zm.892 1.768c-.147.179-.289.362-.424.551a.532.532 0 0 1-.115-.244.608.608 0 0 0-.186-.307c.084-.11.17-.215.256-.32l.47.32zm.091-.955l.444.365c-.167.17-.326.347-.48.527l-.456-.314-.01.017-.016-.01c.166-.202.338-.398.518-.585zm.925-.853l.805.853c-.271.217-.532.451-.78.701l-.404-.335c.135-.137.275-.272.42-.402l-.05-.056c-.148.133-.29.27-.427.41l-.442-.365c.278-.285.57-.555.878-.806zm1.022.684c-.052.04-.108.078-.16.121-.226-.25-.51-.562-.787-.865.063-.051.127-.1.19-.149.193.226.501.59.757.893zM7.728 6.231c.18-.147.364-.29.552-.424L9.39 7.21c-.086.058-.17.12-.253.18l-.756-.895c.036-.028.074-.059.112-.087l-.032-.046c-.04.03-.077.062-.116.09l-.149-.174-.048.043c.01.013.063.077.146.172-.066.05-.129.099-.193.15-.129-.144-.257-.283-.373-.412zM7.51 4.74c.288-.206.58-.4.883-.579l.638 1.025c-.184.11-.364.223-.54.343-.197-.269-.335-.46-.349-.477a.847.847 0 0 1-.051.039c.011.019.15.207.346.474-.06.04-.12.077-.18.12-.252-.32-.508-.645-.747-.945zm1.394-.87l.583 1.063c-.134.07-.266.142-.397.219-.208-.337-.426-.684-.637-1.028.148-.088.3-.17.451-.253zm.688-.336l.52 1.09a11.29 11.29 0 0 0-.567.277L8.96 3.84c.209-.11.419-.21.63-.307zm.177-.078c.151.336.323.72.495 1.098-.035.015-.069.033-.103.048l-.52-1.09c.043-.02.084-.037.128-.056zm.476-.198l.434 1.128c-.123.047-.245.097-.366.148l-.496-1.1c.14-.062.284-.12.428-.176zm-.036 1.447l.101-.048.74 1.636c-.023.01-.046.021-.07.03-.163-.345-.46-.97-.771-1.618zm-.61.295c.184-.096.372-.187.562-.273l.772 1.617c-.067.031-.136.057-.203.088-.092.044-.18.09-.27.135-.22-.399-.53-.96-.86-1.567zm-.45.247c.129-.074.261-.145.393-.216.332.604.64 1.168.86 1.566-.105.055-.208.11-.31.17l-.943-1.52zm.404 1.852c-.04.026-.077.052-.117.08-.285-.367-.69-.876-1.108-1.405.056-.042.116-.079.174-.119.313.432.742 1.018 1.051 1.444zm-.997-1.48c.174-.117.352-.228.534-.335.366.589.704 1.133.941 1.518a8.3 8.3 0 0 0-.426.26c-.308-.425-.735-1.012-1.05-1.443zm2.593.893a.6.6 0 0 0-.064.029c-.01-.02-.022-.049-.04-.081l.067-.03.037.082zm-.003-.91c-.007 0-.013.005-.02.006l.028.07.02-.006c.068.182.132.348.187.492a16.25 16.25 0 0 0-.261.108l-.74-1.634c.12-.051.24-.1.36-.146l.426 1.11zm.595-.129c.108.126.143.287.17.39a.984.984 0 0 1 .02.105c-.171.053-.34.111-.509.175l-.188-.493c.167-.065.336-.123.507-.177zm-.218-.816a.6.6 0 0 0-.19-.8c-.107-.073-.164-.145-.187-.226.152-.05.308-.096.463-.138.028.106.047.187.047.187l-.043.012c.01.043.225.867.419 1.614-.035.01-.069.022-.103.03a.521.521 0 0 0-.223-.167c-.356-.136-.235-.406-.183-.512zm.823-1.342l.216 1.212c-.191.04-.383.082-.572.133l.014.054c.19-.05.378-.092.569-.132.033.198.067.389.1.567-.183.04-.362.083-.542.13l-.46-1.804c.224-.059.45-.113.675-.16zm.356-.066l.158 1.22-.234.044c-.07-.394-.146-.812-.215-1.212.095-.019.194-.034.291-.052zm.708-.101l.097 1.227c-.2.021-.399.052-.597.086-.05-.395-.105-.813-.158-1.22.218-.037.436-.07.658-.093zm.148 1.859c-.19.021-.378.049-.565.082-.024-.18-.05-.373-.075-.573.197-.033.395-.062.594-.086l.046.577zm-.81.206c.069-.013.136-.028.203-.04.027.193.05.37.07.527l-.18.03-.092-.517zm-.113-.644c.078-.015.154-.031.233-.043l.075.573c-.07.011-.14.026-.206.039-.033-.18-.068-.37-.102-.569zm-.451 1.322l-.072.021c-.02-.181-.053-.365-.138-.509l.077-.024.133.512zm-.034-.537c.177-.05.356-.091.536-.129l.091.518a7.82 7.82 0 0 0-.497.119l-.13-.508zm1.457.26a8.38 8.38 0 0 0-.537.077l-.068-.527c.186-.032.374-.06.562-.083l.043.533zm.962-.595c-.009.18-.02.363-.03.532a9.256 9.256 0 0 0-.782.045l-.036-.529c.28-.027.564-.044.848-.048zm.033-.653c-.007.155-.018.36-.03.577-.287.004-.573.02-.857.05l-.039-.578c.308-.03.617-.046.926-.05zm.066-.001c.131 0 .263 0 .394.007l.133.008-.068.573c-.028 0-.056-.004-.085-.005-.135-.005-.27-.005-.405-.005l.031-.578zm.592.02c.123.006.247.011.37.023l-.102.57c-.112-.009-.224-.014-.336-.02.02-.18.043-.372.068-.574zm.071-.612c.136.006.272.016.406.028-.033.187-.065.372-.098.55-.124-.011-.248-.017-.372-.024.02-.18.04-.365.064-.554zm.157-1.323c.161.013.324.024.483.043l-.213 1.197a7.66 7.66 0 0 0-.413-.03c.047-.4.097-.81.143-1.21zm.545.049c.125.014.25.03.374.048-.083.384-.168.79-.252 1.188-.112-.016-.223-.027-.336-.039.073-.407.145-.817.214-1.197zm.434.055c.6.088 1.192.222 1.772.396-.137.358-.286.746-.432 1.134a11.038 11.038 0 0 0-.627-.163l.261-.833c-.014-.002-.03-.008-.034-.009a226.9 226.9 0 0 0-.26.835l-.078-.018c.135-.459.243-.824.249-.84l-.032-.009c-.006.013-.11.37-.25.843-.272-.059-.544-.11-.821-.149l.252-1.187zm1.823.41c.147.045.292.093.435.144.207.071.41.15.611.233l-.508 1.099c-.32-.129-.642-.244-.972-.343.15-.386.3-.774.434-1.133zm-.437 1.835l.106-.25-.058-.025-.11.256-.174-.05.2-.527c.326.098.646.212.964.34l-.235.505c-.229-.09-.46-.175-.693-.25zm-.023.052c.233.074.464.158.691.248-.084.185-.167.36-.243.526a9.26 9.26 0 0 0-.675-.24l.227-.534zm-.233-.07l.171.052c-.063.148-.144.335-.226.532-.051-.016-.103-.028-.153-.042l.208-.541zm-.636-.162c.197.042.391.093.584.148l-.208.541c-.181-.05-.364-.097-.549-.138l.173-.55zm-.261.533l.164-.557.064.016-.173.553-.055-.012zm-.02.073l.053.011-.064.203-.03-.012c-.03.093-.078.251-.127.408L16.5 5.83l.18-.606zm-.618-.766c.259.034.516.075.769.128l-.164.558c-.24-.05-.481-.089-.726-.121.04-.177.078-.367.121-.565zm-.06-.008c-.042.198-.084.388-.12.567a5.397 5.397 0 0 0-.292-.033l.101-.57c.104.01.208.023.31.036zm.011-.056a14.79 14.79 0 0 0-.311-.037l.098-.55c.11.012.22.023.33.038l-.117.55zm.835.139a9.93 9.93 0 0 0-.774-.131l.117-.55c.274.037.544.088.813.146l-.156.535zm.297-.504c.208.047.416.1.62.16-.067.178-.134.354-.2.523a9.572 9.572 0 0 0-.586-.148c.058-.185.115-.365.166-.535zm-.199.526l-.066-.014.157-.535c.025.003.05.01.076.015l-.167.534zm2.57-1.138c.277.117.552.246.82.387l-1 1.598c-.208-.103-.42-.2-.633-.288l.244-.507c.158.067.318.139.475.214l.047-.103a9.85 9.85 0 0 0-.474-.212c.17-.36.349-.733.521-1.09zm.86.408c.324.17.64.354.95.552l-.372.465c-.233-.146-.47-.288-.713-.418l-.026.05c.24.128.474.267.702.413l-.771.963a10.005 10.005 0 0 0-.625-.357c-.047-.026-.098-.047-.144-.07l.999-1.598zm1.004.587c.052.032.1.065.15.098-.043.293-.066.472-.193.585-.109-.073-.218-.148-.328-.218.136-.168.261-.326.371-.465zm.185.916c.43.313.839.657 1.226 1.028l-.936.794c-.203-.189-.41-.373-.627-.545l.654-.7-.077-.081c-.015.015-.367.408-.652.723-.116-.09-.232-.178-.351-.264a.783.783 0 0 0 .149-.36c.029-.3-.025-.417.36-.473a.41.41 0 0 0 .254-.122zm-1.78 1.694c.095-.134.244-.38.533-.407.16-.015.327-.135.449-.287.118.085.233.172.349.261l-.316.352s-.24.265-.47.522a10.309 10.309 0 0 0-.572-.4.446.446 0 0 1 .028-.04zm.842-1.079a.658.658 0 0 1-.018.207 10.86 10.86 0 0 0-.407-.266l.771-.962c.105.067.21.136.312.207a.633.633 0 0 1-.163.074.695.695 0 0 0-.495.74zm-.461-.014c.144.089.285.18.423.275-.046.097-.141.18-.336.191-.312.018-.502.282-.652.566a8.335 8.335 0 0 0-.177-.108l.742-.924zm-1.205.158s.16-.259.386-.616c.048.024.1.045.149.072.21.11.413.23.614.352-.276.343-.537.67-.74.926a9.43 9.43 0 0 0-.64-.344c.12-.191.23-.362.242-.384l-.01-.006zm2.133 1.17c-.028.027-.259.227-.488.429-.074-.06-.146-.121-.221-.179.239-.254.536-.573.804-.86.215.17.422.353.623.54-.345.294-.658.557-.9.764-.085-.075-.169-.15-.256-.223.228-.199.452-.395.48-.421l-.042-.05zm.943.143l-.464.352c-.031-.03-.06-.064-.091-.094l-.05.055c.027.028.052.058.08.084l-.42.317c-.043-.042-.09-.08-.134-.12l.9-.764c.06.055.12.114.18.17zm-.033.908c-.16.1-.31.198-.445.283a10.248 10.248 0 0 0-.419-.432l.419-.315c.152.15.301.304.445.464zm.08-.86c.161.162.32.331.471.504l-.488.314a10.011 10.011 0 0 0-.448-.467l.464-.35zm.615.668l.042-.037c-.036-.043-.074-.083-.111-.125l.472-.302c.128.148.25.3.37.453-.368.202-.73.398-1.051.572-.104-.129-.216-.254-.327-.379.157-.101.323-.206.489-.314.038.044.078.086.116.132zm1.182.558l-1.063.533a9.069 9.069 0 0 0-.363-.484l1.05-.572c.13.17.256.345.376.523zm.246.374L23 9.48c-.047-.072-.092-.144-.14-.214.317-.16.681-.342 1.062-.532.069.103.139.208.206.314zm.234.393l-1.14.387c-.009-.016-.017-.032-.027-.046-.055-.093-.117-.18-.175-.271l1.126-.432c.075.119.147.24.216.362zm.325.618c-.061-.014-.135-.049-.233-.084-.273-.094-.713.04-.856.289a.483.483 0 0 1-.076.101 8.463 8.463 0 0 0-.274-.493c.35-.121.743-.254 1.139-.389.106.189.206.381.3.576zm.955-1.003c.148.277.286.558.414.846-.164-.013-.352-.128-.439-.17-.136-.063-.404-.207-.607.114-.08.123-.14.185-.2.208-.1-.205-.204-.41-.315-.607l1.147-.391zm.491 1.024c.188.442.352.895.49 1.357l-.587.09a12.427 12.427 0 0 0-.09-.28l.103-.018a1.116 1.116 0 0 1-.01-.064c-.009 0-.05.007-.114.02-.083-.247-.173-.491-.272-.732l-.051.02c.097.24.184.48.267.72-.127.025-.32.06-.548.103a11.53 11.53 0 0 0-.403-1.011.714.714 0 0 0 .228-.171c.238-.281.413-.186.873-.057.04.012.078.017.114.023zm-1.447 1.4c.19-.037.375-.071.546-.102.023.073.051.143.076.216l.106-.035-.072-.201c.23-.041.42-.078.548-.1.03.091.06.185.088.277-.39.059-.81.123-1.212.186a7.493 7.493 0 0 0-.08-.242zm-.055.008c.028.08.052.16.08.24l-.57.088a5.958 5.958 0 0 0-.08-.224c.187-.034.381-.068.57-.104zm-.264-.84l-.623.164-.115-.24a.536.536 0 0 0 .134-.162c.175-.338.44-.208.543-.152a.636.636 0 0 0 .506.068c.148.322.28.653.399.99l-1.17.214a10.64 10.64 0 0 0-.271-.658c.32-.084.584-.155.614-.16l-.017-.064zm2.074 3.148l-1.222-.034a10.377 10.377 0 0 0-.129-.814l.335-.018a13.544 13.544 0 0 1-.006-.128l.742-.052-.004-.064c-.031.002-.524.037-1.107.075-.073-.329-.16-.655-.263-.978l1.213-.184c.216.717.362 1.452.441 2.197zm.07 1.057c-.38-.048-.806-.099-1.218-.15a10.6 10.6 0 0 0-.066-.882c.399.01.819.023 1.22.034.034.33.058.662.064.998zm-.223 1.826a.763.763 0 0 0-.408-.219c.021-.181.039-.363.051-.545l.544.11c-.019.25-.044.502-.078.75a.728.728 0 0 1-.109-.096zm-.496.391c.018-.105.036-.207.051-.312.097-.013.18.036.313.22.058.082.12.134.181.163a1.003 1.003 0 0 1-.015.099l-.53-.17zm-.046.259l.035-.194c.176.056.354.113.53.171-.013.07-.025.14-.04.212-.173-.063-.35-.125-.525-.19zm-.011.063c.174.063.35.124.524.186-.032.152-.064.306-.102.457-.02.081-.043.163-.065.243l-.512-.21c.058-.225.11-.45.155-.676zm-.628-.224l.521.185c-.045.226-.096.45-.154.669-.174-.07-.344-.141-.511-.211.054-.213.103-.428.144-.643zm-.727.4c.049-.201.093-.406.132-.614.172.064.353.127.542.194-.042.216-.09.43-.143.64-.185-.075-.364-.15-.53-.22zm-.017.067l.531.218c-.07.274-.152.546-.245.814l-.002.008-.52-.245c.09-.262.17-.526.236-.795zm-.422-.884l.499.18c-.037.204-.081.407-.13.609a82.97 82.97 0 0 1-.49-.202 8.69 8.69 0 0 0 .121-.587zm1.287-1.045l-.562-.114c0-.043.006-.085.007-.128l-.074-.002-.006.115c-.19-.038-.362-.074-.517-.104v-.03c.01-.276.009-.55-.005-.824l1.169.144c.007.24.01.48 0 .723-.002.072-.008.147-.012.22zm.142.869c-.04.023-.103.061-.178.08.04-.289.07-.58.089-.872l.54.11c-.013.186-.03.371-.052.559a.697.697 0 0 0-.399.123zm-.06.34a.63.63 0 0 0 .238-.046c.07-.028.129-.058.179-.079-.013.083-.03.164-.041.247-.128-.042-.253-.081-.377-.123zm-.161.017l.524.17-.033.19c-.176-.064-.35-.124-.52-.186.01-.058.017-.116.029-.174zm-.374-.491a.568.568 0 0 0-.161-.172c.022-.203.037-.406.049-.611l.561.114c-.018.299-.046.596-.089.891-.115.011-.247-.03-.36-.222zm-.217.233l.016-.105c.012.014.023.026.033.042.027.042.065.08.106.114-.053-.017-.104-.035-.155-.05zm-.011.064c.173.057.356.116.547.176l-.028.174c-.19-.067-.371-.134-.544-.195l.025-.155zm-.516-.633c.018-.188.03-.377.04-.566l.518.103c-.01.195-.025.388-.045.58a1.198 1.198 0 0 0-.513-.117zm.444.613c-.006.049-.016.1-.025.15l-.498-.178.02-.135c.15.049.322.102.503.163zm-.494-.23l.023-.178c.14.02.347.046.503.188-.006.052-.012.103-.02.154-.184-.06-.355-.114-.506-.164zm.006-2.76a8.9 8.9 0 0 0-.13-.71c.39-.021.856-.049 1.178-.066.053.268.095.538.127.81l-1.175-.033zm1.184.092c.034.29.056.582.066.876-.427-.052-.838-.104-1.169-.143a9.875 9.875 0 0 0-.074-.766c.32.01.732.02 1.177.033zm1.334 1.71c-.004.143-.015.286-.026.428l-.544-.11c.007-.112.018-.225.022-.336l-.111-.005c-.004.107-.014.212-.021.319l-.542-.109c.004-.077.01-.153.013-.229.009-.242.006-.48 0-.719.411.051.837.102 1.215.15.003.202.002.407-.006.611zm-2.92 7.591l.404.412-.042.047-.405-.421.043-.038zM4.604 11.708l-.545-.092c.046-.146.095-.291.147-.435.181.043.36.087.539.132-.048.131-.097.263-.141.395zm1.198.272a7.62 7.62 0 0 0-.102.321l-1.172-.144c.035-.125.072-.25.113-.374.44.073.84.142 1.16.197zm-.255.889c-.256-.015-.487-.026-.52-.029l-.002.066.507.028a9.75 9.75 0 0 0-.16.905c-.355.02-.783.045-1.18.066.062-.572.167-1.135.317-1.685l1.171.145a8.422 8.422 0 0 0-.133.504zm-.755 2.938a10.316 10.316 0 0 1-.026-.684l.525-.095c-.003.215 0 .429.013.644l-.512.135zm.08 1.214c-.543.212-1.172.463-1.734.685-.16-.733-.252-1.479-.275-2.235.486-.087 1.199-.218 1.829-.333 0 .23.01.46.026.687l-.779.206.017.064.672-.178.011.044c.01-.001.041-.011.086-.021.029.362.079.722.147 1.08zm.086.41c-.333.141-.708.301-1.096.468l-.002-.003-.107.028.005.019-.51.22c-.021-.077-.041-.153-.06-.23-.014-.058-.025-.117-.038-.175.562-.224 1.19-.472 1.732-.686.022.12.049.239.076.359zm.083.33l-1.05.59a9.507 9.507 0 0 1-.111-.387l1.093-.468c.022.089.044.178.068.265zm.074.274c.04.136.086.272.133.407-.16.096-.327.197-.498.302-.043-.124-.086-.247-.125-.37l-.053.016c.04.129.083.256.128.383l-.476.287c-.08-.22-.154-.44-.22-.664.332-.188.703-.395 1.048-.591.022.077.041.155.063.23zm.34.963c.002.004.006.008.007.013-.324.228-.67.474-.98.694-.061-.139-.121-.275-.176-.414-.022-.059-.04-.12-.063-.179.16-.095.32-.194.477-.287.041.115.085.23.13.344l.052-.023a7.867 7.867 0 0 1-.134-.352l.497-.3c.06.17.124.34.19.504zm.149.338c-.287-.006-.644.203-.77.453-.073.14-.107.247-.172.305a9.653 9.653 0 0 1-.164-.349c.312-.221.657-.467.982-.694.04.095.083.19.124.285zm.108.262c.006.001.011.001.017.005.042.084.086.168.13.253-.3.221-.628.468-.955.71-.038-.068-.078-.137-.113-.207a.73.73 0 0 0 .374-.46c.04-.125.152-.435.547-.3zm.622-.115l.008.012-.423.316a7.625 7.625 0 0 1-.096-.191c.178.026.35-.037.511-.137zm.033.062c.116.222.238.442.37.655l-.393.346a9.76 9.76 0 0 1-.4-.687l.423-.314zm.683 1.128c.187.267.392.52.606.764l-.74.923a10.619 10.619 0 0 1-.968-1.24l.427-.388c.045.067.087.137.134.205l.06-.043c-.048-.07-.092-.143-.139-.214.138-.127.269-.246.387-.356.076.119.152.237.233.35zm-.521 2.171c-.377-.41-.721-.846-1.035-1.307.138-.127.277-.252.413-.378.294.438.62.855.973 1.247-.158.195-.283.352-.351.438zM5.39 21.386a11.67 11.67 0 0 1-.461-.772c.328-.244.655-.49.953-.71.125.236.26.468.404.693l-.454.4-.026.017c0 .002 0 .003.003.004l-.307.27s-.043.039-.112.098zM3.643 19.41c-.085-.224-.162-.45-.235-.68l.494-.277c.068.225.144.446.225.666-.164.1-.326.197-.484.29zm-.38-1.18c.173-.075.343-.149.513-.22.035.133.075.265.114.398-.183.103-.351.199-.495.279-.047-.154-.09-.306-.131-.458zm-.613.185a11.84 11.84 0 0 1-.105-.418l.552-.218c.013.054.024.112.036.167l.062.239-.545.23zm-.434-3.188l.587-.09c0 .093.002.186.004.278-.308.056-.515.096-.533.097a.66.66 0 0 0 .011.067l.523-.097c.022.757.116 1.51.279 2.245l-.553.219c-.202-.89-.309-1.8-.318-2.719zm2.476-.157l-1.83.336a9.823 9.823 0 0 1-.004-.278l1.838-.28c-.001.074-.004.148-.004.222zm.599-.109l-.524.097c0-.073.001-.148.003-.22.19-.03.365-.058.524-.08v.003c-.003.067-.002.134-.003.2zm-.278-.932l.338-.023c-.011.084-.019.171-.026.256a.535.535 0 0 1-.164-.126.506.506 0 0 0-.148-.107zm-2.79.62c.002-.058.007-.115.01-.171.123.064.266.073.468-.035.358-.187.526-.306.74-.213-.011.154-.02.306-.027.462l.112.004c.004-.136.014-.27.023-.405.011.01.022.015.034.024.083.066.28.168.508.136-.006.088-.014.176-.016.266l.055.002c.003-.093.013-.185.018-.278.1-.023.203-.07.306-.159.09-.078.328-.265.572.036a.566.566 0 0 0 .281.181l-.01.19-.525.081v-.028l-.074-.003-.001.041c-.559.087-1.216.187-1.839.28 0-.129.002-.257.007-.387l-.055-.003c-.005.134-.007.268-.007.4l-.588.09c0-.17.002-.34.008-.51zm.634-.472c-.15.107-.34.207-.475.06-.008-.007-.019-.016-.028-.027l.503-.033zM2.6 11.986c.386.05.792.097 1.193.146a11.812 11.812 0 0 0-.32 1.758c-.133-.04-.251.015-.342.075l-.198.012.006.128-.651.044-.033-.025c.055-.725.172-1.438.345-2.138zm.144-.527l1.185.2c-.043.137-.083.273-.12.409-.4-.047-.807-.1-1.193-.145.04-.156.082-.312.128-.464zm1.176.623c.037-.135.078-.268.12-.403l.547.093c-.04.126-.079.251-.114.378l-.553-.068zm.194 2.008l-.001.026c-.122.079-.2.107-.34-.002l.341-.024zm-.534-.15a11.55 11.55 0 0 1 .324-1.793l.55.067c-.15.552-.255 1.118-.317 1.694-.199.013-.388.022-.557.032zm-.647-3.072l1.166.286a11.47 11.47 0 0 0-.152.444l-1.184-.203c.054-.177.11-.352.17-.527zm17.17 12.022c-.384-.349-.847-.772-.875-.799l-.08.062c.059.056.731.673.872.804a7.44 7.44 0 0 1-.143.107c-.12-.21-.37-.355-.593-.48a7.888 7.888 0 0 0-.404-.22s-.124.063-.04.137c.085.075.446.266.563.36.088.07.227.172.301.33-.155.11-.311.212-.471.313-.466-.486-.81-.85-.823-.862-.015.009-.024.012-.044.023.018.019.364.378.826.863l-.028.02c-.091.056-.186.104-.279.157l-.79-.893c-.011.005-.017.01-.033.016.016.016.366.41.792.894-.069.039-.135.078-.205.114l-.684-.941c-.02.012-.031.018-.06.032l.685.944c-.17.088-.341.169-.516.245l-.657-.97-.05.02.66.973c-.144.064-.292.12-.438.174l-.253-.439c.098-.035.198-.07.295-.111l-.053-.133c-.103.042-.21.08-.314.118-.153-.263-.253-.439-.258-.447l-.038.015c.008.01.106.185.258.446a8.2 8.2 0 0 1-.534.175l-.217-.451-.06.017c.01.025.1.208.216.45a2.63 2.63 0 0 1-.155.04 20.556 20.556 0 0 1-.189-.459c-.02.007-.032.012-.058.018l.188.456c-.103.026-.207.051-.311.074l-.182-.458a1.115 1.115 0 0 1-.061.013c.012.034.093.233.182.458-.085.017-.167.035-.25.049-.076-.266-.13-.456-.133-.462-.014.004-.046.01-.054.014l.123.46a9.202 9.202 0 0 1-.626.082c-.002-.187.002-.424-.014-.505-.021-.116-.14-.037-.14-.037s-.01.115-.018.483v.075l-.226.014-.096-.473-.063.002c.004.02.04.2.098.474-.225.01-.45.012-.674.004l-.042-.484c-.02-.001-.032-.003-.054-.003 0 .013.017.2.043.486h-.013l-.006.145h.032c.026.313.062.71.099 1.13-.22-.005-.438-.02-.654-.038.003-.194.008-.379.013-.55.192.018.385.03.58.037l.002-.073a8.746 8.746 0 0 1-.58-.037l.028-1.13-.142-.024c-.002.027-.017.485-.041 1.137a9.8 9.8 0 0 1-.675-.097l.075-1.13c-.022-.003-.033-.006-.06-.011-.003.047-.04.603-.077 1.128-.046-.008-.095-.02-.143-.03l.118-1.122c-.019-.004-.03-.005-.05-.011l-.119 1.121a7.902 7.902 0 0 1-.52-.129l.033-.2.06.008c.051-.33.127-.845.13-.864a.396.396 0 0 1-.043-.012c.006-.032.008-.051.01-.055-.023-.006-.07-.02-.097-.026l-.207 1.12a9.752 9.752 0 0 1-.661-.221c.165-.623.285-1.068.29-1.087l-.055-.02-.29 1.085c-.085-.032-.173-.065-.259-.1l.325-1.077c-.02-.01-.03-.013-.053-.023l-.326 1.077-.292-.131.388-1.052-.033-.014-.024-.013c-.01.023-.165.449-.388 1.053-.021-.011-.044-.02-.067-.03-.118-.058-.232-.117-.348-.178l.207-.462c.117.06.233.124.352.18l.062-.13a8.434 8.434 0 0 1-.355-.184c.103-.232.18-.408.188-.428l-.053-.03-.191.43a8.77 8.77 0 0 1-.63-.38c.142-.236.234-.393.243-.406a8.1 8.1 0 0 1-.117-.075c-.023.039-.116.193-.245.402a11.27 11.27 0 0 1-.416-.303l.196-.282.05-.073c.011-.019.021-.031.024-.035-.013-.009-.022-.018-.04-.03a1.538 1.538 0 0 1-.046.068l-.031.044c-.046.07-.112.163-.191.279l-.081.118c-.084.123-.18.265-.286.416l-.039.06c-.099.142-.205.295-.311.452l-.722 1.052a452.95 452.95 0 0 1-1.194 1.738l.04.03 1.192-1.737c.17.13.343.254.52.373l-.632 1.03c.021.01.031.019.053.03l.331-.539s.073.044.104.06c.01-.014.123-.202.291-.483.406.264.83.504 1.273.718l.022-.05c-.44-.213-.863-.453-1.268-.715l.6-1.006c.25.164.507.317.77.458l-.087.2.057.024c.004-.013.037-.085.085-.194.11.059.224.115.338.17.04.02.08.036.12.055l-.185.5c-.053-.025-.107-.047-.16-.074l-.046.1c.056.027.113.049.17.075-.133.36-.27.731-.4 1.088a10.92 10.92 0 0 1-.256-.118l-.016.034c.086.04.173.078.26.119L8.63 28.57a.876.876 0 0 1 .056.024l.797-2.17c.143.062.286.123.43.18l-.455 1.506.054.021c.009-.025.207-.679.456-1.503.113.043.225.084.339.125l-.484 1.817c.01.002.029.009.055.017l.482-1.813c.55.193 1.111.347 1.681.455-.087.825-.155 1.47-.156 1.492.02.006.033.006.05.008l.156-1.487c.142.025.285.051.429.07.208.033.415.055.624.077-.045 1.22-.082 2.287-.083 2.317l.06.008.023-.608.08.003s-.014.547-.014.615a.655.655 0 0 1 .06.007l.058-2.327c.29.022.579.034.868.037l.051.58.042-.001c-.002-.018-.02-.25-.05-.579.35 0 .7-.015 1.049-.046l.14.677.06-.013-.139-.67c.05-.004.1-.007.149-.013l-.022.066c-.148.452.141.57.44.774.298.203.065.426-.166.975-.232.549.54.808.54.808a1.393 1.393 0 0 1-.36-.665c-.045-.23.057-.333.168-.52a.665.665 0 0 0 .107-.353c-.007-.197-.252-.58-.488-.74-.123-.085-.108-.228-.058-.365.253-.031.507-.066.759-.114l-.006-.035c-.246.046-.492.08-.738.111.044-.106.107-.205.135-.261.042-.08.112-.209.096-.345a11.127 11.127 0 0 0 1.494-.328c.507 1.233.993 2.406 1.005 2.438l.054-.021c-.013-.038-.495-1.206-1.002-2.433.18-.053.362-.11.54-.173l-.017-.052c-.18.063-.362.12-.544.176l-.451-1.092c.077-.02.153-.044.23-.068.064.136.11.228.117.243l.054-.028-.112-.234c.208-.065.415-.139.62-.219.092.158.183.315.27.468l.039.101.016-.007c.353.613.645 1.12.655 1.135l.036-.016-.653-1.134c.173-.07.346-.145.515-.225.72 1.061 1.445 2.137 1.463 2.163.017-.009.027-.015.047-.023l-1.462-2.162c.186-.088.369-.181.548-.278l2.22 3.062c.022-.014.033-.02.056-.037l-2.218-3.058c.11-.06.216-.118.32-.183l.693.783a.72.72 0 0 0 .03-.017l-.693-.782c.114-.07.23-.14.341-.215.28.296.56.587.806.846-.205.14-.413.274-.625.4l.019.03c.214-.128.424-.263.632-.404.459.48.797.837.81.849.018-.011.036-.024.041-.025l-.813-.85a12.8 12.8 0 0 0 .726-.54.2.2 0 0 1 .112.171c.019.279.215.673.375.775.1.065.225.085.342.081.207-.003.343-.04.51.11.188.167.3.39.374.63 0 0 .158-.783-.405-.854-.565-.069-.86.02-.883-.333-.021-.307.008-.576-.278-.703l-.04-.013c-.032-.011-.066-.024-.107-.033-.445-.095-.634-.092-.716-.436a.653.653 0 0 0-.12-.248l-.071-.08a.601.601 0 0 0-.46-.17c-.11.002-.39-.007-.393-.372a.523.523 0 0 0-.045-.197l.203-.152.457.418.042-.047a60.24 60.24 0 0 1-.452-.41l-.054-.05zm-11.966.617l-.66.963.66-.963zm-.621.992l.66-.963c.154.117.31.23.47.338-.206.337-.42.683-.613.997a10 10 0 0 1-.517-.372zm1.158-.67a10.023 10.023 0 0 1-.466-.338l.31-.452c.144.11.292.22.445.323l-.289.468zm.325-.528c-.15-.103-.297-.21-.441-.322l.286-.415c.137.106.276.207.422.304-.08.129-.169.276-.267.433zm.127.081c.094-.155.18-.303.26-.431.207.138.422.266.645.387l-.207.464c-.24-.13-.471-.27-.698-.42zm-.32.535l.283-.474c.229.152.464.294.705.424-.082.19-.161.369-.223.504-.261-.141-.516-.293-.764-.454zm1.044-.02c.114.058.229.12.345.176l.075.034-.19.515-.116-.05c-.114-.056-.227-.112-.338-.17l.224-.505zm.477.234l.293.133c-.05.166-.104.345-.158.53-.11-.046-.218-.097-.326-.146l.19-.517zm-.209.568c.109.05.216.102.328.148-.052.165-.103.336-.155.51-.12-.05-.24-.103-.358-.158l.185-.5zm-.221.602c.12.056.24.108.362.158l-.334 1.11a8.318 8.318 0 0 1-.429-.18c.133-.356.268-.727.4-1.088zm.418.181c.1.04.2.08.302.117-.102.375-.204.758-.3 1.12-.113-.04-.226-.082-.338-.125.107-.353.223-.734.336-1.112zm.355.138c.251.091.505.17.76.241l-.152.826.032.007.152-.825.074.02-.14.824.032.008.139-.822c.2.051.399.1.6.14l-.12 1.156a11.944 11.944 0 0 1-1.676-.455l.299-1.12zm1.547.432c.32.063.644.108.971.142l-.042 1.159c-.207-.02-.415-.044-.62-.074a13.292 13.292 0 0 1-.43-.074l.121-1.153zm.994-.5c-.006.173-.012.351-.02.533-.322-.033-.644-.08-.963-.143l.058-.534c.056.01.112.023.17.034-.011.148-.018.25-.018.267l.06.004c.002-.016.01-.116.019-.259.23.04.461.073.694.097zm-.654-.706c.223.042.45.071.677.097-.007.174-.014.36-.02.554a8.904 8.904 0 0 1-.694-.098l.037-.553zm-.207-.043c.047.009.097.023.146.031l-.037.553-.168-.033.059-.55zm-.576-.14c.174.049.35.09.525.128l-.058.552a9.486 9.486 0 0 1-.558-.134l.09-.546zm-.032-.009c-.027.17-.059.356-.091.548a.939.939 0 0 0-.063-.017c.037-.191.07-.377.103-.544l.051.013zm.071-.68l.013.002c-.026.154-.053.311-.07.403.005.001.017.001.032.004-.01.062-.02.128-.033.2l-.051-.015.11-.594zm-.821.437c.221.081.442.156.667.22l-.1.546c-.24-.069-.475-.148-.709-.234l.142-.532zm-.476.404l.16-.528c.087.036.174.07.262.102l-.142.533c-.094-.034-.187-.068-.28-.107zm.128.679c-.1-.038-.199-.076-.298-.116.054-.174.105-.344.154-.51.094.038.187.073.282.106-.045.169-.093.343-.138.52zm.806.26a10.032 10.032 0 0 1-.751-.24c.046-.175.092-.35.138-.518.234.087.471.166.712.234-.035.182-.066.358-.099.524zm.223-.491c.186.05.373.096.563.134-.02.174-.037.354-.057.534a9.78 9.78 0 0 1-.595-.14l.09-.528zm-.12.52a1.189 1.189 0 0 1-.07-.022l.096-.522.063.015-.09.529zm1.806.428c.164.014.328.025.494.032l.003-.11c-.165-.005-.33-.016-.494-.03l.012-.538c.22.02.44.033.662.037l.158 1.803a11.399 11.399 0 0 1-.862-.037c.008-.38.017-.774.027-1.157zm.72-.606l.153.003c.229 0 .457-.009.683-.024.082.39.165.794.24 1.161-.258.022-.514.036-.775.039l.001.055c.262-.004.524-.018.786-.04.041.202.079.393.116.561-.35.03-.698.047-1.047.045l-.158-1.8zm1.15 1.19c.122-.011.248-.024.37-.038.062.152.003.315-.087.582-.056.007-.112.011-.169.016l-.115-.56zm.502-.35c-.301-.22-.205-.295-.1-.563a.758.758 0 0 0 .028-.372c.138-.02.275-.045.413-.068l.24.904.1-.034c-.002-.015-.115-.409-.252-.886.259-.05.512-.112.768-.182l.45 1.09c-.488.143-.983.253-1.483.327a.406.406 0 0 0-.164-.217zm-.62-2.064c.22-.019.438-.047.656-.084a194.213 194.213 0 0 1 .291 1.092c-.136.025-.273.048-.408.067-.039-.184-.128-.36-.257-.444-.234-.152-.256-.428-.277-.584a2.854 2.854 0 0 1-.005-.047zm.354 2.189a.594.594 0 0 1 .106.134 7.87 7.87 0 0 1-.354.037c-.076-.367-.16-.771-.238-1.16a8.68 8.68 0 0 0 .459-.045.57.57 0 0 1-.074.183.675.675 0 0 0 .1.85zm-.727-2.159l.195-.011c.005.307.053.615.31.77.16.097.204.208.201.31-.158.02-.316.036-.477.047l-.23-1.116zm-.713.442c-.001-.023-.02-.217-.04-.433.23.007.46.005.69-.006l.23 1.117c-.224.014-.448.023-.673.023-.053 0-.106-.003-.158-.005l-.061-.694.012-.002zm2.36-.063c-.012-.034-.119-.301-.225-.572.105-.022.209-.048.313-.075.118.283.266.647.433 1.05-.252.07-.506.13-.762.18a228.03 228.03 0 0 0-.31-1.088c.088-.016.176-.035.264-.054l.23.58c.024-.007.035-.011.057-.021zm.579.388c-.166-.403-.315-.766-.435-1.05.056-.014.111-.027.166-.042l.22.456c-.036.01-.07.025-.104.033l.018.071.12-.038.241.506c-.075.02-.15.044-.226.064zm.012-.655l-.22-.453c.182-.056.363-.116.543-.18l.254.437c-.19.073-.383.137-.577.196zm.031.066c.196-.06.39-.125.581-.198.09.156.184.318.279.486-.204.077-.41.15-.617.215l-.243-.503zm.897.272l-.278-.484c.148-.057.296-.113.44-.177l.646.956c-.169.074-.338.149-.51.22l-.27-.468.147-.057-.019-.05c-.051.021-.103.04-.156.06zm.855.27l-.645-.954a8.21 8.21 0 0 0 .518-.248l.672.926c-.179.096-.36.19-.545.276zm.605-.309c-.242-.33-.47-.648-.673-.925.072-.039.14-.08.213-.12l.77.871c-.102.06-.206.118-.31.174zm.34-.193c-.247-.277-.52-.586-.77-.87.088-.05.179-.096.265-.15l.044-.027.8.837c-.113.072-.226.143-.34.21zm.377-.236l-.798-.836c.15-.096.3-.193.445-.297a.538.538 0 0 1 .022.119c.013.274.329.585.601.626.098.015.174.019.234.035-.164.122-.332.24-.504.353zm.077.08c.178-.12.356-.245.529-.375.04.046.065.125.079.265.035.364.325.361.467.367.092.006.302-.009.446.052-.232.187-.471.365-.717.535a496.49 496.49 0 0 1-.804-.845z"/>
    </g>
</svg>
