<svg xmlns="http://www.w3.org/2000/svg" xmlns:xlink="http://www.w3.org/1999/xlink" width="20" height="20" viewBox="0 0 20 20">
    <defs>
        <path id="a" d="M0 0h20v20H0z"/>
    </defs>
    <g fill="none" fill-rule="evenodd">
        <mask id="b" fill="#fff">
            <use xlink:href="#a"/>
        </mask>
        <use fill="#D8D8D8" fill-opacity=".01" xlink:href="#a"/>
        <path fill="#A19062" d="M10.848 13.716a7.063 7.063 0 0 1 2.184.447c.098.036.192.073.29.11.37-.983.594-2.155.632-3.432h-3.106v2.875zm-.696 0V10.84H7.039c.037 1.277.27 2.449.64 3.432a7.113 7.113 0 0 1 2.473-.558zm0-6.435a7.113 7.113 0 0 1-2.191-.447c-.099-.036-.197-.073-.292-.114-.36.982-.593 2.154-.63 3.432h3.113V7.28zm3.17-.561a7.062 7.062 0 0 1-2.474.56v2.872h3.106c-.038-1.278-.262-2.45-.632-3.432zm1.504 8.418l.159-.152a6.309 6.309 0 0 0 1.852-4.145h-2.191c-.037 1.384-.291 2.67-.705 3.735.31.168.606.356.885.561zm-1.831 1.2a6.378 6.378 0 0 0 1.286-.738 5.342 5.342 0 0 0-.607-.389 6.985 6.985 0 0 1-.679 1.126zm-2.147.5c.234-.013.467-.042.696-.074.505-.32.967-.848 1.344-1.537.054-.098.114-.208.16-.315-.082-.04-.172-.07-.259-.098a6.05 6.05 0 0 0-1.94-.402v2.425zM6.711 15.6c.401.295.832.54 1.295.737a5.642 5.642 0 0 1-.508-.778c-.062-.11-.115-.229-.172-.348a5.435 5.435 0 0 0-.615.389zm-2.547-4.76a6.3 6.3 0 0 0 1.843 4.146l.16.151c.278-.205.573-.393.88-.56-.41-1.066-.667-2.352-.704-3.736h-2.18zm2.003-4.98c-.054.044-.107.098-.16.151a6.286 6.286 0 0 0-1.843 4.14h2.179c.037-1.383.295-2.661.705-3.734a7.242 7.242 0 0 1-.881-.557zm1.839-1.196A6.373 6.373 0 0 0 6.71 5.4c.197.139.401.27.615.385.057-.115.11-.237.172-.352.156-.279.323-.54.508-.77zm2.146-.508a6.806 6.806 0 0 0-.704.082c-.504.31-.959.843-1.335 1.532a4.002 4.002 0 0 0-.169.315c.082.037.173.07.259.103.61.229 1.27.368 1.949.4V4.157zm1.392.082a6.632 6.632 0 0 0-.696-.082v2.433a6.385 6.385 0 0 0 1.941-.402c.087-.033.177-.065.26-.102-.046-.107-.107-.213-.16-.315-.378-.689-.84-1.221-1.345-1.532zM14.281 5.4a6.346 6.346 0 0 0-1.286-.737c.172.23.34.491.5.77.06.115.123.237.18.352.212-.115.41-.246.606-.385zm.704.61a2.233 2.233 0 0 0-.16-.151 7.015 7.015 0 0 1-.884.557c.414 1.073.668 2.35.705 3.735h2.191a6.295 6.295 0 0 0-1.852-4.14zm-4.833 10.826v-2.425c-.68.03-1.34.164-1.95.402-.085.028-.176.057-.258.098.053.107.107.217.169.315.376.689.83 1.217 1.335 1.537.237.032.463.061.704.073zM10.492 3a7.49 7.49 0 0 1 5.309 2.192 7.505 7.505 0 0 1 0 10.614A7.516 7.516 0 0 1 10.492 18a7.512 7.512 0 0 1-5.3-2.194A7.477 7.477 0 0 1 3 10.496 7.48 7.48 0 0 1 10.492 3z" mask="url(#b)"/>
    </g>
</svg>
