<svg xmlns="http://www.w3.org/2000/svg" width="24" height="24" viewBox="0 0 24 24">
    <path fill="#A19062" fill-rule="evenodd" d="M17.329 13.933c-.114.146-.23.292-.351.437-1.665 2.01-3.9 3.89-4.977 4.556-1.325-.82-4.404-3.477-6.017-5.952a9.972 9.972 0 0 1-.253-.408c-.51-.869-.814-1.7-.767-2.405.172-2.566 2.338-3.136 2.338-3.136C10.08 6.308 12 8.42 12 8.42s1.918-2.112 4.695-1.395c0 0 2.168.57 2.34 3.136.072 1.07-.665 2.432-1.707 3.772M12 0C5.373 0 0 5.373 0 12s5.373 12 12 12 12-5.373 12-12S18.627 0 12 0"/>
</svg>
