<svg xmlns="http://www.w3.org/2000/svg" width="760" height="754" viewBox="0 0 760 754">
    <g fill="#E1DBCF" fill-rule="evenodd" opacity=".345">
        <path d="M446.692 378.282c3.436-2.457 6.14-5.688 8.803-8.768 2.187-2.54 4.473-5.173 7.125-7.48-2.956-.592-6.016-1.22-9.055-1.75-2.209-.384-4.38-.914-6.564-1.392l.202 2.197c.289 1.356.81 4.846-.98 7.714-1.332 2.077-3.53 3.485-6.708 4.207-4.133 1.065-11.533 5.179-11.837 5.35l-.32.15.232.266c.098.088 7.482 7.858 19.102-.494zm111.436 129.621l-.3.125c-3.977 1.501-36.696 12.695-57.417-26.979-2.188-3.973-4.845-15.702-9.546-26.116 1.316-2.239 2.533-4.56 3.705-6.96 14.339-2.946 25.118-9.6 27.166-12.648-8.023 2.633-16.33 3.397-23.033 3.397 3.9-9.625 6.661-19.842 8.163-30.48 18.668-.265 37.774-2.39 48.202-9.547 22.796-15.63 28.029-33.258 26.754-52.404 0 0-14.401 36.38-59.725 22.262-3.287-.96-9.798-4.794-17.3-8.373-1.254-5.298-2.792-10.513-4.68-15.562 8.441-3.293 20.154-6.014 25.824-7.287-8.828-4.057-20.061-2.109-28.513.514-.263.052-2.456-5.23-2.667-5.687-.795-1.689-1.502-3.397-2.302-5.122a.807.807 0 0 1-.18.192c.03.052.03.083.062.146-5.454 3.33-14.076 4.721-27.574.852-.263-.042 12.698-2.65 23.766-8.327-1.553-2.244-3.328-4.373-4.825-6.685-.382-.613-2.832-5.1-3.74-4.69 14.958-14.165 31.247-32.152 33.915-46.384 4.737-25.15-3.261-40.042-16.527-51.672 0 0 14.184 33.129-24.483 53.594-4.464 2.508-19.67 5.661-30.175 12.2a139.577 139.577 0 0 0-11.909-6.071c-.175-6.54-1.656-21.073-12.001-25.067 0 0 5.459 9.297 4.102 21.883.098-1.159-15.552-4.535-17.095-4.95-1.114-.265-2.177-.525-3.266-.722.191.618.382 1.241.568 1.88.144-.062.206-.067.206-.067s-.03.067-.144.238c1.088 3.455 2.193 6.8 3.137 9.984-2.75-.889-4.943-2.182-6.785-3.74a99.652 99.652 0 0 1-2.529 3.781c-10.779 10.119-14.989 23.442-12.306 31.83 2.683 8.337.944 15.39-3.472 24.231 2.853-16.761-4.381-22.672-9.546-34.458-5.196-11.853 2.92-30.282 2.92-30.282-.118 3.37-.608 16.834 1.729 24.823.134-4.467 1.378-7.423 7.61-15.09 3.133-3.91 8.138-6.767 12.224-8.616-1.197-1.803-2.059-3.834-2.667-5.911-1.533-.182-3.076-.302-4.66-.442 1.012-23.301.284-52.498-9.122-66.403-10.578-15.65-22.084-23.062-34.339-25.81l-1.16-.202c-4.18-.857-8.463-1.143-12.843-1.07l-1.28.052a28.77 28.77 0 0 0-2.451.124s1.032.39 2.632 1.268l1.382.805c8.963 5.37 29.19 21.91 18.096 58.035-1.842 6.446-14.814 25.488-14.814 40.275-1.491.546-2.972 1.076-4.401 1.683l-.542-14.356s-5.222 5.428-4.99 16.668c-.825.395-1.646.8-2.445 1.21-3.535-6.352-8.782-14.087-14.21-16.138 1.558 5.158 6.625 12.97 6.036 18.714.434.348.95.644 1.337 1.04 2.59 2.337 4.53 5.24 6.548 8.19 3.044 4.39 5.866 8.935 8.116 13.812-.598-.977-1.976-1.636-2.843-2.322-2.44-2.02-4.922-3.932-7.425-5.843-2.936-2.291-6.171-4.197-9.112-6.457-.919-.706-1.785-1.444-2.683-2.14-5.397 2.847-13.395 6.966-12.374 8.114-15.773-17.463-37.511-38.625-54.374-41.83-24.349-4.674-39.74 1.938-51.727 13.77 0 0-3.255 3.159-4.04 4.317 16.078-4.971 22.647-2.156 24.303-1.927 1.62.29 19.886 2.348 33.6 28.62 1.977 3.849 4.567 14.538 8.86 24.527-7.435-.192-17.657.208-22.46 3.579.309-.198 2.946.685 3.327.79 2.797.54 5.568 1.173 8.364 1.786 8.06 1.724 14.174 3.122 20.356 8.929.108.15-2.895 6.7-3.839 9.043 6.336 1.833 10.758 5.786 13.756 9.744-3.921-6.622-6.44-14.918-5.732-25.446 14.416 19.322 14.38 33.315 44.56 35.16 28.688 1.703 35.02-.686 52.723 13.712-10.294-.13-33.292-7.002-51.335 7.791 12.977-1.002 44.353-7.344 57.624-1.293 1.667-7.423 8.916-22.62-.48-41.808-1.522-3.195-3.24-6.358-4.943-9.506-2.58-4.789-5.32-9.463-8.343-14.003-2.116-3.184-4.453-6.176-6.75-9.21.094-.14 7.457 4.603 10.346 6.971 2.88 2.327 5.573 4.836 8.029 7.589 2.456 2.737 4.706 5.76 6.496 9.007 1.96 3.573 3.344 7.427 4.247 11.38a59.563 59.563 0 0 1 1.238 6.649c.17 1.153.335 2.337.47 3.475.082.587.144 1.168.18 1.755.041.27.398 1.6.248 1.782 6.254-7.298 16.82-21.634 10.129-42.38 6.867 9.158 8.22 11.63 8.22 11.63 3.838-7.36.799-22.21-7.74-32.396 5.309-.042 12.96-.213 21.836 13.105 9.458-9.329 19.06-15.936 29.854-16.279-9.122 6.898-26.371 19.79-24.117 31.238-8.983 2.561-12.615 3.148-19.07 16.658-6.46 13.562-21.109 33.305-29.556 55.443-.835 16.86.062 38.64-.392 51.656-.464 13.012-6.32 22.2-19.287 22.704-12.925.52-26.599 21.291-28.26 33.539 0-13.765 1.228-21.436 5.583-28.812-6.182 4.643-15.015 10.362-16.729 24.781-.644-15.208 5.573-28.999 21.476-36.9 15.845-7.884 21.759-5.739 23.895-25.238 2.115-19.473 1.021-28.885 1.021-28.885s-4.638 2.478-8.89 20.886c-4.262 18.465-15.48 31.789-31.392 26.896-3.87-1.19-7.76-2.395-11.661-3.553-2.142-.629-4.309-1.278-6.502-1.901-.66-.187-3.323-.405-4.07-1.221-.022 0-.12.01-.12.01s-.04 0-.077-.01a3.429 3.429 0 0 0-.325.203l-.052.197c-6.909 4.779-19.266 14.346-20.247 22.086.114-.618-.542-1.834-.717-2.462a50.438 50.438 0 0 1-1.357-6.415c-.985-6.005-1.197-12.575.485-18.523l-.041.037c-3.7-.587-7.131-.946-10.119-.946 0 0 4.268-1.963 11.662-3.121.02-.078.02-.078.036-.078 3.07-6.384 8.493-10.783 15.149-12.965 11.042-3.735 23.513-2.25 34.684-.078-2.27 4.327-3.457 8.103-5.619 10.913-.098.026-1.011.395-2.373.95.928-.186 1.749-.415 2.425-.659-.052.078-.124.14-.15.192.289-.25.593-.524.95-.711 1.893-1.19 3.668-2.525 5.288-4.093 3.447-3.34 6.073-7.563 7.172-12.363 3.39-14.824 22.523-26.682 32.837-27.264-3.446-4.005-12.172-8.415-25.035 2.015-12.817 10.378-29.968 20.84-42.078 4.488-3.426-4.945-.444-8.233-8.725-10.7-8.339-2.457-17.446-2.337-20.748-23.909 11.666 8.404 14.23 10.638 30.278 12.201-5.764-4.44-16.336-10.305-23.725-20.36 2.27 3.936 3.158 7.146 3.158 7.146-7.44-8.025-21.893-11.183-22.786-11.365-.155.416-.3.77-.449 1.257-.103.406-1.042 4.229-1.259 4.229-4.164.337-11.563-.182-24.003-3.86 0 0 11.367 9.173 22.347 10.617-.81 3.792-1.486 7.64-2.007 11.547-23.054-3.511-41.944 3.807-48.012 10.477C174.93 409.816 147 404.206 147 404.206s17.383 8.508 26.48 10.16c9.097 1.662 30.066 1.745 47.852-2.213 7.709-1.745 19.912 3.844 31.3 10.732.701 2.773 1.362 5.62 2.177 8.352 3.426-1.543 6.935-2.8 10.732-3.688 3.04-.67 6.14-1.169 9.21-1.46.32-.041 3.54 0 3.67-.238-2.013 3.968-6.172 6.669-9.913 8.83-3.276 1.9-6.764 3.334-10.257 4.768.81 1.979 1.558 3.968 2.466 5.906a116.693 116.693 0 0 0 2.807 5.563c.31.571 2.394 5.2 2.89 5.2l-17.74.882s12.022 6.451 22.347 6.493c0 .047.026.073.067.104-2.069 2.4-4.334 5.225-6.604 8.368-11.032 2.14-23.297 3.251-23.297 3.251 4.38 3.096 12.208 4.613 17.471 5.303-7.038 11.282-13.121 24.98-13.606 38.624-.01 18.43-2.848 43.367-13.483 48.255 23.302-11.672 35.355-19.157 39.741-32.184 3.627-10.746 12.518-29.82 36.826-35.398.872.535 1.723 1.075 2.585 1.584-1.1 5.345-2.054 13.032-1.46 21.852 1.712-4.908 4.08-12.809 5.974-19.187-.123.504 8.922 4.565 9.768 4.94a88.583 88.583 0 0 0 7.234 2.893c.955-2.187 2.012-5.72 2.951-9.153-3.245.11-7.038-.067-11.656-.56 3.989-.042 8.323-1.413 12.71-3.662.82-3.288 1.346-5.802 1.346-5.802.66 1.309 1.197 2.737 1.697 4.119 20.516-12.118 41.94-40.681 41.94-40.681-4.129 29.794-21.816 42.873-27.616 56.362-1.213-.416-3.467-7.885-.237-15.988-3.592 2.514-7.12 4.649-12.683 5.651 1.207 5.948 1.094 11.23 1.042 12.622.449.25.919.478 1.373.629 1.424.587 2.858.956 4.35 1.304.938.228 11.01 2.192 11.01 2.233-.098 20.159 1.811 41.626 9.469 52.976 15.551 22.922 33.074 28.147 52.062 26.874 0 0-36.129-14.491-22.074-60.117 1.115-3.911 6.244-12.357 10.191-21.676a125.465 125.465 0 0 0 18.844-6.066c11.258 5.22 13.56 14.865 16.444 23.654 4.489-10.014-3.008-20.553-9.025-26.942 2.43-1.122 4.768-2.665 7.234-3.725.057-.036.073-.077.15-.103-2.115-2.088-3.828-4.56-4.953-7.683-1.166-3.225-1.765-6.726-1.946-10.211.351.457.702.919 1.032 1.366 3.51 4.529 7.105 9.084 10.944 13.349a14.4 14.4 0 0 0 1.62-.878c.744-.504 8.68-6.114 8.71-6.114 14.406 14.804 31.537 29.576 45.319 32.204 12.316 2.353 22.357 1.803 30.81-.81l2.1-.732c9.065-3.236 16.283-9.007 22.589-16.206l.144-.229zm-91.122-21.95c7.993-7.376 15.04-15.801 21.031-24.995 6.172 48.098 45.623 52.191 55.241 52.976-34.41 18.18-62.206-9.085-76.272-27.981zm-16.269-.53c-4.092-.348-8.21-.452-12.28-.535-2.6-.052-5.201.026-7.77-.224-1.022-.083-2.018-.176-3.03-.41-.603-.13-1.197-.25-1.831-.338-.057 10.358-2.849 19.796-3.984 26.09.527-9.691-1.862-19.716-5.51-29.139-1.827-.898-3.442-2.166-4.98-3.464-4.54-3.797-6.671-9.256-7.342-15.032-.274-1.932-.304-3.89-.33-5.818-7.116-11.048-13.57-18.361-13.57-18.361 4.844 1.927 9.05 4.025 12.708 6.249-.361-1.434-1.135-2.925-1.785-4.218-2.498-4.898-6.636-8.529-10.769-12.061-4.644-4-9.19-8.098-12.62-13.266-9.65-14.6-.336-29.924-.336-29.924 5.753-.524 13.612 6.919 21.645 14.518 8.034 7.589 12.41 10.347 29.716 9.962 17.342-.436 31.082 6.332 33.24 9.194-17.833-3.947-35.743-1.262-38.751-.015-11.795 5.666-23.544.015-30.335 1.683 33.178 15.68 44.39 36.608 49.323 48.607-8.21-12.492-15.52-16.206-25.845-22.688.165.098-.16 2.924-.124 3.277 0 1.262.036 2.462.19 3.709.078.92.042 1.797.042 2.737 4.556 5.542 7.1 11.427 8.354 17.297 2.255.457 4.902.457 6.873.68 3.034.437 6.088.982 9.086 1.673 4.17.971 8.349 2.27 12.167 4.197 2.038 1.064 4.035 2.3 5.676 3.947.31.291 1.847 2.712 2.136 2.727-3.292-.467-6.625-.81-9.964-1.054zm-51.149 104.481c-33.24-11.941-31.01-48.285-26.532-69.317.31.021.64.073.914.073 9.148.343 18.147-.332 26.8-1.839-22.213 36.401-2.529 66.216-1.182 71.083zm15.768-218.551c4.835-.525 15.485 1.776 20.14-12.154.314-.977.644-1.865.97-2.81-2.617-.676-5.274-1.247-7.87-2.037-1.403-.43-2.78-.81-4.138-1.376-.397-.213-1.47-.478-1.594-.956.067.156 5.923 0 6.346 0 2.9.021 5.81.156 8.736.156.449-1.179.851-2.426 1.367-3.522.965-2.249 2.137-4.332 3.659-6.233 1.615-2.072 3.529-3.76 5.675-5.246 1.26-.93 2.668-1.766 4.015-2.592.903-.452 4.076-1.47 4.525-2.296-1.945 3.652-4.365 7.117-6.238 10.8a40.77 40.77 0 0 0-2.823 7.167c-.154.488-.19.914-.154 1.33.706-.068 1.408-.15 2.09-.203 1.413-.16 2.724-.057 4.096-.322 1.481-.285 3.034-.368 4.561-.592 5.078-.717 10.098-1.636 15.01-3.153 5.692-1.76 11.77-4.337 15.598-9.173-2.734 4.337-6.068 8.244-9.695 11.802-1.594 1.573-3.292 3.07-5.02 4.534-.831.706-3.158 1.974-3.932 3.117.743-.203 1.48-.52 2.28-.764 4.133-1.117 8.385-1.413 12.626-1.226 4.48.14 7.22 1.262 10.434 3.138-.47-.286-2.854.327-3.442.379-1.93.14-3.834.29-5.691.43-2.302.209-4.608.458-6.883.863-.547.12-1.125.306-1.713.488 3.204.785 6.511 1.304 9.746 2.047a264.231 264.231 0 0 1 14.644 3.74c9.112 2.638 18.39 5.63 26.836 10.144.593.301 1.197.67 1.811 1.002 8.9-.628 37.491-1.786 45.566-12.834-2.43 7.635-8.327 32.079-61.706 28.677-5.123-.151-17.708-2.031-24.044-4.65-.8-.326 19.008-6.269 29.921-5.022-2.6-.327-5.252-1.283-7.776-1.88-9.21-2.047-18.41-3.937-27.486-6.472-4.23-1.195-8.426-2.488-12.445-4.187-1.904-.79-4.835-1.787-6.708-3.386a6.774 6.774 0 0 1-.98-1.107 6.407 6.407 0 0 0-2.008 2.265c-5.737 10.778-15.5 13.224-5.392 20.533 10.093 7.323 9.866 14.081 37.837 15.151-8.864 1.917-33.456 7.651-49.436-10.155-11.542-1.288-14.52-.519-26.526-7.567-5.114-2.099-21.238-1.813-25.474-4.442-.49-.28 1.573-9.292 20.685-11.406zm88.419-142.404c4.566 12.726 20.206 46.628-33.333 67.42-5.582-5.62-11.692-10.679-18.24-15.198 19.696-6.035 53.436-21.14 51.573-52.222zM351.22 261.174c31.031-30.49 8.69-67.91 8.69-67.91 30.24 9.522 27.336 47.642 24.255 65.12-.252-.02-.593-.036-.84-.036a129.021 129.021 0 0 0-32.105 2.826zm.196 57.084c1.275 5.843 2.76 11.567 4.407 17.338 1.584 5.542 3.281 11.033 5.035 16.554 1.414 4.524 2.9 9.048 4.391 13.552.093.4.243.815.387 1.241.057.244.16.956.346 1.096-17.894-15.619-43.89-13.666-53.264-13.25-28.854 2.337-37.719-23.426-36.847-22.59 16.249 15.557 29.02 13.354 43.663 13.157-10.18-3.475-14.68-12.347-20.361-21.727 16.733 16.538 22.822 13.619 30.2 15.078-17.971-27.43-29.921-22.527-37.795-23.072-7.895-.55-11.331-5.22-11.331-5.22s2.518-3.309 15.097-6.218c12.57-2.96 21.605-6.955 30.144 9.023 8.53 16.013 15.774 27.607 26.356 34.016-8.039-9.947-14.112-35.003-13.632-48.487.49-13.542-1.661-20.585-5.738-27.254 5.702 1.875 16.171 9.967 16.11 25.675 0 1.521.061 3.059.221 4.56.454 5.547 1.43 11.09 2.611 16.528zm-128.03-57.038s38.75-15.535 67.01 31.68c-7.25 6.7-13.689 14.206-19.297 22.428-3.034-18.475-13.297-47.682-47.713-54.108zm55.158 205.311s14.546-25.067 39.865-8.695c-10.727 5.392-27.048 12.534-39.865 8.695zm-25.19 81.664s-15.2-47.304 29.674-69.447c5.31 5.74 11.13 10.955 17.363 15.697-13.947 5.636-36.558 19.722-47.037 53.75zm.175-140.26s19.71 12.025 54.715 5.325c-17.559 8.31-41.758 14.445-54.715-5.324zm-31.929-9.364c-8.905-1.922-17.744-1.242-26.79 4.872-7.93 5.298-16.52 4.16-18.492 3.807-.15.161-.279.229-.279.229l-.15-.354s.15.073.429.125c1.935-1.766 15.046-13.681 26.635-21.286 8.653-5.734 28.658-10.248 45.721-6.357-.129 1.703-.258 3.459-.325 5.152-.305 8.425.206 16.6 1.409 24.59-7.91-4.426-18.044-9.054-28.158-10.778z"/>
        <path d="M685.192 421.008c-6.785 2.422-10.95 3.674-15.134 1.396.914-6.416 1.543-12.88 2.038-19.383 4.916 1.015 9.816 2.01 14.695 2.973-.393 5.025-.965 10.025-1.599 15.014zm-2.718 17.317c-4.706-1.515-9.483-3.056-14.337-4.572.173-.866.275-1.68.439-2.468 4.24 1.19 8.354-1.16 10.832-2.48 1.155-.618 3.01-1.824 5.125-2.932-.577 4.185-1.303 8.318-2.06 12.452zm-1.446 7.416c-4.573-1.613-9.3-3.298-14.169-5.02a491 491 0 0 1 1.027-5.339c4.829 1.567 9.632 3.051 14.322 4.54-.409 1.949-.802 3.923-1.18 5.82zm-4.9 19.93a1332.1 1332.1 0 0 0-13.832-5.7c.598-2.113 1.191-4.231 1.707-6.35.915-3.772 1.717-7.545 2.54-11.338 4.843 1.711 9.57 3.381 14.132 5-1.338 6.138-2.82 12.328-4.547 18.389zm-7.761 24.234c-4.328-2-8.825-4.138-13.52-6.298 2.657-7.257 4.95-14.616 7.025-22.028 4.706 1.923 9.34 3.825 13.862 5.695-2.156 7.628-4.65 15.158-7.367 22.631zm-14.798-6.885a5423.296 5423.296 0 0 0-27.954-13.07c.062-.099.072-.202.138-.315a263.07 263.07 0 0 0 6.198-20.358c4.22 1.711 8.569 3.515 12.983 5.35-.138.453-.21.948-.378 1.432l2.754.779c.113-.361.169-.779.276-1.144 4.282 1.757 8.66 3.55 12.958 5.329a319.02 319.02 0 0 1-6.975 21.997zm-1.23 3.159c-6.822-3.309-11.671-5.654-11.671-5.654l.772-1.644s4.828 2.237 11.613 5.406c-.22.645-.47 1.248-.715 1.892zm-16.448 36.464a8647.784 8647.784 0 0 1-25.701-17.322c5.293-10.118 9.882-20.523 13.842-31.243 9.176 4.37 18.685 8.983 27.836 13.4-4.583 12.019-9.887 23.81-15.977 35.165zm-26.866-18.1c-4.164-2.8-8.175-5.526-11.977-8.077a253.35 253.35 0 0 0 12.723-29.233c4.139 1.995 8.497 4.087 13.004 6.21a274.397 274.397 0 0 1-13.75 31.1zm-14.337 24.383c-2.514-2.13-6.591-5.428-11.164-9.185 4.675-7.097 8.916-14.482 12.85-22.022 3.822 2.556 7.843 5.236 11.977 8.035-4.18 7.921-8.707 15.678-13.663 23.172zm-20.49 27.12c-7.49-7.597-14.853-15.045-20.76-21.013a243.739 243.739 0 0 0 17.506-23.553c3.367 2.803 6.867 5.669 10.199 8.416-3.986 6.02-8.201 11.905-12.713 17.58l1.461 1.19c4.527-5.638 8.753-11.534 12.78-17.538 4.588 3.798 8.634 7.097 11.174 9.179-5.999 8.993-12.59 17.544-19.646 25.738zm-24.836 25.346c-6.73-8.7-12.968-16.734-18.078-23.367 6.77-6.128 13.152-12.669 19.115-19.482a7698.66 7698.66 0 0 1 20.366 21.399c-6.724 7.53-13.862 14.72-21.403 21.45zM188.152 252.77c-3.388-1.655-13.147-6.396-25.87-12.669l3.674-5.478c4 3.133 9.315 5.236 14.143 7.081 8.763 3.324 11.537 4.17 11.537 4.17s3.005-2.098.501-3.737c-2.534-1.613-12.728-5.19-16.171-7.22-1.87-1.057-4.553-2.536-6.852-4.696 3.53-4.87 7.189-9.591 11.046-14.158 14.736 9.973 25.103 17.034 25.548 17.302.485-.53.792-.881 1.349-1.546-1.14-.773-14.751-10.02-25.512-17.343 3.822-4.525 7.838-8.86 11.972-13.08 3.745 3.03 7.184 5.844 10.213 8.323-.495.515-1.011.984-1.507 1.484l2.667 2.696c.613-.593 1.211-1.155 1.794-1.737 6.177 5.097 10.234 8.4 10.495 8.622.46-.422.7-.639 1.195-1.144-.388-.288-4.384-3.602-10.52-8.633a238.062 238.062 0 0 1 19.421-17.296c5.253 5.494 8.778 9.163 8.936 9.375.276-.212.884-.706 1.257-.949-.204-.242-3.648-4.014-8.757-9.58 1.298-1.01 2.636-1.975 3.934-2.964 4.68 5.473 8.216 9.658 8.62 10.132.454-.402.73-.613 1.308-1.04-.47-.531-3.986-4.624-8.58-10.046 2.06-1.505 4.114-3.01 6.245-4.447 4.89 6.158 8.011 10.08 8.22 10.338.481-.309.742-.469 1.258-.82-.245-.283-3.357-4.205-8.262-10.353.904-.655 1.875-1.273 2.795-1.902 4.44 6.004 7.454 10.194 7.776 10.601.532-.345.792-.551 1.344-.912-.312-.443-3.367-4.607-7.766-10.612a210.67 210.67 0 0 1 10.546-6.396c4.113 6.561 6.657 10.664 6.877 10.952.583-.335.879-.515 1.518-.87-.21-.32-2.76-4.412-6.857-10.927 2.544-1.433 5.058-2.87 7.669-4.18 3.745 6.731 6.1 10.988 6.239 11.282.582-.294.868-.428 1.476-.752-.199-.3-2.544-4.572-6.249-11.236a175.903 175.903 0 0 1 6.617-3.298c1.645-.763 3.316-1.433 4.997-2.186 1.35 2.887 5.16 10.71 5.687 11.818 1.007-.402 3.066-1.232 4.083-1.685-.123-.31-2.208-4.917-5.447-12.009 2.125-.87 4.287-1.742 6.438-2.608 2.749 7.082 4.47 11.54 4.588 11.9.608-.252.91-.36 1.507-.628-.127-.31-1.824-4.742-4.578-11.802 3.98-1.47 7.976-2.871 12.018-4.154.46 4.118.879 8.679 1.4 10.338.904 2.7 3.811.335 3.811.335s-.015-2.788-.745-11.725v-.268c.812-.2 1.63-.495 2.447-.711 1.793 6.87 3.035 11.674 3.173 12.204.863-.252 1.543-.427 2.36-.685-.112-.448-1.333-5.216-3.152-12.277a248.02 248.02 0 0 1 12.34-2.886 1657 1657 0 0 1 2.207 12.41c.649-.16.96-.252 1.579-.36-.052-.392-.89-5.03-2.192-12.354 1.471-.294 2.943-.541 4.389-.778.48 3.685.878 6.695 1.165 8.844l.189 1.428c.173 1.278.26 2.035.286 2.185.567-.13.884-.18 1.262-.263 0-.077-.077-.495-.128-1.082l-.317-2.31c-.291-2.154-.695-5.23-1.206-9.05 4.456-.737 8.911-1.38 13.403-1.948.531 6.494.878 11.225.976 12.421 0 0 2.902-.273 3.627-.345-.04-.397-.363-5.19-.853-12.457 6.423-.64 12.876-1.062 19.426-1.15-.373 6.726-.628 11.736-.674 12.416.69-.026.996-.026 1.645-.036 0-.551.301-5.633.66-12.318 3.489-.062 7.03-.082 10.57.026l.123-3.798c-3.495-.134-6.995-.093-10.505-.078.23-4.216.48-8.823.69-13.369 3.46 0 6.857 0 10.31.124.675.046 1.324.113 1.988.15a5909.372 5909.372 0 0 1-3.52 29.346h.756s.613.04.91.067c.036-.552 1.461-12.442 3.49-29.326 2.81.144 5.625.32 8.435.541-2.994 16.58-5.165 28.548-5.262 29.15.69.047.986.083 1.589.109.076-.474 2.238-12.524 5.247-29.146 2.417.232 4.86.51 7.27.815-3.51 16.549-6.049 28.33-6.156 28.944.639.103.925.103 1.512.18.102-.5 2.642-12.333 6.193-28.944a230.91 230.91 0 0 1 18.23 2.984c-4.598 15.426-8.394 28.218-8.548 28.718.741.15 1.983.392 2.57.551.052-.098.215-.598.445-1.396.378.061.838.165 1.216.21.092-.442 4.46-13.4 7.27-21.78-.168-.051-.863-.262-1.517-.494.532-1.675 1.053-3.386 1.61-5.128 4.655 1.005 9.263 2.113 13.816 3.39-6.065 15.695-10.46 27.1-10.679 27.657.567.123.848.232 1.323.376.18-.48 4.579-11.9 10.654-27.682 1.267.361 2.524.686 3.776 1.016a5270.383 5270.383 0 0 1-11.757 27.346c.73.201.996.237 1.61.454.372-.887 6.207-14.488 11.695-27.285 5.774 1.773 11.445 3.83 17.101 6.004a12529.699 12529.699 0 0 0-12.65 27.058c1.18.418 2.671.892 3.642 1.196.215-.469 5.401-11.297 12.85-26.749a214.618 214.618 0 0 1 14.133 6.262l.828-1.747a288.896 288.896 0 0 0-14.122-6.246c1.951-4.067 4.056-8.427 6.294-13.03a267.07 267.07 0 0 1 15.85 7.185c-5.87 9.354-11.486 18.204-15.85 25.146-.265-.124-.495-.253-.781-.376l-1.574 3.453c.097.057.174.103.296.19-4.036 6.35-6.657 10.535-6.862 10.829.532.263.838.433 1.293.624.296-.475 3.495-5.54 6.847-10.824 5.354 2.582 10.612 5.402 15.814 8.365-4.63 5.71-7.675 9.499-7.997 9.885.67.366.93.516 1.461.804.23-.288 3.26-4.045 7.95-9.864a168.522 168.522 0 0 1 5.105 3.113c-.26.603-.562 1.185-.848 1.762-4.23 8.695-5.38 11.488-5.38 11.488s1.824 3.31 3.735.887c1.338-1.706 4.077-7.298 6.392-11.653 4.675 3.056 9.243 6.22 13.734 9.596-4.328 4.804-8.109 8.906-8.39 9.257.169.165.838.706 1.089.99.168-.15 3.684-3.902 8.696-9.205 1.788 1.37 3.51 2.814 5.283 4.267-4.793 4.123-9.049 7.808-9.79 8.447.598.454.849.69 1.303 1.077.532-.474 4.865-4.226 9.76-8.488 2.181 1.799 4.332 3.664 6.478 5.546-5.88 4.932-9.575 8.076-9.933 8.354.542.5.782.701 1.17 1.093.24-.201 3.97-3.366 9.928-8.386 1.078.933 2.156 1.881 3.235 2.876-5.677 4.185-9.954 7.365-10.531 7.834.536.505.792.763 1.216 1.129.409-.294 4.731-3.515 10.525-7.855 3.613 3.428 7.087 7.015 10.48 10.643-6.683 4.268-11.139 7.107-11.46 7.277.321.35.49.516.745.81.215-.155 4.69-3 11.42-7.293 2.029 2.185 4.031 4.37 5.994 6.648l2.84-2.453c-1.773-2.165-3.704-4.195-5.59-6.277 3.373-2.124 7.17-4.546 11.226-7.097 2.77 3.077 5.554 6.159 8.17 9.406-15.303 8.256-26.559 14.348-27.157 14.652.465.485.629.711.925 1.057.43-.201 11.7-6.278 27.116-14.58a262.912 262.912 0 0 1 9.197 12.085c-15.742 7.798-26.727 13.318-27.412 13.643.475.654.685.953 1.032 1.479.424-.222 11.517-5.742 27.397-13.617 1.165 1.716 2.31 3.505 3.413 5.226-15.814 6.035-28.787 10.973-29.374 11.174.265.33.414.5.613.747.358-.134 13.377-5.097 29.293-11.132 1.553 2.34 3.208 4.654 4.675 7.076.158.263.291.526.45.799-16.724 5.654-29.18 9.828-29.82 10.03.368.474.49.695.787 1.061.42-.154 12.856-4.35 29.697-10.045a330.874 330.874 0 0 1 7.347 13.153c-3.638 2.768-8.155 3.407-11.021 3.99-3.904.762-14.67.803-17.602 1.494-2.862.7-.695 3.685-.695 3.685s2.866.087 12.191-.17c6.775-.165 14.332-.52 19.707-3.897.68 1.412 1.375 2.825 2.07 4.247-4.91 1.299-28.118 7.478-30.243 8.03.49.99.858 1.711 1.205 2.453.95-.263 16.954-4.473 30.213-7.906a271.457 271.457 0 0 1 6.847 16.348c-16.162 2.948-29.998 5.5-31.03 5.654.276.706.408 1.005.638 1.572.66-.17 14.639-2.69 30.954-5.628.649 1.835 1.323 3.7 1.957 5.571a16383.383 16383.383 0 0 1-31.199 4.696c.23.747.347 1.04.531 1.592.552-.098 13.745-2.082 31.224-4.736 2.07 6.19 3.873 12.426 5.478 18.745l1.809-.46c-1.569-6.256-3.342-12.43-5.406-18.517 4.578-.711 9.442-1.48 14.398-2.211a267.247 267.247 0 0 1 6.622 24.465c-9.968.676-20.81 1.413-29.717 1.995a224.64 224.64 0 0 0-5.937-20.657l-3.582 1.216c2.213 6.52 4.068 13.076 5.692 19.714-8.2.557-14.071.964-14.756 1.01.348 1.3.823 3.134 1.063 4.129.516-.01 6.653-.371 14.664-.825a217.597 217.597 0 0 1 3.296 17.554c-7.363-.221-12.013-.35-12.426-.35.122.644.158.948.245 1.469.255 0 4.966.134 12.344.345.88 6.283 1.528 12.519 1.886 18.848-8.732-1.072-14.552-1.758-15.114-1.804.056.7.077 1.041.107 1.644.394.041 6.275.763 15.088 1.85.379 6.963.445 13.978.2 21.018 0 .082 0 .103-.03.14-8.948-1.81-14.655-2.954-15.145-3.068-.067.758-.067 1.52-.113 1.696.373.077 6.08 1.196 15.14 3.036-.19 4.973-.552 9.937-1.068 14.915-1.518 0-3.05.041-4.502.078-10.07.293-13.192.546-13.192.546s-2.131 3.38 1.011 3.963c.133.005.297.005.414.041-.02.253-.066.464-.117.804.337.073 6.06 1.913 15.052 4.783-.158 1.088-.27 2.201-.434 3.278-8.88-3.149-14.639-5.17-15.063-5.329-.133.69-.133 1.02-.27 1.567.321.087 6.105 2.139 15.031 5.293-.848 4.942-1.814 9.792-2.968 14.57-8.778-3.592-14.45-5.88-14.869-6.082-.184.676-.23 1.005-.398 1.598.316.16 6.008 2.474 14.853 6.118-.884 3.633-1.773 7.272-2.815 10.87l3.627 1.046c1.012-3.474 1.865-6.974 2.708-10.483 3.73 1.535 7.915 3.267 12.39 5.081-1.675 6.71-3.683 13.4-5.942 19.967-16.994-7.979-29.772-13.91-30.38-14.21-.363 1.108-.91 2.752-1.16 3.654.44.207 13.167 6.35 30.15 14.54a258.386 258.386 0 0 1-12.635 29.006c-15.737-10.607-27.612-18.632-28.194-18.998-.256.536-.389.8-.639 1.273.465.268 12.36 8.319 28.184 18.951-3.868 7.515-8.083 14.808-12.743 21.884-3.362-2.757-6.867-5.664-10.23-8.422 2.56-3.958 5.049-7.998 7.4-12.189l-3.332-1.834c-2.207 3.932-4.568 7.767-7.015 11.606-6.96-5.7-12.605-10.333-13.254-10.895-.389.613-.557.866-.905 1.391.445.382 4.38 3.629 9.647 7.963l.163.114c1.125.907 2.254 1.84 3.46 2.824-5.284 8.066-11.001 15.859-17.21 23.223-4.547-4.592-8.593-8.684-10.019-10.111 0 0-2.703 2.664-3.03 3.01.245.231 4.359 4.545 10.04 10.57-5.896 6.752-12.104 13.21-18.818 19.255-6.422-8.308-10.617-13.802-10.909-14.111-.531.438-.715.613-1.236 1.046.286.34 4.476 5.726 10.924 14.122-2.207 1.958-4.384 3.937-6.642 5.818l2.406 2.928c2.207-1.845 4.394-3.809 6.566-5.757 25.813 33.423 80.464 104.135 81.466 105.454.086-.082.654-.587 1.23-1.062-.735-.969-35.347-45.75-62.514-80.921 7.578-6.803 14.726-14.009 21.506-21.59 3.495 3.7 6.806 7.185 9.647 10.138-6.893 7.653-14.097 15.003-21.777 21.837l1.89 2.123c7.726-6.865 14.92-14.24 21.828-21.914 3.904 4.097 6.581 6.886 6.76 7.092.511-.402 1.66-1.438 1.66-1.438s1.074 1.15 2.714 2.845c-6.371 7.133-13.044 14.096-20.065 20.574l.966 1.057c7.02-6.505 13.678-13.467 20.1-20.642 3.036 3.16 7.292 7.577 10.419 10.829a330.31 330.31 0 0 1-20.06 20.502l.618.727c7-6.525 13.688-13.395 20.111-20.518 1.814 1.87 3.194 3.226 3.403 3.484.107-.077.46-.36.807-.716-.245-.294-1.68-1.722-3.484-3.598.352-.407.7-.788 1.068-1.18 1.839 1.881 3.285 3.33 3.571 3.639.399-.392.782-.743.782-.743-.118-.144-1.446-1.49-3.628-3.705a390.391 390.391 0 0 0 9.534-11.226 332.721 332.721 0 0 0 26.984-39.406l-.798-.464c-8.021 13.647-17.075 26.893-26.942 39.226-3.096 3.783-6.218 7.525-9.473 11.184-2.606-2.618-6.233-6.318-10.515-10.658.884-1.077 1.916-2.036 2.805-3.077l-1.099-.964c-.863 1.031-1.798 2.02-2.713 3.03-3.014-3.05-6.3-6.416-9.754-9.9 8.053-9.292 15.513-19.136 22.364-29.403l-2.37-1.582a280.245 280.245 0 0 1-22.027 28.929c-3.235-3.227-6.55-6.623-9.851-9.983 7.056-8.21 13.683-16.802 19.702-25.837.843.68 1.45 1.216 1.62 1.325.418-.521.613-.758 1.032-1.279-.174-.128-.843-.69-1.727-1.432 4.93-7.535 9.452-15.328 13.662-23.255a5606.59 5606.59 0 0 1 25.69 17.307c-1.149 2.103-2.283 4.237-3.5 6.34l1.217.7c1.206-2.046 2.335-4.149 3.454-6.257 21.521 14.452 39.813 26.821 40.462 27.254.322-.52.705-1.185.705-1.232-.526-.376-18.905-12.77-40.462-27.28a304.6 304.6 0 0 0 16.074-35.34c23.555 11.35 43.717 21.064 44.473 21.379.21-.552.297-.794.476-1.283-.95-.48-27.811-13.406-44.438-21.394.22-.619.45-1.237.695-1.866 4.062 1.917 8.768 4.082 13.53 6.324-.168.37-.301.835-.465 1.252l.946.284c.102-.35.255-.763.357-1.165 14.47 6.772 29.451 13.771 30.35 14.189.19-.562.297-.82.476-1.33-.49-.201-13.28-6.159-30.335-14.148 2.749-7.493 5.242-15.028 7.429-22.692 27.468 11.313 50.655 20.842 51.483 21.208.24-.758.45-1.412.5-1.577-.73-.299-23.973-9.865-51.585-21.193 1.681-6.138 3.163-12.277 4.512-18.446 21.419 7.54 38.199 13.509 38.883 13.72.159-.67.348-1.495.348-1.495-.573-.226-17.398-6.164-38.873-13.76.409-1.954.822-3.923 1.16-5.866 28.46 9.087 52.556 16.72 53.43 17.008.035-.139.143-.84.352-1.613-.746-.201-24.904-7.88-53.48-16.998.817-4.417 1.527-8.849 2.145-13.276 4.261-2.026 9.253-3.36 12.028.742 4.45 6.582 14.93 13.4 20.371 13.534 3.388.098 6.76-1.252 9.642-3.066 5.048-3.18 7.889-6.04 14.184-4.85 7.046 1.386 12.983 5.159 18.256 9.962 0 0-7.281-21.543-22.303-14.956-14.925 6.602-20.928 13.142-26.559 4.829-5.64-8.34-8.942-16.415-21.26-12.179-1.334.48-2.545.923-3.684 1.325.628-4.809 1.139-9.638 1.512-14.488 35.27 7.102 66.898 13.431 67.971 13.642.103-.685.118-1.025.21-1.618-.884-.221-32.588-6.587-68.002-13.683.368-4.48.587-9.02.756-13.581l-.91-.031a309.517 309.517 0 0 1-.766 13.41c-4.89-.938-9.815-1.943-14.771-2.953.255-3.633.52-7.277.669-10.972.189-5.087.194-10.2.143-15.313 16.825 2.093 29.752 3.639 30.447 3.727.077-.691.133-.995.22-1.619-.7-.072-13.709-1.67-30.667-3.747-.19-8.467-.761-16.848-1.62-25.207 25.818.7 48.132 1.267 48.924 1.319 0-.072-.052-.86-.113-1.453-.659-.021-23.023-.64-48.939-1.34-2.018-18.838-5.707-37.371-11.22-55.472 5.222-.804 10.25-1.541 14.843-2.226.547 1.906 1.196 3.86 1.702 5.834l.935-.268c-.527-1.897-1.155-3.814-1.712-5.706 14.317-2.19 24.561-3.72 25.19-3.84-.143-.659-.19-.953-.286-1.638-.578.118-10.93 1.68-25.364 3.85-3.464-11.463-7.531-22.755-12.258-33.8 8.268.562 10.812-6.097 14.987-13.029 4.762-7.932 10.658-2.237 24.78 3.087 14.113 5.263 19.784-15.003 19.784-15.003-4.634 4.742-9.922 8.546-16.335 10.143-5.753 1.485-8.502-1.067-13.34-3.716-2.719-1.494-5.933-2.571-9.05-2.314-4.991.428-14.342 7.252-18.123 13.514-1.078 1.922-2.835 2.577-4.716 2.639a317.35 317.35 0 0 0-10.612-21.508c16.54-5.586 28.771-9.689 29.344-9.91a13.015 13.015 0 0 1-.624-1.078c-.485.16-12.722 4.304-29.308 9.87-3.168-5.798-6.494-11.596-10.04-17.214l-.787.5a328.004 328.004 0 0 1 9.892 17.033c-8.88 3-18.946 6.396-29.088 9.834-1.763-3.123-3.602-6.174-5.467-9.205 14.117-5.37 25.225-9.591 25.675-9.782-.02-.02-.286-.412-.48-.737-.389.165-11.497 4.35-25.711 9.762-1.691-2.773-3.5-5.453-5.324-8.19 40.63-20.183 87.648-43.592 88.905-44.215-.373-.676-.537-.949-.874-1.541-1.037.474-48.27 23.976-89.033 44.267-3.07-4.464-6.254-8.901-9.555-13.22 29.513-15.92 59.424-32.052 60.323-32.563-.358-.505-.516-.695-.828-1.118-.715.423-30.713 16.58-60.327 32.573-3.035-3.948-6.229-7.824-9.478-11.597 15.589-9.931 28.475-18.141 28.97-18.45a12.66 12.66 0 0 0-.674-.825c-.404.237-13.356 8.457-28.986 18.42-.113-.072-.19-.227-.276-.335l-2.13 1.886c-3.915 2.53-7.94 5.061-11.967 7.633-3.904-4.365-7.879-8.653-12.033-12.766 3.045-2.283 5.12-3.82 5.482-4.061-.413-.562-.608-.82-.96-1.346-.368.263-2.54 1.882-5.677 4.237a167.309 167.309 0 0 0-4.609-4.376c7.583-6.365 15.666-13.21 23.703-19.966a326.156 326.156 0 0 1 10.73 10.751l1.017-.969c-3.47-3.67-7.02-7.22-10.628-10.705 26.62-22.398 52-43.808 52.76-44.504 0 0-.602-.654-1.036-1.16-.67.568-26.15 22.034-52.904 44.582-9.836-9.395-20.234-18.09-31.219-26.006 1.988-3.016 1.86-6.845 1.84-9.247 0-1.675-.276-4.71-.036-7.777 5.41 3.752 10.791 7.618 16.038 11.69l.568-.753c-5.386-4.211-10.935-8.154-16.525-12.014.45-3.793 1.82-7.34 5.764-7.824 7.444-.82 17.832-6.741 20.351-11.287 1.584-2.85 1.947-6.34 1.727-9.524-.398-5.767-1.558-9.442 2.253-14.266 4.267-5.37 10.056-8.767 16.448-11.117 0 0-21.302-3.376-22.426 12.266-1.119 15.689 1.727 23.713-7.787 24.842-9.437 1.098-17.704.273-19.615 12.658a42.523 42.523 0 0 0-.25 1.814c-1.13-.727-2.197-1.443-3.332-2.118 6.52-8.087 10.94-13.55 11.257-13.967-.496-.433-.736-.588-1.257-1.041-.322.407-4.788 5.963-11.374 14.121a311.323 311.323 0 0 0-24.199-13.946c4.655-7.39 7.88-12.555 8.13-12.905-.348-.217-.87-.495-.987-.583-.148.273-3.346 5.345-8.19 12.967-6.806-3.52-13.745-6.818-20.847-9.808 13.929-28.975 26.069-54.244 26.508-55.085-.618-.273-.925-.376-1.507-.613-.766 1.603-7.01 14.57-7.01 14.57l-1.962-.912s5.932-12.704 6.806-14.498c-.46-.155-.874-.345-1.544-.582-.342.732-12.206 26.089-25.797 55.188-5.176-2.072-10.357-4.072-15.63-5.901a238.096 238.096 0 0 0-10.94-3.577c7.808-20.25 13.903-36.103 14.138-36.737-.398-.145-.72-.253-1.277-.423-.22.52-6.351 16.436-14.179 36.825a306.267 306.267 0 0 0-45.035-10.025c5.58-26.027 10.183-47.534 10.367-48.328-.705-.113-1.252-.154-1.558-.206-.102.685-4.752 22.255-10.347 48.354-3.147-.448-6.31-.897-9.493-1.206 4.026-22.358 7.189-40.056 7.322-40.778-.65-.072-.946-.082-1.559-.144-.117.624-3.3 18.343-7.368 40.778-4.036-.433-8.124-.768-12.247-1.057 3.827-31.82 7.123-59.615 7.25-60.543-.68-.015-.98-.051-1.65-.103-.102.856-3.388 28.66-7.245 60.595-2.504-.15-5.018-.366-7.506-.439l-.046.944c2.488.098 4.982.252 7.429.433a5585.51 5585.51 0 0 1-3.607 30.31c-1.63-.114-3.265-.263-4.905-.32l-.087 2.87c1.579.047 3.096.202 4.685.29-.603 4.762-1.15 9.426-1.691 13.951-1.155-.067-2.32-.139-3.49-.206-3.31-.098-6.652-.186-9.948-.186.158-3.112.255-5.2.286-5.592-.664-.01-.96-.04-1.655-.082 0 .366-.113 2.5-.302 5.69-7.874.088-15.773.48-23.631 1.252-.746-11.132-1.507-22.198-2.09-30.877 12.712-1.19 25.532-1.597 38.439-1.103l.046-1.469c-12.953-.448-25.839-.02-38.567 1.165-.587-8.633-1.011-14.467-1.032-14.9-.955.016-3.173.114-3.173.114s-1.21-14.988-1.318-16.653c-.69.01-1.002.042-1.64.042.036.685 1.16 14.327 2.565 31.85a291.6 291.6 0 0 0-16.754 2.305c-3.745-28.703-7.133-54.426-7.225-55.23-.552.083-.777.17-1.303.242.107.804 3.515 26.492 7.281 55.24-2.498.433-4.992.81-7.48 1.299-4.578-25.883-8.63-48.36-8.737-49.246-.685.14-.997.18-1.625.31.133.85 4.174 23.414 8.793 49.302a250.163 250.163 0 0 0-17.224 4.087c-1.655-6.448-2.754-10.674-2.846-11.117-.649.165-.94.252-1.615.412.292 1.072 1.707 6.582 2.892 11.122a252.04 252.04 0 0 0-11.634 3.417c-.409-3.396.905-7.638 2.509-14.065 2.815-11.503-5.191-13.24-13.632-17.028-8.436-3.804-2.81-10.025 1.967-24.182 4.788-14.163-16.401-17.534-16.401-17.534 5.109 3.974 9.289 8.695 11.266 14.73 1.783 5.396-.695 8.287-3.23 13.24-1.41 2.747-2.375 5.922-1.961 8.917.69 4.767 8.19 13.075 14.873 16.039 6.633 3.004.65 12.957-.807 16.425-1.492 3.49-4.92 10.421 3.628 14.606 8.553 4.098 6.208 6.288 4.082 13.174-2.13 6.896 1.916 17.348 8.513 20.146a11.33 11.33 0 0 1 2.887 1.753 230.205 230.205 0 0 0-11.926 4.154c-3.25-8.36-6.928-17.941-10.817-27.924.475-.175.93-.418 1.39-.552l-.945-2.685a26.66 26.66 0 0 0-1.451.572c-3.623-9.364-7.368-19.043-10.935-28.341 1.927-.753 3.843-1.505 5.805-2.2l-.337-.934c-1.983.727-3.873 1.526-5.835 2.253-11.548-29.836-21.593-55.884-21.92-56.699-.736.263-1.375.552-1.538.567.322.856 10.403 26.857 21.925 56.709a358.524 358.524 0 0 0-10.95 4.473c-6.826-15.095-11.905-26.13-12.079-26.583a1.93 1.93 0 0 0-.148.015s-.567.253-1.15.484c.23.531 5.376 11.71 12.171 26.636a85.915 85.915 0 0 0-3.25 1.407c-7.137-14.792-12.436-25.935-12.702-26.409-.505.212-.694.284-1.231.547.245.52 5.62 11.725 12.702 26.408-5.385 2.438-10.76 4.99-16.008 7.736-15.471-27.908-28.92-52.163-29.333-52.967-.624.372-1.293.727-1.293.727s-.092.077-.128.077c.394.81 13.852 25.033 29.288 52.92-3.873 2.083-7.71 4.176-11.502 6.407-19.676-31.5-37.708-60.29-38.24-61.136-.597.382-1.236.768-1.236.768s-.168.134-.26.134c.541.907 18.568 29.682 38.26 61.152-7.685 4.499-15.17 9.4-22.462 14.59a39390.182 39390.182 0 0 1-27.36-34.402c-.093.082-.256.196-.256.196s-.476.32-.946.67c.47.556 12.416 15.611 27.357 34.356a310.735 310.735 0 0 0-23.284 18.482l.603.685c7.551-6.52 15.282-12.663 23.283-18.41 6.02 7.592 12.514 15.73 18.91 23.796-4.812 3.407-9.498 7.035-14.142 10.772-7.373-8.04-12.805-13.957-13.045-14.189l-1.39 1.124s-.587.52-1.016.896c.23.227 5.758 6.061 13.294 13.967-5.503 4.541-10.975 9.226-16.192 14.287l1.957 2.062c5.217-5.02 10.638-9.72 16.187-14.287 3.005 3.164 6.295 6.612 9.647 10.102-7.807 6.396-15.288 13.194-22.364 20.41a9211.322 9211.322 0 0 0-23.82-19.555c5.145-5.36 10.397-10.565 15.915-15.534l-.955-1.077c-5.549 5.02-10.858 10.313-16.054 15.714-18.64-15.353-34.407-28.3-35.036-28.856-.44.536-.639.778-1.058 1.293.65.541 16.35 13.467 34.97 28.733a328.525 328.525 0 0 0-15.13 17.111c-26.283-17.786-61.528-41.669-62.499-42.375-.117.129-.25.314-.25.314s-.393.52-.787 1c.92.608 31.367 21.25 62.479 42.293-2.207 2.773-4.318 5.587-6.412 8.36-3.276-4.165-8.605-3.397-11.604-3.113-3.766.402-14.96 3.097-16.483-4.103-1.559-7.195-8.16-16.77-12.759-18.811-2.902-1.279-6.28-1.294-9.33-.774-5.462.923-8.931 2.412-13.938-.87-5.544-3.65-9.33-8.994-12.166-15.014 0 0-1.252 21.136 13.872 20.75 15.14-.382 22.594-3.902 24.526 5.267 1.962 9.138 1.962 17.23 14.03 17.93 10.322.604 15.457.191 18.854 5.433a290.395 290.395 0 0 0-10.024 15.08c-21.946-10.751-42.66-20.91-51.724-25.352-.117.263-.235.505-.235.505s-1.047 2.2-1.144 2.469c6.085 2.891 27.99 13.323 51.754 24.615a304.136 304.136 0 0 0-8.528 14.781c-28.005-10.447-53.088-19.76-53.782-20.043-.256.464-.389.7-.654 1.175.838.304 25.864 9.638 53.787 20.09-2.033 3.798-4.036 7.669-5.855 11.545A81484.187 81484.187 0 0 0 30.1 223.865c-.291.578-.358.877-.68 1.52 1.135.403 36.845 12.489 70.72 23.982-.46.99-.898 1.984-1.363 3.025-34.193-10.916-70.22-22.337-71.201-22.667 0 0-.307.784-.634 1.536 1.078.325 35.588 11.298 71.145 22.647-.96 2.097-1.978 4.164-2.882 6.251l1.308.562c.91-2.16 1.967-4.257 2.928-6.38 9.979 3.185 20.014 6.37 29.374 9.328-2.943 6.288-5.57 12.704-8.027 19.137-4.552-1.13-9.14-2.232-13.642-3.32 1.91-5.154 3.893-10.235 6.126-15.255l-2.585-1.144c-2.31 5.154-4.348 10.4-6.31 15.704-10.899-2.644-21.322-5.18-29.518-7.164 2.626-7.33 5.447-14.596 8.574-21.709l-.859-.376c-3.193 7.185-6.024 14.503-8.655 21.837-9.611-2.37-16.054-3.906-16.396-3.973l-.297 1.54s.02.052 0 .063c.389.097 6.699 1.623 16.151 3.886-1.568 4.422-2.994 8.89-4.353 13.369a51521.34 51521.34 0 0 1-57.425-9.726c-.17.578-.261.892-.42 1.608.915.119 26.953 4.546 57.35 9.67-1.16 3.88-2.198 7.797-3.225 11.73-27.601-3.371-50.446-6.15-51.268-6.268-.097.68-.113.995-.19 1.67.803.088 23.566 2.876 51.04 6.17-4.339 17.404-7.271 35.15-8.692 53.177-5.457-3.84-12.748-6.653-16.687-6.158-3.199.38-6.173 2.123-8.57 4.195-4.265 3.731-6.514 6.813-12.558 6.581-6.734-.283-12.815-2.968-18.379-6.684 0 0 9.795 19.07 22.824 10.771 13.019-8.272 17.684-15.255 24.142-8.303 3.061 3.371 5.636 6.7 8.692 8.695-.072 1.52-.225 3.139-.261 4.706-.163 4.38-.23 8.751-.204 13.065-21.389 3.236-37.974 5.746-38.684 5.855.107.675.158.943.255 1.633.71-.118 17.178-2.623 38.47-5.818a318.484 318.484 0 0 0 8.057 68.562c-13.203 5.18-22.553 8.84-22.921 9.004.051.15.22.81.317 1.289.49-.212 9.79-3.85 22.921-9.004a315.983 315.983 0 0 0 2.642 10.565c-31.863 13.514-59.873 25.404-60.686 25.739.184.551.297.917.537 1.628.991-.432 28.904-12.281 60.603-25.718.716 2.52 1.38 5.103 2.136 7.587a334.498 334.498 0 0 0 7.71 22.476l.869-.32c-2.815-7.354-5.426-14.9-7.69-22.445-.761-2.535-1.44-5.092-2.146-7.669 4.548-1.912 9.141-3.865 13.8-5.839a328.733 328.733 0 0 0 3.353 11.7c-6.285 3.494-10.424 5.808-10.628 5.916.174.459.204.778.312 1.129.296-.165 4.394-2.495 10.658-5.953 1.834 5.788 3.847 11.431 5.993 17.121a17650.215 17650.215 0 0 0-35.53 21.25c.163.51.275.752.48 1.299.613-.346 16.273-9.762 35.52-21.245v.036l1.355-.52a1.113 1.113 0 0 0-.123-.248c3.99-2.401 8.109-4.829 12.252-7.328.491 1.34.895 2.685 1.431 4.03 1.472 3.762 3.096 7.385 4.7 11.045-12.727 8.88-22.65 15.884-22.961 16.09.061.124.27.64.414 1.041.444-.345 10.31-7.251 22.967-16.152 1.257 2.788 2.606 5.535 3.919 8.282-1.564.268-3.664.145-6.78-.598-10.21-2.494-12.897 5.706-14.425 9.638-1.538 3.943-4.547 16.348-12.313 14.266-7.746-2.118-20.418-.391-24.72 3.15-2.713 2.185-4.415 5.524-5.452 8.813-1.86 5.865-2.14 9.998-7.828 13.27-6.366 3.701-13.484 4.717-20.76 4.526 0 0 19.927 11.86 27.168-3.288 7.26-15.132 7.603-24.26 17.438-21.61 9.902 2.7 17.756 6.777 24.546-4.789 6.77-11.565 8.523-16.9 18.67-15.92 1.738.201 4.614.067 7.695-.892 1.007 1.959 2.11 3.897 3.214 5.855-24.694 18.23-48.32 35.665-48.959 36.119.301.422.45.644.792 1.144.73-.546 24.26-17.946 48.81-36.041 3.71 6.628 7.578 13.235 11.804 19.59-10.73 9.385-35.225 30.836-36.262 31.763.546.598 1.926 2.036 1.926 2.036s-3.066 2.732-5.37 4.773c.163.165 1.768 1.814 1.926 1.984 3.444-3.118 15.073-13.679 28.95-26.295 10.674 15.332 22.728 29.717 36.002 42.798l.966-1.005c-13.213-13.07-25.277-27.47-35.925-42.737 3.408-3.102 6.913-6.308 10.47-9.509 11.521 16.75 24.709 32.372 39.46 46.365l1.906-2.108a304.99 304.99 0 0 1-11.951-12.08c1.66-2.078 4.874-6.082 8.93-11.061 5.29 5.71 10.69 11.292 16.448 16.554l.95-1.092c-5.747-5.288-11.2-10.875-16.518-16.59 5.712-7.04 12.661-15.674 18.731-23.157 4.967 5.545 10.188 10.936 15.64 15.992-22.798 32.408-67.946 96.662-68.717 97.719 0 .02.633.484 1.221.953.889-1.304 45.934-65.315 68.615-97.62 2.75 2.474 5.467 5 8.288 7.365l2.427-2.912c-2.933-2.474-5.707-5-8.518-7.602 6.3-8.958 10.45-14.849 10.659-15.153a66.217 66.217 0 0 1-1.114-.994c-.337.391-4.425 6.256-10.674 15.11-5.396-5.024-10.505-10.322-15.395-15.868 6.285-7.767 11.113-13.746 11.456-14.22-.378-.443-.608-.67-1.068-1.242-.511.593-5.278 6.53-11.466 14.194-5.17-5.87-10.152-11.988-14.736-18.384-2.14-3-4.123-6.05-6.116-9.102 7.48-6.818 12.462-11.328 12.718-11.58-.445-.68-1.237-1.877-1.855-2.804-.521.474-5.906 5.2-12.845 11.276-3.275-5.277-6.305-10.704-9.197-16.209 8.45-6.256 14.046-10.39 14.286-10.57-.24-.444-.353-.645-.664-1.186-.353.289-5.917 4.35-14.256 10.525-.036-.098-.071-.16-.087-.227 2.719-2.051 5.31-4.345 7.746-6.577 7.629-7.014 9.872-9.318 9.872-9.318s-.542-4.015-3.393-2.35c-1.952 1.118-6.535 5.324-10.433 8.669-2.029 1.469-4.185 3.097-6.28 4.67-1.563-3.273-3.132-6.582-4.573-9.963l-3.454 1.505c1.482 3.51 3.107 6.968 4.813 10.42-3.459 1.84-7.792 3.263-12.687 1.84-.342-.102-.72-.102-1.062-.17-1.319-2.85-2.611-5.674-3.833-8.55 15.477-10.807 28.476-19.966 28.843-20.239-.117-.371-.199-.582-.367-1.026-.522.387-13.495 9.473-28.895 20.286a282.169 282.169 0 0 1-4.89-12.859c16.698-9.998 29.477-17.626 29.866-17.884-.138-.495-.22-.758-.394-1.35-.603.381-13.356 7.988-29.906 17.868a252.939 252.939 0 0 1-3.203-9.761c-.603-2.041-1.15-4.092-1.697-6.154 16.397-9.138 30.141-16.812 30.53-17.018-.077-.428-.113-.67-.195-1.124-.597.274-14.316 7.927-30.657 17.044a324.734 324.734 0 0 1-1.62-6.478c18.053-7.664 30.923-13.122 31.404-13.36-.133-.545-.184-.88-.368-1.659-.71.346-13.535 5.768-31.408 13.334a162.631 162.631 0 0 1-1.937-8.948c17.771-6.978 31.342-12.292 31.807-12.498-.107-.459-.118-.711-.21-1.299-.674.263-14.22 5.546-31.832 12.499a257.905 257.905 0 0 1-3.653-26.955c3.255-.902 8.058-2.15 12.998-3.469.465 6.695 1.15 13.359 2.182 19.935l3.72-.587c-1.042-6.752-1.753-13.524-2.192-20.327 7.92-2.134 15.21-4.056 15.906-4.283-.026-.758-.102-1.577-.174-2.665-.797.232-7.531 2.01-15.921 4.196-.286-5.304-.358-10.587-.286-15.874l15.9-2.923c.01-.577.01-.933.01-1.664-.612.082-6.861 1.236-15.885 2.89.01-1.416-.025-2.808.031-4.23 0-.253.056-.526.056-.784 9.422-1.443 15.574-2.366 15.916-2.417.03-.474.067-1.15.067-1.67-.522.067-6.597 1.015-15.896 2.407.056-1.14.118-2.299.204-3.474 5.023.541 10.562-.366 15.656-1.299 9.33-1.67 12.191-2.427 12.191-2.427s1.543-3.386-1.492-3.515c-2.994-.103-13.831 2.15-17.847 2.2-2.151.057-5.1.212-8.13-.432.2-2.665.44-5.35.741-7.948 9.157-.613 15.406-1.046 15.824-1.072.108-.979.307-2.638.491-3.978-.67.067-6.97.381-15.737.912a244.07 244.07 0 0 1 4.062-22.368c7.393.459 14.587.84 15.425.881.097-.593.21-.886.378-1.639-1.098-.072-8.185-.438-15.435-.82.98-4.169 2.125-8.323 3.372-12.451 9.003 1.098 14.736 1.82 15.088 1.82.159-.568.256-.846.49-1.568-.464-.056-6.182-.773-15.082-1.819.812-2.67 1.655-5.324 2.529-7.927 8.9 1.5 14.536 2.47 14.889 2.52.174-.577.296-.87.526-1.566-.455-.072-6.06-1.036-14.823-2.515.665-1.86 1.298-3.742 1.998-5.577l-3.515-1.36c-.828 2.066-1.512 4.19-2.233 6.298-8.175-1.356-18.353-3.103-29.517-4.979 1.073-3.345 2.335-6.602 3.535-9.865a33365.002 33365.002 0 0 0 47.186 11.458c.113-.536.19-.846.379-1.552-.777-.221-22.738-5.514-47.023-11.478 2.478-6.375 5.11-12.725 8.037-18.981 4.864 1.54 9.478 3.02 13.888 4.406-.051.108-.113.19-.148.294l1.706.825c.072-.186.169-.366.26-.542 17.409 5.54 29.8 9.494 30.264 9.664.516-1.036 1.676-3.314 2.335-4.639-.659-.226-12.855-4.365-29.992-10.132a219.792 219.792 0 0 1 5.446-10.138c16.877 6.298 29.221 10.839 29.676 11.076.271-.438.424-.675.751-1.19-.598-.233-12.922-4.82-29.762-11.092.792-1.33 1.517-2.66 2.304-4.015 12.891 5.654 27.887 12.194 28.802 12.617.322-.536.496-.81.879-1.412-1.211-.552-16.029-7-28.833-12.617 1.109-1.809 2.3-3.597 3.429-5.401 12.38 5.896 22.027 10.483 25.705 12.21-.93 1.02-1.905 2.025-2.815 3.045l4.088-4.313zm416.167 156.874c-.168 1.201-.317 2.418-.48 3.644-5.09-1.665-9.064-2.896-11.65-3.742 3.608.052 8.523-.04 12.13.098zM160.601 239.26c-4.103-1.964-8.466-4.118-13.019-6.308a260.437 260.437 0 0 1 9.642-13.936c1.165 1.262 2.1 3.076 2.524 5.823.516 3.557 2.269 6.335 4.767 8.623-1.359 1.928-2.636 3.86-3.914 5.798zm-4.64 7.2c-5.287-2.345-10.044-4.412-13.207-5.793a209.492 209.492 0 0 1 3.602-5.87c4.573 2.18 8.977 4.247 13.131 6.236-1.185 1.763-2.386 3.561-3.525 5.427zM152.82 252c-4.323-1.613-8.922-3.329-13.679-5.081.93-1.613 1.84-3.2 2.75-4.83 3.131 1.387 7.914 3.485 13.284 5.81-.817 1.37-1.594 2.762-2.355 4.102zm-6.127 11.375c-4.353-1.49-8.962-3.015-13.8-4.659 1.338-2.654 2.616-5.283 3.99-7.89.506-.923 1.068-1.804 1.574-2.722 4.772 1.773 9.355 3.484 13.678 5.092-1.9 3.335-3.694 6.731-5.442 10.18zm13.908 6.453l-.654 2.02s-5.145-1.608-13.33-4.226c.362-.742.72-1.407 1.124-2.18 7.899 2.685 12.86 4.386 12.86 4.386zm-15.808-2.809c-4.042-1.268-8.738-2.757-13.868-4.376.384-.819.843-1.649 1.247-2.473 5.105 1.762 9.764 3.319 13.745 4.68-.363.731-.782 1.468-1.124 2.17zm-15.201-4.814c-8.952-2.84-19.09-6.081-29.482-9.36.486-1.01.915-2.035 1.39-3.05 10.321 3.504 20.448 6.932 29.303 9.921-.399.825-.864 1.67-1.211 2.49zm-21.511-25.419c9.672 3.603 19.651 7.298 29.012 10.818-.455.835-.966 1.69-1.446 2.53-1.441 2.691-2.754 5.397-4.103 8.144-9.356-3.164-19.36-6.597-29.324-9.999 1.85-3.875 3.843-7.69 5.86-11.493zm9.136-15.853c9.314 4.417 18.854 8.957 27.836 13.22-1.195 1.994-2.427 3.953-3.607 5.947-1.375-.608-2.305-.994-2.55-1.108-.265.603-.383.887-.618 1.495.204.103 1.068.495 2.335 1.077-.95 1.582-1.87 3.216-2.826 4.86a3125.8 3125.8 0 0 0-29.037-10.813c2.657-5 5.483-9.87 8.467-14.678zm10.873-16.57c.276.608.557 1.134.833 1.778 1.364 3.773 7.286 12.648 19.017 10.504 1.865-.32 5.467-.742 8.288 1.35a261.13 261.13 0 0 0-9.923 14.318c-8.906-4.397-18.44-9.06-27.76-13.638 3.025-4.834 6.198-9.632 9.545-14.312zm11.792-15.606c8.717 5.886 17.475 11.844 25.614 17.363-2.161 2.619-4.292 5.216-6.346 7.901-3.694-3.159-8.359-5.329-12.457-5.344-7.322 0-9.999 1.598-12.283-7.772a13.274 13.274 0 0 0-1.298-3.356c2.197-2.958 4.42-5.9 6.77-8.792zm16.08-18.22a4210.037 4210.037 0 0 1 23.795 19.514c-4.578 4.736-8.962 9.715-13.188 14.791-3.7-2.494-13.611-9.24-25.634-17.337 4.793-5.855 9.856-11.525 15.027-16.967zm22.6 44.433c-3.73 4.494-7.333 9.102-10.751 13.848-1.36-1.675-2.468-3.628-2.923-6.128-.541-2.721-2.289-5.458-4.7-7.736a315.72 315.72 0 0 1 6.473-8.035c4.17 2.799 8.17 5.52 11.9 8.05zm2.304-24.002c3.898 3.18 7.669 6.277 11.235 9.18-4.225 4.277-8.252 8.71-12.17 13.224-6.05-4.139-10.94-7.453-11.543-7.875-.122.237-.25.422-.25.422s-.174-.113-.409-.273c4.22-5.045 8.574-9.973 13.137-14.678zm23.411-21.44c7.123 7.488 14.516 15.23 20.392 21.44a229.463 229.463 0 0 0-19.733 17.621c-3.096-2.53-6.525-5.334-10.24-8.421 3.414-3.448 6.95-6.85 10.608-10.117l-1.226-1.397a222.03 222.03 0 0 0-10.837 10.318c-3.562-2.917-7.312-6-11.2-9.18a265.02 265.02 0 0 1 22.236-20.264zm25.91 17.188c-1.333 1.015-2.733 1.969-4.041 3.04a15629.429 15629.429 0 0 0-19.953-21.738c1.6-1.284 3.224-2.516 4.824-3.737 4.869 5.659 12.681 14.817 19.17 22.435zm-34.412-30.099c4.573-3.71 9.218-7.303 13.99-10.658 10.602 13.312 20.836 26.12 28.092 35.242-2.151 1.464-4.267 3.015-6.382 4.54-6.474-7.622-14.296-16.76-19.16-22.501.924-.711 1.88-1.48 2.84-2.196l-.812-1.134c-1.022.732-1.952 1.541-2.943 2.268-2.085-2.443-3.505-4.071-3.756-4.38-.51.458-.72.638-1.236 1.071.276.32 1.614 1.923 3.7 4.314a230.525 230.525 0 0 0-4.87 3.763c-3.28-3.613-6.52-7.092-9.463-10.329zm-5.513-37.51c7.276-5.19 14.705-10.045 22.37-14.55 5.354 8.592 10.857 17.323 16.145 25.77-4.66 2.747-9.217 5.592-13.693 8.617-4.977-6.767-8.477-11.55-8.82-12.003a21.44 21.44 0 0 1-1.297.98c.296.473 3.827 5.215 8.773 11.925-1.523 1.005-3.066 1.938-4.563 2.99-6.382-8.03-12.866-16.194-18.915-23.73zm35.317-21.842c4.849 8.766 9.871 17.832 14.756 26.692a255.404 255.404 0 0 0-10.06 5.504c-5.274-8.468-10.777-17.188-16.126-25.826 3.755-2.227 7.592-4.304 11.43-6.37zm17.413-8.473c4.082 8.473 8.68 18.043 13.187 27.418-4.869 2.201-9.662 4.495-14.383 6.953-4.874-8.823-9.943-17.915-14.771-26.656 5.273-2.752 10.592-5.272 15.967-7.715zm4.486-1.959c3.832 8.458 8.19 18.09 12.533 27.6-.878.38-1.727.824-2.595 1.216a6714.223 6714.223 0 0 1-13.178-27.424c1.084-.464 2.12-.913 3.24-1.392zm12.058-4.968c3.638 9.323 7.353 18.987 10.99 28.341a362.186 362.186 0 0 0-9.263 3.726c-4.399-9.658-8.747-19.25-12.554-27.635 3.556-1.582 7.194-3.025 10.827-4.432zm-.92 36.35c.89-.391 1.702-.804 2.57-1.185 7.542 16.498 14.782 32.346 18.747 41.102-.582.243-1.16.536-1.773.737a13200.339 13200.339 0 0 0-19.543-40.654zm-15.435 7.427a287.992 287.992 0 0 1 14.235-6.87c8.568 17.843 16.585 34.5 19.544 40.66-1.697.767-3.429 1.422-5.125 2.205-2.34 1.093-4.583 2.252-6.826 3.391a9799.353 9799.353 0 0 1-21.828-39.386zm-11.394 6.216c3.254-1.86 6.606-3.665 9.932-5.443 8.41 15.189 16.233 29.357 21.798 39.355a217.031 217.031 0 0 0-7.849 4.273 26440.267 26440.267 0 0 1-23.881-38.185zm10.224 46.545c-1.002.654-1.962 1.309-2.959 1.99-7.224-9.2-17.469-21.998-28.087-35.31 1.426-1.052 2.949-1.974 4.415-2.974 7.945 10.844 18.793 25.574 26.63 36.294zm-25.262-37.206a262.55 262.55 0 0 1 13.525-8.406c9.29 14.791 17.843 28.46 23.851 38.133-3.653 2.088-7.25 4.232-10.79 6.546-7.824-10.68-18.635-25.45-26.586-36.273zm65.688 22.45c-.164.026-.935.392-1.615.716-.245-.515-.572-1.21-.996-2.035.552-.243 1.145-.5 1.676-.748.378.82.71 1.495.935 2.067zm-.077-22.863c-.184 0-.327.103-.48.134l.69 1.773c.148-.041.332-.108.49-.15 1.748 4.567 3.362 8.726 4.752 12.365a413.514 413.514 0 0 0-6.622 2.7c-4.936-10.776-11.798-25.898-18.741-41.07a267.046 267.046 0 0 1 9.115-3.665c3.853 9.967 7.536 19.497 10.796 27.913zm15.068-3.252c2.75 3.17 3.643 7.2 4.328 9.813.174.629.327 1.598.475 2.618a216.847 216.847 0 0 0-12.87 4.417c-1.406-3.659-3.005-7.834-4.773-12.39 4.23-1.639 8.518-3.092 12.84-4.458zm-5.513-20.502c5.513-10.576-1.497-18.018-4.813-20.136-2.713-1.82-4.144-3.618-4.737-5.66a261.387 261.387 0 0 1 11.742-3.473c.695 2.675 1.185 4.716 1.185 4.716l-1.108.283c.28 1.098 5.707 21.801 10.622 40.577-.894.252-1.732.546-2.595.773-1.405-1.768-3.24-3.288-5.662-4.216-9.008-3.422-5.962-10.2-4.634-12.864zm20.862-33.738c1.814 10.03 3.7 20.513 5.472 30.465-4.854.995-9.723 2.062-14.495 3.345l.347 1.36c4.798-1.241 9.58-2.319 14.414-3.324.848 4.974 1.707 9.767 2.53 14.256-4.62 1.005-9.177 2.072-13.73 3.268-3.98-15.56-8.64-33.557-11.65-45.34 5.667-1.484 11.4-2.86 17.112-4.03zm9.008-1.66c1.323 10.221 2.713 20.756 3.996 30.651-1.967.371-3.955.732-5.932 1.113-1.763-9.9-3.684-20.404-5.447-30.464 2.427-.46 4.925-.856 7.383-1.3zm17.934-2.545c.757 9.705 1.64 20.445 2.453 30.836-5.064.546-10.091 1.32-15.109 2.164-1.298-9.931-2.677-20.43-4.006-30.645 5.524-.943 11.047-1.747 16.662-2.355zm3.756 46.72c-4.803.541-9.58 1.242-14.327 2.067-.603-4.5-1.247-9.365-1.886-14.39 4.992-.83 9.995-1.577 15.048-2.165.388 5.015.802 9.844 1.165 14.488zm-20.51 5.19c1.727-.34 3.419-.7 5.135-1 .675 4.835 1.242 9.313 1.753 13.235-1.543.237-3.03.49-4.568.737-.68-3.819-1.471-8.236-2.32-12.972zm-2.886-16.183c1.982-.382 3.918-.789 5.906-1.098.639 4.989 1.298 9.86 1.911 14.405-1.783.294-3.53.665-5.237.99-.818-4.546-1.712-9.324-2.58-14.297zm-11.425 33.222c-.613.175-1.227.376-1.824.536-.486-4.561-1.344-9.174-3.495-12.792.649-.186 1.292-.412 1.957-.603 1.21 4.54 2.33 8.916 3.362 12.859zm-.864-13.509c4.486-1.242 9.029-2.278 13.576-3.226a7210.05 7210.05 0 0 0 2.325 13.019c-4.21.86-8.43 1.84-12.6 2.979-1.032-3.85-2.12-8.195-3.3-12.772zm36.926 6.536A213.9 213.9 0 0 0 331.11 143c-.49-3.947-1.088-8.4-1.727-13.24 4.721-.799 9.483-1.515 14.235-2.072.419 4.87.771 9.39 1.098 13.375zm24.357-14.952c-.214 4.546-.505 9.128-.73 13.37-6.658.108-13.3.468-19.84 1.128-.271-3.994-.588-8.483-.905-13.282 7.113-.685 14.276-1.118 21.475-1.216zm.854-16.41c-.19 3.907-.476 9.045-.772 14.519-7.26.082-14.51.505-21.7 1.247-.306-4.7-.659-9.607-.986-14.54 7.787-.72 15.63-1.154 23.458-1.226zm1.665-.03c3.316 0 6.658.03 9.974.185 1.134.046 2.238.139 3.383.206-.608 5.035-1.196 9.91-1.722 14.405-.731-.015-1.42-.113-2.162-.124-3.413-.123-6.851-.123-10.254-.123.306-5.474.546-10.617.781-14.55zm14.992.494c3.121.18 6.259.304 9.396.603a1510.22 1510.22 0 0 0-2.606 14.328c-2.83-.232-5.671-.371-8.517-.531.516-4.5 1.098-9.329 1.727-14.4zm1.808-15.354c3.439.155 6.888.392 10.276.701-.833 4.685-1.656 9.34-2.484 13.828-3.127-.288-6.29-.438-9.432-.603.511-4.525 1.043-9.179 1.64-13.926zm3.97-33.248c4.083.31 8.196.593 12.243 1.067-1.707 9.525-3.556 19.869-5.396 30.1-3.464-.362-6.97-.604-10.474-.779 1.2-10.05 2.457-20.353 3.627-30.388zm13.816 1.217c3.148.345 6.306.757 9.463 1.206-2.095 9.648-4.256 19.863-6.387 29.851-2.84-.381-5.656-.665-8.497-.969 1.83-10.22 3.674-20.523 5.421-30.088zm10.996 1.391c15.196 2.217 30.182 5.561 44.892 9.958-3.48 8.983-7.25 18.74-10.96 28.48-5.268-1.54-10.536-2.86-15.88-4.092 3.73-11.7 6.484-20.533 6.612-20.92-.363-.067-.777-.211-.854-.232-.138.397-2.979 9.468-6.576 20.982-.695-.155-1.328-.283-1.992-.443 3.428-11.54 6.167-20.709 6.3-21.11 0 0-.445-.15-.813-.238-.133.335-2.8 9.313-6.305 21.183-6.913-1.48-13.8-2.773-20.826-3.732 2.151-10.019 4.333-20.187 6.402-29.836zM463.36 74.47a295.546 295.546 0 0 1 10.995 3.618c5.253 1.788 10.413 3.778 15.497 5.86-4.215 9.066-8.599 18.492-12.886 27.61-8.083-3.227-16.253-6.123-24.602-8.623 3.776-9.68 7.567-19.44 10.996-28.465zM452.27 120.58c1.492-3.479 2.53-5.86 2.688-6.262-.598-.294-.894-.402-1.477-.65-.174.356-1.252 2.866-2.8 6.443-1.43-.438-2.912-.84-4.379-1.258 1.64-4.334 3.337-8.756 5.059-13.235 8.267 2.464 16.365 5.309 24.423 8.52-2.044 4.324-4.021 8.56-5.958 12.704-5.794-2.278-11.629-4.38-17.556-6.262zm-.567 1.32a264.927 264.927 0 0 1 17.505 6.24c-2.14 4.65-4.236 9.036-6.157 13.21-5.636-2.226-11.338-4.272-17.101-6.05 2.146-4.974 4.149-9.659 5.753-13.4zm-5.917-1.748c1.43.428 2.887.84 4.338 1.294-1.6 3.72-3.643 8.421-5.733 13.359-1.298-.387-2.606-.696-3.868-1.036 1.676-4.288 3.45-8.906 5.263-13.617zm-16.1-4.082c4.982 1.057 9.907 2.34 14.787 3.716-1.83 4.737-3.628 9.303-5.273 13.607-4.593-1.268-9.223-2.443-13.898-3.469 1.446-4.535 2.928-9.22 4.384-13.854zm-6.627 13.39c1.293-4.334 2.724-9.091 4.164-14.003.527.16 1.089.283 1.625.402a4415.11 4415.11 0 0 0-4.384 13.905c-.48-.093-.935-.206-1.405-.304zm-.521 1.84c.44.062.89.201 1.354.278-.536 1.815-1.099 3.495-1.62 5.087-.373-.144-.669-.252-.746-.299-.771 2.345-1.972 6.324-3.214 10.272l-.327-.108s1.901-6.38 4.553-15.23zm-15.635-19.255c6.56.86 13.07 1.886 19.482 3.226-1.405 4.7-2.805 9.422-4.159 14.004-6.08-1.242-12.19-2.227-18.378-3.041.986-4.443 1.977-9.205 3.055-14.189zm-1.528-.19c-1.068 4.973-2.125 9.735-3.055 14.24-2.443-.325-4.93-.63-7.373-.82.812-4.51 1.655-9.334 2.56-14.348 2.641.252 5.273.598 7.868.927zm.297-1.418c-2.642-.34-5.253-.644-7.89-.928.808-4.499 1.62-9.127 2.484-13.828 2.784.3 5.559.578 8.37.944-1.007 4.695-2.014 9.354-2.964 13.812zm21.132 3.479a253.37 253.37 0 0 0-19.59-3.283c.951-4.494 1.932-9.102 2.949-13.802 6.944.907 13.79 2.19 20.596 3.654-1.247 4.247-2.59 8.792-3.955 13.43zm7.542-12.648c5.258 1.17 10.52 2.49 15.701 4.005a1422.11 1422.11 0 0 1-5.083 13.147 244.068 244.068 0 0 0-14.818-3.7c1.451-4.66 2.897-9.195 4.2-13.452zm-5.048 13.21c-.557-.109-1.104-.253-1.67-.35 1.343-4.572 2.692-9.118 3.97-13.452.648.092 1.287.242 1.92.391-1.38 4.33-2.81 8.886-4.22 13.41zm65.115-28.61c7.02 2.964 13.964 6.195 20.75 9.741-6.658 10.592-16.269 25.79-25.313 40.17-5.268-2.598-10.627-5.04-16.049-7.247 2.029-4.143 4.052-8.38 6.188-12.735 4.011 1.68 8.047 3.474 12.028 5.365l1.185-2.582a250.522 250.522 0 0 0-11.997-5.34 4097.97 4097.97 0 0 1 13.208-27.372zm21.767 10.267c8.216 4.257 16.243 8.906 24.09 13.88-2.86 3.499-6.034 7.462-9.436 11.678-5.897-3.664-11.916-7.236-18.052-10.514l-.67 1.258c6.096 3.236 12.013 6.73 17.776 10.38-6.182 7.684-12.968 16.126-19.523 24.218-5.186-3.18-10.439-6.185-15.834-8.983-1.201-.645-2.473-1.175-3.654-1.773 7.726-12.251 18.057-28.656 25.303-40.144zm25.455 14.745c1.308.804 2.544 1.644 3.781 2.464-1.068 7.36-1.66 11.874-4.89 14.71-2.744-1.846-5.503-3.712-8.298-5.47 3.434-4.236 6.612-8.215 9.407-11.704zm4.67 23.018c10.888 7.885 21.25 16.533 31.055 25.836-8.016 6.772-16.125 13.591-23.702 19.977-5.135-4.757-10.388-9.375-15.876-13.715 8.932-9.473 16.28-17.28 16.56-17.57-.506-.535-1.793-1.88-1.957-2.061-.373.381-9.299 10.272-16.519 18.188a307.75 307.75 0 0 0-8.89-6.648c2.044-2.85 3.48-6.061 3.78-9.03.726-7.566-.628-10.488 9.116-11.9 3.102-.454 5.09-1.634 6.433-3.077zm-45.07 42.597c2.38-3.376 6.172-9.55 13.493-10.23 4.062-.398 8.278-3.392 11.364-7.227 3.004 2.129 5.917 4.325 8.84 6.572-4.477 4.927-8.007 8.849-8.007 8.849s-6.075 6.643-11.916 13.122c-4.695-3.546-9.519-6.845-14.464-10.081.23-.361.47-.737.69-1.005zm21.321-27.12c.046 1.242.107 3.221-.46 5.185-3.408-2.278-6.806-4.546-10.31-6.67a32427.51 32427.51 0 0 0 19.533-24.187 230.038 230.038 0 0 1 7.894 5.216c-1.109.716-2.427 1.325-4.118 1.84-3.94 1.056-13.515 6.257-12.539 18.616zm-11.69-.371a250.021 250.021 0 0 1 10.714 6.927c-1.16 2.443-3.566 4.535-8.512 4.798-7.89.453-12.702 7.081-16.504 14.225a211.488 211.488 0 0 0-4.48-2.706c5.185-6.412 11.812-14.596 18.782-23.244zm-30.52 3.979s4.073-6.5 9.765-15.472c1.231.592 2.534 1.128 3.781 1.798 5.304 2.758 10.47 5.773 15.553 8.85a6360.627 6360.627 0 0 0-18.757 23.275 239.504 239.504 0 0 0-16.187-8.643c3.05-4.81 5.81-9.102 6.132-9.664-.148-.067-.286-.144-.286-.144zm54.023 29.418c-.705.66-6.545 5.685-12.35 10.772-1.885-1.526-3.709-3.046-5.6-4.49 6.045-6.38 13.582-14.415 20.367-21.615 5.447 4.247 10.684 8.86 15.783 13.56-8.737 7.386-16.657 14.014-22.808 19.209-2.136-1.886-4.262-3.783-6.48-5.608 5.77-4.999 11.451-9.92 12.171-10.59-.418-.496-.638-.722-1.083-1.238zm23.913 3.592c-3.286 2.48-7.404 5.551-11.767 8.84-.798-.774-1.533-1.619-2.315-2.361l-1.277 1.386c.7.696 1.348 1.449 2.038 2.103-3.607 2.69-7.255 5.453-10.643 7.968-1.083-1.057-2.253-2.01-3.382-3.025a8346.297 8346.297 0 0 0 22.798-19.183c1.538 1.381 3.06 2.85 4.548 4.272zm-.838 22.806c-4.078 2.536-7.869 4.98-11.272 7.123a258.515 258.515 0 0 0-10.617-10.864c3.336-2.51 6.974-5.221 10.597-7.922a269.46 269.46 0 0 1 11.292 11.663zm2.003-21.584a272.55 272.55 0 0 1 11.95 12.632c-4.225 2.732-8.415 5.36-12.37 7.906a252.5 252.5 0 0 0-11.348-11.746c4.374-3.298 8.508-6.365 11.768-8.792zm15.604 16.76l1.058-.912c-.925-1.098-1.87-2.108-2.826-3.16 4.057-2.576 8.048-5.127 11.972-7.596 3.25 3.737 6.34 7.54 9.37 11.4a5927.425 5927.425 0 0 1-26.63 14.38c-2.632-3.247-5.472-6.396-8.283-9.525 3.986-2.55 8.176-5.195 12.38-7.9.971 1.118 1.988 2.17 2.959 3.313zm29.926 14.02c-9.626 4.782-18.813 9.359-26.922 13.394-2.912-4.16-6.019-8.2-9.197-12.148 8.135-4.401 17.306-9.349 26.61-14.38 3.28 4.279 6.48 8.68 9.51 13.133zm6.25 9.405c-9.167 3.463-19.274 7.324-28.599 10.854-1.185-1.788-2.31-3.618-3.54-5.365 8.047-4.02 17.26-8.607 26.9-13.375 1.748 2.577 3.532 5.227 5.238 7.886zm5.916 9.88c-10.045 3.386-19.953 6.71-28.874 9.73-.225-.396-.424-.803-.68-1.154-1.4-2.34-2.973-4.525-4.445-6.813 9.264-3.536 19.437-7.417 28.532-10.86a257.681 257.681 0 0 1 5.467 9.097zm8.242 15.524c-1.564-.35-3.429-1.217-5.907-2.103-6.928-2.35-18.062 1.025-21.68 7.257-.52.968-1.216 1.798-1.926 2.55a212.224 212.224 0 0 0-6.939-12.405c8.865-3.035 18.803-6.38 28.833-9.761a270.392 270.392 0 0 1 7.619 14.462zm24.183-25.203c3.755 6.978 7.255 14.034 10.495 21.28-4.17-.345-8.927-3.231-11.124-4.262-3.454-1.598-10.229-5.216-15.384 2.845-2.024 3.092-3.562 4.644-5.069 5.237-2.54-5.175-5.15-10.293-7.976-15.272a8538.77 8538.77 0 0 1 29.058-9.828zm12.441 25.739a323.944 323.944 0 0 1 12.406 34.113c-4.644.712-9.606 1.474-14.874 2.242a310.563 310.563 0 0 0-2.278-7.004c1.486-.273 2.386-.433 2.631-.48-.138-.68-.194-.999-.286-1.602-.205 0-1.257.18-2.861.495-2.12-6.2-4.38-12.328-6.893-18.39l-1.308.506c2.478 6.02 4.685 12.06 6.785 18.095-3.229.64-8.14 1.515-13.892 2.587a288.428 288.428 0 0 0-10.22-25.414c2.709-1.309 4.768-3.071 5.78-4.298 6.029-7.06 10.479-4.67 22.118-1.422 1.027.298 1.978.427 2.892.572zm-36.645 35.17c4.813-.907 9.499-1.773 13.826-2.541.583 1.82 1.288 3.597 1.911 5.427l2.683-.881c-.583-1.655-1.216-3.366-1.804-5.056 5.794-1.031 10.653-1.948 13.862-2.495a649.2 649.2 0 0 1 2.248 6.948 8700.497 8700.497 0 0 0-30.723 4.67c-.634-2.067-1.313-4.067-2.003-6.072zm-1.405.222c.72 2.01 1.308 4.004 2.013 6.009-4.982.763-9.81 1.526-14.404 2.237a148.966 148.966 0 0 0-2.033-5.639c4.731-.85 9.647-1.716 14.424-2.607zm-6.693-21.11a4174.74 4174.74 0 0 1-15.784 4.107c-.955-2.005-1.946-3.979-2.917-6 1.339-1.138 2.524-2.401 3.403-4.092 4.445-8.483 11.138-5.22 13.75-3.829 4.869 2.732 9.222 2.732 12.83 1.706a291.972 291.972 0 0 1 10.1 24.888c-8.997 1.634-19.666 3.551-29.64 5.38a266.234 266.234 0 0 0-6.861-16.523c8.119-2.133 14.802-3.911 15.548-4.045-.164-.64-.26-.974-.43-1.593zm52.55 79.117c-10.193-.278-20.877-.567-30.968-.856-.817-6.844-1.88-13.673-3.25-20.466 4.768-.237 8.022-.438 8.472-.453-.051-.928-.143-3.206-.143-3.206s16.938-1.15 18.803-1.31c-.036-.628-.056-.917-.102-1.602-.808.046-13.295.912-28.067 1.886-1.834-8.267-4.031-16.472-6.663-24.6 10.178-1.5 20.79-3.138 30.734-4.607 5.493 18.018 9.182 36.49 11.185 55.214zm1.768 26.558c-9.641-1.196-20.407-2.474-30.866-3.778-.26-7.427-.792-14.823-1.67-22.162 10.106.284 20.749.578 30.927.861.858 8.293 1.451 16.647 1.61 25.079zm-5.635 45.906c-1.63-1.783-5.406-4.639-10.347-5.51.542-4.556.976-9.127 1.303-13.704 4.542.933 9.156 1.86 13.78 2.778-.48 6.293-1.114 12.617-1.987 18.858-.884-.65-1.794-1.386-2.75-2.422zm-12.57 9.828c.455-2.633.895-5.22 1.293-7.839 2.442-.324 4.558.907 7.92 5.52 1.466 2.062 3.06 3.381 4.598 4.087-.102.866-.214 1.696-.393 2.5-4.491-1.428-8.947-2.84-13.418-4.268zm-1.175 6.494c.317-1.582.598-3.2.884-4.87 4.456 1.417 8.967 2.855 13.453 4.303-.352 1.763-.664 3.53-1.047 5.32-4.374-1.588-8.86-3.14-13.29-4.753zm-.286 1.588c4.425 1.577 8.865 3.133 13.285 4.69-.813 3.814-1.615 7.674-2.575 11.483-.532 2.035-1.11 4.097-1.646 6.102-4.348-1.768-8.696-3.53-12.993-5.293a305.389 305.389 0 0 0 3.93-16.982zm-15.9-5.634c4.302 1.52 8.777 3.077 13.197 4.665-1.144 5.67-2.422 11.292-3.898 16.802a1319.47 1319.47 0 0 1-12.958-5.299c1.374-5.344 2.621-10.746 3.658-16.168zm-18.415 10.071a306.703 306.703 0 0 0 3.352-15.44c4.338 1.597 8.936 3.184 13.708 4.864a296.294 296.294 0 0 1-3.602 16.117 1197.539 1197.539 0 0 1-13.458-5.54zm-.44 1.665c4.262 1.763 8.784 3.597 13.469 5.5a252.044 252.044 0 0 1-6.228 20.44c0 .072-.046.113-.046.2-4.573-2.123-8.947-4.18-13.173-6.148 2.284-6.582 4.297-13.23 5.978-19.992zm-10.678-22.208c3.796 1.376 8.042 2.865 12.63 4.51a245.284 245.284 0 0 1-3.306 15.317c-4.47-1.82-8.645-3.525-12.375-5.072 1.196-4.87 2.192-9.792 3.05-14.755zm32.598-26.275c-4.961-1-9.764-1.964-14.235-2.866.02-1.077.138-2.133.184-3.195l-1.89-.072c-.036 1-.113 1.943-.149 2.907-4.808-.964-9.161-1.856-13.106-2.613.02-.248.02-.505.02-.758.261-6.937.21-13.807-.137-20.703 8.415 1 18.793 2.278 29.615 3.608.173 6.02.235 12.075 0 18.172-.046 1.82-.195 3.696-.302 5.52zm3.607 21.842c-1.006.583-2.631 1.552-4.522 2.016a283.438 283.438 0 0 0 2.249-21.92c4.41.907 9.013 1.855 13.673 2.783-.322 4.67-.767 9.323-1.308 14.034-3.092-.067-6.5.778-10.092 3.087zm-1.543 8.535c2.177-.01 4.251-.391 6.04-1.134 1.798-.706 3.265-1.448 4.537-1.984-.317 2.082-.736 4.118-1.042 6.195-3.24-1.036-6.397-2.03-9.535-3.077zm-4.072.459c4.302 1.381 8.793 2.793 13.285 4.242-.276 1.587-.557 3.19-.833 4.793-4.46-1.603-8.89-3.124-13.198-4.68.26-1.453.445-2.902.746-4.355zm-9.473-12.354c-1.078-1.794-2.488-3.195-4.082-4.324.567-5.087.955-10.2 1.246-15.364 4.507.912 9.259 1.902 14.225 2.87-.46 7.52-1.185 14.988-2.263 22.405-2.913.273-6.254-.737-9.126-5.587zm-5.488 5.86c.128-.86.276-1.752.404-2.644.296.36.588.665.843 1.067.67 1.051 1.635 1.99 2.683 2.845-1.354-.423-2.637-.856-3.93-1.268zm-.286 1.613a1322.13 1322.13 0 0 0 13.852 4.422c-.25 1.459-.47 2.886-.7 4.366-4.803-1.69-9.406-3.366-13.785-4.886.23-1.284.44-2.598.633-3.902zm-13.06-15.91c.435-4.731.767-9.483 1.002-14.235 3.965.773 8.318 1.665 13.126 2.598-.27 4.906-.628 9.746-1.15 14.58-3.73-1.99-8.297-2.742-12.978-2.943zm11.246 15.395c-.163 1.226-.403 2.51-.638 3.772-4.568-1.618-8.789-3.123-12.61-4.458.178-1.149.332-2.242.505-3.412 3.812 1.237 8.14 2.583 12.743 4.098zm-12.523-5.762c.21-1.47.373-2.964.588-4.495 3.52.495 8.778 1.16 12.733 4.721-.159 1.315-.302 2.608-.496 3.871-4.655-1.48-8.993-2.855-12.825-4.097zm.143-69.362c-.838-6.01-1.957-11.905-3.285-17.848 9.902-.551 21.695-1.247 29.844-1.67 1.354 6.721 2.397 13.509 3.224 20.333-11.225-.289-21.684-.593-29.783-.815zm30.008 2.284a274.414 274.414 0 0 1 1.671 22.033c-10.827-1.31-21.225-2.608-29.61-3.598a246.299 246.299 0 0 0-1.875-19.25c8.104.248 18.538.51 29.814.815zm33.794 42.999c-.102 3.592-.393 7.184-.669 10.746-4.588-.928-9.248-1.84-13.765-2.742.158-2.83.45-5.675.542-8.458l-2.81-.144c-.108 2.7-.338 5.34-.537 8.024-4.67-.927-9.264-1.84-13.72-2.736.098-1.933.241-3.835.323-5.747.225-6.087.153-12.08 0-18.08 10.428 1.283 21.21 2.572 30.784 3.752.077 5.103.046 10.256-.148 15.385zm-73.975 190.787s5.937 6.035 10.24 10.344c-.358.392-.706.804-1.068 1.18-4.267-4.422-10.26-10.58-10.26-10.58l1.088-.944zM116.634 294.273c-4.47-.742-9.146-1.536-13.816-2.335a283.175 283.175 0 0 1 3.74-10.92 866.283 866.283 0 0 1 13.638 3.318c-1.211 3.299-2.443 6.608-3.562 9.937zm30.345 6.824a190.438 190.438 0 0 0-2.59 8.076c-8.2-1.036-18.517-2.252-29.676-3.634a220.137 220.137 0 0 1 2.851-9.405 5262.089 5262.089 0 0 1 29.415 4.963zm-6.443 22.342c-6.499-.381-12.35-.644-13.187-.727-.02.686-.051.99-.062 1.665.818.036 6.48.366 12.861.696a243.28 243.28 0 0 0-4.077 22.75c-8.973.484-19.815 1.118-29.88 1.664 1.568-14.39 4.225-28.532 8.032-42.35a6124.639 6124.639 0 0 1 29.675 3.65 210.33 210.33 0 0 0-3.362 12.652zm-19.145 73.845c-.398-5.736-.644-11.436-.659-17.193 4.7-.85 9.207-1.624 13.305-2.376-.066 5.401 0 10.772.322 16.178-4.23 1.082-8.707 2.252-12.968 3.391zm2.044 30.501c-13.76 5.345-29.691 11.638-43.942 17.235a304.625 304.625 0 0 1-6.964-56.173c12.32-2.195 30.366-5.478 46.333-8.385 0 5.803.245 11.56.66 17.276-10.23 2.68-18.947 4.958-19.734 5.18.19.66.256.953.424 1.608 1.814-.464 17.035-4.48 17.035-4.48s.286 1.109.286 1.12c.261-.037 1.038-.29 2.167-.542.736 9.112 1.993 18.142 3.735 27.161zm2.166 10.308c-8.43 3.561-17.929 7.571-27.775 11.756-.015 0-.015-.052-.036-.052l-2.718.696c.051.15.087.304.133.474-4.302 1.825-8.61 3.66-12.942 5.51a280.742 280.742 0 0 1-1.492-5.752c-.353-1.464-.65-2.938-.976-4.396 14.235-5.644 30.156-11.875 43.87-17.255.582 3 1.247 5.999 1.936 9.019zm2.1 8.308a26607.287 26607.287 0 0 1-26.59 14.843c-1-3.236-1.972-6.483-2.83-9.746 9.846-4.164 19.283-8.179 27.698-11.766.552 2.232 1.13 4.463 1.722 6.67zm1.89 6.886c1.018 3.406 2.177 6.823 3.358 10.225a3225.663 3225.663 0 0 0-12.616 7.576c-1.088-3.097-2.181-6.19-3.162-9.272l-1.344.392a261.86 261.86 0 0 0 3.244 9.612c-3.995 2.386-8.032 4.82-12.063 7.22a281.635 281.635 0 0 1-5.595-16.698c8.43-4.72 17.832-9.91 26.564-14.843.562 1.927 1.048 3.896 1.615 5.788zm8.615 24.197c.046.109.128.206.154.315-8.201 5.736-16.948 11.931-24.832 17.456-1.533-3.49-3.061-6.922-4.45-10.416-.547-1.469-1.023-2.994-1.59-4.479 4.042-2.402 8.094-4.875 12.079-7.215a298.32 298.32 0 0 0 3.3 8.633l1.309-.567c-1.18-2.907-2.335-5.86-3.388-8.86a2411.1 2411.1 0 0 0 12.6-7.52c1.523 4.278 3.122 8.53 4.818 12.653zm3.75 8.484c-7.255-.13-16.314 5.102-19.517 11.385-1.825 3.535-2.698 6.21-4.333 7.674-1.43-2.922-2.862-5.85-4.144-8.762a4870.154 4870.154 0 0 1 24.852-17.461c1.012 2.407 2.11 4.803 3.143 7.164zm2.76 6.607c.133.015.276.015.419.108a271.052 271.052 0 0 0 3.306 6.365c-7.593 5.556-15.911 11.756-24.194 17.843-.986-1.716-1.982-3.443-2.871-5.2 3.806-1.902 7.557-5.365 9.473-11.586.991-3.129 3.852-10.916 13.867-7.53zm15.752-2.897c.057.093.133.227.2.294-3.28 2.443-6.888 5.103-10.715 7.942-.838-1.597-1.64-3.159-2.442-4.798 4.527.66 8.87-.933 12.957-3.438zm.828 1.541c2.933 5.603 6.034 11.117 9.356 16.467a841.47 841.47 0 0 1-9.949 8.716 244.823 244.823 0 0 1-10.121-17.276c3.842-2.85 7.46-5.484 10.714-7.907zm17.3 28.373c4.753 6.69 9.939 13.044 15.365 19.183-6.085 7.524-13.04 16.11-18.752 23.197a267.188 267.188 0 0 1-24.535-31.155c3.71-3.335 7.367-6.633 10.827-9.756 1.129 1.69 2.202 3.437 3.387 5.143l1.513-1.072c-1.201-1.747-2.325-3.592-3.506-5.38 3.506-3.18 6.811-6.185 9.81-8.948 1.927 2.984 3.833 5.953 5.892 8.788zM165.4 574.156c-9.555-10.292-18.266-21.285-26.206-32.856 3.494-3.19 7.005-6.34 10.454-9.499a277.898 277.898 0 0 0 24.653 31.341 1131.456 1131.456 0 0 0-8.9 11.014zm-28.828-36.65c-4.169-6.287-8.006-12.807-11.68-19.404 8.308-6.128 16.606-12.302 24.148-17.827a246.433 246.433 0 0 0 10.234 17.384c-4.2 3.66-8.17 7.159-11.491 10.055l-.675.449c.026.046.026.062.077.098l-7.787 6.772s-1.078.98-2.826 2.474zm-44.283-49.673c-2.146-5.617-4.103-11.292-5.943-17.07 3.648-2.015 7.9-4.432 12.513-6.973 1.717 5.639 3.633 11.2 5.697 16.735a1411.687 1411.687 0 0 1-12.267 7.308zm-9.606-29.67c4.363-1.866 8.68-3.717 12.988-5.52.879 3.35 1.896 6.669 2.877 10.024-4.645 2.587-8.901 4.989-12.55 6.994a368.579 368.579 0 0 1-3.315-11.499zm-15.538 4.674c-.95-3.469-1.84-6.979-2.673-10.524 4.328-1.68 9.029-3.53 13.98-5.479.327 1.381.623 2.814.93 4.206.531 1.984 1.037 3.994 1.553 5.999-4.634 1.958-9.258 3.89-13.79 5.798zm-10.996-80.123c4.772-.737 9.744-1.494 14.859-2.268 0 2.345.04 4.665.091 6.99-7.781 1.411-13.034 2.396-13.483 2.442.086.69.143 1.026.28 1.67.455-.103 5.595-1.057 13.234-2.438a300.281 300.281 0 0 0 7.067 56.436c-4.967 1.937-9.668 3.808-14.006 5.494a320.178 320.178 0 0 1-8.042-68.326zm62.714-3.943a35580.22 35580.22 0 0 1-46.348 8.422 244.947 244.947 0 0 1-.102-6.973c15.773-2.402 32.43-4.917 46.552-7.056-.03 1.886-.102 3.726-.102 5.607zm15.175-2.747a1563.53 1563.53 0 0 0-13.274 2.443c0-1.855.025-3.72.081-5.55 4.808-.737 9.243-1.449 13.26-2.01v.087c-.067 1.685-.036 3.366-.067 5.03zm-7.03-23.44c2.973-.185 5.84-.386 8.543-.556-.282 2.108-.465 4.288-.64 6.411-1.48-.742-2.906-1.737-4.163-3.16-.976-1.066-2.284-1.968-3.74-2.695zM56.311 368.19c.06-1.479.184-2.901.26-4.319 3.112 1.63 6.745 1.856 11.86-.87 9.053-4.711 13.315-7.68 18.73-5.366a364.59 364.59 0 0 0-.679 11.622l2.841.109c.112-3.412.347-6.773.588-10.19.28.248.557.371.868.608 2.085 1.66 7.092 4.211 12.866 3.417-.148 2.206-.358 4.433-.404 6.675l1.375.051c.087-2.33.337-4.638.465-6.968 2.54-.577 5.145-1.773 7.75-4 2.295-1.968 8.314-6.663 14.496.903 1.947 2.36 4.44 3.731 7.128 4.55-.097 1.614-.184 3.196-.286 4.773-4.011.624-8.451 1.289-13.29 2.041v-.716l-1.86-.062c-.035.345 0 .711-.035 1.03-14.143 2.186-30.8 4.69-46.573 7.04 0-3.241.035-6.472.163-9.73l-1.395-.087a255.985 255.985 0 0 0-.173 10.07c-5.115.763-10.127 1.541-14.905 2.273 0-4.283.067-8.566.21-12.854zm16.069-11.874c-3.781 2.7-8.63 5.2-12.038 1.525-.2-.206-.47-.427-.7-.7 2.938-.202 7.337-.485 12.738-.825zm-6.55-55.07c9.784 1.237 20.085 2.448 30.232 3.68-3.827 14.472-6.499 29.218-8.093 44.18-3.388-1-6.382.38-8.666 1.891-2.887.175-4.746.294-5.022.294.03.958.158 3.205.158 3.205s-11.328.784-16.504 1.124c-.255-.211-.572-.428-.832-.629 1.38-18.234 4.353-36.16 8.727-53.745zm3.658-13.25c9.795 1.649 20.024 3.38 30.018 5.05a333.337 333.337 0 0 0-3.05 10.262c-10.127-1.19-20.433-2.495-30.207-3.654 1.016-3.902 2.08-7.819 3.239-11.658zm29.793 15.667c.946-3.406 1.988-6.74 3.046-10.132 4.68.799 9.32 1.587 13.846 2.35a245.537 245.537 0 0 0-2.887 9.499c-4.537-.562-9.248-1.14-14.005-1.717zm4.916 50.473c0 .211 0 .427-.03.644-3.097 1.979-5.07 2.685-8.595-.052 2.856-.2 5.738-.391 8.625-.592zm-13.52-3.773c1.558-15.276 4.277-30.357 8.2-45.06 4.742.566 9.397 1.113 13.934 1.674-3.822 13.864-6.473 28.11-8.037 42.582-5.028.314-9.836.546-14.097.804zm-16.396-77.21c8.22 2.004 18.634 4.53 29.543 7.184a286.711 286.711 0 0 0-3.848 11.148c-9.984-1.686-20.208-3.443-30.018-5.103 1.37-4.427 2.8-8.828 4.323-13.23zm434.987 302.16c-9.744-8.776-21.48-19.42-22.18-20.084-.634.48-1.232.923-2.05 1.557 1.508 1.407 18.543 16.92 22.104 20.193a188.34 188.34 0 0 1-3.607 2.7c-3.07-5.272-9.366-8.932-15.022-12.055-7.761-4.35-10.255-5.52-10.255-5.52s-3.137 1.557-1.006 3.428c2.166 1.876 11.312 6.684 14.27 9.045 2.234 1.757 5.744 4.33 7.63 8.267-3.93 2.778-7.9 5.36-11.942 7.885-11.808-12.21-20.525-21.347-20.841-21.667-.378.227-.619.32-1.13.583.455.469 9.218 9.508 20.924 21.692-.245.16-.46.32-.71.495-2.3 1.407-4.711 2.634-7.057 3.963-10.878-12.189-19.753-22.156-20.013-22.445-.281.108-.435.227-.828.392.393.397 9.263 10.318 20.065 22.46-1.748.985-3.444 1.96-5.197 2.887-10.02-13.704-17.045-23.26-17.33-23.667-.507.314-.793.459-1.503.82.414.582 7.393 10.117 17.321 23.718a223.256 223.256 0 0 1-13.055 6.159c-9.473-13.875-16.401-23.992-16.641-24.394-.44.17-.665.3-1.267.52.398.537 7.29 10.67 16.687 24.456-3.638 1.598-7.363 2.995-11.067 4.36-2.31-3.963-4.476-7.658-6.407-11.029 2.473-.881 5.012-1.768 7.454-2.799l-1.323-3.344c-2.621 1.072-5.309 2.025-7.976 2.973-3.863-6.607-6.397-11.024-6.53-11.225-.332.134-.531.201-.95.371.2.263 2.682 4.66 6.53 11.215-4.476 1.593-8.952 3.108-13.52 4.391-3.025-6.251-5.304-10.885-5.518-11.338-.537.15-.879.268-1.518.433.26.628 2.53 5.226 5.493 11.312a67.056 67.056 0 0 1-3.944 1.005c-2.903-6.88-4.696-11.24-4.778-11.529-.531.16-.807.289-1.476.454.148.366 1.946 4.69 4.777 11.452-2.631.644-5.253 1.283-7.9 1.86-2.304-5.798-4.337-10.895-4.588-11.524-.557.134-.858.196-1.558.33.317.85 2.36 5.865 4.598 11.514-2.13.433-4.23.897-6.325 1.237-1.916-6.695-3.3-11.457-3.357-11.612-.363.108-1.185.263-1.374.35.097.433 1.491 5.561 3.121 11.566-5.288.881-10.566 1.546-15.854 2.061-.062-4.705.035-10.663-.363-12.699-.547-2.907-3.561-.928-3.561-.928s-.23 2.887-.435 12.133v1.88c-1.92.15-3.811.269-5.733.357-1.44-7-2.36-11.535-2.442-11.885-.577.01-.843.051-1.584.051.102.49 1.027 5.02 2.483 11.91-5.712.238-11.399.32-17.07.104-.527-5.958-1.043-11.638-1.084-12.163-.475-.026-.812-.067-1.364-.067.03.324.43 5.025 1.109 12.214-.138 0-.256 0-.353.016l-.153 3.628c.286.02.531 0 .828 0 .664 7.87 1.568 17.859 2.498 28.388-5.569-.129-11.087-.48-16.575-.938.097-4.886.225-9.524.337-13.843 4.86.458 9.754.768 14.68.938l.077-1.825c-4.951-.139-9.846-.469-14.71-.928.408-16.405.7-27.908.715-28.418-.93-.145-2.427-.418-3.587-.603-.056.68-.44 12.199-1.053 28.578-5.727-.634-11.424-1.417-17.086-2.443.9-13.292 1.84-27.434 1.88-28.367-.556-.098-.832-.18-1.512-.299-.071 1.17-1.006 15.147-1.936 28.352-1.186-.196-2.422-.52-3.633-.773 1.706-16.08 2.927-27.728 2.979-28.177-.47-.108-.731-.139-1.273-.288-.056.587-1.277 12.189-2.989 28.192a201.495 201.495 0 0 1-13.187-3.242c.29-1.706.577-3.428.843-5.056.69.098 1.374.216 1.502.221 1.308-8.318 3.24-21.234 3.316-21.708a10.095 10.095 0 0 1-1.093-.31c.138-.808.204-1.282.23-1.386-.568-.149-1.743-.494-2.438-.654-.076.474-2.437 13.008-5.232 28.145a248.425 248.425 0 0 1-16.764-5.55c4.19-15.658 7.225-26.832 7.337-27.306-.547-.185-.792-.314-1.364-.53-.179.592-3.178 11.714-7.353 27.29-2.171-.82-4.384-1.64-6.555-2.526 4.71-15.43 8.098-26.625 8.231-27.053-.516-.237-.771-.325-1.349-.587-.189.561-3.576 11.663-8.267 27.063-2.452-1.083-4.94-2.18-7.383-3.283 5.651-15.23 9.606-25.966 9.81-26.445-.27-.103-.817-.35-.817-.35s-.322-.186-.619-.32c-.235.577-4.169 11.277-9.83 26.455-.532-.273-1.114-.495-1.702-.747-2.989-1.449-5.865-2.954-8.813-4.484 1.778-3.953 3.576-7.948 5.242-11.607 2.968 1.52 5.901 3.113 8.931 4.546l1.554-3.273c-3.05-1.469-6.035-3.03-8.988-4.628 2.606-5.85 4.573-10.272 4.777-10.772-.51-.294-.787-.433-1.349-.737-.276.572-2.238 4.958-4.843 10.813-5.498-2.968-10.797-6.174-15.973-9.555 3.603-5.948 5.932-9.89 6.168-10.22-.598-.356-2.97-1.882-2.97-1.882-.576.97-2.932 4.845-6.192 10.097a285.442 285.442 0 0 1-10.536-7.602c2.08-2.984 3.781-5.422 4.957-7.092l1.267-1.835c.28-.479.541-.783.598-.881-.317-.216-.562-.454-.987-.778-.05.103-.47.726-1.175 1.742l-.797 1.098c-1.155 1.736-2.83 4.102-4.838 7.009l-2.054 2.969c-2.131 3.097-4.563 6.648-7.25 10.462l-.972 1.48a1268.047 1268.047 0 0 0-7.899 11.379l-18.287 26.44c-15.706 22.744-29.757 43.076-30.227 43.679.424.294.577.454 1.001.768.44-.644 14.485-20.95 30.207-43.674a268.082 268.082 0 0 0 13.162 9.385c-8.819 14.23-15.69 25.368-16.018 25.867.547.284.797.49 1.36.758a6397.19 6397.19 0 0 0 8.384-13.534s1.834 1.113 2.636 1.515c.23-.355 3.107-5.092 7.363-12.148a290.532 290.532 0 0 0 32.241 18.04l.572-1.253c-11.164-5.345-21.858-11.37-32.138-17.967 4.26-7.081 9.733-16.188 15.2-25.29a257.655 257.655 0 0 0 19.534 11.53c-1.232 2.782-2.05 4.643-2.223 5.009.567.237.874.35 1.441.598.112-.32.95-2.113 2.167-4.866a210.147 210.147 0 0 0 8.548 4.268c1.001.5 2.043.902 3.024 1.376-1.507 4.066-3.07 8.272-4.66 12.59-1.353-.649-2.718-1.185-4.056-1.87l-1.17 2.5c1.43.685 2.861 1.231 4.286 1.907-3.346 9.034-6.805 18.363-10.121 27.326a277.692 277.692 0 0 1-6.48-2.964l-.393.856c2.167 1.03 4.38 1.979 6.576 2.994-10.643 28.728-19.932 53.786-20.223 54.585.572.227.848.346 1.436.619.29-.846 9.58-25.883 20.192-54.57a351.614 351.614 0 0 0 10.868 4.54c-6.32 20.807-11.343 37.258-11.522 37.861.557.191.803.3 1.39.531.22-.639 5.237-17.064 11.548-37.788 2.85 1.087 5.707 2.118 8.578 3.159-6.632 24.636-12.068 44.947-12.262 45.648.276.047.735.227 1.395.433.209-.732 5.645-21.007 12.227-45.57 13.938 4.85 28.137 8.725 42.572 11.451-2.208 20.734-3.924 36.949-3.955 37.5.49.129.838.129 1.282.196.046-.665 1.768-16.786 3.945-37.392 3.602.64 7.215 1.294 10.853 1.789 5.273.809 10.525 1.37 15.819 1.927-1.14 30.671-2.09 57.472-2.116 58.234.68.083 1.094.109 1.543.18.062-1.927.573-15.27.573-15.27l2.043.067s-.373 13.76-.378 15.456c.578.042.884.083 1.507.176.057-.938.716-27.775 1.492-58.477 7.333.567 14.654.856 21.987.933.756 8.571 1.257 14.271 1.292 14.575.138-.015.695-.015 1.068-.03-.046-.439-.51-6.263-1.282-14.545 8.875 0 17.735-.366 26.584-1.15a7354.561 7354.561 0 0 1 3.541 17.009c.603-.13.91-.206 1.533-.335-.107-.48-1.482-7.077-3.526-16.823 1.273-.098 2.525-.196 3.766-.324-.2.54-.363 1.056-.557 1.654-3.755 11.349 3.582 14.302 11.134 19.44 7.577 5.118 1.66 10.716-4.19 24.502C393.126 747.48 412.664 754 412.664 754c-4.415-4.814-7.828-10.246-9.126-16.709-1.119-5.788 1.472-8.385 4.287-13.06 1.605-2.65 2.805-5.762 2.708-8.875-.189-4.974-6.402-14.575-12.38-18.6-3.112-2.134-2.734-5.737-1.461-9.185 6.402-.783 12.835-1.665 19.222-2.876l-.154-.855c-6.218 1.144-12.441 2.02-18.685 2.783 1.124-2.675 2.708-5.149 3.428-6.571 1.048-2.01 2.831-5.237 2.427-8.664 12.769-1.855 25.369-4.644 37.846-8.241 12.85 30.99 25.154 60.466 25.466 61.27.598-.253 1.37-.536 1.37-.536-.328-.954-12.56-30.31-25.39-61.146 4.573-1.335 9.162-2.753 13.689-4.35l-.445-1.289a356.79 356.79 0 0 1-13.775 4.402c-3.878-9.319-7.787-18.689-11.435-27.44 1.957-.515 3.873-1.098 5.81-1.7 1.65 3.406 2.794 5.72 2.978 6.107.557-.279.813-.397 1.385-.696-.194-.376-1.267-2.598-2.836-5.896a248.111 248.111 0 0 0 15.712-5.489c2.304 3.963 4.624 7.896 6.831 11.75l.97 2.542c.17-.057.287-.124.41-.175 8.962 15.394 16.345 28.14 16.595 28.516.389-.16.89-.407.925-.407-.322-.505-7.649-13.215-16.55-28.48a288.342 288.342 0 0 0 13.05-5.654 25940.462 25940.462 0 0 1 37.054 54.353c.424-.217.685-.366 1.19-.583-.551-.845-18.915-27.748-37.028-54.337 4.711-2.211 9.335-4.551 13.883-6.989 25.772 35.253 55.606 76.113 56.24 76.974.562-.366.827-.52 1.41-.944-.766-1.04-30.488-41.736-56.184-76.865 2.764-1.505 5.467-2.953 8.13-4.577 9.687 10.85 17.244 19.348 17.525 19.663.327-.18.71-.408.746-.433-.302-.346-7.9-8.84-17.546-19.647 2.907-1.763 5.825-3.525 8.66-5.396 7.087 7.437 14.174 14.745 20.408 21.25-5.197 3.51-10.454 6.9-15.83 10.06l.465.773a341.563 341.563 0 0 0 16.014-10.18c11.629 12.061 20.213 21.044 20.535 21.348.46-.288.91-.603 1.042-.634-.424-.427-8.993-9.349-20.612-21.368a324.097 324.097 0 0 0 18.39-13.554c1.568.845 2.723 2.236 2.835 4.298.49 7.004 5.462 16.915 9.504 19.471 2.524 1.634 5.707 2.144 8.68 2.041 5.248-.087 8.677-1.005 12.912 2.773 4.768 4.18 7.593 9.787 9.473 15.817 0 0 4.006-19.682-10.254-21.47-14.317-1.722-21.797.515-22.375-8.36-.536-7.72.205-14.488-7.046-17.673l-1.006-.335c-.813-.273-1.676-.593-2.713-.82-11.282-2.396-16.07-2.309-18.15-10.957-.3-1.51-1.251-3.912-3.009-6.22l-1.83-2.026c-2.595-2.51-6.294-4.432-11.628-4.262-2.82.046-9.918-.17-9.974-9.355-.02-1.804-.496-3.406-1.144-4.963 1.696-1.247 3.418-2.53 5.14-3.804 1.226 1.109 10.316 9.37 11.598 10.504.394-.48.603-.7 1.043-1.175-.593-.5-5.473-4.912-11.44-10.323l-1.375-1.237zm-303.156 15.488c-5.385 7.814-11.154 16.142-16.739 24.224l16.739-24.224zm-15.737 24.945a10893.75 10893.75 0 0 0 16.738-24.203c3.894 2.938 7.854 5.788 11.89 8.489-5.222 8.473-10.638 17.178-15.522 25.069a253.305 253.305 0 0 1-13.106-9.355zm29.344-16.827a253.853 253.853 0 0 1-11.814-8.51c2.734-3.942 5.38-7.813 7.844-11.353 3.673 2.762 7.418 5.53 11.281 8.102-2.36 3.746-4.782 7.7-7.311 11.76zm8.22-13.297a263.8 263.8 0 0 1-11.169-8.077c2.652-3.803 5.125-7.349 7.256-10.431 3.47 2.65 7 5.195 10.679 7.643-2.024 3.227-4.267 6.917-6.765 10.865zm3.22 2.056c2.38-3.917 4.583-7.638 6.57-10.854a216.69 216.69 0 0 0 16.356 9.736c-1.66 3.695-3.449 7.69-5.232 11.663-6.065-3.262-11.941-6.798-17.694-10.545zm-8.078 13.441c2.442-4.066 4.833-8.07 7.148-11.92 5.799 3.829 11.746 7.4 17.868 10.653a769.911 769.911 0 0 1-5.646 12.668 276.312 276.312 0 0 1-19.37-11.4zm26.42-.52c2.883 1.48 5.805 3.005 8.743 4.432.66.289 1.272.552 1.911.856-1.502 4.04-3.132 8.416-4.798 12.957-.986-.433-1.972-.84-2.973-1.289a275.086 275.086 0 0 1-8.544-4.247c1.538-3.453 3.536-7.931 5.662-12.71zm12.08 5.896c2.498 1.139 4.966 2.278 7.434 3.345-1.262 4.175-2.626 8.669-4.016 13.312-2.78-1.16-5.508-2.432-8.237-3.659 1.686-4.571 3.321-8.906 4.819-12.998zm-5.273 14.271c2.743 1.273 5.472 2.557 8.292 3.711-1.313 4.149-2.6 8.463-3.924 12.818a263.01 263.01 0 0 1-9.074-3.958c1.61-4.278 3.183-8.484 4.706-12.57zm-5.62 15.122c3.05 1.407 6.11 2.736 9.191 3.979-2.897 9.524-5.779 19.08-8.466 27.923a211.661 211.661 0 0 1-10.863-4.525c3.362-8.978 6.785-18.29 10.137-27.377zm10.612 4.566c2.534.985 5.063 2.015 7.628 2.943a5506.605 5506.605 0 0 0-7.582 28.135c-2.872-1-5.723-2.051-8.559-3.144 2.693-8.86 5.636-18.44 8.513-27.934zm8.972 3.464c6.366 2.293 12.804 4.257 19.273 6.055a5269.558 5269.558 0 0 0-3.863 20.755c.358.088.802.19.802.19.092-.386 1.753-9.39 3.858-20.749.628.18 1.241.346 1.87.531-1.937 11.36-3.48 20.348-3.551 20.688.097 0 .536.134.822.206.041-.412 1.559-9.117 3.516-20.677 5.048 1.293 10.101 2.546 15.22 3.545-1.052 9.906-2.114 19.88-3.07 29.043a304.477 304.477 0 0 1-42.434-11.447c2.447-9.097 5.017-18.724 7.557-28.14zm39.2 10.843c8.129 1.603 16.314 2.722 24.597 3.582-.343 9.607-.71 19.529-1.068 29.13-5.237-.525-10.5-1.103-15.707-1.855a339.193 339.193 0 0 1-10.903-1.856c.996-9.158 2.054-19.13 3.08-29zm25.18-12.575c-.16 4.37-.292 8.85-.491 13.42-8.18-.83-16.32-2.02-24.408-3.592.5-4.545.996-9.055 1.471-13.42 1.41.242 2.836.577 4.282.845-.266 3.72-.44 6.298-.44 6.71.609.036.915.062 1.528.093.041-.402.235-2.897.465-6.5 5.83 1.021 11.69 1.83 17.592 2.444zm-16.576-17.735c5.667 1.057 11.4 1.799 17.148 2.459a2772.67 2772.67 0 0 0-.496 13.91c-5.886-.603-11.762-1.407-17.587-2.469.26-3.865.618-8.746.935-13.9zm-5.247-1.061c1.21.216 2.457.561 3.704.778-.358 5.112-.664 10.019-.93 13.9-1.425-.278-2.825-.541-4.246-.84.516-4.835 1.002-9.494 1.472-13.838zm-14.588-3.526c4.404 1.227 8.855 2.283 13.305 3.216-.47 4.391-.945 9.066-1.471 13.87-4.747-.995-9.473-2.088-14.133-3.36.756-4.593 1.558-9.247 2.3-13.726zm-.792-.221c-.695 4.262-1.507 8.947-2.32 13.755a23.935 23.935 0 0 0-1.589-.407c.93-4.819 1.789-9.483 2.601-13.689.409.145.869.217 1.308.34zm1.799-17.086l.311.042c-.659 3.88-1.349 7.823-1.747 10.117.112.036.414.036.792.108-.276 1.562-.516 3.216-.843 5.01-.424-.119-.869-.212-1.298-.35a8470.102 8470.102 0 0 0 2.785-14.927zm-20.811 10.978c5.61 2.03 11.205 3.912 16.892 5.52-.813 4.49-1.692 9.117-2.535 13.725-6.07-1.727-12.027-3.71-17.95-5.87 1.263-4.721 2.469-9.195 3.593-13.375zm-12.048 10.159c1.415-4.639 2.794-9.102 4.062-13.287 2.186.912 4.394 1.742 6.622 2.561-1.155 4.227-2.34 8.726-3.603 13.416-2.37-.876-4.726-1.716-7.081-2.69zm3.224 17.044a308.188 308.188 0 0 1-7.537-2.907c1.354-4.376 2.647-8.643 3.909-12.833 2.37.963 4.726 1.845 7.123 2.69-1.14 4.231-2.34 8.612-3.495 13.05zm20.427 6.55c-6.381-1.793-12.768-3.731-19.038-6.035 1.176-4.412 2.346-8.787 3.5-13.019 5.943 2.185 11.941 4.16 18.047 5.88-.884 4.562-1.68 8.99-2.509 13.174zm5.662-12.354c4.706 1.268 9.447 2.417 14.245 3.371-.496 4.376-.935 8.896-1.451 13.431-5.053-1-10.07-2.226-15.063-3.54.73-4.19 1.523-8.695 2.269-13.262zm-3.056 13.07a30.298 30.298 0 0 1-1.778-.535c.782-4.2 1.62-8.69 2.442-13.127.542.134 1.063.242 1.6.381-.782 4.489-1.548 9.004-2.264 13.282zm45.745 10.762c4.16.35 8.329.634 12.514.804l.097-2.752c-4.185-.14-8.36-.413-12.529-.753.123-4.623.215-9.138.317-13.534 5.544.49 11.134.825 16.754.923 1.436 16.25 2.958 33.371 4.006 45.323a291.055 291.055 0 0 1-21.838-.922c.2-9.54.43-19.467.68-29.089zm18.231-15.225c1.298 0 2.616.067 3.883.067 5.805 0 11.578-.211 17.327-.598a7588.63 7588.63 0 0 1 6.06 29.187c-6.515.541-13.025.887-19.626.974l.03 1.376c6.643-.103 13.27-.448 19.897-.984 1.052 5.066 2.008 9.875 2.953 14.09-8.86.758-17.684 1.176-26.518 1.124-1.145-12.946-2.764-31.46-4.006-45.236zm29.13 29.893c3.126-.263 6.3-.593 9.396-.953 1.584 3.844.086 7.926-2.213 14.647-1.4.165-2.82.273-4.271.397-.88-4.247-1.845-8.963-2.913-14.091zm12.747-8.803c-7.643-5.515-5.211-7.4-2.529-14.132 1.017-2.66 1.211-6.02.7-9.354 3.5-.48 6.975-1.119 10.454-1.706 2.667 9.906 5.927 22.25 6.075 22.734.24-.093 1.942-.645 2.56-.861-.076-.371-2.933-10.277-6.387-22.265 6.54-1.257 12.963-2.814 19.442-4.592 3.638 8.767 7.552 18.152 11.42 27.414-12.38 3.597-24.914 6.344-37.59 8.2-.537-1.82-1.718-3.696-4.145-5.438zm-15.721-51.843c5.594-.49 11.097-1.19 16.636-2.134 2.192 8.087 4.41 16.4 4.41 16.4s1.277 4.906 2.963 11.06c-3.454.624-6.923 1.206-10.347 1.68-.98-4.623-3.254-9.024-6.514-11.168-5.917-3.809-6.474-10.736-7.02-14.658-.036-.31-.088-.763-.128-1.18zm8.967 54.992a14.94 14.94 0 0 1 2.703 3.37c-2.98.372-5.973.697-8.968.934a7951.261 7951.261 0 0 1-6.05-29.166c3.89-.258 7.757-.65 11.64-1.114-.352 1.933-1.282 3.603-1.87 4.598-6.193 10.086-.358 18.724 2.545 21.378zm-18.415-54.245c1.645-.103 3.337-.18 4.956-.288.108 7.715 1.339 15.461 7.823 19.363 4.093 2.427 5.196 5.22 5.12 7.803-4.001.495-8.012.886-12.1 1.16-2.156-10.442-4.215-20.333-5.799-28.038zm-18.052 11.102c-.04-.583-.506-5.448-1.011-10.87 5.804.17 11.65.114 17.48-.165 1.588 7.741 3.647 17.621 5.819 28.068-5.661.356-11.353.598-17.06.598-1.34 0-2.668-.082-3.996-.129-.91-10.179-1.543-17.446-1.543-17.446s.153-.025.311-.056zm59.791-1.582c-.316-.866-3.02-7.577-5.717-14.385 2.667-.546 5.304-1.2 7.94-1.866 2.99 7.107 6.74 16.25 10.97 26.383-6.387 1.747-12.82 3.278-19.298 4.53a5696.195 5696.195 0 0 0-7.859-27.362c2.228-.386 4.456-.876 6.689-1.34 2.759 6.927 5.497 13.746 5.824 14.591.608-.211.895-.304 1.451-.551zm14.66 9.756c-4.206-10.138-7.981-19.265-11.011-26.409 1.41-.34 2.81-.67 4.205-1.03 1.763 3.607 3.663 7.57 5.564 11.451-.904.274-1.753.624-2.642.84l.476 1.784c1.016-.315 1.977-.67 3.004-.959 2.263 4.69 4.41 9.148 6.131 12.7-1.906.51-3.822 1.118-5.727 1.623zm.306-16.477c-1.895-3.87-3.832-7.777-5.59-11.385a308.835 308.835 0 0 0 13.76-4.515 2645.5 2645.5 0 0 0 6.448 10.993 217.34 217.34 0 0 1-14.618 4.907zm.787 1.665c4.951-1.516 9.887-3.144 14.715-4.984 2.29 3.922 4.665 8.014 7.062 12.214-5.16 1.949-10.378 3.789-15.62 5.412-1.722-3.5-3.883-7.947-6.157-12.642zm22.727 6.834c-2.391-4.15-4.803-8.262-7.046-12.158 3.74-1.438 7.5-2.835 11.149-4.438a9349.375 9349.375 0 0 1 16.366 24.012c-4.277 1.876-8.574 3.747-12.943 5.52-2.227-3.84-4.506-7.793-6.841-11.746 1.277-.515 2.508-.922 3.75-1.443l-.48-1.237c-1.308.516-2.621.974-3.955 1.49zm21.649 6.787c-5.697-8.36-11.313-16.637-16.33-23.98a208.74 208.74 0 0 0 13.116-6.222c5.125 7 10.95 14.973 17.015 23.275-4.522 2.407-9.116 4.758-13.801 6.927zm15.339-7.761c-6.147-8.314-11.931-16.282-17.061-23.26 1.83-.959 3.572-2.015 5.396-3.025a9731.184 9731.184 0 0 0 19.508 21.92 258.527 258.527 0 0 1-7.843 4.365zm8.599-4.845a4083.884 4083.884 0 0 1-19.508-21.873c2.248-1.248 4.532-2.412 6.729-3.763.393-.226.73-.464 1.104-.685 6.243 6.478 13.208 13.71 20.249 21.038a266.727 266.727 0 0 1-8.574 5.283zm9.565-5.932a6598.924 6598.924 0 0 1-20.224-21.028c3.812-2.402 7.608-4.85 11.277-7.453.286.954.48 1.959.547 2.99.347 6.89 8.338 14.704 15.236 15.745 2.468.37 4.41.458 5.917.866a250.75 250.75 0 0 1-12.753 8.88zm1.941 1.99a276.022 276.022 0 0 0 13.397-9.417c1.027 1.165 1.646 3.16 2.003 6.664.89 9.143 8.232 9.081 11.829 9.236 2.34.139 7.649-.232 11.297 1.309a312.983 312.983 0 0 1-18.16 13.426 12521.043 12521.043 0 0 1-20.366-21.219z"/>
    </g>
</svg>
