<svg xmlns="http://www.w3.org/2000/svg" width="119" height="118" viewBox="0 0 119 118">
    <g fill="#614A0B" fill-rule="evenodd">
        <path d="M69.848 59.338c.538-.386.96-.894 1.376-1.377.342-.4.7-.813 1.114-1.175-.462-.093-.94-.192-1.415-.275-.345-.06-.685-.143-1.026-.218l.031.345c.045.212.127.76-.153 1.21-.208.327-.552.548-1.049.662-.646.167-1.802.813-1.85.84l-.05.023.036.042c.016.014 1.17 1.234 2.986-.077zm17.42 20.356l-.046.02c-.622.235-5.737 1.993-8.976-4.237-.342-.624-.758-2.466-1.492-4.102.205-.351.396-.716.579-1.093 2.241-.462 3.926-1.507 4.246-1.986-1.254.413-2.552.533-3.6.533a20.353 20.353 0 0 0 1.276-4.786c2.918-.042 5.905-.376 7.535-1.5 3.564-2.454 4.381-5.223 4.182-8.23 0 0-2.251 5.714-9.336 3.497-.514-.151-1.532-.753-2.705-1.315a20.432 20.432 0 0 0-.731-2.444c1.32-.517 3.15-.945 4.037-1.145-1.38-.637-3.136-.33-4.457.081-.042.008-.384-.821-.417-.893-.125-.265-.235-.533-.36-.804a.127.127 0 0 1-.028.03c.004.008.004.013.01.023-.853.523-2.201.741-4.311.134-.041-.007 1.985-.416 3.715-1.308-.243-.352-.52-.687-.754-1.05-.06-.096-.443-.8-.585-.736 2.338-2.225 4.885-5.05 5.302-7.285.74-3.95-.51-6.288-2.584-8.115 0 0 2.218 5.203-3.827 8.417-.698.394-3.075.89-4.717 1.916a21.781 21.781 0 0 0-1.862-.953c-.027-1.027-.258-3.31-1.876-3.937 0 0 .854 1.46.642 3.437.015-.182-2.431-.713-2.673-.778-.174-.041-.34-.082-.51-.113.03.097.06.195.089.295.022-.01.032-.01.032-.01s-.005.01-.023.037c.17.542.343 1.068.49 1.568a3.07 3.07 0 0 1-1.06-.588c-.13.205-.263.407-.395.594-1.685 1.59-2.343 3.682-1.924 4.999.42 1.31.148 2.417-.543 3.805.446-2.632-.685-3.56-1.492-5.411-.812-1.862.456-4.756.456-4.756-.018.53-.095 2.644.27 3.899.022-.702.216-1.166 1.19-2.37.49-.614 1.272-1.063 1.911-1.353a3.417 3.417 0 0 1-.417-.929c-.24-.028-.48-.047-.728-.069.158-3.66.044-8.244-1.426-10.428-1.654-2.458-3.452-3.622-5.368-4.053l-.182-.032a9.16 9.16 0 0 0-2.007-.168l-.2.008a4.477 4.477 0 0 0-.383.02s.161.06.411.198l.216.127c1.401.843 4.563 3.44 2.829 9.114-.288 1.012-2.316 4.003-2.316 6.325-.233.086-.464.169-.688.264l-.084-2.254s-.817.852-.78 2.617c-.13.062-.258.126-.383.19-.552-.997-1.373-2.212-2.221-2.534.243.81 1.036 2.037.944 2.939.067.055.148.101.208.163.405.367.709.823 1.024 1.286.476.69.917 1.403 1.269 2.17-.094-.154-.31-.258-.445-.365-.381-.317-.77-.618-1.16-.918-.46-.36-.965-.659-1.425-1.014-.143-.11-.279-.227-.42-.336-.843.447-2.093 1.094-1.933 1.274-2.466-2.742-5.864-6.065-8.5-6.569-3.807-.734-6.213.305-8.086 2.163 0 0-.51.496-.632.678 2.513-.781 3.54-.339 3.8-.303.252.046 3.108.369 5.252 4.495.309.604.714 2.283 1.385 3.851-1.163-.03-2.76.033-3.511.562.048-.03.46.108.52.124.437.085.87.185 1.307.281 1.26.27 2.216.49 3.182 1.402.017.024-.452 1.053-.6 1.42.99.288 1.682.91 2.15 1.53-.612-1.04-1.006-2.342-.896-3.995 2.254 3.034 2.248 5.232 6.966 5.521 4.485.268 5.474-.108 8.242 2.154-1.61-.02-5.204-1.1-8.025 1.223 2.029-.157 6.934-1.153 9.008-.203.26-1.166 1.394-3.552-.075-6.566-.238-.501-.506-.998-.773-1.492a27.379 27.379 0 0 0-1.304-2.2c-.33-.5-.696-.97-1.055-1.446.015-.022 1.166.723 1.617 1.095.45.365.871.76 1.255 1.192.384.43.736.904 1.016 1.414.306.561.523 1.167.664 1.787.085.346.147.692.193 1.044.027.181.053.367.074.546.013.092.022.184.028.276.006.042.062.251.039.28.977-1.146 2.63-3.398 1.583-6.656 1.074 1.438 1.285 1.827 1.285 1.827.6-1.156.125-3.488-1.21-5.088.83-.007 2.026-.033 3.413 2.058 1.479-1.465 2.98-2.503 4.667-2.556-1.426 1.083-4.122 3.107-3.77 4.905-1.404.402-1.972.495-2.98 2.616-1.01 2.13-3.3 5.23-4.62 8.707-.132 2.648.009 6.068-.062 8.113-.073 2.043-.988 3.486-3.015 3.565-2.02.082-4.158 3.344-4.418 5.267 0-2.162.192-3.366.873-4.525-.967.73-2.347 1.628-2.615 3.892-.101-2.388.87-4.554 3.357-5.795 2.477-1.238 3.401-.901 3.735-3.963.33-3.058.16-4.536.16-4.536s-.725.389-1.39 3.28c-.666 2.9-2.42 4.992-4.907 4.223-.605-.187-1.213-.376-1.823-.558-.335-.098-.674-.2-1.016-.298-.104-.03-.52-.064-.637-.192l-.018.002s-.007 0-.012-.002a.536.536 0 0 0-.051.032l-.008.03c-1.08.751-3.012 2.254-3.165 3.47.017-.098-.085-.289-.113-.387a7.953 7.953 0 0 1-.212-1.008c-.154-.943-.187-1.975.076-2.909l-.006.006a10.322 10.322 0 0 0-1.582-.148s.667-.309 1.823-.49c.003-.013.003-.013.006-.013.48-1.002 1.327-1.693 2.368-2.036 1.726-.586 3.675-.353 5.422-.012-.355.68-.54 1.272-.879 1.714-.015.004-.158.062-.37.149a2.69 2.69 0 0 0 .378-.104c-.008.013-.02.022-.023.03.045-.039.093-.082.148-.111.296-.187.574-.397.827-.643.539-.524.95-1.188 1.121-1.941.53-2.328 3.521-4.19 5.133-4.282-.538-.629-1.902-1.321-3.913.316-2.004 1.63-4.685 3.273-6.578.705-.536-.776-.07-1.293-1.364-1.68-1.303-.386-2.727-.367-3.243-3.755 1.824 1.32 2.224 1.67 4.733 1.916-.901-.697-2.554-1.618-3.709-3.197.355.618.494 1.122.494 1.122-1.163-1.26-3.423-1.756-3.562-1.785-.024.066-.047.121-.07.198-.016.063-.163.664-.197.664-.651.053-1.808-.029-3.752-.606 0 0 1.777 1.44 3.493 1.667a23.74 23.74 0 0 0-.314 1.813c-3.604-.551-6.557.598-7.505 1.646C27.366 64.29 23 63.409 23 63.409s2.717 1.336 4.14 1.595c1.421.261 4.7.274 7.48-.347 1.205-.274 3.112.604 4.893 1.685.11.436.212.883.34 1.312a9.065 9.065 0 0 1 1.678-.58c.475-.105.96-.183 1.44-.229.05-.006.553 0 .573-.037-.315.623-.965 1.047-1.55 1.387-.512.298-1.057.523-1.603.748.127.311.243.624.385.928.14.298.285.584.44.874.048.09.373.816.45.816l-2.772.139s1.88 1.013 3.493 1.02c0 .007.004.01.01.016-.323.377-.677.82-1.032 1.314-1.724.336-3.641.51-3.641.51.684.487 1.908.725 2.73.833-1.1 1.772-2.05 3.923-2.126 6.066-.002 2.894-.446 6.81-2.108 7.578 3.643-1.833 5.527-3.008 6.212-5.054.567-1.688 1.957-4.683 5.757-5.56.136.085.27.17.404.25-.172.839-.32 2.046-.228 3.431.268-.77.638-2.011.934-3.013-.02.08 1.394.717 1.527.776.376.17.75.32 1.13.454.15-.343.315-.898.462-1.437-.507.017-1.1-.01-1.822-.088.623-.007 1.3-.222 1.987-.575.128-.517.21-.912.21-.912.103.206.187.43.265.647 3.207-1.903 6.556-6.388 6.556-6.388-.645 4.679-3.41 6.733-4.317 8.851-.19-.065-.542-1.238-.037-2.51-.561.394-1.113.73-1.982.887.189.934.17 1.763.163 1.982.07.04.143.075.214.099.223.092.447.15.68.204.147.036 1.721.345 1.721.351-.015 3.166.284 6.537 1.48 8.32 2.432 3.6 5.17 4.42 8.14 4.22 0 0-5.649-2.276-3.452-9.441.175-.614.976-1.94 1.594-3.404a19.548 19.548 0 0 0 2.945-.953c1.76.82 2.12 2.335 2.57 3.715.703-1.573-.47-3.228-1.41-4.231.38-.176.745-.419 1.13-.585.01-.006.012-.012.024-.016a3.18 3.18 0 0 1-.774-1.207 5.617 5.617 0 0 1-.304-1.603 36.824 36.824 0 0 0 1.872 2.31c.086-.04.172-.086.253-.137.116-.08 1.357-.96 1.362-.96 2.252 2.324 4.93 4.644 7.084 5.057 1.925.37 3.495.283 4.816-.127l.328-.115c1.418-.508 2.546-1.415 3.532-2.545l.022-.036zm-14.244-3.447a20.726 20.726 0 0 0 3.288-3.926c.964 7.554 7.131 8.197 8.635 8.32-5.38 2.855-9.724-1.427-11.923-4.394zm-2.543-.084a29.721 29.721 0 0 0-1.92-.084c-.406-.008-.813.004-1.215-.035a3.222 3.222 0 0 1-.473-.064 3.874 3.874 0 0 0-.286-.053c-.01 1.626-.446 3.109-.623 4.097.082-1.522-.291-3.096-.862-4.576-.285-.141-.538-.34-.778-.544-.71-.596-1.043-1.454-1.148-2.36a7.236 7.236 0 0 1-.051-.914c-1.113-1.735-2.122-2.884-2.122-2.884.758.303 1.415.632 1.987.981-.057-.225-.178-.459-.28-.662-.39-.77-1.036-1.34-1.682-1.894-.726-.628-1.437-1.272-1.973-2.083-1.509-2.293-.053-4.7-.053-4.7.9-.082 2.128 1.087 3.384 2.28 1.256 1.192 1.94 1.625 4.645 1.565 2.71-.069 4.859.994 5.196 1.444-2.788-.62-5.587-.199-6.057-.003-1.844.89-3.68.003-4.742.264 5.186 2.463 6.939 5.75 7.71 7.634-1.284-1.962-2.426-2.545-4.04-3.563.025.015-.025.46-.02.515 0 .198.006.386.03.582.012.144.007.282.007.43a6.29 6.29 0 0 1 1.305 2.716c.353.072.767.072 1.075.107.474.069.952.154 1.42.263.652.152 1.305.356 1.902.659.319.167.63.361.887.62.049.045.29.426.334.428a22.948 22.948 0 0 0-1.557-.166zm-7.996 16.409c-5.196-1.876-4.848-7.583-4.147-10.886.048.003.1.011.142.011 1.43.054 2.837-.052 4.19-.289-3.473 5.717-.395 10.4-.185 11.164zm2.465-34.323c.756-.082 2.42.28 3.148-1.908.05-.154.1-.293.152-.442-.41-.106-.825-.195-1.23-.32-.22-.067-.435-.127-.647-.216-.062-.033-.23-.075-.25-.15.011.025.927 0 .993 0 .453.004.908.025 1.365.025.07-.185.133-.381.214-.553.15-.353.334-.68.572-.98.252-.325.552-.59.887-.823.197-.146.417-.277.628-.407.14-.071.637-.23.707-.36-.304.573-.682 1.117-.975 1.695a6.42 6.42 0 0 0-.441 1.126c-.025.077-.03.144-.025.209.11-.01.22-.024.327-.032.221-.025.426-.009.64-.05.232-.045.475-.058.714-.094.793-.112 1.578-.257 2.346-.495.89-.276 1.84-.68 2.438-1.44a10.336 10.336 0 0 1-1.515 1.853c-.25.247-.515.482-.785.712-.13.111-.494.31-.615.49.116-.032.232-.082.357-.12.646-.176 1.31-.222 1.973-.193.7.022 1.129.198 1.631.493-.073-.045-.446.051-.538.06-.301.021-.599.045-.89.067-.359.033-.72.072-1.075.136-.086.018-.176.048-.268.076.5.123 1.018.205 1.524.322a41.15 41.15 0 0 1 2.289.587c1.424.414 2.874.884 4.195 1.593.093.047.187.105.283.157 1.391-.098 5.86-.28 7.123-2.015-.38 1.199-1.302 5.038-9.646 4.503-.801-.023-2.768-.319-3.759-.73-.125-.051 2.972-.984 4.678-.788-.407-.052-.822-.202-1.216-.296-1.44-.321-2.878-.618-4.297-1.016-.661-.188-1.317-.39-1.945-.658-.298-.124-.756-.28-1.049-.531a1.062 1.062 0 0 1-.153-.174c-.113.08-.223.187-.314.355-.897 1.693-2.423 2.077-.843 3.225 1.578 1.15 1.543 2.211 5.915 2.38-1.386.3-5.23 1.201-7.728-1.595-1.804-.203-2.27-.082-4.147-1.189-.799-.33-3.32-.284-3.982-.697-.076-.044.246-1.46 3.234-1.792zm13.822-22.363c.714 1.998 3.158 7.322-5.21 10.588a20.132 20.132 0 0 0-2.852-2.387c3.079-.948 8.353-3.32 8.062-8.201zm-23.848 5.06c4.85-4.788 1.358-10.664 1.358-10.664 4.728 1.495 4.274 7.482 3.792 10.226a20.079 20.079 0 0 0-5.15.438zm.03 8.965c.2.918.432 1.817.69 2.723.247.87.513 1.733.787 2.6.22.71.453 1.42.686 2.128.015.063.038.128.06.195.01.038.026.15.055.172-2.798-2.453-6.861-2.146-8.327-2.08-4.51.366-5.896-3.68-5.76-3.548 2.54 2.443 4.537 2.097 6.826 2.066-1.592-.546-2.295-1.94-3.183-3.412 2.616 2.597 3.568 2.138 4.72 2.368-2.808-4.308-4.676-3.538-5.907-3.624-1.234-.086-1.772-.82-1.772-.82s.394-.52 2.36-.976c1.965-.465 3.378-1.092 4.713 1.417 1.333 2.515 2.465 4.335 4.12 5.342-1.257-1.562-2.206-5.497-2.131-7.615.076-2.126-.26-3.232-.897-4.28.891.295 2.528 1.566 2.518 4.032 0 .24.01.48.035.717.07.87.223 1.741.408 2.595zm-20.013-8.957s6.057-2.44 10.475 4.975a20.531 20.531 0 0 0-3.017 3.522c-.474-2.901-2.078-7.488-7.458-8.497zm8.622 32.243s2.274-3.937 6.232-1.366c-1.677.847-4.228 1.968-6.232 1.366zM39.625 86.02s-2.376-7.428 4.64-10.906c.83.902 1.739 1.72 2.713 2.465-2.18.885-5.714 3.098-7.353 8.441zm.028-22.026s3.081 1.888 8.553.836c-2.745 1.305-6.528 2.268-8.553-.836zm-4.991-1.471c-1.392-.302-2.774-.195-4.188.765-1.24.832-2.583.653-2.891.598-.023.025-.044.036-.044.036l-.023-.056s.023.012.067.02c.303-.277 2.352-2.149 4.164-3.343 1.352-.9 4.48-1.61 7.147-.998-.02.267-.04.543-.051.809a20.904 20.904 0 0 0 .22 3.861c-1.236-.695-2.82-1.421-4.401-1.692z"/>
        <path d="M107.287 65.887c-1.063.38-1.715.575-2.37.219.143-1.004.242-2.016.32-3.034.769.16 1.536.315 2.3.466a48.998 48.998 0 0 1-.25 2.35zm-.426 2.71c-.737-.237-1.485-.478-2.245-.715.027-.136.043-.263.069-.387.664.187 1.308-.181 1.696-.387.18-.097.471-.286.802-.46-.09.656-.204 1.302-.322 1.95zm-.226 1.16c-.716-.252-1.456-.515-2.219-.785.052-.28.106-.555.16-.835.757.245 1.509.477 2.243.71-.064.305-.125.614-.184.91zm-.768 3.12c-.704-.294-1.428-.594-2.165-.892.093-.33.186-.662.267-.994.143-.59.269-1.18.398-1.774l2.212.782c-.21.96-.441 1.93-.712 2.878zm-1.215 3.793c-.678-.313-1.382-.648-2.117-.986a46.33 46.33 0 0 0 1.1-3.447c.737.3 1.463.598 2.17.89a50.744 50.744 0 0 1-1.153 3.543zm-2.317-1.078c-1.44-.677-2.938-1.38-4.377-2.046.01-.015.011-.031.022-.049.366-1.048.69-2.11.97-3.186.661.268 1.342.55 2.033.837-.021.071-.033.149-.06.225l.432.121c.018-.056.027-.121.043-.179.67.275 1.356.556 2.03.834a49.908 49.908 0 0 1-1.093 3.443zm-.193.494l-1.827-.884.12-.258s.757.35 1.82.846c-.035.101-.074.196-.113.296zm-2.575 5.707c-1.32-.886-2.702-1.817-4.024-2.711a41.654 41.654 0 0 0 2.167-4.89c1.437.684 2.926 1.406 4.359 2.098a47.28 47.28 0 0 1-2.502 5.503zM95.36 78.96c-.652-.438-1.28-.864-1.875-1.264a39.638 39.638 0 0 0 1.992-4.575c.648.313 1.33.64 2.036.972a42.932 42.932 0 0 1-2.153 4.867zm-2.244 3.816c-.394-.333-1.032-.85-1.749-1.437a39.306 39.306 0 0 0 2.013-3.447c.598.4 1.228.82 1.875 1.258a42.613 42.613 0 0 1-2.14 3.626zm-3.209 4.244a2539.958 2539.958 0 0 0-3.25-3.288 38.146 38.146 0 0 0 2.74-3.686c.528.439 1.076.887 1.598 1.317a39.066 39.066 0 0 1-1.99 2.751l.228.187a39.629 39.629 0 0 0 2-2.745c.72.594 1.353 1.11 1.75 1.436a41.305 41.305 0 0 1-3.076 4.028zm-3.889 3.967c-1.053-1.361-2.03-2.619-2.83-3.657a36.827 36.827 0 0 0 2.993-3.049c.96 1.004 2.125 2.229 3.189 3.35a41.954 41.954 0 0 1-3.352 3.356zm-56.557-51.43c-.53-.258-2.059-1-4.051-1.982l.575-.857c.627.49 1.459.82 2.215 1.108 1.372.52 1.806.653 1.806.653s.47-.329.079-.585c-.397-.252-1.993-.812-2.533-1.13-.292-.165-.712-.397-1.072-.735a37.83 37.83 0 0 1 1.73-2.216c2.307 1.561 3.93 2.666 4 2.708.076-.083.124-.138.21-.242l-3.994-2.714a37.707 37.707 0 0 1 1.875-2.047c.586.474 1.124.915 1.599 1.303-.078.08-.159.154-.236.232l.418.422c.096-.093.19-.181.28-.272.968.798 1.603 1.315 1.644 1.35.072-.067.11-.1.187-.18-.061-.045-.687-.564-1.647-1.35a37.27 37.27 0 0 1 3.04-2.708c.823.86 1.375 1.434 1.4 1.468.043-.034.138-.111.197-.149-.032-.038-.572-.628-1.372-1.5.203-.157.413-.308.616-.463.733.856 1.287 1.511 1.35 1.586a2.59 2.59 0 0 1 .205-.163c-.074-.083-.624-.724-1.343-1.572.322-.236.644-.471.977-.696l1.287 1.618c.076-.049.116-.074.197-.129-.038-.044-.525-.658-1.293-1.62.141-.103.293-.2.437-.298.695.94 1.167 1.596 1.218 1.66.083-.055.124-.087.21-.143-.049-.07-.527-.721-1.216-1.661.54-.35 1.09-.682 1.651-1.001.645 1.027 1.043 1.669 1.077 1.714l.238-.136c-.033-.05-.432-.69-1.074-1.71.399-.225.792-.45 1.201-.654.587 1.053.955 1.72.977 1.765.091-.046.136-.067.231-.118-.031-.046-.398-.715-.978-1.758.344-.179.686-.352 1.036-.516.257-.12.519-.224.782-.342.211.452.808 1.676.89 1.85.158-.064.48-.193.64-.264-.02-.049-.346-.77-.853-1.88.333-.136.671-.272 1.008-.408.43 1.108.7 1.806.719 1.862.095-.039.142-.056.236-.098-.02-.048-.286-.742-.717-1.847.623-.23 1.249-.45 1.881-.65.072.644.138 1.358.22 1.618.141.423.596.052.596.052s-.002-.436-.116-1.835v-.042c.127-.031.255-.077.383-.11l.497 1.91c.135-.04.241-.068.37-.108l-.494-1.921a38.851 38.851 0 0 1 1.932-.452 259.2 259.2 0 0 1 .345 1.942c.102-.025.15-.04.248-.056-.008-.062-.14-.788-.344-1.934.23-.046.461-.084.688-.122l.182 1.385.03.223c.027.2.04.319.044.342.09-.02.139-.028.198-.041 0-.012-.012-.078-.02-.17l-.05-.36-.188-1.417a55.221 55.221 0 0 1 2.098-.305c.083 1.016.138 1.757.153 1.944l.568-.054c-.006-.062-.057-.813-.134-1.95 1.006-.1 2.016-.166 3.042-.18-.058 1.053-.098 1.837-.105 1.943.108-.004.156-.004.257-.005 0-.087.047-.882.103-1.928.547-.01 1.101-.013 1.656.004l.019-.594c-.547-.021-1.095-.015-1.645-.013.036-.66.075-1.38.108-2.092.542 0 1.074 0 1.614.02.106.007.208.017.312.023-.312 2.64-.539 4.493-.552 4.593h.119l.142.01c.006-.086.229-1.947.547-4.59.44.023.88.05 1.32.085l-.824 4.562c.108.008.155.013.25.017.011-.074.35-1.96.82-4.56.38.035.762.079 1.14.127-.55 2.59-.948 4.433-.965 4.53.1.015.145.015.237.028l.97-4.53c.962.118 1.911.273 2.854.467-.72 2.414-1.314 4.416-1.338 4.494.116.023.31.061.402.086.008-.015.034-.093.07-.218.06.01.131.026.19.033.015-.07.699-2.097 1.139-3.409-.027-.008-.135-.04-.238-.077.083-.262.165-.53.252-.803.729.158 1.45.331 2.163.531-.95 2.456-1.637 4.241-1.672 4.328.09.02.133.036.208.059l1.668-4.332c.198.056.395.107.59.159a824.586 824.586 0 0 1-1.84 4.28c.114.03.156.037.252.07.058-.138.972-2.267 1.831-4.27.904.278 1.792.6 2.678.94-1.14 2.43-1.938 4.142-1.98 4.235.184.065.418.14.57.187.033-.074.845-1.768 2.012-4.186.748.3 1.48.623 2.213.98l.13-.274a45.247 45.247 0 0 0-2.212-.977c.305-.637.635-1.32.985-2.04.834.347 1.664.72 2.482 1.125-.919 1.464-1.798 2.849-2.482 3.935-.041-.02-.077-.04-.122-.059l-.246.54a.529.529 0 0 1 .046.03c-.632.994-1.042 1.65-1.074 1.695.083.041.13.068.202.098.046-.074.547-.867 1.072-1.694a40.88 40.88 0 0 1 2.476 1.31c-.725.893-1.201 1.486-1.252 1.546l.229.126 1.245-1.544c.273.161.538.32.799.487-.04.095-.088.186-.133.276-.662 1.36-.842 1.798-.842 1.798s.285.518.585.139c.21-.267.638-1.142 1-1.824.733.478 1.448.974 2.151 1.502-.678.752-1.27 1.394-1.314 1.449.027.025.132.11.17.154.027-.023.578-.61 1.362-1.44.28.214.55.44.828.668-.75.645-1.417 1.222-1.533 1.322.093.07.133.108.204.168.083-.074.761-.661 1.528-1.328.341.281.678.573 1.014.868-.92.772-1.499 1.264-1.555 1.307.085.078.122.11.183.171.038-.031.622-.527 1.555-1.312.168.146.337.294.506.45-.889.655-1.558 1.153-1.649 1.226.084.079.124.12.19.177.065-.046.741-.55 1.649-1.23.565.537 1.11 1.098 1.64 1.666a162.124 162.124 0 0 1-1.794 1.139c.05.055.077.08.117.126.034-.024.734-.469 1.788-1.14.318.341.631.683.938 1.04l.445-.384c-.277-.34-.58-.657-.875-.983.528-.332 1.122-.711 1.758-1.11.433.481.87.963 1.279 1.472-2.396 1.292-4.159 2.245-4.252 2.293.073.076.098.111.145.165.067-.031 1.832-.982 4.245-2.282.496.615.979 1.246 1.44 1.892-2.464 1.22-4.185 2.084-4.292 2.135.075.102.107.149.162.231.066-.034 1.803-.898 4.29-2.13.182.268.361.548.534.817a1105.8 1105.8 0 0 1-4.6 1.749l.097.117c.056-.021 2.094-.798 4.586-1.742.243.366.503.728.732 1.107.025.041.046.082.07.125-2.618.885-4.568 1.538-4.668 1.57.057.074.077.108.123.166.066-.024 2.013-.681 4.65-1.572.399.678.783 1.364 1.15 2.058-.57.433-1.277.533-1.726.624-.61.12-2.296.126-2.756.234-.448.11-.108.577-.108.577s.448.014 1.908-.027c1.061-.025 2.245-.081 3.086-.61.107.222.215.443.324.665-.769.203-4.402 1.17-4.735 1.257.077.155.134.268.189.384.148-.041 2.654-.7 4.73-1.237a42.47 42.47 0 0 1 1.072 2.558c-2.53.461-4.697.86-4.858.885.043.11.064.157.1.246a570.15 570.15 0 0 1 4.846-.881c.102.287.207.58.307.872-2.71.41-4.764.717-4.885.735.036.117.054.163.083.249.086-.015 2.152-.326 4.889-.741.324.968.606 1.944.858 2.933l.283-.072a37.09 37.09 0 0 0-.847-2.898c.717-.11 1.479-.231 2.255-.346.408 1.262.751 2.54 1.037 3.83-1.561.105-3.259.22-4.653.311a35.142 35.142 0 0 0-.93-3.232l-.56.19c.346 1.02.636 2.046.89 3.085l-2.31.158c.054.203.129.49.166.646.081-.001 1.042-.058 2.296-.129.21.91.382 1.818.516 2.747-1.152-.034-1.88-.054-1.945-.054.019.1.025.148.038.23.04 0 .778.02 1.933.054.138.983.24 1.959.295 2.95a201.495 201.495 0 0 0-2.366-.283c.009.11.012.163.017.257l2.362.29c.06 1.09.07 2.187.031 3.289 0 .013 0 .016-.005.022-1.4-.283-2.294-.462-2.37-.48-.011.118-.011.238-.018.265.058.012.952.187 2.37.475-.03.779-.086 1.555-.167 2.335-.238 0-.478.006-.705.012-1.577.046-2.066.085-2.066.085s-.333.53.159.62c.02.001.046.001.065.007-.004.04-.01.072-.019.126.053.011.949.299 2.357.748-.025.17-.042.345-.068.513-1.39-.493-2.292-.809-2.358-.834-.021.108-.021.16-.043.245.05.014.956.335 2.354.829a34.596 34.596 0 0 1-.465 2.28c-1.374-.562-2.262-.92-2.328-.952-.029.106-.036.157-.062.25.05.025.94.387 2.325.958a40.49 40.49 0 0 1-.44 1.7l.567.164c.159-.543.292-1.09.424-1.64.584.24 1.24.511 1.94.795a37.768 37.768 0 0 1-.93 3.125c-2.66-1.249-4.662-2.177-4.757-2.224-.057.174-.142.43-.182.572.07.032 2.062.994 4.721 2.275a40.426 40.426 0 0 1-1.978 4.54c-2.464-1.66-4.323-2.916-4.415-2.973-.04.084-.06.125-.1.199.073.042 1.936 1.302 4.413 2.966a36.993 36.993 0 0 1-1.995 3.424c-.526-.431-1.075-.886-1.602-1.317.401-.62.79-1.252 1.159-1.908l-.522-.287a37.852 37.852 0 0 1-1.098 1.816 355.805 355.805 0 0 1-2.076-1.705c-.06.096-.087.136-.141.218.07.06.686.568 1.51 1.246l.026.018c.176.142.353.288.542.442a37.596 37.596 0 0 1-2.695 3.634c-.712-.718-1.346-1.359-1.569-1.582 0 0-.423.417-.474.47.038.037.682.712 1.572 1.655a35.112 35.112 0 0 1-2.947 3.013c-1.005-1.3-1.662-2.16-1.708-2.208-.083.069-.112.096-.193.164.044.053.7.896 1.71 2.21-.346.306-.686.616-1.04.91l.377.459c.345-.29.688-.596 1.028-.901 4.042 5.23 12.599 16.297 12.756 16.503.013-.013.102-.092.193-.166-.116-.152-5.535-7.16-9.789-12.664a43.531 43.531 0 0 0 3.367-3.379 246.3 246.3 0 0 0 1.51 1.587 43.726 43.726 0 0 1-3.409 3.417l.296.332a43.433 43.433 0 0 0 3.418-3.43c.611.642 1.03 1.078 1.058 1.11.08-.062.26-.224.26-.224s.168.18.425.445a46.79 46.79 0 0 1-3.142 3.22l.152.165a48.382 48.382 0 0 0 3.147-3.23l1.631 1.694a51.706 51.706 0 0 1-3.14 3.209l.096.114a51.864 51.864 0 0 0 3.15-3.211c.283.292.5.505.532.545.017-.012.072-.057.126-.112-.038-.046-.263-.27-.545-.563a6.08 6.08 0 0 1 .167-.185c.288.294.514.521.56.57a5.32 5.32 0 0 1 .122-.117c-.019-.022-.227-.233-.569-.58a61.104 61.104 0 0 0 1.493-1.756 52.07 52.07 0 0 0 4.225-6.167l-.124-.073a52.234 52.234 0 0 1-4.219 6.139 55.818 55.818 0 0 1-1.483 1.75c-.408-.41-.976-.989-1.647-1.668.139-.168.3-.318.44-.481l-.173-.151c-.135.161-.281.316-.424.474-.472-.477-.987-1.004-1.528-1.55a46.114 46.114 0 0 0 3.502-4.6l-.371-.249a43.86 43.86 0 0 1-3.45 4.528c-.506-.505-1.025-1.037-1.542-1.563a41.61 41.61 0 0 0 3.085-4.043c.132.107.228.19.254.207l.162-.2a12.78 12.78 0 0 1-.27-.224 46.32 46.32 0 0 0 2.138-3.64 877.88 877.88 0 0 1 4.023 2.71c-.18.328-.358.662-.548.991l.19.11c.19-.32.366-.65.541-.98 3.37 2.263 6.234 4.198 6.336 4.266.05-.081.11-.185.11-.193-.082-.059-2.96-1.998-6.335-4.269a47.658 47.658 0 0 0 2.517-5.53c3.688 1.775 6.845 3.296 6.963 3.345l.075-.2a3470.27 3470.27 0 0 0-6.958-3.349c.034-.097.07-.193.108-.292.636.3 1.373.639 2.119.99-.026.058-.047.13-.073.196l.148.044c.016-.055.04-.12.056-.182a5489.13 5489.13 0 0 0 4.752 2.22c.03-.088.047-.128.075-.208-.077-.031-2.08-.964-4.75-2.214.43-1.173.82-2.352 1.163-3.551 4.301 1.77 7.932 3.262 8.061 3.319l.079-.247c-.115-.047-3.754-1.544-8.077-3.317.263-.96.495-1.92.706-2.886 3.354 1.18 5.981 2.114 6.088 2.147l.055-.234c-.09-.036-2.724-.965-6.087-2.154.064-.305.129-.613.182-.918 4.456 1.422 8.229 2.617 8.366 2.662.005-.022.022-.131.055-.252-.117-.032-3.9-1.234-8.374-2.66.128-.692.239-1.385.336-2.078.667-.317 1.449-.526 1.883.116.697 1.03 2.338 2.097 3.19 2.118.53.015 1.058-.196 1.51-.48.79-.497 1.235-.945 2.22-.759 1.104.217 2.033.808 2.859 1.56 0 0-1.14-3.372-3.492-2.341-2.337 1.033-3.277 2.056-4.159.755-.883-1.305-1.4-2.569-3.329-1.906-.209.075-.398.145-.577.208.099-.753.179-1.509.237-2.268a8124.247 8124.247 0 0 0 10.643 2.135c.016-.107.019-.16.033-.253-.138-.035-5.103-1.03-10.648-2.141.058-.701.092-1.412.119-2.126l-.143-.004a48.415 48.415 0 0 1-.12 2.098c-.765-.147-1.537-.304-2.313-.462.04-.569.082-1.139.105-1.717.03-.796.03-1.596.023-2.396 2.634.327 4.658.569 4.767.583.012-.108.02-.156.034-.254-.11-.01-2.146-.26-4.801-.586a49.313 49.313 0 0 0-.254-3.945c4.043.11 7.536.198 7.66.207 0-.012-.008-.135-.017-.228-.103-.003-3.605-.1-7.663-.21a46.866 46.866 0 0 0-1.757-8.68c.818-.127 1.605-.242 2.324-.35.086.3.187.605.267.914l.146-.042c-.082-.297-.18-.597-.268-.893 2.242-.343 3.846-.582 3.944-.601a2.904 2.904 0 0 1-.045-.256c-.09.018-1.71.262-3.971.602a50.77 50.77 0 0 0-1.92-5.29c1.295.088 1.694-.954 2.347-2.039.746-1.24 1.67-.35 3.88.484 2.21.823 3.098-2.348 3.098-2.348-.726.742-1.554 1.337-2.558 1.587-.9.232-1.33-.167-2.088-.582-.426-.233-.93-.402-1.417-.362-.782.067-2.246 1.135-2.838 2.115-.169.301-.444.403-.739.413a49.654 49.654 0 0 0-1.661-3.366c2.59-.874 4.505-1.516 4.594-1.55a2.037 2.037 0 0 1-.097-.17c-.076.026-1.992.674-4.59 1.545a49.629 49.629 0 0 0-1.571-2.694l-.123.078c.541.87 1.06 1.766 1.548 2.666-1.39.47-2.966 1.001-4.554 1.54a44.213 44.213 0 0 0-.856-1.441c2.21-.84 3.95-1.501 4.02-1.531a1.797 1.797 0 0 1-.075-.116c-.061.026-1.8.681-4.026 1.528-.265-.434-.548-.853-.834-1.282 6.362-3.158 13.724-6.822 13.92-6.92-.057-.105-.083-.148-.136-.24-.162.074-7.558 3.752-13.94 6.927-.481-.698-.98-1.393-1.497-2.069 4.621-2.491 9.305-5.016 9.446-5.096-.056-.079-.081-.108-.13-.175-.112.067-4.809 2.595-9.446 5.098a42.247 42.247 0 0 0-1.484-1.815l4.536-2.887a1.981 1.981 0 0 0-.105-.13c-.064.038-2.092 1.324-4.54 2.883-.017-.011-.029-.035-.042-.052l-.334.295c-.613.396-1.243.792-1.874 1.195a45.193 45.193 0 0 0-1.884-1.998c.477-.358.802-.598.859-.636-.065-.088-.095-.128-.15-.21-.058.04-.398.294-.89.663a26.191 26.191 0 0 0-.721-.685c1.187-.996 2.453-2.067 3.711-3.125.573.55 1.135 1.108 1.68 1.683l.16-.152c-.544-.574-1.1-1.13-1.665-1.675 4.169-3.506 8.142-6.856 8.262-6.965 0 0-.095-.102-.163-.182-.105.09-4.094 3.449-8.283 6.977a46.072 46.072 0 0 0-4.889-4.07c.312-.471.292-1.07.288-1.447 0-.262-.043-.737-.005-1.217.847.587 1.69 1.192 2.511 1.83l.089-.118a53.978 53.978 0 0 0-2.587-1.88c.07-.594.284-1.149.902-1.225 1.166-.128 2.792-1.055 3.187-1.766.248-.446.304-.992.27-1.49-.062-.903-.244-1.478.353-2.233.668-.84 1.574-1.372 2.575-1.74 0 0-3.335-.528-3.511 1.92-.175 2.455.27 3.71-1.22 3.887-1.477.172-2.772.043-3.07 1.981-.017.104-.03.19-.04.284-.177-.114-.344-.226-.522-.331 1.021-1.266 1.713-2.12 1.763-2.186-.078-.068-.115-.092-.197-.163-.05.064-.75.933-1.78 2.21a48.753 48.753 0 0 0-3.79-2.183c.729-1.156 1.234-1.965 1.273-2.02-.054-.033-.136-.077-.154-.09-.024.042-.524.836-1.283 2.029a45.705 45.705 0 0 0-3.264-1.535c2.18-4.535 4.082-8.49 4.15-8.62-.096-.044-.144-.06-.235-.097l-1.098 2.28-.307-.142s.929-1.989 1.065-2.27c-.072-.023-.136-.053-.241-.09L76.768 13a55.861 55.861 0 0 0-2.447-.923c-.563-.2-1.138-.386-1.713-.56 1.223-3.169 2.177-5.65 2.214-5.75a3.71 3.71 0 0 0-.2-.065c-.034.081-.995 2.572-2.22 5.763a47.976 47.976 0 0 0-7.052-1.57c.874-4.072 1.595-7.438 1.624-7.562-.11-.018-.196-.025-.244-.033-.016.108-.744 3.483-1.62 7.568a33.55 33.55 0 0 0-1.487-.189c.63-3.499 1.126-6.269 1.146-6.382-.101-.011-.148-.013-.244-.022-.018.097-.516 2.87-1.153 6.381a52.18 52.18 0 0 0-1.918-.165c.6-4.98 1.115-9.33 1.135-9.475-.106-.002-.153-.008-.258-.016-.016.134-.53 4.485-1.135 9.483-.392-.023-.785-.057-1.175-.069l-.007.148c.39.015.78.04 1.163.068a873.69 873.69 0 0 1-.565 4.743c-.255-.017-.51-.04-.768-.05l-.013.45c.247.007.485.031.733.045-.094.745-.18 1.475-.264 2.183l-.547-.032a52.96 52.96 0 0 0-1.557-.03l.044-.874c-.104-.002-.15-.007-.259-.013 0 .057-.017.391-.047.89-1.233.014-2.47.075-3.7.196l-.327-4.832c1.99-.186 3.997-.25 6.018-.173l.007-.23a47.455 47.455 0 0 0-6.038.183c-.092-1.351-.159-2.264-.162-2.332-.15.002-.497.018-.497.018s-.19-2.346-.206-2.606c-.108.001-.157.006-.257.006.006.107.182 2.242.402 4.985a45.68 45.68 0 0 0-2.624.36C49.964 8.025 49.434 4 49.42 3.874c-.087.013-.122.027-.205.038.017.126.55 4.146 1.14 8.645-.391.068-.781.126-1.171.203-.717-4.05-1.351-7.568-1.368-7.707-.107.022-.156.028-.255.049.021.133.654 3.664 1.377 7.715-.903.182-1.805.394-2.697.64-.259-1.009-.43-1.67-.445-1.74-.102.026-.147.04-.253.065.046.167.267 1.03.453 1.74a39.48 39.48 0 0 0-1.822.535c-.064-.531.142-1.195.393-2.201.44-1.8-.813-2.072-2.135-2.665-1.32-.595-.44-1.569.308-3.784.75-2.217-2.568-2.744-2.568-2.744.8.621 1.455 1.36 1.764 2.305.28.844-.108 1.297-.505 2.072-.221.43-.372.927-.307 1.395.108.746 1.282 2.047 2.328 2.51 1.039.47.102 2.028-.126 2.57-.234.547-.77 1.632.568 2.287 1.34.641.972.984.64 2.061-.334 1.08.3 2.715 1.332 3.153.175.073.325.169.452.275-.624.196-1.251.417-1.867.65-.509-1.309-1.085-2.808-1.694-4.37.075-.028.146-.066.218-.087l-.148-.42a4.176 4.176 0 0 0-.227.09c-.568-1.466-1.154-2.98-1.712-4.436.301-.118.601-.235.908-.344l-.052-.146c-.31.113-.607.239-.914.352-1.808-4.67-3.381-8.746-3.432-8.873-.115.041-.215.086-.241.089.05.134 1.629 4.203 3.433 8.875-.577.225-1.148.456-1.715.7-1.068-2.363-1.864-4.09-1.89-4.16l-.024.002s-.089.04-.18.076c.036.083.842 1.832 1.906 4.168-.17.069-.341.144-.51.22-1.117-2.315-1.946-4.059-1.988-4.133-.08.033-.109.045-.193.086.038.081.88 1.835 1.989 4.133-.843.381-1.685.78-2.507 1.21-2.422-4.367-4.528-8.163-4.593-8.289-.097.058-.202.114-.202.114s-.014.012-.02.012c.062.127 2.169 3.918 4.586 8.282-.607.326-1.207.653-1.801 1.003-3.081-4.93-5.904-9.436-5.988-9.568-.093.06-.193.12-.193.12s-.027.021-.04.021c.084.142 2.906 4.645 5.99 9.57a47.215 47.215 0 0 0-3.517 2.284c-2.343-2.941-4.218-5.3-4.284-5.384l-.04.03s-.075.05-.148.105c.073.087 1.944 2.443 4.283 5.377a48.65 48.65 0 0 0-3.646 2.892l.095.107a51.964 51.964 0 0 1 3.645-2.88c.943 1.187 1.96 2.461 2.961 3.723a45.255 45.255 0 0 0-2.214 1.686 478.862 478.862 0 0 0-2.043-2.22l-.217.175s-.092.082-.16.14c.037.036.902.95 2.082 2.187a41.996 41.996 0 0 0-2.535 2.235l.306.323a43.467 43.467 0 0 1 2.535-2.236c.47.495.985 1.035 1.51 1.581a43.606 43.606 0 0 0-3.501 3.194c-1.221-1.004-2.508-2.061-3.73-3.06a47.738 47.738 0 0 1 2.492-2.431l-.15-.169c-.869.786-1.7 1.614-2.513 2.46-2.919-2.403-5.388-4.43-5.486-4.516-.07.083-.1.121-.166.202.102.085 2.56 2.108 5.476 4.497a51.422 51.422 0 0 0-2.37 2.678 3974.877 3974.877 0 0 1-9.785-6.632.647.647 0 0 0-.04.05s-.061.08-.123.156c.144.095 4.912 3.325 9.783 6.618-.346.434-.676.875-1.004 1.309-.513-.652-1.347-.532-1.817-.488-.59.063-2.342.485-2.58-.642-.245-1.126-1.278-2.624-1.999-2.944-.454-.2-.983-.202-1.46-.12-.856.144-1.399.377-2.183-.137-.868-.571-1.46-1.407-1.905-2.35 0 0-.196 3.308 2.172 3.248 2.37-.06 3.538-.61 3.84.824.308 1.43.308 2.697 2.197 2.806 1.616.095 2.42.03 2.953.85a45.444 45.444 0 0 0-1.57 2.36l-8.099-3.967a3.163 3.163 0 0 1-.037.079s-.164.344-.179.386c.953.453 4.383 2.085 8.104 3.852a47.59 47.59 0 0 0-1.336 2.314c-4.385-1.635-8.312-3.093-8.42-3.137l-.103.184c.131.047 4.05 1.508 8.422 3.144-.319.594-.632 1.2-.917 1.807-5.557-1.885-10.947-3.707-11.083-3.753-.046.09-.056.137-.106.238.177.062 5.769 1.954 11.073 3.753-.072.154-.14.31-.214.473-5.354-1.708-10.995-3.496-11.148-3.547 0 0-.048.122-.1.24.17.05 5.573 1.768 11.14 3.544-.15.328-.31.652-.45.979l.204.087c.142-.337.308-.666.458-.998 1.563.498 3.134.997 4.6 1.46-.461.984-.872 1.988-1.257 2.995-.713-.177-1.431-.35-2.136-.52.299-.806.61-1.602.959-2.387l-.405-.18c-.361.807-.68 1.628-.988 2.458-1.706-.413-3.338-.81-4.622-1.12a52.12 52.12 0 0 1 1.343-3.398l-.135-.059c-.5 1.124-.943 2.27-1.355 3.418a217.845 217.845 0 0 0-2.567-.622l-.047.24s.004.009 0 .01c.061.016 1.05.255 2.53.609a47.568 47.568 0 0 0-.682 2.092c-4.781-.807-8.87-1.5-8.992-1.522-.026.09-.04.14-.066.252.144.018 4.22.71 8.98 1.513-.182.607-.344 1.22-.505 1.835-4.322-.527-7.898-.962-8.027-.98-.015.106-.018.155-.03.261.126.014 3.69.45 7.992.965a50.891 50.891 0 0 0-1.361 8.323c-.855-.601-1.996-1.042-2.613-.964-.5.06-.967.332-1.342.656-.668.584-1.02 1.067-1.966 1.03C1.823 56.125.87 55.705 0 55.123c0 0 1.534 2.985 3.574 1.686 2.038-1.294 2.769-2.387 3.78-1.3.48.528.882 1.05 1.36 1.361-.01.238-.034.492-.04.737-.026.685-.036 1.37-.032 2.044l-6.057.917c.017.105.025.147.04.255.111-.018 2.69-.41 6.023-.91.032 3.625.456 7.22 1.262 10.73-2.067.81-3.531 1.383-3.589 1.409.008.023.034.126.05.201.077-.033 1.533-.602 3.589-1.409.127.55.265 1.101.413 1.654C5.384 74.613.998 76.474.871 76.526l.084.255c.155-.068 4.526-1.922 9.49-4.025.111.394.216.799.334 1.187a52.33 52.33 0 0 0 1.207 3.518l.136-.05a50.297 50.297 0 0 1-1.204-3.513c-.12-.397-.225-.797-.336-1.2.712-.3 1.431-.605 2.161-.914.163.611.338 1.221.525 1.831l-1.664.926c.027.072.032.122.049.177.046-.026.688-.39 1.668-.932.288.906.603 1.789.939 2.68-3.028 1.805-5.49 3.28-5.564 3.325.026.08.044.118.076.203.096-.054 2.548-1.527 5.561-3.324v.005l.212-.081a.174.174 0 0 0-.019-.039c.625-.376 1.27-.756 1.919-1.147.077.21.14.42.224.63.23.59.485 1.157.736 1.73-1.993 1.389-3.547 2.485-3.596 2.517.01.02.043.1.065.163.07-.054 1.615-1.135 3.596-2.527.197.436.408.866.614 1.296-.245.042-.574.022-1.062-.094-1.598-.39-2.019.893-2.258 1.508-.24.617-.712 2.559-1.928 2.233-1.213-.331-3.197-.061-3.87.493-.426.342-.692.865-.854 1.38-.292.917-.336 1.564-1.226 2.076-.997.58-2.111.738-3.25.708 0 0 3.12 1.856 4.253-.514 1.137-2.368 1.19-3.797 2.73-3.382 1.551.422 2.78 1.06 3.844-.75 1.06-1.81 1.335-2.644 2.923-2.491.272.031.723.01 1.205-.14.158.307.33.61.503.917a7056.327 7056.327 0 0 1-7.665 5.652c.047.066.07.1.124.18.114-.086 3.798-2.81 7.642-5.641a46.817 46.817 0 0 0 1.848 3.066c-1.68 1.468-5.515 4.825-5.677 4.97.085.094.301.32.301.32l-.84.746.3.31c.54-.487 2.361-2.14 4.534-4.115a47.538 47.538 0 0 0 5.637 6.698l.151-.157a48.266 48.266 0 0 1-5.625-6.688c.534-.486 1.083-.988 1.64-1.488a45.67 45.67 0 0 0 6.178 7.256l.299-.33a47.743 47.743 0 0 1-1.872-1.89c.26-.326.763-.953 1.399-1.732a43.768 43.768 0 0 0 2.575 2.59l.149-.17a47.216 47.216 0 0 1-2.587-2.596c.895-1.102 1.983-2.453 2.933-3.624a37.894 37.894 0 0 0 2.45 2.502c-3.57 5.072-10.64 15.128-10.76 15.293 0 .003.099.076.19.15.14-.205 7.193-10.222 10.744-15.278.43.387.856.782 1.298 1.153l.38-.456c-.46-.387-.894-.783-1.334-1.19l1.67-2.371c-.067-.058-.102-.09-.175-.156-.053.061-.693.98-1.671 2.365a35.177 35.177 0 0 1-2.41-2.483c.983-1.216 1.74-2.152 1.793-2.226-.06-.07-.095-.105-.167-.194-.08.093-.827 1.022-1.796 2.221a36.81 36.81 0 0 1-2.307-2.877c-.335-.47-.646-.947-.958-1.424 1.172-1.068 1.952-1.773 1.992-1.813a69.88 69.88 0 0 0-.29-.439c-.082.075-.926.814-2.012 1.765a40.704 40.704 0 0 1-1.44-2.536l2.237-1.655c-.038-.07-.055-.1-.104-.185-.055.045-.927.68-2.232 1.647-.006-.016-.012-.025-.014-.036.426-.32.831-.68 1.213-1.029 1.194-1.098 1.546-1.458 1.546-1.458s-.085-.629-.532-.368c-.305.175-1.023.833-1.633 1.357-.318.23-.656.484-.984.73-.244-.512-.49-1.03-.716-1.559l-.54.236c.232.55.486 1.09.753 1.63-.541.289-1.22.511-1.986.289-.054-.016-.113-.016-.167-.027a46.192 46.192 0 0 1-.6-1.338 994.86 994.86 0 0 0 4.516-3.168c-.018-.058-.03-.09-.057-.16-.082.06-2.113 1.482-4.524 3.175a44.145 44.145 0 0 1-.766-2.013c2.615-1.565 4.615-2.758 4.676-2.799-.021-.077-.034-.118-.061-.21-.095.059-2.092 1.25-4.683 2.796a39.57 39.57 0 0 1-.502-1.528c-.094-.32-.18-.64-.265-.963l4.78-2.664-.03-.175c-.094.042-2.242 1.24-4.8 2.667-.09-.341-.173-.678-.254-1.014 2.826-1.2 4.842-2.053 4.917-2.09-.021-.086-.029-.138-.058-.26-.111.054-2.12.902-4.918 2.086a25.44 25.44 0 0 1-.303-1.4c2.783-1.092 4.908-1.924 4.98-1.956-.016-.072-.018-.111-.032-.203-.106.041-2.227.868-4.985 1.956a40.342 40.342 0 0 1-.572-4.219c.51-.14 1.262-.336 2.036-.542.072 1.047.18 2.09.341 3.12l.583-.092a36.043 36.043 0 0 1-.344-3.182c1.24-.334 2.382-.634 2.49-.67-.003-.118-.015-.247-.026-.417-.125.036-1.18.315-2.493.657a36.791 36.791 0 0 1-.045-2.485l2.49-.457.001-.26c-.096.012-1.074.193-2.487.452.002-.222-.004-.44.005-.662 0-.04.009-.082.009-.123 1.475-.226 2.438-.37 2.492-.378.005-.074.01-.18.01-.261-.081.01-1.033.159-2.489.376.009-.178.019-.36.032-.543.787.084 1.654-.058 2.452-.204 1.46-.26 1.908-.38 1.908-.38s.242-.53-.233-.55c-.469-.016-2.166.337-2.795.345-.337.009-.798.033-1.273-.068.032-.417.07-.837.116-1.244l2.478-.167c.017-.154.048-.413.077-.623-.105.01-1.091.06-2.464.143.157-1.177.369-2.34.636-3.5 1.158.07 2.284.13 2.415.137.015-.093.033-.139.06-.256-.173-.012-1.282-.07-2.418-.129.154-.652.333-1.302.528-1.948 1.41.171 2.308.284 2.363.284.025-.088.04-.132.077-.245-.073-.009-.968-.12-2.362-.285.127-.417.26-.833.396-1.24 1.394.235 2.276.386 2.331.394.028-.09.047-.136.083-.245-.071-.011-.949-.162-2.321-.394.104-.29.203-.585.313-.872l-.55-.213c-.13.323-.238.656-.35.985-1.28-.212-2.874-.485-4.622-.779.168-.523.365-1.033.553-1.544 3.825.93 7.294 1.772 7.389 1.794a3.86 3.86 0 0 1 .059-.243c-.122-.035-3.56-.863-7.363-1.797.388-.997.8-1.991 1.259-2.97l2.174.69c-.008.016-.017.03-.023.045l.267.13c.011-.03.027-.058.041-.085 2.726.867 4.666 1.486 4.739 1.512.08-.162.262-.518.365-.726-.103-.035-2.013-.683-4.696-1.586.275-.54.555-1.067.853-1.586 2.642.986 4.575 1.696 4.647 1.733l.117-.186c-.093-.036-2.023-.754-4.66-1.736.124-.208.238-.416.36-.628 2.02.885 4.367 1.908 4.51 1.974.051-.084.078-.126.138-.22-.19-.087-2.51-1.096-4.514-1.975.173-.283.36-.563.536-.845 1.939.922 3.45 1.64 4.025 1.91-.145.16-.298.317-.44.477l.64-.675zM94.624 64.11c-.027.188-.05.378-.076.57-.796-.26-1.419-.453-1.824-.586.565.008 1.335-.006 1.9.016zM25.147 37.444c-.643-.307-1.326-.645-2.039-.987.483-.746.984-1.474 1.51-2.181.182.197.329.481.395.911.081.557.355.991.747 1.35a34.72 34.72 0 0 0-.613.907zm-.727 1.127c-.828-.367-1.573-.69-2.068-.907.181-.308.373-.616.564-.919.716.342 1.406.665 2.056.976-.185.276-.373.558-.552.85zm-.492.867c-.677-.253-1.397-.521-2.141-.796.145-.252.288-.5.43-.755.49.217 1.24.545 2.08.909-.128.214-.25.432-.369.642zm-.959 1.78c-.682-.233-1.403-.472-2.16-.73.209-.415.409-.826.624-1.234.08-.145.167-.282.246-.426.748.277 1.465.545 2.142.797a36.841 36.841 0 0 0-.852 1.593zm2.178 1.01l-.103.316s-.805-.252-2.087-.661c.057-.117.113-.22.176-.342 1.237.42 2.014.687 2.014.687zm-2.476-.44c-.632-.198-1.368-.431-2.17-.685.06-.128.131-.258.194-.387.8.276 1.53.52 2.152.733-.056.114-.122.23-.176.34zm-2.38-.753c-1.401-.445-2.989-.952-4.616-1.465.076-.158.143-.319.218-.477 1.616.548 3.201 1.084 4.588 1.552-.062.13-.135.262-.19.39zm-3.368-3.978c1.515.564 3.077 1.142 4.543 1.693-.071.13-.151.264-.227.396-.225.42-.43.844-.642 1.274-1.465-.495-3.031-1.032-4.591-1.565.29-.606.601-1.203.917-1.798zm1.43-2.481c1.46.69 2.953 1.402 4.36 2.069-.188.312-.38.618-.566.93-.215-.095-.36-.155-.399-.173-.041.094-.06.139-.097.234.032.016.168.077.366.168-.149.248-.293.504-.442.761a489.596 489.596 0 0 0-4.547-1.692c.416-.783.858-1.545 1.326-2.297zm1.703-2.593c.043.095.087.177.13.278.214.59 1.141 1.98 2.978 1.644.292-.05.856-.117 1.298.21-.545.732-1.06 1.48-1.554 2.242-1.394-.688-2.887-1.418-4.346-2.135a43.67 43.67 0 0 1 1.494-2.24zm1.847-2.443c1.364.921 2.736 1.854 4.01 2.718-.338.41-.672.816-.993 1.236-.579-.494-1.31-.834-1.95-.836-1.147 0-1.567.25-1.924-1.217a2.077 2.077 0 0 0-.203-.525 39.58 39.58 0 0 1 1.06-1.376zm2.517-2.851c1.22.99 2.508 2.049 3.726 3.054a41.87 41.87 0 0 0-2.065 2.315c-.579-.39-2.131-1.447-4.014-2.714a48.183 48.183 0 0 1 2.353-2.655zm3.539 6.953a39.992 39.992 0 0 0-1.683 2.168 2.084 2.084 0 0 1-.458-.96c-.085-.425-.358-.853-.736-1.21.334-.428.67-.845 1.014-1.257.652.438 1.279.863 1.863 1.26zm.36-3.756c.611.498 1.202.983 1.76 1.437a43.661 43.661 0 0 0-1.906 2.07c-.947-.648-1.713-1.167-1.807-1.233-.02.037-.04.066-.04.066l-.063-.043c.66-.79 1.342-1.56 2.057-2.297zm3.667-3.355c1.115 1.172 2.272 2.383 3.192 3.355a35.923 35.923 0 0 0-3.09 2.758 246.17 246.17 0 0 1-1.603-1.318 37.407 37.407 0 0 1 1.661-1.583l-.192-.219a34.758 34.758 0 0 0-1.697 1.615l-1.753-1.437a41.489 41.489 0 0 1 3.482-3.171zm4.056 2.69c-.208.159-.428.308-.632.476-.902-.984-2.03-2.213-3.124-3.402.25-.201.504-.394.755-.585.762.885 1.985 2.319 3.001 3.51zm-5.388-4.71a40.006 40.006 0 0 1 2.19-1.669c1.66 2.084 3.263 4.088 4.4 5.516-.337.229-.669.472-1 .71-1.014-1.193-2.238-2.623-3-3.521.145-.111.294-.232.445-.344l-.127-.177c-.16.114-.306.24-.461.355-.327-.383-.55-.638-.588-.686-.08.072-.113.1-.194.168.043.05.253.3.58.675-.261.194-.511.39-.763.589-.514-.566-1.02-1.11-1.482-1.617zm-.863-5.87a47.289 47.289 0 0 1 3.503-2.278c.838 1.345 1.7 2.711 2.528 4.033-.73.43-1.444.875-2.144 1.349l-1.381-1.879c-.081.065-.12.094-.203.153.046.075.599.817 1.373 1.867-.238.157-.48.303-.714.468-1-1.257-2.015-2.535-2.962-3.714zm5.53-3.42c.76 1.373 1.546 2.792 2.31 4.178-.53.275-1.053.56-1.575.861-.826-1.325-1.687-2.69-2.525-4.041a49.838 49.838 0 0 1 1.79-.997zm2.726-1.325c.64 1.326 1.36 2.824 2.065 4.29-.762.345-1.513.704-2.252 1.089-.763-1.381-1.557-2.804-2.313-4.172.826-.43 1.659-.825 2.5-1.207zm.703-.307c.6 1.324 1.282 2.831 1.962 4.32-.137.06-.27.129-.406.19-.716-1.479-1.43-2.97-2.063-4.292l.507-.218zm1.888-.777c.57 1.459 1.151 2.971 1.72 4.435-.486.187-.969.383-1.45.583-.689-1.511-1.37-3.012-1.965-4.325a37.377 37.377 0 0 1 1.695-.693zm-.144 5.689c.14-.062.266-.126.402-.186a2496.89 2496.89 0 0 1 2.936 6.433c-.092.037-.182.083-.278.115a2065.37 2065.37 0 0 0-3.06-6.362zm-2.417 1.162c.73-.378 1.474-.735 2.229-1.075l3.06 6.363c-.266.12-.537.222-.802.345-.367.171-.718.352-1.07.53-.874-1.568-2.102-3.777-3.417-6.163zm-1.784.973c.51-.292 1.034-.574 1.555-.852 1.317 2.377 2.542 4.594 3.413 6.159-.417.217-.824.436-1.229.669-.945-1.507-2.285-3.648-3.74-5.976zm1.6 7.284c-.156.102-.306.205-.462.311-1.132-1.44-2.736-3.442-4.398-5.526.223-.164.461-.309.691-.465 1.244 1.697 2.943 4.002 4.17 5.68zm-3.955-5.823c.692-.46 1.399-.897 2.118-1.315 1.455 2.314 2.794 4.453 3.735 5.967-.572.327-1.136.663-1.69 1.025-1.225-1.671-2.918-3.983-4.163-5.677zm10.286 3.514a2.388 2.388 0 0 0-.253.112c-.039-.081-.09-.19-.156-.319.086-.038.18-.078.262-.117.06.128.111.234.147.324zm-.012-3.578c-.03 0-.052.016-.076.02l.108.278c.024-.006.052-.017.077-.023.274.714.527 1.365.744 1.935-.35.14-.694.279-1.037.422-.772-1.686-1.847-4.053-2.934-6.427.474-.2.951-.393 1.427-.574l1.69 4.369zm2.359-.51c.43.497.57 1.127.678 1.536.027.099.05.25.074.41-.676.208-1.347.439-2.015.691-.22-.572-.47-1.226-.748-1.939a33.476 33.476 0 0 1 2.011-.697zm-.863-3.208c.863-1.655-.235-2.82-.754-3.151-.425-.285-.649-.567-.742-.886.605-.195 1.221-.376 1.839-.544.109.42.186.738.186.738l-.174.045c.044.172.894 3.412 1.663 6.35-.14.04-.271.086-.406.121a2.065 2.065 0 0 0-.887-.66c-1.41-.535-.933-1.596-.725-2.013zm3.266-5.28c.284 1.57.58 3.21.857 4.768-.76.156-1.522.322-2.27.523l.055.213a47.8 47.8 0 0 1 2.257-.52c.133.778.267 1.528.396 2.231-.723.157-1.437.324-2.15.511-.623-2.435-1.353-5.251-1.824-7.095a50.987 50.987 0 0 1 2.68-.63zm1.41-.26c.208 1.6.426 3.249.626 4.797-.308.058-.619.115-.928.174-.276-1.55-.577-3.193-.853-4.767.38-.072.771-.134 1.156-.204zm2.809-.398c.118 1.519.257 3.2.384 4.826-.793.085-1.58.206-2.366.339l-.627-4.796c.865-.148 1.73-.274 2.609-.369zm.588 7.312c-.752.084-1.5.194-2.243.323a334.24 334.24 0 0 1-.296-2.252c.782-.13 1.565-.247 2.357-.339.06.785.125 1.54.182 2.268zm-3.211.812c.27-.053.535-.11.804-.157.105.757.194 1.458.274 2.072-.242.037-.474.076-.715.115l-.363-2.03zm-.452-2.533c.31-.06.613-.123.924-.172.1.781.204 1.543.3 2.255-.28.046-.553.104-.82.155-.128-.712-.268-1.46-.404-2.238zm-1.79 5.2c-.095.027-.191.058-.285.083-.076-.714-.21-1.435-.547-2.002.101-.029.202-.064.306-.094.19.71.365 1.395.527 2.012zm-.135-2.115a33.9 33.9 0 0 1 2.126-.505l.364 2.038c-.659.135-1.32.288-1.973.466-.161-.602-.332-1.282-.517-1.999zm5.782 1.023c-.716.078-1.418.18-2.13.303-.077-.617-.17-1.314-.27-2.072a44.27 44.27 0 0 1 2.228-.324c.066.762.121 1.47.172 2.093zm3.814-2.34c-.033.712-.08 1.429-.114 2.092a37.022 37.022 0 0 0-3.107.177c-.042-.625-.092-1.327-.141-2.078a40.861 40.861 0 0 1 3.362-.19zm.134-2.568c-.03.611-.075 1.416-.121 2.272a37.246 37.246 0 0 0-3.398.195c-.048-.735-.103-1.503-.154-2.275 1.219-.113 2.447-.18 3.673-.192zm.26-.005c.52 0 1.043.005 1.562.03.178.007.35.021.53.032a647.14 647.14 0 0 0-.27 2.254c-.114-.002-.222-.018-.338-.02-.535-.019-1.073-.019-1.606-.019.048-.856.086-1.661.123-2.277zm2.348.078c.489.028.98.047 1.471.094-.145.78-.283 1.536-.408 2.242-.443-.036-.888-.058-1.334-.083.081-.704.172-1.46.27-2.253zm.283-2.403a35.12 35.12 0 0 1 1.609.11c-.13.733-.26 1.461-.389 2.164-.49-.046-.985-.069-1.477-.095.08-.708.163-1.436.257-2.18zm.622-5.203c.639.048 1.283.092 1.917.167l-.845 4.71a30.638 30.638 0 0 0-1.64-.122c.188-1.573.384-3.185.568-4.755zm2.163.19c.493.054.987.119 1.482.189-.328 1.51-.667 3.108-1 4.671-.445-.06-.886-.104-1.33-.151.286-1.6.574-3.212.848-4.709zm1.722.218c2.379.347 4.725.87 7.029 1.558a844.15 844.15 0 0 0-1.716 4.457 44.087 44.087 0 0 0-2.487-.64c.584-1.831 1.015-3.214 1.035-3.274-.056-.01-.121-.033-.133-.036-.022.062-.467 1.481-1.03 3.283-.109-.024-.208-.044-.312-.07.537-1.805.966-3.24.987-3.303 0 0-.07-.023-.128-.037-.02.052-.438 1.457-.987 3.315a43.937 43.937 0 0 0-3.26-.584l1.002-4.67zm7.231 1.611c.581.18 1.155.367 1.722.567.822.28 1.63.59 2.426.917a1125.35 1125.35 0 0 1-2.017 4.32 45.886 45.886 0 0 0-3.852-1.349 550.086 550.086 0 0 0 1.721-4.455zm-1.736 7.217c.234-.545.396-.917.421-.98-.094-.046-.14-.063-.231-.102-.027.056-.196.449-.439 1.008-.224-.068-.456-.131-.685-.196.257-.679.522-1.37.792-2.072a45.12 45.12 0 0 1 3.824 1.334c-.32.676-.63 1.34-.933 1.988a43.366 43.366 0 0 0-2.749-.98zm-.089.206c.924.292 1.84.62 2.741.977-.335.728-.663 1.414-.964 2.067a36.937 36.937 0 0 0-2.678-.947c.337-.778.65-1.511.901-2.097zm-.926-.273c.224.067.452.131.68.202-.251.583-.571 1.318-.899 2.09-.203-.06-.408-.108-.605-.161.262-.671.54-1.394.824-2.131zm-2.521-.639c.78.165 1.551.366 2.315.582-.286.74-.568 1.455-.825 2.129a42.05 42.05 0 0 0-2.176-.543c.226-.71.458-1.443.686-2.168zm-1.038 2.095c.203-.678.427-1.422.652-2.191.083.025.17.044.255.063-.241.758-.475 1.503-.687 2.176-.075-.014-.146-.032-.22-.048zm-.081.288c.069.01.139.032.212.044-.084.284-.172.547-.254.796-.058-.022-.105-.04-.117-.047-.12.367-.309.99-.503 1.608l-.051-.017s.297-.999.713-2.384zm-2.448-3.013a40.98 40.98 0 0 1 3.05.505c-.22.736-.44 1.474-.651 2.191a41.239 41.239 0 0 0-2.878-.475c.155-.696.31-1.441.479-2.22zm-.24-.03c-.167.779-.332 1.524-.478 2.229-.382-.051-.772-.099-1.154-.128.127-.706.259-1.461.4-2.246.414.04.826.094 1.232.145zm.047-.222c-.414-.053-.823-.1-1.235-.145.126-.704.253-1.428.388-2.164.436.047.87.09 1.31.148l-.463 2.161zm3.309.545a39.691 39.691 0 0 0-3.068-.514c.15-.703.303-1.424.462-2.16a39.95 39.95 0 0 1 3.225.572c-.195.665-.406 1.376-.62 2.102zm1.18-1.98c.824.184 1.648.39 2.46.627-.269.7-.535 1.392-.797 2.058a38.232 38.232 0 0 0-2.32-.58c.227-.728.454-1.438.658-2.104zm-.79 2.068c-.087-.017-.173-.04-.261-.055.21-.716.421-1.427.621-2.105.102.014.202.038.301.061-.216.678-.44 1.39-.66 2.099zm10.196-4.478c1.1.464 2.186.97 3.249 1.525-1.043 1.657-2.548 4.036-3.964 6.286a38.548 38.548 0 0 0-2.513-1.134c.318-.648.635-1.311.97-1.993.627.263 1.26.544 1.883.84l.185-.404a39.237 39.237 0 0 0-1.878-.836c.677-1.414 1.383-2.88 2.068-4.284zm3.408 1.607a50.188 50.188 0 0 1 3.772 2.172c-.448.548-.945 1.168-1.477 1.828A50.093 50.093 0 0 0 80.29 17.4l-.105.196c.955.507 1.881 1.054 2.784 1.625-.969 1.202-2.031 2.524-3.057 3.79a39.775 39.775 0 0 0-2.48-1.406c-.188-.1-.387-.184-.572-.277l3.962-6.283zm3.986 2.308c.205.126.398.257.592.385-.167 1.152-.26 1.859-.766 2.302-.43-.288-.861-.58-1.3-.855.539-.663 1.036-1.286 1.474-1.832zm.731 3.602a47.836 47.836 0 0 1 4.863 4.043c-1.256 1.06-2.525 2.127-3.712 3.127a42.051 42.051 0 0 0-2.485-2.147l2.592-2.75-.306-.322c-.058.06-1.456 1.608-2.586 2.847-.46-.355-.919-.701-1.393-1.041.32-.446.545-.949.593-1.413.113-1.184-.099-1.642 1.427-1.863.485-.07.797-.255 1.007-.481zm-7.057 6.666c.373-.528.966-1.494 2.113-1.6.636-.063 1.296-.531 1.78-1.132.47.334.926.677 1.383 1.029-.7.77-1.254 1.385-1.254 1.385s-.95 1.04-1.865 2.053a40.896 40.896 0 0 0-2.265-1.577c.036-.057.073-.116.108-.158zm3.338-4.244c.008.195.017.504-.072.812a43.121 43.121 0 0 0-1.614-1.044 5075.43 5075.43 0 0 0 3.059-3.785c.416.262.83.537 1.236.816a2.52 2.52 0 0 1-.645.288c-.617.165-2.116.979-1.964 2.913zm-1.83-.058c.573.35 1.131.71 1.678 1.084-.182.382-.559.71-1.333.751-1.235.071-1.99 1.108-2.584 2.226-.23-.143-.465-.285-.702-.423.812-1.004 1.85-2.285 2.941-3.638zm-4.779.623s.638-1.017 1.53-2.422c.192.093.396.177.591.282.83.431 1.64.903 2.436 1.385a995.533 995.533 0 0 0-2.937 3.642 37.508 37.508 0 0 0-2.535-1.352c.478-.753.91-1.425.96-1.513a.665.665 0 0 1-.045-.022zm8.46 4.604c-.111.103-1.026.89-1.935 1.685-.295-.238-.58-.476-.876-.702.946-.999 2.126-2.256 3.189-3.383a39.628 39.628 0 0 1 2.47 2.122c-1.367 1.156-2.607 2.193-3.57 3.006-.335-.295-.668-.592-1.015-.877.903-.783 1.793-1.553 1.906-1.658-.066-.077-.1-.113-.17-.193zm3.743.562c-.514.388-1.159.869-1.842 1.383-.125-.12-.24-.253-.363-.37l-.2.218c.11.109.212.226.32.329-.565.42-1.136.853-1.667 1.247-.17-.166-.353-.315-.53-.474.97-.81 2.206-1.852 3.57-3.002.241.216.48.446.712.669zm-.13 3.569c-.64.397-1.233.78-1.766 1.115a40.467 40.467 0 0 0-1.662-1.7c.522-.393 1.092-.818 1.659-1.24a42.18 42.18 0 0 1 1.768 1.825zm.313-3.378c.642.636 1.27 1.3 1.871 1.977-.662.427-1.318.839-1.937 1.237a39.525 39.525 0 0 0-1.777-1.838c.685-.516 1.332-.996 1.843-1.376zm2.443 2.623l.166-.143c-.145-.172-.293-.33-.443-.494.635-.403 1.26-.803 1.875-1.19.509.586.993 1.181 1.467 1.785-1.46.794-2.895 1.566-4.17 2.25-.412-.508-.857-1-1.297-1.49.624-.4 1.28-.813 1.939-1.237.152.175.311.34.463.519zm4.686 2.194c-1.507.748-2.946 1.465-4.216 2.096a35.696 35.696 0 0 0-1.44-1.9c1.274-.69 2.71-1.464 4.167-2.251.514.67 1.014 1.358 1.489 2.055zm.978 1.472c-1.435.542-3.017 1.146-4.478 1.699-.185-.28-.361-.567-.554-.84 1.26-.63 2.703-1.347 4.212-2.093.274.403.553.818.82 1.234zm.927 1.546c-1.573.53-3.124 1.05-4.521 1.523-.035-.062-.067-.126-.107-.18-.219-.367-.465-.709-.696-1.067 1.45-.553 3.044-1.16 4.468-1.7.295.468.581.947.856 1.424zm1.29 2.43c-.245-.055-.537-.19-.925-.33-1.084-.367-2.828.161-3.394 1.136-.082.152-.19.282-.302.4-.34-.66-.705-1.31-1.086-1.942 1.388-.475 2.944-.999 4.514-1.528.421.742.819 1.499 1.193 2.264zm3.787-3.945a50.524 50.524 0 0 1 1.643 3.33c-.653-.053-1.398-.505-1.742-.666-.54-.25-1.601-.817-2.409.445-.316.484-.557.727-.793.82-.398-.81-.807-1.611-1.249-2.39 1.585-.54 3.16-1.07 4.55-1.539zm1.948 4.028a50.68 50.68 0 0 1 1.942 5.34c-.727.11-1.504.23-2.329.35a48.588 48.588 0 0 0-.356-1.096l.412-.075a4.357 4.357 0 0 1-.045-.25c-.032 0-.197.027-.448.077-.332-.97-.686-1.93-1.08-2.878l-.204.079c.388.942.733 1.887 1.062 2.832-.505.1-1.274.237-2.175.404a45.125 45.125 0 0 0-1.6-3.977c.424-.205.746-.48.905-.672.944-1.105 1.64-.731 3.463-.223.16.047.31.067.453.09zm-5.738 5.505c.754-.142 1.487-.278 2.165-.398.091.285.202.563.3.85l.42-.139c-.092-.259-.191-.526-.283-.79.907-.162 1.668-.306 2.17-.391.119.357.237.726.352 1.087-1.548.232-3.216.486-4.81.73-.1-.323-.206-.636-.314-.95zm-.22.034c.113.315.205.627.315.94-.78.12-1.536.24-2.255.35a23.305 23.305 0 0 0-.319-.882c.741-.133 1.511-.268 2.259-.408zm-1.048-3.303c-.266.07-2.205.575-2.471.642-.15-.313-.305-.622-.457-.939.21-.178.395-.375.533-.64.696-1.328 1.744-.817 2.153-.6.762.428 1.444.428 2.008.268A45.68 45.68 0 0 1 100 44.509c-1.409.255-3.08.555-4.64.842a41.653 41.653 0 0 0-1.075-2.586c1.27-.334 2.317-.612 2.434-.633-.025-.1-.04-.153-.067-.25zm8.228 12.381c-1.596-.043-3.269-.088-4.849-.134a40.5 40.5 0 0 0-.509-3.203c.747-.037 1.257-.068 1.327-.07-.008-.146-.022-.502-.022-.502s2.652-.18 2.944-.205l-.016-.25c-.127.006-2.082.142-4.395.294a42.06 42.06 0 0 0-1.043-3.85c1.594-.234 3.255-.49 4.812-.72.86 2.82 1.438 5.71 1.751 8.64zm.277 4.157c-1.51-.187-3.195-.388-4.833-.592a41.351 41.351 0 0 0-.261-3.468l4.842.135c.135 1.298.227 2.605.252 3.925zm-.882 7.184a3.033 3.033 0 0 0-1.62-.862c.084-.713.152-1.429.204-2.145.71.146 1.433.291 2.157.435a47.277 47.277 0 0 1-.31 2.95 2.882 2.882 0 0 1-.431-.378zm-1.968 1.538c.07-.412.14-.817.202-1.227.382-.05.714.142 1.24.864.23.323.48.53.72.64a3.914 3.914 0 0 1-.061.39l-2.101-.667zm-.184 1.016c.05-.247.093-.5.138-.762.698.222 1.404.447 2.107.674-.056.275-.104.552-.164.832-.685-.248-1.388-.491-2.081-.744zm-.045.249c.693.247 1.388.49 2.08.734-.127.597-.253 1.2-.403 1.797-.084.318-.174.641-.258.955-.68-.277-1.362-.553-2.034-.829.23-.884.436-1.767.615-2.657zm-2.49-.882c.674.238 1.375.482 2.067.73-.18.887-.38 1.767-.61 2.63-.69-.277-1.367-.555-2.03-.83.215-.836.41-1.681.573-2.53zm-2.883 1.576c.193-.793.37-1.6.525-2.416.679.25 1.399.498 2.146.761a46.35 46.35 0 0 1-.564 2.522c-.737-.297-1.446-.59-2.107-.867zm-.07.26c.668.277 1.376.564 2.11.861a39.43 39.43 0 0 1-.975 3.2c0 .01-.008.017-.008.03-.716-.332-1.4-.653-2.062-.962.358-1.03.673-2.07.936-3.128zm-1.671-3.475c.594.216 1.26.449 1.978.706a38.37 38.37 0 0 1-.518 2.397c-.7-.285-1.354-.552-1.938-.794.187-.762.343-1.532.478-2.309zm5.104-4.112l-2.229-.448c.003-.169.022-.334.029-.5l-.296-.012c-.006.157-.018.304-.023.455-.753-.15-1.435-.29-2.052-.409.003-.038.003-.079.003-.118.04-1.086.033-2.161-.022-3.24 1.318.156 2.943.356 4.637.564.028.942.037 1.89 0 2.844-.007.285-.03.579-.047.864zm.565 3.418c-.158.092-.412.243-.708.316.162-1.134.278-2.278.352-3.43.69.141 1.411.29 2.14.435a48.2 48.2 0 0 1-.204 2.196c-.484-.01-1.018.122-1.58.483zm-.242 1.336c.341-.001.666-.061.946-.177.282-.11.511-.227.71-.31-.05.325-.115.644-.163.969-.507-.162-1.001-.318-1.493-.482zm-.637.072c.673.216 1.377.437 2.08.664l-.13.75c-.699-.25-1.393-.489-2.067-.732.04-.228.07-.455.117-.682zm-1.484-1.933c-.168-.281-.39-.5-.639-.677.089-.796.15-1.596.195-2.405.706.143 1.45.298 2.228.45a42.288 42.288 0 0 1-.355 3.506c-.456.043-.979-.115-1.429-.874zm-.859.917c.02-.135.043-.275.063-.414.047.056.092.104.132.167.105.164.256.311.42.445-.212-.066-.412-.134-.615-.198zm-.045.252c.685.223 1.414.456 2.17.692-.04.228-.074.452-.11.683-.752-.264-1.473-.526-2.159-.764.036-.201.069-.407.1-.61zm-2.045-2.49c.068-.74.12-1.484.157-2.228.621.121 1.303.261 2.056.407a43.7 43.7 0 0 1-.18 2.282c-.584-.312-1.3-.43-2.033-.46zm1.761 2.41c-.025.191-.063.392-.1.59-.715-.253-1.376-.489-1.974-.698.028-.18.052-.35.08-.534.596.194 1.274.404 1.994.641zm-1.96-.902c.032-.23.058-.464.091-.704.552.078 1.375.182 1.994.74-.025.205-.047.407-.077.605-.73-.232-1.408-.447-2.009-.641zM95.142 54a34.74 34.74 0 0 0-.515-2.793c1.55-.087 3.397-.196 4.673-.262.212 1.052.376 2.114.505 3.182-1.757-.045-3.395-.093-4.663-.127zm4.698.357c.134 1.144.22 2.29.262 3.448-1.695-.205-3.323-.408-4.636-.563a38.526 38.526 0 0 0-.294-3.012c1.27.038 2.903.08 4.668.127zm5.292 6.73c-.016.562-.062 1.124-.105 1.681-.718-.145-1.448-.288-2.155-.429.025-.443.07-.888.085-1.324l-.44-.022c-.017.422-.053.835-.084 1.256-.732-.146-1.45-.288-2.148-.429.015-.302.037-.6.05-.899.035-.953.024-1.89 0-2.83 1.633.201 3.32.403 4.82.588.012.798.007 1.605-.023 2.407zM93.55 90.943s.93.945 1.603 1.62c-.056.06-.11.125-.167.184-.668-.692-1.606-1.656-1.606-1.656l.17-.148zm-75.288-44.89c-.7-.117-1.432-.241-2.163-.366a44.3 44.3 0 0 1 .586-1.71c.717.168 1.429.344 2.135.52-.19.516-.382 1.034-.558 1.555zm4.752 1.067c-.143.417-.28.837-.406 1.264-1.284-.162-2.9-.352-4.646-.568.137-.492.285-.984.446-1.472 1.744.288 3.335.558 4.606.776zm-1.009 3.497c-1.018-.06-1.934-.101-2.065-.114-.003.107-.008.155-.01.26.129.006 1.015.058 2.014.11-.27 1.174-.48 2.36-.638 3.56-1.405.076-3.103.175-4.679.26a42.092 42.092 0 0 1 1.258-6.627c1.748.21 3.36.41 4.646.57-.194.65-.372 1.319-.526 1.98zm-2.998 11.556c-.062-.897-.1-1.79-.103-2.69.736-.133 1.442-.254 2.083-.372-.01.845 0 1.686.05 2.532-.662.17-1.362.352-2.03.53zm.32 4.774c-2.154.836-4.649 1.821-6.88 2.697a47.65 47.65 0 0 1-1.09-8.79c1.928-.345 4.754-.858 7.254-1.313 0 .908.039 1.809.103 2.703-1.601.42-2.966.776-3.09.811.03.103.04.15.067.252.284-.073 2.667-.701 2.667-.701l.045.175c.041-.006.163-.045.34-.085.115 1.426.311 2.84.584 4.25zm.34 1.613c-1.32.557-2.808 1.185-4.35 1.84-.002 0-.002-.008-.005-.008l-.426.109c.008.023.014.047.021.074-.674.285-1.348.572-2.026.862-.081-.302-.16-.6-.234-.9-.055-.23-.102-.46-.153-.688 2.23-.883 4.722-1.858 6.87-2.7.09.469.195.938.303 1.411zm.328 1.3c-1.373.767-2.841 1.587-4.163 2.323a37.154 37.154 0 0 1-.443-1.525c1.541-.652 3.02-1.28 4.337-1.842.086.35.177.699.27 1.044zm.296 1.078c.16.533.341 1.068.526 1.6-.634.378-1.296.776-1.975 1.186-.17-.485-.342-.969-.496-1.451l-.21.061c.16.506.33 1.006.508 1.504-.626.374-1.258.754-1.889 1.13a44.06 44.06 0 0 1-.876-2.613c1.32-.739 2.792-1.551 4.16-2.323.088.302.164.61.252.906zm1.35 3.787c.006.017.02.032.023.049-1.284.898-2.654 1.867-3.888 2.732-.24-.546-.48-1.083-.697-1.63-.085-.23-.16-.469-.249-.701.633-.376 1.268-.763 1.892-1.13.164.451.336.9.517 1.352l.204-.09a30.781 30.781 0 0 1-.53-1.386c.678-.4 1.34-.797 1.973-1.176.238.669.489 1.334.754 1.98zm.586 1.327c-1.136-.02-2.554.799-3.056 1.782-.285.553-.422.972-.678 1.201a37.822 37.822 0 0 1-.649-1.371 762.561 762.561 0 0 1 3.891-2.733c.159.377.33.752.492 1.121zm.432 1.034c.021.003.044.003.066.017.166.332.34.663.518.996-1.19.87-2.492 1.84-3.788 2.793-.155-.269-.31-.539-.45-.814.596-.298 1.183-.84 1.483-1.813.155-.49.603-1.709 2.171-1.179zm2.467-.453c.009.015.02.036.031.046-.513.382-1.078.799-1.677 1.243-.132-.25-.257-.494-.383-.751.709.103 1.389-.146 2.029-.538zm.13.241c.459.877.944 1.74 1.464 2.577-.496.443-1.03.908-1.557 1.364a38.31 38.31 0 0 1-1.585-2.704c.602-.446 1.168-.858 1.678-1.237zm2.709 4.44a36.2 36.2 0 0 0 2.405 3.003c-.953 1.177-2.041 2.52-2.936 3.63a41.818 41.818 0 0 1-3.842-4.876l1.696-1.527c.176.265.344.538.53.805l.237-.168c-.188-.273-.364-.562-.549-.842a283.41 283.41 0 0 0 1.536-1.4c.302.467.6.932.923 1.375zm-2.067 8.54a44.81 44.81 0 0 1-4.103-5.142c.547-.5 1.096-.992 1.637-1.487a43.494 43.494 0 0 0 3.86 4.905 177.09 177.09 0 0 0-1.394 1.724zm-4.514-5.736a45.825 45.825 0 0 1-1.829-3.037c1.301-.959 2.6-1.925 3.781-2.79a38.562 38.562 0 0 0 1.603 2.721c-.658.573-1.28 1.12-1.8 1.574l-.105.07c.004.007.004.01.012.015l-1.22 1.06s-.168.153-.442.387zm-6.934-7.774a49.815 49.815 0 0 1-.93-2.671c.571-.315 1.237-.694 1.96-1.091.268.882.568 1.752.891 2.619-.65.39-1.293.775-1.92 1.143zm-1.504-4.643c.683-.292 1.36-.582 2.034-.864.138.524.297 1.044.45 1.569-.727.405-1.393.78-1.965 1.094a57.66 57.66 0 0 1-.519-1.8zm-2.433.731a46.253 46.253 0 0 1-.418-1.647c.678-.263 1.414-.552 2.189-.857.051.216.097.44.145.658.084.31.163.625.244.939-.726.306-1.45.609-2.16.907zM8.792 59.894c.747-.115 1.525-.234 2.326-.355 0 .367.007.73.015 1.094-1.219.221-2.041.375-2.112.382.014.108.023.16.044.262.071-.016.876-.166 2.072-.382a46.97 46.97 0 0 0 1.107 8.832c-.778.304-1.514.596-2.193.86a50.083 50.083 0 0 1-1.26-10.693zm9.82-.617c-2.495.454-5.323.969-7.258 1.318-.01-.365-.016-.728-.016-1.091 2.47-.376 5.078-.77 7.29-1.104-.006.295-.017.583-.017.877zm2.375-.43c-.641.116-1.343.244-2.078.383 0-.29.004-.583.013-.87.753-.114 1.447-.226 2.076-.314v.014c-.01.264-.006.527-.01.787zm-1.1-3.668l1.337-.087c-.044.33-.073.671-.1 1.003a2.121 2.121 0 0 1-.652-.494 2.007 2.007 0 0 0-.585-.422zm-11.07 2.442c.01-.231.029-.454.041-.676.487.255 1.056.29 1.857-.136 1.418-.737 2.085-1.202 2.933-.84a57.029 57.029 0 0 0-.107 1.82l.445.016c.018-.534.055-1.06.092-1.594.044.038.087.058.136.095.327.26 1.11.659 2.015.535-.023.345-.056.693-.063 1.044l.215.008c.013-.364.053-.726.073-1.09.397-.09.805-.278 1.213-.626.36-.308 1.302-1.043 2.27.14.305.37.695.585 1.116.713-.015.253-.029.5-.045.747-.628.098-1.323.202-2.08.32v-.113l-.292-.01c-.006.055 0 .112-.006.162-2.214.342-4.822.734-7.292 1.102 0-.508.006-1.013.026-1.523l-.219-.014a40.04 40.04 0 0 0-.027 1.576c-.8.12-1.586.241-2.334.356 0-.67.01-1.34.033-2.012zm2.516-1.858c-.592.423-1.35.814-1.885.239-.03-.033-.073-.067-.11-.11.46-.031 1.15-.076 1.995-.129zm-1.025-8.618c1.532.193 3.145.383 4.734.576a46.11 46.11 0 0 0-1.268 6.914c-.53-.157-.999.06-1.357.296-.452.027-.743.046-.786.046.005.15.025.501.025.501s-1.774.123-2.584.176c-.04-.033-.09-.067-.13-.098a50.615 50.615 0 0 1 1.366-8.411zm.573-2.074c1.533.258 3.135.529 4.7.79-.17.538-.328 1.07-.478 1.606-1.586-.186-3.2-.39-4.73-.572.16-.61.326-1.223.508-1.824zm4.665 2.452c.148-.533.31-1.055.476-1.586.733.125 1.46.249 2.168.368-.159.492-.312.986-.452 1.487a913.62 913.62 0 0 0-2.192-.27zm.77 7.899c0 .033 0 .067-.006.1-.484.31-.793.42-1.345-.007.447-.032.898-.062 1.35-.093zm-2.118-.59c.244-2.391.67-4.751 1.284-7.053.743.09 1.472.175 2.182.263a42.054 42.054 0 0 0-1.258 6.664c-.788.049-1.54.085-2.208.125zm-2.567-12.084c1.287.314 2.918.709 4.626 1.124-.212.58-.415 1.158-.603 1.745-1.563-.264-3.164-.539-4.7-.799.215-.692.439-1.381.677-2.07zm68.11 47.288a741.544 741.544 0 0 1-3.473-3.143c-.1.075-.193.144-.321.243.236.22 2.903 2.648 3.461 3.16-.185.142-.376.285-.565.423-.48-.825-1.466-1.398-2.352-1.887-1.215-.68-1.606-.863-1.606-.863s-.49.243-.157.536c.339.294 1.771 1.046 2.234 1.416.35.275.9.677 1.195 1.293-.616.435-1.237.84-1.87 1.234-1.849-1.91-3.214-3.34-3.263-3.39-.06.035-.097.05-.177.09.071.074 1.443 1.489 3.276 3.396-.038.025-.072.05-.111.077-.36.22-.738.412-1.105.62l-3.134-3.512c-.044.016-.068.035-.13.06.062.063 1.451 1.616 3.142 3.516-.273.154-.539.306-.813.452-1.57-2.145-2.67-3.64-2.714-3.704-.08.049-.124.072-.235.128.065.091 1.157 1.583 2.712 3.712-.674.345-1.352.664-2.044.964-1.483-2.172-2.568-3.755-2.606-3.818-.069.027-.104.047-.198.082.062.084 1.141 1.67 2.613 3.827-.57.25-1.153.469-1.733.682-.362-.62-.701-1.198-1.004-1.726.388-.138.785-.276 1.168-.438l-.207-.523c-.41.168-.832.317-1.25.465-.604-1.034-1.001-1.725-1.022-1.757l-.149.059c.032.04.42.729 1.023 1.755-.701.249-1.402.486-2.117.687-.474-.979-.83-1.704-.864-1.775-.084.024-.138.042-.238.068.041.099.396.818.86 1.77-.206.06-.412.112-.617.158a80.466 80.466 0 0 1-.748-1.804c-.084.025-.127.045-.232.07.024.058.305.734.749 1.793-.413.1-.823.2-1.237.29l-.719-1.803c-.087.021-.134.031-.244.052.05.133.37.918.72 1.802-.333.068-.662.14-.99.193-.3-1.047-.517-1.793-.526-1.817-.057.017-.185.041-.215.055.015.068.234.87.489 1.81-.828.138-1.655.242-2.483.323-.01-.737.006-1.67-.057-1.988-.085-.455-.557-.145-.557-.145s-.036.452-.068 1.899v.294c-.301.024-.597.042-.898.056l-.382-1.86c-.09.001-.132.008-.248.008.016.077.16.786.389 1.864-.895.037-1.785.05-2.673.016-.083-.932-.164-1.821-.17-1.903-.074-.004-.127-.01-.214-.01.005.05.068.785.174 1.91-.022 0-.04 0-.055.003l-.024.568c.045.003.083 0 .13 0 .103 1.232.245 2.795.39 4.443a43.108 43.108 0 0 1-2.595-.147c.016-.765.036-1.49.053-2.167.761.072 1.527.12 2.299.147l.012-.285a34.983 34.983 0 0 1-2.304-.146l.112-4.447c-.145-.023-.38-.065-.561-.094-.01.106-.07 1.909-.165 4.472a39.18 39.18 0 0 1-2.675-.382c.14-2.08.288-4.294.294-4.44-.087-.015-.13-.028-.237-.047-.011.184-.157 2.371-.303 4.437-.186-.03-.38-.081-.569-.12l.467-4.41c-.074-.017-.115-.022-.2-.045-.008.092-.2 1.907-.468 4.412a31.563 31.563 0 0 1-2.065-.508c.046-.267.09-.536.132-.79.108.014.216.033.236.034.204-1.302.507-3.323.519-3.397a1.581 1.581 0 0 1-.171-.049c.021-.127.032-.2.036-.217-.09-.023-.273-.077-.382-.102-.012.074-.382 2.036-.82 4.404a38.912 38.912 0 0 1-2.624-.868c.656-2.45 1.131-4.2 1.149-4.274-.086-.029-.124-.049-.214-.083a874.12 874.12 0 0 0-1.151 4.271c-.34-.128-.687-.256-1.027-.395.738-2.415 1.268-4.167 1.29-4.234-.082-.037-.122-.05-.212-.092-.03.088-.56 1.826-1.294 4.236-.384-.17-.774-.341-1.156-.514.884-2.384 1.504-4.064 1.536-4.139-.043-.016-.128-.055-.128-.055s-.05-.029-.097-.05c-.037.09-.653 1.765-1.54 4.14-.083-.042-.174-.077-.266-.116-.468-.227-.918-.462-1.38-.702.278-.619.56-1.244.82-1.816.466.238.925.487 1.4.711l.243-.512c-.478-.23-.945-.474-1.408-.725.408-.915.716-1.607.748-1.685-.08-.046-.123-.068-.21-.116-.044.09-.351.776-.76 1.693a34.85 34.85 0 0 1-2.5-1.496c.564-.93.929-1.548.965-1.6a32.167 32.167 0 0 1-.464-.294c-.09.152-.46.759-.97 1.58a44.694 44.694 0 0 1-1.65-1.19l.776-1.11.199-.286c.044-.075.085-.123.093-.138-.05-.034-.088-.071-.154-.122a6.044 6.044 0 0 1-.184.273l-.125.171c-.18.272-.443.642-.758 1.097l-.321.465c-.334.485-.715 1.04-1.135 1.637l-.152.232c-.394.562-.814 1.162-1.237 1.78l-2.864 4.139c-2.459 3.559-4.659 6.74-4.733 6.835.067.046.09.071.157.12l4.73-6.834c.672.51 1.36 1 2.06 1.468-1.38 2.227-2.456 3.97-2.507 4.049.085.044.125.076.213.118.13-.206 1.312-2.118 1.312-2.118s.288.174.413.237c.036-.056.487-.797 1.153-1.901a45.498 45.498 0 0 0 5.048 2.823l.09-.196a46.465 46.465 0 0 1-5.032-2.812l2.38-3.958a40.348 40.348 0 0 0 3.058 1.805c-.192.435-.32.726-.348.784.09.037.137.055.226.093.018-.05.149-.33.34-.761.437.231.885.454 1.338.668.157.078.32.14.473.215l-.73 1.97c-.211-.101-.425-.185-.635-.292l-.183.391c.224.107.448.193.671.298l-1.584 4.277a43.49 43.49 0 0 1-1.015-.464l-.061.134c.339.161.685.31 1.03.469-1.667 4.496-3.122 8.417-3.167 8.542.09.036.132.054.224.097.046-.132 1.5-4.05 3.162-8.54.566.246 1.133.485 1.702.71-.99 3.257-1.776 5.831-1.804 5.926.087.03.125.046.217.083.035-.1.82-2.67 1.809-5.914.446.17.893.331 1.343.494-1.039 3.856-1.89 7.034-1.92 7.144.043.007.115.036.218.068.033-.115.884-3.288 1.915-7.132a46.63 46.63 0 0 0 6.665 1.792c-.345 3.245-.614 5.783-.619 5.869.077.02.131.02.201.03.007-.103.277-2.626.618-5.851.564.1 1.13.202 1.699.28a52.39 52.39 0 0 0 2.477.301c-.179 4.8-.327 8.995-.331 9.114.106.013.17.017.241.028.01-.301.09-2.39.09-2.39l.32.01s-.058 2.154-.06 2.42c.091.006.14.013.237.027.009-.147.112-4.346.233-9.151 1.148.088 2.295.134 3.443.146l.202 2.28c.022-.002.11-.002.168-.004-.008-.069-.08-.98-.201-2.276 1.39 0 2.777-.058 4.162-.18.322 1.536.54 2.587.555 2.662.094-.02.142-.033.24-.053-.017-.075-.232-1.107-.552-2.633.199-.015.395-.03.59-.05-.032.084-.057.165-.088.259-.588 1.776.561 2.238 1.743 3.042 1.187.8.26 1.677-.656 3.834-.919 2.16 2.14 3.18 2.14 3.18-.69-.753-1.225-1.603-1.428-2.615-.176-.906.23-1.312.67-2.044.252-.414.44-.902.425-1.389-.03-.778-1.003-2.28-1.939-2.91-.487-.335-.428-.898-.228-1.438a46.39 46.39 0 0 0 3.01-.45l-.025-.134c-.973.18-1.948.316-2.925.436.176-.419.424-.806.536-1.029.164-.314.444-.82.38-1.356 2-.29 3.973-.726 5.926-1.29 2.012 4.85 3.939 9.463 3.988 9.59.093-.04.214-.085.214-.085-.051-.149-1.966-4.743-3.975-9.569a40.74 40.74 0 0 0 2.143-.68l-.07-.202c-.713.244-1.433.473-2.157.688l-1.79-4.294c.306-.08.606-.172.91-.266.258.533.437.895.466.956.087-.044.127-.062.217-.109a68.88 68.88 0 0 1-.444-.923 38.862 38.862 0 0 0 2.46-.859c.36.62.724 1.236 1.07 1.84l.152.397c.026-.009.044-.02.064-.028 1.403 2.41 2.559 4.404 2.598 4.463.061-.025.14-.063.145-.063-.05-.08-1.198-2.069-2.591-4.458a45.16 45.16 0 0 0 2.043-.884c2.853 4.171 5.733 8.403 5.802 8.506.066-.034.107-.057.186-.091-.086-.133-2.962-4.343-5.798-8.504a45.686 45.686 0 0 0 2.174-1.094c4.035 5.517 8.707 11.912 8.806 12.046.088-.057.13-.081.22-.147-.12-.163-4.773-6.532-8.796-12.03.432-.235.856-.462 1.273-.716 1.516 1.698 2.7 3.028 2.744 3.077l.116-.067L78.44 97.2c.455-.276.912-.552 1.356-.845 1.11 1.164 2.22 2.308 3.196 3.326-.814.55-1.637 1.08-2.479 1.574l.073.121a53.485 53.485 0 0 0 2.507-1.593c1.821 1.888 3.165 3.294 3.216 3.341.072-.045.142-.094.163-.099-.067-.067-1.408-1.463-3.228-3.344a50.745 50.745 0 0 0 2.88-2.121c.245.132.426.35.444.672.077 1.096.855 2.648 1.488 3.048.395.255.893.335 1.359.319.822-.014 1.359-.157 2.022.434.746.654 1.189 1.532 1.483 2.475 0 0 .627-3.08-1.606-3.36-2.241-.27-3.413.08-3.503-1.308-.084-1.208.032-2.267-1.103-2.766l-.158-.052c-.127-.043-.262-.093-.425-.129-1.766-.375-2.516-.36-2.841-1.714-.048-.237-.196-.613-.472-.974l-.286-.317c-.406-.393-.986-.694-1.821-.667-.442.007-1.553-.027-1.562-1.464a2.044 2.044 0 0 0-.179-.777c.266-.195.535-.396.805-.595.192.174 1.615 1.466 1.816 1.644.062-.075.094-.11.163-.184-.093-.078-.857-.769-1.791-1.616l-.215-.193zM32.273 92.46c-.843 1.222-1.747 2.526-2.621 3.79l2.621-3.79zm-2.464 3.903c.875-1.26 1.775-2.562 2.62-3.787.61.46 1.23.906 1.862 1.328-.817 1.326-1.665 2.689-2.43 3.923a39.662 39.662 0 0 1-2.052-1.464zm4.594-2.633a39.748 39.748 0 0 1-1.85-1.332c.429-.617.843-1.222 1.229-1.777a37.98 37.98 0 0 0 1.766 1.268c-.37.587-.749 1.205-1.145 1.841zm1.288-2.081a41.305 41.305 0 0 1-1.75-1.264c.416-.595.803-1.15 1.137-1.632.543.414 1.096.813 1.672 1.196-.317.505-.668 1.082-1.06 1.7zm.504.322c.373-.613.717-1.196 1.029-1.699a33.933 33.933 0 0 0 2.56 1.524l-.819 1.825c-.95-.51-1.87-1.064-2.77-1.65zm-1.265 2.103c.382-.636.757-1.263 1.12-1.865.907.6 1.838 1.158 2.797 1.667-.327.752-.641 1.451-.884 1.983a43.27 43.27 0 0 1-3.033-1.785zm4.137-.081c.451.231.909.47 1.369.694.103.045.199.086.299.133-.235.633-.49 1.318-.751 2.028-.155-.068-.31-.131-.466-.201a43.082 43.082 0 0 1-1.338-.665l.887-1.99zm1.891.923c.391.178.778.356 1.164.523-.197.653-.411 1.357-.629 2.084-.435-.182-.862-.381-1.29-.573.265-.716.52-1.394.755-2.034zm-.825 2.233c.43.2.856.4 1.298.58-.206.65-.407 1.325-.614 2.007a41.193 41.193 0 0 1-1.421-.62l.737-1.967zm-.88 2.367c.477.22.956.428 1.439.622-.454 1.49-.905 2.986-1.326 4.37a33.15 33.15 0 0 1-1.7-.708c.526-1.405 1.062-2.862 1.586-4.284zm1.661.714c.397.154.793.316 1.195.46a861.412 861.412 0 0 0-1.188 4.404c-.45-.157-.896-.321-1.34-.492.422-1.387.883-2.886 1.333-4.372zm1.405.542c.997.36 2.005.666 3.018.948a824.245 824.245 0 0 0-.605 3.248l.126.03c.014-.06.274-1.47.604-3.247.098.028.194.054.292.083a739.968 739.968 0 0 1-.556 3.237c.016 0 .084.021.13.033.006-.065.243-1.427.55-3.236.79.202 1.581.398 2.383.555-.165 1.55-.331 3.11-.48 4.545a47.694 47.694 0 0 1-6.645-1.792c.383-1.423.785-2.93 1.183-4.404zm6.138 1.697c1.273.251 2.554.426 3.851.56-.053 1.504-.11 3.057-.167 4.56a57.097 57.097 0 0 1-2.46-.29 53.138 53.138 0 0 1-1.707-.291c.157-1.433.322-2.994.483-4.539zm3.943-1.968c-.025.684-.046 1.385-.077 2.1a42.533 42.533 0 0 1-3.822-.562l.23-2.1c.221.038.444.09.67.132-.04.583-.068.986-.068 1.05.095.006.143.01.24.015.006-.063.036-.453.072-1.017.913.16 1.83.286 2.755.382zm-2.596-2.775c.887.165 1.785.281 2.685.385a433.7 433.7 0 0 0-.077 2.176 35.602 35.602 0 0 1-2.754-.386c.04-.605.097-1.369.146-2.175zm-.821-.166c.19.034.384.088.58.121-.056.8-.104 1.568-.146 2.176-.223-.044-.442-.085-.665-.132l.23-2.165zm-2.285-.552c.69.192 1.387.357 2.084.503-.074.687-.148 1.419-.23 2.17a37.893 37.893 0 0 1-2.214-.525c.119-.719.244-1.447.36-2.148zm-.124-.035c-.108.667-.236 1.4-.363 2.153a3.75 3.75 0 0 0-.249-.064c.146-.754.28-1.484.408-2.142.064.023.136.034.204.053zm.282-2.674l.049.007c-.103.607-.211 1.224-.274 1.583.018.006.065.006.124.017-.043.245-.08.503-.132.784-.066-.018-.136-.033-.203-.055l.436-2.336zm-3.259 1.718c.879.318 1.755.613 2.645.864-.127.703-.264 1.427-.396 2.148-.95-.27-1.884-.58-2.81-.918.197-.74.385-1.44.561-2.094zm-1.886 1.59c.222-.726.438-1.424.636-2.08.342.144.688.273 1.037.402-.18.661-.367 1.365-.564 2.1-.371-.138-.74-.27-1.109-.422zm.505 2.668a48.274 48.274 0 0 1-1.18-.455c.212-.685.414-1.353.612-2.009.371.151.74.289 1.115.421-.178.663-.366 1.348-.547 2.043zm3.198 1.025c-.999-.28-1.999-.584-2.98-.945.183-.69.367-1.375.547-2.037.93.342 1.87.65 2.826.92-.138.714-.263 1.407-.393 2.062zm.887-1.934c.737.199 1.48.379 2.23.528-.077.685-.146 1.392-.227 2.102a39.068 39.068 0 0 1-2.358-.554c.114-.656.238-1.361.355-2.076zm-.479 2.046a4.746 4.746 0 0 1-.278-.084c.122-.657.254-1.36.382-2.054.085.02.167.038.25.06-.122.702-.242 1.408-.354 2.078zm7.163 1.684c.651.055 1.304.1 1.96.126l.015-.43a40.817 40.817 0 0 1-1.962-.119c.02-.723.034-1.43.05-2.118.868.077 1.743.13 2.623.145.225 2.543.463 5.222.627 7.093a45.597 45.597 0 0 1-3.42-.145c.032-1.493.068-3.046.107-4.552zm2.855-2.383c.203 0 .41.01.608.01.909 0 1.813-.032 2.713-.093.321 1.531.65 3.123.948 4.568-1.02.085-2.039.139-3.072.152l.004.216c1.04-.016 2.078-.07 3.116-.154.164.793.314 1.545.462 2.205a45.589 45.589 0 0 1-4.152.176c-.18-2.026-.433-4.924-.627-7.08zm4.56 4.679c.49-.042.987-.093 1.472-.15.248.602.014 1.24-.346 2.293-.22.025-.442.042-.67.062-.137-.665-.288-1.403-.455-2.205zm1.997-1.378c-1.197-.863-.816-1.158-.396-2.212.159-.416.19-.942.11-1.464.547-.075 1.091-.175 1.636-.267.418 1.55.928 3.482.951 3.558.038-.014.304-.1.401-.135-.012-.058-.459-1.608-1-3.484 1.024-.197 2.03-.44 3.044-.719.57 1.372 1.183 2.841 1.788 4.29a43.84 43.84 0 0 1-5.885 1.284c-.084-.285-.27-.578-.65-.851zM59.935 95.9a32.158 32.158 0 0 0 2.605-.333c.343 1.265.69 2.566.69 2.566s.2.768.464 1.731c-.54.098-1.084.189-1.62.263-.153-.724-.51-1.412-1.02-1.748-.926-.596-1.013-1.68-1.099-2.294a11.14 11.14 0 0 1-.02-.185zm1.404 8.607c.191.18.324.358.423.527-.466.058-.935.11-1.404.146-.301-1.442-.633-3.032-.947-4.564.609-.04 1.214-.102 1.823-.174-.056.302-.201.563-.293.719-.97 1.578-.056 2.93.398 3.346zm-2.883-8.49c.257-.016.522-.028.776-.045.017 1.208.21 2.42 1.225 3.03.64.38.813.818.801 1.222a33.71 33.71 0 0 1-1.894.181c-.338-1.634-.66-3.182-.908-4.388zm-2.827 1.738c-.006-.091-.079-.853-.158-1.701a35.62 35.62 0 0 0 2.737-.026c.249 1.211.571 2.758.911 4.393-.886.055-1.778.093-2.671.093-.21 0-.418-.013-.626-.02l-.242-2.73.05-.01zm9.362-.248c-.05-.135-.473-1.185-.895-2.251.418-.085.83-.188 1.243-.292.468 1.112 1.056 2.543 1.718 4.129-1 .273-2.007.513-3.022.709a891.1 891.1 0 0 0-1.23-4.282c.349-.06.697-.137 1.047-.21.432 1.084.86 2.151.912 2.284.095-.034.14-.048.227-.087zm2.296 1.527c-.659-1.586-1.25-3.015-1.724-4.133.22-.053.44-.105.658-.161.276.564.574 1.185.871 1.792-.141.043-.274.098-.413.132l.074.279c.16-.05.31-.105.47-.15.355.734.69 1.431.96 1.987-.298.08-.598.175-.896.254zm.048-2.579c-.297-.605-.6-1.217-.876-1.781.725-.219 1.44-.454 2.155-.707.302.52.645 1.101 1.01 1.72-.756.285-1.52.54-2.29.768zm.123.261a36.343 36.343 0 0 0 2.304-.78c.358.614.73 1.254 1.106 1.912-.808.304-1.625.592-2.446.846-.27-.547-.608-1.243-.964-1.978zm3.558 1.07c-.374-.65-.752-1.293-1.103-1.903.586-.225 1.175-.444 1.746-.695.785 1.147 1.665 2.439 2.562 3.758-.67.294-1.342.587-2.026.864-.349-.6-.706-1.22-1.071-1.838.2-.08.392-.145.587-.226l-.075-.194c-.205.081-.41.153-.62.233zm3.39 1.062c-.892-1.309-1.771-2.604-2.557-3.753.694-.301 1.38-.624 2.054-.974l2.664 3.643c-.708.376-1.427.744-2.16 1.084zm2.402-1.215c-.963-1.301-1.868-2.548-2.671-3.64.286-.15.559-.315.844-.474.994 1.12 2.078 2.338 3.055 3.43-.403.234-.816.465-1.228.684zm1.346-.758a639.229 639.229 0 0 1-3.054-3.423c.352-.195.71-.378 1.053-.59.062-.035.115-.072.173-.106.978 1.014 2.068 2.145 3.17 3.292-.443.284-.891.562-1.342.827zm1.498-.929a1032.94 1032.94 0 0 1-3.167-3.29 38.683 38.683 0 0 0 1.766-1.167 2.1 2.1 0 0 1 .086.468c.054 1.079 1.305 2.301 2.385 2.464.387.058.69.072.927.136-.648.481-1.318.947-1.997 1.39zm.304.312a43.22 43.22 0 0 0 2.098-1.474c.16.182.257.495.313 1.043.14 1.431 1.29 1.421 1.852 1.445.367.022 1.198-.036 1.77.205a49.005 49.005 0 0 1-2.844 2.102 1959.95 1959.95 0 0 1-3.189-3.321z"/>
    </g>
</svg>
