<svg xmlns="http://www.w3.org/2000/svg" width="149" height="201" viewBox="0 0 149 201">
    <g fill="#FFF" fill-rule="evenodd">
        <path d="M138.233 195.678c-.258.145-.567.214-.933.214h-3.522v-2.118h3.522c.366 0 .675.073.933.217.26.142.393.427.393.842 0 .42-.132.7-.393.845zm1.367-2.836c-.61-.393-1.442-.588-2.5-.588h-5.822v.3c.409 0 .612.096.612.3v7.497c0 .204-.203.302-.612.302v.295h3.027v-.295c-.352 0-.527-.098-.527-.302v-2.935h3.323c1.057 0 1.89-.197 2.499-.592.604-.389.907-1.055.907-1.99 0-.94-.303-1.604-.907-1.992zm-13.314-.289c.332 0 .503.097.503.301v4.952c0 .7-.228 1.18-.674 1.435-.445.26-1.101.385-1.957.385-.866 0-1.518-.125-1.961-.385-.443-.256-.67-.736-.67-1.435v-4.952c0-.204.119-.3.36-.3v-.3h-2.706v.3c.306 0 .465.096.465.3v4.87c0 .653.088 1.19.279 1.614.19.424.466.764.838 1.013.378.256.842.428 1.402.517a12.08 12.08 0 0 0 1.925.132c.724 0 1.37-.04 1.923-.132.557-.089 1.026-.26 1.396-.517.378-.249.656-.589.85-1.013.182-.425.278-.96.278-1.615v-4.869c0-.204.127-.3.39-.3v-.3h-2.641v.3zm-11.425 5.293c-.207.357-.48.666-.815.92-.332.243-.716.44-1.136.564a4.052 4.052 0 0 1-1.256.204 4.09 4.09 0 0 1-1.253-.204 3.754 3.754 0 0 1-1.136-.565 3.153 3.153 0 0 1-.815-.919 2.457 2.457 0 0 1-.315-1.242c0-.458.107-.873.315-1.238.21-.366.48-.67.815-.92a3.929 3.929 0 0 1 1.136-.569 4 4 0 0 1 2.509 0c.42.133.804.323 1.136.568.335.25.608.555.815.921.215.365.317.78.317 1.238 0 .463-.102.88-.317 1.242zm.367-4.6a5.615 5.615 0 0 0-1.721-.817 6.548 6.548 0 0 0-1.853-.272c-.602 0-1.22.088-1.85.272a5.626 5.626 0 0 0-1.72.816 4.48 4.48 0 0 0-1.274 1.384c-.332.551-.495 1.218-.495 1.975 0 .76.163 1.418.495 1.97a4.553 4.553 0 0 0 1.274 1.394c.519.36 1.089.62 1.72.787a7.552 7.552 0 0 0 1.85.245c.609 0 1.226-.086 1.853-.245a5.396 5.396 0 0 0 1.72-.787 4.606 4.606 0 0 0 1.272-1.395c.33-.55.499-1.209.499-1.969 0-.757-.168-1.424-.5-1.975a4.532 4.532 0 0 0-1.27-1.384zm-14.397 2.787a4.944 4.944 0 0 1-.997.09h-2.86v-2.448h2.86c.396 0 .729.031.997.094.26.058.47.14.623.253.16.111.26.244.339.39a1.312 1.312 0 0 1 0 .978 1.116 1.116 0 0 1-.34.387c-.152.115-.362.19-.622.256zm2.758 4.39l-2.203-3.147c.733-.128 1.312-.386 1.74-.769.424-.388.647-.945.647-1.674 0-.469-.083-.869-.251-1.198a2.077 2.077 0 0 0-.705-.793 3.271 3.271 0 0 0-1.113-.445 6.427 6.427 0 0 0-1.438-.143h-5.652v.3c.319 0 .48.096.48.3v7.497c0 .204-.161.302-.48.302v.295h2.855v-.295c-.184 0-.311-.026-.381-.069a.274.274 0 0 1-.113-.233v-2.935h2.362l1.818 2.575c.09.122.159.22.202.291a.348.348 0 0 1 .067.191c0 .053-.041.098-.108.131a.65.65 0 0 1-.257.05v.294h3.092v-.295c-.09 0-.19-.014-.293-.036a.429.429 0 0 1-.27-.195zm-15.838-3.875c-.077-.054-.13-.173-.148-.354h-.301v2.114h.3c.019-.219.072-.366.149-.433.078-.069.195-.1.345-.1h2.118v1.43c-.353.111-.783.23-1.285.336a8.808 8.808 0 0 1-1.687.153c-.412 0-.813-.056-1.218-.172-.4-.12-.765-.3-1.07-.537a2.583 2.583 0 0 1-.767-.96c-.194-.383-.287-.847-.287-1.383 0-.557.093-1.026.287-1.41.192-.392.446-.7.767-.944.305-.24.67-.42 1.07-.539a4.454 4.454 0 0 1 1.218-.174c.328 0 .673.03 1.048.071.37.045.709.113 1.023.201.313.1.576.212.778.34.202.132.307.285.307.45a.55.55 0 0 1-.038.196l.33.104.98-2.187-.201-.115a1.696 1.696 0 0 0-.165.115c-.051.044-.134.066-.232.066-.053 0-.2-.03-.418-.103-.23-.078-.511-.149-.853-.237a15.745 15.745 0 0 0-1.172-.222 9.587 9.587 0 0 0-1.387-.097c-.774 0-1.48.1-2.111.308a4.626 4.626 0 0 0-1.635.881 4.01 4.01 0 0 0-1.04 1.395c-.252.55-.377 1.17-.377 1.863 0 .696.125 1.317.378 1.856a3.877 3.877 0 0 0 1.039 1.393c.448.377.996.666 1.635.854.63.196 1.337.293 2.11.293.399 0 .804-.013 1.21-.033a7.955 7.955 0 0 0 1.24-.17 7.744 7.744 0 0 0 1.227-.392 5.543 5.543 0 0 0 1.144-.627v-.264c-.09-.047-.16-.088-.231-.117-.06-.035-.098-.104-.098-.216v-1.87c0-.139.03-.237.083-.277.06-.043.192-.083.418-.118v-.298h-4.138a.695.695 0 0 1-.345-.07zm-14.52-3.995c.09 0 .188.011.29.027.108.03.157.076.157.154a.374.374 0 0 1-.078.216c-.056.076-.125.18-.215.314l-1.933 2.663a15.485 15.485 0 0 0-.565-.846c-.232-.329-.452-.658-.667-.965-.216-.313-.403-.596-.565-.84-.16-.25-.24-.41-.24-.479 0-.11.044-.177.132-.204.09-.023.184-.04.28-.04v-.299H66.39v.3c.112 0 .246.032.406.115.16.081.279.17.355.281l3.19 4.466v2.935c0 .104-.03.175-.093.233a.472.472 0 0 1-.25.07v.294h2.612v-.295c-.26 0-.381-.098-.381-.302v-2.935l2.807-3.988c.135-.198.247-.356.339-.47.097-.116.183-.208.268-.266a.648.648 0 0 1 .237-.112c.078-.016.163-.027.253-.027v-.299h-2.9v.3zm-8.12-.379a.618.618 0 0 1-.295.08h-7.338a.593.593 0 0 1-.287-.08c-.095-.057-.146-.157-.146-.316h-.291v2.311h.29c0-.147.052-.26.147-.309a.552.552 0 0 1 .287-.086h2.732v6.577a.3.3 0 0 1-.093.233.352.352 0 0 1-.212.07v.294h2.55v-.295c-.243 0-.366-.098-.366-.302v-6.577h2.727c.104 0 .197.03.296.086.092.048.137.162.137.31h.297v-2.312h-.297c0 .16-.045.26-.137.316zm-13.136.38c.284 0 .433.096.433.3v7.497c0 .204-.15.302-.433.302v.295h2.744v-.295c-.286 0-.431-.098-.431-.302v-7.497c0-.204.145-.3.43-.3v-.3h-2.743v.3zm-3.904 5.458c.047.052.07.122.07.191 0 .144-.112.302-.327.458a3.379 3.379 0 0 1-.804.43 7.388 7.388 0 0 1-1.051.311 5.045 5.045 0 0 1-1.112.132c-.461 0-.905-.07-1.335-.204a3.151 3.151 0 0 1-1.102-.577 2.771 2.771 0 0 1-.752-.937 2.776 2.776 0 0 1-.28-1.262 2.746 2.746 0 0 1 1.031-2.202 3.347 3.347 0 0 1 1.103-.578c.43-.128.874-.199 1.335-.199.278 0 .576.035.903.1.324.065.63.15.927.25.288.097.533.211.73.341.2.122.31.247.334.371.013.047.013.08.026.115 0 .032.01.07.01.098l.162.116 1.288-1.999-.243-.197c-.022.027-.054.08-.096.13-.04.05-.083.08-.137.08-.044 0-.17-.04-.364-.126a5.777 5.777 0 0 0-.812-.284 12.71 12.71 0 0 0-1.2-.279 7.86 7.86 0 0 0-1.528-.134c-.694 0-1.363.093-2.001.285a4.964 4.964 0 0 0-1.693.843 3.99 3.99 0 0 0-1.166 1.396c-.287.551-.43 1.195-.43 1.923 0 .736.143 1.383.43 1.935a4.087 4.087 0 0 0 1.166 1.384c.49.368 1.059.637 1.693.811a7.543 7.543 0 0 0 2 .266c.53 0 1.04-.06 1.523-.184.49-.12.915-.26 1.3-.428.379-.169.692-.31.94-.449.252-.128.404-.197.47-.197.035 0 .064.003.09.008.032.012.058.012.093.012l.129-.136-1.086-1.75-.234.136zm-13.424-5.459c.287 0 .429.097.429.301v5.25l-4.747-4.92c-.215-.22-.328-.378-.328-.47 0-.104.042-.16.135-.16v-.3h-2.832v.3c.213 0 .317.096.317.3v7.497c0 .204-.104.302-.317.302v.295h2.45v-.295c-.251 0-.38-.098-.38-.302v-5.487l5.04 5.26c.177.183.264.307.264.381 0 .1-.072.148-.213.148v.295h2.675v-.295c-.206 0-.311-.098-.311-.302v-7.497c0-.204.105-.3.31-.3v-.3h-2.492v.3zm-12.582 0c.333 0 .5.097.5.301v4.952c0 .7-.225 1.18-.676 1.435-.444.26-1.092.385-1.953.385-.862 0-1.516-.125-1.96-.385-.447-.256-.673-.736-.673-1.435v-4.952c0-.204.12-.3.368-.3v-.3h-2.716v.3c.309 0 .465.096.465.3v4.87c0 .653.095 1.19.279 1.614.186.424.47.764.843 1.013.38.256.842.428 1.4.517.557.091 1.2.132 1.924.132.727 0 1.369-.04 1.926-.132.558-.089 1.024-.26 1.398-.517.375-.249.655-.589.847-1.013.182-.425.276-.96.276-1.615v-4.869c0-.204.133-.3.398-.3v-.3h-2.646v.3zm-10.43 3.712a3.536 3.536 0 0 0-1.066-.395 11.23 11.23 0 0 0-1.24-.18c-.413-.029-.824-.06-1.226-.082a7.046 7.046 0 0 1-1.071-.127c-.318-.068-.571-.163-.757-.3-.196-.133-.296-.33-.296-.592 0-.189.072-.346.209-.473.139-.127.31-.233.52-.307.206-.077.44-.134.7-.174a4.825 4.825 0 0 1 1.714.033c.318.064.617.141.89.24.277.102.52.212.719.34.207.128.353.255.439.39a.928.928 0 0 1 .135.38l.165.063 1.136-2.062-.196-.14c-.064.071-.181.101-.33.101-.144 0-.322-.04-.535-.126a8.148 8.148 0 0 0-.798-.284 10.766 10.766 0 0 0-1.113-.279 7.467 7.467 0 0 0-1.524-.134c-.682 0-1.276.081-1.783.24-.51.156-.925.363-1.256.622a2.338 2.338 0 0 0-.976 1.877c0 .51.095.927.287 1.238.194.308.448.557.764.745.312.18.668.31 1.076.385.4.076.81.13 1.228.163.42.035.833.058 1.23.074.407.017.762.053 1.077.112.319.055.567.14.76.262.197.125.292.312.292.565 0 .257-.111.451-.312.611-.215.154-.46.273-.747.364a3.9 3.9 0 0 1-.88.167 8.013 8.013 0 0 1-.723.044c-.258 0-.543-.032-.861-.085a7.611 7.611 0 0 1-.918-.242 4.821 4.821 0 0 1-.778-.338c-.226-.128-.378-.26-.453-.392a.497.497 0 0 1-.066-.26l-.161-.085-.916 1.995.234.132c.067-.076.139-.132.213-.132.123 0 .264.044.433.127.166.088.382.18.669.281.28.107.632.197 1.054.264.428.076.954.11 1.58.11.45 0 .94-.034 1.466-.11a4.754 4.754 0 0 0 1.46-.418c.455-.21.829-.494 1.135-.863.3-.357.456-.828.456-1.407 0-.49-.094-.896-.291-1.206a2.12 2.12 0 0 0-.767-.732zM108.228 182.462l-1.357-2.678a.729.729 0 0 1-.047-.281c0-.349.158-.524.478-.524.107 0 .257.031.455.099.868.301 2.083.445 3.637.445l1.877 3.462c.186.269.653.406 1.407.406.754.004 1.13.285 1.13.854 0 .387-.2.692-.599.915l-2.61.025c-1.504 0-2.473-.178-2.905-.529-.43-.352-.92-1.085-1.466-2.194zm-11.422-10.266l4.948.01v-.961l-4.948-.011v.962zm0-2.798l4.948.01v-.938l-4.948-.005v.933zm0-2.762l4.948.008v-.95l-4.974-.003.026.945zm8.36 11.565l-.013 6.952c0 .378-.157.572-.478.572h-3.455c-.342-.047-.514-.207-.514-.499l.01-7.028-9.455-.004c-.19-.006-.436-.069-.748-.196-.309-.133-.466-.39-.466-.771 0-.099.025-.227.07-.376.046-.135.173-.256.365-.35l.283-.144 9.951.022v-1.041c.437 0 .847-.033 1.234-.068a8.241 8.241 0 0 0 1.134-.21 5.03 5.03 0 0 0 .997-.361c.285-.141.465-.216.555-.216.275-.003.421.102.421.29l-.007 1.609 9.86.011c.586 0 .88.319.88.948 0 .587-.333.877-.995.877l-9.63-.017zm-10.74 1.278c.825.056 1.713-.023 2.678-.222l1.332-.318c.375 0 .563.139.56.405v.286a163.327 163.327 0 0 1-1.657 3.44c-.419.833-.857 1.393-1.327 1.675-.472.28-1.232.421-2.277.421l-3.029-.006c-.469-.17-.71-.481-.706-.923-.005-.388.117-.63.354-.742.236-.108.717-.16 1.44-.16.367 0 .618-.116.757-.36l1.874-3.496zm11.638-11.009v.941l6.51.01c.473.098.71.412.713.949-.004.587-.352.888-1.062.888l-6.188-.013.022.969 9.11.004c.422.118.64.436.64.954a.81.81 0 0 1-.29.626.934.934 0 0 1-.635.25l-20.65-.024a1.965 1.965 0 0 1-1.17-.509c-.334-.301-.537-.591-.604-.857-.073-.272-.104-.741-.104-1.397v-3.345c-.954-.002-1.59-.046-1.888-.141-.302-.095-.45-.374-.45-.834 0-.516.207-.79.62-.834.414-.042.68-.089.798-.141.117-.047.405-.679.88-1.873a79.4 79.4 0 0 0 1.28-3.541c1.102.037 1.997-.054 2.694-.256.696-.197 1.07-.296 1.137-.296.348 0 .52.164.52.488 0 .092-.026.22-.076.377l-.932 2.998 5.643.006-.86-2.063c0-.161.027-.272.086-.328.052-.06.43-.245 1.13-.553l1.996-.874c.47 0 .994.746 1.556 2.246.046.107.098.238.16.371.057.13.09.247.09.344a.31.31 0 0 1-.096.236l-.684.621 7.878.011c.223 0 .411.1.57.284.156.193.234.41.234.655 0 .591-.325.89-.976.89l-7.623-.011.026.95 6.511.007c.467.104.696.429.696.966 0 .577-.302.861-.894.861l-6.318-.012zM130.775 171.759l1.323.005.004-1.327h-1.327v1.322zm0-2.548h1.207v-.822c-.014-.316-.178-.469-.496-.469a7.231 7.231 0 0 1-.703 0l-.008 1.291zm-5.393 2.542l1.348.006.006-1.328-1.354-.004v1.326zm0-2.55h1.354l.006-.962c-.343.012-.792.117-1.36.337v.625zm.967 9.534l.459 1.357c.568.089.85.4.846.94 0 .583-.333.879-1.001.879l-1.255.035c-.669 0-1.184-.121-1.536-.357-.352-.239-.663-.779-.933-1.623-.278-.846-.413-1.313-.413-1.395 0-.272.119-.408.363-.408.046 0 .158.027.336.067l1.195.316c.382.101 1.025.169 1.939.189zm5.928 3.493h-3.369c-.623-.069-.945-.385-.945-.943 0-.213.055-.4.161-.584.105-.175.22-.276.341-.276h.907c.342 0 .518-.186.518-.564l.002-1.909-7.961-.008c-.313.029-.518-.109-.639-.41h-.054l-.011 5.318 15.086.013.006-5.311h-.054c-.098.264-.313.403-.631.403l-1.837-.005-.004 2.51c0 .432-.141.826-.416 1.205-.28.378-.648.561-1.1.561zm-1.502-7.987h2.371c-.071-.187-.11-.315-.11-.4l1.027-.227c.123-.013.313-.1.56-.254.251-.151.449-.232.583-.232.136 0 .256.046.368.145.021.082.111.276.251.589.148.32.219.585.214.814 0 .28-.087.531-.276.75-.197.214-.502.318-.929.308-.43-.006-.777-.006-1.034-.006v.716h1.838c.335.008.548.146.627.429h.054l.019-13.576c0-.568-.33-.848-.98-.845l-7.442-.013c-2.966-.006-5.189.205-6.665.625l-.013 13.757c.306-.26.532-.385.693-.385l7.961.007.007-.699-7.576-.015c-.574.005-.866-.262-.866-.799 0-.203.081-.377.236-.505.163-.129.303-.191.437-.191l4.596.007.004-.979-3.228-.006c-.278 0-.548-.132-.819-.391-.274-.265-.414-.53-.414-.807l.006-5.428c.689.003 1.501-.181 2.433-.541a.712.712 0 0 1 .4-.142c.188 0 .277.101.277.281v.982l1.357-.405v-1.117l-4.032-.006c-.667.065-1.003-.194-1.003-.778 0-.169.087-.337.277-.495.181-.158.365-.235.56-.231h4.198v-.735c1.563-.189 2.536-.371 2.917-.529.38-.149.617-.233.711-.237.28 0 .417.132.417.395v1.112l4.437.01c.377 0 .567.256.567.764 0 .23-.081.413-.254.545-.163.128-.32.196-.458.192h-4.296l.004.778h2.393c.602 0 1.082.177 1.465.51.38.336.572.732.572 1.212l-.004 3.797c0 .296-.124.585-.384.859-.253.277-.534.422-.82.415l-3.234-.004v.979zm-9.524-13.799v.875c1.59-.455 2.935-.679 4.03-.679l12.105.019c.819.016 1.549.38 2.201 1.086.652.706.975 1.609.972 2.707l-.014 18.682c-.004.413-.181.772-.528 1.077a1.784 1.784 0 0 1-1.22.458l-20.17-.017c-.462-.011-.845-.117-1.162-.344-.313-.22-.465-.507-.465-.861l.029-22.438a8.204 8.204 0 0 0 3.536-.977.763.763 0 0 1 .227-.032c.306 0 .462.143.459.444zM15.075 176.762l-.285-2.206c-.038-.322.142-.491.541-.491.056 0 .149.016.272.062.989.348 2.032.542 3.129.585.237 1.485.53 3.014.884 4.571.936 0 1.406.318 1.406.963 0 .676-.32 1.021-.961 1.017-.144 0-.586-.022-1.339-.076-.749-.054-1.358-.14-1.834-.265-.477-.119-.749-.273-.829-.457-.081-.175-.264-.831-.555-1.957-.285-1.127-.429-1.704-.429-1.746m12.917 6.195l2.024-.032c.699.004 1.048.316 1.048.949-.003.614-.343.926-1.019.926l-4.845-.006c-.791.006-1.534-.52-2.227-1.553-.692-1.042-1.154-1.892-1.396-2.575l-3.302-9.55-1.107-4.142h-.267l-1.325 4.513a91.674 91.674 0 0 1-2.269 6.756 324.621 324.621 0 0 1-1.667 4.289c-.327.799-.792 1.382-1.399 1.751-.616.366-1.066.554-1.354.547h-5.04c-.189 0-.368-.099-.531-.309-.161-.197-.247-.391-.247-.562 0-.247.121-.491.359-.726.241-.233.498-.344.765-.338l1.848.034c1.515-3.365 2.68-6.399 3.502-9.086l2.106-6.849-7.933-.007c-.175 0-.343-.091-.494-.276a1.07 1.07 0 0 1-.222-.683c0-.3.113-.551.328-.741.223-.191.471-.295.737-.295l8.068.012c.12-.208.714-2.55 1.792-7.029 1.823-.071 3.375-.38 4.662-.921a.672.672 0 0 1 .244-.054c.257.007.388.158.386.474.002.297-.598 2.797-1.792 7.506l12.547.012c.571 0 .854.32.854.982 0 .336-.105.598-.319.772-.206.182-.417.268-.623.265h-7.616c1.41 5.035 3.318 10.348 5.724 15.946"/>
        <path d="M37.927 182.688l.01-10.588c0-.557-.457-.834-1.378-.834l-.014 12.84a1.69 1.69 0 0 0 1.002-.577c.251-.314.38-.581.38-.841m-.136-14.585l.013-8.957c0-.311-.095-.462-.287-.462-.191 0-.505.151-.948.462l-.005 10.006c.267 0 .544-.1.819-.291.272-.197.408-.449.408-.758m-1.246 17.72l-.008 2.813c0 .283-.152.423-.458.423l-4.705-.006c-.25 0-.374-.114-.374-.35l.037-32.618c1.114-.051 2.061-.191 2.838-.425l2.096-.66c.402 0 .606.165.606.482l-.004 1.949c1.495-1.285 2.822-1.931 3.96-1.931 1.657.004 2.482.984 2.479 2.934l-.009 9.859c-.003.722-.506 1.356-1.514 1.891 1.008.531 1.511 1.268 1.511 2.211l-.01 5.175.077-.004c.984-3.407 1.553-5.456 1.7-6.139l-.903.034c-.255 0-.52-.12-.782-.376-.262-.255-.398-.551-.398-.901.005-.81.363-1.212 1.075-1.212l18.914.024c.589.137.881.54.881 1.217 0 .31-.104.585-.312.825-.211.246-.436.373-.683.373l-13.561-.017-.684 2.832c2.331-1.152 5.085-1.722 8.265-1.722 2.111.005 3.634.347 4.568 1.033.938.689 1.41 1.799 1.405 3.335l-.012 9.644c0 1.755-1.426 2.631-4.274 2.631l-2.555-.063c-.149 0-.336-.112-.569-.34a1.127 1.127 0 0 1-.347-.838c0-.833.618-1.231 1.856-1.199l.014-10.485h-.036c-.202 1.985-.556 4.275-1.067 6.871-.51 2.597-.896 4.067-1.156 4.416a1.627 1.627 0 0 1-.974.654c-.389.084-1.378.128-2.961.128-.085-.007-.258-.126-.5-.369a1.132 1.132 0 0 1-.367-.849c0-.366.14-.665.417-.865a1.5 1.5 0 0 1 1.332-.254c.396-1.534.815-3.587 1.27-6.17.449-2.578.695-4.2.733-4.873h-.978c-.947 4.364-1.627 7.357-2.03 8.959-.414 1.605-.808 2.62-1.201 3.051-.397.435-1.182.64-2.355.64l-2.047-.036c-.042 0-.193-.094-.44-.29-.247-.204-.365-.482-.365-.829s.096-.633.302-.858c.204-.242.492-.365.864-.37.379-.004.76 0 1.151.013.912-2.668 1.687-5.797 2.314-9.381-.21 0-.484.072-.827.219-.115.24-.259.701-.454 1.401-.196.697-.431 1.274-.713 1.717-.278.45-.789.748-1.535.909a7.586 7.586 0 0 1-2.052.18v1.972c-.005 1.068-.534 1.93-1.592 2.593-1.051.662-2.672.998-4.853 1.022"/>
        <path d="M80.677 177.825h.055l1.232-3.073-.73-4.303-.722-6.072a31.207 31.207 0 0 0-1.102-.036c-1.346 0-2.621.149-3.821.449v2.218c1.061-.489 1.9-.733 2.53-.733.735 0 1.342.244 1.829.725.493.485.734.942.734 1.396l-.005 9.429zm-11.76 1.946l2.147-1.015.009-15.905c.996.003 1.856-.156 2.583-.463.739-.319 1.136-.474 1.221-.474.475 0 .716.122.716.372v.573c1.827-.344 3.406-.504 4.733-.504l-.37-4.709a.581.581 0 0 1 .095-.429c.088-.145.195-.217.313-.217.041 0 .082.008.122.033 1.646.488 2.987.696 4.017.616.071 1.157.202 2.725.402 4.706h1.285c-.098-.633-.282-1.414-.538-2.338l-.387-1.225c0-.252.115-.416.349-.491l2.101-.676c.222 0 .382.132.482.405.111.271.293.877.559 1.814.275.937.408 1.51.4 1.708.008.206-.196.366-.603.486-.4.125-.635.195-.68.217l.077.08a2.69 2.69 0 0 1 .583-.06c.39 0 .663.126.821.36.166.252.244.484.244.7-.004.288-.078.532-.234.715-.155.187-.314.275-.475.275l-3.747-.008c-.004.547.085 1.293.254 2.234.478.008 1.11-.084 1.887-.264l1.137-.285c.336.005.511.191.511.557-.002.389-.153 1.057-.446 1.997l-1.883 6.085a76.69 76.69 0 0 0 1.171 5.314c.438 1.726.688 2.624.748 2.694.063.072.212.117.455.149.536.093.808.411.808.964-.006.64-.387.95-1.154.95h-1.636a3.763 3.763 0 0 1-.481.033c-1.544-.001-2.513-.949-2.926-2.839-.635 1.478-1.4 2.221-2.275 2.22l-4.635-.006c-.128-.005-.291-.086-.494-.252-.198-.165-.3-.422-.3-.783 0-.319.112-.539.343-.667.222-.14.685-.199 1.396-.199.532 0 .885-.104 1.065-.297.181-.204.595-.926 1.252-2.162l-.065-.063c-.108.14-.459.212-1.047.212h-2.235c-.24 0-.421-.114-.547-.327-.119-.216-.187-.414-.187-.596 0-.276.08-.522.243-.744.154-.225.285-.334.376-.334h.48l.004-8.726a.483.483 0 0 0-.201-.374c-.143-.117-.291-.18-.438-.176-.176 0-.416.074-.737.223l-.015 13.776c-.001.534-.274 1.025-.83 1.476-.547.458-1.25.682-2.111.682l-2.92-.008c-.193.011-.353-.1-.482-.332-.132-.242-.193-.443-.193-.618 0-.628.334-.95 1.009-.989.681-.036 1.013-.205 1.021-.512v-1.354l-7.834 3.835c-.096.014-.183.031-.274.031-.636 0-.956-.325-.956-.984 0-.403.155-.684.465-.839l1.935-.953.014-14.861c-.947.087-1.497-.026-1.635-.325-.15-.29-.219-.521-.219-.682 0-.259.079-.487.241-.681.155-.193.66-.287 1.494-.274l.018-7.18c.543-.02 1.08-.081 1.602-.178a6.593 6.593 0 0 0 1.36-.372l1.109-.467c.373 0 .558.11.558.342l-.012 7.741c1.191-.092 1.786.246 1.786 1.018-.004.28-.078.513-.227.699-.149.186-.446.269-.882.256-.444-.019-.665-.019-.677-.013l-.013 12.682zM52.125 153.745a6.369 6.369 0 0 0-6.374 6.365 6.364 6.364 0 0 0 6.361 6.382 6.366 6.366 0 0 0 6.377-6.367c.002-3.521-2.843-6.38-6.364-6.38m10.106 6.38c0 5.593-4.538 10.112-10.125 10.104-5.585 0-10.108-4.538-10.106-10.122.011-5.59 4.549-10.115 10.131-10.107 5.588.005 10.111 4.542 10.1 10.125"/>
        <path d="M52.049 156.71s.067-.54.241-.782c.169-.244.612-1.29-.459-1.924 0 0 1.899-.218 1.649 2.461 0 0 .732.096.904.272 0 0 .074-.319-.105-.608 0 0 .29.044.338.66 0 0 .196.114.308.17 0 0 .589-.246.8-.314.211-.06.957-.597.664-1.442 0 0 .749.493.405 1.544 0 0-.362.68-.858 1.067l.206.298-.601.24s.393.151.716-.044l.16.291s.488-.157.732 0l-.697.208.162.412s.666.386 1.153.27c.484-.109.744-.357.894-.65 0 0 .209 1.703-2.017 1.64 0 0-.099.635-.231.81 0 0 .523-.009.636-.09 0 0-.248.283-.735.338l-.112.21s.197.44.262.633c.061.196.666 1.117 1.578.733 0 0-1.106 1.441-2.736-.362l-.256.182-.343-.357s.086.326.16.433l-.16.132s.378.244.247.702c0 0-.178-.57-.438-.596 0 0-.407.098-.524.122 0 0-.338.665-.34.874.002.215-.111.847.63 1.3 0 0-1.682.244-1.637-2.11l-.418-.1s0-.474-.129-.584l-.117.487-.47-.196-.184.485s-.008-.439.054-.534l-.062-.062s-.474.091-.57.26c-.097.156-.215.144-.44.724-.227.59-1.056.81-1.056.81s.389-.24.357-1.066c-.033-.832.376-1.233.376-1.233s-.427-.069-.458-.165l.619-.096.181-.212s-.553-.075-.6-.194h.438s-.245-.618-.324-.89c0 0-.487-.41-1.025-.26-.536.143-1.687.008-1.817-.267 0 0 .421.13.94-.159.522-.297.733-.765 1.788-.628l.066-.3s-.553-.173-.6-.307c0 0 .547.174.648.094l.049-.16s.486.18.568.308c0 0-.014-.324-.472-.517l.101-.24s.014-.148-.861-.315c0 0 .321-.126.596-.094 0 0-.159-.472-.207-.587-.046-.112-.485-1.07-1.575-.782 0 0 .427-.709 1.384-.498.956.21 1.556 1.118 1.556 1.118l.341-.226.578.453s-.301-.55-.411-.612c0 0-.083-.408-.149-.47l.355.407.194-.472.034.372.126-.016zM87.082 72.87c.666-.474 1.19-1.096 1.706-1.689.424-.489.867-.996 1.381-1.44-.573-.114-1.166-.235-1.755-.337-.428-.074-.849-.176-1.272-.268l.039.423c.056.261.157.933-.19 1.485-.258.4-.684.671-1.3.81-.801.205-2.235.997-2.294 1.03l-.062.03.045.05c.019.017 1.45 1.513 3.702-.095zm21.597 24.954l-.058.024c-.771.29-7.112 2.444-11.128-5.194-.424-.765-.939-3.023-1.85-5.028.255-.43.491-.878.718-1.34 2.779-.567 4.868-1.848 5.265-2.435-1.555.507-3.165.654-4.464.654a24.73 24.73 0 0 0 1.582-5.868c3.618-.05 7.321-.46 9.342-1.838 4.418-3.009 5.432-6.403 5.185-10.089 0 0-2.791 7.004-11.575 4.286-.637-.185-1.899-.923-3.353-1.612a24.838 24.838 0 0 0-.907-2.996c1.636-.634 3.906-1.158 5.005-1.403-1.711-.78-3.888-.406-5.526.1-.051.01-.476-1.008-.517-1.096-.154-.325-.291-.654-.446-.986a.156.156 0 0 1-.035.037c.006.01.006.016.012.028-1.057.641-2.728.91-5.344.164-.051-.008 2.461-.51 4.606-1.603-.301-.432-.645-.842-.935-1.287-.074-.118-.549-.982-.725-.903 2.899-2.727 6.056-6.19 6.573-8.93.918-4.842-.632-7.709-3.203-9.948 0 0 2.749 6.378-4.745 10.318-.865.483-3.812 1.09-5.848 2.35A27.12 27.12 0 0 0 84 52.058c-.034-1.259-.321-4.057-2.326-4.826 0 0 1.058 1.79.795 4.213.019-.223-3.014-.873-3.313-.953-.216-.05-.422-.1-.633-.139.037.12.074.24.11.362.028-.012.04-.013.04-.013s-.006.013-.028.046c.211.665.425 1.31.608 1.922a3.82 3.82 0 0 1-1.315-.72c-.162.251-.326.498-.49.728-2.089 1.948-2.905 4.513-2.385 6.128.52 1.605.183 2.963-.673 4.665.553-3.227-.849-4.365-1.85-6.634-1.007-2.282.566-5.83.566-5.83-.023.65-.118 3.241.335 4.78.026-.86.267-1.43 1.475-2.906.607-.753 1.577-1.303 2.369-1.659a4.166 4.166 0 0 1-.517-1.138c-.297-.035-.596-.058-.903-.085.196-4.486.055-10.107-1.768-12.784-2.05-3.013-4.28-4.44-6.655-4.969l-.225-.039c-.81-.165-1.64-.22-2.489-.206l-.248.01a5.613 5.613 0 0 0-.475.024s.2.075.51.244l.268.155c1.737 1.034 5.657 4.218 3.507 11.173-.357 1.241-2.871 4.907-2.871 7.754-.289.105-.576.207-.853.324l-.105-2.764s-1.012 1.045-.967 3.21c-.16.075-.319.153-.474.232-.685-1.223-1.702-2.712-2.754-3.107.302.993 1.284 2.497 1.17 3.603.084.067.184.124.259.2.502.45.878 1.01 1.269 1.577.59.845 1.137 1.72 1.573 2.66-.116-.189-.383-.316-.551-.448a46.468 46.468 0 0 0-1.439-1.125c-.569-.44-1.196-.808-1.766-1.243-.178-.136-.346-.278-.52-.412-1.046.548-2.596 1.341-2.398 1.562-3.057-3.362-7.27-7.436-10.538-8.053-4.719-.9-7.702.373-10.025 2.651 0 0-.631.608-.783.831 3.116-.957 4.389-.415 4.71-.37.314.055 3.854.451 6.512 5.51.383.74.885 2.798 1.717 4.721-1.441-.037-3.422.04-4.353.69.06-.039.571.131.645.151.542.104 1.079.226 1.621.344 1.562.332 2.747.601 3.945 1.72.021.028-.561 1.29-.744 1.74 1.228.353 2.085 1.114 2.666 1.876-.76-1.275-1.248-2.872-1.111-4.899 2.794 3.72 2.787 6.414 8.636 6.77 5.56.327 6.787-.133 10.218 2.64-1.995-.026-6.452-1.349-9.949 1.5 2.515-.194 8.596-1.415 11.168-.25.323-1.429 1.728-4.355-.093-8.049-.295-.615-.628-1.224-.958-1.83a33.484 33.484 0 0 0-1.617-2.696c-.41-.613-.863-1.189-1.308-1.773.018-.027 1.445.886 2.005 1.342.558.448 1.08.931 1.556 1.461a9.48 9.48 0 0 1 1.259 1.734c.38.688.648 1.43.823 2.191.106.424.183.848.24 1.28.033.222.065.45.091.67.016.112.028.224.035.337.008.052.077.308.048.343 1.212-1.405 3.26-4.165 1.963-8.159 1.331 1.763 1.593 2.24 1.593 2.24.744-1.418.155-4.277-1.5-6.238 1.029-.008 2.512-.04 4.232 2.523 1.833-1.796 3.694-3.068 5.786-3.134-1.768 1.328-5.111 3.81-4.674 6.014-1.741.493-2.445.606-3.696 3.207-1.252 2.611-4.091 6.412-5.728 10.674-.162 3.246.012 7.44-.076 9.945-.09 2.505-1.225 4.274-3.738 4.371-2.505.1-5.155 4.1-5.477 6.457 0-2.65.238-4.127 1.082-5.547-1.198.894-2.91 1.995-3.242 4.771-.125-2.928 1.08-5.583 4.162-7.104 3.071-1.518 4.217-1.105 4.631-4.859.41-3.749.198-5.56.198-5.56s-.899.476-1.723 4.02c-.826 3.555-3 6.12-6.084 5.178-.75-.229-1.504-.46-2.26-.684-.415-.12-.835-.246-1.26-.366-.128-.036-.644-.078-.789-.235l-.023.002s-.008 0-.015-.002a.665.665 0 0 0-.063.04l-.01.037c-1.339.92-3.734 2.762-3.924 4.252.022-.119-.105-.353-.139-.474a9.655 9.655 0 0 1-.263-1.235c-.191-1.156-.232-2.42.094-3.566l-.008.007c-.717-.113-1.382-.182-1.961-.182 0 0 .827-.378 2.26-.6.004-.016.004-.016.007-.016.595-1.229 1.646-2.076 2.936-2.496 2.14-.719 4.557-.433 6.722-.015-.44.833-.67 1.56-1.089 2.101-.019.005-.196.076-.46.183.18-.036.339-.08.47-.127-.01.015-.024.027-.029.037.056-.048.115-.1.184-.137a6.196 6.196 0 0 0 1.025-.788c.668-.643 1.177-1.456 1.39-2.38.657-2.854 4.365-5.137 6.364-5.249-.668-.77-2.359-1.62-4.852.388-2.484 1.998-5.808 4.012-8.155.864-.664-.952-.086-1.585-1.691-2.06-1.616-.473-3.381-.45-4.021-4.603 2.261 1.618 2.758 2.048 5.868 2.35-1.117-.856-3.166-1.985-4.598-3.92.44.757.612 1.375.612 1.375-1.442-1.545-4.243-2.153-4.416-2.188-.03.08-.058.148-.087.242-.02.078-.202.814-.244.814-.807.065-2.241-.035-4.652-.743 0 0 2.203 1.766 4.331 2.044-.157.73-.288 1.471-.389 2.223-4.468-.676-8.129.733-9.305 2.017C34.413 78.94 29 77.86 29 77.86s3.369 1.638 5.132 1.956c1.763.32 5.827.336 9.274-.426 1.494-.336 3.859.74 6.066 2.066.136.534.264 1.082.422 1.608a11.325 11.325 0 0 1 2.08-.71c.589-.129 1.19-.225 1.785-.28.062-.009.686 0 .711-.047-.39.764-1.196 1.284-1.921 1.7-.635.366-1.311.642-1.988.918.157.381.302.764.478 1.137.172.365.353.716.544 1.071.06.11.464 1.001.56 1.001l-3.438.17s2.33 1.242 4.331 1.25c0 .01.005.014.013.02-.401.462-.84 1.006-1.28 1.611-2.138.412-4.515.626-4.515.626.849.596 2.366.888 3.386 1.021-1.364 2.172-2.543 4.81-2.637 7.436-.002 3.548-.552 8.35-2.613 9.29 4.516-2.247 6.852-3.688 7.702-6.196.703-2.069 2.426-5.74 7.137-6.815.169.103.334.207.501.305a15.786 15.786 0 0 0-.283 4.207c.332-.945.791-2.466 1.158-3.694-.024.097 1.729.88 1.893.951.466.21.93.393 1.402.557.185-.42.39-1.1.572-1.762-.629.021-1.364-.013-2.259-.108.773-.008 1.613-.272 2.463-.705.159-.633.261-1.117.261-1.117.128.252.232.527.329.793 3.976-2.333 8.128-7.832 8.128-7.832-.8 5.736-4.228 8.254-5.352 10.851-.235-.08-.672-1.518-.046-3.078-.696.484-1.38.895-2.458 1.088.234 1.145.212 2.162.202 2.43.087.048.178.092.266.121.276.113.554.184.843.251.182.044 2.134.422 2.134.43-.019 3.881.351 8.014 1.835 10.2 3.014 4.412 6.41 5.418 10.09 5.173 0 0-7.002-2.79-4.278-11.574.216-.753 1.21-2.379 1.975-4.173a24.432 24.432 0 0 0 3.652-1.168c2.182 1.005 2.628 2.862 3.187 4.554.87-1.928-.583-3.957-1.749-5.187.471-.216.924-.513 1.402-.717.011-.007.014-.015.029-.02a3.895 3.895 0 0 1-.96-1.479 6.817 6.817 0 0 1-.377-1.966c.068.088.136.177.2.263.68.872 1.377 1.75 2.121 2.57.107-.049.213-.106.314-.169.144-.097 1.682-1.177 1.688-1.177 2.792 2.85 6.112 5.694 8.783 6.2 2.387.453 4.333.347 5.971-.156l.407-.14c1.757-.624 3.156-1.735 4.378-3.12l.028-.045zm-17.66-4.226a25.48 25.48 0 0 0 4.076-4.812c1.196 9.26 8.842 10.048 10.706 10.2-6.669 3.5-12.056-1.75-14.782-5.388zm-3.153-.102a37.262 37.262 0 0 0-2.38-.103c-.504-.01-1.008.005-1.506-.043a4.037 4.037 0 0 1-.587-.079 4.852 4.852 0 0 0-.355-.065c-.011 1.994-.552 3.811-.772 5.023.102-1.866-.361-3.796-1.068-5.61-.354-.173-.667-.417-.965-.667-.88-.73-1.293-1.782-1.423-2.894a8.773 8.773 0 0 1-.064-1.12c-1.379-2.127-2.63-3.535-2.63-3.535.939.371 1.754.775 2.463 1.203-.07-.276-.22-.563-.346-.812-.484-.943-1.286-1.642-2.087-2.322-.9-.77-1.781-1.559-2.446-2.554-1.87-2.81-.065-5.76-.065-5.76 1.115-.102 2.638 1.331 4.195 2.794 1.557 1.461 2.405 1.992 5.759 1.918 3.361-.084 6.024 1.22 6.442 1.77-3.456-.76-6.927-.243-7.51-.003-2.286 1.091-4.563.003-5.879.324 6.43 3.02 8.603 7.048 9.559 9.358-1.591-2.405-3.008-3.12-5.009-4.368.032.02-.031.563-.024.631 0 .243.007.474.037.714.015.177.008.346.008.527a7.675 7.675 0 0 1 1.619 3.33c.437.088.95.088 1.332.131.588.084 1.18.19 1.761.322.808.187 1.618.437 2.358.808.395.205.782.443 1.1.76.06.056.358.522.414.525a28.761 28.761 0 0 0-1.931-.203zm-9.913 20.115c-6.442-2.299-6.01-9.296-5.142-13.345.06.004.124.014.177.014a25.042 25.042 0 0 0 5.194-.354c-4.305 7.008-.49 12.748-.229 13.685zm3.056-42.076c.937-.1 3.001.342 3.903-2.34.061-.188.125-.359.188-.54-.507-.13-1.022-.24-1.525-.393-.272-.083-.539-.156-.802-.265-.077-.04-.285-.092-.309-.184.013.03 1.148 0 1.23 0 .562.004 1.126.03 1.693.03.087-.227.165-.467.265-.678a5.12 5.12 0 0 1 .709-1.2 4.89 4.89 0 0 1 1.1-1.01c.244-.179.517-.34.778-.499.175-.087.79-.283.877-.442-.377.703-.846 1.37-1.209 2.08a7.819 7.819 0 0 0-.547 1.38c-.03.093-.037.175-.03.255.137-.013.273-.029.405-.039.274-.03.528-.01.794-.062.287-.055.588-.07.884-.114.984-.138 1.957-.315 2.909-.607 1.103-.339 2.281-.835 3.023-1.766-.53.835-1.176 1.587-1.879 2.272a17.27 17.27 0 0 1-.973.873c-.161.136-.612.38-.762.6.144-.039.287-.1.442-.147.801-.215 1.625-.272 2.447-.236.868.027 1.399.243 2.022.604-.091-.055-.553.063-.667.073-.374.027-.743.056-1.103.083-.446.04-.893.088-1.334.166-.106.023-.218.06-.332.094.621.151 1.262.251 1.889.394.949.213 1.894.451 2.838.72 1.766.508 3.564 1.084 5.201 1.953.115.058.232.13.351.193 1.725-.12 7.266-.344 8.831-2.47-.471 1.47-1.614 6.175-11.959 5.52-.993-.029-3.432-.39-4.66-.895-.155-.063 3.684-1.207 5.799-.967-.504-.063-1.018-.247-1.507-.362-1.785-.394-3.568-.758-5.327-1.246-.82-.23-1.633-.479-2.412-.806-.369-.152-.937-.344-1.3-.652a1.307 1.307 0 0 1-.19-.213c-.14.1-.277.23-.389.436-1.112 2.075-3.004 2.546-1.045 3.953 1.956 1.41 1.912 2.711 7.333 2.917-1.718.37-6.484 1.473-9.581-1.955-2.237-.248-2.814-.1-5.141-1.457-.991-.404-4.116-.349-4.937-.855-.095-.054.305-1.789 4.009-2.196zM98.145 44.12c.885 2.45 3.916 8.977-6.46 12.98a24.895 24.895 0 0 0-3.535-2.926c3.817-1.162 10.356-4.07 9.995-10.054zm-29.566 6.204c6.014-5.87 1.684-13.074 1.684-13.074 5.861 1.833 5.298 9.172 4.701 12.537a25.167 25.167 0 0 0-6.385.537zm.038 10.99c.247 1.125.535 2.227.854 3.338.307 1.067.636 2.124.976 3.187.274.871.562 1.742.851 2.61.018.076.047.156.075.238.011.047.031.184.067.211-3.468-3.007-8.506-2.63-10.323-2.55-5.592.45-7.31-4.51-7.141-4.35 3.149 2.995 5.624 2.571 8.462 2.533-1.973-.669-2.845-2.377-3.946-4.183 3.243 3.184 4.423 2.622 5.853 2.903-3.483-5.28-5.799-4.337-7.325-4.442-1.53-.106-2.196-1.005-2.196-1.005s.488-.637 2.926-1.197c2.436-.57 4.187-1.339 5.842 1.737 1.653 3.083 3.057 5.315 5.108 6.55-1.558-1.916-2.735-6.74-2.642-9.336.095-2.607-.322-3.963-1.112-5.247 1.105.361 3.134 1.92 3.122 4.943 0 .293.012.59.043.878.088 1.068.277 2.135.506 3.182zm-24.813-10.98s7.51-2.992 12.987 6.098a25.249 25.249 0 0 0-3.74 4.318c-.588-3.557-2.577-9.18-9.247-10.417zm10.69 39.526s2.819-4.826 7.726-1.674c-2.079 1.038-5.242 2.413-7.726 1.674zm-4.882 15.722s-2.946-9.107 5.751-13.37a26.03 26.03 0 0 0 3.365 3.022c-2.703 1.085-7.085 3.797-9.116 10.348zm.034-27.003s3.82 2.315 10.604 1.025c-3.403 1.6-8.093 2.781-10.604-1.025zm-6.188-1.803c-1.726-.37-3.439-.239-5.192.938-1.537 1.02-3.202.801-3.584.733-.029.031-.054.044-.054.044l-.029-.068s.029.014.083.024c.375-.34 2.916-2.634 5.162-4.098 1.677-1.104 5.554-1.973 8.861-1.224-.025.328-.05.666-.063.992-.059 1.622.04 3.196.273 4.734-1.533-.852-3.497-1.743-5.457-2.075z"/>
        <path d="M134.102 82.29c-1.328.47-2.143.713-2.962.271.179-1.245.302-2.499.399-3.76.962.196 1.92.39 2.876.576a60.271 60.271 0 0 1-.313 2.913zm-.532 3.36c-.921-.294-1.856-.593-2.806-.887.034-.168.054-.326.086-.479.83.231 1.635-.225 2.12-.48.226-.12.589-.355 1.003-.57a55.299 55.299 0 0 1-.403 2.416zm-.283 1.44l-2.773-.975c.065-.348.132-.688.2-1.036.946.304 1.886.592 2.804.881-.08.378-.157.761-.231 1.13zm-.96 3.866c-.88-.365-1.785-.736-2.706-1.106.117-.41.233-.82.334-1.232.179-.732.336-1.464.497-2.2l2.766.97a58.274 58.274 0 0 1-.89 3.568zm-1.518 4.702c-.847-.388-1.727-.803-2.646-1.222.52-1.408.969-2.836 1.375-4.274.92.373 1.828.742 2.713 1.105a62.55 62.55 0 0 1-1.442 4.391zm-2.896-1.336c-1.8-.839-3.673-1.71-5.471-2.536.012-.019.014-.039.027-.06a50.715 50.715 0 0 0 1.213-3.95c.826.331 1.677.681 2.54 1.037-.026.088-.04.184-.073.278l.539.151c.022-.07.033-.15.054-.222.838.341 1.695.69 2.536 1.034a61.512 61.512 0 0 1-1.365 4.268zm-.241.613l-2.284-1.097.15-.319s.946.434 2.274 1.05c-.043.124-.092.241-.14.366zm-3.22 7.075c-1.65-1.098-3.377-2.253-5.03-3.36a51.432 51.432 0 0 0 2.71-6.063c1.796.848 3.657 1.743 5.448 2.6a58.388 58.388 0 0 1-3.127 6.823zm-5.257-3.512c-.815-.543-1.6-1.072-2.344-1.567a48.937 48.937 0 0 0 2.49-5.672c.81.387 1.663.793 2.545 1.205a53.008 53.008 0 0 1-2.691 6.034zm-2.806 4.731c-.492-.413-1.29-1.053-2.185-1.782a48.64 48.64 0 0 0 2.515-4.273c.748.496 1.535 1.016 2.344 1.56a52.737 52.737 0 0 1-2.674 4.495zm-4.01 5.262a3161.603 3161.603 0 0 0-4.063-4.077 47.322 47.322 0 0 0 3.426-4.57c.659.544 1.344 1.1 1.996 1.633a48.448 48.448 0 0 1-2.488 3.411l.286.231a49.15 49.15 0 0 0 2.5-3.403c.899.737 1.69 1.377 2.188 1.781a51.257 51.257 0 0 1-3.845 4.994zm-4.861 4.918c-1.317-1.688-2.538-3.247-3.538-4.534a45.836 45.836 0 0 0 3.74-3.78c1.202 1.244 2.657 2.763 3.987 4.152a52.228 52.228 0 0 1-4.19 4.162zM36.824 49.647c-.663-.32-2.573-1.24-5.063-2.458l.719-1.063c.783.608 1.823 1.016 2.768 1.374 1.715.645 2.258.81 2.258.81s.588-.408.098-.726c-.496-.313-2.491-1.007-3.165-1.4-.366-.206-.891-.493-1.341-.912a46.955 46.955 0 0 1 2.162-2.747c2.884 1.935 4.913 3.305 5 3.357.095-.103.155-.17.264-.3-.223-.15-2.887-1.944-4.993-3.365a46.892 46.892 0 0 1 2.343-2.538c.733.588 1.406 1.134 1.999 1.615-.097.1-.198.191-.295.288l.522.523c.12-.115.237-.224.35-.337 1.21.99 2.004 1.63 2.055 1.673.09-.082.137-.124.234-.222-.076-.056-.858-.699-2.06-1.675a46.463 46.463 0 0 1 3.802-3.356c1.028 1.066 1.718 1.778 1.749 1.82.054-.042.173-.138.246-.185-.04-.047-.714-.779-1.714-1.859.254-.196.516-.383.77-.575.916 1.062 1.608 1.874 1.687 1.966.089-.078.143-.119.256-.202-.092-.103-.78-.897-1.68-1.949.404-.292.806-.584 1.223-.863a963.154 963.154 0 0 0 1.609 2.006c.094-.06.145-.09.246-.159-.048-.055-.657-.816-1.617-2.009.177-.127.367-.247.547-.369.869 1.165 1.459 1.978 1.522 2.057.104-.067.155-.107.263-.177-.061-.086-.66-.894-1.52-2.059a41.302 41.302 0 0 1 2.064-1.24c.805 1.272 1.303 2.068 1.346 2.124.114-.065.172-.1.297-.169-.041-.062-.54-.856-1.342-2.12.498-.278.99-.557 1.5-.81a209.839 209.839 0 0 1 1.222 2.188c.114-.057.17-.083.289-.146-.04-.058-.498-.887-1.223-2.18.43-.222.858-.437 1.295-.64.322-.148.649-.278.978-.424.264.56 1.01 2.078 1.113 2.293.197-.078.6-.239.799-.327-.024-.06-.432-.954-1.066-2.33.416-.169.839-.338 1.26-.506.538 1.374.875 2.24.898 2.31.119-.05.178-.07.295-.123-.025-.06-.357-.92-.896-2.29a54.308 54.308 0 0 1 2.352-.806c.09.8.172 1.684.274 2.006.177.524.746.065.746.065s-.003-.54-.146-2.275v-.052c.159-.039.319-.096.479-.138l.62 2.368c.17-.049.303-.083.463-.133-.022-.087-.261-1.012-.617-2.382a48.897 48.897 0 0 1 2.415-.56c.259 1.422.419 2.328.432 2.408.127-.03.188-.049.309-.07-.01-.076-.174-.976-.43-2.397.289-.057.577-.105.86-.15l.228 1.715.037.277c.034.248.05.395.056.424.11-.025.173-.035.247-.05 0-.016-.015-.097-.025-.21l-.062-.449-.236-1.756a69.553 69.553 0 0 1 2.623-.378c.104 1.26.172 2.178.19 2.41l.71-.067c-.007-.077-.07-1.007-.166-2.417a44.672 44.672 0 0 1 3.802-.223c-.073 1.305-.123 2.277-.132 2.41.135-.006.195-.006.322-.008 0-.107.059-1.093.129-2.39a43.278 43.278 0 0 1 2.069.005l.024-.737c-.684-.026-1.37-.018-2.056-.015.045-.818.094-1.712.135-2.594.677 0 1.342 0 2.018.024.132.01.259.022.389.03-.39 3.271-.673 5.57-.69 5.693h.149l.178.013c.007-.107.286-2.414.683-5.69.55.028 1.1.062 1.65.105-.585 3.217-1.01 5.54-1.03 5.656.136.01.194.016.312.021.015-.092.438-2.43 1.027-5.655.473.045.95.1 1.423.158-.687 3.211-1.184 5.497-1.205 5.616.125.02.18.02.296.035l1.212-5.616c1.203.147 2.389.34 3.568.58-.9 2.992-1.643 5.474-1.673 5.571.145.03.388.076.503.107a2.83 2.83 0 0 0 .087-.27c.074.011.164.031.238.04.018-.086.873-2.6 1.423-4.226-.033-.01-.17-.05-.297-.096.104-.325.206-.657.315-.995.91.195 1.813.41 2.704.658l-2.09 5.366c.11.024.166.045.259.073.035-.093.896-2.309 2.085-5.37.248.07.494.132.739.196a1017.954 1017.954 0 0 1-2.301 5.306c.143.04.195.046.315.088.073-.172 1.215-2.81 2.289-5.294 1.13.344 2.24.743 3.347 1.165a2421.54 2421.54 0 0 0-2.476 5.25c.23.081.523.173.713.232.042-.09 1.057-2.192 2.515-5.19a42.19 42.19 0 0 1 2.766 1.215l.162-.339a56.793 56.793 0 0 0-2.764-1.212c.382-.789.794-1.635 1.232-2.528 1.042.43 2.079.893 3.102 1.394-1.15 1.815-2.248 3.532-3.102 4.88-.052-.025-.097-.05-.153-.074l-.308.67c.019.011.034.02.058.037-.79 1.232-1.303 2.044-1.343 2.101.104.051.164.084.253.121.058-.092.684-1.075 1.34-2.1a51.243 51.243 0 0 1 3.095 1.623c-.906 1.108-1.502 1.843-1.565 1.918l.286.156 1.556-1.914c.34.2.673.397.999.604-.051.117-.11.23-.166.342-.828 1.687-1.053 2.23-1.053 2.23s.357.641.73.171c.263-.33.799-1.416 1.252-2.26a49.885 49.885 0 0 1 2.688 1.861c-.847.932-1.587 1.728-1.642 1.796.033.032.164.137.213.192.033-.029.72-.757 1.702-1.786.35.266.687.546 1.034.828-.938.8-1.771 1.515-1.916 1.64.117.087.166.133.255.208.104-.092.952-.82 1.91-1.647.427.35.848.711 1.268 1.076-1.151.957-1.874 1.567-1.944 1.621.106.097.153.136.229.212.047-.039.777-.653 1.943-1.627.21.181.422.365.633.558a157.22 157.22 0 0 0-2.061 1.52c.105.098.155.148.238.22.08-.058.926-.683 2.06-1.525a48.7 48.7 0 0 1 2.05 2.065 202.89 202.89 0 0 1-2.242 1.412c.063.068.096.1.146.157.042-.03.918-.582 2.235-1.415.397.424.789.848 1.173 1.29l.556-.476c-.347-.42-.725-.814-1.094-1.218.66-.412 1.403-.882 2.197-1.377.542.597 1.087 1.195 1.599 1.825-2.995 1.602-5.198 2.784-5.315 2.843.09.094.123.138.18.205.085-.039 2.29-1.218 5.308-2.829a51.06 51.06 0 0 1 1.8 2.345c-3.081 1.513-5.231 2.584-5.365 2.647.093.127.134.185.202.287.083-.043 2.254-1.114 5.362-2.642.228.333.452.68.668 1.014a1389.227 1389.227 0 0 1-5.75 2.168c.053.064.082.097.12.145.07-.026 2.619-.989 5.734-2.16.304.454.628.903.915 1.373l.088.155a1338.407 1338.407 0 0 1-5.836 1.946c.072.092.096.135.154.206.082-.03 2.516-.844 5.812-1.949.499.841.979 1.691 1.438 2.552-.712.537-1.596.661-2.157.774-.764.148-2.871.156-3.445.29-.56.136-.136.715-.136.715s.56.017 2.386-.033c1.326-.032 2.805-.1 3.857-.756.133.274.269.548.405.824-.961.252-5.503 1.451-5.92 1.558.097.192.169.332.237.476.186-.05 3.318-.868 5.913-1.534a52.42 52.42 0 0 1 1.34 3.172c-3.163.572-5.871 1.067-6.073 1.097.054.137.08.195.125.305.129-.033 2.865-.522 6.058-1.092.127.356.259.718.383 1.081-3.387.508-5.954.89-6.106.911.045.145.068.202.104.31.108-.02 2.69-.405 6.11-.92a50.808 50.808 0 0 1 1.073 3.637l.354-.089a45.7 45.7 0 0 0-1.058-3.593c.896-.138 1.848-.287 2.818-.429.51 1.564.939 3.148 1.296 4.747-1.951.131-4.073.274-5.816.387a43.297 43.297 0 0 0-1.162-4.008l-.701.236a45.3 45.3 0 0 1 1.114 3.825l-2.888.196c.068.252.16.608.208.801.1-.002 1.302-.072 2.87-.16.26 1.13.477 2.254.645 3.406a327.038 327.038 0 0 0-2.432-.068c.024.125.03.184.048.285.05 0 .972.026 2.416.067.172 1.22.299 2.43.369 3.657a253.833 253.833 0 0 0-2.958-.35c.01.136.015.202.02.32.078.007 1.229.147 2.954.358.074 1.351.087 2.712.039 4.078 0 .016 0 .02-.006.027-1.751-.35-2.868-.573-2.964-.595-.013.147-.013.295-.022.33.073.014 1.19.231 2.963.588a44.024 44.024 0 0 1-.21 2.894c-.296 0-.596.008-.88.015-1.971.057-2.582.106-2.582.106s-.417.656.198.77c.026 0 .058 0 .08.007-.003.05-.012.09-.022.156.066.014 1.186.371 2.946.928-.031.211-.053.427-.085.636-1.738-.61-2.865-1.003-2.948-1.034-.026.134-.026.198-.053.304.063.017 1.195.415 2.942 1.027-.166.96-.355 1.9-.581 2.827-1.718-.697-2.828-1.14-2.91-1.18-.036.131-.045.195-.078.31.062.031 1.176.48 2.907 1.187a49.87 49.87 0 0 1-.551 2.11l.71.202c.198-.674.365-1.353.53-2.034.73.298 1.549.634 2.425.986a46.539 46.539 0 0 1-1.163 3.874c-3.326-1.548-5.827-2.699-5.946-2.757-.071.215-.178.534-.227.71l5.9 2.82a49.91 49.91 0 0 1-2.472 5.628c-3.08-2.058-5.404-3.615-5.518-3.686a5.64 5.64 0 0 1-.125.247c.09.052 2.419 1.614 5.516 3.677a45.776 45.776 0 0 1-2.494 4.246c-.658-.535-1.344-1.099-2.002-1.634.5-.768.988-1.552 1.448-2.365l-.652-.356a46.855 46.855 0 0 1-1.373 2.252 443.998 443.998 0 0 1-2.594-2.114c-.076.12-.11.168-.177.27.087.074.857.704 1.888 1.545l.032.022c.22.176.44.357.677.548a46.638 46.638 0 0 1-3.368 4.506c-.89-.89-1.682-1.685-1.961-1.962 0 0-.53.517-.593.584.048.045.853.882 1.965 2.051a43.7 43.7 0 0 1-3.683 3.736c-1.257-1.612-2.078-2.678-2.135-2.738-.104.085-.14.12-.242.203.056.066.876 1.111 2.138 2.74-.432.38-.858.764-1.3 1.13l.47.567c.433-.358.86-.739 1.286-1.117 5.052 6.485 15.748 20.205 15.944 20.461.017-.016.128-.114.24-.206-.143-.188-6.917-8.877-12.234-15.7a54.19 54.19 0 0 0 4.209-4.19c.684.718 1.332 1.394 1.888 1.967a54.434 54.434 0 0 1-4.262 4.237l.37.412c1.512-1.332 2.92-2.763 4.272-4.252.764.795 1.288 1.336 1.323 1.376.1-.078.325-.279.325-.279s.21.223.53.552a58.233 58.233 0 0 1-3.926 3.992l.189.205a60.213 60.213 0 0 0 3.934-4.005l2.039 2.101a64.353 64.353 0 0 1-3.926 3.978l.12.141a64.552 64.552 0 0 0 3.937-3.98c.355.362.625.625.666.675.02-.015.09-.07.158-.139-.048-.057-.33-.334-.682-.698a7.56 7.56 0 0 1 .209-.229c.36.365.643.646.699.706.078-.076.153-.144.153-.144-.023-.028-.283-.289-.71-.719a75.92 75.92 0 0 0 1.866-2.178 64.537 64.537 0 0 0 5.28-7.646l-.155-.09a64.743 64.743 0 0 1-5.273 7.611 69.35 69.35 0 0 1-1.854 2.17c-.51-.508-1.22-1.226-2.058-2.068.173-.209.375-.395.549-.597l-.215-.187c-.17.2-.352.392-.531.588-.59-.592-1.233-1.245-1.91-1.92a57.222 57.222 0 0 0 4.378-5.706l-.464-.307a54.426 54.426 0 0 1-4.311 5.613c-.633-.626-1.282-1.285-1.928-1.937a51.635 51.635 0 0 0 3.856-5.013c.165.132.284.236.317.257l.202-.248a15.946 15.946 0 0 1-.338-.278 57.323 57.323 0 0 0 2.674-4.512c1.658 1.1 3.38 2.252 5.028 3.358-.225.408-.447.822-.685 1.23l.238.136c.236-.397.457-.805.676-1.214 4.212 2.804 7.792 5.204 7.919 5.288.063-.1.138-.23.138-.239-.103-.073-3.7-2.478-7.92-5.293a58.855 58.855 0 0 0 3.147-6.857c4.61 2.202 8.556 4.087 8.704 4.148l.093-.249c-.186-.093-5.443-2.6-8.697-4.15.043-.12.088-.24.136-.363.795.372 1.716.792 2.648 1.227-.033.072-.06.162-.091.243l.185.055c.02-.068.05-.148.07-.226 2.832 1.314 5.764 2.672 5.94 2.753.037-.109.058-.159.093-.258-.096-.039-2.6-1.195-5.937-2.745a62.45 62.45 0 0 0 1.454-4.403c5.376 2.195 9.914 4.044 10.076 4.115l.098-.306c-.143-.058-4.692-1.914-10.096-4.112a70.19 70.19 0 0 0 .883-3.579c4.192 1.463 7.476 2.621 7.61 2.662l.068-.29c-.112-.044-3.405-1.196-7.608-2.67.08-.379.16-.76.227-1.138 5.57 1.763 10.286 3.244 10.457 3.3.007-.027.028-.163.069-.313-.146-.039-4.874-1.529-10.467-3.298.16-.857.299-1.717.42-2.576.834-.393 1.81-.652 2.354.144.87 1.277 2.922 2.6 3.987 2.626.663.02 1.323-.243 1.887-.595.988-.617 1.544-1.172 2.776-.94 1.379.268 2.54 1 3.573 1.932 0 0-1.425-4.18-4.365-2.902-2.921 1.281-4.096 2.55-5.198.937-1.104-1.618-1.75-3.185-4.161-2.363-.261.093-.498.18-.721.257.123-.933.223-1.87.296-2.81 6.903 1.377 13.093 2.605 13.303 2.646.02-.133.023-.199.04-.314-.172-.043-6.377-1.278-13.308-2.655.072-.869.115-1.75.148-2.635l-.178-.006a59.542 59.542 0 0 1-.15 2.602c-.957-.182-1.921-.377-2.891-.573.05-.705.102-1.412.13-2.129.038-.987.039-1.979.029-2.97 3.293.405 5.823.705 5.959.722.015-.134.026-.193.043-.314-.137-.014-2.683-.324-6.002-.727a60.649 60.649 0 0 0-.317-4.89c5.053.135 9.42.245 9.575.255 0-.014-.01-.167-.022-.282-.13-.004-4.506-.124-9.578-.26a57.69 57.69 0 0 0-2.196-10.763c1.022-.156 2.006-.299 2.905-.432.107.37.234.75.333 1.132l.183-.052c-.103-.368-.226-.74-.335-1.107 2.802-.425 4.807-.722 4.93-.745a3.573 3.573 0 0 1-.056-.318c-.113.023-2.14.326-4.964.747a62.614 62.614 0 0 0-2.4-6.558c1.619.11 2.117-1.183 2.934-2.528.932-1.539 2.086-.434 4.85.6 2.762 1.02 3.872-2.912 3.872-2.912-.907.92-1.942 1.658-3.197 1.968-1.126.288-1.664-.207-2.611-.72-.532-.29-1.161-.5-1.771-.45-.977.083-2.807 1.407-3.547 2.622-.211.373-.555.5-.923.512a61.357 61.357 0 0 0-2.077-4.173c3.237-1.084 5.63-1.88 5.743-1.923a2.52 2.52 0 0 1-.122-.209c-.095.031-2.49.835-5.736 1.915a61.412 61.412 0 0 0-1.965-3.34l-.154.097a63.51 63.51 0 0 1 1.936 3.305c-1.738.582-3.708 1.241-5.693 1.908a54.72 54.72 0 0 0-1.07-1.786c2.763-1.042 4.937-1.86 5.025-1.898a2.226 2.226 0 0 1-.094-.143c-.076.032-2.25.844-5.032 1.894-.331-.538-.685-1.058-1.042-1.589 7.952-3.916 17.154-8.458 17.4-8.579-.073-.13-.105-.184-.171-.299-.203.092-9.447 4.652-17.425 8.59a63.553 63.553 0 0 0-1.87-2.566c5.776-3.089 11.63-6.219 11.806-6.318-.07-.098-.101-.135-.162-.217-.14.082-6.011 3.217-11.807 6.32a52.467 52.467 0 0 0-1.855-2.25c3.05-1.927 5.573-3.52 5.67-3.58a2.46 2.46 0 0 0-.132-.16c-.08.046-2.614 1.641-5.673 3.574-.022-.014-.037-.044-.054-.065l-.417.366c-.766.491-1.554.982-2.342 1.481a56.222 56.222 0 0 0-2.355-2.477 60.542 60.542 0 0 1 1.073-.788c-.081-.109-.12-.159-.188-.26-.072.05-.497.364-1.111.821a32.627 32.627 0 0 0-.902-.849c1.484-1.235 3.066-2.563 4.639-3.874a63.56 63.56 0 0 1 2.1 2.086l.199-.188a64.654 64.654 0 0 0-2.08-2.077c5.21-4.346 10.177-8.5 10.326-8.635 0 0-.118-.127-.203-.225l-10.354 8.65a57.483 57.483 0 0 0-6.11-5.046c.389-.585.364-1.328.36-1.794 0-.325-.054-.914-.007-1.509a72.467 72.467 0 0 1 3.139 2.268l.11-.146a67.453 67.453 0 0 0-3.233-2.33c.088-.737.356-1.425 1.128-1.519 1.457-.159 3.49-1.308 3.983-2.19.31-.553.38-1.23.338-1.848-.078-1.119-.305-1.832.44-2.768.836-1.042 1.969-1.7 3.22-2.157 0 0-4.17-.655-4.39 2.38-.218 3.044.339 4.601-1.523 4.82-1.847.213-3.465.053-3.84 2.456-.02.13-.035.236-.048.352-.221-.14-.43-.28-.652-.41 1.276-1.57 2.14-2.63 2.203-2.71-.097-.085-.144-.115-.246-.203-.063.08-.937 1.157-2.226 2.74a61.066 61.066 0 0 0-4.736-2.706c.91-1.434 1.542-2.436 1.59-2.504-.067-.042-.17-.096-.192-.113A275.03 275.03 0 0 1 100.918 19a57.343 57.343 0 0 0-4.08-1.903c2.726-5.622 5.102-10.525 5.188-10.688-.121-.053-.181-.073-.295-.119l-1.372 2.827-.384-.177s1.16-2.465 1.332-2.813c-.09-.03-.171-.067-.302-.113-.067.142-2.39 5.062-5.05 10.708a70.181 70.181 0 0 0-3.058-1.145 46.887 46.887 0 0 0-2.141-.694c1.528-3.929 2.72-7.005 2.767-7.128a4.663 4.663 0 0 0-.25-.082c-.043.101-1.243 3.19-2.775 7.145a60.387 60.387 0 0 0-8.814-1.945c1.092-5.05 1.993-9.223 2.029-9.377-.138-.022-.245-.03-.305-.04-.02.133-.93 4.318-2.025 9.382a42.263 42.263 0 0 0-1.858-.234c.788-4.338 1.407-7.772 1.433-7.912-.127-.014-.185-.016-.305-.028-.023.121-.646 3.56-1.442 7.912-.79-.084-1.59-.149-2.397-.205C77.563 6.196 78.208.803 78.233.623 78.1.62 78.04.613 77.91.603c-.02.166-.663 5.561-1.418 11.757-.49-.029-.982-.07-1.47-.085l-.008.183c.487.02.975.05 1.454.084-.227 1.931-.466 3.933-.706 5.881-.32-.022-.64-.05-.96-.062l-.017.557c.309.01.606.04.917.056-.118.924-.225 1.83-.331 2.707l-.683-.04a66.738 66.738 0 0 0-1.947-.036c.03-.604.05-1.009.056-1.085-.13-.002-.188-.008-.324-.016 0 .071-.022.485-.06 1.104a53.794 53.794 0 0 0-4.624.243c-.146-2.16-.295-4.307-.41-5.99a57.632 57.632 0 0 1 7.524-.215l.009-.285a59.799 59.799 0 0 0-7.548.226c-.115-1.675-.198-2.807-.202-2.89-.187.002-.621.021-.621.021s-.237-2.908-.258-3.23c-.135.001-.196.007-.321.007.007.133.227 2.78.502 6.18a57.539 57.539 0 0 0-3.28.447c-.732-5.569-1.395-10.56-1.413-10.716-.108.016-.152.033-.255.047.02.156.688 5.14 1.425 10.718-.49.084-.977.157-1.464.252-.896-5.022-1.69-9.383-1.71-9.555-.134.027-.195.035-.318.06.026.165.817 4.543 1.72 9.566a49.318 49.318 0 0 0-3.37.793c-.324-1.25-.54-2.07-.557-2.157-.127.032-.184.05-.316.08.057.208.334 1.277.566 2.158-.761.202-1.524.424-2.277.663-.08-.659.177-1.482.49-2.729.552-2.232-1.015-2.569-2.667-3.304-1.651-.738-.55-1.945.385-4.692.937-2.748-3.21-3.402-3.21-3.402 1 .771 1.818 1.687 2.205 2.858.349 1.047-.136 1.608-.632 2.57-.276.532-.465 1.148-.384 1.73.135.924 1.603 2.536 2.91 3.111 1.299.583.128 2.514-.157 3.187-.292.677-.963 2.022.71 2.834 1.674.795 1.215 1.22.799 2.556-.417 1.338.375 3.366 1.666 3.91.218.09.406.208.565.34a45.32 45.32 0 0 0-2.334.805c-.636-1.622-1.356-3.48-2.117-5.418.093-.034.182-.08.272-.107l-.185-.52a5.245 5.245 0 0 0-.284.11c-.71-1.817-1.442-3.695-2.14-5.499.377-.146.752-.292 1.136-.427l-.066-.18c-.388.14-.758.295-1.142.436-2.26-5.789-4.226-10.843-4.29-11-.144.05-.27.106-.301.11.063.165 2.036 5.21 4.29 11.002-.72.28-1.434.566-2.142.868-1.336-2.929-2.33-5.07-2.364-5.158a.38.38 0 0 0-.03.003s-.11.05-.224.094c.045.103 1.052 2.272 2.382 5.168-.213.085-.426.18-.636.273-1.397-2.87-2.434-5.032-2.486-5.124-.1.041-.136.055-.241.106.048.101 1.1 2.275 2.486 5.124a61.173 61.173 0 0 0-3.133 1.501c-3.028-5.415-5.66-10.12-5.741-10.277-.122.072-.253.141-.253.141s-.018.015-.025.015c.077.157 2.71 4.857 5.732 10.268a66.55 66.55 0 0 0-2.251 1.243c-3.851-6.112-7.38-11.698-7.484-11.862-.117.074-.242.15-.242.15s-.033.025-.051.025c.106.176 3.634 5.76 7.488 11.865a59.07 59.07 0 0 0-4.396 2.831 7654.132 7654.132 0 0 1-5.355-6.675c-.018.016-.05.038-.05.038s-.093.062-.185.13c.092.108 2.43 3.03 5.354 6.666a60.734 60.734 0 0 0-4.557 3.586l.118.133a64.874 64.874 0 0 1 4.557-3.572c1.178 1.473 2.449 3.052 3.7 4.617a56.523 56.523 0 0 0-2.767 2.09 595.556 595.556 0 0 0-2.553-2.753l-.272.218-.2.174c.046.044 1.128 1.176 2.603 2.71-1.077.881-2.148 1.79-3.17 2.772l.384.4a54.196 54.196 0 0 1 3.168-2.772c.588.614 1.232 1.283 1.888 1.96a54.347 54.347 0 0 0-4.377 3.96 1799.672 1799.672 0 0 0-4.662-3.794 59.448 59.448 0 0 1 3.115-3.014l-.187-.209a63.183 63.183 0 0 0-3.142 3.05c-3.648-2.98-6.734-5.492-6.857-5.6l-.207.251c.127.105 3.2 2.613 6.844 5.575a63.921 63.921 0 0 0-2.961 3.32 4970.811 4970.811 0 0 1-12.232-8.222.803.803 0 0 0-.05.061s-.076.101-.153.194c.18.118 6.139 4.123 12.228 8.206-.432.538-.845 1.084-1.255 1.622-.641-.808-1.684-.659-2.271-.604-.737.078-2.928.601-3.226-.796-.305-1.396-1.597-3.254-2.497-3.65-.568-.248-1.23-.25-1.826-.15-1.07.18-1.748.468-2.728-.169-1.085-.708-1.826-1.745-2.381-2.913 0 0-.245 4.101 2.715 4.026 2.963-.074 4.422-.757 4.8 1.022.384 1.773.384 3.343 2.746 3.48 2.02.116 3.025.036 3.69 1.053a56.308 56.308 0 0 0-1.962 2.926l-10.123-4.919-.046.098s-.205.427-.224.48c1.19.56 5.478 2.584 10.129 4.775a58.885 58.885 0 0 0-1.67 2.868c-5.48-2.027-10.39-3.834-10.525-3.889l-.128.228c.164.06 5.062 1.87 10.527 3.898-.398.737-.79 1.488-1.146 2.24C12.798 46.355 6.06 44.096 5.89 44.04c-.057.112-.07.17-.133.295.222.078 7.21 2.423 13.84 4.653-.09.192-.175.385-.266.587-6.692-2.118-13.743-4.334-13.935-4.398 0 0-.06.152-.124.298.21.063 6.965 2.192 13.924 4.394-.188.407-.387.808-.564 1.213l.256.11c.178-.42.385-.827.573-1.239 1.953.618 3.917 1.236 5.749 1.81a55.08 55.08 0 0 0-1.571 3.713c-.891-.219-1.79-.433-2.67-.644.374-1 .762-1.986 1.199-2.96l-.506-.222c-.452 1-.851 2.018-1.235 3.047l-5.777-1.39a64.308 64.308 0 0 1 1.678-4.212l-.168-.073a61.494 61.494 0 0 0-1.694 4.237c-1.881-.46-3.142-.758-3.21-.77l-.057.298s.004.01 0 .012c.076.02 1.31.315 3.16.754a58.635 58.635 0 0 0-.851 2.594c-5.976-1-11.086-1.86-11.24-1.887-.032.112-.05.173-.081.312.179.023 5.275.882 11.224 1.876-.227.753-.43 1.513-.631 2.276-5.402-.654-9.873-1.193-10.034-1.216-.02.132-.022.193-.037.324.157.017 4.612.558 9.989 1.197a62.625 62.625 0 0 0-1.701 10.318c-1.068-.745-2.495-1.29-3.266-1.195-.626.074-1.208.412-1.677.814-.835.724-1.275 1.322-2.458 1.277-1.318-.055-2.508-.576-3.597-1.297 0 0 1.917 3.7 4.467 2.09 2.548-1.605 3.46-2.96 4.725-1.61.599.653 1.103 1.3 1.7 1.686-.013.295-.043.61-.05.913-.032.85-.045 1.698-.04 2.535L3.23 75.695c.02.131.03.183.05.317.139-.023 3.362-.509 7.529-1.129a61.287 61.287 0 0 0 1.577 13.303c-2.584 1.005-4.414 1.715-4.486 1.747a3.2 3.2 0 0 1 .062.25c.096-.04 1.916-.747 4.486-1.747.159.682.332 1.365.517 2.05-6.236 2.622-11.718 4.93-11.877 4.994.036.107.058.178.105.316.194-.084 5.657-2.383 11.86-4.99.14.49.27.99.419 1.472a64.52 64.52 0 0 0 1.509 4.361l.17-.062a62.013 62.013 0 0 1-1.505-4.355c-.15-.492-.282-.988-.42-1.488.89-.37 1.789-.75 2.7-1.133.205.758.423 1.514.657 2.27l-2.08 1.148c.034.09.04.151.06.22.059-.033.86-.485 2.087-1.156a64.812 64.812 0 0 0 1.173 3.322 3460.744 3460.744 0 0 0-6.954 4.123c.032.1.054.146.094.252.12-.067 3.185-1.894 6.952-4.122v.007l.265-.1a.215.215 0 0 0-.024-.049c.78-.466 1.587-.937 2.398-1.422.096.26.175.521.28.782.288.73.606 1.433.92 2.143-2.491 1.723-4.433 3.082-4.494 3.122.012.024.053.124.08.202.088-.067 2.019-1.407 4.496-3.134.246.541.51 1.074.767 1.607-.306.052-.717.028-1.327-.116-1.998-.484-2.524 1.107-2.823 1.87-.301.765-.89 3.172-2.41 2.768-1.516-.41-3.996-.076-4.838.611-.531.424-.864 1.072-1.067 1.71-.364 1.138-.42 1.94-1.532 2.575-1.246.718-2.64.915-4.063.878 0 0 3.9 2.301 5.317-.638 1.42-2.936 1.488-4.707 3.413-4.193 1.938.524 3.475 1.315 4.804-.929 1.325-2.244 1.668-3.279 3.654-3.089.34.04.903.013 1.506-.173.197.38.413.756.629 1.136-4.833 3.537-9.457 6.92-9.582 7.008.059.082.088.125.155.222.143-.106 4.748-3.482 9.553-6.993.726 1.286 1.483 2.568 2.31 3.801-2.1 1.821-6.894 5.983-7.097 6.163.107.116.377.395.377.395s-.6.53-1.051.926l.377.385c.674-.605 2.95-2.654 5.666-5.102a59.058 59.058 0 0 0 7.046 8.304l.189-.195a59.962 59.962 0 0 1-7.031-8.292c.667-.602 1.353-1.224 2.049-1.845A56.745 56.745 0 0 0 34.55 115l.373-.409a59.428 59.428 0 0 1-2.34-2.344c.326-.403.955-1.18 1.749-2.146 1.035 1.108 2.092 2.191 3.219 3.212l.186-.212a58.777 58.777 0 0 1-3.233-3.219c1.118-1.366 2.478-3.04 3.666-4.493a47.163 47.163 0 0 0 3.06 3.103c-4.461 6.288-13.297 18.755-13.448 18.96 0 .004.124.094.239.185.174-.253 8.99-12.673 13.429-18.94.538.48 1.07.97 1.622 1.428l.475-.565a47.7 47.7 0 0 1-1.667-1.475c1.233-1.738 2.045-2.88 2.086-2.94a12.923 12.923 0 0 1-.218-.193c-.066.076-.866 1.214-2.09 2.932a43.776 43.776 0 0 1-3.012-3.079 351.12 351.12 0 0 0 2.242-2.759c-.074-.086-.12-.13-.21-.24-.1.114-1.032 1.266-2.243 2.753a45.703 45.703 0 0 1-2.884-3.567c-.42-.582-.807-1.174-1.197-1.766 1.464-1.323 2.439-2.198 2.489-2.247a86.581 86.581 0 0 0-.363-.544c-.102.092-1.156 1.01-2.514 2.188a50.356 50.356 0 0 1-1.8-3.145c1.654-1.214 2.749-2.016 2.796-2.05a8.16 8.16 0 0 0-.13-.23c-.07.055-1.158.843-2.79 2.041-.007-.019-.014-.03-.017-.044a21.054 21.054 0 0 0 1.516-1.276c1.493-1.36 1.932-1.808 1.932-1.808s-.106-.779-.664-.456c-.382.217-1.28 1.033-2.042 1.682-.397.285-.82.601-1.23.906a49.43 49.43 0 0 1-.894-1.933l-.676.292c.29.681.608 1.352.942 2.022-.677.357-1.525.633-2.483.357-.067-.02-.141-.02-.208-.033a57.039 57.039 0 0 1-.75-1.659c3.029-2.097 5.573-3.874 5.645-3.927-.023-.072-.04-.113-.072-.199-.102.075-2.641 1.838-5.655 3.936a54.456 54.456 0 0 1-.957-2.495c3.268-1.94 5.769-3.42 5.845-3.47-.027-.096-.043-.147-.077-.262-.118.074-2.614 1.55-5.853 3.467a48.778 48.778 0 0 1-.627-1.894 43.873 43.873 0 0 1-.332-1.194c3.209-1.773 5.899-3.262 5.975-3.302l-.038-.218c-.117.053-2.802 1.538-6 3.307a62.56 62.56 0 0 1-.317-1.257c3.533-1.487 6.052-2.546 6.146-2.592-.026-.106-.036-.17-.072-.322-.14.067-2.65 1.12-6.147 2.587a31.32 31.32 0 0 1-.38-1.736c3.479-1.354 6.135-2.385 6.226-2.425-.021-.089-.023-.138-.041-.252-.132.051-2.783 1.076-6.23 2.425a49.633 49.633 0 0 1-.715-5.23c.637-.175 1.577-.417 2.544-.673a44.75 44.75 0 0 0 .427 3.868l.728-.114a44.337 44.337 0 0 1-.43-3.944c1.55-.414 2.978-.787 3.114-.83-.005-.148-.02-.307-.034-.518-.156.045-1.474.39-3.116.814-.056-1.029-.07-2.054-.056-3.08l3.112-.567c.002-.112.002-.18.002-.323-.12.016-1.343.24-3.11.561.003-.275-.004-.545.007-.82 0-.05.01-.103.01-.153 1.845-.28 3.049-.459 3.116-.469.006-.092.013-.223.013-.324-.102.013-1.291.197-3.111.467.01-.22.023-.446.04-.674.983.105 2.067-.07 3.064-.252 1.826-.324 2.386-.47 2.386-.47s.302-.658-.292-.683c-.586-.02-2.707.417-3.493.427-.421.011-.998.041-1.591-.084.039-.517.086-1.038.145-1.542 1.792-.119 3.015-.203 3.097-.208.02-.19.06-.512.096-.772-.131.013-1.364.074-3.08.177.197-1.459.46-2.9.795-4.34 1.447.09 2.855.163 3.019.171.019-.115.04-.172.074-.318-.215-.014-1.602-.085-3.021-.159.192-.809.416-1.615.66-2.416 1.762.213 2.884.353 2.953.353.03-.11.05-.164.096-.304-.091-.01-1.21-.15-2.952-.353.159-.518.324-1.033.495-1.538 1.742.291 2.845.48 2.914.49.034-.113.058-.17.103-.305-.09-.014-1.186-.2-2.901-.488.13-.36.254-.726.39-1.082l-.687-.264c-.162.401-.296.813-.437 1.222-1.6-.263-3.592-.602-5.777-.966.21-.649.457-1.28.692-1.914 4.78 1.153 9.116 2.196 9.235 2.223.022-.104.037-.164.074-.3-.152-.044-4.45-1.07-9.203-2.228.485-1.237 1-2.469 1.573-3.683.952.3 1.855.586 2.718.855-.01.021-.022.037-.03.057l.335.16c.014-.036.033-.07.05-.105 3.408 1.075 5.833 1.842 5.924 1.875.1-.2.328-.643.457-.9-.13-.044-2.516-.847-5.87-1.966.343-.67.693-1.323 1.066-1.967 3.303 1.222 5.719 2.103 5.808 2.15.053-.086.083-.132.147-.232-.117-.045-2.53-.935-5.825-2.152.155-.258.297-.516.45-.779 2.524 1.097 5.459 2.366 5.638 2.448.063-.104.097-.157.172-.274-.237-.107-3.137-1.358-5.643-2.448.217-.35.45-.698.67-1.048 2.424 1.144 4.312 2.034 5.032 2.37-.182.197-.373.392-.551.59l.8-.837zm81.45 30.438c-.033.233-.062.47-.094.707-.996-.323-1.774-.562-2.28-.726.706.01 1.668-.008 2.374.02zM31.432 47.026c-.803-.38-1.657-.799-2.548-1.224a50.522 50.522 0 0 1 1.887-2.704c.228.245.41.597.494 1.13.1.69.444 1.23.933 1.673-.266.374-.516.75-.766 1.125zm-.908 1.397c-1.035-.455-1.966-.856-2.585-1.124.226-.382.466-.764.705-1.139.895.423 1.757.824 2.57 1.21-.232.342-.467.691-.69 1.053zm-.615 1.075c-.846-.313-1.746-.646-2.677-.986.182-.313.36-.62.538-.937.613.27 1.549.676 2.6 1.127-.16.266-.312.536-.461.796zm-1.2 2.207c-.851-.289-1.753-.585-2.7-.904.262-.515.512-1.025.78-1.53.1-.18.21-.35.309-.529l2.677.988a45.554 45.554 0 0 0-1.065 1.975zm2.723 1.252l-.128.392s-1.007-.312-2.61-.82c.072-.144.142-.273.22-.423 1.547.521 2.518.851 2.518.851zm-3.094-.545c-.791-.246-1.71-.535-2.714-.849.075-.159.165-.32.244-.48.999.342 1.91.644 2.69.908-.071.142-.153.285-.22.421zm-2.975-.934c-1.752-.55-3.736-1.18-5.77-1.816.095-.196.179-.395.272-.592 2.02.68 4.002 1.345 5.735 1.925-.078.16-.17.324-.237.483zm-4.21-4.932c1.893.7 3.846 1.416 5.678 2.1-.09.161-.19.327-.283.49-.282.522-.54 1.047-.803 1.58-1.831-.614-3.79-1.28-5.74-1.94.363-.752.753-1.492 1.148-2.23zm1.788-3.076c1.823.857 3.69 1.738 5.448 2.565-.234.387-.475.767-.706 1.154-.27-.118-.451-.193-.5-.215a5.559 5.559 0 0 0-.12.29c.04.02.209.096.457.21-.186.306-.366.623-.553.942a615.15 615.15 0 0 0-5.683-2.098c.52-.97 1.073-1.915 1.657-2.848zm2.128-3.215c.054.118.109.22.163.345.267.732 1.426 2.454 3.722 2.038.365-.062 1.07-.144 1.622.262a50.657 50.657 0 0 0-1.942 2.778c-1.743-.853-3.61-1.758-5.433-2.646a54.11 54.11 0 0 1 1.868-2.777zm2.308-3.028c1.706 1.142 3.42 2.298 5.013 3.37-.423.507-.84 1.011-1.242 1.532-.723-.613-1.636-1.034-2.438-1.037-1.433 0-1.957.31-2.404-1.508a2.562 2.562 0 0 0-.254-.65 49.12 49.12 0 0 1 1.325-1.707zm3.147-3.535a822.541 822.541 0 0 1 4.657 3.786 52.053 52.053 0 0 0-2.581 2.87c-.724-.484-2.664-1.793-5.017-3.364a59.896 59.896 0 0 1 2.94-3.292zm4.423 8.621A49.636 49.636 0 0 0 32.843 45a2.575 2.575 0 0 1-.572-1.189c-.106-.528-.448-1.059-.92-1.5.417-.532.838-1.049 1.267-1.56.816.543 1.599 1.071 2.329 1.562zm.45-4.657c.764.617 1.502 1.218 2.2 1.781a54.3 54.3 0 0 0-2.382 2.566c-1.184-.803-2.141-1.446-2.26-1.528a.849.849 0 0 1-.048.082l-.08-.053a52.243 52.243 0 0 1 2.57-2.848zm4.583-4.16c1.394 1.453 2.84 2.955 3.99 4.16a44.783 44.783 0 0 0-3.861 3.42 307.19 307.19 0 0 1-2.004-1.635 46.596 46.596 0 0 1 2.076-1.963l-.24-.27a43.297 43.297 0 0 0-2.121 2.001c-.697-.566-1.431-1.164-2.192-1.78a51.709 51.709 0 0 1 4.352-3.933zm5.07 3.335c-.26.197-.534.382-.79.59-1.127-1.22-2.537-2.743-3.905-4.218.313-.249.63-.488.944-.725.953 1.098 2.482 2.875 3.752 4.353zm-6.734-5.84a49.966 49.966 0 0 1 2.738-2.068c2.075 2.583 4.078 5.068 5.498 6.838-.421.284-.835.585-1.25.881-1.266-1.479-2.797-3.252-3.75-4.366.182-.138.369-.287.557-.426l-.16-.22c-.2.142-.381.3-.575.44-.408-.474-.686-.79-.735-.85-.1.09-.141.124-.242.208.054.062.316.373.724.837-.326.241-.638.484-.953.73-.642-.7-1.276-1.376-1.852-2.004zm-1.08-7.278a59.163 59.163 0 0 1 4.379-2.823c1.048 1.667 2.125 3.361 3.16 5a51.284 51.284 0 0 0-2.68 1.672l-1.726-2.329a4.193 4.193 0 0 1-.254.19c.058.092.749 1.012 1.717 2.314-.298.195-.6.376-.893.58-1.25-1.558-2.518-3.142-3.702-4.604zm6.913-4.238c.949 1.701 1.932 3.46 2.888 5.18-.663.34-1.317.694-1.97 1.067-1.031-1.643-2.108-3.335-3.155-5.01a62.444 62.444 0 0 1 2.237-1.237zm3.408-1.644c.799 1.644 1.699 3.501 2.58 5.32-.952.427-1.89.872-2.814 1.35-.954-1.713-1.946-3.477-2.891-5.173a63.79 63.79 0 0 1 3.125-1.497zm.878-.38c.75 1.641 1.603 3.51 2.453 5.355-.172.074-.338.16-.508.236-.895-1.833-1.788-3.682-2.58-5.32.213-.09.416-.178.635-.27zm2.36-.964c.712 1.81 1.439 3.684 2.15 5.5-.608.231-1.211.474-1.812.722-.861-1.874-1.712-3.735-2.457-5.362a46.938 46.938 0 0 1 2.119-.86zm-.18 7.053c.174-.076.333-.156.503-.23 1.476 3.201 2.893 6.276 3.669 7.975-.114.047-.227.104-.347.143-.81-1.678-2.283-4.723-3.825-7.888zm-3.021 1.441a56.578 56.578 0 0 1 2.786-1.333c1.677 3.462 3.246 6.694 3.825 7.89-.332.148-.671.275-1.003.427-.458.212-.897.437-1.336.658a1896.575 1896.575 0 0 1-4.272-7.642zm-2.23 1.206a78.656 78.656 0 0 1 1.944-1.056c1.646 2.947 3.177 5.696 4.266 7.636-.521.27-1.03.541-1.536.83a5123.528 5123.528 0 0 1-4.674-7.41zm2 9.031c-.195.127-.383.254-.578.386-1.414-1.785-3.42-4.268-5.497-6.85.279-.205.577-.384.864-.578 1.555 2.104 3.678 4.962 5.212 7.042zM42.422 28a51.46 51.46 0 0 1 2.647-1.63 1923.61 1923.61 0 0 1 4.668 7.398c-.715.405-1.42.821-2.112 1.27C46.093 32.965 43.977 30.1 42.42 28zm12.856 4.356a2.998 2.998 0 0 0-.316.14c-.048-.1-.112-.236-.195-.396.108-.047.224-.097.328-.145.074.16.139.29.183.401zm-.015-4.436c-.036 0-.064.02-.094.026l.135.344.096-.029c.342.886.658 1.693.93 2.4-.437.172-.868.345-1.296.523-.966-2.09-2.31-5.025-3.668-7.969a52.53 52.53 0 0 1 1.784-.71l2.113 5.415zm2.949-.63c.538.614.713 1.396.847 1.903.034.122.064.31.093.508-.845.258-1.684.544-2.52.857-.274-.71-.587-1.52-.933-2.404.828-.318 1.667-.6 2.513-.865zm-1.08-3.979c1.08-2.052-.292-3.496-.941-3.907-.531-.353-.811-.702-.927-1.098a51.495 51.495 0 0 1 2.298-.674c.136.52.232.915.232.915l-.217.055c.055.213 1.117 4.23 2.079 7.873-.175.05-.34.106-.508.15a2.58 2.58 0 0 0-1.108-.818c-1.763-.664-1.167-1.979-.907-2.496zm4.084-6.546c.355 1.946.724 3.98 1.07 5.911-.95.193-1.902.4-2.836.65l.068.263c.939-.24 1.875-.45 2.82-.645.167.965.335 1.895.496 2.766-.904.195-1.796.402-2.687.634-.78-3.019-1.691-6.51-2.28-8.797a64.17 64.17 0 0 1 3.349-.782zm1.763-.322c.259 1.983.53 4.027.782 5.947-.385.072-.774.142-1.161.216-.345-1.92-.721-3.959-1.066-5.91.475-.09.964-.167 1.445-.253zm3.51-.494c.148 1.883.32 3.967.48 5.983-.991.106-1.975.256-2.957.42-.254-1.927-.524-3.964-.784-5.946a54.063 54.063 0 0 1 3.26-.457zm.735 9.065c-.94.105-1.875.241-2.804.401-.118-.873-.244-1.817-.37-2.792a61.179 61.179 0 0 1 2.946-.42c.076.973.157 1.91.228 2.811zm-4.014 1.007c.338-.066.669-.136 1.005-.194.132.938.243 1.807.343 2.568-.302.046-.593.095-.894.143l-.454-2.517zm-.565-3.14c.388-.074.767-.153 1.156-.213.125.968.254 1.913.374 2.795-.35.057-.691.13-1.025.192-.16-.882-.335-1.809-.505-2.774zm-2.236 6.446c-.12.034-.24.073-.357.104-.095-.885-.263-1.78-.684-2.482.127-.036.253-.08.383-.117.237.881.456 1.73.658 2.495zm-.17-2.62a42.665 42.665 0 0 1 2.658-.627l.455 2.526c-.824.167-1.65.357-2.466.578-.202-.747-.415-1.59-.646-2.478zm7.228 1.267c-.895.097-1.773.222-2.663.376-.096-.766-.213-1.63-.338-2.569a55.758 55.758 0 0 1 2.786-.402c.082.945.15 1.822.215 2.595zm4.767-2.9c-.042.881-.1 1.77-.143 2.593a46.65 46.65 0 0 0-3.883.22c-.053-.776-.115-1.647-.177-2.578a51.488 51.488 0 0 1 4.203-.236zm.167-3.185c-.037.758-.093 1.755-.151 2.817-1.421.016-2.84.098-4.247.242-.06-.912-.13-1.864-.193-2.82a55.825 55.825 0 0 1 4.59-.239zm.326-.006c.649 0 1.303.006 1.952.036.222.01.438.027.662.04-.12.977-.234 1.923-.337 2.795-.143-.003-.278-.022-.423-.024-.668-.024-1.341-.024-2.007-.024.06-1.062.107-2.06.153-2.823zm2.934.096c.61.035 1.225.06 1.839.117-.182.967-.354 1.904-.51 2.78-.554-.045-1.11-.072-1.667-.103.1-.873.215-1.81.338-2.794zM76.014 19c.673.03 1.348.076 2.01.136-.162.91-.323 1.812-.485 2.683-.612-.056-1.231-.085-1.846-.117.1-.878.204-1.78.32-2.702zm.777-6.45c.799.06 1.604.114 2.396.206-.334 1.848-.696 3.855-1.056 5.84a38.604 38.604 0 0 0-2.05-.15c.235-1.95.48-3.95.71-5.897zm2.704.235c.616.067 1.234.147 1.852.234-.41 1.872-.833 3.854-1.25 5.792-.556-.074-1.107-.129-1.663-.188.358-1.983.719-3.982 1.06-5.838zm2.152.27a62.304 62.304 0 0 1 8.786 1.932c-.681 1.743-1.42 3.636-2.145 5.526a55.473 55.473 0 0 0-3.108-.794c.73-2.27 1.269-3.984 1.294-4.059-.071-.013-.152-.04-.167-.045-.027.077-.583 1.837-1.287 4.071-.136-.03-.26-.055-.39-.086a974.216 974.216 0 0 1 1.233-4.096s-.087-.029-.16-.046c-.025.065-.547 1.807-1.233 4.11a55.326 55.326 0 0 0-4.076-.724l1.253-5.789zm9.039 1.998c.726.222 1.444.455 2.152.702 1.028.347 2.038.733 3.033 1.137-.825 1.76-1.683 3.588-2.522 5.357a57.67 57.67 0 0 0-4.815-1.673 678.634 678.634 0 0 0 2.152-5.523zM88.516 24c.292-.675.495-1.137.526-1.215-.117-.057-.175-.078-.29-.126-.033.07-.244.556-.547 1.25-.28-.085-.57-.163-.857-.244.32-.84.653-1.699.99-2.568a56.71 56.71 0 0 1 4.78 1.653c-.4.84-.787 1.661-1.166 2.465A54.498 54.498 0 0 0 88.516 24zm-.111.256c1.154.362 2.299.77 3.426 1.211-.42.902-.83 1.753-1.205 2.563a46.42 46.42 0 0 0-3.347-1.174c.42-.965.812-1.874 1.126-2.6zm-1.158-.339c.28.083.565.163.849.251-.313.722-.713 1.634-1.122 2.592-.254-.075-.51-.135-.757-.2.328-.833.675-1.729 1.03-2.643zm-3.151-.792a45.63 45.63 0 0 1 2.894.721c-.358.92-.71 1.805-1.032 2.64a52.915 52.915 0 0 0-2.72-.673c.283-.88.573-1.789.858-2.688zm-1.297 2.598c.253-.84.533-1.764.815-2.717.103.031.213.055.318.078-.301.94-.594 1.864-.858 2.698-.094-.018-.183-.04-.275-.059zm-.102.357c.086.012.174.04.265.054-.105.352-.215.678-.317.987-.073-.028-.131-.049-.146-.058-.151.455-.386 1.227-.63 1.993l-.063-.02.89-2.956zm-3.06-3.736c1.284.167 2.558.366 3.813.626-.275.912-.55 1.828-.814 2.717a51.934 51.934 0 0 0-3.597-.59c.193-.862.387-1.786.598-2.753zm-.3-.037c-.208.965-.415 1.89-.597 2.763a27.188 27.188 0 0 0-1.443-.159c.159-.875.324-1.81.5-2.784.518.05 1.033.116 1.54.18zm.059-.275a74.51 74.51 0 0 0-1.544-.18c.158-.873.317-1.77.486-2.683.545.058 1.088.112 1.638.183-.197.911-.394 1.815-.58 2.68zm4.136.675a49.984 49.984 0 0 0-3.834-.637c.186-.872.378-1.766.577-2.678 1.359.176 2.699.425 4.03.71-.243.823-.506 1.705-.773 2.605zm1.476-2.454a48.81 48.81 0 0 1 3.073.777c-.335.868-.667 1.726-.995 2.551a48.11 48.11 0 0 0-2.9-.718c.284-.904.567-1.784.822-2.61zm-.988 2.563c-.11-.02-.216-.049-.327-.068.263-.887.527-1.769.777-2.61.127.018.252.047.376.076-.27.84-.55 1.724-.826 2.602zm12.744-5.55a54.906 54.906 0 0 1 4.06 1.89c-1.302 2.054-3.183 5.003-4.953 7.793a48.378 48.378 0 0 0-3.141-1.406c.397-.804.793-1.626 1.21-2.47a55.32 55.32 0 0 1 2.355 1.04l.232-.5a49.247 49.247 0 0 0-2.348-1.037 792.168 792.168 0 0 1 2.585-5.31zm4.26 1.991a62.863 62.863 0 0 1 4.715 2.693c-.56.68-1.181 1.448-1.847 2.266a62.739 62.739 0 0 0-3.533-2.04l-.131.244a52.931 52.931 0 0 1 3.479 2.014c-1.21 1.491-2.538 3.13-3.821 4.7a49.828 49.828 0 0 0-3.1-1.744c-.234-.125-.483-.228-.714-.344l4.952-7.789zm4.982 2.861c.256.156.498.32.74.478-.21 1.428-.325 2.304-.957 2.854-.537-.358-1.077-.72-1.624-1.06.672-.823 1.294-1.595 1.84-2.272zm.914 4.466a59.685 59.685 0 0 1 6.078 5.013c-1.57 1.314-3.156 2.637-4.64 3.876a52.444 52.444 0 0 0-3.106-2.66l3.24-3.41c-.098-.104-.35-.365-.382-.4-.073.074-1.82 1.993-3.233 3.53a60.194 60.194 0 0 0-1.74-1.29c.4-.554.68-1.177.74-1.753.142-1.468-.123-2.035 1.784-2.309.607-.088.996-.317 1.259-.597zm-8.821 8.265c.466-.655 1.208-1.853 2.64-1.985.796-.077 1.62-.658 2.225-1.402.588.413 1.158.84 1.73 1.275-.876.956-1.567 1.717-1.567 1.717s-1.19 1.29-2.332 2.546a51.128 51.128 0 0 0-2.831-1.956c.045-.07.092-.143.135-.195zm4.173-5.262c.009.241.02.625-.09 1.006a53.952 53.952 0 0 0-2.018-1.294c1.28-1.57 2.617-3.21 3.823-4.693.52.325 1.039.666 1.545 1.012a3.163 3.163 0 0 1-.806.357c-.771.205-2.645 1.214-2.454 3.612zm-2.288-.072c.716.434 1.414.881 2.097 1.344-.227.474-.698.88-1.666.931-1.544.088-2.486 1.374-3.23 2.76a41.464 41.464 0 0 0-.877-.525c1.015-1.244 2.312-2.832 3.676-4.51zm-5.973.772s.797-1.26 1.91-3.002c.242.115.497.22.74.35a54.207 54.207 0 0 1 3.045 1.716 1236.134 1236.134 0 0 0-3.671 4.516 47.012 47.012 0 0 0-3.168-1.677c.597-.933 1.137-1.766 1.2-1.875-.03-.013-.056-.028-.056-.028zm10.573 5.708c-.138.128-1.281 1.103-2.417 2.09-.37-.296-.726-.59-1.096-.87 1.183-1.239 2.658-2.798 3.986-4.195a49.424 49.424 0 0 1 3.089 2.631c-1.71 1.433-3.26 2.72-4.464 3.727-.418-.366-.834-.734-1.268-1.088 1.129-.97 2.24-1.925 2.382-2.055-.082-.096-.125-.14-.212-.24zm4.68.697c-.643.481-1.45 1.077-2.303 1.715-.156-.15-.3-.314-.453-.458l-.25.27c.137.134.264.28.399.407-.706.522-1.42 1.058-2.083 1.546-.212-.205-.441-.39-.662-.587 1.21-1.005 2.757-2.296 4.462-3.722.3.268.599.553.89.83zm-.164 4.425c-.798.492-1.54.966-2.206 1.382a50.364 50.364 0 0 0-2.078-2.108c.653-.487 1.365-1.013 2.074-1.537a52.49 52.49 0 0 1 2.21 2.263zm.392-4.188a53.076 53.076 0 0 1 2.339 2.451c-.827.53-1.647 1.04-2.421 1.534a49.185 49.185 0 0 0-2.221-2.279c.856-.64 1.665-1.235 2.303-1.706zm3.054 3.252l.207-.177c-.181-.213-.366-.409-.553-.613.794-.5 1.575-.995 2.343-1.474a56.848 56.848 0 0 1 1.834 2.212c-1.824.984-3.62 1.941-5.212 2.79-.515-.63-1.071-1.24-1.621-1.848.78-.495 1.6-1.008 2.423-1.533.19.217.389.421.579.643zm5.857 2.72c-1.884.928-3.682 1.816-5.27 2.6a44.292 44.292 0 0 0-1.8-2.358l5.209-2.79a55.67 55.67 0 0 1 1.86 2.548zm1.223 1.825c-1.794.672-3.772 1.421-5.597 2.106-.232-.347-.452-.702-.693-1.04 1.575-.78 3.378-1.67 5.265-2.596.342.5.69 1.014 1.025 1.53zm1.158 1.917c-1.966.657-3.905 1.302-5.651 1.888-.044-.077-.083-.156-.133-.224-.274-.454-.582-.878-.87-1.322 1.813-.686 3.804-1.439 5.584-2.107.369.58.727 1.173 1.07 1.765zm1.613 3.012c-.306-.068-.671-.236-1.156-.408-1.356-.456-3.535.2-4.243 1.408a2.361 2.361 0 0 1-.377.495 41.078 41.078 0 0 0-1.358-2.407c1.735-.589 3.68-1.238 5.643-1.894.526.92 1.023 1.858 1.49 2.806zm4.733-4.89a62.432 62.432 0 0 1 2.054 4.13c-.816-.068-1.747-.628-2.177-.828-.676-.31-2.002-1.012-3.011.552-.396.6-.697.901-.992 1.016a55.6 55.6 0 0 0-1.561-2.963c1.98-.669 3.949-1.327 5.687-1.907zm2.435 4.994a62.504 62.504 0 0 1 2.428 6.62c-.91.137-1.88.285-2.911.434a59.889 59.889 0 0 0-.446-1.359l.515-.093a5.362 5.362 0 0 1-.056-.31c-.04 0-.246.034-.56.095a59.473 59.473 0 0 0-1.35-3.568l-.255.098c.485 1.168.917 2.34 1.328 3.511-.632.124-1.593.294-2.72.502a55.683 55.683 0 0 0-2-4.93c.53-.255.934-.597 1.132-.835 1.18-1.37 2.05-.906 4.329-.276.2.058.387.083.566.111zm-7.172 6.824c.942-.176 1.859-.344 2.706-.493.114.353.252.698.374 1.053l.525-.17c-.114-.322-.238-.654-.353-.982 1.134-.2 2.085-.378 2.713-.484.148.443.296.9.44 1.348-1.935.288-4.02.602-6.013.906a36.117 36.117 0 0 0-.392-1.178zm-.275.043c.14.39.256.777.394 1.166-.975.148-1.92.296-2.82.434a28.74 28.74 0 0 0-.397-1.094c.926-.165 1.888-.333 2.823-.506zm-1.31-4.096c-.332.088-2.756.713-3.09.797-.186-.389-.38-.772-.57-1.164.262-.22.494-.466.666-.794.87-1.646 2.18-1.013 2.69-.743.954.53 1.806.53 2.512.331a56.37 56.37 0 0 1 1.977 4.83c-1.761.316-3.85.688-5.801 1.043a51.409 51.409 0 0 0-1.343-3.206c1.589-.414 2.897-.759 3.043-.785-.032-.124-.051-.189-.084-.309zm10.285 15.351c-1.995-.054-4.086-.11-6.061-.166a49.835 49.835 0 0 0-.636-3.97c.933-.047 1.57-.086 1.658-.089-.01-.18-.028-.622-.028-.622s3.315-.223 3.68-.254l-.02-.31c-.158.008-2.602.176-5.493.365a51.81 51.81 0 0 0-1.304-4.773c1.992-.29 4.069-.609 6.015-.894a57.342 57.342 0 0 1 2.189 10.713zm.346 5.153c-1.887-.232-3.994-.48-6.041-.733a50.859 50.859 0 0 0-.327-4.3l6.053.167c.168 1.61.284 3.23.315 4.866zm-1.103 8.907c-.32-.346-1.058-.9-2.025-1.069.106-.884.19-1.77.255-2.659.889.181 1.792.361 2.697.54a58.155 58.155 0 0 1-.39 3.658 3.593 3.593 0 0 1-.537-.47zm-2.46 1.907c.089-.51.175-1.013.253-1.52.478-.064.892.175 1.55 1.07.287.4.599.656.9.793-.02.168-.042.33-.077.485-.88-.277-1.751-.55-2.626-.828zm-.23 1.26c.062-.307.117-.62.173-.945.872.275 1.755.554 2.633.835-.07.342-.13.685-.205 1.032-.856-.308-1.734-.609-2.601-.922zm-.056.308c.866.306 1.735.608 2.6.91-.16.74-.316 1.49-.504 2.228-.104.395-.217.795-.322 1.184-.851-.343-1.702-.685-2.543-1.027.288-1.097.546-2.19.769-3.295zm-3.112-1.093c.842.295 1.718.597 2.583.905a53.124 53.124 0 0 1-.763 3.26c-.861-.343-1.708-.688-2.536-1.028.269-1.037.513-2.085.716-3.137zm-3.604 1.954c.242-.984.462-1.983.656-2.996.849.31 1.749.618 2.683.944a57.065 57.065 0 0 1-.705 3.127 235.53 235.53 0 0 1-2.634-1.075zm-.086.323c.834.342 1.719.698 2.636 1.067a48.59 48.59 0 0 1-1.22 3.966c0 .014-.008.022-.008.04-.895-.413-1.751-.812-2.578-1.194a44.48 44.48 0 0 0 1.17-3.879zm-2.09-4.309c.743.267 1.574.556 2.472.875a47.237 47.237 0 0 1-.647 2.972c-.875-.353-1.692-.684-2.422-.984.234-.945.429-1.9.597-2.863zm6.38-5.098c-.971-.194-1.911-.38-2.786-.556.004-.209.027-.414.036-.62l-.37-.014c-.007.194-.022.377-.03.564-.94-.187-1.792-.36-2.564-.507.004-.048.004-.098.004-.147a45.205 45.205 0 0 0-.027-4.017c1.647.194 3.678.442 5.796.7a51.817 51.817 0 0 1 0 3.526c-.01.353-.038.717-.06 1.071zm.706 4.238c-.197.113-.515.301-.885.391.202-1.406.348-2.824.44-4.253.863.176 1.764.36 2.676.54-.063.906-.15 1.81-.256 2.723-.605-.013-1.272.151-1.975.6zm-.302 1.656a3.165 3.165 0 0 0 1.182-.22c.352-.137.639-.28.888-.385-.062.404-.144.8-.204 1.202-.634-.2-1.252-.394-1.866-.597zm-.797.09c.842.267 1.72.541 2.6.822-.054.308-.11.62-.163.93-.873-.31-1.74-.606-2.583-.908.05-.282.087-.563.146-.845zm-1.854-2.398a2.79 2.79 0 0 0-.8-.839c.112-.987.188-1.979.245-2.98.882.176 1.812.368 2.784.556a52.016 52.016 0 0 1-.443 4.347c-.57.053-1.224-.143-1.786-1.084zm-1.074 1.137c.025-.167.054-.34.079-.513.058.07.115.13.165.207.13.204.32.386.525.552-.265-.082-.516-.166-.77-.246zm-.056.313c.856.276 1.767.565 2.71.858-.048.283-.091.56-.136.847-.94-.328-1.841-.653-2.698-.948.045-.249.086-.504.124-.757zm-2.556-3.087c.085-.918.15-1.84.196-2.762.776.15 1.628.323 2.569.504a53.749 53.749 0 0 1-.225 2.83c-.73-.387-1.624-.533-2.54-.572zm2.2 2.987c-.031.238-.078.487-.124.732-.894-.314-1.72-.606-2.468-.865.035-.223.065-.435.099-.662.746.24 1.593.501 2.494.795zm-2.45-1.118c.04-.285.073-.575.115-.872.689.096 1.718.225 2.492.916-.031.255-.06.506-.097.751-.911-.287-1.76-.554-2.51-.795zm.028-13.458a42.756 42.756 0 0 0-.643-3.463c1.938-.107 4.246-.242 5.84-.324.266 1.304.47 2.621.632 3.945-2.197-.056-4.244-.115-5.83-.158zm5.873.443c.167 1.418.275 2.838.327 4.275-2.12-.254-4.154-.506-5.795-.698a47.389 47.389 0 0 0-.367-3.735c1.586.048 3.628.1 5.835.158zm6.614 8.343c-.02.697-.077 1.394-.131 2.085-.898-.18-1.81-.357-2.694-.532.03-.549.088-1.1.106-1.64l-.55-.029c-.021.524-.066 1.036-.105 1.557l-2.685-.53c.019-.376.047-.745.063-1.116.044-1.18.03-2.344 0-3.508 2.04.25 4.15.5 6.025.728.015.99.009 1.99-.03 2.985zm-14.478 37.018s1.162 1.171 2.004 2.007c-.07.076-.138.156-.21.23-.834-.859-2.007-2.054-2.007-2.054l.213-.183zM22.827 57.7c-.875-.144-1.79-.298-2.704-.453a54.62 54.62 0 0 1 .732-2.119c.896.207 1.786.425 2.669.644-.237.64-.478 1.282-.697 1.928zm5.939 1.324c-.18.517-.35 1.038-.507 1.567-1.605-.2-3.624-.437-5.808-.705.172-.609.357-1.219.558-1.825 2.18.358 4.169.693 5.757.963zm-1.261 4.335c-1.272-.074-2.417-.125-2.581-.14-.004.132-.01.191-.012.322.16.007 1.268.071 2.517.135a46.835 46.835 0 0 0-.798 4.414c-1.756.094-3.878.217-5.848.323a51.808 51.808 0 0 1 1.572-8.217c2.185.26 4.2.51 5.808.708a40.528 40.528 0 0 0-.658 2.455zm-3.747 14.328a49.485 49.485 0 0 1-.13-3.336c.92-.165 1.803-.315 2.605-.46-.013 1.047 0 2.09.063 3.138-.828.21-1.704.437-2.538.658zm.4 5.918c-2.693 1.037-5.811 2.258-8.6 3.344a58.622 58.622 0 0 1-1.363-10.899 2895.4 2895.4 0 0 0 9.068-1.627c0 1.126.048 2.243.129 3.352-2.002.52-3.708.962-3.862 1.005.037.128.05.185.083.312.355-.09 3.334-.869 3.334-.869l.056.217c.05-.007.203-.056.424-.105.144 1.768.39 3.52.73 5.27zm.424 2c-1.65.691-3.51 1.47-5.436 2.281-.003 0-.003-.01-.007-.01l-.532.135c.01.03.017.06.026.092-.842.354-1.685.71-2.533 1.07-.101-.375-.2-.745-.292-1.117-.07-.284-.127-.57-.191-.853 2.786-1.095 5.902-2.304 8.586-3.348.114.582.244 1.164.379 1.75zm.41 1.612c-1.715.951-3.551 1.967-5.203 2.88a45.777 45.777 0 0 1-.554-1.89c1.927-.809 3.774-1.588 5.42-2.284.109.433.222.866.338 1.294zm.37 1.336c.2.661.427 1.324.658 1.984-.792.47-1.62.962-2.47 1.47-.212-.6-.426-1.2-.618-1.799l-.263.076c.199.627.412 1.247.635 1.865-.782.463-1.572.935-2.361 1.401a54.317 54.317 0 0 1-1.095-3.24c1.65-.916 3.49-1.923 5.199-2.88.11.374.205.756.316 1.123zm1.687 4.695c.009.021.025.04.03.061-1.605 1.113-3.317 2.315-4.86 3.387-.3-.677-.6-1.343-.871-2.02-.107-.286-.2-.582-.311-.87.79-.466 1.584-.946 2.364-1.4.205.56.42 1.116.646 1.675l.256-.11a37.972 37.972 0 0 1-.663-1.719c.847-.497 1.676-.989 2.466-1.459.298.83.61 1.655.943 2.455zm.734 1.646c-1.42-.025-3.193.99-3.82 2.21-.357.685-.528 1.204-.848 1.488-.28-.567-.56-1.135-.811-1.7a953.273 953.273 0 0 1 4.864-3.388c.198.467.413.932.615 1.39zm.54 1.282c.026.003.054.003.082.021.208.411.424.822.647 1.235-1.486 1.078-3.114 2.281-4.735 3.462-.193-.333-.388-.668-.562-1.009.745-.369 1.479-1.04 1.854-2.248.194-.607.754-2.118 2.714-1.46zm3.083-.562c.01.018.026.044.039.057-.642.474-1.348.99-2.097 1.541-.164-.31-.321-.613-.478-.93.886.127 1.736-.182 2.536-.668zm.162.3a50.073 50.073 0 0 0 1.83 3.194c-.62.55-1.286 1.126-1.946 1.691a47.409 47.409 0 0 1-1.981-3.352c.752-.553 1.46-1.064 2.097-1.534zm3.386 5.504a44.946 44.946 0 0 0 3.007 3.722c-1.191 1.46-2.552 3.126-3.67 4.501a51.911 51.911 0 0 1-4.802-6.045c.726-.647 1.442-1.287 2.119-1.893.22.328.43.667.663.998l.296-.208c-.235-.339-.455-.697-.686-1.044.686-.617 1.333-1.2 1.92-1.736.377.58.75 1.155 1.153 1.705zm-2.583 10.587a55.633 55.633 0 0 1-5.13-6.375c.685-.619 1.372-1.23 2.047-1.843a53.991 53.991 0 0 0 4.825 6.081c-.784.951-1.406 1.718-1.742 2.137zm-5.642-7.11a56.723 56.723 0 0 1-2.286-3.766c1.626-1.189 3.25-2.387 4.726-3.459a47.723 47.723 0 0 0 2.003 3.373c-.822.71-1.6 1.39-2.25 1.951l-.131.087c.005.01.005.012.015.02l-1.524 1.313s-.211.19-.553.48zm-8.667-9.639a61.424 61.424 0 0 1-1.163-3.312c.714-.39 1.546-.86 2.449-1.353a55.497 55.497 0 0 0 1.115 3.247c-.813.484-1.617.962-2.401 1.418zm-1.88-5.757c.854-.362 1.699-.72 2.542-1.07.172.65.37 1.293.563 1.944-.91.502-1.742.968-2.456 1.357a71.04 71.04 0 0 1-.65-2.23zm-3.041.907a56.964 56.964 0 0 1-.523-2.042c.847-.326 1.767-.685 2.736-1.063.064.268.122.546.182.816.104.385.203.775.304 1.164-.907.38-1.812.755-2.7 1.125zM10.989 74.86c.934-.143 1.907-.29 2.908-.44 0 .455.008.905.018 1.356-1.523.274-2.551.465-2.64.474.018.134.029.2.056.324.089-.02 1.095-.205 2.59-.473.11 3.692.576 7.36 1.383 10.95-.972.376-1.892.74-2.741 1.066a61.613 61.613 0 0 1-1.574-13.257zm12.274-.765c-3.118.563-6.652 1.201-9.071 1.634-.013-.453-.02-.903-.02-1.353 3.087-.466 6.347-.954 9.11-1.369-.005.366-.02.723-.02 1.088zm2.97-.533c-.802.143-1.68.302-2.598.474 0-.36.005-.722.016-1.077.94-.143 1.809-.28 2.595-.39v.017c-.013.327-.007.653-.013.976zm-1.376-4.548c.582-.036 1.143-.075 1.672-.108-.055.41-.091.832-.125 1.244a2.65 2.65 0 0 1-.815-.613 2.508 2.508 0 0 0-.732-.523zM11.02 72.042c.012-.287.036-.563.05-.838.61.316 1.32.36 2.322-.169 1.772-.914 2.606-1.49 3.666-1.04a70.137 70.137 0 0 0-.133 2.254l.556.021c.022-.662.068-1.314.115-1.977.055.048.109.072.17.118.408.322 1.388.817 2.518.663-.03.428-.07.86-.08 1.295l.27.01c.017-.452.066-.9.09-1.352a3.505 3.505 0 0 0 1.518-.776c.449-.382 1.627-1.293 2.837.175.38.458.869.724 1.395.883-.02.313-.036.62-.056.926-.785.121-1.654.25-2.601.396v-.139l-.364-.012c-.007.067 0 .138-.007.2-2.768.424-6.028.91-9.115 1.366 0-.629.007-1.256.032-1.888l-.273-.017a49.24 49.24 0 0 0-.034 1.954c-1.001.148-1.982.3-2.917.441 0-.83.013-1.662.04-2.494zm3.145-2.304c-.74.524-1.69 1.01-2.356.296-.04-.04-.092-.083-.137-.136.575-.039 1.436-.094 2.493-.16zm-1.282-10.685c1.915.24 3.93.475 5.917.714a56.75 56.75 0 0 0-1.584 8.572c-.663-.194-1.25.074-1.696.367-.565.034-.93.057-.983.057.006.186.03.622.03.622s-2.216.152-3.23.218c-.05-.04-.111-.083-.162-.122.27-3.538.852-7.016 1.708-10.428zm.716-2.57c1.917.32 3.919.655 5.875.98-.211.665-.41 1.326-.597 1.99-1.982-.23-4-.484-5.912-.709.199-.757.407-1.517.634-2.262zm5.83 3.04c.186-.662.39-1.309.597-1.967.916.155 1.824.308 2.71.456-.2.61-.39 1.222-.565 1.843-.888-.109-1.81-.22-2.741-.333zm.963 9.792c0 .041 0 .083-.006.125-.606.384-.992.521-1.682-.01l1.688-.115zm-2.646-.732c.305-2.964.837-5.89 1.605-8.743.928.11 1.839.216 2.727.325a51.761 51.761 0 0 0-1.573 8.262c-.984.061-1.925.106-2.76.156zm-3.21-14.98l5.783 1.393a55.304 55.304 0 0 0-.753 2.163c-1.954-.327-3.955-.668-5.875-.99.268-.859.548-1.713.846-2.567zm85.134 58.627a924.285 924.285 0 0 1-4.341-3.897c-.124.093-.241.179-.401.302.295.273 3.629 3.283 4.326 3.918-.231.176-.47.353-.706.524-.601-1.023-1.833-1.733-2.94-2.339-1.519-.844-2.007-1.071-2.007-1.071s-.614.302-.197.665c.424.364 2.214 1.297 2.793 1.755.437.341 1.124.84 1.493 1.604a49.04 49.04 0 0 1-2.337 1.53c-2.311-2.369-4.017-4.142-4.079-4.204-.074.044-.121.062-.221.113.089.091 1.804 1.845 4.095 4.209-.048.031-.09.062-.139.096-.45.273-.922.511-1.381.769-2.129-2.365-3.866-4.299-3.917-4.355-.055.021-.085.044-.162.076.077.077 1.813 2.002 3.927 4.358-.342.191-.674.38-1.017.56-1.961-2.659-3.336-4.513-3.392-4.592-.099.061-.155.089-.294.159.081.113 1.447 1.963 3.39 4.602-.842.428-1.69.823-2.555 1.195-1.854-2.692-3.21-4.655-3.257-4.733-.086.033-.13.058-.248.101.078.104 1.427 2.07 3.266 4.745a38.65 38.65 0 0 1-2.166.846c-.452-.769-.876-1.486-1.254-2.14.484-.171.981-.343 1.459-.543l-.259-.649c-.513.208-1.039.393-1.561.577-.756-1.282-1.252-2.139-1.278-2.178-.065.026-.104.039-.186.072.039.051.525.904 1.278 2.176-.876.309-1.752.603-2.646.852-.592-1.213-1.038-2.112-1.08-2.2-.105.029-.172.052-.297.084.051.122.495 1.014 1.075 2.195-.258.074-.516.138-.772.195a99.307 99.307 0 0 1-.935-2.237c-.104.031-.158.056-.289.088.029.071.381.91.935 2.222-.515.125-1.028.249-1.546.361l-.898-2.236a5.607 5.607 0 0 1-.305.064c.062.165.462 1.138.9 2.234-.417.084-.828.174-1.238.24a259.633 259.633 0 0 0-.657-2.253c-.071.021-.232.051-.269.068.019.084.292 1.079.611 2.244a46.35 46.35 0 0 1-3.103.4c-.012-.913.007-2.069-.071-2.464-.107-.564-.697-.18-.697-.18s-.045.56-.085 2.354v.365a35.17 35.17 0 0 1-1.122.069c-.282-1.358-.462-2.238-.478-2.306-.113.002-.165.01-.31.01.02.095.201.974.486 2.311a42.323 42.323 0 0 1-3.341.02c-.103-1.156-.204-2.258-.212-2.36-.093-.005-.159-.013-.267-.013.006.063.084.975.217 2.37-.027 0-.05 0-.069.003l-.03.704c.056.004.104 0 .162 0 .13 1.527.307 3.465.489 5.508a54.32 54.32 0 0 1-3.244-.182c.019-.948.044-1.848.066-2.686.951.089 1.909.149 2.873.182l.015-.354a44.08 44.08 0 0 1-2.879-.18l.14-5.514c-.182-.028-.475-.081-.702-.117-.011.132-.086 2.367-.206 5.545a49.35 49.35 0 0 1-3.344-.474c.176-2.579.36-5.323.368-5.504-.109-.019-.163-.035-.296-.058-.014.227-.197 2.939-.379 5.501-.232-.038-.474-.101-.711-.15.334-3.12.573-5.38.583-5.467-.092-.021-.143-.027-.249-.056-.011.114-.25 2.365-.585 5.47a39.72 39.72 0 0 1-2.581-.629c.057-.331.113-.665.165-.981.135.019.269.042.294.043.256-1.614.634-4.12.649-4.212a1.99 1.99 0 0 1-.214-.06c.027-.157.04-.249.045-.269-.111-.029-.341-.096-.477-.127-.015.092-.477 2.524-1.024 5.461a48.918 48.918 0 0 1-3.281-1.077c.82-3.038 1.414-5.206 1.436-5.298-.107-.036-.155-.061-.267-.103-.035.115-.622 2.273-1.439 5.295-.425-.159-.858-.318-1.283-.49.922-2.994 1.585-5.166 1.611-5.249-.101-.046-.151-.063-.264-.114-.037.109-.7 2.263-1.618 5.251-.48-.21-.967-.423-1.445-.637 1.106-2.955 1.88-5.038 1.92-5.131-.053-.02-.16-.068-.16-.068s-.063-.036-.121-.062c-.046.112-.816 2.188-1.924 5.133-.104-.053-.218-.096-.333-.145-.585-.281-1.148-.573-1.725-.87.348-.767.7-1.542 1.026-2.252.581.295 1.155.604 1.748.882l.304-.635a42.075 42.075 0 0 1-1.759-.898c.51-1.135.895-1.993.935-2.09-.1-.057-.154-.084-.264-.143-.054.111-.438.962-.948 2.098a43.637 43.637 0 0 1-3.126-1.854c.705-1.154 1.161-1.919 1.207-1.983-.117-.069-.581-.365-.581-.365-.113.188-.574.94-1.212 1.959a55.855 55.855 0 0 1-2.062-1.475c.407-.579.74-1.052.97-1.376l.248-.356c.055-.093.106-.152.117-.171-.062-.042-.11-.088-.193-.151a7.49 7.49 0 0 1-.23.338l-.156.213c-.226.337-.554.796-.947 1.36l-.402.576c-.417.601-.893 1.29-1.419 2.03l-.19.287c-.492.697-1.017 1.441-1.546 2.208l-3.579 5.13A2207.89 2207.89 0 0 1 31 128.617c.083.057.113.088.196.149l5.912-8.474c.84.632 1.7 1.241 2.576 1.821-1.726 2.761-3.071 4.922-3.135 5.019.107.055.156.095.266.147.163-.256 1.641-2.626 1.641-2.626s.359.216.516.294c.045-.069.608-.988 1.441-2.357a57.003 57.003 0 0 0 6.31 3.5l.112-.243a58.215 58.215 0 0 1-6.29-3.486l2.975-4.907a50.527 50.527 0 0 0 3.823 2.237c-.241.54-.401.901-.435.972.111.046.171.068.282.116.022-.062.186-.41.424-.944.547.287 1.107.563 1.673.828.196.097.4.175.592.267-.295.789-.601 1.605-.912 2.443-.265-.126-.532-.23-.794-.363l-.229.485c.28.133.56.239.839.37l-1.981 5.302a54.577 54.577 0 0 1-1.268-.575l-.077.166c.424.2.857.384 1.287.581l-3.958 10.591c.112.044.166.067.281.12.057-.164 1.875-5.022 3.952-10.588a69.15 69.15 0 0 0 2.127.881c-1.237 4.037-2.22 7.229-2.255 7.346.109.037.157.058.272.103.043-.124 1.025-3.311 2.26-7.332.558.211 1.117.411 1.679.613-1.298 4.78-2.362 8.721-2.4 8.857.054.009.144.044.273.084.041-.142 1.105-4.076 2.393-8.842a58.665 58.665 0 0 0 8.332 2.222c-.432 4.023-.768 7.169-.774 7.276.096.025.164.025.251.038.009-.129.346-3.257.772-7.255.705.124 1.412.251 2.124.347 1.032.157 2.06.266 3.096.374-.223 5.951-.409 11.151-.414 11.299.133.016.214.021.302.035.012-.374.112-2.963.112-2.963l.4.013s-.073 2.67-.074 2.999a3.3 3.3 0 0 1 .295.034c.011-.182.14-5.389.292-11.346 1.435.11 2.868.166 4.303.181.148 1.663.246 2.769.253 2.828.027-.003.136-.003.209-.006-.009-.085-.1-1.215-.251-2.822 1.737 0 3.471-.071 5.203-.223.402 1.905.674 3.208.693 3.3.118-.025.178-.04.3-.065-.021-.093-.29-1.373-.69-3.264.249-.019.494-.038.737-.063-.039.105-.071.205-.109.321-.735 2.202.701 2.775 2.179 3.772 1.483.993.325 2.079-.82 4.754-1.149 2.677 2.675 3.942 2.675 3.942-.864-.934-1.532-1.988-1.786-3.242-.219-1.123.288-1.627.839-2.534.314-.514.549-1.118.53-1.722-.037-.965-1.253-2.828-2.423-3.609-.609-.414-.535-1.113-.286-1.782a58.426 58.426 0 0 0 3.762-.558l-.03-.166a61.622 61.622 0 0 1-3.657.54c.22-.519.53-.999.671-1.275.205-.39.554-1.016.475-1.681a55.961 55.961 0 0 0 7.407-1.599c2.515 6.013 4.923 11.732 4.984 11.888.117-.049.268-.104.268-.104-.064-.185-2.458-5.881-4.969-11.864a51.225 51.225 0 0 0 2.679-.844l-.087-.25c-.892.303-1.792.587-2.696.854l-2.238-5.324c.383-.1.758-.213 1.137-.33.323.661.547 1.11.583 1.185.109-.054.159-.077.271-.135a85.1 85.1 0 0 1-.555-1.144 48.844 48.844 0 0 0 3.075-1.065c.451.769.905 1.532 1.337 2.28l.19.493c.033-.011.056-.024.08-.034 1.754 2.987 3.199 5.46 3.248 5.533.076-.031.174-.079.181-.079-.063-.098-1.497-2.564-3.239-5.526.86-.346 1.716-.711 2.554-1.097a5031.237 5031.237 0 0 1 7.252 10.546c.083-.042.134-.071.233-.113-.108-.164-3.702-5.384-7.247-10.543a57.29 57.29 0 0 0 2.717-1.356c5.044 6.84 10.883 14.768 11.007 14.935.11-.071.162-.101.276-.183-.15-.202-5.967-8.098-10.996-14.914.541-.292 1.07-.573 1.591-.888 1.896 2.105 3.375 3.754 3.43 3.815.064-.035.139-.079.146-.084-.059-.067-1.546-1.715-3.434-3.812.569-.342 1.14-.684 1.695-1.047 1.387 1.443 2.774 2.861 3.994 4.123a58.674 58.674 0 0 1-3.098 1.952l.091.15a66.93 66.93 0 0 0 3.134-1.975c2.276 2.34 3.956 4.083 4.019 4.142.09-.056.178-.117.204-.123-.083-.083-1.76-1.814-4.034-4.146a63.403 63.403 0 0 0 3.599-2.63c.307.164.533.434.555.834.096 1.359 1.069 3.282 1.86 3.778.494.317 1.117.416 1.699.396 1.027-.017 1.698-.195 2.527.538.933.811 1.486 1.899 1.854 3.069 0 0 .784-3.819-2.007-4.166-2.802-.334-4.266.1-4.379-1.622-.105-1.498.04-2.811-1.379-3.429l-.197-.065c-.159-.053-.328-.115-.531-.159-2.208-.465-3.145-.448-3.552-2.126-.059-.293-.245-.759-.589-1.207l-.358-.393c-.508-.487-1.232-.86-2.276-.827-.552.009-1.941-.033-1.952-1.815a2.518 2.518 0 0 0-.224-.963c.332-.242.669-.491 1.006-.738.24.215 2.019 1.818 2.27 2.038.077-.093.118-.136.204-.228-.116-.097-1.071-.953-2.239-2.003l-.269-.24zm-59.332 3.005c-1.054 1.516-2.183 3.132-3.276 4.7l3.276-4.7zm-3.08 4.84c1.094-1.563 2.219-3.177 3.276-4.696.762.57 1.537 1.123 2.327 1.647-1.022 1.644-2.082 3.333-3.038 4.864a49.572 49.572 0 0 1-2.565-1.815zm5.743-3.265a49.675 49.675 0 0 1-2.312-1.651c.535-.765 1.053-1.516 1.535-2.203a47.467 47.467 0 0 0 2.208 1.572c-.462.727-.936 1.494-1.431 2.282zm1.609-2.58c-.74-.5-1.469-1.026-2.186-1.567.519-.738 1.003-1.426 1.42-2.024a39.43 39.43 0 0 0 2.09 1.483c-.396.626-.835 1.342-1.324 2.108zm.63.399c.466-.76.897-1.482 1.286-2.106a42.49 42.49 0 0 0 3.201 1.889l-1.024 2.263a48.189 48.189 0 0 1-3.463-2.046zm-1.581 2.608c.478-.789.946-1.566 1.399-2.313a42.838 42.838 0 0 0 3.497 2.067 148.74 148.74 0 0 1-1.105 2.458 54.187 54.187 0 0 1-3.791-2.212zm5.171-.101c.564.287 1.136.583 1.711.86.129.056.249.107.374.166-.294.784-.613 1.633-.939 2.514-.193-.084-.386-.163-.582-.25a54.03 54.03 0 0 1-1.672-.824l1.108-2.466zm2.364 1.144c.489.221.972.442 1.455.649-.247.81-.514 1.682-.786 2.583-.544-.225-1.078-.472-1.612-.71.33-.887.65-1.728.943-2.522zm-1.032 2.769c.537.247 1.071.496 1.623.72-.257.805-.509 1.642-.768 2.487a51.709 51.709 0 0 1-1.776-.768c.315-.83.623-1.646.921-2.439zm-1.1 2.934c.597.273 1.196.531 1.799.772-.567 1.848-1.131 3.702-1.657 5.418a41.626 41.626 0 0 1-2.126-.878c.658-1.742 1.328-3.549 1.984-5.312zm2.077.886c.496.191.991.391 1.493.571-.502 1.827-1.009 3.693-1.484 5.459a54.862 54.862 0 0 1-1.675-.61c.527-1.719 1.103-3.578 1.666-5.42zm1.756.672c1.246.445 2.506.826 3.772 1.175-.427 2.258-.745 3.96-.756 4.027l.157.037c.018-.075.343-1.822.755-4.026.123.035.243.067.366.103a910.654 910.654 0 0 1-.695 4.014c.019 0 .105.026.161.04.008-.08.305-1.769.688-4.012.988.251 1.977.494 2.979.688-.206 1.922-.414 3.857-.601 5.635a60.003 60.003 0 0 1-8.305-2.221c.479-1.765.982-3.633 1.479-5.46zm7.672 2.104c1.591.311 3.193.528 4.814.695-.067 1.864-.139 3.789-.209 5.652a71.925 71.925 0 0 1-3.074-.36 66.913 66.913 0 0 1-2.134-.36c.195-1.777.402-3.712.603-5.627zm4.928-2.44c-.031.848-.057 1.717-.096 2.604a53.57 53.57 0 0 1-4.777-.697l.288-2.604c.276.047.555.112.838.164a51.16 51.16 0 0 0-.086 1.302c.119.007.179.012.299.018.008-.078.046-.562.091-1.261 1.141.198 2.288.355 3.443.474zm-3.244-3.441c1.109.205 2.231.349 3.356.477-.033.845-.065 1.755-.097 2.699a44.843 44.843 0 0 1-3.442-.479c.051-.75.121-1.697.183-2.697zm-1.027-.206c.237.042.481.109.725.151-.07.992-.13 1.944-.182 2.697-.279-.054-.553-.105-.831-.163.101-.938.196-1.842.288-2.685zm-2.855-.684c.862.238 1.733.443 2.604.624-.092.852-.185 1.759-.288 2.691a47.69 47.69 0 0 1-2.766-.652c.148-.891.305-1.794.45-2.663zm-.155-.043c-.136.827-.295 1.736-.454 2.669a4.718 4.718 0 0 0-.311-.079c.182-.935.35-1.84.509-2.656.08.028.17.042.256.066zm.352-3.315l.061.008c-.129.753-.264 1.518-.342 1.963.022.007.081.007.155.021-.054.303-.101.624-.165.972-.083-.023-.17-.041-.254-.068.318-1.682.545-2.896.545-2.896zm-4.073 2.13c1.098.394 2.193.759 3.306 1.071-.159.871-.331 1.769-.496 2.663a51.184 51.184 0 0 1-3.513-1.139c.247-.916.483-1.784.703-2.595zm-2.358 1.971c.277-.9.547-1.766.795-2.578.428.177.86.338 1.296.497-.226.82-.458 1.693-.705 2.603-.464-.17-.925-.333-1.386-.522zm.631 3.307a60.639 60.639 0 0 1-1.475-.564c.265-.849.518-1.677.765-2.49.464.187.925.358 1.394.522-.223.821-.458 1.671-.684 2.532zm3.998 1.271a50.342 50.342 0 0 1-3.726-1.171c.23-.856.459-1.705.685-2.526 1.163.424 2.337.807 3.532 1.141-.173.885-.329 1.744-.491 2.556zm1.108-2.397a43.06 43.06 0 0 0 2.788.654c-.097.849-.183 1.726-.284 2.606a49.169 49.169 0 0 1-2.948-.687c.143-.813.298-1.687.444-2.573zm-.598 2.536a5.968 5.968 0 0 1-.348-.104l.478-2.547c.106.026.208.047.313.074-.153.871-.303 1.747-.443 2.577zm8.953 2.088c.814.068 1.63.123 2.449.156l.019-.534a51.433 51.433 0 0 1-2.452-.146c.024-.897.042-1.773.062-2.626 1.085.095 2.179.16 3.279.179.281 3.153.579 6.475.784 8.794a57.456 57.456 0 0 1-4.274-.179c.039-1.851.084-3.777.133-5.644zm3.568-2.954c.254 0 .512.013.76.013 1.136 0 2.266-.041 3.391-.116.402 1.898.814 3.871 1.186 5.663a55.575 55.575 0 0 1-3.841.189l.006.267c1.3-.02 2.597-.087 3.894-.191.206.983.393 1.916.578 2.734a57.447 57.447 0 0 1-5.19.218c-.224-2.512-.541-6.104-.784-8.777zm5.701 5.8a58.384 58.384 0 0 0 1.839-.185c.31.746.017 1.538-.433 2.842-.274.032-.552.053-.836.077-.172-.824-.361-1.739-.57-2.734zm2.495-1.708c-1.496-1.07-1.02-1.436-.495-2.742.199-.516.237-1.168.137-1.815.685-.093 1.365-.217 2.046-.331.522 1.922 1.16 4.317 1.189 4.411.047-.018.38-.125.501-.167-.015-.072-.574-1.994-1.25-4.32a50.383 50.383 0 0 0 3.805-.891c.712 1.701 1.478 3.522 2.235 5.319a55.185 55.185 0 0 1-7.357 1.591c-.105-.353-.336-.717-.811-1.055zm-3.077-10.059a40.508 40.508 0 0 0 3.256-.414c.429 1.569.863 3.182.863 3.182s.25.952.58 2.146a50.67 50.67 0 0 1-2.025.326c-.192-.897-.637-1.751-1.275-2.167-1.158-.739-1.267-2.083-1.374-2.844l-.025-.229zm1.755 10.67c.239.223.405.444.529.654-.583.072-1.169.135-1.755.181-.377-1.788-.791-3.759-1.184-5.659.761-.05 1.518-.126 2.278-.216-.069.375-.251.699-.366.892-1.212 1.957-.07 3.633.498 4.148zm-3.604-10.525c.322-.02.653-.035.97-.056.021 1.497.262 3 1.531 3.757.801.471 1.017 1.013 1.002 1.514a42.47 42.47 0 0 1-2.368.225c-.422-2.026-.825-3.945-1.135-5.44zm-3.533 2.154c-.008-.113-.099-1.057-.198-2.109 1.136.033 2.28.022 3.421-.032.311 1.502.714 3.419 1.139 5.446a53.727 53.727 0 0 1-3.339.116c-.262 0-.522-.016-.782-.025-.178-1.975-.302-3.385-.302-3.385l.061-.011zm11.702-.307c-.062-.168-.591-1.47-1.119-2.791a35.72 35.72 0 0 0 1.554-.362c.585 1.379 1.319 3.153 2.147 5.119-1.25.339-2.509.636-3.777.879-.508-1.771-1.078-3.737-1.538-5.309.436-.075.872-.17 1.309-.26.54 1.344 1.076 2.667 1.14 2.831.119-.041.175-.059.284-.107zm2.869 1.893c-.823-1.967-1.562-3.738-2.155-5.124.276-.066.55-.13.823-.2.345.7.717 1.469 1.089 2.222-.177.053-.343.121-.517.163l.093.346c.199-.061.387-.13.588-.186.443.91.863 1.775 1.2 2.464-.373.099-.748.217-1.121.315zm.06-3.197c-.371-.751-.75-1.509-1.094-2.209.906-.271 1.8-.563 2.693-.876.378.644.806 1.365 1.262 2.133-.944.353-1.9.668-2.861.952zm.154.323c.969-.294 1.935-.61 2.88-.967.448.761.913 1.555 1.382 2.37-1.01.378-2.031.735-3.057 1.05a462.62 462.62 0 0 1-1.205-2.453zm4.448 1.326c-.468-.805-.94-1.603-1.379-2.359.732-.279 1.468-.55 2.182-.861.982 1.422 2.081 3.023 3.203 4.659-.837.364-1.678.727-2.533 1.071-.436-.745-.882-1.512-1.339-2.279.25-.1.491-.179.734-.28l-.094-.24c-.256.1-.513.189-.774.289zm4.237 1.317c-1.115-1.622-2.214-3.228-3.196-4.653a41.014 41.014 0 0 0 2.567-1.207c1.003 1.358 2.143 2.905 3.33 4.516-.885.467-1.784.923-2.701 1.344zm3.002-1.506c-1.203-1.613-2.335-3.159-3.339-4.513.358-.186.699-.391 1.056-.587 1.242 1.387 2.597 2.898 3.818 4.253-.504.289-1.02.575-1.535.847zm1.683-.94a794.69 794.69 0 0 1-3.818-4.244c.44-.242.887-.468 1.317-.73.077-.044.143-.09.216-.133 1.222 1.257 2.585 2.66 3.963 4.082-.555.352-1.115.697-1.678 1.025zm1.872-1.151a1285.316 1285.316 0 0 1-3.958-4.08 48.388 48.388 0 0 0 2.207-1.446c.056.185.094.38.107.58.068 1.337 1.632 2.853 2.982 3.055.483.072.863.089 1.158.168a49.087 49.087 0 0 1-2.496 1.723zm.38.386a54.028 54.028 0 0 0 2.622-1.827c.201.226.322.613.392 1.293.174 1.774 1.611 1.762 2.315 1.792.458.027 1.497-.045 2.211.254a61.226 61.226 0 0 1-3.554 2.605 2438.768 2438.768 0 0 1-3.986-4.117z"/>
    </g>
</svg>
