<svg xmlns="http://www.w3.org/2000/svg" xmlns:xlink="http://www.w3.org/1999/xlink" width="30" height="30" viewBox="0 0 30 30">
    <defs>
        <rect id="a" width="30" height="30" rx="4"/>
    </defs>
    <g fill="none" fill-rule="evenodd">
        <g>
            <use fill="#FFF" xlink:href="#a"/>
            <rect width="29" height="29" x=".5" y=".5" stroke="#A19062" rx="4"/>
        </g>
        <g fill="#A19062">
            <path d="M14.729 10.734a.794.794 0 0 0-.765.792.773.773 0 0 0 .785.767c.431-.006.758-.348.754-.79a.764.764 0 0 0-.774-.77m-4.072.805a.794.794 0 0 0-.752-.804.769.769 0 0 0-.79.755.762.762 0 0 0 .743.8.78.78 0 0 0 .799-.751m7.805.71c-1.696.09-3.171.618-4.368 1.812-1.21 1.206-1.762 2.684-1.611 4.516-.663-.084-1.267-.177-1.874-.23-.21-.018-.458.008-.636.111-.59.342-1.155.728-1.825 1.158.123-.571.203-1.071.344-1.553.103-.353.055-.55-.262-.78-2.035-1.478-2.894-3.689-2.251-5.965.594-2.105 2.053-3.382 4.035-4.048 2.706-.908 5.747.018 7.392 2.227a5.287 5.287 0 0 1 1.056 2.751"/>
            <path d="M21.21 16.733a.665.665 0 0 0-.664.631.654.654 0 0 0 .656.683c.363.001.65-.27.664-.626a.66.66 0 0 0-.656-.688m-4.176 1.318c.362 0 .66-.279.674-.631a.669.669 0 0 0-.67-.688.676.676 0 0 0-.677.683.67.67 0 0 0 .673.636m6.478 6.18c-.569-.25-1.09-.624-1.647-.682-.553-.057-1.135.258-1.715.316-1.765.178-3.345-.306-4.65-1.494-2.478-2.259-2.124-5.722.744-7.574 2.55-1.645 6.289-1.096 8.086 1.186 1.568 1.992 1.384 4.637-.53 6.31-.555.485-.754.883-.399 1.522.066.118.073.267.111.416"/>
        </g>
    </g>
</svg>
