<svg xmlns="http://www.w3.org/2000/svg" width="133" height="133" viewBox="0 0 133 133">
    <g fill="#614A0B" fill-rule="evenodd">
        <path d="M78.066 66.88c.6-.434 1.073-1.006 1.538-1.551.382-.45.781-.916 1.245-1.324-.517-.105-1.051-.216-1.582-.31-.386-.068-.766-.162-1.147-.247l.035.39c.05.24.142.857-.171 1.365-.233.367-.617.617-1.172.744-.722.189-2.015.917-2.068.947l-.056.027.04.047c.018.015 1.308 1.39 3.338-.087zm19.47 22.944l-.053.022c-.695.266-6.411 2.247-10.032-4.775-.382-.703-.846-2.78-1.668-4.623.23-.396.443-.807.648-1.232 2.505-.521 4.388-1.699 4.746-2.239-1.402.467-2.853.602-4.024.602a23.094 23.094 0 0 0 1.426-5.395c3.262-.047 6.6-.423 8.422-1.69 3.982-2.767 4.896-5.887 4.674-9.276 0 0-2.516 6.44-10.435 3.94-.574-.17-1.712-.848-3.023-1.482-.219-.937-.487-1.86-.817-2.754 1.475-.583 3.521-1.065 4.512-1.29-1.543-.718-3.505-.373-4.982.09-.046.01-.429-.925-.466-1.006-.139-.299-.262-.601-.402-.906a.142.142 0 0 1-.032.034c.006.009.006.014.011.025-.953.59-2.459.836-4.817.151-.046-.007 2.218-.469 4.152-1.474-.271-.397-.581-.774-.843-1.183-.067-.108-.495-.903-.653-.83 2.613-2.507 5.459-5.691 5.925-8.21.828-4.452-.57-7.088-2.887-9.147 0 0 2.478 5.864-4.278 9.487-.78.444-3.436 1.002-5.272 2.16-.673-.39-1.37-.75-2.08-1.075-.031-1.158-.29-3.73-2.097-4.437 0 0 .953 1.645.716 3.873.017-.205-2.717-.803-2.986-.876-.195-.047-.38-.093-.571-.128l.1.333c.024-.011.035-.012.035-.012s-.005.012-.025.042c.19.612.383 1.204.548 1.767a3.424 3.424 0 0 1-1.185-.662c-.146.231-.294.458-.442.67-1.883 1.79-2.619 4.149-2.15 5.634.469 1.475.165 2.724-.607 4.289.499-2.967-.765-4.013-1.668-6.1-.907-2.098.51-5.36.51-5.36-.02.597-.106 2.98.303 4.394.023-.79.24-1.314 1.33-2.67.547-.693 1.421-1.199 2.135-1.526a3.867 3.867 0 0 1-.466-1.046c-.268-.032-.537-.054-.814-.078.177-4.125.05-9.293-1.594-11.754-1.848-2.77-3.858-4.082-6-4.569l-.202-.036a10.155 10.155 0 0 0-2.244-.189l-.223.01c-.147.002-.29.007-.429.021 0 0 .18.07.46.225l.242.142c1.566.95 5.1 3.878 3.161 10.273-.322 1.14-2.588 4.511-2.588 7.129-.26.096-.52.19-.769.298l-.095-2.542s-.912.961-.871 2.95c-.145.07-.288.142-.428.215-.617-1.124-1.534-2.493-2.482-2.857.272.913 1.157 2.296 1.054 3.313.076.062.166.114.234.184.452.414.791.928 1.144 1.45.532.777 1.025 1.581 1.418 2.445-.105-.173-.345-.29-.497-.411-.426-.358-.86-.696-1.297-1.035-.513-.405-1.078-.743-1.592-1.143-.16-.125-.312-.255-.469-.378-.943.503-2.34 1.233-2.162 1.436-2.755-3.091-6.553-6.837-9.5-7.404-4.254-.828-6.943.343-9.037 2.437 0 0-.569.56-.706.764 2.81-.88 3.957-.381 4.246-.341.283.051 3.475.416 5.87 5.066.346.681.799 2.573 1.549 4.341-1.3-.034-3.085.037-3.925.634.055-.035.515.121.582.14.489.095.973.207 1.461.316 1.408.305 2.477.552 3.557 1.58.019.027-.506 1.186-.671 1.601 1.107.325 1.88 1.024 2.403 1.725-.685-1.172-1.125-2.64-1.001-4.504 2.518 3.42 2.512 5.897 7.785 6.223 5.012.302 6.118-.121 9.211 2.427-1.798-.023-5.816-1.239-8.969 1.38 2.268-.178 7.75-1.3 10.068-.23.291-1.313 1.558-4.003-.084-7.4-.266-.565-.566-1.125-.863-1.682-.451-.848-.93-1.675-1.458-2.479-.37-.564-.778-1.093-1.18-1.63.017-.025 1.304.815 1.808 1.234.503.412.974.856 1.403 1.343.43.485.822 1.02 1.135 1.594a7.85 7.85 0 0 1 .742 2.015c.095.39.165.78.216 1.177.03.204.059.413.082.615.015.104.026.206.032.31.007.048.07.284.043.316 1.093-1.292 2.939-3.83 1.77-7.502 1.2 1.621 1.436 2.059 1.436 2.059.67-1.303.14-3.932-1.352-5.735.927-.007 2.264-.037 3.815 2.32 1.652-1.651 3.33-2.82 5.216-2.881-1.594 1.22-4.608 3.503-4.214 5.53-1.57.452-2.204.556-3.332 2.948-1.128 2.4-3.688 5.895-5.163 9.813-.146 2.985.01 6.84-.069 9.144-.081 2.303-1.104 3.93-3.37 4.019-2.258.092-4.647 3.768-4.937 5.936 0-2.436.214-3.794.975-5.1-1.08.822-2.623 1.835-2.922 4.387-.113-2.692.973-5.133 3.752-6.532 2.768-1.395 3.801-1.016 4.174-4.467.37-3.447.179-5.113.179-5.113s-.81.439-1.553 3.697c-.745 3.269-2.705 5.627-5.485 4.76-.676-.21-1.356-.423-2.037-.628-.374-.111-.753-.226-1.136-.337-.116-.033-.58-.071-.711-.216l-.021.002-.014-.002a.598.598 0 0 0-.057.036l-.009.035c-1.207.846-3.366 2.54-3.537 3.91.02-.11-.095-.325-.125-.436a9.03 9.03 0 0 1-.237-1.136c-.173-1.063-.21-2.226.084-3.278l-.007.006a11.442 11.442 0 0 0-1.768-.167s.746-.348 2.038-.553c.003-.014.003-.014.006-.014.536-1.13 1.484-1.908 2.647-2.295 1.929-.66 4.108-.398 6.06-.013-.397.765-.604 1.434-.982 1.931-.017.005-.177.07-.415.169.162-.034.306-.074.424-.117-.01.014-.022.025-.026.034.05-.044.103-.093.166-.126a5.6 5.6 0 0 0 .924-.725c.602-.59 1.06-1.338 1.253-2.188.592-2.624 3.935-4.723 5.737-4.826-.602-.709-2.127-1.49-4.374.357-2.24 1.837-5.236 3.689-7.352.794-.598-.875-.077-1.457-1.524-1.894-1.457-.435-3.048-.413-3.625-4.232 2.038 1.488 2.486 1.883 5.29 2.16-1.007-.786-2.854-1.824-4.145-3.604a6.09 6.09 0 0 1 .551 1.265c-1.3-1.42-3.825-1.98-3.98-2.012-.028.074-.053.136-.079.223-.018.072-.182.748-.22.748-.727.06-2.02-.032-4.194-.683 0 0 1.986 1.624 3.905 1.88-.142.67-.26 1.352-.351 2.043-4.028-.621-7.328.674-8.388 1.855-4.63 4.613-9.51 3.62-9.51 3.62s3.038 1.506 4.627 1.799c1.59.294 5.253.309 8.36-.392 1.347-.309 3.48.68 5.47 1.9.122.49.237.994.38 1.478a10.074 10.074 0 0 1 1.875-.653 13.202 13.202 0 0 1 1.609-.258c.056-.008.618 0 .64-.043-.35.703-1.078 1.181-1.731 1.563-.573.337-1.182.59-1.792.844.141.35.272.703.43 1.046.156.335.319.658.491.985.054.1.418.92.505.92l-3.1.156s2.101 1.142 3.905 1.15c0 .008.004.012.012.018a22.1 22.1 0 0 0-1.154 1.481c-1.928.379-4.07.576-4.07.576.765.548 2.132.816 3.052.938-1.23 1.997-2.292 4.422-2.377 6.837-.002 3.262-.498 7.676-2.356 8.541 4.071-2.066 6.177-3.39 6.943-5.696.634-1.903 2.187-5.279 6.434-6.266.153.095.301.19.452.28a14.795 14.795 0 0 0-.255 3.868c.3-.869.713-2.267 1.044-3.396-.022.09 1.558.808 1.706.874.42.192.839.362 1.264.512.167-.387.352-1.012.516-1.62a14.51 14.51 0 0 1-2.037-.099c.697-.007 1.454-.25 2.22-.648.144-.582.236-1.027.236-1.027.115.232.21.484.297.729 3.584-2.145 7.327-7.2 7.327-7.2-.721 5.273-3.812 7.588-4.825 9.976-.212-.074-.606-1.396-.041-2.83-.628.445-1.244.823-2.216 1 .21 1.053.19 1.988.182 2.234.078.044.16.085.24.112.248.103.5.169.76.23.164.04 1.923.388 1.923.396-.017 3.568.317 7.368 1.655 9.377 2.717 4.057 5.778 4.982 9.096 4.757 0 0-6.313-2.565-3.857-10.642.195-.692 1.09-2.187 1.78-3.836a21.718 21.718 0 0 0 3.293-1.074c1.967.924 2.369 2.631 2.873 4.187.784-1.773-.526-3.638-1.577-4.77.425-.198.833-.47 1.264-.658.01-.007.013-.014.026-.019a3.588 3.588 0 0 1-.865-1.36 6.378 6.378 0 0 1-.34-1.807c.061.08.122.163.18.242.613.801 1.241 1.608 1.912 2.363.097-.045.192-.098.283-.156.13-.089 1.516-1.082 1.522-1.082 2.517 2.62 5.51 5.235 7.918 5.7 2.151.417 3.906.32 5.382-.143l.367-.13c1.584-.572 2.845-1.594 3.947-2.868l.025-.04zM81.614 85.94a23.315 23.315 0 0 0 3.674-4.424c1.079 8.513 7.971 9.238 9.652 9.377-6.012 3.218-10.869-1.608-13.326-4.953zm-2.842-.094a32.94 32.94 0 0 0-2.146-.095c-.454-.009-.909.005-1.358-.04a3.572 3.572 0 0 1-.529-.072 4.298 4.298 0 0 0-.32-.06c-.01 1.834-.497 3.504-.696 4.619.092-1.716-.325-3.49-.962-5.158-.32-.16-.602-.384-.87-.613-.794-.672-1.166-1.639-1.283-2.661a8.225 8.225 0 0 1-.058-1.03c-1.243-1.955-2.37-3.25-2.37-3.25a14.71 14.71 0 0 1 2.22 1.106c-.064-.254-.199-.518-.312-.747-.437-.867-1.16-1.51-1.882-2.134-.811-.708-1.605-1.434-2.205-2.349-1.686-2.584-.058-5.296-.058-5.296 1.005-.093 2.378 1.224 3.781 2.57 1.404 1.343 2.168 1.83 5.192 1.763 3.03-.077 5.43 1.12 5.807 1.627-3.115-.699-6.244-.223-6.77-.003-2.06 1.004-4.113.003-5.3.298 5.797 2.776 7.756 6.48 8.618 8.604-1.435-2.211-2.712-2.868-4.516-4.016.029.018-.028.518-.022.58 0 .224.007.436.034.657.013.163.007.318.007.484a7.116 7.116 0 0 1 1.46 3.062c.393.08.856.08 1.2.12.53.078 1.064.174 1.588.296.728.172 1.458.402 2.126.743.356.189.704.408.991.7.054.05.323.48.373.482a25.44 25.44 0 0 0-1.74-.187zm-8.937 18.494c-5.807-2.114-5.418-8.547-4.635-12.27.054.004.112.013.16.013 1.598.061 3.17-.058 4.682-.325-3.881 6.443-.442 11.72-.207 12.582zm2.755-38.685c.845-.093 2.705.314 3.519-2.151.055-.173.112-.33.17-.498-.458-.12-.922-.22-1.376-.36-.245-.077-.486-.144-.723-.244-.07-.038-.257-.084-.278-.169.012.028 1.035 0 1.109 0 .506.004 1.015.028 1.526.028.078-.21.149-.43.239-.624.168-.398.373-.767.639-1.103.282-.367.616-.666.992-.929.22-.164.466-.312.7-.458.159-.08.713-.26.791-.407-.34.646-.762 1.26-1.09 1.912-.204.41-.368.83-.493 1.268-.027.087-.033.162-.027.236.124-.012.247-.027.366-.036.247-.029.475-.01.715-.057.259-.05.53-.065.797-.105.887-.127 1.764-.29 2.623-.558.994-.312 2.056-.768 2.725-1.624a11.63 11.63 0 0 1-1.694 2.09c-.279.278-.575.543-.877.802-.145.125-.552.35-.687.552.13-.036.259-.092.398-.136.722-.197 1.465-.25 2.206-.217.783.025 1.261.224 1.823.556-.082-.05-.498.058-.601.067l-.995.076c-.402.037-.805.081-1.202.153-.096.02-.197.054-.3.086.56.139 1.138.23 1.703.362.856.196 1.708.415 2.559.662 1.592.467 3.213.997 4.688 1.796.104.053.21.119.317.177 1.555-.11 6.55-.316 7.96-2.271-.424 1.351-1.454 5.678-10.78 5.076-.895-.027-3.094-.36-4.2-.823-.14-.058 3.32-1.11 5.227-.89-.455-.057-.918-.226-1.359-.332-1.609-.362-3.216-.697-4.802-1.146-.74-.211-1.472-.44-2.174-.74-.333-.14-.845-.317-1.172-.6a1.194 1.194 0 0 1-.172-.196 1.13 1.13 0 0 0-.35.4c-1.003 1.909-2.708 2.342-.942 3.635 1.763 1.297 1.723 2.493 6.61 2.682-1.548.34-5.845 1.354-8.637-1.797-2.016-.228-2.537-.092-4.634-1.34-.894-.371-3.71-.32-4.45-.786-.087-.05.274-1.645 3.613-2.019zM88.04 40.447c.798 2.253 3.53 8.254-5.824 11.934a22.547 22.547 0 0 0-3.186-2.69c3.44-1.068 9.335-3.742 9.01-9.244zm-26.653 5.705c5.421-5.397 1.518-12.02 1.518-12.02 5.283 1.684 4.776 8.432 4.238 11.526a22.259 22.259 0 0 0-5.756.494zm.034 10.104c.223 1.034.482 2.047.77 3.069.277.98.573 1.953.88 2.93.247.8.506 1.602.767 2.399.016.07.042.144.067.22.01.043.028.169.06.193-3.126-2.764-7.667-2.419-9.305-2.345-5.041.414-6.59-4.147-6.438-3.998 2.84 2.753 5.07 2.363 7.629 2.328-1.779-.615-2.565-2.185-3.558-3.846 2.924 2.928 3.988 2.411 5.277 2.67-3.14-4.856-5.228-3.988-6.604-4.084-1.379-.098-1.98-.924-1.98-.924s.44-.586 2.639-1.101c2.196-.524 3.774-1.231 5.266 1.597 1.49 2.835 2.756 4.887 4.605 6.021-1.405-1.76-2.466-6.196-2.382-8.582.086-2.397-.29-3.644-1.002-4.825.996.332 2.825 1.765 2.814 4.545 0 .27.01.542.039.807.08.982.25 1.963.456 2.926zM39.051 46.16s6.77-2.75 11.708 5.607a23.09 23.09 0 0 0-3.372 3.97c-.53-3.27-2.323-8.44-8.336-9.577zM48.688 82.5s2.542-4.437 6.965-1.539c-1.874.955-4.725 2.219-6.965 1.54zm-4.4 14.455s-2.657-8.373 5.184-12.292a23.63 23.63 0 0 0 3.033 2.778c-2.437.998-6.387 3.491-8.218 9.514zm.03-24.827s3.444 2.129 9.56.943c-3.069 1.47-7.296 2.557-9.56-.943zm-5.578-1.657c-1.556-.34-3.1-.22-4.681.862-1.386.938-2.887.737-3.23.674a.205.205 0 0 1-.05.04l-.026-.062s.026.013.075.022c.338-.313 2.629-2.422 4.654-3.768 1.511-1.015 5.006-1.814 7.988-1.125-.023.302-.045.612-.057.912a23.758 23.758 0 0 0 .246 4.353c-1.382-.784-3.153-1.603-4.92-1.908z"/>
        <path d="M119.909 74.263c-1.188.427-1.917.648-2.649.246.16-1.132.27-2.272.357-3.42.86.18 1.718.355 2.571.525a55.677 55.677 0 0 1-.28 2.649zm-.476 3.054c-.824-.267-1.66-.539-2.51-.806.031-.153.05-.297.078-.436.742.21 1.462-.204 1.895-.437.202-.109.527-.322.897-.517a51.045 51.045 0 0 1-.36 2.196zm-.253 1.308c-.8-.284-1.628-.581-2.48-.885.058-.316.118-.625.18-.942.845.277 1.686.538 2.506.801-.071.344-.14.692-.206 1.026zm-.858 3.516c-.786-.332-1.597-.67-2.42-1.005.104-.373.208-.747.299-1.12.16-.666.3-1.331.444-2 .848.301 1.675.596 2.473.881a53.709 53.709 0 0 1-.796 3.244zm-1.358 4.275c-.757-.353-1.544-.73-2.366-1.111a52.54 52.54 0 0 0 1.23-3.886c.823.34 1.634.675 2.426 1.005a57.54 57.54 0 0 1-1.29 3.992zm-2.59-1.215a945.618 945.618 0 0 0-4.891-2.305c.01-.018.012-.036.024-.056.41-1.18.77-2.379 1.084-3.59.739.3 1.5.62 2.273.943-.025.08-.037.167-.067.253l.482.137c.02-.064.03-.137.049-.202.749.31 1.515.626 2.267.94-.36 1.306-.767 2.6-1.22 3.88zm-.215.557l-2.042-.997.135-.29s.845.395 2.032.954c-.038.113-.082.22-.125.333zm-2.878 6.432c-1.476-.998-3.02-2.048-4.498-3.055a47.152 47.152 0 0 0 2.423-5.511c1.605.77 3.27 1.584 4.87 2.363a53.51 53.51 0 0 1-2.795 6.203zm-4.702-3.192c-.728-.494-1.43-.975-2.096-1.425a44.875 44.875 0 0 0 2.227-5.157c.724.352 1.487.721 2.276 1.096a48.598 48.598 0 0 1-2.407 5.486zm-2.509 4.3c-.44-.375-1.153-.957-1.953-1.62a44.393 44.393 0 0 0 2.248-3.884c.67.45 1.373.924 2.096 1.417a48.123 48.123 0 0 1-2.39 4.088zm-3.585 4.784c-1.311-1.34-2.6-2.653-3.633-3.706a42.972 42.972 0 0 0 3.063-4.155c.59.495 1.202 1 1.785 1.485a44.023 44.023 0 0 1-2.225 3.1l.256.21a44.653 44.653 0 0 0 2.236-3.093c.803.67 1.511 1.252 1.956 1.62a46.517 46.517 0 0 1-3.438 4.54zm-4.347 4.471c-1.177-1.534-2.27-2.952-3.163-4.122a41.345 41.345 0 0 0 3.345-3.436 1353.48 1353.48 0 0 1 3.564 3.775 47.091 47.091 0 0 1-3.746 3.783zM32.927 44.586c-.593-.291-2.301-1.128-4.528-2.234l.643-.966c.7.552 1.63.923 2.475 1.249 1.534.586 2.02.735 2.02.735s.525-.37.087-.659c-.444-.285-2.227-.915-2.83-1.274-.327-.186-.797-.447-1.2-.828a42.591 42.591 0 0 1 1.934-2.497c2.579 1.759 4.393 3.004 4.47 3.052.086-.094.14-.156.237-.273-.2-.136-2.582-1.767-4.465-3.06a42.37 42.37 0 0 1 2.095-2.307c.656.535 1.258 1.031 1.788 1.469-.087.09-.177.173-.264.262l.467.475c.107-.105.212-.204.314-.306 1.08.899 1.79 1.481 1.836 1.52.08-.074.123-.112.21-.201-.068-.051-.768-.636-1.842-1.523a41.77 41.77 0 0 1 3.4-3.051c.918.97 1.535 1.616 1.563 1.654.048-.038.155-.125.22-.168-.036-.042-.638-.708-1.533-1.69.227-.178.462-.348.689-.522.819.965 1.438 1.703 1.508 1.787a2.9 2.9 0 0 1 .23-.184c-.083-.093-.698-.815-1.502-1.772.36-.265.72-.53 1.093-.784a873.19 873.19 0 0 0 1.438 1.824c.084-.055.13-.083.22-.145-.043-.05-.587-.742-1.446-1.826.159-.116.329-.225.49-.336.777 1.06 1.304 1.798 1.36 1.87.093-.06.139-.097.236-.16-.055-.079-.59-.814-1.36-1.873.604-.394 1.22-.769 1.846-1.128.72 1.157 1.165 1.881 1.204 1.932.101-.06.153-.09.265-.154-.037-.056-.483-.778-1.2-1.927.445-.253.885-.506 1.342-.737a191.717 191.717 0 0 1 1.092 1.99c.102-.052.152-.076.258-.133-.034-.053-.445-.806-1.093-1.982.384-.202.767-.397 1.158-.582.288-.134.58-.252.874-.385.236.509.903 1.89.996 2.085a25.9 25.9 0 0 0 .714-.298c-.021-.054-.386-.867-.953-2.118.372-.154.75-.307 1.126-.46.481 1.25.783 2.036.803 2.1.107-.045.16-.064.264-.112-.022-.054-.319-.836-.801-2.082.697-.259 1.396-.506 2.103-.732.08.726.154 1.53.245 1.823.158.477.667.06.667.06s-.003-.492-.13-2.069v-.047c.142-.036.285-.087.428-.126.314 1.212.531 2.06.555 2.153.151-.044.27-.075.413-.12-.02-.08-.233-.92-.551-2.166.713-.19 1.434-.357 2.159-.51.232 1.293.375 2.117.386 2.19.114-.028.168-.045.277-.064-.01-.069-.156-.887-.384-2.179.257-.052.515-.095.768-.137l.204 1.56.033.252.05.385c.1-.023.155-.032.22-.046 0-.014-.013-.088-.021-.191l-.056-.407-.21-1.597c.779-.13 1.558-.243 2.344-.343.093 1.145.154 1.98.171 2.19l.635-.06c-.007-.07-.063-.916-.15-2.198a39.294 39.294 0 0 1 3.4-.203c-.065 1.187-.11 2.07-.118 2.19.121-.004.175-.004.288-.006 0-.097.053-.993.116-2.173.61-.01 1.23-.014 1.85.005l.021-.67c-.612-.024-1.224-.016-1.838-.014.04-.743.084-1.556.12-2.358.606 0 1.2 0 1.805.022.118.008.231.02.348.026-.348 2.975-.602 5.065-.616 5.177h.132s.107.007.16.012c.005-.098.255-2.195.61-5.173.492.025.984.056 1.476.095-.524 2.925-.904 5.036-.921 5.142.12.008.173.015.278.02.014-.084.392-2.21.918-5.142.423.041.85.09 1.273.144-.614 2.919-1.059 4.997-1.078 5.105.112.019.162.019.265.032l1.084-5.105c1.075.133 2.136.308 3.19.526-.805 2.721-1.469 4.977-1.496 5.066.13.026.347.069.45.097.009-.017.037-.106.078-.247.066.011.146.03.213.038.016-.078.78-2.364 1.272-3.842-.03-.01-.151-.047-.266-.087.093-.296.185-.598.282-.905.815.177 1.621.373 2.418.598-1.062 2.768-1.83 4.78-1.869 4.878.1.022.148.041.232.067.03-.085.8-2.1 1.864-4.883.222.064.442.12.66.18-.952 2.25-1.967 4.618-2.057 4.823.128.035.175.042.282.08.065-.157 1.086-2.556 2.047-4.813a45.59 45.59 0 0 1 2.992 1.06 2218.32 2218.32 0 0 0-2.214 4.772c.207.074.468.157.638.21.038-.082.945-1.992 2.249-4.717.836.338 1.655.702 2.473 1.104l.145-.308a50.355 50.355 0 0 0-2.472-1.102c.342-.717.71-1.486 1.102-2.298.932.39 1.859.812 2.774 1.267-1.028 1.65-2.01 3.211-2.774 4.436-.046-.022-.087-.045-.137-.067l-.275.61a.59.59 0 0 1 .052.033c-.707 1.12-1.165 1.858-1.201 1.91.093.047.147.077.226.11l1.198-1.909c.937.456 1.857.953 2.768 1.476-.81 1.007-1.343 1.675-1.4 1.743l.256.142 1.391-1.74c.305.182.602.36.894.55-.046.105-.099.208-.149.31-.74 1.534-.941 2.026-.941 2.026s.319.584.653.157c.235-.301.714-1.288 1.119-2.056.818.54 1.617 1.098 2.403 1.693-.757.847-1.419 1.571-1.468 1.633.03.029.147.124.19.174.03-.026.645-.688 1.522-1.623.313.242.615.496.925.752-.839.728-1.584 1.378-1.713 1.49.104.08.148.122.228.19.093-.083.851-.745 1.708-1.497.382.317.758.647 1.133.978-1.029.87-1.675 1.425-1.738 1.474.095.088.137.124.205.193.042-.036.695-.594 1.737-1.48.189.165.378.332.566.508-.993.738-1.741 1.3-1.842 1.382.093.089.138.134.212.199.072-.052.828-.62 1.842-1.386.632.605 1.24 1.238 1.834 1.878-1.17.752-1.95 1.253-2.005 1.283.056.062.085.091.13.143.038-.027.821-.529 1.999-1.286.355.385.705.77 1.048 1.172l.498-.432c-.31-.382-.649-.74-.979-1.108.59-.374 1.255-.801 1.965-1.251.484.542.972 1.086 1.43 1.659-2.678 1.456-4.648 2.53-4.753 2.584.082.086.11.126.162.187.075-.036 2.048-1.108 4.745-2.572a46.342 46.342 0 0 1 1.61 2.132c-2.755 1.375-4.678 2.349-4.797 2.406.083.116.12.168.18.261.074-.04 2.016-1.013 4.795-2.402.204.303.404.618.597.922a1229.456 1229.456 0 0 1-5.14 1.97c.046.06.072.09.107.133.062-.024 2.34-.9 5.126-1.964.272.413.562.821.818 1.248.028.047.051.093.079.141a1183.01 1183.01 0 0 1-5.218 1.77c.064.083.085.122.137.187.074-.028 2.25-.768 5.197-1.772.446.764.875 1.537 1.286 2.32-.637.488-1.427.6-1.929.703-.683.135-2.567.142-3.08.264-.5.124-.122.65-.122.65s.502.016 2.134-.03c1.185-.029 2.508-.092 3.448-.687l.363.749c-.86.229-4.921 1.32-5.293 1.416.086.175.15.302.211.433.166-.046 2.967-.789 5.287-1.395.432.951.832 1.914 1.198 2.884-2.828.52-5.25.97-5.43.997.048.125.072.178.112.278.115-.03 2.562-.475 5.417-.993.113.324.231.653.342.983-3.028.462-5.324.808-5.46.828.04.132.061.184.093.28.097-.016 2.406-.366 5.465-.835.362 1.092.677 2.192.958 3.307l.317-.081a42.075 42.075 0 0 0-.946-3.267c.8-.125 1.652-.26 2.52-.39.456 1.422.84 2.862 1.158 4.316-1.744.12-3.642.25-5.2.352a39.868 39.868 0 0 0-1.04-3.644l-.626.215c.387 1.15.712 2.306.996 3.477l-2.582.178c.06.23.144.553.186.728.09-.001 1.164-.065 2.566-.145.233 1.026.427 2.05.577 3.096-1.289-.039-2.102-.061-2.175-.061.022.113.028.167.043.259.045 0 .87.023 2.16.06a40.65 40.65 0 0 1 .33 3.325 223.39 223.39 0 0 0-2.645-.318c.01.124.014.184.02.29.068.007 1.097.135 2.64.326.066 1.229.077 2.466.035 3.708 0 .014 0 .018-.006.024-1.566-.319-2.564-.52-2.65-.54-.012.133-.012.268-.02.298.065.014 1.064.211 2.65.536a40.682 40.682 0 0 1-.187 2.63c-.266 0-.534.008-.788.015-1.762.051-2.309.096-2.309.096s-.373.596.177.699c.024.001.052.001.073.007-.004.045-.012.082-.02.142.058.013 1.06.337 2.633.844-.027.192-.047.388-.076.578-1.554-.555-2.561-.912-2.636-.94-.023.122-.023.18-.047.276.056.016 1.068.378 2.63.934a39.285 39.285 0 0 1-.519 2.57c-1.536-.634-2.529-1.037-2.602-1.073-.032.12-.04.178-.07.282.056.028 1.052.436 2.6 1.08-.155.64-.31 1.282-.493 1.917l.635.184c.177-.613.326-1.23.474-1.849.652.27 1.385.576 2.168.896a42.842 42.842 0 0 1-1.04 3.522c-2.974-1.407-5.21-2.453-5.317-2.506-.063.195-.159.485-.202.644l5.276 2.565a45.767 45.767 0 0 1-2.211 5.116c-2.754-1.87-4.832-3.286-4.934-3.35a5.16 5.16 0 0 1-.112.224c.081.047 2.163 1.467 4.932 3.343a41.781 41.781 0 0 1-2.23 3.86c-.588-.486-1.202-1-1.79-1.486.448-.698.883-1.41 1.295-2.15l-.583-.323c-.387.693-.8 1.37-1.228 2.047a398.394 398.394 0 0 1-2.32-1.922c-.067.108-.097.153-.158.246.078.067.767.64 1.689 1.404l.028.02c.197.16.394.325.605.498a42.354 42.354 0 0 1-3.011 4.097l-1.753-1.784s-.474.47-.53.531c.042.041.762.802 1.756 1.865a39.422 39.422 0 0 1-3.293 3.396c-1.124-1.465-1.858-2.434-1.909-2.489-.093.077-.125.108-.216.185.05.06.783 1.01 1.911 2.49-.386.346-.767.695-1.162 1.027l.421.516c.386-.325.77-.672 1.15-1.015 4.516 5.895 14.08 18.368 14.256 18.601.015-.014.114-.103.215-.187-.129-.171-6.186-8.07-10.94-14.274a48.863 48.863 0 0 0 3.764-3.808c.611.652 1.19 1.267 1.688 1.788a49.081 49.081 0 0 1-3.811 3.852l.33.374c1.353-1.21 2.612-2.512 3.82-3.865.684.723 1.152 1.214 1.184 1.25.089-.07.29-.253.29-.253s.188.203.475.502a52.535 52.535 0 0 1-3.511 3.63l.169.185a54.323 54.323 0 0 0 3.517-3.64l1.823 1.91a58.051 58.051 0 0 1-3.51 3.616l.108.128a58.228 58.228 0 0 0 3.52-3.619c.317.33.558.57.595.615a1.31 1.31 0 0 0 .141-.127c-.043-.052-.294-.303-.61-.634.062-.072.123-.14.187-.209.322.332.575.588.625.642.07-.069.137-.13.137-.13-.02-.026-.253-.263-.635-.654.568-.65 1.125-1.31 1.669-1.98a58.711 58.711 0 0 0 4.722-6.951l-.14-.082a58.895 58.895 0 0 1-4.715 6.919 62.782 62.782 0 0 1-1.657 1.973c-.456-.462-1.091-1.115-1.84-1.88.154-.19.335-.36.49-.543l-.192-.17c-.15.182-.315.356-.475.535-.527-.539-1.102-1.132-1.707-1.747a51.934 51.934 0 0 0 3.914-5.186l-.415-.28a49.395 49.395 0 0 1-3.854 5.103c-.566-.569-1.147-1.168-1.724-1.76a46.862 46.862 0 0 0 3.447-4.558c.148.12.254.215.284.234l.18-.226a14.31 14.31 0 0 1-.302-.252 52.311 52.311 0 0 0 2.391-4.102c1.483 1 3.023 2.047 4.496 3.052-.201.371-.4.748-.612 1.119l.212.123c.211-.36.41-.732.605-1.103 3.766 2.549 6.967 4.73 7.08 4.807.057-.092.124-.21.124-.217-.092-.067-3.308-2.253-7.08-4.812a53.937 53.937 0 0 0 2.812-6.234c4.122 2.002 7.65 3.716 7.783 3.771.037-.097.052-.14.083-.226-.166-.085-4.867-2.365-7.776-3.774.038-.11.078-.218.121-.33.711.339 1.535.72 2.368 1.116-.03.066-.053.148-.081.221l.165.05c.018-.062.045-.134.063-.205l5.311 2.503c.033-.1.052-.145.083-.235a962.626 962.626 0 0 1-5.308-2.496 57.446 57.446 0 0 0 1.3-4.002c4.807 1.995 8.864 3.676 9.01 3.74l.087-.278c-.128-.052-4.196-1.74-9.028-3.738.295-1.083.554-2.165.79-3.254 3.748 1.33 6.685 2.383 6.805 2.42l.06-.263c-.1-.04-3.044-1.087-6.802-2.427.071-.345.144-.692.203-1.035 4.98 1.603 9.197 2.95 9.35 3 .006-.024.025-.148.061-.284-.13-.036-4.358-1.39-9.359-2.999.143-.779.268-1.56.376-2.342.746-.357 1.62-.592 2.105.131.778 1.161 2.612 2.364 3.565 2.388.593.017 1.183-.221 1.687-.541.883-.561 1.38-1.066 2.482-.856 1.233.245 2.272.91 3.195 1.758 0 0-1.274-3.8-3.903-2.639-2.612 1.165-3.662 2.319-4.648.852-.987-1.47-1.565-2.895-3.72-2.148-.234.084-.446.163-.645.234.11-.849.2-1.7.265-2.556 6.172 1.253 11.707 2.37 11.895 2.406.017-.12.02-.18.036-.285-.154-.04-5.703-1.162-11.9-2.414.064-.79.103-1.59.132-2.395l-.159-.006a55.026 55.026 0 0 1-.134 2.366c-.856-.166-1.718-.343-2.585-.521.045-.641.091-1.284.117-1.936.033-.897.034-1.799.025-2.7 2.945.369 5.207.641 5.328.657.014-.122.024-.176.039-.286-.123-.012-2.4-.294-5.367-.66a56.046 56.046 0 0 0-.283-4.447c4.518.124 8.423.224 8.561.233 0-.013-.009-.152-.02-.257l-8.564-.236a53.216 53.216 0 0 0-1.963-9.785c.913-.142 1.793-.272 2.597-.393.096.337.21.681.298 1.03l.164-.048c-.093-.334-.203-.673-.3-1.006 2.505-.387 4.298-.657 4.408-.677a3.298 3.298 0 0 1-.05-.29c-.1.021-1.912.297-4.438.68a57.54 57.54 0 0 0-2.146-5.962c1.447.099 1.893-1.076 2.623-2.299.833-1.399 1.865-.394 4.337.545 2.47.928 3.462-2.647 3.462-2.647-.811.837-1.737 1.508-2.859 1.79-1.007.261-1.488-.189-2.334-.656-.476-.263-1.038-.454-1.584-.408-.874.075-2.51 1.28-3.172 2.384-.188.339-.496.454-.825.465a56.163 56.163 0 0 0-1.857-3.794c2.894-.985 5.035-1.709 5.135-1.748a2.3 2.3 0 0 1-.109-.19c-.085.028-2.226.76-5.129 1.741a56.052 56.052 0 0 0-1.757-3.036l-.138.088c.606.98 1.186 1.99 1.732 3.004-1.555.53-3.316 1.129-5.09 1.735-.31-.55-.631-1.09-.958-1.624 2.47-.947 4.415-1.691 4.493-1.725a2.027 2.027 0 0 1-.084-.13c-.068.029-2.011.767-4.499 1.722-.296-.49-.612-.962-.932-1.445 7.11-3.56 15.339-7.69 15.559-7.8l-.153-.27c-.182.083-8.447 4.228-15.58 7.807a57.747 57.747 0 0 0-1.673-2.331c5.165-2.809 10.4-5.654 10.556-5.744-.062-.09-.09-.123-.144-.197-.126.074-5.375 2.924-10.558 5.745a47.538 47.538 0 0 0-1.658-2.045l5.07-3.255a2.23 2.23 0 0 0-.119-.145c-.07.041-2.337 1.491-5.072 3.249-.02-.013-.033-.04-.048-.06l-.373.333c-.685.447-1.39.893-2.094 1.347a50.764 50.764 0 0 0-2.106-2.252c.533-.403.896-.674.96-.717-.073-.099-.107-.144-.169-.237-.064.047-.444.332-.993.747a29.378 29.378 0 0 0-.807-.771c1.327-1.123 2.742-2.33 4.148-3.522.64.619 1.268 1.249 1.878 1.896l.178-.17a58.301 58.301 0 0 0-1.86-1.889c4.659-3.951 9.1-7.727 9.233-7.85 0 0-.105-.116-.181-.205l-9.258 7.864a51.594 51.594 0 0 0-5.464-4.587c.348-.532.326-1.208.322-1.631 0-.296-.048-.831-.006-1.372a64.84 64.84 0 0 1 2.807 2.062l.099-.133a60.35 60.35 0 0 0-2.892-2.12c.079-.668.318-1.294 1.009-1.38 1.303-.144 3.12-1.188 3.561-1.99.277-.503.34-1.118.302-1.68-.07-1.017-.272-1.666.395-2.517.746-.947 1.76-1.546 2.878-1.96 0 0-3.728-.596-3.924 2.163-.196 2.768.302 4.183-1.363 4.382-1.652.194-3.098.048-3.433 2.233a7.557 7.557 0 0 0-.044.32c-.197-.128-.384-.255-.583-.374 1.141-1.426 1.915-2.39 1.97-2.463-.087-.077-.129-.104-.22-.184-.056.072-.838 1.052-1.99 2.49a54.375 54.375 0 0 0-4.235-2.46c.815-1.303 1.379-2.214 1.423-2.276-.061-.038-.152-.087-.173-.102-.026.048-.586.942-1.433 2.287a50.887 50.887 0 0 0-3.648-1.73c2.437-5.111 4.562-9.568 4.639-9.717-.109-.048-.162-.066-.264-.108-.134.283-1.227 2.57-1.227 2.57l-.343-.16s1.038-2.242 1.19-2.558c-.08-.027-.152-.06-.27-.103-.06.13-2.136 4.602-4.514 9.735a62.106 62.106 0 0 0-2.735-1.04 41.434 41.434 0 0 0-1.915-.632c1.367-3.572 2.433-6.368 2.474-6.48a4.121 4.121 0 0 0-.223-.074c-.038.091-1.111 2.899-2.481 6.495a53.235 53.235 0 0 0-7.881-1.768c.976-4.591 1.782-8.385 1.814-8.525-.124-.02-.22-.027-.273-.036-.018.12-.831 3.925-1.81 8.53-.551-.08-1.105-.16-1.662-.214.705-3.943 1.258-7.065 1.281-7.193-.113-.012-.165-.014-.272-.025-.02.11-.578 3.236-1.29 7.193a57.839 57.839 0 0 0-2.143-.186C69.354 5.085 69.93.182 69.953.018 69.833.015 69.78.01 69.664 0c-.018.15-.593 5.056-1.268 10.688-.438-.026-.878-.064-1.313-.077l-.009.167c.436.017.872.044 1.3.076a992.758 992.758 0 0 1-.63 5.346c-.286-.02-.572-.046-.86-.056l-.014.506c.276.009.542.036.82.051-.106.84-.202 1.663-.296 2.461l-.611-.036a58.694 58.694 0 0 0-1.74-.033c.027-.549.044-.917.05-.986-.117-.002-.169-.007-.29-.015 0 .065-.02.441-.053 1.004-1.378.015-2.76.084-4.136.22-.13-1.963-.264-3.915-.366-5.446a50.689 50.689 0 0 1 6.727-.194l.008-.26a52.595 52.595 0 0 0-6.749.206c-.103-1.523-.177-2.552-.18-2.628-.168.003-.556.02-.556.02s-.212-2.644-.23-2.937c-.121.001-.176.007-.287.007.006.12.203 2.527.448 5.618a50.65 50.65 0 0 0-2.932.407c-.655-5.063-1.248-9.6-1.264-9.743-.096.015-.136.03-.228.043.019.142.615 4.673 1.274 9.744-.437.076-.873.143-1.309.23-.8-4.566-1.51-8.531-1.529-8.687-.12.024-.174.031-.284.054.023.15.73 4.13 1.539 8.697-1.01.204-2.017.443-3.014.72-.29-1.137-.482-1.882-.499-1.96-.113.029-.164.044-.282.072l.506 1.962c-.68.184-1.363.386-2.036.603-.072-.6.158-1.347.44-2.481.492-2.03-.91-2.335-2.387-3.004-1.476-.67-.491-1.768.345-4.265C48.607 3.596 44.899 3 44.899 3c.894.7 1.625 1.534 1.971 2.598.312.952-.122 1.462-.565 2.336-.247.484-.416 1.044-.343 1.572.12.841 1.433 2.307 2.602 2.83 1.161.53.114 2.285-.14 2.897-.262.615-.862 1.838.634 2.576 1.497.723 1.086 1.11.715 2.324-.373 1.216.335 3.06 1.49 3.554.194.082.362.19.504.309-.697.222-1.398.47-2.087.733-.568-1.475-1.212-3.165-1.893-4.926.084-.03.163-.074.244-.097l-.166-.474c-.085.031-.174.067-.254.101-.634-1.652-1.29-3.36-1.913-5 .337-.132.672-.265 1.016-.387l-.06-.165c-.346.128-.677.27-1.02.397-2.021-5.262-3.78-9.857-3.837-10-.128.046-.24.097-.269.1.057.15 1.82 4.737 3.837 10.002a62.46 62.46 0 0 0-1.916.79c-1.195-2.663-2.083-4.61-2.114-4.69l-.026.003s-.099.044-.2.085c.04.094.94 2.066 2.129 4.699-.19.077-.38.162-.569.248-1.249-2.61-2.176-4.575-2.223-4.658-.088.037-.121.05-.215.096.043.092.984 2.068 2.223 4.658-.943.43-1.883.88-2.802 1.365-2.707-4.923-5.06-9.201-5.133-9.343-.11.065-.226.128-.226.128s-.016.014-.023.014c.07.142 2.425 4.415 5.126 9.334-.678.368-1.35.737-2.013 1.13-3.443-5.556-6.599-10.634-6.692-10.783-.104.067-.216.135-.216.135s-.03.024-.046.024c.095.16 3.25 5.235 6.696 10.786a52.723 52.723 0 0 0-3.931 2.574 6940 6940 0 0 1-4.788-6.068.585.585 0 0 1-.045.034s-.083.057-.165.118c.082.099 2.172 2.754 4.787 6.06a54.45 54.45 0 0 0-4.075 3.26l.106.121a58.156 58.156 0 0 1 4.074-3.247c1.054 1.34 2.19 2.775 3.31 4.197-.843.601-1.663 1.241-2.475 1.9a538.057 538.057 0 0 0-2.283-2.502l-.243.198-.178.158c.04.04 1.007 1.07 2.326 2.464-.963.8-1.92 1.627-2.833 2.52l.342.364a48.712 48.712 0 0 1 2.833-2.52c.526.558 1.101 1.166 1.688 1.781a48.888 48.888 0 0 0-3.914 3.6 1614.734 1614.734 0 0 0-4.168-3.449c.9-.945 1.82-1.863 2.785-2.74l-.167-.19c-.971.886-1.9 1.82-2.81 2.772-3.262-2.708-6.02-4.992-6.13-5.09-.078.094-.113.137-.186.228.114.096 2.861 2.376 6.12 5.068a57.807 57.807 0 0 0-2.648 3.019 4440.66 4440.66 0 0 1-10.937-7.475c-.02.023-.044.055-.044.055s-.069.092-.138.177c.161.107 5.49 3.748 10.934 7.46-.386.49-.756.985-1.122 1.475-.573-.735-1.506-.6-2.03-.55-.66.071-2.619.547-2.885-.723-.273-1.27-1.428-2.958-2.233-3.318-.508-.226-1.099-.229-1.633-.137-.956.163-1.563.426-2.44-.153-.97-.644-1.632-1.587-2.128-2.649 0 0-.22 3.729 2.428 3.66 2.649-.067 3.954-.688 4.291.93.344 1.611.344 3.039 2.456 3.162 1.806.107 2.705.034 3.3.958-.612.87-1.2 1.756-1.755 2.66l-9.052-4.471-.04.089s-.184.388-.201.435c1.065.51 4.898 2.35 9.057 4.342a53.756 53.756 0 0 0-1.492 2.607c-4.901-1.842-9.29-3.485-9.412-3.535l-.115.207c.147.054 4.526 1.7 9.413 3.544-.356.67-.706 1.353-1.025 2.036-6.21-2.124-12.234-4.178-12.387-4.23-.05.102-.062.155-.118.268.198.071 6.447 2.203 12.376 4.23-.08.175-.158.35-.24.534-5.983-1.925-12.288-3.94-12.46-3.998 0 0-.053.138-.11.27.189.058 6.228 1.994 12.45 3.995-.168.37-.346.735-.504 1.103l.229.1c.159-.382.344-.752.512-1.126 1.746.562 3.503 1.123 5.14 1.645a50.533 50.533 0 0 0-1.404 3.376c-.797-.2-1.6-.394-2.387-.586.334-.909.68-1.805 1.072-2.69l-.453-.202a44.76 44.76 0 0 0-1.104 2.77c-1.907-.467-3.731-.914-5.166-1.264.46-1.293.954-2.575 1.5-3.83l-.15-.066a56.456 56.456 0 0 0-1.514 3.852c-1.682-.418-2.81-.689-2.87-.7l-.051.271s.003.01 0 .011c.068.017 1.172.286 2.826.686-.274.78-.524 1.568-.762 2.358-5.343-.91-9.912-1.691-10.05-1.716-.029.102-.045.158-.073.284.16.02 4.717.802 10.036 1.705a61.776 61.776 0 0 0-.564 2.07c-4.83-.595-8.828-1.085-8.972-1.106-.017.12-.02.176-.033.295.14.015 4.124.507 8.932 1.088-.76 3.07-1.272 6.2-1.521 9.38-.955-.677-2.231-1.174-2.92-1.086-.56.067-1.08.374-1.5.74-.746.658-1.14 1.202-2.198 1.16C2.038 63.26.974 62.787 0 62.132c0 0 1.714 3.363 3.994 1.9 2.279-1.46 3.095-2.691 4.225-1.465.536.595.986 1.182 1.521 1.534-.012.268-.04.553-.046.83-.028.772-.04 1.543-.035 2.304l-6.77 1.033c.019.12.028.166.045.288.124-.02 3.006-.463 6.732-1.026a56.604 56.604 0 0 0 1.41 12.094c-2.31.913-3.947 1.559-4.011 1.588.009.026.038.143.055.227.086-.037 1.713-.679 4.011-1.588.143.62.297 1.241.463 1.864l-10.62 4.54c.032.097.052.162.094.287.173-.076 5.058-2.166 10.605-4.536.125.444.242.9.374 1.338.4 1.334.856 2.663 1.35 3.964l.151-.056a57.02 57.02 0 0 1-1.345-3.96c-.134-.446-.253-.897-.376-1.352.796-.337 1.6-.682 2.415-1.03.183.69.378 1.377.587 2.064-1.1.616-1.824 1.024-1.86 1.043.03.081.036.138.054.2.052-.03.77-.44 1.866-1.05.32 1.02.673 2.016 1.049 3.02a3083.8 3083.8 0 0 0-6.218 3.748c.028.09.048.133.084.229.107-.06 2.847-1.722 6.216-3.747v.006l.237-.092a.197.197 0 0 0-.022-.043c.699-.424 1.42-.852 2.144-1.293.086.236.157.473.25.71.258.664.543 1.303.823 1.949-2.227 1.566-3.963 2.802-4.018 2.838.01.022.047.113.073.184.077-.061 1.804-1.28 4.019-2.85.22.493.456.977.686 1.462-.274.047-.642.025-1.187-.106-1.786-.44-2.257 1.007-2.524 1.7-.27.696-.796 2.884-2.155 2.517-1.356-.374-3.573-.07-4.326.555-.475.386-.773.975-.954 1.555-.326 1.034-.375 1.763-1.37 2.34-1.114.653-2.36.832-3.633.799 0 0 3.487 2.092 4.754-.58 1.27-2.67 1.33-4.28 3.052-3.812 1.733.476 3.107 1.195 4.296-.845 1.184-2.04 1.491-2.98 3.267-2.808.304.036.807.012 1.346-.157.177.345.37.687.563 1.033a7890.511 7890.511 0 0 1-8.568 6.37c.053.075.079.114.139.202.128-.096 4.245-3.165 8.542-6.357a52.86 52.86 0 0 0 2.065 3.456c-1.878 1.655-6.164 5.439-6.346 5.602.096.106.337.36.337.36s-.536.481-.94.841l.338.35c.602-.55 2.637-2.412 5.066-4.638a53.473 53.473 0 0 0 6.3 7.55l.17-.178a54.293 54.293 0 0 1-6.288-7.538c.597-.548 1.21-1.113 1.833-1.678A51.364 51.364 0 0 0 30.894 104l.334-.372c-.714-.69-1.416-1.401-2.092-2.131.29-.366.853-1.073 1.563-1.951.926 1.007 1.87 1.992 2.878 2.92l.167-.193a53 53 0 0 1-2.891-2.926c1-1.242 2.216-2.765 3.278-4.085.87.979 1.783 1.93 2.737 2.821-3.99 5.717-11.89 17.05-12.026 17.237 0 .004.111.085.214.168.156-.23 8.039-11.52 12.008-17.22.48.437.957.883 1.45 1.3l.425-.514a42.886 42.886 0 0 1-1.49-1.34l1.865-2.674c-.075-.065-.114-.1-.195-.175-.06.07-.775 1.104-1.868 2.666a39.498 39.498 0 0 1-2.694-2.8c1.1-1.37 1.944-2.424 2.004-2.508-.066-.078-.106-.118-.187-.219-.089.105-.923 1.152-2.006 2.504a41.43 41.43 0 0 1-2.579-3.243c-.374-.53-.721-1.067-1.07-1.606 1.309-1.202 2.18-1.998 2.225-2.042-.077-.12-.216-.331-.324-.495-.091.084-1.034.917-2.248 1.99a45.984 45.984 0 0 1-1.61-2.86l2.5-1.864a7.454 7.454 0 0 0-.116-.21c-.061.051-1.035.768-2.494 1.857-.007-.017-.013-.028-.016-.04.476-.362.93-.767 1.356-1.16 1.335-1.238 1.727-1.644 1.727-1.644s-.094-.708-.593-.414c-.342.197-1.144.939-1.826 1.529-.355.259-.732.546-1.1.823a45.295 45.295 0 0 1-.8-1.757l-.604.265c.26.62.544 1.23.842 1.839-.605.324-1.363.575-2.22.324-.06-.018-.126-.018-.186-.03-.23-.502-.457-1-.67-1.508 2.708-1.906 4.983-3.522 5.047-3.57-.02-.065-.035-.103-.064-.18-.091.067-2.362 1.67-5.057 3.577a50.019 50.019 0 0 1-.855-2.268c2.922-1.764 5.158-3.11 5.226-3.155-.024-.087-.038-.133-.069-.238-.105.068-2.337 1.41-5.233 3.152a44.868 44.868 0 0 1-.561-1.722 40.41 40.41 0 0 1-.297-1.085c2.87-1.612 5.275-2.966 5.343-3.002l-.034-.198c-.105.048-2.506 1.398-5.365 3.006-.1-.384-.193-.764-.284-1.143 3.16-1.351 5.412-2.314 5.496-2.356-.023-.096-.032-.155-.065-.293-.124.061-2.368 1.018-5.496 2.352-.127-.52-.24-1.047-.339-1.578 3.11-1.231 5.485-2.168 5.566-2.205-.018-.08-.02-.125-.036-.229-.118.047-2.489.978-5.57 2.205a45.835 45.835 0 0 1-.64-4.755c.57-.159 1.41-.379 2.274-.612.082 1.181.202 2.357.382 3.517l.651-.104a40.957 40.957 0 0 1-.383-3.585c1.386-.377 2.662-.716 2.783-.756-.004-.133-.018-.278-.03-.47-.14.041-1.318.355-2.786.74a41.819 41.819 0 0 1-.05-2.8l2.782-.515c.002-.102.002-.165.002-.294-.107.015-1.201.218-2.78.51.002-.25-.005-.495.005-.746 0-.045.01-.093.01-.139 1.649-.254 2.726-.417 2.785-.426.006-.084.012-.203.012-.294-.091.011-1.154.179-2.782.424.01-.2.02-.405.036-.613.88.096 1.848-.064 2.74-.229 1.633-.294 2.133-.428 2.133-.428s.27-.597-.26-.62c-.525-.018-2.421.38-3.124.388-.377.01-.892.037-1.423-.076.035-.47.077-.944.13-1.402 1.602-.108 2.696-.185 2.77-.19.018-.172.053-.465.085-.7-.117.01-1.22.066-2.754.16.176-1.326.412-2.636.71-3.946 1.295.081 2.554.149 2.7.156.017-.105.037-.156.066-.29-.192-.012-1.432-.076-2.7-.144.17-.735.371-1.468.59-2.196 1.575.193 2.578.32 2.64.32.028-.1.045-.148.086-.276-.082-.01-1.082-.136-2.64-.32.142-.471.29-.94.443-1.399 1.557.265 2.544.436 2.605.445.03-.102.052-.154.092-.277-.08-.012-1.06-.182-2.594-.443.117-.328.228-.66.35-.984l-.615-.24c-.145.365-.265.74-.39 1.111-1.432-.24-3.213-.547-5.166-.878.187-.59.408-1.165.618-1.74 4.274 1.048 8.151 1.996 8.258 2.02.02-.094.033-.148.066-.273-.136-.039-3.979-.973-8.229-2.024a54.531 54.531 0 0 1 1.407-3.349c.85.272 1.658.533 2.43.778-.009.019-.02.033-.026.051l.299.146c.012-.033.03-.065.045-.096 3.047.978 5.215 1.675 5.296 1.705.09-.183.294-.585.409-.818-.115-.04-2.25-.77-5.249-1.788.307-.61.62-1.202.953-1.788 2.954 1.111 5.114 1.912 5.194 1.954l.131-.21c-.104-.041-2.261-.85-5.208-1.957.138-.234.265-.469.403-.708 2.256.998 4.88 2.151 5.04 2.226.057-.095.087-.143.154-.25-.212-.097-2.805-1.234-5.046-2.225.194-.319.403-.634.6-.953 2.167 1.04 3.855 1.85 4.499 2.154-.163.18-.334.357-.493.537l.716-.76zm72.829 27.672c-.03.212-.056.426-.084.643-.89-.294-1.586-.511-2.039-.66.631.009 1.492-.008 2.123.017zm-77.65-30.054c-.719-.347-1.482-.727-2.28-1.113.54-.841 1.1-1.661 1.688-2.458.204.222.368.542.442 1.027.09.627.397 1.117.834 1.521-.238.34-.461.68-.685 1.023zm-.813 1.27c-.925-.414-1.758-.778-2.311-1.022.202-.347.417-.695.63-1.036.8.385 1.571.75 2.298 1.1-.207.311-.417.629-.617.958zm-.55.977c-.756-.285-1.56-.587-2.393-.896.162-.285.322-.565.48-.852.549.244 1.386.614 2.326 1.024-.143.242-.28.488-.413.724zm-1.072 2.006c-.761-.262-1.568-.531-2.415-.821.234-.469.458-.932.699-1.392.088-.163.186-.318.275-.48.835.312 1.637.614 2.394.898a41.642 41.642 0 0 0-.953 1.795zm2.434 1.139l-.114.356s-.9-.284-2.333-.745c.063-.131.126-.249.197-.385 1.382.474 2.25.774 2.25.774zM25.34 47.1c-.708-.223-1.53-.486-2.427-.772.067-.144.147-.29.218-.436.893.31 1.709.585 2.405.825-.063.13-.136.26-.196.383zm-2.66-.849c-1.567-.5-3.341-1.073-5.16-1.65.085-.18.16-.36.243-.54 1.807.62 3.579 1.224 5.128 1.751-.07.145-.15.295-.211.44zm-3.765-4.484c1.693.636 3.44 1.288 5.077 1.909-.08.147-.169.298-.253.446-.252.474-.482.952-.718 1.436-1.637-.558-3.388-1.163-5.131-1.763a53.65 53.65 0 0 1 1.025-2.028zm1.599-2.796c1.63.779 3.3 1.58 4.871 2.332-.209.352-.424.697-.631 1.049-.24-.107-.403-.176-.446-.196a5.1 5.1 0 0 0-.108.264c.035.018.187.087.408.19-.166.28-.327.567-.494.857a544.28 544.28 0 0 0-5.082-1.907c.465-.882.96-1.74 1.482-2.59zm1.903-2.923c.048.107.097.2.145.314.24.665 1.276 2.23 3.329 1.853.326-.057.956-.131 1.45.238a46.073 46.073 0 0 0-1.737 2.525c-1.558-.775-3.227-1.598-4.858-2.405.53-.853 1.085-1.7 1.67-2.525zm2.063-2.753c1.526 1.039 3.058 2.09 4.483 3.063-.378.462-.751.92-1.11 1.394-.647-.557-1.464-.94-2.18-.943-1.282 0-1.75.282-2.15-1.37a2.353 2.353 0 0 0-.227-.593 44.57 44.57 0 0 1 1.184-1.55zm2.814-3.213a738 738 0 0 1 4.164 3.442 47.065 47.065 0 0 0-2.307 2.609c-.648-.44-2.382-1.63-4.486-3.059a54.165 54.165 0 0 1 2.63-2.992zm3.955 7.837a45.029 45.029 0 0 0-1.881 2.443 2.357 2.357 0 0 1-.512-1.081c-.094-.48-.4-.963-.822-1.365.373-.482.75-.952 1.133-1.417.73.494 1.43.974 2.082 1.42zm.403-4.234c.683.561 1.343 1.108 1.967 1.62a49.058 49.058 0 0 0-2.13 2.332c-1.059-.73-1.915-1.314-2.02-1.389a.774.774 0 0 1-.044.075l-.071-.049c.738-.89 1.5-1.759 2.298-2.589zm4.098-3.782c1.246 1.321 2.54 2.687 3.568 3.782-1.2.961-2.356 2-3.453 3.109-.542-.447-1.142-.941-1.792-1.486a41.962 41.962 0 0 1 1.856-1.784l-.214-.247a38.989 38.989 0 0 0-1.897 1.82l-1.96-1.619a46.514 46.514 0 0 1 3.892-3.575zm4.534 3.032c-.234.18-.479.348-.707.537a2749.08 2749.08 0 0 0-3.492-3.835c.28-.226.564-.444.844-.66.852 1 2.22 2.615 3.355 3.958zm-6.022-5.309c.8-.654 1.613-1.288 2.448-1.88 1.855 2.348 3.646 4.607 4.916 6.217-.377.258-.747.531-1.117.8-1.133-1.344-2.502-2.956-3.353-3.969.162-.125.33-.26.497-.387l-.142-.2c-.179.13-.342.272-.515.4-.365-.43-.613-.718-.657-.773-.09.081-.126.113-.217.19.049.056.283.338.648.76-.292.22-.57.44-.852.664-.574-.637-1.141-1.251-1.656-1.822zm-.965-6.616a52.806 52.806 0 0 1 3.914-2.567c.938 1.516 1.9 3.056 2.826 4.546-.815.484-1.613.986-2.396 1.52-.871-1.194-1.484-2.038-1.544-2.118-.09.074-.133.106-.227.173.052.084.67.92 1.535 2.104-.266.177-.536.342-.798.527-1.117-1.416-2.251-2.856-3.31-4.185zm6.18-3.853c.849 1.546 1.728 3.145 2.583 4.708-.593.31-1.178.632-1.761.971-.923-1.494-1.886-3.032-2.822-4.556.657-.392 1.329-.759 2-1.123zm3.048-1.495L44.83 20.5c-.852.388-1.69.792-2.517 1.226-.853-1.556-1.74-3.16-2.585-4.702a56.63 56.63 0 0 1 2.795-1.36zm.785-.345c.67 1.492 1.433 3.19 2.193 4.868-.154.067-.302.145-.454.215-.8-1.667-1.599-3.348-2.306-4.838l.567-.245zm2.11-.877c.636 1.645 1.287 3.35 1.923 5-.544.21-1.084.431-1.62.657-.77-1.704-1.532-3.396-2.198-4.875.622-.279 1.26-.533 1.895-.782zm-.161 6.412c.155-.069.298-.142.45-.209 1.32 2.91 2.586 5.706 3.28 7.25-.102.043-.203.095-.31.13-.724-1.525-2.041-4.293-3.42-7.17zm-2.701 1.31a50.227 50.227 0 0 1 2.49-1.212c1.5 3.148 2.903 6.086 3.42 7.172-.296.136-.6.251-.896.39-.41.192-.802.397-1.195.598-.977-1.768-2.35-4.259-3.82-6.948zm-1.994 1.097c.57-.328 1.156-.647 1.738-.96 1.472 2.679 2.84 5.178 3.814 6.942-.465.244-.92.492-1.373.753a4669.962 4669.962 0 0 1-4.18-6.735zm1.789 8.21c-.175.115-.343.23-.518.35-1.264-1.622-3.057-3.88-4.915-6.227.25-.186.516-.349.773-.525 1.39 1.913 3.288 4.511 4.66 6.402zm-4.42-6.563c.772-.52 1.562-1.01 2.366-1.483 1.626 2.61 3.122 5.02 4.174 6.727a36.8 36.8 0 0 0-1.889 1.154c-1.368-1.883-3.26-4.489-4.652-6.398zm11.494 3.96c-.028.005-.163.07-.282.126-.043-.09-.1-.213-.174-.359.096-.042.2-.088.293-.131.066.144.124.263.163.364zm-.013-4.033c-.032 0-.057.018-.084.024l.12.313c.027-.008.059-.02.087-.027.305.806.588 1.54.831 2.181-.39.158-.776.315-1.159.477-.863-1.901-2.064-4.569-3.28-7.245.53-.226 1.064-.443 1.596-.646.674 1.758 1.319 3.439 1.89 4.923zm2.637-.573c.481.559.637 1.27.757 1.73.03.112.058.282.083.462-.755.235-1.505.495-2.252.78-.246-.646-.526-1.382-.835-2.186.74-.29 1.49-.545 2.247-.786zm-.965-3.617c.965-1.865-.262-3.178-.842-3.552-.475-.32-.725-.638-.83-.998a45.47 45.47 0 0 1 2.056-.613c.121.472.207.832.207.832l-.194.05 1.86 7.158c-.157.044-.304.096-.455.136a2.31 2.31 0 0 0-.99-.744c-1.577-.603-1.044-1.799-.812-2.269zm3.651-5.95c.317 1.768.647 3.617.958 5.373a42.81 42.81 0 0 0-2.537.59l.06.24c.84-.22 1.677-.41 2.523-.586.149.877.299 1.722.443 2.514-.809.177-1.606.366-2.403.577-.696-2.745-1.512-5.92-2.039-7.998a56.582 56.582 0 0 1 2.995-.71zm1.576-.294c.232 1.803.475 3.661.7 5.407-.345.065-.692.129-1.038.196-.309-1.746-.645-3.599-.954-5.373.425-.081.862-.151 1.292-.23zm3.139-.449c.132 1.712.287 3.607.43 5.44a44.61 44.61 0 0 0-2.645.381l-.701-5.405a47.593 47.593 0 0 1 2.916-.416zm.657 8.241c-.84.096-1.676.22-2.507.365-.106-.794-.218-1.652-.33-2.538a53.858 53.858 0 0 1 2.633-.382c.068.884.14 1.736.204 2.555zm-3.59.916c.303-.06.6-.124.9-.176.118.852.217 1.642.306 2.334-.27.042-.53.086-.8.13-.118-.674-.257-1.453-.405-2.288zm-.504-2.855c.347-.067.686-.139 1.033-.193.112.88.228 1.739.335 2.54-.312.052-.618.118-.917.175-.143-.802-.3-1.644-.451-2.522zm-2 5.86c-.107.031-.214.067-.319.095-.085-.805-.235-1.618-.611-2.256.113-.033.226-.073.342-.107.212.801.408 1.573.588 2.268zm-.15-2.382c.784-.22 1.58-.402 2.375-.57.149.841.286 1.62.407 2.297a34.67 34.67 0 0 0-2.205.525c-.18-.679-.371-1.445-.578-2.252zm6.461 1.152c-.8.089-1.585.202-2.38.342-.087-.696-.191-1.482-.303-2.335.826-.141 1.66-.268 2.491-.366.073.86.135 1.657.192 2.36zm4.263-2.637c-.038.802-.089 1.61-.128 2.358-1.165.02-2.328.083-3.472.2-.047-.705-.103-1.497-.158-2.343a45.289 45.289 0 0 1 3.758-.215zm.15-2.895c-.034.69-.084 1.596-.136 2.561-1.27.015-2.54.09-3.797.22-.054-.829-.116-1.694-.173-2.564a49.103 49.103 0 0 1 4.105-.217zm.29-.005c.581 0 1.166.005 1.746.033.199.008.392.024.592.036-.106.888-.21 1.748-.301 2.541-.128-.003-.249-.02-.379-.022-.597-.022-1.199-.022-1.794-.022.054-.965.096-1.872.137-2.566zm2.624.087c.546.032 1.095.054 1.644.107-.162.879-.316 1.73-.456 2.527-.495-.04-.992-.065-1.49-.094.09-.793.192-1.645.302-2.54zm.317-2.708c.601.027 1.205.07 1.798.124-.146.826-.29 1.647-.435 2.439-.547-.051-1.1-.077-1.65-.107.089-.798.182-1.619.287-2.456zm.694-5.865c.715.055 1.435.105 2.143.189l-.944 5.309a33.96 33.96 0 0 0-1.833-.138c.21-1.772.43-3.59.634-5.36zm2.418.215c.551.06 1.104.134 1.656.213-.366 1.701-.745 3.503-1.117 5.265-.498-.067-.99-.117-1.487-.17.32-1.803.642-3.62.948-5.308zm1.924.245c2.66.391 5.282.981 7.857 1.757a956.412 956.412 0 0 0-1.918 5.024 48.937 48.937 0 0 0-2.78-.722c.653-2.064 1.135-3.622 1.158-3.69-.064-.012-.136-.038-.15-.041-.024.07-.521 1.67-1.15 3.7-.122-.027-.233-.05-.35-.078.6-2.035 1.08-3.652 1.103-3.723 0 0-.078-.027-.142-.042a411.8 411.8 0 0 0-1.103 3.736c-1.21-.26-2.415-.489-3.645-.658l1.12-5.263zm8.083 1.817c.649.202 1.29.413 1.924.638.92.315 1.822.666 2.712 1.034-.738 1.599-1.505 3.262-2.255 4.87a50.995 50.995 0 0 0-4.305-1.521c.66-1.708 1.324-3.43 1.924-5.021zm-1.94 8.134c.26-.614.442-1.034.47-1.105-.105-.052-.157-.07-.259-.115-.03.063-.219.506-.49 1.137-.25-.077-.51-.148-.766-.222.287-.765.584-1.545.885-2.335 1.447.435 2.864.937 4.274 1.503-.357.763-.703 1.51-1.042 2.241a48.199 48.199 0 0 0-3.073-1.104zm-.1.232c1.032.33 2.056.7 3.064 1.101-.375.82-.742 1.594-1.078 2.33a41.052 41.052 0 0 0-2.993-1.067c.376-.877.726-1.704 1.007-2.364zm-1.035-.308c.25.076.505.148.759.228-.28.657-.638 1.486-1.003 2.357-.227-.068-.456-.123-.677-.183.293-.756.603-1.57.92-2.402zm-2.818-.72c.872.186 1.734.413 2.588.656-.32.835-.635 1.64-.923 2.4a46.673 46.673 0 0 0-2.432-.612c.253-.8.512-1.627.767-2.444zm-1.16 2.362c.227-.765.477-1.604.73-2.47.091.028.19.05.284.07a783.3 783.3 0 0 0-.768 2.454c-.084-.017-.163-.037-.245-.054zm-.09.325c.076.01.155.035.236.049-.094.32-.192.616-.283.897-.065-.026-.117-.045-.13-.053-.136.414-.346 1.116-.563 1.812l-.057-.019s.332-1.126.796-2.686zm-2.737-3.397c1.148.152 2.287.333 3.41.57-.246.828-.491 1.661-.728 2.47a45.734 45.734 0 0 0-3.217-.537c.173-.784.347-1.624.535-2.503zm-.267-.034c-.187.878-.372 1.718-.535 2.512-.427-.057-.863-.11-1.29-.144.142-.796.29-1.647.448-2.531.462.044.923.105 1.377.163zm.052-.25c-.463-.06-.92-.113-1.38-.163.14-.794.283-1.61.434-2.44.487.053.973.102 1.464.167-.176.828-.352 1.65-.518 2.436zm3.698.614a44.019 44.019 0 0 0-3.428-.579c.166-.793.338-1.605.516-2.435a44.31 44.31 0 0 1 3.604.645l-.692 2.37zm1.32-2.23c.92.206 1.84.438 2.747.706-.3.789-.596 1.569-.89 2.319a42.435 42.435 0 0 0-2.592-.653c.254-.822.507-1.622.735-2.373zm-.884 2.33c-.097-.02-.193-.045-.292-.063.235-.806.471-1.608.695-2.372.113.016.225.042.336.069a395.53 395.53 0 0 0-.739 2.365zm11.395-5.047a48.723 48.723 0 0 1 3.632 1.718c-1.165 1.868-2.847 4.55-4.43 7.086-.922-.459-1.86-.89-2.809-1.279.355-.73.71-1.478 1.083-2.246.702.296 1.409.613 2.105.946l.208-.455a43.668 43.668 0 0 0-2.1-.942 725.362 725.362 0 0 1 2.311-4.828zm3.81 1.81c1.437.752 2.842 1.572 4.216 2.449-.501.617-1.056 1.316-1.652 2.06a55.875 55.875 0 0 0-3.159-1.855l-.117.222a47.143 47.143 0 0 1 3.11 1.831c-1.081 1.356-2.269 2.845-3.416 4.272a44.355 44.355 0 0 0-2.771-1.585c-.21-.113-.433-.207-.64-.312 1.353-2.161 3.16-5.055 4.429-7.081zm4.454 2.602c.23.141.446.29.662.434-.187 1.298-.29 2.095-.856 2.595-.48-.326-.963-.655-1.452-.965.601-.747 1.157-1.449 1.646-2.064zm.818 4.06a53.57 53.57 0 0 1 5.434 4.557c-1.403 1.195-2.822 2.397-4.148 3.524a47.113 47.113 0 0 0-2.778-2.42c1.563-1.67 2.849-3.048 2.898-3.098-.088-.095-.314-.332-.342-.364-.066.067-1.628 1.812-2.891 3.208a53.89 53.89 0 0 0-1.556-1.173c.358-.502.609-1.069.662-1.592.127-1.335-.11-1.85 1.595-2.1.543-.08.89-.288 1.126-.542zm-7.888 7.514c.417-.596 1.08-1.685 2.362-1.805.71-.07 1.448-.598 1.988-1.275a49.21 49.21 0 0 1 1.547 1.16c-.783.869-1.401 1.56-1.401 1.56s-1.063 1.172-2.085 2.315a45.702 45.702 0 0 0-2.532-1.778c.04-.064.083-.13.121-.177zm3.732-4.784c.008.219.018.568-.081.914a48.15 48.15 0 0 0-1.804-1.176l3.418-4.266c.465.295.929.605 1.381.92a2.806 2.806 0 0 1-.72.324c-.69.186-2.365 1.104-2.194 3.284zm-2.046-.066c.64.395 1.264.801 1.875 1.222-.203.431-.624.8-1.49.847-1.38.08-2.223 1.249-2.888 2.509-.258-.161-.52-.321-.784-.478.907-1.13 2.067-2.574 3.287-4.1zm-5.341.702s.712-1.146 1.709-2.729c.215.105.443.2.661.317a48.256 48.256 0 0 1 2.722 1.561 1120.41 1120.41 0 0 0-3.282 4.106 41.804 41.804 0 0 0-2.833-1.525c.534-.848 1.017-1.605 1.073-1.704-.026-.012-.05-.026-.05-.026zm9.454 5.19c-.124.116-1.146 1.002-2.161 1.9-.33-.27-.65-.538-.98-.792 1.057-1.126 2.376-2.543 3.564-3.813.953.749 1.87 1.563 2.762 2.392-1.53 1.302-2.915 2.472-3.992 3.388-.373-.333-.745-.667-1.134-.99 1.01-.881 2.004-1.75 2.13-1.867-.073-.088-.111-.128-.19-.219zm4.184.633c-.574.437-1.295.98-2.059 1.56-.14-.137-.268-.286-.405-.417l-.223.244c.122.123.236.256.356.371-.63.475-1.27.962-1.862 1.406-.19-.187-.394-.355-.592-.534a1463.49 1463.49 0 0 0 3.99-3.384c.269.244.535.503.795.754zm-.146 4.023c-.714.447-1.377.878-1.973 1.256a45.434 45.434 0 0 0-1.858-1.916c.584-.443 1.22-.921 1.855-1.397a47.363 47.363 0 0 1 1.976 2.057zm.35-3.808a47.92 47.92 0 0 1 2.092 2.229c-.74.482-1.473.945-2.165 1.394-.64-.713-1.3-1.399-1.986-2.072.765-.581 1.489-1.122 2.06-1.55zm2.731 2.957l.185-.161c-.162-.194-.327-.372-.494-.557.71-.455 1.408-.905 2.095-1.34a51.5 51.5 0 0 1 1.64 2.01c-1.631.895-3.236 1.765-4.66 2.537-.461-.573-.958-1.128-1.45-1.68.697-.45 1.43-.916 2.166-1.394.17.198.348.383.518.585zm5.237 2.473c-1.684.843-3.292 1.65-4.711 2.362a40.204 40.204 0 0 0-1.61-2.142c1.424-.777 3.029-1.65 4.657-2.537.574.755 1.134 1.531 1.664 2.317zm1.094 1.659c-1.604.61-3.373 1.292-5.005 1.914-.207-.315-.404-.638-.62-.946 1.409-.71 3.021-1.518 4.708-2.36.306.455.618.923.917 1.392zM108 41.855c-1.758.597-3.492 1.183-5.053 1.716-.04-.07-.074-.142-.119-.204-.245-.412-.52-.798-.778-1.201 1.622-.624 3.402-1.309 4.993-1.916.33.527.65 1.066.957 1.605zm1.442 2.738c-.273-.062-.6-.215-1.033-.371-1.213-.415-3.161.18-3.794 1.28-.091.17-.213.317-.337.45a37.52 37.52 0 0 0-1.214-2.188c1.55-.536 3.29-1.126 5.045-1.722.47.836.915 1.689 1.333 2.55zm4.233-4.446a57.147 57.147 0 0 1 1.836 3.754c-.73-.06-1.562-.57-1.946-.752-.605-.282-1.79-.92-2.693.502-.354.545-.623.82-.887.924a50.848 50.848 0 0 0-1.396-2.694c1.772-.608 3.531-1.206 5.086-1.734zm2.177 4.54a57.437 57.437 0 0 1 2.17 6.018c-.812.125-1.68.26-2.602.395a55.092 55.092 0 0 0-.399-1.235l.46-.085a4.948 4.948 0 0 1-.05-.282c-.035 0-.22.031-.5.087a54.636 54.636 0 0 0-1.206-3.244l-.23.09a61.41 61.41 0 0 1 1.188 3.191c-.565.113-1.424.267-2.431.456a51.113 51.113 0 0 0-1.788-4.482c.474-.231.834-.542 1.01-.759 1.056-1.245 1.835-.823 3.872-.25.18.052.346.075.506.1zm-6.413 6.204c.842-.16 1.662-.313 2.42-.448.101.32.225.635.334.957l.47-.155c-.103-.292-.213-.594-.316-.892 1.014-.182 1.864-.344 2.426-.44.132.403.264.818.393 1.225-1.73.262-3.595.548-5.377.824a33.22 33.22 0 0 0-.35-1.07zm-.246.04c.126.354.229.706.352 1.06-.872.134-1.716.268-2.52.394a26.413 26.413 0 0 0-.356-.995c.828-.15 1.688-.302 2.524-.46zm-1.171-3.724c-.297.08-2.465.648-2.762.724-.168-.354-.341-.702-.511-1.058.234-.201.442-.424.596-.722.777-1.496 1.949-.92 2.406-.675.852.481 1.614.481 2.245.3a51.738 51.738 0 0 1 1.768 4.39c-1.575.289-3.442.627-5.187.95a47.17 47.17 0 0 0-1.201-2.915c1.42-.376 2.59-.69 2.72-.714-.028-.112-.045-.171-.074-.28zm9.196 13.955c-1.784-.049-3.653-.1-5.42-.15a46.007 46.007 0 0 0-.568-3.61c.834-.042 1.404-.078 1.482-.08a60.028 60.028 0 0 1-.025-.566s2.965-.203 3.29-.231c-.005-.111-.009-.162-.017-.283-.141.008-2.327.161-4.912.333a47.725 47.725 0 0 0-1.166-4.34c1.782-.264 3.639-.553 5.379-.812a52.894 52.894 0 0 1 1.957 9.74zm.31 4.685c-1.688-.21-3.572-.436-5.402-.666a46.996 46.996 0 0 0-.293-3.91l5.413.152c.15 1.463.254 2.937.281 4.424zm-.987 8.097c-.285-.314-.946-.818-1.81-.971.094-.804.17-1.61.228-2.418.794.165 1.602.328 2.411.49a53.724 53.724 0 0 1-.348 3.327 3.23 3.23 0 0 1-.48-.428zm-2.2 1.734c.08-.464.157-.92.227-1.383.427-.057.797.16 1.386.974.256.364.535.596.804.72-.017.154-.037.3-.068.442-.786-.252-1.566-.501-2.348-.753zm-.205 1.146c.055-.28.105-.565.155-.86.78.25 1.569.504 2.354.76-.062.31-.116.622-.183.938-.766-.28-1.55-.554-2.326-.838zm-.05.28c.774.278 1.551.552 2.325.827-.143.673-.283 1.354-.451 2.025-.093.36-.194.723-.288 1.077-.76-.312-1.522-.623-2.274-.934.258-.997.488-1.992.688-2.995zm-2.783-.994c.753.268 1.536.543 2.31.823-.2 1-.424 1.992-.682 2.963-.77-.311-1.528-.625-2.268-.934.24-.943.459-1.896.64-2.852zm-3.222 1.776c.216-.894.413-1.802.586-2.723.76.281 1.564.561 2.4.858a52.62 52.62 0 0 1-.631 2.843c-.824-.336-1.616-.666-2.355-.978zm-.077.294c.745.31 1.537.635 2.357.97a44.723 44.723 0 0 1-1.09 3.606c0 .012-.008.02-.008.035-.8-.375-1.566-.737-2.305-1.085.4-1.16.752-2.333 1.046-3.526zm-1.869-3.917c.664.242 1.407.505 2.21.795a43.565 43.565 0 0 1-.578 2.702c-.783-.32-1.513-.622-2.166-.895.21-.859.384-1.727.534-2.602zm5.705-4.635l-2.491-.505c.003-.19.024-.377.032-.564l-.331-.013c-.006.177-.02.343-.026.513-.841-.17-1.603-.327-2.294-.461.004-.044.004-.09.004-.134a41.782 41.782 0 0 0-.024-3.652c1.473.177 3.289.402 5.182.637.03 1.062.042 2.13 0 3.205-.008.321-.034.652-.052.974zm.631 3.853c-.176.103-.46.273-.791.355.18-1.278.31-2.567.393-3.866.772.16 1.577.327 2.393.49a54.775 54.775 0 0 1-.229 2.476c-.541-.012-1.137.138-1.766.545zm-.27 1.505c.38-.002.744-.069 1.057-.2.315-.124.571-.255.794-.35-.056.368-.129.727-.183 1.093-.566-.183-1.119-.358-1.668-.543zm-.713.081c.753.244 1.54.493 2.325.748l-.146.846c-.78-.283-1.555-.551-2.31-.826.046-.256.079-.511.131-.768zm-1.657-2.179a2.519 2.519 0 0 0-.715-.763c.1-.897.167-1.799.218-2.71.789.161 1.62.336 2.49.507a48.054 48.054 0 0 1-.396 3.952c-.51.048-1.095-.13-1.597-.986zm-.96 1.034l.07-.467c.052.064.103.118.147.189.118.185.287.35.47.501-.237-.074-.462-.15-.688-.223zm-.05.284c.765.251 1.58.514 2.423.78-.044.258-.082.51-.122.77-.84-.298-1.646-.593-2.413-.862.04-.226.077-.458.111-.688zm-2.286-2.806c.076-.835.134-1.673.175-2.511.694.136 1.456.294 2.297.458-.047.866-.11 1.72-.201 2.572-.653-.351-1.452-.484-2.271-.52zm1.968 2.715c-.029.217-.07.443-.112.666-.8-.286-1.538-.551-2.207-.787.031-.202.058-.395.089-.601.667.218 1.424.455 2.23.722zM106.31 73.1c.037-.26.065-.523.103-.793.616.088 1.536.205 2.228.833-.028.232-.053.46-.087.683-.814-.261-1.573-.504-2.244-.723zm.025-12.235c-.146-1.06-.342-2.1-.575-3.148 1.733-.097 3.797-.22 5.223-.295.237 1.186.42 2.383.564 3.587-1.964-.051-3.795-.105-5.212-.144zm5.252.403c.149 1.289.245 2.58.292 3.886-1.895-.23-3.714-.46-5.182-.634a43.781 43.781 0 0 0-.328-3.396c1.418.044 3.244.09 5.218.144zm5.914 7.585c-.018.633-.07 1.267-.118 1.895-.803-.164-1.618-.324-2.408-.484.027-.499.078-1 .094-1.491l-.491-.026c-.02.477-.06.942-.094 1.416-.818-.164-1.621-.325-2.401-.483.017-.341.042-.676.056-1.014.04-1.073.027-2.13 0-3.189 1.825.226 3.712.454 5.387.662.014.9.009 1.809-.025 2.714zm-12.946 33.653s1.039 1.065 1.792 1.825c-.063.069-.124.142-.187.208-.747-.78-1.796-1.867-1.796-1.867l.19-.166zM20.41 51.908c-.782-.131-1.6-.271-2.418-.412.204-.647.425-1.29.655-1.927.8.189 1.597.387 2.386.586-.212.582-.427 1.165-.623 1.753zm5.31 1.203c-.16.47-.313.944-.453 1.425-1.435-.183-3.24-.397-5.193-.641.154-.554.319-1.108.499-1.66 1.949.326 3.727.63 5.147.876zm-1.127 3.941c-1.138-.067-2.161-.113-2.308-.128-.004.121-.009.175-.01.294.142.006 1.133.064 2.25.122a43.222 43.222 0 0 0-.714 4.013c-1.57.086-3.467.198-5.229.294.275-2.538.74-5.033 1.406-7.47 1.954.236 3.756.462 5.193.643a37.338 37.338 0 0 0-.588 2.232zm-3.35 13.026a45.736 45.736 0 0 1-.116-3.033c.823-.15 1.611-.286 2.328-.419-.011.953 0 1.9.057 2.854-.74.19-1.524.397-2.27.598zm.357 5.38c-2.408.943-5.196 2.053-7.69 3.04a54.14 54.14 0 0 1-1.218-9.908c2.155-.388 5.314-.967 8.108-1.48 0 1.024.043 2.04.115 3.048-1.79.473-3.315.875-3.453.914.033.116.045.168.074.283.318-.082 2.981-.79 2.981-.79l.05.198c.046-.007.182-.051.38-.096.128 1.607.348 3.2.653 4.791zm.38 1.818c-1.476.629-3.138 1.336-4.861 2.074-.003 0-.003-.01-.007-.01l-.475.124c.009.026.015.053.023.083-.753.322-1.507.646-2.265.972a49.84 49.84 0 0 1-.261-1.014c-.062-.259-.114-.519-.17-.776 2.49-.995 5.276-2.094 7.676-3.044.102.53.219 1.059.34 1.591zm.367 1.466l-4.653 2.618a42.149 42.149 0 0 1-.496-1.72c1.723-.734 3.375-1.442 4.847-2.075.097.394.198.788.302 1.177zm.33 1.214c.179.601.381 1.204.588 1.804-.708.426-1.449.875-2.208 1.336-.19-.546-.381-1.091-.553-1.635l-.235.07c.178.57.368 1.133.567 1.695-.699.42-1.405.85-2.11 1.273a49.954 49.954 0 0 1-.98-2.945c1.476-.833 3.12-1.749 4.649-2.619.098.34.183.688.283 1.021zm1.508 4.269c.008.019.022.036.027.055-1.435 1.012-2.966 2.105-4.346 3.08-.268-.616-.535-1.222-.778-1.838-.096-.26-.18-.528-.279-.79.708-.424 1.417-.86 2.114-1.273.184.508.377 1.015.578 1.523l.229-.1a34.876 34.876 0 0 1-.593-1.563c.757-.452 1.499-.899 2.205-1.326.266.754.546 1.504.843 2.232zm.656 1.496c-1.27-.023-2.855.9-3.415 2.008-.32.624-.472 1.096-.758 1.354-.25-.515-.501-1.032-.726-1.546 1.38-.981 2.912-2.07 4.35-3.08.177.425.369.848.55 1.264zm.483 1.166c.024.002.049.002.074.019.186.373.379.747.578 1.122-1.329.98-2.784 2.074-4.234 3.148-.172-.303-.347-.608-.502-.918.666-.335 1.322-.946 1.658-2.043.173-.552.674-1.926 2.426-1.328zm2.757-.511c.01.016.023.04.035.051-.574.431-1.205.9-1.875 1.401a33.804 33.804 0 0 1-.428-.846c.793.116 1.553-.165 2.268-.606zm.145.271a45.724 45.724 0 0 0 1.637 2.905c-.555.5-1.15 1.024-1.74 1.537a43.266 43.266 0 0 1-1.772-3.047c.672-.503 1.305-.967 1.875-1.395zm3.027 5.005a40.743 40.743 0 0 0 2.69 3.384c-1.066 1.327-2.283 2.842-3.282 4.092a47.076 47.076 0 0 1-4.294-5.496l1.895-1.72c.197.297.385.606.592.907l.265-.19c-.21-.308-.407-.633-.613-.949.613-.56 1.192-1.09 1.716-1.578.338.526.671 1.05 1.031 1.55zm-2.31 9.625a50.436 50.436 0 0 1-4.585-5.796c.611-.562 1.226-1.118 1.83-1.675a48.964 48.964 0 0 0 4.313 5.528c-.7.865-1.257 1.562-1.557 1.943zM23.9 94.812a51.74 51.74 0 0 1-2.044-3.423c1.454-1.08 2.906-2.17 4.226-3.144a43.549 43.549 0 0 0 1.79 3.066c-.734.646-1.429 1.263-2.01 1.774l-.118.079c.004.008.004.01.013.017l-1.363 1.195s-.188.173-.494.436zm-7.75-8.762a56.47 56.47 0 0 1-1.04-3.01c.639-.356 1.383-.783 2.19-1.23.3.994.636 1.975.997 2.951-.727.44-1.446.875-2.147 1.29zm-1.68-5.234c.763-.329 1.518-.655 2.272-.973.154.59.332 1.176.504 1.768-.813.456-1.558.88-2.196 1.234-.207-.681-.4-1.356-.58-2.029zm-2.72.825a52.494 52.494 0 0 1-.467-1.856c.757-.297 1.58-.623 2.446-.967.057.244.109.497.163.742.093.35.181.705.271 1.058-.81.346-1.62.687-2.413 1.023zM9.826 67.508c.835-.13 1.705-.264 2.6-.4 0 .414.007.823.016 1.233-1.362.249-2.28.422-2.36.43.016.122.026.182.05.295.08-.018.979-.186 2.316-.43a53.368 53.368 0 0 0 1.236 9.955c-.869.342-1.692.672-2.45.969a56.905 56.905 0 0 1-1.408-12.052zm10.975-.696c-2.788.512-5.948 1.092-8.111 1.486a43.55 43.55 0 0 1-.018-1.23c2.76-.424 5.675-.867 8.147-1.245-.006.333-.018.658-.018.99zm2.655-.484c-.717.13-1.5.274-2.323.43 0-.326.005-.656.015-.978.841-.13 1.617-.256 2.32-.355v.016c-.012.297-.006.593-.012.887zm-1.23-4.135c.52-.032 1.022-.068 1.495-.098-.049.372-.081.756-.112 1.131a2.373 2.373 0 0 1-.728-.557c-.171-.188-.4-.348-.655-.476zM9.855 64.946c.01-.26.032-.512.045-.762.545.287 1.18.327 2.075-.153 1.585-.831 2.33-1.355 3.278-.947-.049.685-.09 1.361-.118 2.05l.497.02c.02-.602.06-1.195.103-1.798.049.044.097.065.152.107.364.293 1.24.743 2.251.603-.026.39-.063.782-.07 1.177l.24.01c.015-.411.059-.819.081-1.23.445-.102.9-.312 1.357-.705.401-.347 1.455-1.176 2.536.159.341.416.777.658 1.248.803-.017.284-.032.563-.05.842-.702.11-1.48.227-2.326.36v-.127l-.325-.01c-.007.06 0 .125-.007.181-2.475.386-5.39.827-8.15 1.242 0-.572.006-1.142.029-1.716l-.244-.016c-.024.596-.03 1.187-.03 1.776-.896.135-1.773.272-2.61.401 0-.755.012-1.51.038-2.267zm2.812-2.095c-.662.477-1.51.918-2.107.27-.035-.037-.082-.076-.122-.124.514-.036 1.284-.086 2.229-.146zm-1.147-9.713c1.713.218 3.515.431 5.291.649a52.368 52.368 0 0 0-1.416 7.793c-.593-.177-1.117.067-1.517.333-.505.031-.83.052-.879.052.006.17.028.566.028.566s-1.982.138-2.888.198c-.045-.038-.1-.076-.146-.111a57.493 57.493 0 0 1 1.527-9.48zm.64-2.338c1.715.291 3.505.597 5.254.891a59.153 59.153 0 0 0-.534 1.81c-1.772-.21-3.576-.44-5.286-.644.178-.689.364-1.38.567-2.057zm5.214 2.764c.166-.601.348-1.19.533-1.787.82.14 1.631.28 2.424.414-.178.555-.35 1.111-.506 1.676-.794-.1-1.618-.201-2.45-.303zm.86 8.903c0 .037 0 .075-.005.114-.542.349-.887.473-1.504-.01l1.51-.104zM15.87 61.8a51.204 51.204 0 0 1 1.435-7.948c.83.1 1.644.196 2.438.296a47.76 47.76 0 0 0-1.406 7.51c-.88.056-1.722.097-2.467.142zm-2.87-13.619c1.439.354 3.261.8 5.17 1.267a50.848 50.848 0 0 0-.673 1.967c-1.747-.298-3.536-.608-5.253-.9.24-.781.49-1.558.756-2.334zm76.123 53.3a831.314 831.314 0 0 1-3.881-3.544c-.111.085-.216.163-.359.275.264.248 3.245 2.984 3.868 3.562-.206.16-.42.32-.631.476-.538-.93-1.64-1.575-2.629-2.126-1.358-.768-1.795-.974-1.795-.974s-.549.275-.176.605c.38.33 1.98 1.179 2.498 1.595.39.31 1.005.764 1.335 1.458-.688.49-1.383.946-2.09 1.391-2.066-2.153-3.592-3.765-3.647-3.822-.066.04-.108.057-.198.103.08.083 1.613 1.677 3.662 3.827-.043.028-.08.056-.125.087-.402.248-.824.464-1.234.699-1.904-2.15-3.457-3.908-3.503-3.96-.05.02-.076.04-.145.07.07.07 1.621 1.82 3.512 3.962-.306.173-.603.345-.91.509-1.753-2.418-2.983-4.103-3.033-4.175-.088.056-.138.081-.263.145l3.032 4.183a38.93 38.93 0 0 1-2.285 1.087c-1.658-2.447-2.87-4.232-2.912-4.303-.077.03-.116.053-.222.092.07.094 1.276 1.882 2.92 4.314-.636.281-1.288.528-1.936.769-.405-.7-.784-1.351-1.122-1.946.433-.155.877-.312 1.305-.493l-.232-.59c-.458.189-.929.357-1.395.524-.676-1.165-1.12-1.945-1.143-1.98-.058.024-.093.035-.167.065.035.047.47.822 1.143 1.979-.783.28-1.566.548-2.366.774-.53-1.102-.928-1.92-.965-2-.094.027-.154.048-.266.077.046.11.443.921.961 1.995-.23.067-.461.126-.69.177a91.127 91.127 0 0 1-.836-2.033c-.093.028-.141.05-.259.08.026.064.341.827.837 2.02-.461.113-.92.226-1.383.328l-.803-2.033c-.097.024-.15.035-.273.058.056.15.414 1.035.805 2.031-.373.077-.74.158-1.107.218-.335-1.18-.577-2.02-.587-2.048-.064.02-.208.047-.24.062.016.076.26.981.546 2.04-.926.156-1.85.273-2.775.364-.01-.83.006-1.881-.063-2.24-.096-.513-.624-.164-.624-.164s-.04.51-.076 2.14v.332c-.336.026-.667.047-1.003.063-.252-1.235-.413-2.035-.427-2.097-.101.002-.148.01-.278.01.018.086.18.885.435 2.1-1 .042-1.995.057-2.987.019-.092-1.051-.183-2.053-.19-2.146-.083-.005-.142-.012-.239-.012.006.057.075.887.194 2.155-.024 0-.044 0-.061.003l-.027.64c.05.003.093 0 .145 0 .116 1.388.274 3.15.437 5.007a47.78 47.78 0 0 1-2.9-.166c.016-.861.039-1.68.058-2.441.85.08 1.707.135 2.57.165l.013-.322a38.774 38.774 0 0 1-2.575-.163l.126-5.013c-.163-.026-.425-.074-.628-.107-.01.12-.077 2.152-.184 5.041-1.003-.111-2-.25-2.99-.43.157-2.345.321-4.84.329-5.004-.098-.018-.146-.032-.265-.053-.013.206-.176 2.672-.339 5.001-.207-.035-.424-.092-.636-.136.299-2.837.513-4.891.522-4.97-.083-.02-.128-.025-.223-.051-.01.103-.224 2.15-.523 4.972a35.03 35.03 0 0 1-2.308-.571c.051-.301.101-.605.148-.892.12.017.24.038.262.039.23-1.467.567-3.746.58-3.83a1.756 1.756 0 0 1-.19-.054c.024-.143.035-.226.04-.244-.1-.027-.305-.088-.427-.116-.013.084-.426 2.295-.915 4.965a43.234 43.234 0 0 1-2.934-.98c.733-2.761 1.264-4.732 1.284-4.816-.096-.033-.139-.055-.239-.093-.031.104-.556 2.066-1.287 4.813-.38-.144-.767-.289-1.147-.445.825-2.722 1.417-4.697 1.44-4.772-.09-.042-.134-.057-.235-.104-.034.1-.626 2.058-1.447 4.774-.43-.19-.865-.385-1.292-.58.989-2.685 1.68-4.58 1.717-4.664-.048-.018-.144-.062-.144-.062s-.056-.032-.108-.056c-.04.102-.73 1.99-1.72 4.667-.093-.049-.195-.088-.298-.132-.523-.256-1.026-.521-1.542-.791.31-.697.626-1.402.917-2.048.52.269 1.033.55 1.563.802l.272-.577a37.392 37.392 0 0 1-1.573-.816c.456-1.032.8-1.812.836-1.9-.09-.052-.138-.077-.236-.13-.048.1-.392.874-.848 1.907a38.883 38.883 0 0 1-2.795-1.686c.63-1.049 1.038-1.744 1.08-1.802-.105-.063-.52-.332-.52-.332-.101.17-.513.854-1.084 1.78a49.966 49.966 0 0 1-1.843-1.34c.364-.527.661-.957.867-1.251l.222-.324c.049-.084.094-.138.104-.155-.055-.038-.098-.08-.172-.137a6.817 6.817 0 0 1-.206.307l-.14.193c-.202.307-.495.724-.846 1.237l-.36.524c-.373.546-.798 1.172-1.268 1.845l-.17.26c-.44.635-.91 1.31-1.383 2.008l-3.2 4.664a2008.08 2008.08 0 0 1-5.29 7.705c.074.052.101.08.175.135l5.287-7.704a46.92 46.92 0 0 0 2.303 1.656c-1.543 2.51-2.746 4.474-2.803 4.563.096.05.14.086.238.133.146-.232 1.467-2.387 1.467-2.387s.321.196.461.267c.04-.062.544-.898 1.289-2.143a50.73 50.73 0 0 0 5.642 3.182l.1-.22a51.808 51.808 0 0 1-5.624-3.17l2.66-4.46a45.011 45.011 0 0 0 3.418 2.033c-.215.49-.358.82-.388.884.099.041.152.061.252.105.02-.056.166-.373.379-.858.489.26.99.512 1.496.753.175.088.357.159.53.242-.265.718-.538 1.46-.816 2.221-.237-.114-.476-.209-.71-.33l-.205.441c.25.121.5.218.75.337l-1.771 4.82c-.38-.17-.755-.341-1.134-.523l-.069.15c.38.183.766.35 1.15.53l-3.538 9.627c.1.04.148.061.251.11.051-.15 1.677-4.566 3.534-9.626.632.277 1.266.547 1.902.8-1.106 3.67-1.985 6.573-2.017 6.68.098.033.14.052.244.093.038-.113.916-3.01 2.02-6.666.5.192 1 .374 1.502.557-1.161 4.346-2.112 7.929-2.146 8.052.048.009.128.04.244.077.036-.13.988-3.706 2.14-8.039 2.439.856 4.924 1.54 7.45 2.02-.387 3.658-.687 6.518-.692 6.615.085.023.146.023.224.035.008-.117.31-2.961.69-6.596.63.113 1.263.228 1.9.316.922.142 1.841.241 2.768.34-.2 5.41-.366 10.137-.37 10.272.119.014.19.019.27.032.01-.34.1-2.694.1-2.694l.357.012s-.065 2.427-.066 2.726c.101.007.155.015.264.031.01-.165.125-4.9.261-10.315 1.283.1 2.565.151 3.848.165.132 1.512.22 2.517.226 2.57.024-.002.122-.002.187-.005-.008-.077-.09-1.104-.225-2.565 1.554 0 3.104-.065 4.653-.203.36 1.732.602 2.916.62 3 .105-.023.158-.036.268-.059-.02-.085-.26-1.248-.617-2.967.222-.018.441-.035.659-.058-.035.096-.064.187-.098.292-.657 2.002.627 2.523 1.949 3.43 1.326.902.29 1.89-.734 4.321-1.027 2.434 2.392 3.584 2.392 3.584-.772-.85-1.37-1.807-1.597-2.947-.196-1.021.258-1.48.75-2.304.281-.467.491-1.016.474-1.566-.033-.877-1.12-2.57-2.166-3.28-.545-.377-.479-1.012-.256-1.62a51.439 51.439 0 0 0 3.364-.508l-.027-.15a54.252 54.252 0 0 1-3.27.49c.197-.472.474-.908.6-1.159.183-.354.495-.924.425-1.528 2.234-.327 4.44-.82 6.623-1.454 2.249 5.467 4.402 10.666 4.456 10.808.105-.045.24-.095.24-.095-.057-.168-2.198-5.346-4.443-10.786.8-.235 1.603-.485 2.395-.767l-.077-.227c-.798.275-1.603.534-2.411.776l-2.001-4.84c.342-.09.678-.193 1.016-.3.29.601.49 1.01.522 1.077.097-.049.142-.07.242-.122a77.922 77.922 0 0 1-.496-1.04 43.19 43.19 0 0 0 2.75-.969c.403.7.809 1.393 1.195 2.073l.17.448c.03-.01.05-.021.071-.03 1.569 2.715 2.86 4.963 2.904 5.03.068-.029.156-.072.162-.072-.056-.09-1.338-2.331-2.896-5.024a50.252 50.252 0 0 0 2.284-.997c3.188 4.702 6.407 9.47 6.484 9.587.074-.038.12-.064.209-.102-.097-.15-3.31-4.895-6.48-9.585.824-.39 1.633-.803 2.43-1.233 4.51 6.218 9.73 13.426 9.841 13.578.098-.065.145-.092.247-.167-.134-.183-5.336-7.362-9.832-13.558.483-.266.956-.521 1.422-.808 1.696 1.914 3.018 3.413 3.067 3.469.057-.032.125-.072.13-.077l-3.07-3.465c.509-.311 1.02-.622 1.516-.952 1.24 1.312 2.48 2.6 3.571 3.748-.91.62-1.83 1.218-2.77 1.775l.081.136a59.71 59.71 0 0 0 2.803-1.795c2.035 2.127 3.537 3.712 3.593 3.765.08-.05.16-.106.183-.112-.074-.075-1.574-1.649-3.607-3.769a56.745 56.745 0 0 0 3.218-2.39c.274.148.476.394.496.757.086 1.236.956 2.984 1.663 3.435.442.288.999.378 1.52.36.918-.015 1.518-.177 2.259.49.834.737 1.329 1.726 1.658 2.79 0 0 .7-3.473-1.795-3.788-2.505-.304-3.814.09-3.915-1.475-.094-1.362.035-2.555-1.233-3.117l-.177-.06c-.142-.047-.293-.104-.474-.144-1.975-.422-2.813-.407-3.176-1.932-.053-.267-.22-.69-.527-1.098l-.32-.357c-.454-.443-1.102-.782-2.035-.752-.494.008-1.736-.03-1.746-1.65a2.32 2.32 0 0 0-.2-.875c.297-.22.598-.447.9-.671.214.195 1.805 1.652 2.03 1.853.068-.085.105-.124.182-.208-.104-.088-.958-.866-2.002-1.82l-.24-.219zm-53.052 2.731c-.943 1.378-1.952 2.847-2.93 4.273l2.93-4.273zm-2.754 4.4c.978-1.42 1.984-2.888 2.929-4.27a45.11 45.11 0 0 0 2.08 1.498c-.913 1.495-1.86 3.03-2.716 4.422a44.335 44.335 0 0 1-2.293-1.65zm5.135-2.968a44.435 44.435 0 0 1-2.067-1.501c.478-.696.941-1.378 1.372-2.003.643.487 1.298.976 1.974 1.43-.413.66-.836 1.357-1.28 2.074zm1.439-2.346a46.178 46.178 0 0 1-1.955-1.424c.464-.671.897-1.297 1.27-1.84.607.467 1.225.916 1.868 1.348-.354.569-.746 1.22-1.183 1.916zm.563.363c.417-.69.802-1.347 1.15-1.915a37.858 37.858 0 0 0 2.862 1.718l-.916 2.057a42.936 42.936 0 0 1-3.096-1.86zm-1.414 2.371c.428-.717.846-1.424 1.251-2.103a38.17 38.17 0 0 0 3.127 1.88c-.366.847-.716 1.635-.988 2.234a48.269 48.269 0 0 1-3.39-2.011zm4.624-.092c.504.261 1.016.53 1.53.782.115.05.223.097.334.15-.263.714-.548 1.486-.84 2.286-.172-.076-.344-.148-.52-.227a47.99 47.99 0 0 1-1.495-.749l.991-2.242zm2.114 1.04c.437.201.869.402 1.3.59-.22.737-.459 1.53-.702 2.348-.486-.204-.964-.429-1.441-.645.295-.806.58-1.571.843-2.293zm-.923 2.518c.48.224.958.45 1.451.654-.23.732-.455 1.493-.686 2.261-.53-.22-1.061-.455-1.589-.698.282-.755.558-1.497.824-2.217zm-.984 2.667c.534.248 1.07.483 1.609.702-.507 1.68-1.011 3.365-1.482 4.925a36.879 36.879 0 0 1-1.9-.798c.588-1.584 1.187-3.226 1.773-4.83zm1.858.805c.443.174.886.356 1.335.52-.45 1.66-.903 3.357-1.327 4.962a48.532 48.532 0 0 1-1.498-.554c.471-1.563.986-3.253 1.49-4.928zm1.57.611c1.114.405 2.24.751 3.373 1.068-.382 2.053-.667 3.6-.676 3.661l.14.034c.016-.068.307-1.656.675-3.66.11.032.217.06.327.094a840.5 840.5 0 0 1-.621 3.649c.017 0 .094.023.144.036.007-.073.273-1.608.615-3.647.883.228 1.768.449 2.664.625-.185 1.748-.37 3.507-.538 5.123a52.95 52.95 0 0 1-7.426-2.019c.429-1.605.878-3.303 1.323-4.964zm6.86 1.913c1.422.283 2.855.48 4.304.632-.06 1.694-.124 3.445-.187 5.138a63.298 63.298 0 0 1-2.748-.327 58.926 58.926 0 0 1-1.908-.327c.174-1.616.359-3.375.539-5.116zm4.406-2.218c-.028.77-.05 1.56-.086 2.367a47.163 47.163 0 0 1-4.271-.634c.088-.801.174-1.597.257-2.367.247.043.497.102.75.15-.047.656-.077 1.11-.077 1.183l.267.016c.007-.07.041-.51.082-1.146 1.02.18 2.045.323 3.078.43zm-2.9-3.128c.991.186 1.994.317 3 .433-.03.768-.058 1.596-.086 2.454a39.476 39.476 0 0 1-3.078-.436c.045-.681.108-1.542.163-2.451zm-.919-.188c.212.038.43.1.648.138-.062.901-.116 1.767-.162 2.451-.25-.049-.495-.095-.743-.148.09-.852.175-1.674.257-2.44zm-2.553-.622c.771.217 1.55.403 2.329.568-.082.774-.166 1.599-.258 2.446a42.053 42.053 0 0 1-2.473-.593c.132-.81.273-1.63.402-2.42zm-.138-.039c-.122.752-.264 1.579-.406 2.427a4.162 4.162 0 0 0-.278-.072c.162-.85.313-1.673.455-2.415.071.026.152.039.229.06zm.315-3.013l.054.007c-.115.684-.236 1.38-.306 1.785.02.006.073.006.139.019-.048.275-.09.567-.148.883-.074-.02-.152-.037-.227-.062.285-1.529.488-2.632.488-2.632zm-3.642 1.936c.981.358 1.96.69 2.956.974-.142.792-.296 1.608-.444 2.42a45.231 45.231 0 0 1-3.141-1.035c.22-.833.432-1.622.629-2.359zm-2.109 1.792c.248-.818.49-1.606.711-2.344.383.161.769.308 1.159.452-.202.746-.41 1.54-.63 2.366-.415-.154-.828-.302-1.24-.474zm.564 3.006c-.444-.166-.88-.335-1.318-.512.236-.772.463-1.525.684-2.264.414.17.827.325 1.246.474-.2.747-.41 1.52-.612 2.302zm3.575 1.156a44.476 44.476 0 0 1-3.331-1.065c.205-.778.41-1.55.612-2.296 1.04.385 2.09.734 3.158 1.037-.154.805-.294 1.586-.439 2.324zm.991-2.18a37.97 37.97 0 0 0 2.493.595c-.087.772-.164 1.57-.254 2.37a43.355 43.355 0 0 1-2.636-.625c.128-.74.266-1.534.397-2.34zm-.535 2.306a5.271 5.271 0 0 1-.31-.094l.427-2.316c.094.024.185.043.28.067-.137.792-.272 1.589-.397 2.343zm8.006 1.898a50.1 50.1 0 0 0 2.19.142l.016-.485a45.241 45.241 0 0 1-2.192-.133c.021-.815.038-1.612.055-2.387.97.086 1.949.145 2.932.162.252 2.867.518 5.887.701 7.995a50.535 50.535 0 0 1-3.821-.163c.035-1.682.075-3.433.119-5.13zm3.19-2.685c.227 0 .458.012.68.012 1.015 0 2.026-.038 3.032-.106.36 1.726.728 3.52 1.06 5.149-1.14.095-2.279.156-3.434.171l.005.243a53.037 53.037 0 0 0 3.482-.174c.184.894.351 1.742.517 2.486-1.55.134-3.095.207-4.64.198-.201-2.284-.485-5.549-.702-7.98zm5.098 5.273a51.372 51.372 0 0 0 1.644-.168c.277.678.015 1.398-.387 2.583-.245.03-.494.048-.748.07-.153-.749-.322-1.58-.51-2.485zm2.23-1.553c-1.337-.973-.911-1.305-.442-2.493.178-.469.212-1.062.122-1.65.613-.084 1.221-.197 1.83-.3.467 1.747 1.037 3.924 1.063 4.01.042-.017.34-.114.448-.152-.013-.066-.513-1.813-1.118-3.928a44.426 44.426 0 0 0 3.403-.81 2368.28 2368.28 0 0 0 1.998 4.836 48.644 48.644 0 0 1-6.578 1.446c-.094-.32-.3-.652-.725-.959zm-2.75-9.145c.978-.086 1.941-.21 2.91-.376.384 1.426.772 2.893.772 2.893s.224.865.519 1.95a44.62 44.62 0 0 1-1.81.297c-.172-.815-.57-1.592-1.14-1.97-1.036-.672-1.134-1.894-1.23-2.586a12.656 12.656 0 0 1-.022-.208zm1.568 9.7c.214.203.363.404.474.595a34.89 34.89 0 0 1-1.57.165c-.337-1.626-.707-3.418-1.058-5.145.68-.046 1.357-.115 2.036-.196-.061.34-.224.635-.327.81-1.084 1.78-.062 3.303.445 3.771zm-3.222-9.568c.288-.018.584-.032.867-.05.02 1.36.235 2.726 1.37 3.415.715.428.909.92.895 1.376-.7.087-1.402.156-2.117.205-.378-1.842-.738-3.587-1.015-4.946zm-3.16 1.958c-.006-.102-.088-.96-.176-1.917 1.016.03 2.039.02 3.059-.03.278 1.366.638 3.11 1.018 4.952-.99.063-1.987.105-2.985.105-.235 0-.467-.014-.7-.022-.159-1.796-.27-3.078-.27-3.078l.055-.01zm10.464-.279c-.055-.153-.528-1.336-1-2.537.467-.097.928-.212 1.39-.33.522 1.254 1.179 2.867 1.92 4.655a45.312 45.312 0 0 1-3.378.799c-.454-1.61-.964-3.398-1.375-4.827.39-.068.78-.154 1.17-.236.483 1.222.962 2.424 1.02 2.573.106-.037.156-.053.253-.097zm2.566 1.721c-.736-1.788-1.397-3.398-1.927-4.658.247-.06.492-.118.736-.182.308.636.64 1.336.973 2.02-.158.048-.306.11-.462.148l.083.315c.178-.056.346-.118.526-.17.396.828.772 1.614 1.073 2.24-.333.09-.669.198-1.002.287zm.053-2.906c-.331-.683-.67-1.372-.978-2.009.81-.246 1.61-.511 2.408-.796.338.586.72 1.241 1.129 1.94-.845.32-1.7.607-2.559.865zm.138.293c.866-.267 1.73-.554 2.575-.879.4.692.817 1.414 1.236 2.155-.903.343-1.816.668-2.734.954-.3-.617-.68-1.401-1.077-2.23zm3.977 1.206c-.418-.732-.84-1.457-1.233-2.145.655-.253 1.313-.5 1.951-.783.878 1.293 1.861 2.749 2.864 4.236-.748.331-1.5.661-2.265.974-.39-.678-.788-1.375-1.197-2.072.224-.091.44-.163.656-.255l-.084-.218c-.229.091-.458.172-.692.263zm3.789 1.197c-.997-1.474-1.98-2.934-2.858-4.23a36.4 36.4 0 0 0 2.295-1.097c.897 1.234 1.917 2.64 2.978 4.105-.791.425-1.595.84-2.415 1.222zm2.684-1.369c-1.076-1.466-2.088-2.872-2.986-4.103.32-.169.625-.355.945-.533 1.11 1.26 2.322 2.634 3.414 3.866-.451.263-.912.523-1.373.77zm1.505-.855a718.561 718.561 0 0 1-3.414-3.858c.393-.22.793-.425 1.178-.663.069-.04.128-.082.193-.121 1.092 1.142 2.311 2.418 3.543 3.71-.496.32-.997.634-1.5.932zm1.674-1.046a1160.117 1160.117 0 0 1-3.54-3.71 43.205 43.205 0 0 0 1.974-1.314c.05.168.084.346.096.528.06 1.215 1.46 2.593 2.666 2.777.432.065.772.08 1.036.153a43.877 43.877 0 0 1-2.232 1.566zm.34.351a48.303 48.303 0 0 0 2.344-1.661c.18.205.288.557.35 1.176.156 1.612 1.441 1.601 2.07 1.629.41.024 1.34-.041 1.978.23a54.8 54.8 0 0 1-3.178 2.369 2201.13 2201.13 0 0 1-3.564-3.743z"/>
    </g>
</svg>
